<svg width="140" height="14" viewBox="0 0 140 14" fill="none" xmlns="http://www.w3.org/2000/svg">
<mask id="mask0_79_1167" style="mask-type:luminance" maskUnits="userSpaceOnUse" x="0" y="0" width="140" height="14">
<path d="M140 0H0V13.1683H140V0Z" fill="white"/>
</mask>
<g mask="url(#mask0_79_1167)">
<path d="M23.5439 0L24.9396 1.58716V11.5822L23.5439 13.1683H35.9383V10.7435H27.6969V7.36795H32.4996V5.14875H27.6969V2.30405H35.8388V0H23.5439Z" fill="#111111"/>
<path d="M44.9902 0L46.3837 1.58716V11.5822L44.9902 13.1683H56.5184V10.7435H49.1432V0H44.9902Z" fill="#111111"/>
<path d="M87.9954 0L88.8594 0.983408L82.3057 13.1683H85.1932L86.8622 9.87868H94.2505L95.9666 13.1683H99.1254L91.9493 0H87.9954ZM90.5886 2.67283L93.0824 7.62468H88.0118L90.5886 2.67283Z" fill="#111111"/>
<path d="M13.4903 1.6644C12.2752 0.523252 10.722 0 8.44812 0H0L1.39453 1.58607V11.5822L0 13.1683H7.15969C9.09562 13.1683 10.8183 12.8877 11.8158 12.4645C12.9566 11.9804 13.8305 11.1776 14.478 10.0691C15.0905 9.01929 15.3245 7.62577 15.3245 6.50964C15.3245 4.56676 14.6552 2.75985 13.4892 1.6644M10.9605 9.833C10.1117 10.4302 8.83859 10.7239 6.93437 10.7239H4.14969V2.32145H8.28516C10.967 2.32145 12.4316 3.7933 12.4316 6.46069C12.4316 8.04459 11.8934 9.17485 10.9594 9.833" fill="#111111"/>
<path d="M73.6704 0L74.611 1.04433L70.1901 9.61216L65.0691 0H61.8809L69.1116 13.1683H71.0235L77.9141 0H73.6704Z" fill="#111111"/>
<path d="M113.628 0L115.023 1.58716V10.6119H108.495V0H105.736V10.3943C105.736 11.4702 105.997 12.1207 106.407 12.5189C106.809 12.9127 107.45 13.1694 108.494 13.1694H114.899C115.942 13.1694 116.582 12.9138 116.986 12.5189C117.395 12.1207 117.655 11.4702 117.655 10.3943V0H113.628Z" fill="#111111"/>
<path d="M134.392 0L135.081 0.803915L132.191 4.52433L128.292 0H124.585L130.264 6.26161L124.561 13.1683H129.255L128.554 12.3503L131.866 8.04785L136.293 13.1683H140L133.698 6.2181L138.876 0H134.392Z" fill="#111111"/>
</g>
</svg>
