<svg width="16" height="14" viewBox="0 0 16 14" fill="none" xmlns="http://www.w3.org/2000/svg">
<path d="M13.4903 1.6644C12.2752 0.523252 10.722 0 8.44812 0H0L1.39453 1.58607V11.5822L0 13.1683H7.15969C9.09562 13.1683 10.8183 12.8877 11.8158 12.4645C12.9566 11.9804 13.8305 11.1776 14.478 10.0691C15.0905 9.01929 15.3245 7.62577 15.3245 6.50964C15.3245 4.56676 14.6552 2.75985 13.4892 1.6644M10.9605 9.833C10.1117 10.4302 8.83859 10.7239 6.93437 10.7239H4.14969V2.32145H8.28516C10.967 2.32145 12.4316 3.7933 12.4316 6.46069C12.4316 8.04459 11.8934 9.17485 10.9594 9.833" fill="#111111"/>
</svg>
