<?xml version="1.0" standalone="no"?>
<!DOCTYPE svg PUBLIC "-//W3C//DTD SVG 1.1//EN" "http://www.w3.org/Graphics/SVG/1.1/DTD/svg11.dtd" >
<svg xmlns="http://www.w3.org/2000/svg" xmlns:xlink="http://www.w3.org/1999/xlink" version="1.1">
<metadata>
Created by FontForge 20201107 at Tue Feb 18 06:32:51 2025
 By 
(c)2012 Kai Bernau and Susana Carvalho with Christian Schwartz under exclusive license to Schwartzco Inc./Commercial Type. All rights reserved.
</metadata>
<defs>
<font id="AtlasGrotesk-BoldItalic" horiz-adv-x="1228" >
  <font-face 
    font-family="Atlas Grotesk Bold"
    font-weight="700"
    font-style="italic"
    font-stretch="normal"
    units-per-em="2048"
    panose-1="0 0 0 0 0 0 0 0 0 0"
    ascent="1663"
    descent="-385"
    x-height="1098"
    cap-height="1567"
    bbox="-492 -461 2507 2449"
    underline-thickness="102"
    underline-position="-204"
    slope="-11"
    unicode-range="U+0020-FB02"
  />
<missing-glyph horiz-adv-x="1024" 
 />
    <glyph glyph-name="f_f" unicode="ff" horiz-adv-x="1447" 
d="M571 872l-168 -872h-313l170 872h-149l45 226h147l25 127q21 108 60.5 181.5t98.5 114.5t128.5 58.5t162.5 17.5q117 0 152 -14l-43 -223q-16 4 -70 4q-79 0 -121 -33.5t-57 -111.5l-23 -121h392l30 153q20 108 59.5 182t99 115.5t129.5 59.5t163 18q66 0 162 -16
l-43 -224q-35 7 -82 7q-78 0 -120.5 -34t-57.5 -112l-29 -149h209l-43 -226h-209l-170 -872h-311l170 872h-394z" />
    <glyph glyph-name="fi" unicode="fi" horiz-adv-x="1341" 
d="M1032 1288l60 295h321l-57 -295h-324zM784 0l213 1098h320l-213 -1098h-320zM573 872l-170 -872h-313l170 872h-149l45 226h147l31 153q20 107 59.5 181.5t98 116t127 59.5t157.5 18q74 0 154 -16l-43 -224q-28 7 -72 7q-73 0 -114 -34t-56 -112l-29 -149h209l-45 -226
h-207z" />
    <glyph glyph-name="fl" unicode="fl" horiz-adv-x="1339" 
d="M784 0l314 1614h319l-313 -1614h-320zM573 872l-170 -872h-313l170 872h-149l45 226h147l31 153q20 107 59.5 181.5t98 116t127 59.5t157.5 18q74 0 154 -16l-43 -224q-28 7 -72 7q-73 0 -114 -34t-56 -112l-29 -149h209l-45 -226h-207z" />
    <glyph glyph-name=".notdef" horiz-adv-x="1024" 
 />
    <glyph glyph-name=".null" horiz-adv-x="0" 
 />
    <glyph glyph-name="nonmarkingreturn" horiz-adv-x="682" 
 />
    <glyph glyph-name="space" unicode=" " horiz-adv-x="458" 
 />
    <glyph glyph-name="exclam" unicode="!" horiz-adv-x="649" 
d="M195 498l161 1114h369l-295 -1114h-235zM397 0h-352l59 311h353z" />
    <glyph glyph-name="quotedbl" unicode="&#x22;" horiz-adv-x="964" 
d="M678 1032l63 535h297l-164 -535h-196zM264 1032l64 535h297l-164 -535h-197z" />
    <glyph glyph-name="numbersign" unicode="#" horiz-adv-x="1374" 
d="M594 764h235l99 291h-236zM195 203l122 366h-215l37 195h246l96 291h-225l37 194h254l106 318h209l-104 -318h233l107 318h213l-109 -318h223l-36 -194h-252l-97 -291h230l-37 -195h-260l-121 -366h-213l123 366h-236l-123 -366h-208z" />
    <glyph glyph-name="dollar" unicode="$" horiz-adv-x="1329" 
d="M676 946l69 357q-98 -8 -156.5 -56.5t-58.5 -128.5q0 -75 33.5 -111t112.5 -61zM674 213q107 10 175.5 61t68.5 140q0 78 -37 120t-131 70zM446 -238l43 220q-232 26 -344.5 149.5t-97.5 310.5h322q-3 -97 35 -151.5t131 -71.5l81 422l-67 18q-181 50 -263.5 148
t-82.5 244q0 148 76 257t207.5 164.5t301.5 57.5l33 166l142 2l-35 -176q202 -29 307 -143.5t90 -288.5h-309q6 160 -131 202l-76 -383l72 -20q197 -54 282.5 -150.5t85.5 -263.5q0 -223 -164.5 -358.5t-455.5 -141.5l-41 -211z" />
    <glyph glyph-name="percent" unicode="%" horiz-adv-x="1785" 
d="M152 -82l1351 1681h240l-1352 -1681h-239zM199 1075q0 192 114.5 317.5t284.5 125.5q147 0 232 -80.5t85 -218.5q0 -191 -114 -316t-285 -125q-145 0 -231 80.5t-86 216.5zM526 950q81 0 125.5 83t44.5 188q0 58 -26 92.5t-82 34.5q-52 0 -92 -40t-59.5 -100.5
t-20.5 -130.5q0 -58 26.5 -92.5t83.5 -34.5zM1276 -14q-146 0 -232 79.5t-86 215.5q0 192 114.5 317t285.5 125q148 0 232.5 -79.5t84.5 -217.5q0 -191 -114 -315.5t-285 -124.5zM1286 158q54 0 93.5 41t57 98t19.5 123q2 61 -24.5 97t-83.5 36q-80 0 -125.5 -79t-48.5 -189
q0 -58 27.5 -92.5t84.5 -34.5z" />
    <glyph glyph-name="ampersand" unicode="&#x26;" horiz-adv-x="1544" 
d="M664 1206q0 -92 84 -219q53 28 90.5 52.5t71.5 57t51.5 72t17.5 86.5q0 67 -38.5 109.5t-100.5 42.5q-79 0 -127.5 -58t-48.5 -143zM586 713l-11 -6q-186 -117 -186 -279q0 -100 64 -160.5t174 -60.5q131 0 243 88zM1374 -2h-51q-122 0 -191.5 26t-130.5 93
q-192 -148 -436 -148q-216 0 -353 110t-136 300q0 173 105 293.5t294 210.5q-96 148 -96 303q0 98 37.5 179t101.5 134t148.5 82t179.5 29q178 2 291 -89.5t112 -248.5q0 -64 -23 -123t-57 -103t-88.5 -88.5t-102.5 -74.5t-114 -66l191 -289q63 108 164 316h272
q-20 -37 -68 -129t-74.5 -141.5t-69 -120.5t-81.5 -125q41 -44 88 -60.5t135 -19.5z" />
    <glyph glyph-name="quotesingle" unicode="'" horiz-adv-x="550" 
d="M264 1032l64 535h297l-164 -535h-197z" />
    <glyph glyph-name="parenleft" unicode="(" horiz-adv-x="718" 
d="M526 -266h-221q-78 152 -125 316t-47 366q0 172 42 343.5t116.5 323t164.5 281.5t199 250h246q-235 -303 -360.5 -598.5t-128.5 -628.5q-3 -345 114 -653z" />
    <glyph glyph-name="parenright" unicode=")" horiz-adv-x="718" 
d="M256 1614h223q170 -332 170 -682q0 -173 -41.5 -344t-116 -322.5t-164 -281.5t-198.5 -250h-248q115 147 200 284.5t152.5 290t102 316.5t35.5 336q3 351 -115 653z" />
    <glyph glyph-name="asterisk" unicode="*" horiz-adv-x="903" 
d="M573 1110h-6l-178 -254l-170 143l250 193v8l-268 51l118 222l218 -148l4 4l4 285h233l-108 -291l4 -6l270 131l33 -229l-287 -29v-8l170 -207l-209 -125z" />
    <glyph glyph-name="plus" unicode="+" horiz-adv-x="1261" 
d="M774 614l-78 -401h-264l78 401h-373l45 238h373l78 397h264l-78 -397h377l-45 -238h-377z" />
    <glyph glyph-name="comma" unicode="," horiz-adv-x="577" 
d="M-49 -240l176 566h334l-297 -566h-213z" />
    <glyph glyph-name="hyphen" unicode="-" horiz-adv-x="843" 
d="M113 514l47 252h633l-50 -252h-630z" />
    <glyph glyph-name="period" unicode="." horiz-adv-x="583" 
d="M25 0l61 326h340l-64 -326h-337z" />
    <glyph glyph-name="slash" unicode="/" horiz-adv-x="1150" 
d="M-186 -266l1265 1880h258l-1263 -1880h-260z" />
    <glyph glyph-name="zero" unicode="0" horiz-adv-x="1409" 
d="M125 522q0 89 11.5 182.5t37.5 194t65 192t98.5 174t132 142.5t171 95.5t211.5 35.5q243 0 383 -148t137 -423q-1 -94 -13 -188.5t-38 -193.5t-65 -187.5t-97 -167.5t-129.5 -136t-167.5 -90t-207 -33q-249 0 -389.5 143t-140.5 408zM662 213q88 0 160.5 79.5t116.5 202
t67.5 257.5t23.5 258q0 83 -17 143.5t-63 101.5t-119 41q-70 0 -131.5 -53t-103.5 -138t-72 -191t-44.5 -212.5t-14.5 -201.5q0 -83 17 -144.5t62.5 -102t117.5 -40.5z" />
    <glyph glyph-name="one" unicode="1" horiz-adv-x="876" 
d="M250 0l201 1040h-293l39 209h34q146 0 234 64q82 64 119 207h280l-295 -1520h-319z" />
    <glyph glyph-name="two" unicode="2" horiz-adv-x="1282" 
d="M530 1014h-319q40 254 196.5 390t411.5 136q100 0 184.5 -24t149 -71t100 -124t33.5 -176q-2 -71 -25.5 -139t-58.5 -123t-94 -117t-114.5 -110t-137.5 -113l-354 -281v-2h631l-50 -260h-1099l34 188l627 517q63 52 96.5 80.5t81.5 76.5t72 85t42.5 85t18.5 96
q0 79 -43.5 125t-121.5 45q-220 -4 -261 -284z" />
    <glyph glyph-name="three" unicode="3" horiz-adv-x="1304" 
d="M684 655h-139l45 230h106q114 2 182 64.5t68 168.5q0 84 -53.5 130t-132.5 46q-100 0 -161.5 -55.5t-76.5 -165.5h-313q11 96 53.5 179.5t112.5 148t174.5 102t230.5 37.5q102 0 187.5 -23t153 -69t105.5 -122t38 -175q0 -143 -83 -241t-214 -134v-6q108 -31 168.5 -113
t60.5 -206q0 -149 -80 -260t-213 -166.5t-301 -55.5q-166 0 -289 53t-189.5 160.5t-55.5 257.5h323q-3 -105 54 -162t169 -57q119 0 188.5 69t69.5 179q0 83 -45.5 134.5t-142.5 51.5z" />
    <glyph glyph-name="four" unicode="4" horiz-adv-x="1337" 
d="M393 582h400l129 653h-4q-49 -82 -121 -170zM1233 338h-180l-66 -338h-313l65 338h-702l41 225l823 955h381l-180 -932h180z" />
    <glyph glyph-name="five" unicode="5" horiz-adv-x="1292" 
d="M877 551q0 97 -48.5 152.5t-142.5 58.5q-157 3 -252 -109h-266l235 865h879l-51 -258h-633l-102 -383h4q50 55 132 92t179 37q184 0 288.5 -113.5t104.5 -304.5q0 -182 -85 -324t-231 -218.5t-325 -76.5q-243 0 -381 121.5t-110 337.5h309q-6 -101 45.5 -155t151.5 -54
q135 0 217 97t82 235z" />
    <glyph glyph-name="six" unicode="6" horiz-adv-x="1329" 
d="M1325 1157h-301q-15 150 -160 150q-127 0 -227.5 -131t-155.5 -373h8q59 91 153.5 141.5t211.5 50.5q180 0 283.5 -114t103.5 -299q2 -175 -77 -315.5t-219 -219t-312 -78.5q-132 0 -231.5 40.5t-160 114.5t-90.5 171.5t-30 216.5q0 153 34.5 302.5t102 280.5t159.5 231
t216 157.5t262 56.5q410 -3 430 -383zM647 215q122 0 195 101t73 233q0 95 -52.5 151t-141.5 56q-80 0 -142.5 -48t-94 -122.5t-31.5 -159.5q0 -96 51 -153.5t143 -57.5z" />
    <glyph glyph-name="seven" unicode="7" horiz-adv-x="1136" 
d="M74 0l784 1257h-668l52 261h1040l-37 -185l-833 -1333h-338z" />
    <glyph glyph-name="eight" unicode="8" horiz-adv-x="1320" 
d="M793 1540q98 0 185 -24t156 -71t109.5 -122.5t40.5 -171.5q0 -149 -81.5 -243t-211.5 -136v-6q101 -39 164.5 -118t63.5 -197q0 -141 -78.5 -252t-216 -171.5t-310.5 -60.5q-250 0 -397 110t-147 298q0 161 98.5 269t255.5 149v8q-82 38 -132 109t-50 173q0 131 73 236
t199 163t279 58zM782 1313q-109 0 -173 -74.5t-64 -181.5q0 -85 53.5 -131.5t140.5 -46.5q100 0 169 68t69 181q0 87 -54.5 136t-140.5 49zM621 188q126 0 201 77.5t75 189.5q0 101 -65 151.5t-168 50.5q-118 0 -193.5 -71.5t-75.5 -192.5q0 -99 62.5 -152t163.5 -53z" />
    <glyph glyph-name="nine" unicode="9" horiz-adv-x="1329" 
d="M782 1290q-127 0 -199.5 -95.5t-72.5 -223.5q2 -92 55 -146.5t146 -54.5q86 0 150 45t95 115t31 153q-3 93 -57 150t-148 57zM549 -31q-141 1 -245.5 44t-161.5 134t-46 220h301q-1 -85 44 -122.5t122 -37.5q152 0 247 128.5t142 379.5h-8q-58 -89 -151 -134.5
t-211 -45.5q-183 0 -287.5 109t-106.5 292q-1 174 80 312.5t220.5 215t310.5 76.5q107 0 193 -27t144 -74t97 -114t56.5 -144.5t17.5 -166.5q0 -214 -50.5 -403t-144.5 -332.5t-239.5 -227t-323.5 -82.5z" />
    <glyph glyph-name="colon" unicode=":" horiz-adv-x="600" 
d="M182 754l64 325h336l-64 -325h-336zM373 0h-336l61 326h336z" />
    <glyph glyph-name="semicolon" unicode=";" horiz-adv-x="630" 
d="M225 754l64 325h336l-64 -325h-336zM172 -240h-213l176 566h332z" />
    <glyph glyph-name="less" unicode="&#x3c;" horiz-adv-x="1234" 
d="M1014 102l-899 508l30 152l1094 504l-53 -289l-694 -305l571 -318z" />
    <glyph glyph-name="equal" unicode="=" horiz-adv-x="1288" 
d="M219 819l47 236h965l-47 -236h-965zM1102 399h-963l45 236h965z" />
    <glyph glyph-name="greater" unicode="&#x3e;" horiz-adv-x="1234" 
d="M287 1266l899 -504l-29 -154l-1094 -504l54 287l696 309l-573 316z" />
    <glyph glyph-name="question" unicode="?" horiz-adv-x="1196" 
d="M741 489h-282l22 117q21 104 55 156t130 117l133 90q78 53 115.5 109.5t37.5 131.5q0 79 -51.5 125.5t-144.5 46.5q-117 0 -185.5 -73t-72.5 -219h-305q4 119 42.5 216.5t109.5 169.5t181 112t250 40q218 0 354 -105.5t136 -285.5q0 -145 -65.5 -246t-196.5 -188
l-148 -98q-53 -35 -71 -64.5t-31 -89.5zM332 0l59 311h352l-61 -311h-350z" />
    <glyph glyph-name="at" unicode="@" horiz-adv-x="2060" 
d="M1475 111q-123 0 -196 50.5t-85 147.5h-6q-108 -194 -318 -194q-149 0 -234 99.5t-85 264.5q0 109 32 211t89.5 181.5t145.5 127.5t192 48q95 0 158.5 -43t86.5 -109h5l22 119h262l-119 -563q-40 -189 99 -189q49 0 97.5 27.5t91 81t69 147.5t26.5 213q0 293 -186.5 472
t-497.5 179q-170 0 -327 -67.5t-273.5 -183.5t-186 -283t-69.5 -356q0 -170 51.5 -308.5t144 -233t223.5 -145.5t288 -51q158 0 297 47.5t239 124.5l80 -96q-260 -209 -639 -209q-188 0 -345.5 62.5t-267.5 175.5t-171.5 275t-61.5 355q0 215 83 407t222 327t327.5 214
t394.5 79q247 0 438 -95.5t297 -271t106 -404.5q0 -131 -29 -239t-77.5 -180t-113.5 -121.5t-135 -71.5t-144 -22zM963 299q75 0 136 65.5t83 172.5l18 90q20 98 -15.5 167.5t-117.5 69.5q-59 0 -107 -36.5t-76.5 -94.5t-43.5 -123.5t-15 -130.5q0 -85 35 -132.5t103 -47.5z
" />
    <glyph glyph-name="A" unicode="A" horiz-adv-x="1527" 
d="M877 1284q-2 -7 -12 -34t-36 -86t-57 -122l-217 -448h408l-60 440q-9 68 -14.5 130.5t-6.5 91.5l-1 28h-4zM1051 0l-54 352h-561l-174 -352h-325l813 1567h368l264 -1567h-331z" />
    <glyph glyph-name="B" unicode="B" horiz-adv-x="1466" 
d="M745 0h-690l303 1567h570q230 0 362.5 -92t132.5 -275q0 -152 -84 -245t-237 -130v-8q122 -27 194 -111.5t72 -209.5q0 -163 -80.5 -276t-218.5 -166.5t-324 -53.5zM563 920h268q135 0 204 63.5t69 173.5q0 84 -55.5 130t-161.5 46h-244zM430 240h311q139 0 225.5 66
t86.5 196q0 196 -248 196h-285z" />
    <glyph glyph-name="C" unicode="C" horiz-adv-x="1556" 
d="M1550 1036h-344q3 147 -59.5 226.5t-192.5 78.5q-99 -2 -180 -51t-133 -126.5t-87 -179.5t-50 -205.5t-15 -209.5q0 -72 15.5 -132.5t48.5 -112t92.5 -80.5t140.5 -29q135 0 224 81t123 236h335q-44 -266 -229 -415.5t-463 -149.5q-304 0 -471.5 162t-167.5 483
q0 148 32.5 288.5t100.5 265.5t165 219t234.5 149t299.5 55q129 0 233 -31.5t183 -97t122 -173t43 -251.5z" />
    <glyph glyph-name="D" unicode="D" horiz-adv-x="1552" 
d="M55 0l301 1567h496q201 0 349.5 -69.5t233.5 -213t85 -348.5q0 -156 -35 -295.5t-108 -257t-177.5 -202.5t-250.5 -133t-320 -48h-574zM432 252h215q112 0 202 40t149 107.5t99 160t57 192.5t17 209q0 356 -352 356h-180z" />
    <glyph glyph-name="E" unicode="E" horiz-adv-x="1302" 
d="M55 0l303 1567h1002l-49 -256h-672l-78 -404h637l-49 -250h-637l-78 -403h696l-49 -254h-1026z" />
    <glyph glyph-name="F" unicode="F" horiz-adv-x="1212" 
d="M502 604l-117 -604h-330l303 1567h965l-49 -256h-635l-88 -455h598l-47 -252h-600z" />
    <glyph glyph-name="G" unicode="G" horiz-adv-x="1622" 
d="M1559 1092h-342q4 124 -59.5 190t-184.5 66q-88 0 -163 -36.5t-127 -99.5t-91.5 -141t-62 -166.5t-33.5 -170.5t-11 -159q0 -73 16 -136t49 -116t92 -83.5t138 -30.5q296 0 385 354l9 33h-343l48 240h669l-162 -836h-262l43 221h-6q-53 -112 -169.5 -183t-280.5 -71
q-273 0 -423.5 166.5t-150.5 456.5q0 149 32.5 292t102 271.5t168 225.5t239.5 154t308 56q261 -2 417 -127t155 -370z" />
    <glyph glyph-name="H" unicode="H" horiz-adv-x="1581" 
d="M510 653l-127 -653h-330l303 1567h330l-127 -656h612l127 656h332l-303 -1567h-332l127 653h-612z" />
    <glyph glyph-name="I" unicode="I" horiz-adv-x="638" 
d="M55 0l303 1567h332l-303 -1567h-332z" />
    <glyph glyph-name="J" unicode="J" horiz-adv-x="892" 
d="M135 -6h-170l53 266h111q81 0 133 14.5t83.5 49.5t47 76.5t29.5 111.5l209 1055h325l-213 -1092q-36 -181 -105.5 -284.5t-189.5 -150t-313 -46.5z" />
    <glyph glyph-name="K" unicode="K" horiz-adv-x="1476" 
d="M475 467l-90 -467h-330l303 1567h330l-135 -701l680 701h379l-686 -680l409 -887h-354l-305 666z" />
    <glyph glyph-name="L" unicode="L" horiz-adv-x="1222" 
d="M55 0l303 1567h330l-252 -1305h662l-51 -262h-992z" />
    <glyph glyph-name="M" unicode="M" horiz-adv-x="1929" 
d="M55 0l301 1567h467l105 -822q7 -56 12.5 -121.5t7.5 -103.5l2 -37h6q54 131 115 252l424 832h483l-303 -1567h-313l240 1231h-7q-69 -158 -155 -326l-467 -905h-240l-110 905q-9 74 -15 155.5t-8 125.5l-2 45h-6l-240 -1231h-297z" />
    <glyph glyph-name="N" unicode="N" horiz-adv-x="1566" 
d="M55 0l303 1567h351l323 -871q23 -60 39.5 -118t21.5 -86l5 -27h6l213 1102h297l-303 -1567h-324l-340 883q-24 62 -42 121.5t-24 88.5l-6 29h-6l-217 -1122h-297z" />
    <glyph glyph-name="O" unicode="O" horiz-adv-x="1646" 
d="M137 602q0 201 59 380.5t164.5 314.5t263.5 213.5t345 78.5q135 0 250 -41t201.5 -119.5t135.5 -203t48 -281.5q0 -152 -33.5 -295t-102.5 -267t-166 -216.5t-232 -145.5t-292 -53q-108 0 -202.5 23t-175.5 72.5t-138.5 123t-90.5 179.5t-34 237zM1255 985
q0 75 -16 137.5t-49.5 114.5t-92.5 81.5t-139 29.5q-84 0 -156 -36t-122.5 -98t-89 -140t-61 -167.5t-33.5 -174t-11 -165.5q0 -71 16 -131.5t50 -112t95.5 -81t144.5 -29.5q95 0 174.5 51t132 131.5t89 184t52.5 206t16 199.5z" />
    <glyph glyph-name="P" unicode="P" horiz-adv-x="1339" 
d="M719 537h-232l-102 -537h-330l303 1567h498q243 0 383.5 -112t140.5 -331q0 -145 -49.5 -258t-138.5 -184.5t-208.5 -108t-264.5 -36.5zM537 784h206q150 0 232 85t82 245q0 211 -234 211h-182z" />
    <glyph glyph-name="Q" unicode="Q" horiz-adv-x="1646" 
d="M764 -27q-135 0 -247.5 38t-198 113t-133.5 197t-48 281q0 198 57 375.5t161 314t263 217t351 80.5q135 0 249.5 -41t201 -119.5t135.5 -203t49 -281.5q0 -288 -106.5 -495.5t-283.5 -317.5v-12q107 -20 174 -71t123 -154l-297 -164q-77 140 -149 195t-188 55
q-16 0 -51.5 -3.5t-61.5 -3.5zM795 209q96 0 175 49.5t130.5 129t87.5 183t51.5 207.5t15.5 207q0 75 -16 137.5t-49.5 114.5t-92.5 81.5t-139 29.5q-84 0 -156 -36t-122.5 -98t-89 -140t-61 -167.5t-33.5 -174t-11 -165.5q0 -72 16 -133t50 -113t96.5 -82t147.5 -30z" />
    <glyph glyph-name="R" unicode="R" horiz-adv-x="1431" 
d="M545 836h243q140 0 218.5 74t78.5 218q0 105 -58.5 155t-188.5 50h-197zM500 596l-115 -596h-330l301 1567h516q182 0 314 -60q231 -103 231 -372q0 -177 -88.5 -303t-271.5 -183v-4l256 -645h-344l-228 596h-241z" />
    <glyph glyph-name="S" unicode="S" horiz-adv-x="1378" 
d="M57 455h344q-3 -119 61.5 -179.5t201.5 -60.5q121 0 202.5 60.5t81.5 164.5q0 73 -43.5 115t-144.5 70l-193 55q-187 54 -271.5 156.5t-84.5 259.5q0 153 82.5 266.5t217.5 170t302 56.5q120 0 220 -29t173 -84.5t111 -143t31 -197.5h-334q6 99 -51 155t-164 56
q-109 0 -179.5 -55t-70.5 -152q0 -66 46.5 -103.5t139.5 -64.5l195 -56q190 -54 273 -152.5t83 -252.5q0 -244 -176.5 -393.5t-458.5 -149.5q-186 0 -322 54.5t-209 166t-63 267.5z" />
    <glyph glyph-name="T" unicode="T" horiz-adv-x="1318" 
d="M977 1303l-252 -1303h-332l252 1303h-448l51 264h1227l-52 -264h-446z" />
    <glyph glyph-name="U" unicode="U" horiz-adv-x="1523" 
d="M156 604l186 963h330l-185 -944q-42 -208 19 -297q63 -93 231 -93q155 0 240 91q40 45 59 102t37 158l191 983h325l-200 -1039q-110 -561 -666 -561q-328 0 -478 165t-89 472z" />
    <glyph glyph-name="V" unicode="V" horiz-adv-x="1484" 
d="M457 0l-213 1567h331l115 -996q8 -70 11 -133.5t2 -91.5l-1 -29h5q24 89 96 232l516 1018h330l-813 -1567h-379z" />
    <glyph glyph-name="W" unicode="W" horiz-adv-x="2119" 
d="M674 0h-330l-104 1567h329l41 -873q3 -89 3 -152t-3 -98l-2 -34h4q31 106 99 258l405 899h299l66 -877q5 -76 6.5 -146t0.5 -102l-1 -32h4q27 108 90 258l385 899h309l-700 -1567h-322l-59 918q-5 77 -6.5 143.5t-0.5 94.5l1 28h-4q-26 -92 -92 -242z" />
    <glyph glyph-name="X" unicode="X" horiz-adv-x="1499" 
d="M-49 0l661 821l-321 746h356l205 -512h2l397 512h357l-617 -758l359 -809h-367l-231 571h-2l-445 -571h-354z" />
    <glyph glyph-name="Y" unicode="Y" horiz-adv-x="1398" 
d="M434 0l131 676l-340 891h348l211 -617h4l445 617h346l-690 -926l-125 -641h-330z" />
    <glyph glyph-name="Z" unicode="Z" horiz-adv-x="1318" 
d="M260 1307l51 260h1121l-46 -230l-962 -1075h764l-49 -262h-1168l45 229l963 1078h-719z" />
    <glyph glyph-name="bracketleft" unicode="[" horiz-adv-x="776" 
d="M33 -266l366 1880h531l-39 -197h-266l-289 -1487h266l-39 -196h-530z" />
    <glyph glyph-name="backslash" unicode="\" horiz-adv-x="1122" 
d="M780 -266l-547 1880h238l551 -1880h-242z" />
    <glyph glyph-name="bracketright" unicode="]" horiz-adv-x="792" 
d="M805 1614l-367 -1880h-528l37 196h266l291 1487h-266l38 197h529z" />
    <glyph glyph-name="asciicircum" unicode="^" horiz-adv-x="888" 
d="M764 1614l194 -600h-206l-138 354h-2l-268 -354h-221l428 600h213z" />
    <glyph glyph-name="underscore" unicode="_" horiz-adv-x="802" 
d="M-135 -389l39 203h788l-39 -203h-788z" />
    <glyph glyph-name="grave" unicode="`" horiz-adv-x="641" 
d="M518 1614l74 -357h-236l-149 357h311z" />
    <glyph glyph-name="a" unicode="a" horiz-adv-x="1179" 
d="M489 193q88 0 149.5 72.5t86.5 199.5l6 31q-156 -4 -231 -19q-68 -14 -108 -52.5t-40 -98.5q0 -64 36.5 -98.5t100.5 -34.5zM463 772h-307q19 160 147.5 255t345.5 95q253 0 356.5 -126t61.5 -339l-63 -331q-12 -58 6.5 -80.5t70.5 -22.5l-45 -225h-92q-96 0 -153 31.5
t-76 109.5h-6q-74 -80 -146.5 -115.5t-187.5 -35.5q-94 0 -168.5 32.5t-122 103.5t-47.5 173q0 254 287 334q23 6 50 11.5t48.5 8.5t55.5 6t52 4t59 2t55 1.5t61.5 1t58.5 0.5l10 57q17 92 -19 141t-120 49q-152 0 -172 -141z" />
    <glyph glyph-name="b" unicode="b" horiz-adv-x="1296" 
d="M37 0l313 1614h320l-135 -690h4q121 196 344 196q170 0 262 -116t92 -318q0 -98 -18.5 -195.5t-61 -191.5t-104.5 -166t-156 -116t-207 -44q-103 0 -188.5 48t-122.5 147h-4l-31 -168h-307zM631 190q58 0 107 31.5t80.5 82t53.5 115.5t31.5 129t9.5 126q0 223 -172 223
q-97 0 -171 -73t-97 -191l-24 -135q-28 -134 17 -221t165 -87z" />
    <glyph glyph-name="c" unicode="c" horiz-adv-x="1210" 
d="M1167 705h-319q5 92 -34 147t-126 55q-72 0 -129 -45t-90.5 -117t-50.5 -154t-17 -165q0 -109 47 -171t142 -62q94 0 152.5 60t74.5 155h309q-17 -142 -97.5 -243t-196.5 -147.5t-257 -46.5q-110 0 -200 28t-158 83.5t-105.5 146t-37.5 209.5q0 140 41 263t117.5 218
t196.5 150t269 55q221 0 348 -112t121 -307z" />
    <glyph glyph-name="d" unicode="d" horiz-adv-x="1306" 
d="M692 899q-70 0 -127 -43.5t-91.5 -114.5t-52.5 -155t-18 -172q0 -224 168 -224q99 0 174.5 74t98.5 195l24 131q29 138 -14 223.5t-162 85.5zM1382 1614l-313 -1614h-305l31 164h-4q-132 -193 -336 -193q-181 0 -279 121t-98 322q0 100 21.5 199t67 190.5t109.5 162
t155.5 112.5t197.5 42q223 0 301 -176h4l129 670h319z" />
    <glyph glyph-name="e" unicode="e" horiz-adv-x="1206" 
d="M829 657l2 15q36 250 -155 250q-94 0 -158.5 -71.5t-95.5 -193.5h407zM1083 319q-34 -171 -174.5 -259.5t-343.5 -88.5q-228 0 -360.5 123t-132.5 340q0 137 41.5 260.5t118 220t195.5 153t263 56.5q91 0 166 -21.5t126.5 -60.5t88.5 -92.5t53 -117.5t19 -136t-13 -147
l-14 -76h-721q-2 -16 -2 -51q0 -107 46 -169.5t143 -62.5q78 0 125.5 36t60.5 93h315z" />
    <glyph glyph-name="f" unicode="f" horiz-adv-x="743" 
d="M573 872l-170 -872h-313l170 872h-149l45 226h147l31 153q20 108 59.5 182t98.5 116t129 59.5t163 17.5q82 0 162 -16l-43 -224q-28 7 -80 7q-79 0 -121 -33.5t-57 -112.5l-29 -149h209l-45 -226h-207z" />
    <glyph glyph-name="g" unicode="g" horiz-adv-x="1296" 
d="M848 489l22 113q14 60 9.5 114t-22 94.5t-58.5 64.5t-101 24q-73 0 -131.5 -42t-92 -110t-51 -145.5t-17.5 -157.5q2 -99 47 -153.5t137 -54.5q96 0 166.5 72t91.5 181zM14 -63h301q1 -65 50.5 -100.5t126.5 -35.5q117 0 181.5 66.5t88.5 193.5l29 138h-5
q-122 -172 -325 -172q-180 0 -280.5 105.5t-100.5 303.5q0 102 23.5 201t71 186t112.5 153.5t154.5 105t191.5 38.5q120 0 197.5 -51t109.5 -139h4l33 168h307l-199 -1020q-49 -250 -200 -368t-408 -118q-237 0 -351 92.5t-112 252.5z" />
    <glyph glyph-name="h" unicode="h" horiz-adv-x="1286" 
d="M743 0l119 623q17 83 17 120q0 71 -32.5 107.5t-107.5 36.5q-106 0 -175 -81t-97 -231l-111 -575h-319l313 1614h320l-138 -699h5q57 97 150 151t212 54q178 0 256 -116t35 -336l-129 -668h-318z" />
    <glyph glyph-name="i" unicode="i" horiz-adv-x="591" 
d="M285 1288l57 295h322l-58 -295h-321zM37 0l213 1098h319l-213 -1098h-319z" />
    <glyph glyph-name="j" unicode="j" horiz-adv-x="600" 
d="M293 1288l57 295h322l-58 -295h-321zM-82 -422q-104 0 -166 25l43 221q40 -10 84 -10q65 0 103 33t51 106l223 1145h319l-227 -1166q-19 -100 -60 -170.5t-99 -109.5t-124 -56.5t-147 -17.5z" />
    <glyph glyph-name="k" unicode="k" horiz-adv-x="1204" 
d="M408 291l-58 -291h-313l313 1614h314l-189 -967l440 451h351l-465 -459l276 -639h-327l-195 444z" />
    <glyph glyph-name="l" unicode="l" horiz-adv-x="591" 
d="M37 0l313 1614h320l-314 -1614h-319z" />
    <glyph glyph-name="m" unicode="m" horiz-adv-x="1961" 
d="M1411 0l121 623q14 79 14 120q0 144 -135 144q-95 0 -163 -80.5t-97 -231.5l-109 -575h-317l119 623q16 72 16 120q0 144 -135 144q-96 0 -163.5 -81t-96.5 -231l-109 -575h-319l213 1098h307l-39 -193h4q135 215 367 215q133 0 197.5 -65.5t76.5 -171.5h4
q148 237 404 237q179 0 255 -116t32 -336l-129 -668h-318z" />
    <glyph glyph-name="n" unicode="n" horiz-adv-x="1294" 
d="M743 0l119 623q17 77 17 120q0 71 -32.5 107.5t-107.5 36.5q-105 0 -175.5 -82.5t-98.5 -231.5l-109 -573h-319l213 1098h307l-39 -193h4q61 101 158.5 158t218.5 57q178 0 255.5 -115t35.5 -335l-129 -670h-318z" />
    <glyph glyph-name="o" unicode="o" horiz-adv-x="1241" 
d="M565 -29q-224 0 -357.5 119.5t-133.5 343.5q0 107 25 207.5t76.5 188t123.5 153.5t172.5 103.5t216.5 37.5q224 0 360 -123t136 -337q0 -194 -73.5 -350.5t-215.5 -249.5t-330 -93zM858 686q0 42 -8.5 79t-27 70t-54.5 52.5t-86 19.5q-61 0 -110.5 -33t-81 -84.5
t-53.5 -117.5t-31 -130t-9 -124q0 -47 9 -86t29 -72t56.5 -51.5t86.5 -18.5q64 0 115 35.5t81 88.5t50 122.5t27 130.5t7 119z" />
    <glyph glyph-name="p" unicode="p" horiz-adv-x="1296" 
d="M631 190q70 0 126 44.5t89 116.5t50 155t17 168q0 223 -172 223q-97 0 -171 -73t-97 -191l-24 -133q-28 -134 17 -222t165 -88zM-39 -385l289 1483h307l-35 -180h4q54 90 147.5 146t211.5 56q169 0 260.5 -116.5t91.5 -317.5q0 -98 -19 -195.5t-61.5 -191.5t-104.5 -166
t-155.5 -116t-206.5 -44q-104 0 -186.5 48.5t-114.5 130.5h-4l-104 -537h-320z" />
    <glyph glyph-name="q" unicode="q" horiz-adv-x="1302" 
d="M1282 1098l-289 -1483h-319l102 528h-4q-121 -172 -313 -172q-184 0 -282.5 121.5t-98.5 321.5q0 100 21 198.5t65.5 190.5t108 162.5t155.5 112.5t201 42q227 0 309 -182h4l33 160h307zM571 190q99 0 174.5 74t98.5 195l24 131q29 138 -14 223.5t-162 85.5
q-70 0 -127 -43.5t-91.5 -114.5t-52.5 -155t-18 -172q0 -224 168 -224z" />
    <glyph glyph-name="r" unicode="r" horiz-adv-x="858" 
d="M37 0l213 1098h301l-47 -238h4q69 127 172 191.5t227 64.5h15l-58 -305h-20q-85 0 -146.5 -15t-113 -51t-85.5 -99.5t-53 -158.5l-94 -487h-315z" />
    <glyph glyph-name="s" unicode="s" horiz-adv-x="1075" 
d="M1014 786h-279q3 65 -41.5 98.5t-115.5 33.5q-69 0 -112.5 -32t-43.5 -87q0 -46 31.5 -70.5t101.5 -40.5l135 -31q152 -35 215.5 -106t63.5 -195q0 -184 -135 -285.5t-351 -101.5q-208 0 -334.5 92t-119.5 265h290q-4 -74 43 -112t132 -38q78 0 129 32t51 97
q0 84 -123 111l-129 28q-289 64 -289 312q0 118 64.5 203.5t166.5 125t228 39.5q194 0 313 -89t109 -249z" />
    <glyph glyph-name="t" unicode="t" horiz-adv-x="804" 
d="M420 1407h264l-59 -309h237l-45 -226h-235l-95 -485q-19 -95 4.5 -129.5t108.5 -34.5q21 0 43.5 2.5t34.5 4.5l12 3l-45 -233q-72 -14 -160 -14q-386 0 -313 381l98 505h-157l45 224h32q51 0 82.5 8t57.5 33.5t42 69.5t31 118z" />
    <glyph glyph-name="u" unicode="u" horiz-adv-x="1275" 
d="M557 1098l-123 -627q-12 -62 -12 -111q-1 -77 33 -112t104 -35q98 0 165.5 80t96.5 231l113 574h317l-213 -1098h-305l37 188h-4q-61 -97 -152 -152.5t-204 -55.5q-188 0 -267 113.5t-37 330.5l132 674h319z" />
    <glyph glyph-name="v" unicode="v" horiz-adv-x="1148" 
d="M317 0l-178 1098h312l67 -537q7 -60 11.5 -126t4.5 -102l1 -36h4q49 131 108 250l273 551h315l-588 -1098h-330z" />
    <glyph glyph-name="w" unicode="w" horiz-adv-x="1701" 
d="M244 0l-115 1098h291l39 -525q4 -58 5 -126t0 -107l-1 -39h4q45 141 96 250l258 547h266l54 -539q4 -48 6.5 -113t2.5 -106l1 -41h6q39 144 84 246l244 553h280l-501 -1098h-306l-45 451q-6 64 -10 145.5t-5 131.5l-1 50h-4q-70 -180 -127 -305l-219 -473h-303z" />
    <glyph glyph-name="x" unicode="x" horiz-adv-x="1144" 
d="M-80 0l477 590l-235 508h325l136 -332h4l237 332h336l-436 -537l260 -561h-334l-151 377h-4l-277 -377h-338z" />
    <glyph glyph-name="y" unicode="y" horiz-adv-x="1146" 
d="M330 -2l-187 1100h322l67 -576q6 -54 9 -111t3 -87l-1 -31h4q39 105 86 205l278 600h318l-611 -1164q-66 -125 -129.5 -196t-155.5 -108.5t-224 -37.5q-46 0 -88 5t-60 9.5t-22 6.5l47 233q42 -12 106 -12q87 0 137.5 29.5t85.5 103.5z" />
    <glyph glyph-name="z" unicode="z" horiz-adv-x="1095" 
d="M178 862l47 236h897l-43 -213l-657 -645h541l-45 -240h-928l39 213l659 649h-510z" />
    <glyph glyph-name="braceleft" unicode="{" horiz-adv-x="845" 
d="M172 571h-61l45 224h59q74 0 102.5 28.5t44.5 108.5l62 332q43 219 181.5 301t395.5 57l-36 -188q-77 4 -129 -7t-85.5 -39.5t-51 -68t-29.5 -100.5l-58 -293q-21 -108 -64 -163t-142 -69v-8q60 -17 89 -58t29 -96t-12 -122l-51 -260q-26 -125 20.5 -176t196.5 -60
l-37 -188q-101 3 -176.5 18.5t-134.5 47t-89 80.5t-41 120t9 166l53 270q15 74 -7 108.5t-83 34.5z" />
    <glyph glyph-name="bar" unicode="|" horiz-adv-x="575" 
d="M33 -266l366 1880h217l-366 -1880h-217z" />
    <glyph glyph-name="braceright" unicode="}" horiz-adv-x="858" 
d="M741 782h60l-43 -223h-62q-73 0 -101 -28.5t-44 -108.5l-64 -332q-42 -219 -180.5 -301t-394.5 -57l35 188q78 -4 130.5 6.5t86 39.5t51 68.5t29.5 100.5l51 277q21 109 68.5 171.5t144.5 75.5v9q-60 17 -90 58t-30.5 96t11.5 122l54 260q25 125 -21 176t-196 60l36 188
q84 -3 150 -13.5t121 -32.5t90 -55t57.5 -81t23.5 -110.5t-12 -143.5l-53 -266q-14 -75 8.5 -109.5t83.5 -34.5z" />
    <glyph glyph-name="asciitilde" unicode="~" horiz-adv-x="976" 
d="M63 520q22 158 100 253t212 95q54 0 108 -26t98.5 -52t75.5 -26q35 0 63 25.5t38 80.5h207q-35 -348 -299 -348q-43 0 -88.5 16.5t-77.5 36t-68 36t-61 16.5q-38 0 -68.5 -28t-34.5 -79h-205z" />
    <glyph glyph-name="uni00A0" unicode="&#xa0;" horiz-adv-x="419" 
 />
    <glyph glyph-name="exclamdown" unicode="&#xa1;" horiz-adv-x="651" 
d="M526 883l-161 -1114h-369l295 1114h235zM324 1380h352l-60 -311h-352z" />
    <glyph glyph-name="cent" unicode="&#xa2;" horiz-adv-x="1210" 
d="M485 197l142 721q-61 -18 -109 -70.5t-75.5 -123t-41.5 -146t-14 -148.5q0 -180 98 -233zM827 408h299q-13 -106 -61 -190t-121 -136.5t-163.5 -80.5t-192.5 -30l-41 -209h-146l43 220q-172 32 -271 146t-99 310q0 136 38.5 256.5t111.5 214.5t187 151.5t255 63.5l34 176
h146l-35 -184q171 -27 265.5 -133.5t90.5 -277.5h-309q6 163 -88 206l-143 -735q83 12 134.5 74.5t65.5 157.5z" />
    <glyph glyph-name="sterling" unicode="&#xa3;" horiz-adv-x="1300" 
d="M1145 258l-49 -258h-1067l34 188l68 43q67 42 106 73.5t74 77t47.5 103t6.5 133.5h-234l39 199h166l-12 86q-44 295 92.5 466t445.5 171q247 0 367.5 -130t87.5 -327h-305q15 110 -28 173t-140 63q-124 0 -181.5 -96t-35.5 -265l16 -141h406l-37 -199l-348 -2
q-2 -107 -49 -186t-156 -154l-21 -14v-4h707z" />
    <glyph glyph-name="currency" unicode="&#xa4;" horiz-adv-x="1292" 
d="M463 713q0 -86 49.5 -140.5t130.5 -54.5q82 0 132 54.5t50 140.5t-50 140t-132 54q-81 0 -130.5 -54t-49.5 -140zM264 713q0 88 37 170l-199 196l177 176l196 -200q76 39 168 39t172 -41l201 204l176 -176l-207 -200q39 -76 39 -168q0 -95 -39 -168l205 -201l-176 -176
l-201 203q-73 -37 -170 -37q-93 0 -168 35l-199 -203l-174 176l201 197q-39 80 -39 174z" />
    <glyph glyph-name="yen" unicode="&#xa5;" horiz-adv-x="1310" 
d="M395 0l60 303h-398l31 156h395l33 166h-399l28 155h379l-291 738h334l176 -496h5l360 496h350l-577 -738h376l-28 -155h-400l-32 -166h401l-29 -156h-401l-59 -303h-314z" />
    <glyph glyph-name="brokenbar" unicode="&#xa6;" horiz-adv-x="593" 
d="M608 1614l-162 -828h-217l162 828h217zM242 -266h-217l165 854h218z" />
    <glyph glyph-name="section" unicode="&#xa7;" horiz-adv-x="1282" 
d="M551 872q-58 -7 -99.5 -41t-41.5 -92q0 -42 23.5 -72.5t76.5 -58.5l205 -108l53 -31q60 6 98.5 42t38.5 95q0 41 -26.5 74t-94.5 68l-190 100q-32 17 -43 24zM125 680q0 110 69 187.5t193 115.5v2q-38 47 -58 94.5t-20 116.5q0 173 129.5 275t345.5 102q207 0 326 -100
t102 -250h-288q6 66 -32.5 104.5t-115.5 38.5q-72 0 -116 -33.5t-44 -97.5q0 -45 28 -73.5t95 -63.5l246 -129q106 -57 157.5 -127t51.5 -176q0 -117 -66.5 -196.5t-191.5 -119.5v-2q68 -71 68 -186q0 -99 -39 -176t-107.5 -124t-157 -71t-192.5 -24q-218 0 -332 100
t-102 260h280q-6 -72 37.5 -113t130.5 -41q71 0 123.5 33t52.5 98q0 43 -21.5 71t-68.5 52l-256 138q-117 63 -172 131.5t-55 183.5z" />
    <glyph glyph-name="dieresis" unicode="&#xa8;" horiz-adv-x="741" 
d="M596 1303l55 280h273l-56 -280h-272zM176 1303l55 280h275l-55 -280h-275z" />
    <glyph glyph-name="copyright" unicode="&#xa9;" horiz-adv-x="1828" 
d="M147 778q0 227 104.5 413t289.5 293t413 107t413.5 -107t290.5 -293t105 -413t-105 -412.5t-290.5 -292t-413.5 -106.5t-413 106.5t-289.5 292t-104.5 412.5zM954 84q190 0 345.5 91t243 250t87.5 353t-87.5 353.5t-243 251.5t-345.5 92t-344.5 -92t-241.5 -251.5
t-87 -353.5t87 -353t241.5 -250t344.5 -91zM1343 907h-227q5 70 -25 111t-96 41q-58 0 -103.5 -34t-71.5 -89t-39 -117t-13 -125q0 -82 36 -130t111 -48q71 0 119 46t60 118h219q-20 -164 -135 -250t-285 -86q-157 0 -257.5 88.5t-100.5 261.5q0 144 53 263.5t162 195.5
t256 76q167 0 255 -84t82 -238z" />
    <glyph glyph-name="ordfeminine" unicode="&#xaa;" horiz-adv-x="1021" 
d="M543 813q55 0 108 49.5t72 147.5l6 32q-171 -3 -229 -41q-54 -35 -54 -102q0 -86 97 -86zM539 1257h-269q7 112 113 197.5t281 85.5q207 0 294.5 -98t53.5 -275l-47 -247q-7 -44 4.5 -61t44.5 -17l-37 -189h-59q-106 0 -150 22t-63 95h-7q-39 -58 -107.5 -92.5
t-150.5 -34.5q-120 0 -191 63t-71 171q0 187 172 256q49 20 118 30.5t113.5 12t170.5 4.5l6 37q23 141 -99 141q-105 0 -120 -101z" />
    <glyph glyph-name="guillemotleft" unicode="&#xab;" horiz-adv-x="1091" 
d="M840 950h237l-284 -422l118 -411h-233l-135 422zM399 950h238l-283 -422l119 -411h-235l-136 422z" />
    <glyph glyph-name="logicalnot" unicode="&#xac;" horiz-adv-x="1261" 
d="M121 614l47 238h1016l-125 -639h-256l78 401h-760z" />
    <glyph glyph-name="registered" unicode="&#xae;" horiz-adv-x="1015" 
d="M186 1141q9 190 142 319t323 129q191 0 311 -129t111 -319q-11 -190 -144.5 -318.5t-324.5 -128.5q-125 0 -223.5 59t-150 161.5t-44.5 226.5zM608 772q152 0 259 105.5t116 263.5q8 159 -88 264.5t-248 105.5t-257.5 -105.5t-113.5 -264.5q-9 -158 85.5 -263.5
t246.5 -105.5zM578 1184h59q37 0 60 17.5t26 51.5q1 28 -18 43t-52 15h-57zM567 1102l-26 -176h-113l66 460h196q67 0 107.5 -37t36.5 -96q-3 -50 -33.5 -84t-75.5 -49l70 -194h-121l-58 176h-49z" />
    <glyph glyph-name="macron" unicode="&#xaf;" horiz-adv-x="688" 
d="M145 1303l41 213h686l-38 -213h-689z" />
    <glyph glyph-name="degree" unicode="&#xb0;" horiz-adv-x="851" 
d="M211 1217q3 148 102 247t248 99q150 0 247 -98.5t95 -247.5q-3 -152 -102.5 -248.5t-251.5 -96.5q-149 0 -245 98.5t-93 246.5zM553 1030q78 0 127 52.5t51 134.5q2 83 -45.5 135.5t-126.5 52.5q-78 0 -127 -53t-49 -135q-3 -82 44.5 -134.5t125.5 -52.5z" />
    <glyph glyph-name="plusminus" unicode="&#xb1;" horiz-adv-x="1282" 
d="M805 756l-68 -348h-256l68 348h-379l45 237h379l65 344h256l-65 -344h381l-47 -237h-379zM25 0l43 236h1015l-45 -236h-1013z" />
    <glyph glyph-name="twosuperior" unicode="&#xb2;" horiz-adv-x="847" 
d="M479 1380h-225q14 145 115 224t274 79q135 0 217 -59.5t82 -175.5q0 -69 -33 -131t-78.5 -105t-117.5 -94l-215 -157v-5h370l-32 -170h-721l24 125l402 312q110 86 134 111q44 46 44 100q0 40 -28.5 65t-74.5 25q-122 0 -137 -144z" />
    <glyph glyph-name="threesuperior" unicode="&#xb3;" horiz-adv-x="862" 
d="M573 1163h-110l29 140h98q63 0 103 35.5t40 91.5q0 43 -29.5 67.5t-76.5 24.5q-114 0 -135 -115h-224q13 117 109.5 196.5t265.5 79.5q148 0 233 -59t85 -160q0 -92 -53.5 -147.5t-141.5 -77.5v-4q147 -44 147 -182q0 -136 -108 -210.5t-281 -74.5q-167 0 -257.5 72
t-78.5 207h222q-1 -54 32 -83.5t93 -29.5q68 0 106.5 36.5t38.5 94.5q0 44 -25.5 71t-81.5 27z" />
    <glyph glyph-name="acute" unicode="&#xb4;" horiz-adv-x="741" 
d="M336 1257l168 357h319l-245 -357h-242z" />
    <glyph glyph-name="paragraph" unicode="&#xb6;" horiz-adv-x="1177" 
d="M1049 1567h198l-303 -1567h-199zM532 766q-162 5 -258 99.5t-96 252.5q0 141 67.5 244.5t179 154t251.5 50.5h211l-303 -1567h-199z" />
    <glyph glyph-name="periodcentered" unicode="&#xb7;" horiz-adv-x="661" 
d="M154 547l63 325h340l-63 -325h-340z" />
    <glyph glyph-name="cedilla" unicode="&#xb8;" horiz-adv-x="1038" 
d="M324 49h112l-92 -184h4q42 31 103 31q63 0 103 -39.5t40 -102.5q0 -98 -67.5 -156.5t-192.5 -58.5q-55 0 -101 15.5t-77 53t-27 91.5h158q6 -41 59 -41q36 0 56 20t20 50q0 27 -15 43t-42 16q-38 0 -62 -27h-127z" />
    <glyph glyph-name="onesuperior" unicode="&#xb9;" horiz-adv-x="602" 
d="M287 786l121 574h-193l35 162h31q91 0 141 32q56 39 70 115h210l-186 -883h-229z" />
    <glyph glyph-name="ordmasculine" unicode="&#xba;" horiz-adv-x="1024" 
d="M569 635q-183 0 -294 94.5t-111 269.5q0 105 33 201t94.5 172t158.5 121t216 45q183 0 295 -98t112 -266q0 -240 -135.5 -389.5t-368.5 -149.5zM795 1184q0 67 -31.5 113t-101.5 46q-56 0 -99 -35t-66 -90.5t-34.5 -113t-11.5 -113.5q0 -72 31.5 -118t103.5 -46
q48 0 86 25.5t60.5 64t37 88.5t20 93.5t5.5 85.5z" />
    <glyph glyph-name="guillemotright" unicode="&#xbb;" horiz-adv-x="1091" 
d="M260 117h-240l287 422l-121 411h236l131 -420zM711 117h-238l285 422l-119 411h235l134 -420z" />
    <glyph glyph-name="onequarter" unicode="&#xbc;" horiz-adv-x="1781" 
d="M266 684l121 573h-192l34 160h31q85 0 141 33q56 39 70 117h211l-186 -883h-230zM68 -82l1421 1681h221l-1421 -1681h-221zM1128 346h242l80 375h-4q-37 -72 -109 -150zM1655 186h-115l-39 -186h-211l39 186h-450l30 154l506 543h273l-111 -525h115z" />
    <glyph glyph-name="onehalf" unicode="&#xbd;" horiz-adv-x="1869" 
d="M45 -82l1421 1681h222l-1422 -1681h-221zM266 684l121 573h-192l34 160h31q85 0 141 33q56 39 70 117h211l-186 -883h-230zM1331 594h-225q15 143 116 222t273 79q135 0 217 -59t82 -174q0 -69 -33 -131t-78.5 -105t-117.5 -94l-215 -158v-4h370l-32 -170h-721l24 123
l402 313q109 85 130 106q48 48 48 103q0 41 -28 65.5t-75 24.5q-122 0 -137 -141z" />
    <glyph glyph-name="threequarters" unicode="&#xbe;" horiz-adv-x="1982" 
d="M553 1061h-111l29 137h98q63 0 103.5 36.5t40.5 92.5q0 43 -30 66.5t-77 23.5q-115 0 -135 -112h-223q13 117 109.5 195.5t265.5 78.5q148 0 232.5 -58t84.5 -161q0 -90 -53.5 -145.5t-141.5 -79.5v-5q148 -44 148 -182q0 -134 -108 -208t-281 -74q-167 0 -257.5 71.5
t-78.5 206.5h221q-1 -55 31.5 -84t93.5 -29q68 0 106.5 37t38.5 93q0 44 -25 72t-81 28zM291 -82l1421 1681h221l-1421 -1681h-221zM1329 346h242l80 375h-4q-37 -72 -109 -150zM1855 186h-114l-39 -186h-211l39 186h-451l31 154l506 543h272l-110 -525h114z" />
    <glyph glyph-name="questiondown" unicode="&#xbf;" horiz-adv-x="1198" 
d="M512 891h283l-23 -117q-21 -104 -54.5 -155.5t-129.5 -116.5l-133 -90q-78 -53 -116 -110t-38 -132q0 -79 52 -125.5t145 -46.5q116 0 185 73.5t73 219.5h305q-4 -119 -42.5 -216.5t-110 -170t-181.5 -112.5t-250 -40q-217 0 -353 105.5t-136 285.5q0 145 65.5 246.5
t196.5 188.5l147 98q53 35 71.5 64.5t31.5 88.5zM922 1380l-60 -311h-352l61 311h351z" />
    <glyph glyph-name="Agrave" unicode="&#xc0;" horiz-adv-x="1527" 
d="M877 1284q-2 -7 -12 -34t-36 -86t-57 -122l-217 -448h408l-60 440q-9 68 -14.5 130.5t-6.5 91.5l-1 28h-4zM1051 0l-54 352h-561l-174 -352h-325l813 1567h368l264 -1567h-331zM1001 1966l82 -272h-229l-156 272h303z" />
    <glyph glyph-name="Aacute" unicode="&#xc1;" horiz-adv-x="1527" 
d="M877 1284q-2 -7 -12 -34t-36 -86t-57 -122l-217 -448h408l-60 440q-9 68 -14.5 130.5t-6.5 91.5l-1 28h-4zM1051 0l-54 352h-561l-174 -352h-325l813 1567h368l264 -1567h-331zM823 1694l168 272h316l-246 -272h-238z" />
    <glyph glyph-name="Acircumflex" unicode="&#xc2;" horiz-adv-x="1527" 
d="M877 1284q-2 -7 -12 -34t-36 -86t-57 -122l-217 -448h408l-60 440q-9 68 -14.5 130.5t-6.5 91.5l-1 28h-4zM1051 0l-54 352h-561l-174 -352h-325l813 1567h368l264 -1567h-331zM1133 1966l161 -272h-219l-104 114h-2l-142 -114h-225l258 272h273z" />
    <glyph glyph-name="Atilde" unicode="&#xc3;" horiz-adv-x="1527" 
d="M877 1284q-2 -7 -12 -34t-36 -86t-57 -122l-217 -448h408l-60 440q-9 68 -14.5 130.5t-6.5 91.5l-1 28h-4zM1051 0l-54 352h-561l-174 -352h-325l813 1567h368l264 -1567h-331zM573 1679q7 59 30 114t59.5 101t91.5 73.5t120 27.5q43 0 82 -16t63 -35.5t56 -35.5t62 -16
q39 0 64.5 22.5t41.5 82.5h158q-14 -137 -89.5 -226.5t-191.5 -89.5q-50 0 -94 16t-70.5 35.5t-57.5 35.5t-58 16q-67 0 -111 -105h-156z" />
    <glyph glyph-name="Adieresis" unicode="&#xc4;" horiz-adv-x="1527" 
d="M877 1284q-2 -7 -12 -34t-36 -86t-57 -122l-217 -448h408l-60 440q-9 68 -14.5 130.5t-6.5 91.5l-1 28h-4zM1051 0l-54 352h-561l-174 -352h-325l813 1567h368l264 -1567h-331zM1038 1696l56 280h272l-55 -280h-273zM606 1696l53 280h275l-55 -280h-273z" />
    <glyph glyph-name="Aring" unicode="&#xc5;" horiz-adv-x="1527" 
d="M877 1284q-2 -7 -12 -34t-36 -86t-57 -122l-217 -448h408l-60 440q-9 68 -14.5 130.5t-6.5 91.5l-1 28h-4zM1051 0l-54 352h-561l-174 -352h-325l813 1567h368l264 -1567h-331zM973 1630q-113 2 -185.5 61t-72.5 167q0 122 78 199t200 77q124 0 192 -62t68 -165
q0 -125 -78.5 -201t-201.5 -76zM995 2005q-56 0 -88.5 -38.5t-32.5 -102.5q0 -49 26.5 -78t74.5 -29q51 0 84 39t33 102q0 48 -24.5 77.5t-72.5 29.5z" />
    <glyph glyph-name="AE" unicode="&#xc6;" horiz-adv-x="2160" 
d="M1030 621l133 690h-110q-74 -135 -140 -242l-276 -448h393zM909 0l72 375h-496l-231 -375h-360l999 1567h1325l-49 -256h-676l-78 -404h641l-49 -250h-641l-78 -403h697l-48 -254h-1028z" />
    <glyph glyph-name="Ccedilla" unicode="&#xc7;" horiz-adv-x="1556" 
d="M645 -461q-55 0 -101 15.5t-77 53t-27 91.5h158q6 -41 59 -41q36 0 56 20t20 50q0 27 -15 43t-42 16q-38 0 -62 -27h-127l113 224q-223 42 -343 199.5t-120 428.5q0 148 32.5 288.5t100.5 265.5t165 219t234.5 149t299.5 55q129 0 233 -31.5t183 -97t122 -173t43 -251.5
h-344q3 147 -59.5 226.5t-192.5 78.5q-99 -2 -180 -51t-133 -126.5t-87 -179.5t-50 -205.5t-15 -209.5q0 -72 15.5 -132.5t48.5 -112t92.5 -80.5t140.5 -29q135 0 224 81t123 236h335q-44 -266 -229 -415.5t-463 -149.5q-47 0 -67 2l-54 -104h4q42 31 103 31q63 0 103 -39.5
t40 -102.5q0 -98 -67.5 -156.5t-192.5 -58.5z" />
    <glyph glyph-name="Egrave" unicode="&#xc8;" horiz-adv-x="1302" 
d="M930 1966l82 -272h-230l-155 272h303zM55 0l303 1567h1002l-49 -256h-672l-78 -404h637l-49 -250h-637l-78 -403h696l-49 -254h-1026z" />
    <glyph glyph-name="Eacute" unicode="&#xc9;" horiz-adv-x="1302" 
d="M752 1694l168 272h315l-246 -272h-237zM55 0l303 1567h1002l-49 -256h-672l-78 -404h637l-49 -250h-637l-78 -403h696l-49 -254h-1026z" />
    <glyph glyph-name="Ecircumflex" unicode="&#xca;" horiz-adv-x="1302" 
d="M1071 1966l162 -272h-219l-105 114h-2l-141 -114h-225l258 272h272zM55 0l303 1567h1002l-49 -256h-672l-78 -404h637l-49 -250h-637l-78 -403h696l-49 -254h-1026z" />
    <glyph glyph-name="Edieresis" unicode="&#xcb;" horiz-adv-x="1302" 
d="M55 0l303 1567h1002l-49 -256h-672l-78 -404h637l-49 -250h-637l-78 -403h696l-49 -254h-1026zM967 1696l55 280h272l-55 -280h-272zM535 1696l53 280h274l-55 -280h-272z" />
    <glyph glyph-name="Igrave" unicode="&#xcc;" horiz-adv-x="638" 
d="M55 0l303 1567h332l-303 -1567h-332zM592 1966l82 -272h-230l-155 272h303z" />
    <glyph glyph-name="Iacute" unicode="&#xcd;" horiz-adv-x="638" 
d="M55 0l303 1567h332l-303 -1567h-332zM412 1694l168 272h315l-246 -272h-237z" />
    <glyph glyph-name="Icircumflex" unicode="&#xce;" horiz-adv-x="638" 
d="M55 0l303 1567h332l-303 -1567h-332zM733 1966l162 -272h-219l-105 114h-2l-141 -114h-225l258 272h272z" />
    <glyph glyph-name="Idieresis" unicode="&#xcf;" horiz-adv-x="638" 
d="M55 0l303 1567h332l-303 -1567h-332zM629 1696l55 280h272l-55 -280h-272zM197 1696l53 280h274l-55 -280h-272z" />
    <glyph glyph-name="Eth" unicode="&#xd0;" horiz-adv-x="1564" 
d="M641 0h-573l131 674h-154l45 227h152l129 666h493q307 0 487.5 -162.5t180.5 -468.5q0 -156 -35 -295.5t-108 -257t-177.5 -202.5t-250.5 -133t-320 -48zM444 252h215q112 0 202.5 40.5t150 107.5t99 159.5t56.5 192t17 209.5q0 356 -353 356h-180l-80 -416h332l-45 -227
h-332z" />
    <glyph glyph-name="Ntilde" unicode="&#xd1;" horiz-adv-x="1566" 
d="M627 1679q7 59 30 114t59.5 101t91.5 73.5t120 27.5q43 0 81.5 -16t62.5 -35.5t56 -35.5t62 -16q39 0 64.5 22.5t41.5 82.5h158q-14 -137 -89 -226.5t-191 -89.5q-50 0 -94.5 16t-71 35.5t-57.5 35.5t-58 16q-67 0 -111 -105h-155zM55 0l303 1567h351l323 -871
q23 -60 39.5 -118t21.5 -86l5 -27h6l213 1102h297l-303 -1567h-324l-340 883q-24 62 -42 121.5t-24 88.5l-6 29h-6l-217 -1122h-297z" />
    <glyph glyph-name="Ograve" unicode="&#xd2;" horiz-adv-x="1646" 
d="M1085 1966l82 -272h-229l-156 272h303zM137 602q0 201 59 380.5t164.5 314.5t263.5 213.5t345 78.5q135 0 250 -41t201.5 -119.5t135.5 -203t48 -281.5q0 -152 -33.5 -295t-102.5 -267t-166 -216.5t-232 -145.5t-292 -53q-108 0 -202.5 23t-175.5 72.5t-138.5 123
t-90.5 179.5t-34 237zM1255 985q0 75 -16 137.5t-49.5 114.5t-92.5 81.5t-139 29.5q-84 0 -156 -36t-122.5 -98t-89 -140t-61 -167.5t-33.5 -174t-11 -165.5q0 -71 16 -131.5t50 -112t95.5 -81t144.5 -29.5q95 0 174.5 51t132 131.5t89 184t52.5 206t16 199.5z" />
    <glyph glyph-name="Oacute" unicode="&#xd3;" horiz-adv-x="1646" 
d="M905 1694l168 272h316l-246 -272h-238zM137 602q0 201 59 380.5t164.5 314.5t263.5 213.5t345 78.5q135 0 250 -41t201.5 -119.5t135.5 -203t48 -281.5q0 -152 -33.5 -295t-102.5 -267t-166 -216.5t-232 -145.5t-292 -53q-108 0 -202.5 23t-175.5 72.5t-138.5 123
t-90.5 179.5t-34 237zM1255 985q0 75 -16 137.5t-49.5 114.5t-92.5 81.5t-139 29.5q-84 0 -156 -36t-122.5 -98t-89 -140t-61 -167.5t-33.5 -174t-11 -165.5q0 -71 16 -131.5t50 -112t95.5 -81t144.5 -29.5q95 0 174.5 51t132 131.5t89 184t52.5 206t16 199.5z" />
    <glyph glyph-name="Ocircumflex" unicode="&#xd4;" horiz-adv-x="1646" 
d="M1225 1966l161 -272h-219l-104 114h-2l-141 -114h-226l258 272h273zM137 602q0 201 59 380.5t164.5 314.5t263.5 213.5t345 78.5q135 0 250 -41t201.5 -119.5t135.5 -203t48 -281.5q0 -152 -33.5 -295t-102.5 -267t-166 -216.5t-232 -145.5t-292 -53q-108 0 -202.5 23
t-175.5 72.5t-138.5 123t-90.5 179.5t-34 237zM1255 985q0 75 -16 137.5t-49.5 114.5t-92.5 81.5t-139 29.5q-84 0 -156 -36t-122.5 -98t-89 -140t-61 -167.5t-33.5 -174t-11 -165.5q0 -71 16 -131.5t50 -112t95.5 -81t144.5 -29.5q95 0 174.5 51t132 131.5t89 184t52.5 206
t16 199.5z" />
    <glyph glyph-name="Otilde" unicode="&#xd5;" horiz-adv-x="1646" 
d="M653 1679q7 59 30 114t59.5 101t91.5 73.5t120 27.5q43 0 82 -16t63 -35.5t56 -35.5t62 -16q39 0 64.5 22.5t41.5 82.5h158q-14 -137 -89.5 -226.5t-191.5 -89.5q-50 0 -94 16t-70.5 35.5t-57.5 35.5t-58 16q-67 0 -111 -105h-156zM137 602q0 201 59 380.5t164.5 314.5
t263.5 213.5t345 78.5q135 0 250 -41t201.5 -119.5t135.5 -203t48 -281.5q0 -152 -33.5 -295t-102.5 -267t-166 -216.5t-232 -145.5t-292 -53q-108 0 -202.5 23t-175.5 72.5t-138.5 123t-90.5 179.5t-34 237zM1255 985q0 75 -16 137.5t-49.5 114.5t-92.5 81.5t-139 29.5
q-84 0 -156 -36t-122.5 -98t-89 -140t-61 -167.5t-33.5 -174t-11 -165.5q0 -71 16 -131.5t50 -112t95.5 -81t144.5 -29.5q95 0 174.5 51t132 131.5t89 184t52.5 206t16 199.5z" />
    <glyph glyph-name="Odieresis" unicode="&#xd6;" horiz-adv-x="1646" 
d="M1122 1696l56 280h272l-55 -280h-273zM690 1696l53 280h275l-55 -280h-273zM137 602q0 201 59 380.5t164.5 314.5t263.5 213.5t345 78.5q135 0 250 -41t201.5 -119.5t135.5 -203t48 -281.5q0 -152 -33.5 -295t-102.5 -267t-166 -216.5t-232 -145.5t-292 -53
q-108 0 -202.5 23t-175.5 72.5t-138.5 123t-90.5 179.5t-34 237zM1255 985q0 75 -16 137.5t-49.5 114.5t-92.5 81.5t-139 29.5q-84 0 -156 -36t-122.5 -98t-89 -140t-61 -167.5t-33.5 -174t-11 -165.5q0 -71 16 -131.5t50 -112t95.5 -81t144.5 -29.5q95 0 174.5 51
t132 131.5t89 184t52.5 206t16 199.5z" />
    <glyph glyph-name="multiply" unicode="&#xd7;" horiz-adv-x="1304" 
d="M285 199l-156 198l383 326l-274 344l208 176l269 -344l377 332l159 -201l-383 -325l273 -345l-211 -178l-264 348z" />
    <glyph glyph-name="Oslash" unicode="&#xd8;" horiz-adv-x="1646" 
d="M958 1350q-103 0 -188.5 -54.5t-139 -139t-90.5 -191t-52.5 -207t-14.5 -191.5q0 -23 4 -69l727 741q-77 111 -246 111zM791 211q97 0 179 53t136 136.5t92 188t54.5 205.5t15.5 191q0 45 -6 86l-730 -743q73 -117 259 -117zM1604 944q0 -152 -33.5 -295t-102.5 -267
t-166 -216.5t-232 -145.5t-292 -53q-283 0 -452 150l-166 -168h-219l284 291q-88 150 -88 362q0 201 59 380.5t164.5 314.5t263.5 213.5t345 78.5q263 0 434 -145l174 176h223l-293 -299q97 -156 97 -377z" />
    <glyph glyph-name="Ugrave" unicode="&#xd9;" horiz-adv-x="1523" 
d="M1028 1966l82 -272h-229l-156 272h303zM156 604l186 963h330l-185 -944q-42 -208 19 -297q63 -93 231 -93q155 0 240 91q40 45 59 102t37 158l191 983h325l-200 -1039q-110 -561 -666 -561q-328 0 -478 165t-89 472z" />
    <glyph glyph-name="Uacute" unicode="&#xda;" horiz-adv-x="1523" 
d="M848 1694l168 272h315l-246 -272h-237zM156 604l186 963h330l-185 -944q-42 -208 19 -297q63 -93 231 -93q155 0 240 91q40 45 59 102t37 158l191 983h325l-200 -1039q-110 -561 -666 -561q-328 0 -478 165t-89 472z" />
    <glyph glyph-name="Ucircumflex" unicode="&#xdb;" horiz-adv-x="1523" 
d="M1167 1966l162 -272h-219l-104 114h-2l-142 -114h-225l258 272h272zM156 604l186 963h330l-185 -944q-42 -208 19 -297q63 -93 231 -93q155 0 240 91q40 45 59 102t37 158l191 983h325l-200 -1039q-110 -561 -666 -561q-328 0 -478 165t-89 472z" />
    <glyph glyph-name="Udieresis" unicode="&#xdc;" horiz-adv-x="1523" 
d="M156 604l186 963h330l-185 -944q-42 -208 19 -297q63 -93 231 -93q155 0 240 91q40 45 59 102t37 158l191 983h325l-200 -1039q-110 -561 -666 -561q-328 0 -478 165t-89 472zM1065 1696l55 280h273l-56 -280h-272zM633 1696l53 280h275l-56 -280h-272z" />
    <glyph glyph-name="Yacute" unicode="&#xdd;" horiz-adv-x="1398" 
d="M434 0l131 676l-340 891h348l211 -617h4l445 617h346l-690 -926l-125 -641h-330zM797 1694l168 272h315l-246 -272h-237z" />
    <glyph glyph-name="Thorn" unicode="&#xde;" horiz-adv-x="1329" 
d="M707 561h12q130 3 206 69.5t79 192.5q3 114 -64.5 167.5t-194.5 53.5h-157l-94 -483h213zM725 326h-276l-64 -326h-330l303 1567h330l-57 -293h174q118 0 212.5 -25.5t166 -78t109 -139.5t34.5 -202q-4 -130 -50.5 -228t-128.5 -157.5t-188 -88.5t-235 -29z" />
    <glyph glyph-name="germandbls" unicode="&#xdf;" horiz-adv-x="1302" 
d="M29 0l225 1171q39 210 180.5 329.5t376.5 119.5q195 0 318.5 -98.5t123.5 -284.5q-2 -142 -77.5 -245.5t-212.5 -141.5v-6q115 -28 182 -118t67 -224q0 -162 -80 -276.5t-215.5 -170t-314.5 -55.5h-115l45 238h68q129 0 208 72t79 206q0 101 -55.5 160t-153.5 59h-23
l45 234h29q113 0 172.5 67.5t59.5 188.5q0 79 -44 130.5t-120 51.5q-84 0 -142.5 -58t-81.5 -175l-225 -1174h-319z" />
    <glyph glyph-name="agrave" unicode="&#xe0;" horiz-adv-x="1179" 
d="M489 193q88 0 149.5 72.5t86.5 199.5l6 31q-156 -4 -231 -19q-68 -14 -108 -52.5t-40 -98.5q0 -64 36.5 -98.5t100.5 -34.5zM463 772h-307q19 160 147.5 255t345.5 95q253 0 356.5 -126t61.5 -339l-63 -331q-12 -58 6.5 -80.5t70.5 -22.5l-45 -225h-92q-96 0 -153 31.5
t-76 109.5h-6q-74 -80 -146.5 -115.5t-187.5 -35.5q-94 0 -168.5 32.5t-122 103.5t-47.5 173q0 254 287 334q23 6 50 11.5t48.5 8.5t55.5 6t52 4t59 2t55 1.5t61.5 1t58.5 0.5l10 57q17 92 -19 141t-120 49q-152 0 -172 -141zM758 1614l73 -357h-235l-150 357h312z" />
    <glyph glyph-name="aacute" unicode="&#xe1;" horiz-adv-x="1179" 
d="M489 193q88 0 149.5 72.5t86.5 199.5l6 31q-156 -4 -231 -19q-68 -14 -108 -52.5t-40 -98.5q0 -64 36.5 -98.5t100.5 -34.5zM463 772h-307q19 160 147.5 255t345.5 95q253 0 356.5 -126t61.5 -339l-63 -331q-12 -58 6.5 -80.5t70.5 -22.5l-45 -225h-92q-96 0 -153 31.5
t-76 109.5h-6q-74 -80 -146.5 -115.5t-187.5 -35.5q-94 0 -168.5 32.5t-122 103.5t-47.5 173q0 254 287 334q23 6 50 11.5t48.5 8.5t55.5 6t52 4t59 2t55 1.5t61.5 1t58.5 0.5l10 57q17 92 -19 141t-120 49q-152 0 -172 -141zM567 1257l168 357h320l-246 -357h-242z" />
    <glyph glyph-name="acircumflex" unicode="&#xe2;" horiz-adv-x="1179" 
d="M489 193q88 0 149.5 72.5t86.5 199.5l6 31q-156 -4 -231 -19q-68 -14 -108 -52.5t-40 -98.5q0 -64 36.5 -98.5t100.5 -34.5zM463 772h-307q19 160 147.5 255t345.5 95q253 0 356.5 -126t61.5 -339l-63 -331q-12 -58 6.5 -80.5t70.5 -22.5l-45 -225h-92q-96 0 -153 31.5
t-76 109.5h-6q-74 -80 -146.5 -115.5t-187.5 -35.5q-94 0 -168.5 32.5t-122 103.5t-47.5 173q0 254 287 334q23 6 50 11.5t48.5 8.5t55.5 6t52 4t59 2t55 1.5t61.5 1t58.5 0.5l10 57q17 92 -19 141t-120 49q-152 0 -172 -141zM895 1614l147 -357h-211l-98 160l-149 -160
h-222l281 357h252z" />
    <glyph glyph-name="atilde" unicode="&#xe3;" horiz-adv-x="1179" 
d="M489 193q88 0 149.5 72.5t86.5 199.5l6 31q-156 -4 -231 -19q-68 -14 -108 -52.5t-40 -98.5q0 -64 36.5 -98.5t100.5 -34.5zM463 772h-307q19 160 147.5 255t345.5 95q253 0 356.5 -126t61.5 -339l-63 -331q-12 -58 6.5 -80.5t70.5 -22.5l-45 -225h-92q-96 0 -153 31.5
t-76 109.5h-6q-74 -80 -146.5 -115.5t-187.5 -35.5q-94 0 -168.5 32.5t-122 103.5t-47.5 173q0 254 287 334q23 6 50 11.5t48.5 8.5t55.5 6t52 4t59 2t55 1.5t61.5 1t58.5 0.5l10 57q17 92 -19 141t-120 49q-152 0 -172 -141zM326 1257q11 140 89.5 238t207.5 98
q41 0 79.5 -16.5t63 -35.5t55 -35.5t56.5 -16.5q71 0 112 106h156q-9 -93 -43 -167t-99.5 -122.5t-152.5 -48.5q-52 0 -100.5 26.5t-89 52.5t-72.5 26q-73 0 -109 -105h-153z" />
    <glyph glyph-name="adieresis" unicode="&#xe4;" horiz-adv-x="1179" 
d="M489 193q88 0 149.5 72.5t86.5 199.5l6 31q-156 -4 -231 -19q-68 -14 -108 -52.5t-40 -98.5q0 -64 36.5 -98.5t100.5 -34.5zM463 772h-307q19 160 147.5 255t345.5 95q253 0 356.5 -126t61.5 -339l-63 -331q-12 -58 6.5 -80.5t70.5 -22.5l-45 -225h-92q-96 0 -153 31.5
t-76 109.5h-6q-74 -80 -146.5 -115.5t-187.5 -35.5q-94 0 -168.5 32.5t-122 103.5t-47.5 173q0 254 287 334q23 6 50 11.5t48.5 8.5t55.5 6t52 4t59 2t55 1.5t61.5 1t58.5 0.5l10 57q17 92 -19 141t-120 49q-152 0 -172 -141zM784 1303l56 280h272l-55 -280h-273zM365 1303
l55 280h274l-55 -280h-274z" />
    <glyph glyph-name="aring" unicode="&#xe5;" horiz-adv-x="1179" 
d="M489 193q88 0 149.5 72.5t86.5 199.5l6 31q-156 -4 -231 -19q-68 -14 -108 -52.5t-40 -98.5q0 -64 36.5 -98.5t100.5 -34.5zM463 772h-307q19 160 147.5 255t345.5 95q253 0 356.5 -126t61.5 -339l-63 -331q-12 -58 6.5 -80.5t70.5 -22.5l-45 -225h-92q-96 0 -153 31.5
t-76 109.5h-6q-74 -80 -146.5 -115.5t-187.5 -35.5q-94 0 -168.5 32.5t-122 103.5t-47.5 173q0 254 287 334q23 6 50 11.5t48.5 8.5t55.5 6t52 4t59 2t55 1.5t61.5 1t58.5 0.5l10 57q17 92 -19 141t-120 49q-152 0 -172 -141zM733 1233q-113 2 -185.5 60.5t-72.5 164.5
q0 122 79 200.5t200 78.5q124 0 193 -63.5t69 -164.5q0 -125 -79.5 -200.5t-203.5 -75.5zM756 1608q-55 0 -87 -39.5t-32 -104.5q0 -47 26 -75.5t72 -28.5q53 0 86 38t33 101q0 49 -25 79t-73 30z" />
    <glyph glyph-name="ae" unicode="&#xe6;" horiz-adv-x="1853" 
d="M1483 657l2 15q36 250 -156 250q-90 0 -155 -72.5t-97 -192.5h406zM489 193q90 0 149.5 70.5t86.5 201.5l6 31q-156 -4 -231 -19q-69 -14 -108.5 -52t-39.5 -99q0 -64 36.5 -98.5t100.5 -34.5zM1731 319q-34 -169 -165.5 -253t-338.5 -84q-160 0 -258.5 51.5
t-153.5 152.5h-4q-79 -96 -175 -147t-255 -51q-153 0 -248.5 78.5t-95.5 228.5q0 256 287 336q23 6 50 11.5t48.5 8.5t55.5 6t52 4t59 2t55 1.5t61.5 1t58.5 0.5l10 57q17 92 -19.5 141t-121.5 49q-153 0 -170 -141h-307q19 168 148.5 259t350.5 91q237 0 326 -161h2
q140 163 363 163q90 0 164 -21t125 -59.5t87.5 -91.5t52 -116.5t18 -136.5t-14.5 -150l-15 -76h-714q-2 -16 -2 -51q0 -234 186 -234q78 0 126.5 37t61.5 94h310z" />
    <glyph glyph-name="ccedilla" unicode="&#xe7;" horiz-adv-x="1210" 
d="M449 -461q-55 0 -101 15.5t-77 53t-27 91.5h157q6 -41 60 -41q36 0 56 20t20 50q0 27 -15.5 43t-42.5 16q-37 0 -61 -27h-127l117 230q-156 38 -245 150.5t-89 297.5q0 140 41 263t117.5 218t196.5 150t269 55q221 0 348 -112t121 -307h-319q5 92 -34 147t-126 55
q-72 0 -129 -45t-90.5 -117t-50.5 -154t-17 -165q0 -109 47 -171t142 -62q94 0 152.5 60t74.5 155h309q-17 -142 -97.5 -243t-196.5 -147.5t-257 -46.5q-41 0 -61 2l-55 -108h4q42 31 102 31q63 0 103.5 -39.5t40.5 -102.5q0 -98 -67.5 -156.5t-192.5 -58.5z" />
    <glyph glyph-name="egrave" unicode="&#xe8;" horiz-adv-x="1206" 
d="M829 657l2 15q36 250 -155 250q-94 0 -158.5 -71.5t-95.5 -193.5h407zM1083 319q-34 -171 -174.5 -259.5t-343.5 -88.5q-228 0 -360.5 123t-132.5 340q0 137 41.5 260.5t118 220t195.5 153t263 56.5q91 0 166 -21.5t126.5 -60.5t88.5 -92.5t53 -117.5t19 -136t-13 -147
l-14 -76h-721q-2 -16 -2 -51q0 -107 46 -169.5t143 -62.5q78 0 125.5 36t60.5 93h315zM801 1614l73 -357h-235l-150 357h312z" />
    <glyph glyph-name="eacute" unicode="&#xe9;" horiz-adv-x="1206" 
d="M612 1257l168 357h320l-246 -357h-242zM829 657l2 15q36 250 -155 250q-94 0 -158.5 -71.5t-95.5 -193.5h407zM1083 319q-34 -171 -174.5 -259.5t-343.5 -88.5q-228 0 -360.5 123t-132.5 340q0 137 41.5 260.5t118 220t195.5 153t263 56.5q91 0 166 -21.5t126.5 -60.5
t88.5 -92.5t53 -117.5t19 -136t-13 -147l-14 -76h-721q-2 -16 -2 -51q0 -107 46 -169.5t143 -62.5q78 0 125.5 36t60.5 93h315z" />
    <glyph glyph-name="ecircumflex" unicode="&#xea;" horiz-adv-x="1206" 
d="M940 1614l147 -357h-210l-99 160l-149 -160h-221l280 357h252zM829 657l2 15q36 250 -155 250q-94 0 -158.5 -71.5t-95.5 -193.5h407zM1083 319q-34 -171 -174.5 -259.5t-343.5 -88.5q-228 0 -360.5 123t-132.5 340q0 137 41.5 260.5t118 220t195.5 153t263 56.5
q91 0 166 -21.5t126.5 -60.5t88.5 -92.5t53 -117.5t19 -136t-13 -147l-14 -76h-721q-2 -16 -2 -51q0 -107 46 -169.5t143 -62.5q78 0 125.5 36t60.5 93h315z" />
    <glyph glyph-name="edieresis" unicode="&#xeb;" horiz-adv-x="1206" 
d="M829 1303l56 280h272l-55 -280h-273zM410 1303l55 280h274l-55 -280h-274zM829 657l2 15q36 250 -155 250q-94 0 -158.5 -71.5t-95.5 -193.5h407zM1083 319q-34 -171 -174.5 -259.5t-343.5 -88.5q-228 0 -360.5 123t-132.5 340q0 137 41.5 260.5t118 220t195.5 153
t263 56.5q91 0 166 -21.5t126.5 -60.5t88.5 -92.5t53 -117.5t19 -136t-13 -147l-14 -76h-721q-2 -16 -2 -51q0 -107 46 -169.5t143 -62.5q78 0 125.5 36t60.5 93h315z" />
    <glyph glyph-name="igrave" unicode="&#xec;" horiz-adv-x="591" 
d="M37 0l213 1098h319l-213 -1098h-319zM494 1614l73 -357h-235l-150 357h312z" />
    <glyph glyph-name="iacute" unicode="&#xed;" horiz-adv-x="591" 
d="M303 1257l168 357h320l-246 -357h-242zM37 0l213 1098h319l-213 -1098h-319z" />
    <glyph glyph-name="icircumflex" unicode="&#xee;" horiz-adv-x="591" 
d="M633 1614l123 -357h-205l-80 160l-129 -160h-221l260 357h252zM37 0l213 1098h319l-213 -1098h-319z" />
    <glyph glyph-name="idieresis" unicode="&#xef;" horiz-adv-x="591" 
d="M510 1303l53 280h234l-56 -280h-231zM156 1303l55 280h231l-55 -280h-231zM37 0l213 1098h319l-213 -1098h-319z" />
    <glyph glyph-name="eth" unicode="&#xf0;" horiz-adv-x="1245" 
d="M565 -29q-225 0 -358 120t-133 347q0 99 23 195.5t70 184t112.5 154t157.5 105.5t198 39q153 0 227 -94h4q-43 141 -166 264l-311 -112l-37 124l234 86q-97 70 -219 134l254 112q138 -60 243 -143l226 82l40 -125l-157 -58q221 -242 221 -583q0 -211 -46 -372
t-130.5 -260.5t-198 -149.5t-254.5 -50zM858 686q0 100 -41.5 163.5t-132.5 63.5q-76 0 -134 -49.5t-90 -127.5t-47.5 -159.5t-15.5 -158.5q0 -105 45 -166.5t136 -61.5q64 0 114.5 34.5t80.5 87.5t50 122t27.5 131t7.5 121z" />
    <glyph glyph-name="ntilde" unicode="&#xf1;" horiz-adv-x="1294" 
d="M743 0l119 623q17 77 17 120q0 71 -32.5 107.5t-107.5 36.5q-105 0 -175.5 -82.5t-98.5 -231.5l-109 -573h-319l213 1098h307l-39 -193h4q61 101 158.5 158t218.5 57q178 0 255.5 -115t35.5 -335l-129 -670h-318zM412 1257q11 140 89.5 238t207.5 98q41 0 79.5 -16.5
t63 -35.5t55 -35.5t56.5 -16.5q71 0 112 106h156q-9 -93 -43 -167t-99.5 -122.5t-152.5 -48.5q-52 0 -100.5 26.5t-89 52.5t-72.5 26q-73 0 -109 -105h-153z" />
    <glyph glyph-name="ograve" unicode="&#xf2;" horiz-adv-x="1241" 
d="M565 -29q-224 0 -357.5 119.5t-133.5 343.5q0 107 25 207.5t76.5 188t123.5 153.5t172.5 103.5t216.5 37.5q224 0 360 -123t136 -337q0 -194 -73.5 -350.5t-215.5 -249.5t-330 -93zM858 686q0 42 -8.5 79t-27 70t-54.5 52.5t-86 19.5q-61 0 -110.5 -33t-81 -84.5
t-53.5 -117.5t-31 -130t-9 -124q0 -47 9 -86t29 -72t56.5 -51.5t86.5 -18.5q64 0 115 35.5t81 88.5t50 122.5t27 130.5t7 119zM801 1614l73 -357h-235l-150 357h312z" />
    <glyph glyph-name="oacute" unicode="&#xf3;" horiz-adv-x="1241" 
d="M610 1257l168 357h320l-246 -357h-242zM565 -29q-224 0 -357.5 119.5t-133.5 343.5q0 107 25 207.5t76.5 188t123.5 153.5t172.5 103.5t216.5 37.5q224 0 360 -123t136 -337q0 -194 -73.5 -350.5t-215.5 -249.5t-330 -93zM858 686q0 42 -8.5 79t-27 70t-54.5 52.5
t-86 19.5q-61 0 -110.5 -33t-81 -84.5t-53.5 -117.5t-31 -130t-9 -124q0 -47 9 -86t29 -72t56.5 -51.5t86.5 -18.5q64 0 115 35.5t81 88.5t50 122.5t27 130.5t7 119z" />
    <glyph glyph-name="ocircumflex" unicode="&#xf4;" horiz-adv-x="1241" 
d="M940 1614l147 -357h-210l-99 160l-149 -160h-221l280 357h252zM565 -29q-224 0 -357.5 119.5t-133.5 343.5q0 107 25 207.5t76.5 188t123.5 153.5t172.5 103.5t216.5 37.5q224 0 360 -123t136 -337q0 -194 -73.5 -350.5t-215.5 -249.5t-330 -93zM858 686q0 42 -8.5 79
t-27 70t-54.5 52.5t-86 19.5q-61 0 -110.5 -33t-81 -84.5t-53.5 -117.5t-31 -130t-9 -124q0 -47 9 -86t29 -72t56.5 -51.5t86.5 -18.5q64 0 115 35.5t81 88.5t50 122.5t27 130.5t7 119z" />
    <glyph glyph-name="otilde" unicode="&#xf5;" horiz-adv-x="1241" 
d="M565 -29q-224 0 -357.5 119.5t-133.5 343.5q0 107 25 207.5t76.5 188t123.5 153.5t172.5 103.5t216.5 37.5q224 0 360 -123t136 -337q0 -194 -73.5 -350.5t-215.5 -249.5t-330 -93zM858 686q0 42 -8.5 79t-27 70t-54.5 52.5t-86 19.5q-61 0 -110.5 -33t-81 -84.5
t-53.5 -117.5t-31 -130t-9 -124q0 -47 9 -86t29 -72t56.5 -51.5t86.5 -18.5q64 0 115 35.5t81 88.5t50 122.5t27 130.5t7 119zM369 1257q11 140 89.5 238t207.5 98q41 0 79.5 -16.5t63 -35.5t55 -35.5t56.5 -16.5q71 0 112 106h156q-9 -93 -43 -167t-99.5 -122.5
t-152.5 -48.5q-52 0 -100.5 26.5t-89 52.5t-72.5 26q-73 0 -109 -105h-153z" />
    <glyph glyph-name="odieresis" unicode="&#xf6;" horiz-adv-x="1241" 
d="M827 1303l56 280h272l-55 -280h-273zM408 1303l55 280h274l-55 -280h-274zM565 -29q-224 0 -357.5 119.5t-133.5 343.5q0 107 25 207.5t76.5 188t123.5 153.5t172.5 103.5t216.5 37.5q224 0 360 -123t136 -337q0 -194 -73.5 -350.5t-215.5 -249.5t-330 -93zM858 686
q0 42 -8.5 79t-27 70t-54.5 52.5t-86 19.5q-61 0 -110.5 -33t-81 -84.5t-53.5 -117.5t-31 -130t-9 -124q0 -47 9 -86t29 -72t56.5 -51.5t86.5 -18.5q64 0 115 35.5t81 88.5t50 122.5t27 130.5t7 119z" />
    <glyph glyph-name="divide" unicode="&#xf7;" horiz-adv-x="1265" 
d="M571 1008l58 292h307l-57 -292h-308zM168 614l45 238h965l-45 -238h-965zM713 160h-305l57 295h305z" />
    <glyph glyph-name="oslash" unicode="&#xf8;" horiz-adv-x="1241" 
d="M682 915q-62 0 -113.5 -33.5t-84.5 -86.5t-55.5 -120.5t-32 -132t-9.5 -124.5v-23l444 449q-48 71 -149 71zM578 182q81 0 141 53t90.5 135.5t44.5 162.5t14 155l-438 -442q48 -64 148 -64zM1184 664q0 -194 -73.5 -350.5t-215.5 -249.5t-330 -93q-194 0 -319 88
l-135 -137h-191l232 234q-78 115 -78 278q0 107 25 207.5t76.5 188t123.5 153.5t172.5 103.5t216.5 37.5q198 0 326 -96l141 143h191l-238 -239q76 -112 76 -268z" />
    <glyph glyph-name="ugrave" unicode="&#xf9;" horiz-adv-x="1275" 
d="M557 1098l-123 -627q-12 -62 -12 -111q-1 -77 33 -112t104 -35q98 0 165.5 80t96.5 231l113 574h317l-213 -1098h-305l37 188h-4q-61 -97 -152 -152.5t-204 -55.5q-188 0 -267 113.5t-37 330.5l132 674h319zM831 1614l74 -357h-235l-150 357h311z" />
    <glyph glyph-name="uacute" unicode="&#xfa;" horiz-adv-x="1275" 
d="M641 1257l168 357h319l-245 -357h-242zM557 1098l-123 -627q-12 -62 -12 -111q-1 -77 33 -112t104 -35q98 0 165.5 80t96.5 231l113 574h317l-213 -1098h-305l37 188h-4q-61 -97 -152 -152.5t-204 -55.5q-188 0 -267 113.5t-37 330.5l132 674h319z" />
    <glyph glyph-name="ucircumflex" unicode="&#xfb;" horiz-adv-x="1275" 
d="M969 1614l147 -357h-211l-98 160l-150 -160h-221l281 357h252zM557 1098l-123 -627q-12 -62 -12 -111q-1 -77 33 -112t104 -35q98 0 165.5 80t96.5 231l113 574h317l-213 -1098h-305l37 188h-4q-61 -97 -152 -152.5t-204 -55.5q-188 0 -267 113.5t-37 330.5l132 674h319z
" />
    <glyph glyph-name="udieresis" unicode="&#xfc;" horiz-adv-x="1275" 
d="M858 1303l55 280h273l-56 -280h-272zM438 1303l56 280h274l-55 -280h-275zM557 1098l-123 -627q-12 -62 -12 -111q-1 -77 33 -112t104 -35q98 0 165.5 80t96.5 231l113 574h317l-213 -1098h-305l37 188h-4q-61 -97 -152 -152.5t-204 -55.5q-188 0 -267 113.5t-37 330.5
l132 674h319z" />
    <glyph glyph-name="yacute" unicode="&#xfd;" horiz-adv-x="1146" 
d="M330 -2l-187 1100h322l67 -576q6 -54 9 -111t3 -87l-1 -31h4q39 105 86 205l278 600h318l-611 -1164q-66 -125 -129.5 -196t-155.5 -108.5t-224 -37.5q-46 0 -88 5t-60 9.5t-22 6.5l47 233q42 -12 106 -12q87 0 137.5 29.5t85.5 103.5zM594 1257l168 357h319l-245 -357
h-242z" />
    <glyph glyph-name="thorn" unicode="&#xfe;" horiz-adv-x="1296" 
d="M631 190q70 0 126 44.5t89 116.5t50 155t17 168q0 223 -172 223q-97 0 -171 -73t-97 -191l-24 -133q-28 -134 17 -222t165 -88zM-39 -385l389 1999h320l-135 -690h4q121 196 342 196q172 0 264 -116t92 -318q0 -98 -19 -195.5t-61.5 -191.5t-104.5 -166t-155.5 -116
t-206.5 -44q-104 0 -186.5 48.5t-114.5 130.5h-4l-104 -537h-320z" />
    <glyph glyph-name="ydieresis" unicode="&#xff;" horiz-adv-x="1146" 
d="M330 -2l-187 1100h322l67 -576q6 -54 9 -111t3 -87l-1 -31h4q39 105 86 205l278 600h318l-611 -1164q-66 -125 -129.5 -196t-155.5 -108.5t-224 -37.5q-46 0 -88 5t-60 9.5t-22 6.5l47 233q42 -12 106 -12q87 0 137.5 29.5t85.5 103.5zM811 1303l55 280h273l-56 -280
h-272zM391 1303l55 280h275l-55 -280h-275z" />
    <glyph glyph-name="Amacron" unicode="&#x100;" horiz-adv-x="1527" 
d="M877 1284q-2 -7 -12 -34t-36 -86t-57 -122l-217 -448h408l-60 440q-9 68 -14.5 130.5t-6.5 91.5l-1 28h-4zM1051 0l-54 352h-561l-174 -352h-325l813 1567h368l264 -1567h-331zM621 1716l41 213h688l-43 -213h-686z" />
    <glyph glyph-name="amacron" unicode="&#x101;" horiz-adv-x="1179" 
d="M489 193q88 0 149.5 72.5t86.5 199.5l6 31q-156 -4 -231 -19q-68 -14 -108 -52.5t-40 -98.5q0 -64 36.5 -98.5t100.5 -34.5zM463 772h-307q19 160 147.5 255t345.5 95q253 0 356.5 -126t61.5 -339l-63 -331q-12 -58 6.5 -80.5t70.5 -22.5l-45 -225h-92q-96 0 -153 31.5
t-76 109.5h-6q-74 -80 -146.5 -115.5t-187.5 -35.5q-94 0 -168.5 32.5t-122 103.5t-47.5 173q0 254 287 334q23 6 50 11.5t48.5 8.5t55.5 6t52 4t59 2t55 1.5t61.5 1t58.5 0.5l10 57q17 92 -19 141t-120 49q-152 0 -172 -141zM369 1303l41 213h686l-39 -213h-688z" />
    <glyph glyph-name="Abreve" unicode="&#x102;" horiz-adv-x="1527" 
d="M877 1284q-2 -7 -12 -34t-36 -86t-57 -122l-217 -448h408l-60 440q-9 68 -14.5 130.5t-6.5 91.5l-1 28h-4zM1051 0l-54 352h-561l-174 -352h-325l813 1567h368l264 -1567h-331zM674 1980h192q-4 -60 26.5 -95.5t86.5 -35.5q57 0 99 34.5t61 96.5h204q-32 -167 -136 -244
t-253 -77q-139 0 -222 84.5t-58 236.5z" />
    <glyph glyph-name="abreve" unicode="&#x103;" horiz-adv-x="1179" 
d="M489 193q88 0 149.5 72.5t86.5 199.5l6 31q-156 -4 -231 -19q-68 -14 -108 -52.5t-40 -98.5q0 -64 36.5 -98.5t100.5 -34.5zM463 772h-307q19 160 147.5 255t345.5 95q253 0 356.5 -126t61.5 -339l-63 -331q-12 -58 6.5 -80.5t70.5 -22.5l-45 -225h-92q-96 0 -153 31.5
t-76 109.5h-6q-74 -80 -146.5 -115.5t-187.5 -35.5q-94 0 -168.5 32.5t-122 103.5t-47.5 173q0 254 287 334q23 6 50 11.5t48.5 8.5t55.5 6t52 4t59 2t55 1.5t61.5 1t58.5 0.5l10 57q17 92 -19 141t-120 49q-152 0 -172 -141zM721 1253q-156 0 -237.5 94.5t-47.5 266.5h201
q-13 -72 14.5 -111t85.5 -39q59 0 101 39t57 111h211q-13 -94 -51 -166t-92 -113.5t-115 -61.5t-127 -20z" />
    <glyph glyph-name="Aogonek" unicode="&#x104;" horiz-adv-x="1527" 
d="M1303 -385h-54q-137 0 -200.5 37.5t-63.5 116.5q0 140 184 231h-118l-54 352h-561l-174 -352h-325l813 1567h368l260 -1557q-133 -80 -133 -153q0 -27 24 -43.5t68 -16.5zM877 1284q-2 -7 -12 -34t-36 -86t-57 -122l-217 -448h408l-60 440q-9 68 -14.5 130.5t-6.5 91.5
l-1 28h-4z" />
    <glyph glyph-name="aogonek" unicode="&#x105;" horiz-adv-x="1179" 
d="M864 -4v6q-64 18 -98 48t-51 89h-6q-74 -80 -146.5 -115.5t-187.5 -35.5q-145 0 -241.5 79.5t-96.5 229.5q0 254 287 334q23 6 50 11.5t48.5 8.5t55.5 6t52 4t59 2t55 1.5t61.5 1t58.5 0.5l10 57q17 92 -18.5 141t-120.5 49q-152 0 -172 -141h-307q19 161 148.5 255.5
t346.5 94.5q253 0 355 -126.5t59 -348.5l-61 -321q-12 -60 6 -81.5t71 -21.5l-45 -217q-73 -43 -103 -79t-30 -74q0 -56 92 -56l-34 -182h-60q-138 0 -198 38t-60 122q0 75 61 131.5t160 89.5zM489 193q90 0 151 73t85 197l6 33q-156 -4 -231 -19q-68 -14 -108 -52.5
t-40 -98.5q0 -64 36.5 -98.5t100.5 -34.5z" />
    <glyph glyph-name="Cacute" unicode="&#x106;" horiz-adv-x="1556" 
d="M1550 1036h-344q3 147 -59.5 226.5t-192.5 78.5q-99 -2 -180 -51t-133 -126.5t-87 -179.5t-50 -205.5t-15 -209.5q0 -72 15.5 -132.5t48.5 -112t92.5 -80.5t140.5 -29q135 0 224 81t123 236h335q-44 -266 -229 -415.5t-463 -149.5q-304 0 -471.5 162t-167.5 483
q0 148 32.5 288.5t100.5 265.5t165 219t234.5 149t299.5 55q129 0 233 -31.5t183 -97t122 -173t43 -251.5zM885 1694l168 272h315l-246 -272h-237z" />
    <glyph glyph-name="cacute" unicode="&#x107;" horiz-adv-x="1210" 
d="M618 1257l168 357h320l-246 -357h-242zM1167 705h-319q5 92 -34 147t-126 55q-72 0 -129 -45t-90.5 -117t-50.5 -154t-17 -165q0 -109 47 -171t142 -62q94 0 152.5 60t74.5 155h309q-17 -142 -97.5 -243t-196.5 -147.5t-257 -46.5q-110 0 -200 28t-158 83.5t-105.5 146
t-37.5 209.5q0 140 41 263t117.5 218t196.5 150t269 55q221 0 348 -112t121 -307z" />
    <glyph glyph-name="Ccircumflex" unicode="&#x108;" horiz-adv-x="1556" 
d="M1190 1966l162 -272h-219l-105 114h-2l-141 -114h-226l259 272h272zM1550 1036h-344q3 147 -59.5 226.5t-192.5 78.5q-99 -2 -180 -51t-133 -126.5t-87 -179.5t-50 -205.5t-15 -209.5q0 -72 15.5 -132.5t48.5 -112t92.5 -80.5t140.5 -29q135 0 224 81t123 236h335
q-44 -266 -229 -415.5t-463 -149.5q-304 0 -471.5 162t-167.5 483q0 148 32.5 288.5t100.5 265.5t165 219t234.5 149t299.5 55q129 0 233 -31.5t183 -97t122 -173t43 -251.5z" />
    <glyph glyph-name="ccircumflex" unicode="&#x109;" horiz-adv-x="1210" 
d="M946 1614l148 -357h-211l-99 160l-149 -160h-221l280 357h252zM1167 705h-319q5 92 -34 147t-126 55q-72 0 -129 -45t-90.5 -117t-50.5 -154t-17 -165q0 -109 47 -171t142 -62q94 0 152.5 60t74.5 155h309q-17 -142 -97.5 -243t-196.5 -147.5t-257 -46.5q-110 0 -200 28
t-158 83.5t-105.5 146t-37.5 209.5q0 140 41 263t117.5 218t196.5 150t269 55q221 0 348 -112t121 -307z" />
    <glyph glyph-name="Cdotaccent" unicode="&#x10a;" horiz-adv-x="1556" 
d="M1550 1036h-344q3 147 -59.5 226.5t-192.5 78.5q-99 -2 -180 -51t-133 -126.5t-87 -179.5t-50 -205.5t-15 -209.5q0 -72 15.5 -132.5t48.5 -112t92.5 -80.5t140.5 -29q135 0 224 81t123 236h335q-44 -266 -229 -415.5t-463 -149.5q-304 0 -471.5 162t-167.5 483
q0 148 32.5 288.5t100.5 265.5t165 219t234.5 149t299.5 55q129 0 233 -31.5t183 -97t122 -173t43 -251.5zM893 1706l55 281h277l-56 -281h-276z" />
    <glyph glyph-name="cdotaccent" unicode="&#x10b;" horiz-adv-x="1210" 
d="M1167 705h-319q5 92 -34 147t-126 55q-72 0 -129 -45t-90.5 -117t-50.5 -154t-17 -165q0 -109 47 -171t142 -62q94 0 152.5 60t74.5 155h309q-17 -142 -97.5 -243t-196.5 -147.5t-257 -46.5q-110 0 -200 28t-158 83.5t-105.5 146t-37.5 209.5q0 140 41 263t117.5 218
t196.5 150t269 55q221 0 348 -112t121 -307zM625 1303l55 280h276l-55 -280h-276z" />
    <glyph glyph-name="Ccaron" unicode="&#x10c;" horiz-adv-x="1556" 
d="M852 1694l-166 272h221l107 -115h2l143 115h232l-267 -272h-272zM1550 1036h-344q3 147 -59.5 226.5t-192.5 78.5q-99 -2 -180 -51t-133 -126.5t-87 -179.5t-50 -205.5t-15 -209.5q0 -72 15.5 -132.5t48.5 -112t92.5 -80.5t140.5 -29q135 0 224 81t123 236h335
q-44 -266 -229 -415.5t-463 -149.5q-304 0 -471.5 162t-167.5 483q0 148 32.5 288.5t100.5 265.5t165 219t234.5 149t299.5 55q129 0 233 -31.5t183 -97t122 -173t43 -251.5z" />
    <glyph glyph-name="ccaron" unicode="&#x10d;" horiz-adv-x="1210" 
d="M627 1257l-148 357h211l94 -158l156 158h219l-280 -357h-252zM1167 705h-319q5 92 -34 147t-126 55q-72 0 -129 -45t-90.5 -117t-50.5 -154t-17 -165q0 -109 47 -171t142 -62q94 0 152.5 60t74.5 155h309q-17 -142 -97.5 -243t-196.5 -147.5t-257 -46.5q-110 0 -200 28
t-158 83.5t-105.5 146t-37.5 209.5q0 140 41 263t117.5 218t196.5 150t269 55q221 0 348 -112t121 -307z" />
    <glyph glyph-name="Dcaron" unicode="&#x10e;" horiz-adv-x="1552" 
d="M760 1694l-166 272h221l107 -115h2l143 115h231l-266 -272h-272zM55 0l301 1567h496q201 0 349.5 -69.5t233.5 -213t85 -348.5q0 -156 -35 -295.5t-108 -257t-177.5 -202.5t-250.5 -133t-320 -48h-574zM432 252h215q112 0 202 40t149 107.5t99 160t57 192.5t17 209
q0 356 -352 356h-180z" />
    <glyph glyph-name="dcaron" unicode="&#x10f;" horiz-adv-x="1306" 
d="M1434 1231l86 383h252l-187 -383h-151zM692 899q-70 0 -127 -43.5t-91.5 -114.5t-52.5 -155t-18 -172q0 -224 168 -224q99 0 174.5 74t98.5 195l24 131q29 138 -14 223.5t-162 85.5zM1382 1614l-313 -1614h-305l31 164h-4q-132 -193 -336 -193q-181 0 -279 121t-98 322
q0 100 21.5 199t67 190.5t109.5 162t155.5 112.5t197.5 42q223 0 301 -176h4l129 670h319z" />
    <glyph glyph-name="Dcroat" unicode="&#x110;" horiz-adv-x="1564" 
d="M641 0h-573l131 674h-154l45 227h152l129 666h493q307 0 487.5 -162.5t180.5 -468.5q0 -156 -35 -295.5t-108 -257t-177.5 -202.5t-250.5 -133t-320 -48zM444 252h215q112 0 202.5 40.5t150 107.5t99 159.5t56.5 192t17 209.5q0 356 -353 356h-180l-80 -416h332l-45 -227
h-332z" />
    <glyph glyph-name="dcroat" unicode="&#x111;" horiz-adv-x="1306" 
d="M692 899q-70 0 -127 -43.5t-91.5 -114.5t-52.5 -155t-18 -172q0 -224 168 -224q99 0 174.5 74t98.5 195l24 131q29 138 -14 223.5t-162 85.5zM791 164q-132 -193 -336 -193q-181 0 -279 121t-98 322q0 100 21.5 199t67 190.5t109.5 162t155.5 112.5t197.5 42
q223 0 301 -176h4l57 299h-301l35 191h303l35 180h319l-34 -180h155l-37 -191h-155l-242 -1243h-305l31 164h-4z" />
    <glyph glyph-name="Emacron" unicode="&#x112;" horiz-adv-x="1302" 
d="M55 0l303 1567h1002l-49 -256h-672l-78 -404h637l-49 -250h-637l-78 -403h696l-49 -254h-1026zM549 1716l41 213h688l-43 -213h-686z" />
    <glyph glyph-name="emacron" unicode="&#x113;" horiz-adv-x="1206" 
d="M829 657l2 15q36 250 -155 250q-94 0 -158.5 -71.5t-95.5 -193.5h407zM1083 319q-34 -171 -174.5 -259.5t-343.5 -88.5q-228 0 -360.5 123t-132.5 340q0 137 41.5 260.5t118 220t195.5 153t263 56.5q91 0 166 -21.5t126.5 -60.5t88.5 -92.5t53 -117.5t19 -136t-13 -147
l-14 -76h-721q-2 -16 -2 -51q0 -107 46 -169.5t143 -62.5q78 0 125.5 36t60.5 93h315zM412 1303l41 213h686l-39 -213h-688z" />
    <glyph glyph-name="Ebreve" unicode="&#x114;" horiz-adv-x="1302" 
d="M55 0l303 1567h1002l-49 -256h-672l-78 -404h637l-49 -250h-637l-78 -403h696l-49 -254h-1026zM600 1991h193q-4 -60 26 -95.5t86 -35.5q57 0 99 34.5t61 96.5h205q-32 -167 -136 -244.5t-253 -77.5q-139 0 -222.5 85t-58.5 237z" />
    <glyph glyph-name="ebreve" unicode="&#x115;" horiz-adv-x="1206" 
d="M829 657l2 15q36 250 -155 250q-94 0 -158.5 -71.5t-95.5 -193.5h407zM1083 319q-34 -171 -174.5 -259.5t-343.5 -88.5q-228 0 -360.5 123t-132.5 340q0 137 41.5 260.5t118 220t195.5 153t263 56.5q91 0 166 -21.5t126.5 -60.5t88.5 -92.5t53 -117.5t19 -136t-13 -147
l-14 -76h-721q-2 -16 -2 -51q0 -107 46 -169.5t143 -62.5q78 0 125.5 36t60.5 93h315zM766 1253q-156 0 -237.5 94.5t-47.5 266.5h201q-13 -72 14.5 -111t85.5 -39q59 0 101 39t57 111h211q-13 -94 -51 -166t-92 -113.5t-115 -61.5t-127 -20z" />
    <glyph glyph-name="Edotaccent" unicode="&#x116;" horiz-adv-x="1302" 
d="M750 1706l55 281h276l-55 -281h-276zM55 0l303 1567h1002l-49 -256h-672l-78 -404h637l-49 -250h-637l-78 -403h696l-49 -254h-1026z" />
    <glyph glyph-name="edotaccent" unicode="&#x117;" horiz-adv-x="1206" 
d="M829 657l2 15q36 250 -155 250q-94 0 -158.5 -71.5t-95.5 -193.5h407zM1083 319q-34 -171 -174.5 -259.5t-343.5 -88.5q-228 0 -360.5 123t-132.5 340q0 137 41.5 260.5t118 220t195.5 153t263 56.5q91 0 166 -21.5t126.5 -60.5t88.5 -92.5t53 -117.5t19 -136t-13 -147
l-14 -76h-721q-2 -16 -2 -51q0 -107 46 -169.5t143 -62.5q78 0 125.5 36t60.5 93h315zM618 1303l56 280h276l-55 -280h-277z" />
    <glyph glyph-name="Eogonek" unicode="&#x118;" horiz-adv-x="1302" 
d="M1042 -203l-34 -182h-60q-137 0 -197.5 39.5t-60.5 120.5q0 70 50 129.5t143 95.5h-828l303 1567h1002l-49 -256h-672l-78 -404h637l-49 -250h-637l-78 -403h696l-49 -254q-69 -41 -100 -75.5t-31 -71.5q0 -56 92 -56z" />
    <glyph glyph-name="eogonek" unicode="&#x119;" horiz-adv-x="1206" 
d="M829 657l2 15q36 250 -159 250q-92 0 -155.5 -72t-94.5 -193h407zM791 -203l-35 -182h-60q-137 0 -197.5 37.5t-60.5 118.5q0 130 170 200v4q-24 -4 -49 -4q-219 0 -353 121t-134 342q0 137 41.5 260.5t118 220t195.5 153t263 56.5q92 0 167.5 -21.5t127 -60.5
t88.5 -92.5t52 -117.5t18 -136t-13 -147l-14 -76h-721q-2 -16 -2 -51q0 -107 46 -169.5t143 -62.5q78 0 125.5 36t60.5 93h315q-20 -95 -73.5 -167t-161.5 -127q-152 -75 -152 -166q0 -29 24.5 -45.5t70.5 -16.5z" />
    <glyph glyph-name="Ecaron" unicode="&#x11a;" horiz-adv-x="1302" 
d="M750 1694l-166 272h221l106 -115h2l144 115h231l-266 -272h-272zM55 0l303 1567h1002l-49 -256h-672l-78 -404h637l-49 -250h-637l-78 -403h696l-49 -254h-1026z" />
    <glyph glyph-name="ecaron" unicode="&#x11b;" horiz-adv-x="1206" 
d="M621 1257l-148 357h211l94 -158l156 158h219l-281 -357h-251zM829 657l2 15q36 250 -155 250q-94 0 -158.5 -71.5t-95.5 -193.5h407zM1083 319q-34 -171 -174.5 -259.5t-343.5 -88.5q-228 0 -360.5 123t-132.5 340q0 137 41.5 260.5t118 220t195.5 153t263 56.5
q91 0 166 -21.5t126.5 -60.5t88.5 -92.5t53 -117.5t19 -136t-13 -147l-14 -76h-721q-2 -16 -2 -51q0 -107 46 -169.5t143 -62.5q78 0 125.5 36t60.5 93h315z" />
    <glyph glyph-name="Gcircumflex" unicode="&#x11c;" horiz-adv-x="1622" 
d="M1221 1966l161 -272h-219l-104 114h-2l-142 -114h-225l258 272h273zM1559 1092h-342q4 124 -59.5 190t-184.5 66q-88 0 -163 -36.5t-127 -99.5t-91.5 -141t-62 -166.5t-33.5 -170.5t-11 -159q0 -73 16 -136t49 -116t92 -83.5t138 -30.5q296 0 385 354l9 33h-343l48 240
h669l-162 -836h-262l43 221h-6q-53 -112 -169.5 -183t-280.5 -71q-273 0 -423.5 166.5t-150.5 456.5q0 149 32.5 292t102 271.5t168 225.5t239.5 154t308 56q261 -2 417 -127t155 -370z" />
    <glyph glyph-name="gcircumflex" unicode="&#x11d;" horiz-adv-x="1296" 
d="M969 1614l147 -357h-211l-98 160l-150 -160h-221l281 357h252zM848 489l22 113q14 60 9.5 114t-22 94.5t-58.5 64.5t-101 24q-73 0 -131.5 -42t-92 -110t-51 -145.5t-17.5 -157.5q2 -99 47 -153.5t137 -54.5q96 0 166.5 72t91.5 181zM14 -63h301q1 -65 50.5 -100.5
t126.5 -35.5q117 0 181.5 66.5t88.5 193.5l29 138h-5q-122 -172 -325 -172q-180 0 -280.5 105.5t-100.5 303.5q0 102 23.5 201t71 186t112.5 153.5t154.5 105t191.5 38.5q120 0 197.5 -51t109.5 -139h4l33 168h307l-199 -1020q-49 -250 -200 -368t-408 -118
q-237 0 -351 92.5t-112 252.5z" />
    <glyph glyph-name="Gbreve" unicode="&#x11e;" horiz-adv-x="1622" 
d="M750 1991h192q-4 -60 26.5 -95.5t86.5 -35.5q57 0 98.5 34.5t60.5 96.5h205q-32 -167 -136 -244.5t-253 -77.5q-139 0 -222 85t-58 237zM1559 1092h-342q4 124 -59.5 190t-184.5 66q-88 0 -163 -36.5t-127 -99.5t-91.5 -141t-62 -166.5t-33.5 -170.5t-11 -159
q0 -73 16 -136t49 -116t92 -83.5t138 -30.5q296 0 385 354l9 33h-343l48 240h669l-162 -836h-262l43 221h-6q-53 -112 -169.5 -183t-280.5 -71q-273 0 -423.5 166.5t-150.5 456.5q0 149 32.5 292t102 271.5t168 225.5t239.5 154t308 56q261 -2 417 -127t155 -370z" />
    <glyph glyph-name="gbreve" unicode="&#x11f;" horiz-adv-x="1296" 
d="M848 489l22 113q14 60 9.5 114t-22 94.5t-58.5 64.5t-101 24q-73 0 -131.5 -42t-92 -110t-51 -145.5t-17.5 -157.5q2 -99 47 -153.5t137 -54.5q96 0 166.5 72t91.5 181zM14 -63h301q1 -65 50.5 -100.5t126.5 -35.5q117 0 181.5 66.5t88.5 193.5l29 138h-5
q-122 -172 -325 -172q-180 0 -280.5 105.5t-100.5 303.5q0 102 23.5 201t71 186t112.5 153.5t154.5 105t191.5 38.5q120 0 197.5 -51t109.5 -139h4l33 168h307l-199 -1020q-49 -250 -200 -368t-408 -118q-237 0 -351 92.5t-112 252.5zM795 1253q-156 0 -237.5 94.5
t-47.5 266.5h201q-13 -72 14.5 -111t85.5 -39q59 0 101 39t57 111h211q-13 -94 -51 -166t-92 -113.5t-115 -61.5t-127 -20z" />
    <glyph glyph-name="Gdotaccent" unicode="&#x120;" horiz-adv-x="1622" 
d="M901 1706l55 281h277l-55 -281h-277zM1559 1092h-342q4 124 -59.5 190t-184.5 66q-88 0 -163 -36.5t-127 -99.5t-91.5 -141t-62 -166.5t-33.5 -170.5t-11 -159q0 -73 16 -136t49 -116t92 -83.5t138 -30.5q296 0 385 354l9 33h-343l48 240h669l-162 -836h-262l43 221h-6
q-53 -112 -169.5 -183t-280.5 -71q-273 0 -423.5 166.5t-150.5 456.5q0 149 32.5 292t102 271.5t168 225.5t239.5 154t308 56q261 -2 417 -127t155 -370z" />
    <glyph glyph-name="gdotaccent" unicode="&#x121;" horiz-adv-x="1296" 
d="M848 489l22 113q14 60 9.5 114t-22 94.5t-58.5 64.5t-101 24q-73 0 -131.5 -42t-92 -110t-51 -145.5t-17.5 -157.5q2 -99 47 -153.5t137 -54.5q96 0 166.5 72t91.5 181zM14 -63h301q1 -65 50.5 -100.5t126.5 -35.5q117 0 181.5 66.5t88.5 193.5l29 138h-5
q-122 -172 -325 -172q-180 0 -280.5 105.5t-100.5 303.5q0 102 23.5 201t71 186t112.5 153.5t154.5 105t191.5 38.5q120 0 197.5 -51t109.5 -139h4l33 168h307l-199 -1020q-49 -250 -200 -368t-408 -118q-237 0 -351 92.5t-112 252.5zM647 1303l55 280h277l-55 -280h-277z
" />
    <glyph glyph-name="Gcommaaccent" unicode="&#x122;" horiz-adv-x="1622" 
d="M426 -451l113 320h309l-209 -320h-213zM1559 1092h-342q4 124 -59.5 190t-184.5 66q-88 0 -163 -36.5t-127 -99.5t-91.5 -141t-62 -166.5t-33.5 -170.5t-11 -159q0 -73 16 -136t49 -116t92 -83.5t138 -30.5q296 0 385 354l9 33h-343l48 240h669l-162 -836h-262l43 221h-6
q-53 -112 -169.5 -183t-280.5 -71q-273 0 -423.5 166.5t-150.5 456.5q0 149 32.5 292t102 271.5t168 225.5t239.5 154t308 56q261 -2 417 -127t155 -370z" />
    <glyph glyph-name="gcommaaccent" unicode="&#x123;" horiz-adv-x="1296" 
d="M1030 1602l-119 -338h-315l225 338h209zM848 489l22 113q14 60 9.5 114t-22 94.5t-58.5 64.5t-101 24q-73 0 -131.5 -42t-92 -110t-51 -145.5t-17.5 -157.5q2 -99 47 -153.5t137 -54.5q96 0 166.5 72t91.5 181zM14 -63h301q1 -65 50.5 -100.5t126.5 -35.5
q117 0 181.5 66.5t88.5 193.5l29 138h-5q-122 -172 -325 -172q-180 0 -280.5 105.5t-100.5 303.5q0 102 23.5 201t71 186t112.5 153.5t154.5 105t191.5 38.5q120 0 197.5 -51t109.5 -139h4l33 168h307l-199 -1020q-49 -250 -200 -368t-408 -118q-237 0 -351 92.5t-112 252.5
z" />
    <glyph glyph-name="Hcircumflex" unicode="&#x124;" horiz-adv-x="1581" 
d="M512 653l-127 -653h-330l303 1567h330l-127 -656h613l126 656h332l-303 -1567h-332l127 653h-612zM1196 1966l162 -272h-219l-105 114h-2l-141 -114h-225l258 272h272z" />
    <glyph glyph-name="hcircumflex" unicode="&#x125;" horiz-adv-x="1286" 
d="M743 0l119 623q17 83 17 120q0 71 -32.5 107.5t-107.5 36.5q-106 0 -175 -81t-97 -231l-111 -575h-319l313 1614h320l-138 -699h5q57 97 150 151t212 54q178 0 256 -116t35 -336l-129 -668h-318zM1065 1966l162 -272h-219l-105 114h-2l-141 -114h-225l258 272h272z" />
    <glyph glyph-name="Hbar" unicode="&#x126;" horiz-adv-x="1581" 
d="M561 911h613l47 244h-613zM512 653l-127 -653h-330l224 1155h-160l39 193h157l43 219h330l-43 -219h612l43 219h332l-43 -219h158l-39 -193h-156l-223 -1155h-332l127 653h-612z" />
    <glyph glyph-name="hbar" unicode="&#x127;" horiz-adv-x="1286" 
d="M467 575l-111 -575h-319l242 1243h-158l37 191h157l35 180h320l-35 -180h299l-35 -191h-303l-64 -328h5q57 97 150 151t212 54q178 0 256 -116t35 -336l-129 -668h-318l119 623q17 83 17 120q0 71 -32.5 107.5t-107.5 36.5q-106 0 -175 -81t-97 -231z" />
    <glyph glyph-name="Itilde" unicode="&#x128;" horiz-adv-x="638" 
d="M55 0l303 1567h332l-303 -1567h-332zM164 1679q7 59 30 114t59.5 101t91.5 73.5t120 27.5q43 0 81.5 -16t62.5 -35.5t56 -35.5t62 -16q40 0 65.5 22.5t41.5 82.5h157q-14 -137 -89 -226.5t-191 -89.5q-50 0 -94.5 16t-71 35.5t-57.5 35.5t-58 16q-67 0 -111 -105h-155z
" />
    <glyph glyph-name="itilde" unicode="&#x129;" horiz-adv-x="591" 
d="M104 1257q19 143 89 239.5t184 96.5q37 0 71.5 -16.5t56 -35.5t48.5 -35.5t51 -16.5q64 0 107 106h137q-11 -70 -31.5 -128.5t-52.5 -106.5t-79 -75.5t-105 -27.5q-47 0 -92.5 26.5t-82.5 52.5t-65 26q-61 0 -100 -105h-136zM37 0l213 1098h319l-213 -1098h-319z" />
    <glyph glyph-name="Imacron" unicode="&#x12a;" horiz-adv-x="638" 
d="M55 0l303 1567h332l-303 -1567h-332zM211 1716l41 213h688l-43 -213h-686z" />
    <glyph glyph-name="imacron" unicode="&#x12b;" horiz-adv-x="591" 
d="M168 1303l41 213h559l-39 -213h-561zM37 0l213 1098h319l-213 -1098h-319z" />
    <glyph glyph-name="Ibreve" unicode="&#x12c;" horiz-adv-x="638" 
d="M55 0l303 1567h332l-303 -1567h-332zM272 1991h193q-4 -60 26.5 -95.5t86.5 -35.5q57 0 98.5 34.5t60.5 96.5h205q-32 -167 -136 -244.5t-253 -77.5q-139 0 -222.5 85t-58.5 237z" />
    <glyph glyph-name="ibreve" unicode="&#x12d;" horiz-adv-x="591" 
d="M449 1253q-140 0 -209 94.5t-31 266.5h180q-17 -72 6 -111t76 -39q55 0 95 38.5t57 111.5h188q-16 -95 -52 -166.5t-85.5 -113t-106 -61.5t-118.5 -20zM37 0l213 1098h319l-213 -1098h-319z" />
    <glyph glyph-name="Iogonek" unicode="&#x12e;" horiz-adv-x="638" 
d="M55 0l303 1567h332l-303 -1559q-135 -82 -135 -155q0 -26 24 -41t68 -15l-35 -182h-59q-137 0 -197.5 37.5t-60.5 118.5q0 69 50 130t142 99h-129z" />
    <glyph glyph-name="iogonek" unicode="&#x12f;" horiz-adv-x="591" 
d="M285 1288l57 295h322l-58 -295h-321zM37 0l213 1098h319l-213 -1092q-135 -79 -135 -153q0 -26 24 -41t68 -15l-34 -182h-60q-137 0 -197.5 37.5t-60.5 118.5q0 69 50 129.5t143 99.5h-117z" />
    <glyph glyph-name="Idotaccent" unicode="&#x130;" horiz-adv-x="638" 
d="M55 0l303 1567h332l-303 -1567h-332zM412 1706l55 281h276l-55 -281h-276z" />
    <glyph glyph-name="dotlessi" unicode="&#x131;" horiz-adv-x="591" 
d="M37 0l213 1098h319l-213 -1098h-319z" />
    <glyph glyph-name="IJ" unicode="&#x132;" horiz-adv-x="1452" 
d="M55 0l303 1567h332l-303 -1567h-332zM694 -6h-104l51 266h45q82 0 134.5 14.5t84 49.5t47 76.5t29.5 111.5l207 1055h328l-213 -1092q-35 -180 -105.5 -284t-190.5 -150.5t-313 -46.5z" />
    <glyph glyph-name="ij" unicode="&#x133;" horiz-adv-x="1191" 
d="M285 1288l57 295h322l-58 -295h-321zM37 0l213 1098h319l-213 -1098h-319zM885 1288l57 295h322l-58 -295h-321zM510 -422q-104 0 -166 25l43 221q40 -10 84 -10q65 0 103 33t51 106l223 1145h319l-227 -1166q-19 -100 -60 -170.5t-99 -109.5t-124 -56.5t-147 -17.5z" />
    <glyph glyph-name="Jcircumflex" unicode="&#x134;" horiz-adv-x="892" 
d="M999 1966l162 -272h-219l-104 114h-2l-142 -114h-225l258 272h272zM131 -6h-170l53 266h111q81 0 133 14.5t83.5 49.5t47 76.5t29.5 111.5l209 1055h325l-213 -1092q-36 -181 -105.5 -284.5t-189.5 -150t-313 -46.5z" />
    <glyph glyph-name="jcircumflex" unicode="&#x135;" horiz-adv-x="600" 
d="M641 1614l123 -357h-207l-78 160l-129 -160h-221l260 357h252zM-248 -397l43 221q40 -10 84 -10q65 0 103 33t51 106l223 1145h319l-227 -1166q-19 -100 -60 -170.5t-99 -109.5t-124 -56.5t-147 -17.5q-104 0 -166 25z" />
    <glyph glyph-name="Kcommaaccent" unicode="&#x136;" horiz-adv-x="1476" 
d="M389 -451l113 320h309l-209 -320h-213zM475 467l-90 -467h-330l303 1567h330l-135 -701l680 701h379l-686 -680l409 -887h-354l-305 666z" />
    <glyph glyph-name="kcommaaccent" unicode="&#x137;" horiz-adv-x="1204" 
d="M256 -451l113 320h309l-209 -320h-213zM408 291l-58 -291h-313l313 1614h314l-189 -967l440 451h351l-465 -459l276 -639h-327l-195 444z" />
    <glyph glyph-name="kgreenlandic" unicode="&#x138;" horiz-adv-x="1220" 
d="M408 291l-58 -291h-313l211 1098h315l-88 -451l440 451h351l-465 -459l276 -639h-327l-195 444z" />
    <glyph glyph-name="Lacute" unicode="&#x139;" horiz-adv-x="1222" 
d="M436 1694l168 272h316l-246 -272h-238zM55 0l303 1567h330l-252 -1305h662l-51 -262h-992z" />
    <glyph glyph-name="lacute" unicode="&#x13a;" horiz-adv-x="591" 
d="M389 1694l168 272h315l-245 -272h-238zM37 0l313 1614h320l-314 -1614h-319z" />
    <glyph glyph-name="Lcommaaccent" unicode="&#x13b;" horiz-adv-x="1222" 
d="M268 -451l113 320h309l-209 -320h-213zM55 0l303 1567h330l-252 -1305h662l-51 -262h-992z" />
    <glyph glyph-name="lcommaaccent" unicode="&#x13c;" horiz-adv-x="591" 
d="M-86 -451l113 320h309l-209 -320h-213zM37 0l313 1614h320l-314 -1614h-319z" />
    <glyph glyph-name="Lcaron" unicode="&#x13d;" horiz-adv-x="1222" 
d="M780 1182l129 432h260l-229 -432h-160zM55 0l303 1567h330l-252 -1305h662l-51 -262h-992z" />
    <glyph glyph-name="lcaron" unicode="&#x13e;" horiz-adv-x="591" 
d="M721 1231l86 383h252l-187 -383h-151zM37 0l313 1614h320l-314 -1614h-319z" />
    <glyph glyph-name="Ldot" unicode="&#x13f;" horiz-adv-x="1222" 
d="M55 0l303 1567h330l-252 -1305h662l-51 -262h-992zM803 707l61 317h334l-63 -317h-332z" />
    <glyph glyph-name="ldot" unicode="&#x140;" horiz-adv-x="948" 
d="M37 0l313 1614h320l-314 -1614h-319zM639 666l59 307h322l-62 -307h-319z" />
    <glyph glyph-name="Lslash" unicode="&#x141;" horiz-adv-x="1224" 
d="M55 0l107 547l-170 -53l47 247l170 54l149 772h332l-127 -660l473 152l-49 -248l-473 -152l-76 -397h660l-49 -262h-994z" />
    <glyph glyph-name="lslash" unicode="&#x142;" horiz-adv-x="595" 
d="M356 0h-319l117 602l-170 -90l49 248l170 90l147 764h320l-113 -576l170 90l-49 -247l-168 -90z" />
    <glyph glyph-name="Nacute" unicode="&#x143;" horiz-adv-x="1566" 
d="M874 1694l168 272h316l-246 -272h-238zM55 0l303 1567h351l323 -871q23 -60 39.5 -118t21.5 -86l5 -27h6l213 1102h297l-303 -1567h-324l-340 883q-24 62 -42 121.5t-24 88.5l-6 29h-6l-217 -1122h-297z" />
    <glyph glyph-name="nacute" unicode="&#x144;" horiz-adv-x="1294" 
d="M653 1257l168 357h320l-246 -357h-242zM743 0l119 623q17 77 17 120q0 71 -32.5 107.5t-107.5 36.5q-105 0 -175.5 -82.5t-98.5 -231.5l-109 -573h-319l213 1098h307l-39 -193h4q61 101 158.5 158t218.5 57q178 0 255.5 -115t35.5 -335l-129 -670h-318z" />
    <glyph glyph-name="Ncommaaccent" unicode="&#x145;" horiz-adv-x="1566" 
d="M399 -451l113 320h309l-209 -320h-213zM55 0l303 1567h351l323 -871q23 -60 39.5 -118t21.5 -86l5 -27h6l213 1102h297l-303 -1567h-324l-340 883q-24 62 -42 121.5t-24 88.5l-6 29h-6l-217 -1122h-297z" />
    <glyph glyph-name="ncommaaccent" unicode="&#x146;" horiz-adv-x="1294" 
d="M262 -451l113 320h309l-209 -320h-213zM743 0l119 623q17 77 17 120q0 71 -32.5 107.5t-107.5 36.5q-105 0 -175.5 -82.5t-98.5 -231.5l-109 -573h-319l213 1098h307l-39 -193h4q61 101 158.5 158t218.5 57q178 0 255.5 -115t35.5 -335l-129 -670h-318z" />
    <glyph glyph-name="Ncaron" unicode="&#x147;" horiz-adv-x="1566" 
d="M872 1694l-165 272h221l106 -115h2l144 115h231l-266 -272h-273zM55 0l303 1567h351l323 -871q23 -60 39.5 -118t21.5 -86l5 -27h6l213 1102h297l-303 -1567h-324l-340 883q-24 62 -42 121.5t-24 88.5l-6 29h-6l-217 -1122h-297z" />
    <glyph glyph-name="ncaron" unicode="&#x148;" horiz-adv-x="1294" 
d="M653 1257l-147 357h211l94 -158l156 158h219l-281 -357h-252zM743 0l119 623q17 77 17 120q0 71 -32.5 107.5t-107.5 36.5q-105 0 -175.5 -82.5t-98.5 -231.5l-109 -573h-319l213 1098h307l-39 -193h4q61 101 158.5 158t218.5 57q178 0 255.5 -115t35.5 -335l-129 -670
h-318z" />
    <glyph glyph-name="napostrophe" unicode="&#x149;" horiz-adv-x="1294" 
d="M170 1268l113 319h309l-209 -319h-213zM743 0l119 623q17 77 17 120q0 71 -32.5 107.5t-107.5 36.5q-105 0 -175.5 -82.5t-98.5 -231.5l-109 -573h-319l213 1098h307l-39 -193h4q61 101 158.5 158t218.5 57q178 0 255.5 -115t35.5 -335l-129 -670h-318z" />
    <glyph glyph-name="Eng" unicode="&#x14a;" horiz-adv-x="1566" 
d="M725 -371h-133l49 246h74q117 0 179.5 26.5t96.5 90.5l-344 891q-24 62 -42 121.5t-24 88.5l-6 29h-6l-217 -1122h-297l303 1567h351l323 -871q23 -60 39.5 -118t21.5 -86l5 -27h6l213 1102h297l-244 -1266l-4 -18l-2 -13l-33 -159q-54 -268 -187.5 -375t-418.5 -107z
" />
    <glyph glyph-name="eng" unicode="&#x14b;" horiz-adv-x="1294" 
d="M618 -422q-98 0 -165 27l43 221q24 -12 84 -12q64 0 102 33.5t51 105.5l55 285l74 385q17 77 17 120q0 71 -32.5 107.5t-107.5 36.5q-105 0 -175.5 -82.5t-98.5 -231.5l-109 -573h-319l213 1098h307l-39 -193h4q61 101 158.5 158t218.5 57q178 0 255.5 -115t35.5 -335
l-84 -432h2l-59 -306q-69 -354 -431 -354z" />
    <glyph glyph-name="Omacron" unicode="&#x14c;" horiz-adv-x="1646" 
d="M702 1716l41 213h689l-43 -213h-687zM137 602q0 201 59 380.5t164.5 314.5t263.5 213.5t345 78.5q135 0 250 -41t201.5 -119.5t135.5 -203t48 -281.5q0 -152 -33.5 -295t-102.5 -267t-166 -216.5t-232 -145.5t-292 -53q-108 0 -202.5 23t-175.5 72.5t-138.5 123
t-90.5 179.5t-34 237zM1255 985q0 75 -16 137.5t-49.5 114.5t-92.5 81.5t-139 29.5q-84 0 -156 -36t-122.5 -98t-89 -140t-61 -167.5t-33.5 -174t-11 -165.5q0 -71 16 -131.5t50 -112t95.5 -81t144.5 -29.5q95 0 174.5 51t132 131.5t89 184t52.5 206t16 199.5z" />
    <glyph glyph-name="omacron" unicode="&#x14d;" horiz-adv-x="1241" 
d="M412 1303l41 213h686l-39 -213h-688zM565 -29q-224 0 -357.5 119.5t-133.5 343.5q0 107 25 207.5t76.5 188t123.5 153.5t172.5 103.5t216.5 37.5q224 0 360 -123t136 -337q0 -194 -73.5 -350.5t-215.5 -249.5t-330 -93zM858 686q0 42 -8.5 79t-27 70t-54.5 52.5t-86 19.5
q-61 0 -110.5 -33t-81 -84.5t-53.5 -117.5t-31 -130t-9 -124q0 -47 9 -86t29 -72t56.5 -51.5t86.5 -18.5q64 0 115 35.5t81 88.5t50 122.5t27 130.5t7 119z" />
    <glyph glyph-name="Obreve" unicode="&#x14e;" horiz-adv-x="1646" 
d="M764 1991h192q-4 -60 26.5 -95.5t86.5 -35.5q57 0 99 34.5t61 96.5h205q-32 -167 -136.5 -244.5t-253.5 -77.5q-139 0 -222 85t-58 237zM137 602q0 201 59 380.5t164.5 314.5t263.5 213.5t345 78.5q135 0 250 -41t201.5 -119.5t135.5 -203t48 -281.5q0 -152 -33.5 -295
t-102.5 -267t-166 -216.5t-232 -145.5t-292 -53q-108 0 -202.5 23t-175.5 72.5t-138.5 123t-90.5 179.5t-34 237zM1255 985q0 75 -16 137.5t-49.5 114.5t-92.5 81.5t-139 29.5q-84 0 -156 -36t-122.5 -98t-89 -140t-61 -167.5t-33.5 -174t-11 -165.5q0 -71 16 -131.5
t50 -112t95.5 -81t144.5 -29.5q95 0 174.5 51t132 131.5t89 184t52.5 206t16 199.5z" />
    <glyph glyph-name="obreve" unicode="&#x14f;" horiz-adv-x="1241" 
d="M565 -29q-224 0 -357.5 119.5t-133.5 343.5q0 107 25 207.5t76.5 188t123.5 153.5t172.5 103.5t216.5 37.5q224 0 360 -123t136 -337q0 -194 -73.5 -350.5t-215.5 -249.5t-330 -93zM858 686q0 42 -8.5 79t-27 70t-54.5 52.5t-86 19.5q-61 0 -110.5 -33t-81 -84.5
t-53.5 -117.5t-31 -130t-9 -124q0 -47 9 -86t29 -72t56.5 -51.5t86.5 -18.5q64 0 115 35.5t81 88.5t50 122.5t27 130.5t7 119zM766 1253q-156 0 -237.5 94.5t-47.5 266.5h201q-13 -72 14.5 -111t85.5 -39q59 0 101 39t57 111h211q-13 -94 -51 -166t-92 -113.5t-115 -61.5
t-127 -20z" />
    <glyph glyph-name="Ohungarumlaut" unicode="&#x150;" horiz-adv-x="1646" 
d="M1104 1702l123 272h252l-191 -272h-184zM772 1702l96 272h252l-166 -272h-182zM137 602q0 201 59 380.5t164.5 314.5t263.5 213.5t345 78.5q135 0 250 -41t201.5 -119.5t135.5 -203t48 -281.5q0 -152 -33.5 -295t-102.5 -267t-166 -216.5t-232 -145.5t-292 -53
q-108 0 -202.5 23t-175.5 72.5t-138.5 123t-90.5 179.5t-34 237zM1255 985q0 75 -16 137.5t-49.5 114.5t-92.5 81.5t-139 29.5q-84 0 -156 -36t-122.5 -98t-89 -140t-61 -167.5t-33.5 -174t-11 -165.5q0 -71 16 -131.5t50 -112t95.5 -81t144.5 -29.5q95 0 174.5 51
t132 131.5t89 184t52.5 206t16 199.5z" />
    <glyph glyph-name="ohungarumlaut" unicode="&#x151;" horiz-adv-x="1241" 
d="M797 1257l174 357h256l-244 -357h-186zM469 1257l147 357h256l-217 -357h-186zM565 -29q-224 0 -357.5 119.5t-133.5 343.5q0 107 25 207.5t76.5 188t123.5 153.5t172.5 103.5t216.5 37.5q224 0 360 -123t136 -337q0 -194 -73.5 -350.5t-215.5 -249.5t-330 -93zM858 686
q0 42 -8.5 79t-27 70t-54.5 52.5t-86 19.5q-61 0 -110.5 -33t-81 -84.5t-53.5 -117.5t-31 -130t-9 -124q0 -47 9 -86t29 -72t56.5 -51.5t86.5 -18.5q64 0 115 35.5t81 88.5t50 122.5t27 130.5t7 119z" />
    <glyph glyph-name="OE" unicode="&#x152;" horiz-adv-x="2332" 
d="M793 213q151 0 265 119t152 317l45 228q14 68 14.5 132t-16 126.5t-50 109t-95.5 75t-145 28.5q-100 0 -183 -52t-135.5 -133.5t-89 -187t-51.5 -208t-15 -200.5q0 -71 15.5 -131.5t49 -112t95 -81t144.5 -29.5zM1110 160q-152 -193 -408 -193q-87 0 -166.5 21t-153 69
t-127.5 119.5t-86 180.5t-32 243q1 278 101.5 502.5t285.5 354.5t422 130q144 0 248 -55.5t154 -155.5h4l37 191h1001l-49 -256h-672l-78 -404h637l-47 -250h-639l-78 -403h697l-50 -254h-1026l31 160h-6z" />
    <glyph glyph-name="oe" unicode="&#x153;" horiz-adv-x="1968" 
d="M1591 657l2 15q36 250 -155 250q-90 0 -155 -72.5t-97 -192.5h405zM858 686q0 221 -176 221q-61 0 -110.5 -33t-81 -84.5t-53.5 -117.5t-31 -130t-9 -124q0 -47 9 -86t29 -72t56.5 -51.5t86.5 -18.5q64 0 115 35.5t81 88.5t50 122.5t27 130.5t7 119zM1845 319
q-35 -167 -173.5 -257.5t-344.5 -90.5q-278 0 -379 179q-148 -179 -399 -179q-217 0 -346 119.5t-129 343.5q0 107 25 207.5t76.5 188t123.5 153.5t172.5 103.5t216.5 37.5q271 0 365 -186q154 186 401 186q89 0 162.5 -21.5t125 -59.5t89 -91.5t54 -117t20 -136
t-12.5 -149.5l-14 -76h-721q-2 -16 -2 -51q0 -108 45.5 -171t140.5 -63q78 0 127 37t62 94h315z" />
    <glyph glyph-name="Racute" unicode="&#x154;" horiz-adv-x="1431" 
d="M770 1694l168 272h315l-245 -272h-238zM545 836h243q140 0 218.5 74t78.5 218q0 105 -58.5 155t-188.5 50h-197zM500 596l-115 -596h-330l301 1567h516q182 0 314 -60q231 -103 231 -372q0 -177 -88.5 -303t-271.5 -183v-4l256 -645h-344l-228 596h-241z" />
    <glyph glyph-name="racute" unicode="&#x155;" horiz-adv-x="858" 
d="M479 1257l168 357h320l-246 -357h-242zM37 0l213 1098h301l-47 -238h4q69 127 172 191.5t227 64.5h15l-58 -305h-20q-85 0 -146.5 -15t-113 -51t-85.5 -99.5t-53 -158.5l-94 -487h-315z" />
    <glyph glyph-name="Rcommaaccent" unicode="&#x156;" horiz-adv-x="1431" 
d="M381 -451l113 320h309l-209 -320h-213zM545 836h243q140 0 218.5 74t78.5 218q0 105 -58.5 155t-188.5 50h-197zM500 596l-115 -596h-330l301 1567h516q182 0 314 -60q231 -103 231 -372q0 -177 -88.5 -303t-271.5 -183v-4l256 -645h-344l-228 596h-241z" />
    <glyph glyph-name="rcommaaccent" unicode="&#x157;" horiz-adv-x="858" 
d="M-96 -451l112 320h310l-209 -320h-213zM37 0l213 1098h301l-47 -238h4q69 127 172 191.5t227 64.5h15l-58 -305h-20q-85 0 -146.5 -15t-113 -51t-85.5 -99.5t-53 -158.5l-94 -487h-315z" />
    <glyph glyph-name="Rcaron" unicode="&#x158;" horiz-adv-x="1431" 
d="M739 1694l-166 272h222l106 -115h2l144 115h231l-266 -272h-273zM545 836h243q140 0 218.5 74t78.5 218q0 105 -58.5 155t-188.5 50h-197zM500 596l-115 -596h-330l301 1567h516q182 0 314 -60q231 -103 231 -372q0 -177 -88.5 -303t-271.5 -183v-4l256 -645h-344
l-228 596h-241z" />
    <glyph glyph-name="rcaron" unicode="&#x159;" horiz-adv-x="858" 
d="M487 1257l-147 357h211l94 -158l156 158h219l-281 -357h-252zM37 0l213 1098h301l-47 -238h4q69 127 172 191.5t227 64.5h15l-58 -305h-20q-85 0 -146.5 -15t-113 -51t-85.5 -99.5t-53 -158.5l-94 -487h-315z" />
    <glyph glyph-name="Sacute" unicode="&#x15a;" horiz-adv-x="1378" 
d="M57 455h344q-3 -119 61.5 -179.5t201.5 -60.5q121 0 202.5 60.5t81.5 164.5q0 73 -43.5 115t-144.5 70l-193 55q-187 54 -271.5 156.5t-84.5 259.5q0 153 82.5 266.5t217.5 170t302 56.5q120 0 220 -29t173 -84.5t111 -143t31 -197.5h-334q6 99 -51 155t-164 56
q-109 0 -179.5 -55t-70.5 -152q0 -66 46.5 -103.5t139.5 -64.5l195 -56q190 -54 273 -152.5t83 -252.5q0 -244 -176.5 -393.5t-458.5 -149.5q-186 0 -322 54.5t-209 166t-63 267.5zM733 1694l168 272h316l-246 -272h-238z" />
    <glyph glyph-name="sacute" unicode="&#x15b;" horiz-adv-x="1075" 
d="M504 1257l168 357h319l-246 -357h-241zM1014 786h-279q3 65 -41.5 98.5t-115.5 33.5q-69 0 -112.5 -32t-43.5 -87q0 -46 31.5 -70.5t101.5 -40.5l135 -31q152 -35 215.5 -106t63.5 -195q0 -184 -135 -285.5t-351 -101.5q-208 0 -334.5 92t-119.5 265h290q-4 -74 43 -112
t132 -38q78 0 129 32t51 97q0 84 -123 111l-129 28q-289 64 -289 312q0 118 64.5 203.5t166.5 125t228 39.5q194 0 313 -89t109 -249z" />
    <glyph glyph-name="Scircumflex" unicode="&#x15c;" horiz-adv-x="1378" 
d="M1044 1966l162 -272h-219l-104 114h-2l-142 -114h-225l258 272h272zM57 455h344q-3 -119 61.5 -179.5t201.5 -60.5q121 0 202.5 60.5t81.5 164.5q0 73 -43.5 115t-144.5 70l-193 55q-187 54 -271.5 156.5t-84.5 259.5q0 153 82.5 266.5t217.5 170t302 56.5q120 0 220 -29
t173 -84.5t111 -143t31 -197.5h-334q6 99 -51 155t-164 56q-109 0 -179.5 -55t-70.5 -152q0 -66 46.5 -103.5t139.5 -64.5l195 -56q190 -54 273 -152.5t83 -252.5q0 -244 -176.5 -393.5t-458.5 -149.5q-186 0 -322 54.5t-209 166t-63 267.5z" />
    <glyph glyph-name="scircumflex" unicode="&#x15d;" horiz-adv-x="1075" 
d="M831 1614l148 -357h-211l-98 160l-150 -160h-221l281 357h251zM1014 786h-279q3 65 -41.5 98.5t-115.5 33.5q-69 0 -112.5 -32t-43.5 -87q0 -46 31.5 -70.5t101.5 -40.5l135 -31q152 -35 215.5 -106t63.5 -195q0 -184 -135 -285.5t-351 -101.5q-208 0 -334.5 92
t-119.5 265h290q-4 -74 43 -112t132 -38q78 0 129 32t51 97q0 84 -123 111l-129 28q-289 64 -289 312q0 118 64.5 203.5t166.5 125t228 39.5q194 0 313 -89t109 -249z" />
    <glyph glyph-name="Scedilla" unicode="&#x15e;" horiz-adv-x="1378" 
d="M539 -461q-55 0 -101 15.5t-77 53t-27 91.5h158q6 -41 59 -41q36 0 56 20t20 50q0 27 -15.5 43t-42.5 16q-37 0 -61 -27h-127l111 220q-213 33 -330 155t-105 320h344q-3 -119 61.5 -179.5t201.5 -60.5q121 0 202.5 60.5t81.5 164.5q0 73 -43.5 115t-144.5 70l-193 55
q-187 54 -271.5 156.5t-84.5 259.5q0 153 82.5 266.5t217.5 170t302 56.5q120 0 220 -29t173 -84.5t111 -143t31 -197.5h-334q6 99 -51 155t-164 56q-109 0 -179.5 -55t-70.5 -152q0 -66 46.5 -103.5t139.5 -64.5l195 -56q190 -54 273 -152.5t83 -252.5
q0 -244 -176.5 -393.5t-458.5 -149.5q-35 0 -51 2l-51 -104h4q42 31 102 31q63 0 103.5 -39.5t40.5 -102.5q0 -98 -67.5 -156.5t-192.5 -58.5z" />
    <glyph glyph-name="scedilla" unicode="&#x15f;" horiz-adv-x="1075" 
d="M371 -461q-55 0 -101 15.5t-77 53t-27 91.5h158q6 -41 59 -41q36 0 56 20t20 50q0 27 -15.5 43t-42.5 16q-37 0 -61 -27h-127l115 224q-143 31 -224 118t-75 224h290q-4 -74 43 -112t132 -38q78 0 129 32t51 97q0 84 -123 111l-129 28q-289 64 -289 312q0 118 64.5 203.5
t166.5 125t228 39.5q194 0 313 -89t109 -249h-279q3 65 -41.5 98.5t-115.5 33.5q-69 0 -112.5 -32t-43.5 -87q0 -46 31.5 -70.5t101.5 -40.5l135 -31q152 -35 215.5 -106t63.5 -195q0 -184 -135 -285.5t-351 -101.5q-33 0 -49 2l-53 -106h4q42 31 102 31q63 0 103.5 -39.5
t40.5 -102.5q0 -98 -67.5 -156.5t-192.5 -58.5z" />
    <glyph glyph-name="Scaron" unicode="&#x160;" horiz-adv-x="1378" 
d="M723 1694l-166 272h221l107 -115h2l143 115h232l-267 -272h-272zM57 455h344q-3 -119 61.5 -179.5t201.5 -60.5q121 0 202.5 60.5t81.5 164.5q0 73 -43.5 115t-144.5 70l-193 55q-187 54 -271.5 156.5t-84.5 259.5q0 153 82.5 266.5t217.5 170t302 56.5q120 0 220 -29
t173 -84.5t111 -143t31 -197.5h-334q6 99 -51 155t-164 56q-109 0 -179.5 -55t-70.5 -152q0 -66 46.5 -103.5t139.5 -64.5l195 -56q190 -54 273 -152.5t83 -252.5q0 -244 -176.5 -393.5t-458.5 -149.5q-186 0 -322 54.5t-209 166t-63 267.5z" />
    <glyph glyph-name="scaron" unicode="&#x161;" horiz-adv-x="1075" 
d="M502 1257l-148 357h211l94 -158l156 158h219l-280 -357h-252zM1014 786h-279q3 65 -41.5 98.5t-115.5 33.5q-69 0 -112.5 -32t-43.5 -87q0 -46 31.5 -70.5t101.5 -40.5l135 -31q152 -35 215.5 -106t63.5 -195q0 -184 -135 -285.5t-351 -101.5q-208 0 -334.5 92
t-119.5 265h290q-4 -74 43 -112t132 -38q78 0 129 32t51 97q0 84 -123 111l-129 28q-289 64 -289 312q0 118 64.5 203.5t166.5 125t228 39.5q194 0 313 -89t109 -249z" />
    <glyph glyph-name="Tcommaaccent" unicode="&#x162;" horiz-adv-x="1318" 
d="M279 -451l112 320h309l-208 -320h-213zM977 1303l-252 -1303h-332l252 1303h-448l51 264h1227l-52 -264h-446z" />
    <glyph glyph-name="tcommaaccent" unicode="&#x163;" horiz-adv-x="804" 
d="M94 -451l113 320h309l-209 -320h-213zM420 1407h264l-59 -309h237l-45 -226h-235l-95 -485q-19 -95 4.5 -129.5t108.5 -34.5q21 0 43.5 2.5t34.5 4.5l12 3l-45 -233q-72 -14 -160 -14q-386 0 -313 381l98 505h-157l45 224h32q51 0 82.5 8t57.5 33.5t42 69.5t31 118z" />
    <glyph glyph-name="Tcaron" unicode="&#x164;" horiz-adv-x="1318" 
d="M752 1694l-166 272h221l106 -115h2l144 115h231l-266 -272h-272zM977 1303l-252 -1303h-332l252 1303h-448l51 264h1227l-52 -264h-446z" />
    <glyph glyph-name="tcaron" unicode="&#x165;" horiz-adv-x="804" 
d="M791 1231l86 383h251l-186 -383h-151zM420 1407h264l-59 -309h237l-45 -226h-235l-95 -485q-19 -95 4.5 -129.5t108.5 -34.5q21 0 43.5 2.5t34.5 4.5l12 3l-45 -233q-72 -14 -160 -14q-386 0 -313 381l98 505h-157l45 224h32q51 0 82.5 8t57.5 33.5t42 69.5t31 118z" />
    <glyph glyph-name="Tbar" unicode="&#x166;" horiz-adv-x="1318" 
d="M872 762l-147 -762h-332l148 762h-355l39 205h355l65 336h-448l51 264h1227l-52 -264h-446l-66 -336h353l-39 -205h-353z" />
    <glyph glyph-name="tbar" unicode="&#x167;" horiz-adv-x="804" 
d="M645 0q-72 -14 -160 -14q-386 0 -313 381l21 104h-160l39 201h159l39 200h-157l45 224h32q51 0 82.5 8t57.5 33.5t42 69.5t31 118l17 82h264l-59 -309h237l-45 -226h-235l-39 -200h237l-39 -201h-237l-17 -84q-19 -95 4.5 -129.5t108.5 -34.5q21 0 43.5 2.5t34.5 4.5
l12 3z" />
    <glyph glyph-name="Utilde" unicode="&#x168;" horiz-adv-x="1523" 
d="M156 604l186 963h330l-185 -944q-42 -208 19 -297q63 -93 231 -93q155 0 240 91q40 45 59 102t37 158l191 983h325l-200 -1039q-110 -561 -666 -561q-328 0 -478 165t-89 472zM600 1679q7 59 30 114t59.5 101t91.5 73.5t120 27.5q43 0 81.5 -16t62.5 -35.5t56 -35.5
t62 -16q40 0 65.5 22.5t41.5 82.5h157q-14 -137 -89 -226.5t-191 -89.5q-50 0 -94.5 16t-71 35.5t-57.5 35.5t-58 16q-66 0 -110 -105h-156z" />
    <glyph glyph-name="utilde" unicode="&#x169;" horiz-adv-x="1275" 
d="M557 1098l-123 -627q-12 -62 -12 -111q-1 -77 33 -112t104 -35q98 0 165.5 80t96.5 231l113 574h317l-213 -1098h-305l37 188h-4q-61 -97 -152 -152.5t-204 -55.5q-188 0 -267 113.5t-37 330.5l132 674h319zM397 1257q11 140 89.5 238t207.5 98q41 0 79.5 -16.5t63 -35.5
t55 -35.5t56.5 -16.5q72 0 113 106h156q-9 -93 -43 -167t-99.5 -122.5t-152.5 -48.5q-52 0 -100.5 26.5t-89.5 52.5t-73 26q-72 0 -108 -105h-154z" />
    <glyph glyph-name="Umacron" unicode="&#x16a;" horiz-adv-x="1523" 
d="M156 604l186 963h330l-185 -944q-42 -208 19 -297q63 -93 231 -93q155 0 240 91q40 45 59 102t37 158l191 983h325l-200 -1039q-110 -561 -666 -561q-328 0 -478 165t-89 472zM645 1716l41 213h688l-43 -213h-686z" />
    <glyph glyph-name="umacron" unicode="&#x16b;" horiz-adv-x="1275" 
d="M557 1098l-123 -627q-12 -62 -12 -111q-1 -77 33 -112t104 -35q98 0 165.5 80t96.5 231l113 574h317l-213 -1098h-305l37 188h-4q-61 -97 -152 -152.5t-204 -55.5q-188 0 -267 113.5t-37 330.5l132 674h319zM440 1303l41 213h686l-39 -213h-688z" />
    <glyph glyph-name="Ubreve" unicode="&#x16c;" horiz-adv-x="1523" 
d="M156 604l186 963h330l-185 -944q-42 -208 19 -297q63 -93 231 -93q155 0 240 91q40 45 59 102t37 158l191 983h325l-200 -1039q-110 -561 -666 -561q-328 0 -478 165t-89 472zM707 1991h192q-4 -60 26.5 -95.5t86.5 -35.5q57 0 98.5 34.5t60.5 96.5h205
q-32 -167 -136 -244.5t-253 -77.5q-139 0 -222 85t-58 237z" />
    <glyph glyph-name="ubreve" unicode="&#x16d;" horiz-adv-x="1275" 
d="M557 1098l-123 -627q-12 -62 -12 -111q-1 -77 33 -112t104 -35q98 0 165.5 80t96.5 231l113 574h317l-213 -1098h-305l37 188h-4q-61 -97 -152 -152.5t-204 -55.5q-188 0 -267 113.5t-37 330.5l132 674h319zM793 1253q-156 0 -237.5 94.5t-47.5 266.5h201
q-13 -72 14.5 -111t85.5 -39q59 0 101 39t57 111h211q-13 -94 -51 -166t-92 -113.5t-115 -61.5t-127 -20z" />
    <glyph glyph-name="Uring" unicode="&#x16e;" horiz-adv-x="1523" 
d="M156 604l186 963h330l-185 -944q-42 -208 19 -297q63 -93 231 -93q155 0 240 91q40 45 59 102t37 158l191 983h325l-200 -1039q-110 -561 -666 -561q-328 0 -478 165t-89 472zM1010 1630q-113 2 -185.5 61t-72.5 167q0 122 78 199t200 77q124 0 192 -62t68 -165
q0 -125 -78.5 -201t-201.5 -76zM1032 2005q-56 0 -88.5 -38.5t-32.5 -102.5q0 -49 26.5 -78t74.5 -29q51 0 83.5 39t32.5 102q0 48 -24 77.5t-72 29.5z" />
    <glyph glyph-name="uring" unicode="&#x16f;" horiz-adv-x="1275" 
d="M807 1233q-113 2 -185.5 60.5t-72.5 164.5q0 122 78.5 200.5t199.5 78.5q124 0 193.5 -63.5t69.5 -164.5q0 -125 -79.5 -200.5t-203.5 -75.5zM829 1608q-55 0 -86.5 -39.5t-31.5 -104.5q0 -47 26 -75.5t72 -28.5q53 0 86 38t33 101q0 49 -25.5 79t-73.5 30zM557 1098
l-123 -627q-12 -62 -12 -111q-1 -77 33 -112t104 -35q98 0 165.5 80t96.5 231l113 574h317l-213 -1098h-305l37 188h-4q-61 -97 -152 -152.5t-204 -55.5q-188 0 -267 113.5t-37 330.5l132 674h319z" />
    <glyph glyph-name="Uhungarumlaut" unicode="&#x170;" horiz-adv-x="1523" 
d="M1055 1702l123 272h252l-191 -272h-184zM723 1702l96 272h252l-166 -272h-182zM156 604l186 963h330l-185 -944q-42 -208 19 -297q63 -93 231 -93q155 0 240 91q40 45 59 102t37 158l191 983h325l-200 -1039q-110 -561 -666 -561q-328 0 -478 165t-89 472z" />
    <glyph glyph-name="uhungarumlaut" unicode="&#x171;" horiz-adv-x="1275" 
d="M557 1098l-123 -627q-12 -62 -12 -111q-1 -77 33 -112t104 -35q98 0 165.5 80t96.5 231l113 574h317l-213 -1098h-305l37 188h-4q-61 -97 -152 -152.5t-204 -55.5q-188 0 -267 113.5t-37 330.5l132 674h319zM825 1257l174 357h256l-243 -357h-187zM498 1257l147 357h256
l-217 -357h-186z" />
    <glyph glyph-name="Uogonek" unicode="&#x172;" horiz-adv-x="1523" 
d="M573 -18q-108 11 -194 52.5t-148.5 118t-81.5 188.5t7 263l186 963h330l-185 -944q-41 -207 21 -299q65 -91 229 -91q148 0 226 78q46 45 67.5 105t42.5 168l191 983h325l-200 -1039q-26 -131 -73 -228.5t-114.5 -160.5t-146.5 -99t-178 -54q-104 -19 -148.5 -50.5
t-44.5 -76.5q0 -62 94 -62l-37 -182h-59q-137 0 -196.5 37.5t-59.5 118.5q0 69 42.5 122t104.5 87v2z" />
    <glyph glyph-name="uogonek" unicode="&#x173;" horiz-adv-x="1275" 
d="M733 0l37 188h-4q-61 -97 -152 -152.5t-204 -55.5q-188 0 -267 113.5t-37 330.5l132 674h319l-123 -627q-12 -62 -12 -111q-3 -147 137 -147q98 0 165.5 80t96.5 231l113 574h317l-211 -1092q-135 -81 -135 -153q0 -56 94 -56l-36 -182h-60q-137 0 -196.5 37.5
t-59.5 118.5q0 69 48.5 129.5t140.5 99.5h-103z" />
    <glyph glyph-name="Wcircumflex" unicode="&#x174;" horiz-adv-x="2119" 
d="M1473 1966l161 -272h-219l-104 114h-2l-142 -114h-225l258 272h273zM674 0h-330l-104 1567h329l41 -873q3 -89 3 -152t-3 -98l-2 -34h4q31 106 99 258l405 899h299l66 -877q5 -76 6.5 -146t0.5 -102l-1 -32h4q27 108 90 258l385 899h309l-700 -1567h-322l-59 918
q-5 77 -6.5 143.5t-0.5 94.5l1 28h-4q-26 -92 -92 -242z" />
    <glyph glyph-name="wcircumflex" unicode="&#x175;" horiz-adv-x="1701" 
d="M1171 1614l148 -357h-211l-98 160l-150 -160h-221l281 357h251zM244 0l-115 1098h291l39 -525q4 -58 5 -126t0 -107l-1 -39h4q45 141 96 250l258 547h266l54 -539q4 -48 6.5 -113t2.5 -106l1 -41h6q39 144 84 246l244 553h280l-501 -1098h-306l-45 451q-6 64 -10 145.5
t-5 131.5l-1 50h-4q-70 -180 -127 -305l-219 -473h-303z" />
    <glyph glyph-name="Ycircumflex" unicode="&#x176;" horiz-adv-x="1398" 
d="M434 0l131 676l-340 891h348l211 -617h4l445 617h346l-690 -926l-125 -641h-330zM1112 1966l162 -272h-219l-105 114h-2l-141 -114h-225l258 272h272z" />
    <glyph glyph-name="ycircumflex" unicode="&#x177;" horiz-adv-x="1146" 
d="M330 -2l-187 1100h322l67 -576q6 -54 9 -111t3 -87l-1 -31h4q39 105 86 205l278 600h318l-611 -1164q-66 -125 -129.5 -196t-155.5 -108.5t-224 -37.5q-46 0 -88 5t-60 9.5t-22 6.5l47 233q42 -12 106 -12q87 0 137.5 29.5t85.5 103.5zM922 1614l147 -357h-211l-98 160
l-150 -160h-221l281 357h252z" />
    <glyph glyph-name="Ydieresis" unicode="&#x178;" horiz-adv-x="1398" 
d="M434 0l131 676l-340 891h348l211 -617h4l445 617h346l-690 -926l-125 -641h-330zM1012 1696l55 280h272l-55 -280h-272zM580 1696l53 280h274l-55 -280h-272z" />
    <glyph glyph-name="Zacute" unicode="&#x179;" horiz-adv-x="1318" 
d="M743 1694l168 272h316l-246 -272h-238zM260 1307l51 260h1121l-46 -230l-962 -1075h764l-49 -262h-1168l45 229l963 1078h-719z" />
    <glyph glyph-name="zacute" unicode="&#x17a;" horiz-adv-x="1095" 
d="M557 1257l168 357h319l-245 -357h-242zM178 862l47 236h897l-43 -213l-657 -645h541l-45 -240h-928l39 213l659 649h-510z" />
    <glyph glyph-name="Zdotaccent" unicode="&#x17b;" horiz-adv-x="1318" 
d="M260 1307l51 260h1121l-46 -230l-962 -1075h764l-49 -262h-1168l45 229l963 1078h-719zM741 1706l56 281h276l-55 -281h-277z" />
    <glyph glyph-name="zdotaccent" unicode="&#x17c;" horiz-adv-x="1095" 
d="M178 862l47 236h897l-43 -213l-657 -645h541l-45 -240h-928l39 213l659 649h-510zM563 1303l55 280h277l-55 -280h-277z" />
    <glyph glyph-name="Zcaron" unicode="&#x17d;" horiz-adv-x="1318" 
d="M741 1694l-166 272h222l106 -115h2l144 115h231l-266 -272h-273zM260 1307l51 260h1121l-46 -230l-962 -1075h764l-49 -262h-1168l45 229l963 1078h-719z" />
    <glyph glyph-name="zcaron" unicode="&#x17e;" horiz-adv-x="1095" 
d="M565 1257l-147 357h211l94 -158l156 158h219l-281 -357h-252zM178 862l47 236h897l-43 -213l-657 -645h541l-45 -240h-928l39 213l659 649h-510z" />
    <glyph glyph-name="florin" unicode="&#x192;" horiz-adv-x="944" 
d="M621 713l-252 -1100h-308l248 1100h-229l41 227h239l58 254q21 100 55.5 175t77 122.5t97.5 77.5t112 41.5t125 11.5q91 0 151 -12l-26 -238q-32 8 -84 8q-78 0 -125.5 -40.5t-71.5 -157.5l-55 -242h229l-41 -227h-241z" />
    <glyph glyph-name="Aringacute" unicode="&#x1fa;" horiz-adv-x="1527" 
d="M877 1284q-2 -7 -12 -34t-36 -86t-57 -122l-217 -448h408l-60 440q-9 68 -14.5 130.5t-6.5 91.5l-1 28h-4zM1051 0l-54 352h-561l-174 -352h-325l813 1567h368l264 -1567h-331zM915 2177l168 272h316l-246 -272h-238zM979 1624q-113 2 -185.5 60.5t-72.5 166.5
q0 123 78 200t200 77q124 0 192.5 -62t68.5 -165q0 -125 -79 -201t-202 -76zM1001 1999q-56 0 -88 -38.5t-32 -102.5q0 -49 26 -78t74 -29q51 0 84 39t33 102q0 48 -24.5 77.5t-72.5 29.5z" />
    <glyph glyph-name="aringacute" unicode="&#x1fb;" horiz-adv-x="1179" 
d="M489 193q88 0 149.5 72.5t86.5 199.5l6 31q-156 -4 -231 -19q-68 -14 -108 -52.5t-40 -98.5q0 -64 36.5 -98.5t100.5 -34.5zM463 772h-307q19 160 147.5 255t345.5 95q253 0 356.5 -126t61.5 -339l-63 -331q-12 -58 6.5 -80.5t70.5 -22.5l-45 -225h-92q-96 0 -153 31.5
t-76 109.5h-6q-74 -80 -146.5 -115.5t-187.5 -35.5q-94 0 -168.5 32.5t-122 103.5t-47.5 173q0 254 287 334q23 6 50 11.5t48.5 8.5t55.5 6t52 4t59 2t55 1.5t61.5 1t58.5 0.5l10 57q17 92 -19 141t-120 49q-152 0 -172 -141zM727 1200q-113 2 -185.5 60.5t-72.5 164.5
q0 122 79 200.5t200 78.5q124 0 193 -63t69 -164q0 -125 -79.5 -201t-203.5 -76zM750 1575q-55 0 -87 -39t-32 -104q0 -47 26 -76t72 -29q53 0 86 38t33 101q0 49 -25 79t-73 30zM664 1769l167 273h316l-246 -273h-237z" />
    <glyph glyph-name="AEacute" unicode="&#x1fc;" horiz-adv-x="2160" 
d="M1315 1694l168 272h315l-246 -272h-237zM1030 621l133 690h-110q-74 -135 -140 -242l-276 -448h393zM909 0l72 375h-496l-231 -375h-360l999 1567h1325l-49 -256h-676l-78 -404h641l-49 -250h-641l-78 -403h697l-48 -254h-1028z" />
    <glyph glyph-name="aeacute" unicode="&#x1fd;" horiz-adv-x="1853" 
d="M934 1257l168 357h319l-245 -357h-242zM1483 657l2 15q36 250 -156 250q-90 0 -155 -72.5t-97 -192.5h406zM489 193q90 0 149.5 70.5t86.5 201.5l6 31q-156 -4 -231 -19q-69 -14 -108.5 -52t-39.5 -99q0 -64 36.5 -98.5t100.5 -34.5zM1731 319q-34 -169 -165.5 -253
t-338.5 -84q-160 0 -258.5 51.5t-153.5 152.5h-4q-79 -96 -175 -147t-255 -51q-153 0 -248.5 78.5t-95.5 228.5q0 256 287 336q23 6 50 11.5t48.5 8.5t55.5 6t52 4t59 2t55 1.5t61.5 1t58.5 0.5l10 57q17 92 -19.5 141t-121.5 49q-153 0 -170 -141h-307q19 168 148.5 259
t350.5 91q237 0 326 -161h2q140 163 363 163q90 0 164 -21t125 -59.5t87.5 -91.5t52 -116.5t18 -136.5t-14.5 -150l-15 -76h-714q-2 -16 -2 -51q0 -234 186 -234q78 0 126.5 37t61.5 94h310z" />
    <glyph glyph-name="Oslashacute" unicode="&#x1fe;" horiz-adv-x="1646" 
d="M958 1350q-103 0 -188.5 -54.5t-139 -139t-90.5 -191t-52.5 -207t-14.5 -191.5q0 -23 4 -69l727 741q-77 111 -246 111zM791 211q97 0 179 53t136 136.5t92 188t54.5 205.5t15.5 191q0 45 -6 86l-730 -743q73 -117 259 -117zM1604 944q0 -152 -33.5 -295t-102.5 -267
t-166 -216.5t-232 -145.5t-292 -53q-283 0 -452 150l-166 -168h-219l284 291q-88 150 -88 362q0 201 59 380.5t164.5 314.5t263.5 213.5t345 78.5q263 0 434 -145l174 176h223l-293 -299q97 -156 97 -377zM903 1694l168 272h315l-245 -272h-238z" />
    <glyph glyph-name="oslashacute" unicode="&#x1ff;" horiz-adv-x="1241" 
d="M682 915q-62 0 -113.5 -33.5t-84.5 -86.5t-55.5 -120.5t-32 -132t-9.5 -124.5v-23l444 449q-48 71 -149 71zM578 182q81 0 141 53t90.5 135.5t44.5 162.5t14 155l-438 -442q48 -64 148 -64zM1184 664q0 -194 -73.5 -350.5t-215.5 -249.5t-330 -93q-194 0 -319 88
l-135 -137h-191l232 234q-78 115 -78 278q0 107 25 207.5t76.5 188t123.5 153.5t172.5 103.5t216.5 37.5q198 0 326 -96l141 143h191l-238 -239q76 -112 76 -268zM606 1257l168 357h320l-246 -357h-242z" />
    <glyph glyph-name="Scommaaccent" unicode="&#x218;" horiz-adv-x="1378" 
d="M338 -451l113 320h309l-209 -320h-213zM57 455h344q-3 -119 61.5 -179.5t201.5 -60.5q121 0 202.5 60.5t81.5 164.5q0 73 -43.5 115t-144.5 70l-193 55q-187 54 -271.5 156.5t-84.5 259.5q0 153 82.5 266.5t217.5 170t302 56.5q120 0 220 -29t173 -84.5t111 -143
t31 -197.5h-334q6 99 -51 155t-164 56q-109 0 -179.5 -55t-70.5 -152q0 -66 46.5 -103.5t139.5 -64.5l195 -56q190 -54 273 -152.5t83 -252.5q0 -244 -176.5 -393.5t-458.5 -149.5q-186 0 -322 54.5t-209 166t-63 267.5z" />
    <glyph glyph-name="scommaaccent" unicode="&#x219;" horiz-adv-x="1075" 
d="M174 -451l113 320h309l-209 -320h-213zM1014 786h-279q3 65 -41.5 98.5t-115.5 33.5q-69 0 -112.5 -32t-43.5 -87q0 -46 31.5 -70.5t101.5 -40.5l135 -31q152 -35 215.5 -106t63.5 -195q0 -184 -135 -285.5t-351 -101.5q-208 0 -334.5 92t-119.5 265h290q-4 -74 43 -112
t132 -38q78 0 129 32t51 97q0 84 -123 111l-129 28q-289 64 -289 312q0 118 64.5 203.5t166.5 125t228 39.5q194 0 313 -89t109 -249z" />
    <glyph glyph-name="uni021A" unicode="&#x21a;" horiz-adv-x="1318" 
d="M279 -451l112 320h309l-208 -320h-213zM977 1303l-252 -1303h-332l252 1303h-448l51 264h1227l-52 -264h-446z" />
    <glyph glyph-name="uni021B" unicode="&#x21b;" horiz-adv-x="804" 
d="M94 -451l113 320h309l-209 -320h-213zM420 1407h264l-59 -309h237l-45 -226h-235l-95 -485q-19 -95 4.5 -129.5t108.5 -34.5q21 0 43.5 2.5t34.5 4.5l12 3l-45 -233q-72 -14 -160 -14q-386 0 -313 381l98 505h-157l45 224h32q51 0 82.5 8t57.5 33.5t42 69.5t31 118z" />
    <glyph glyph-name="uni0237" unicode="&#x237;" horiz-adv-x="600" 
d="M-248 -397l43 221q40 -10 84 -10q65 0 103 33t51 106l223 1145h319l-227 -1166q-19 -100 -60 -170.5t-99 -109.5t-124 -56.5t-147 -17.5q-104 0 -166 25z" />
    <glyph glyph-name="circumflex" unicode="&#x2c6;" horiz-adv-x="741" 
d="M711 1614l147 -357h-211l-98 160l-150 -160h-221l281 357h252z" />
    <glyph glyph-name="caron" unicode="&#x2c7;" horiz-adv-x="716" 
d="M373 1257l-148 357h211l94 -158l156 158h219l-280 -357h-252z" />
    <glyph glyph-name="breve" unicode="&#x2d8;" horiz-adv-x="743" 
d="M530 1253q-156 0 -237 94.5t-47 266.5h200q-13 -72 15 -111t86 -39q59 0 101 39t57 111h210q-13 -94 -51 -166t-92 -113.5t-115 -61.5t-127 -20z" />
    <glyph glyph-name="dotaccent" unicode="&#x2d9;" horiz-adv-x="612" 
d="M324 1303l55 280h276l-55 -280h-276z" />
    <glyph glyph-name="ring" unicode="&#x2da;" horiz-adv-x="749" 
d="M539 1233q-113 2 -185.5 60.5t-72.5 164.5q0 122 78.5 200.5t199.5 78.5q124 0 193 -63.5t69 -164.5q0 -125 -79 -200.5t-203 -75.5zM561 1608q-55 0 -87 -39.5t-32 -104.5q0 -47 26.5 -75.5t72.5 -28.5q53 0 85.5 38t32.5 101q0 49 -25 79t-73 30z" />
    <glyph glyph-name="ogonek" unicode="&#x2db;" horiz-adv-x="751" 
d="M283 18l145 -12q-133 -80 -133 -153q0 -56 92 -56l-35 -182h-59q-137 0 -197.5 37.5t-60.5 118.5q0 80 65.5 148t182.5 99z" />
    <glyph glyph-name="tilde" unicode="&#x2dc;" horiz-adv-x="743" 
d="M131 1257q11 140 89.5 238t207.5 98q41 0 79.5 -16.5t63 -35.5t55 -35.5t56.5 -16.5q72 0 113 106h155q-9 -93 -43 -167t-99.5 -122.5t-152.5 -48.5q-52 0 -100.5 26.5t-89 52.5t-72.5 26q-72 0 -108 -105h-154z" />
    <glyph glyph-name="hungarumlaut" unicode="&#x2dd;" horiz-adv-x="815" 
d="M545 1257l174 357h256l-244 -357h-186zM217 1257l148 357h256l-218 -357h-186z" />
    <glyph glyph-name="Wgrave" unicode="&#x1e80;" horiz-adv-x="2119" 
d="M1333 1966l82 -272h-229l-156 272h303zM674 0h-330l-104 1567h329l41 -873q3 -89 3 -152t-3 -98l-2 -34h4q31 106 99 258l405 899h299l66 -877q5 -76 6.5 -146t0.5 -102l-1 -32h4q27 108 90 258l385 899h309l-700 -1567h-322l-59 918q-5 77 -6.5 143.5t-0.5 94.5l1 28h-4
q-26 -92 -92 -242z" />
    <glyph glyph-name="wgrave" unicode="&#x1e81;" horiz-adv-x="1701" 
d="M244 0l-115 1098h291l39 -525q4 -58 5 -126t0 -107l-1 -39h4q45 141 96 250l258 547h266l54 -539q4 -48 6.5 -113t2.5 -106l1 -41h6q39 144 84 246l244 553h280l-501 -1098h-306l-45 451q-6 64 -10 145.5t-5 131.5l-1 50h-4q-70 -180 -127 -305l-219 -473h-303z
M1030 1614l74 -357h-236l-149 357h311z" />
    <glyph glyph-name="Wacute" unicode="&#x1e82;" horiz-adv-x="2119" 
d="M1153 1694l168 272h315l-245 -272h-238zM674 0h-330l-104 1567h329l41 -873q3 -89 3 -152t-3 -98l-2 -34h4q31 106 99 258l405 899h299l66 -877q5 -76 6.5 -146t0.5 -102l-1 -32h4q27 108 90 258l385 899h309l-700 -1567h-322l-59 918q-5 77 -6.5 143.5t-0.5 94.5l1 28
h-4q-26 -92 -92 -242z" />
    <glyph glyph-name="wacute" unicode="&#x1e83;" horiz-adv-x="1701" 
d="M848 1257l168 357h319l-245 -357h-242zM244 0l-115 1098h291l39 -525q4 -58 5 -126t0 -107l-1 -39h4q45 141 96 250l258 547h266l54 -539q4 -48 6.5 -113t2.5 -106l1 -41h6q39 144 84 246l244 553h280l-501 -1098h-306l-45 451q-6 64 -10 145.5t-5 131.5l-1 50h-4
q-70 -180 -127 -305l-219 -473h-303z" />
    <glyph glyph-name="Wdieresis" unicode="&#x1e84;" horiz-adv-x="2119" 
d="M1370 1696l55 280h273l-56 -280h-272zM938 1696l53 280h275l-56 -280h-272zM674 0h-330l-104 1567h329l41 -873q3 -89 3 -152t-3 -98l-2 -34h4q31 106 99 258l405 899h299l66 -877q5 -76 6.5 -146t0.5 -102l-1 -32h4q27 108 90 258l385 899h309l-700 -1567h-322l-59 918
q-5 77 -6.5 143.5t-0.5 94.5l1 28h-4q-26 -92 -92 -242z" />
    <glyph glyph-name="wdieresis" unicode="&#x1e85;" horiz-adv-x="1701" 
d="M1065 1303l55 280h273l-56 -280h-272zM645 1303l55 280h275l-55 -280h-275zM244 0l-115 1098h291l39 -525q4 -58 5 -126t0 -107l-1 -39h4q45 141 96 250l258 547h266l54 -539q4 -48 6.5 -113t2.5 -106l1 -41h6q39 144 84 246l244 553h280l-501 -1098h-306l-45 451
q-6 64 -10 145.5t-5 131.5l-1 50h-4q-70 -180 -127 -305l-219 -473h-303z" />
    <glyph glyph-name="Ygrave" unicode="&#x1ef2;" horiz-adv-x="1398" 
d="M434 0l131 676l-340 891h348l211 -617h4l445 617h346l-690 -926l-125 -641h-330zM975 1966l82 -272h-230l-155 272h303z" />
    <glyph glyph-name="ygrave" unicode="&#x1ef3;" horiz-adv-x="1146" 
d="M330 -2l-187 1100h322l67 -576q6 -54 9 -111t3 -87l-1 -31h4q39 105 86 205l278 600h318l-611 -1164q-66 -125 -129.5 -196t-155.5 -108.5t-224 -37.5q-46 0 -88 5t-60 9.5t-22 6.5l47 233q42 -12 106 -12q87 0 137.5 29.5t85.5 103.5zM784 1614l74 -357h-235l-150 357
h311z" />
    <glyph glyph-name="uni2009" unicode="&#x2009;" horiz-adv-x="36" 
 />
    <glyph glyph-name="endash" unicode="&#x2013;" horiz-adv-x="1050" 
d="M113 524l45 232h839l-45 -232h-839z" />
    <glyph glyph-name="emdash" unicode="&#x2014;" horiz-adv-x="1808" 
d="M115 528l43 224h1595l-43 -224h-1595z" />
    <glyph glyph-name="quoteleft" unicode="&#x2018;" horiz-adv-x="581" 
d="M674 1567l-174 -535h-326l299 535h201z" />
    <glyph glyph-name="quoteright" unicode="&#x2019;" horiz-adv-x="581" 
d="M207 1032l176 535h326l-297 -535h-205z" />
    <glyph glyph-name="quotesinglbase" unicode="&#x201a;" horiz-adv-x="581" 
d="M-37 -231l176 534h324l-295 -534h-205z" />
    <glyph glyph-name="quotedblleft" unicode="&#x201c;" horiz-adv-x="995" 
d="M1087 1567l-176 -535h-317l291 535h202zM670 1567l-174 -535h-318l291 535h201z" />
    <glyph glyph-name="quotedblright" unicode="&#x201d;" horiz-adv-x="1001" 
d="M631 1032l176 535h317l-290 -535h-203zM215 1032l174 535h320l-291 -535h-203z" />
    <glyph glyph-name="quotedblbase" unicode="&#x201e;" horiz-adv-x="991" 
d="M381 -231l174 534h317l-288 -534h-203zM-37 -231l176 534h318l-289 -534h-205z" />
    <glyph glyph-name="dagger" unicode="&#x2020;" horiz-adv-x="651" 
d="M553 1143l-107 -549h-221l107 549h-174l41 215h174l41 209h221l-41 -209h176l-41 -215h-176z" />
    <glyph glyph-name="daggerdbl" unicode="&#x2021;" horiz-adv-x="651" 
d="M492 803l-41 -209h-222l41 209h-174l37 190h174l33 174h-174l37 191h174l41 209h221l-41 -209h176l-37 -191h-176l-33 -174h177l-37 -190h-176z" />
    <glyph glyph-name="bullet" unicode="&#x2022;" horiz-adv-x="774" 
d="M397 379q-108 0 -176.5 69.5t-68.5 182.5q0 109 71.5 180.5t175.5 71.5q108 0 177 -70.5t69 -181.5q0 -112 -71.5 -182t-176.5 -70z" />
    <glyph glyph-name="ellipsis" unicode="&#x2026;" horiz-adv-x="1748" 
d="M1190 0l61 326h340l-61 -326h-340zM606 0l62 326h340l-62 -326h-340zM25 0l61 326h340l-64 -326h-337z" />
    <glyph glyph-name="perthousand" unicode="&#x2030;" horiz-adv-x="2611" 
d="M162 -82l1351 1681h240l-1350 -1681h-241zM213 1075q0 192 114 317.5t285 125.5q146 0 232 -80.5t86 -218.5q0 -191 -114.5 -316t-285.5 -125q-146 0 -231.5 80t-85.5 217zM539 950q81 0 125.5 83t44.5 188q0 58 -26.5 92.5t-82.5 34.5q-78 0 -123.5 -80.5t-48.5 -190.5
q0 -58 27 -92.5t84 -34.5zM2107 -14q-146 0 -231.5 79.5t-85.5 215.5q0 192 114 317t285 125q147 0 232.5 -79.5t85.5 -217.5q0 -191 -114.5 -315.5t-285.5 -124.5zM1288 -14q-145 0 -231 79.5t-86 215.5q0 192 115 317t286 125q146 0 231 -79.5t85 -217.5
q0 -191 -114 -315.5t-286 -124.5zM2116 158q55 0 95 42t57.5 101.5t17.5 126.5q0 57 -26.5 91t-82.5 34q-53 0 -92.5 -39.5t-58.5 -99t-21 -129.5q0 -58 27 -92.5t84 -34.5zM1298 158q55 0 95 42t57.5 101.5t17.5 126.5q0 125 -108 125q-53 0 -92.5 -39.5t-58.5 -99
t-21 -129.5q0 -58 26.5 -92.5t83.5 -34.5z" />
    <glyph glyph-name="uni2032" unicode="&#x2032;" horiz-adv-x="536" 
d="M176 1032l146 535h319l-264 -535h-201z" />
    <glyph glyph-name="uni2033" unicode="&#x2033;" horiz-adv-x="952" 
d="M592 1032l147 535h316l-260 -535h-203zM176 1032l146 535h319l-264 -535h-201z" />
    <glyph glyph-name="guilsinglleft" unicode="&#x2039;" horiz-adv-x="653" 
d="M399 950h238l-283 -422l119 -411h-235l-136 422z" />
    <glyph glyph-name="guilsinglright" unicode="&#x203a;" horiz-adv-x="641" 
d="M260 117h-240l285 422l-119 411h236l133 -420z" />
    <glyph glyph-name="fraction" unicode="&#x2044;" horiz-adv-x="606" 
d="M-492 -82l1422 1681h221l-1421 -1681h-222z" />
    <glyph glyph-name="Euro" unicode="&#x20ac;" horiz-adv-x="1396" 
d="M1305 440q-39 -210 -199 -339.5t-397 -129.5q-247 0 -381 138t-135 403h-173l33 158h148q10 96 26 166h-147l31 157h157q41 121 101.5 218t143 172t192.5 115.5t239 39.5q227 -2 352.5 -125t104.5 -354h-311q14 110 -30 179.5t-147 70.5q-110 1 -190.5 -83.5
t-130.5 -232.5h364l-30 -157h-377q-22 -114 -27 -166h375l-31 -158h-356q-12 -307 217 -307q100 0 169.5 64t94.5 171h314z" />
    <glyph glyph-name="trademark" unicode="&#x2122;" horiz-adv-x="1419" 
d="M518 1432l-94 -492h-152l95 492h-183l27 135h518l-27 -135h-184zM680 940l121 627h233l37 -322q3 -24 4 -48t1 -36l-1 -12h6q14 41 41 96l160 322h256l-121 -627h-149l88 459h-6q-25 -57 -62 -127l-174 -332h-137l-47 330q-5 32 -7.5 64t-2.5 48v17h-9l-88 -459h-143z
" />
    <glyph glyph-name="onethird" unicode="&#x2153;" horiz-adv-x="1871" 
d="M1415 377h-110l30 137h97q63 0 104 36.5t41 92.5q0 43 -30.5 66.5t-78.5 23.5q-113 0 -133 -112h-225q13 117 110 195.5t267 78.5q147 0 231 -58.5t84 -160.5q0 -90 -53 -146t-141 -79v-5q147 -44 147 -182q0 -134 -107 -208t-280 -74q-168 0 -259 71.5t-79 206.5h221
q-1 -55 31.5 -84t93.5 -29q69 0 108.5 36.5t39.5 92.5q0 44 -26 72.5t-83 28.5zM266 684l121 573h-192l34 160h31q85 0 141 33q56 39 70 117h211l-186 -883h-230zM35 -82l1421 1681h221l-1421 -1681h-221z" />
    <glyph glyph-name="twothirds" unicode="&#x2154;" horiz-adv-x="2088" 
d="M1632 377h-110l30 137h97q63 0 104 36.5t41 92.5q0 43 -30 66.5t-78 23.5q-114 0 -134 -112h-225q13 117 110 195.5t267 78.5q147 0 231 -58.5t84 -160.5q0 -90 -53 -146t-141 -79v-5q147 -44 147 -182q0 -134 -107 -208t-280 -74q-168 0 -259 71.5t-79 206.5h221
q-1 -55 31.5 -84t93.5 -29q69 0 108.5 36.5t39.5 92.5q0 44 -26 72.5t-83 28.5zM459 1278h-226q14 144 112.5 222.5t270.5 78.5q135 0 220.5 -62t85.5 -178q0 -52 -17 -97t-53 -86t-70 -69.5t-90 -70.5l-215 -158v-4h371l-33 -170h-721l25 123l401 313q109 85 130 106
q48 48 48 103q0 41 -28 65.5t-74 24.5q-122 0 -137 -141zM283 -82l1421 1681h221l-1421 -1681h-221z" />
    <glyph glyph-name="oneeighth" unicode="&#x215b;" horiz-adv-x="1867" 
d="M1481 895q147 0 230 -58.5t83 -160.5q0 -166 -188 -223v-7q149 -49 149 -186q0 -124 -100 -201t-291 -77q-348 0 -348 235q0 97 58.5 158t156.5 86v6q-107 47 -107 162q0 119 98 192.5t259 73.5zM1473 743q-63 0 -96.5 -38.5t-33.5 -90.5q0 -48 28 -72t77 -24
q56 0 92.5 35t36.5 96q0 43 -29.5 68.5t-74.5 25.5zM1376 129q65 0 106.5 39t41.5 106q0 51 -35 79t-88 28q-75 0 -112.5 -41.5t-37.5 -103.5q0 -54 33.5 -80.5t91.5 -26.5zM266 684l121 573h-192l34 160h31q85 0 141 33q56 39 70 117h211l-186 -883h-230zM41 -82l1421 1681
h221l-1421 -1681h-221z" />
    <glyph glyph-name="threeeighths" unicode="&#x215c;" horiz-adv-x="2045" 
d="M1659 897q147 0 230 -58.5t83 -160.5q0 -166 -188 -223v-6q149 -49 149 -187q0 -124 -100 -201t-291 -77q-348 0 -348 235q0 97 58.5 158t156.5 86v6q-106 47 -106 162q0 119 97.5 192.5t258.5 73.5zM1651 745q-63 0 -96 -38.5t-33 -90.5q0 -48 27.5 -72t76.5 -24
q56 0 92.5 35t36.5 96q0 43 -29.5 68.5t-74.5 25.5zM1554 131q65 0 106.5 39t41.5 106q0 51 -35 79t-88 28q-75 0 -112 -41.5t-37 -103.5q0 -54 33 -80.5t91 -26.5zM260 -82l1421 1681h222l-1422 -1681h-221zM553 1061h-111l29 137h98q63 0 103.5 36.5t40.5 92.5
q0 43 -30 66.5t-77 23.5q-115 0 -135 -112h-223q13 117 109.5 195.5t265.5 78.5q148 0 232.5 -58t84.5 -161q0 -90 -53.5 -145.5t-141.5 -79.5v-5q148 -44 148 -182q0 -134 -108 -208t-281 -74q-167 0 -257.5 71.5t-78.5 206.5h221q-1 -55 31.5 -84t93.5 -29q68 0 106.5 37
t38.5 93q0 44 -25 72t-81 28z" />
    <glyph glyph-name="fiveeighths" unicode="&#x215d;" horiz-adv-x="2029" 
d="M1645 895q147 0 230 -58.5t83 -160.5q0 -166 -189 -223v-7q150 -49 150 -186q0 -124 -100 -201t-291 -77q-348 0 -348 235q0 97 58.5 158t156.5 86v6q-107 47 -107 162q0 119 98 192.5t259 73.5zM1636 743q-63 0 -96 -38.5t-33 -90.5q0 -48 28 -72t77 -24q56 0 92.5 35
t36.5 96q0 43 -29.5 68.5t-75.5 25.5zM1540 129q65 0 106.5 39t41.5 106q0 51 -35 79t-88 28q-75 0 -112.5 -41.5t-37.5 -103.5q0 -54 33.5 -80.5t91.5 -26.5zM668 999q0 113 -115 113q-78 0 -143 -65h-193l148 520h587l-37 -181h-411l-58 -200h5q84 78 211 78
q116 0 176.5 -63.5t60.5 -170.5q0 -170 -112.5 -267t-301.5 -97q-164 0 -247.5 67t-71.5 205h223q-2 -50 29.5 -79.5t87.5 -29.5q72 0 117 48t45 122zM240 -82l1421 1681h221l-1421 -1681h-221z" />
    <glyph glyph-name="seveneighths" unicode="&#x215e;" horiz-adv-x="1894" 
d="M1509 895q147 0 230.5 -58.5t83.5 -160.5q0 -166 -189 -223v-7q150 -49 150 -186q0 -124 -100 -201t-291 -77q-178 0 -263.5 61.5t-85.5 173.5q0 97 59 158t157 86v6q-107 47 -107 162q0 119 97.5 192.5t258.5 73.5zM1501 743q-63 0 -96 -38.5t-33 -90.5q0 -48 28 -72
t77 -24q56 0 92.5 35t36.5 96q0 43 -29.5 68.5t-75.5 25.5zM1405 129q65 0 106 39t41 106q0 51 -34.5 79t-87.5 28q-75 0 -112.5 -41.5t-37.5 -103.5q0 -54 33.5 -80.5t91.5 -26.5zM164 684l475 705h-414l39 178h682l-26 -127l-512 -756h-244zM43 -82l1421 1681h222
l-1422 -1681h-221z" />
    <glyph glyph-name="minus" unicode="&#x2212;" horiz-adv-x="1265" 
d="M168 614l45 238h965l-45 -238h-965z" />
    <glyph glyph-name="approxequal" unicode="&#x2248;" horiz-adv-x="1167" 
d="M162 778q20 154 107 246t233 92q71 0 191 -47t165 -47q94 0 111 102h198q-20 -163 -102 -250.5t-219 -87.5q-59 0 -131.5 24t-136.5 47.5t-103 23.5q-84 0 -110 -103h-203zM82 371q20 154 106 246t232 92q56 0 125 -23.5t130.5 -47.5t100.5 -24q93 0 111 103h200
q-22 -162 -104 -250t-219 -88q-59 0 -131 23.5t-136 47t-104 23.5q-85 0 -110 -102h-201z" />
    <glyph glyph-name="notequal" unicode="&#x2260;" horiz-adv-x="1288" 
d="M551 399l-139 -215h-189l139 215h-223l45 236h330l119 184h-414l47 236h518l146 227h188l-145 -227h258l-47 -236h-363l-119 -184h447l-47 -236h-551z" />
    <glyph glyph-name="lessequal" unicode="&#x2264;" horiz-adv-x="1275" 
d="M1083 315l-899 508l31 150l1094 504l-54 -287l-696 -307l574 -316zM1024 0h-993l45 236h993z" />
    <glyph glyph-name="greaterequal" unicode="&#x2265;" horiz-adv-x="1275" 
d="M338 1470l899 -501l-31 -154l-1093 -504l53 287l696 309l-573 316zM1049 0h-992l45 236h994z" />
    <glyph glyph-name="uni24C5" unicode="&#x24c5;" horiz-adv-x="1822" 
d="M147 778q0 227 104.5 413t289.5 293t413 107t413.5 -107t290.5 -293t105 -413t-105 -412.5t-290.5 -292t-413.5 -106.5t-413 106.5t-289.5 292t-104.5 412.5zM954 84q190 0 345.5 91t243 250t87.5 353t-87.5 353.5t-243 251.5t-345.5 92t-344.5 -92t-241.5 -251.5
t-87 -353.5t87 -353t241.5 -250t344.5 -91zM580 352l165 865h314q143 0 227.5 -68t83.5 -197q-3 -164 -107.5 -247.5t-273.5 -83.5h-143l-53 -269h-213zM874 782h113q77 0 118.5 42t43.5 118q1 58 -31.5 87.5t-93.5 29.5h-94z" />
    <glyph glyph-name="quotedblright.sc" horiz-adv-x="1001" 
d="M582 784l176 535h317l-291 -535h-202zM166 784l174 535h319l-290 -535h-203z" />
    <glyph glyph-name="Ibreve.sc" horiz-adv-x="622" 
d="M57 0l260 1319h316l-260 -1319h-316zM522 1470q-156 0 -237 94.5t-47 266.5h200q-13 -72 15 -111t86 -39q59 0 100.5 38.5t56.5 111.5h211q-13 -94 -51 -166t-92 -113.5t-115 -61.5t-127 -20z" />
    <glyph glyph-name="exclamdown.uc" horiz-adv-x="632" 
d="M547 1069l-162 -1114h-369l295 1114h236zM344 1567h352l-59 -312h-352z" />
    <glyph glyph-name="hyphen.uc" horiz-adv-x="843" 
d="M131 606l47 252h633l-49 -252h-631z" />
    <glyph glyph-name="endash.uc" horiz-adv-x="1050" 
d="M131 616l45 232h840l-45 -232h-840z" />
    <glyph glyph-name="emdash.uc" horiz-adv-x="1808" 
d="M133 621l43 223h1596l-43 -223h-1596z" />
    <glyph glyph-name="guilsinglleft.uc" horiz-adv-x="634" 
d="M410 1073h237l-285 -422l119 -411h-235l-133 422z" />
    <glyph glyph-name="guilsinglright.uc" horiz-adv-x="628" 
d="M283 240h-240l285 422l-119 411h235l134 -420z" />
    <glyph glyph-name="guillemotleft.uc" horiz-adv-x="1075" 
d="M848 1073h237l-284 -422l119 -411h-234l-135 422zM408 1073h237l-283 -422l119 -411h-235l-135 422z" />
    <glyph glyph-name="guillemotright.uc" horiz-adv-x="1081" 
d="M283 240h-240l287 422l-121 411h235l131 -420zM733 240h-237l284 422l-118 411h235l133 -420z" />
    <glyph glyph-name="parenleft.uc" horiz-adv-x="718" 
d="M526 -205h-221q-78 152 -125 316t-47 366q0 172 42 343.5t116.5 323t164.5 281.5t199 250h246q-114 -147 -198.5 -284.5t-151.5 -290t-102.5 -316t-36.5 -335.5q-3 -346 114 -654z" />
    <glyph glyph-name="parenright.uc" horiz-adv-x="718" 
d="M248 1675h223q170 -332 170 -682q0 -173 -41.5 -344t-116 -322.5t-164 -281.5t-198.5 -250h-248q115 147 200 284.5t152 290t101.5 316.5t35.5 336q3 353 -114 653z" />
    <glyph glyph-name="space_uni0326" horiz-adv-x="745" 
d="M86 -451l113 320h309l-209 -320h-213z" />
    <glyph glyph-name="grave.uc" horiz-adv-x="745" 
d="M588 1966l82 -272h-230l-155 272h303z" />
    <glyph glyph-name="bracketleft.uc" horiz-adv-x="782" 
d="M41 -205l367 1880h530l-39 -196h-266l-289 -1487h266l-39 -197h-530z" />
    <glyph glyph-name="bracketright.uc" horiz-adv-x="804" 
d="M815 1675l-366 -1880h-529l39 197h266l289 1487h-266l39 196h528z" />
    <glyph glyph-name="braceleft.uc" horiz-adv-x="831" 
d="M160 633h-60l43 223h62q73 0 101 28.5t44 108.5l64 332q42 219 180.5 301t394.5 57l-37 -188q-77 4 -129 -7t-85.5 -39.5t-51 -68t-29.5 -100.5l-55 -293q-20 -107 -64.5 -162t-144.5 -69v-8q60 -17 90 -58.5t30.5 -96.5t-11.5 -122l-53 -260q-25 -125 21 -176t196 -60
l-37 -188q-84 3 -150 13.5t-121 32.5t-90 55t-57.5 80.5t-23.5 109.5t12 141l53 270q14 75 -8.5 109.5t-83.5 34.5z" />
    <glyph glyph-name="braceright.uc" horiz-adv-x="858" 
d="M752 844h59l-43 -223h-59q-74 0 -103 -30t-45 -110l-63 -331q-42 -219 -180.5 -300.5t-395.5 -56.5l37 187q77 -4 129 7.5t85.5 40t51 67.5t29.5 100l53 278q21 110 68 172.5t143 75.5v8q-60 17 -89 58.5t-29 96t12 120.5l51 262q26 125 -20.5 175.5t-196.5 59.5l37 189
q258 -9 366 -108t64 -329l-54 -266q-13 -74 9.5 -108.5t83.5 -34.5z" />
    <glyph glyph-name="slash.uc" horiz-adv-x="1150" 
d="M-168 -186l1241 1847h258l-1239 -1847h-260z" />
    <glyph glyph-name="backslash.uc" horiz-adv-x="1122" 
d="M774 -186l-538 1847h237l543 -1847h-242z" />
    <glyph glyph-name="bar.uc" horiz-adv-x="575" 
d="M27 -186l358 1847h217l-358 -1847h-217z" />
    <glyph glyph-name="acute.uc" horiz-adv-x="745" 
d="M330 1694l168 272h315l-246 -272h-237z" />
    <glyph glyph-name="at.uc" horiz-adv-x="2091" 
d="M1540 258q-123 0 -195.5 51t-84.5 148h-7q-109 -195 -317 -195q-149 0 -234.5 100t-85.5 265q0 109 32 210.5t89.5 181t145.5 127.5t192 48q95 0 159 -43t87 -109h4l23 119h262l-119 -563q-40 -188 98 -188q39 0 78 16.5t76.5 53t66.5 89.5t46.5 133.5t17.5 176.5
q0 293 -186.5 472t-497.5 179q-170 0 -327 -67.5t-273.5 -184t-186 -283.5t-69.5 -356q0 -341 193 -539t513 -198q158 0 297.5 47.5t239.5 124.5l80 -97q-259 -208 -639 -208q-188 0 -345.5 62.5t-267.5 175.5t-171.5 275t-61.5 355q0 215 82.5 406.5t222 327t327.5 214
t394 78.5q247 0 438.5 -95.5t297.5 -270.5t106 -404q0 -131 -29 -239.5t-77.5 -180.5t-114 -121.5t-135.5 -71.5t-144 -22zM1028 446q75 0 136 65.5t83 172.5l19 90q20 98 -15.5 168t-117.5 70q-59 0 -107 -36.5t-76.5 -94.5t-43.5 -123.5t-15 -130.5q0 -85 34.5 -133
t102.5 -48z" />
    <glyph glyph-name="f.short" horiz-adv-x="743" 
d="M573 872l-170 -872h-313l170 872h-149l45 226h147l31 153q20 108 59.5 182t98.5 116t129 59.5t163 17.5q82 0 162 -16l-43 -224q-28 7 -80 7q-79 0 -121 -33.5t-57 -112.5l-29 -149h209l-45 -226h-207z" />
    <glyph glyph-name="f_f.short" horiz-adv-x="1447" 
d="M571 872l-168 -872h-313l170 872h-149l45 226h147l25 127q21 108 60.5 181.5t98.5 114.5t128.5 58.5t162.5 17.5q117 0 152 -14l-43 -223q-16 4 -70 4q-79 0 -121 -33.5t-57 -111.5l-23 -121h392l30 153q20 108 59.5 182t99 115.5t129.5 59.5t163 18q66 0 162 -16
l-43 -224q-35 7 -82 7q-78 0 -120.5 -34t-57.5 -112l-29 -149h209l-43 -226h-209l-170 -872h-311l170 872h-394z" />
    <glyph glyph-name="macron.uc" horiz-adv-x="745" 
d="M174 1716l41 213h688l-43 -213h-686z" />
    <glyph glyph-name="circumflex.uc" horiz-adv-x="745" 
d="M698 1966l162 -272h-219l-104 114h-2l-142 -114h-225l258 272h272z" />
    <glyph glyph-name="caron.uc" horiz-adv-x="745" 
d="M379 1694l-166 272h221l107 -115h2l143 115h232l-267 -272h-272z" />
    <glyph glyph-name="breve.uc" horiz-adv-x="745" 
d="M240 1991h192q-4 -60 26.5 -95.5t86.5 -35.5q57 0 99 34.5t61 96.5h204q-32 -167 -136 -244.5t-253 -77.5q-139 0 -222 85t-58 237z" />
    <glyph glyph-name="caron.alt" horiz-adv-x="745" 
d="M344 1231l86 383h252l-186 -383h-152z" />
    <glyph glyph-name="dotaccent.uc" horiz-adv-x="745" 
d="M379 1706l55 281h277l-56 -281h-276z" />
    <glyph glyph-name="ring.uc" horiz-adv-x="745" 
d="M512 1630q-113 2 -185.5 61t-72.5 167q0 122 78 199t200 77q124 0 192.5 -62t68.5 -165q0 -125 -79 -201t-202 -76zM535 2005q-56 0 -88.5 -38.5t-32.5 -102.5q0 -49 26 -78t74 -29q51 0 84 39t33 102q0 48 -24 77.5t-72 29.5z" />
    <glyph glyph-name="sterling.tab" horiz-adv-x="1212" 
d="M1094 258l-50 -258h-1040l35 188l67 43q55 35 90 61.5t69 61.5t51 71.5t25 85t3 107.5h-238l39 199h168l-14 86q-15 109 -10 205t42 175.5t97.5 136.5t154.5 88.5t214 31.5q235 0 350 -125t90 -332h-295q19 111 -22.5 171.5t-131.5 60.5q-119 0 -167.5 -92.5
t-24.5 -264.5l18 -141h410l-37 -199l-352 3q2 -114 -44 -192.5t-155 -147.5l-28 -19v-4h686z" />
    <glyph glyph-name="tilde.uc" horiz-adv-x="745" 
d="M123 1679q7 59 30 114t59.5 101t91.5 73.5t120 27.5q43 0 81.5 -16t62.5 -35.5t56 -35.5t62 -16q40 0 65.5 22.5t41.5 82.5h157q-14 -137 -89 -226.5t-191 -89.5q-50 0 -94.5 16t-71 35.5t-57.5 35.5t-58 16q-66 0 -110 -105h-156z" />
    <glyph glyph-name="cent.tab" 
d="M514 197l141 721q-61 -18 -108.5 -70.5t-75 -123t-41.5 -146t-14 -148.5q0 -180 98 -233zM856 408h299q-13 -106 -61 -190t-121.5 -136.5t-164 -80.5t-192.5 -30l-41 -209h-145l43 220q-172 32 -271.5 146t-99.5 310q0 136 38.5 256.5t111.5 214.5t187 151.5t255 63.5
l35 176h145l-34 -184q171 -27 265.5 -133.5t90.5 -277.5h-309q6 163 -88 206l-144 -735q83 12 135 74.5t66 157.5z" />
    <glyph glyph-name="plus.tab" 
d="M768 614l-78 -401h-264l78 401h-373l45 238h375l78 397h264l-78 -397h375l-45 -238h-377z" />
    <glyph glyph-name="minus.tab" 
d="M158 614l45 238h964l-45 -238h-964z" />
    <glyph glyph-name="multiply.tab" 
d="M244 199l-154 198l381 326l-272 344l209 176l268 -344l377 332l159 -201l-383 -325l273 -345l-211 -178l-264 348z" />
    <glyph glyph-name="divide.tab" 
d="M555 1008l57 292h308l-58 -292h-307zM152 614l45 238h964l-45 -238h-964zM696 160h-305l58 295h305z" />
    <glyph glyph-name="equal.tab" 
d="M190 819l48 236h964l-47 -236h-965zM1075 399h-964l45 236h964z" />
    <glyph glyph-name="less.tab" 
d="M1016 102l-901 508l30 152l1096 504l-53 -289l-696 -305l571 -318z" />
    <glyph glyph-name="greater.tab" 
d="M260 1266l899 -504l-31 -154l-1091 -504l53 287l694 309l-573 316z" />
    <glyph glyph-name="florin.tab" 
d="M774 713l-252 -1100h-307l248 1100h-230l41 227h240l57 254q21 100 55.5 175t77 122.5t97 77.5t111 41.5t124.5 11.5q94 0 154 -12l-27 -238q-40 8 -84 8q-38 0 -65.5 -7.5t-53.5 -28t-46 -61t-33 -101.5l-56 -242h232l-43 -227h-240z" />
    <glyph glyph-name="plusminus.tab" 
d="M786 756l-67 -348h-256l67 348h-378l47 237h376l68 344h256l-68 -344h381l-47 -237h-379zM6 0l45 236h1014l-45 -236h-1014z" />
    <glyph glyph-name="notequal.tab" 
d="M526 399l-139 -215h-188l139 215h-225l45 236h331l119 184h-413l47 236h518l145 227h189l-146 -227h258l-47 -236h-362l-119 -184h444l-45 -236h-551z" />
    <glyph glyph-name="approxequal.tab" 
d="M186 778q21 154 108 246t232 92q56 0 125 -23.5t131 -47t101 -23.5q93 0 110 102h201q-22 -163 -104 -250.5t-220 -87.5q-59 0 -131 24t-135.5 47.5t-103.5 23.5q-85 0 -111 -103h-203zM106 371q20 154 106 246t232 92q71 0 192.5 -47.5t166.5 -47.5q92 0 110 103h199
q-21 -162 -103.5 -250t-220.5 -88q-58 0 -130 23.5t-135.5 47t-102.5 23.5q-86 0 -111 -102h-203z" />
    <glyph glyph-name="lessequal.tab" 
d="M1077 315l-901 508l31 150l1096 504l-54 -287l-696 -307l571 -316zM1016 0h-993l47 236h993z" />
    <glyph glyph-name="greaterequal.tab" 
d="M303 1470l901 -501l-30 -154l-1094 -504l53 287l696 309l-573 316zM1016 0h-991l45 236h993z" />
    <glyph glyph-name="period.tab" horiz-adv-x="614" 
d="M88 0l62 326h339l-61 -326h-340z" />
    <glyph glyph-name="comma.tab" horiz-adv-x="614" 
d="M-4 -240l176 566h334l-297 -566h-213z" />
    <glyph glyph-name="colon.tab" horiz-adv-x="614" 
d="M182 754l64 325h336l-64 -325h-336zM373 0h-336l63 326h334z" />
    <glyph glyph-name="semicolon.tab" horiz-adv-x="614" 
d="M195 754l63 325h336l-64 -325h-335zM141 -240h-213l176 566h334z" />
    <glyph glyph-name="hungarumlaut.uc" horiz-adv-x="833" 
d="M588 1702l123 272h252l-191 -272h-184zM256 1702l96 272h252l-166 -272h-182z" />
    <glyph glyph-name="currency.tab" 
d="M430 713q0 -86 49.5 -140.5t130.5 -54.5q82 0 132.5 54.5t50.5 140.5t-50.5 140t-132.5 54q-81 0 -130.5 -54t-49.5 -140zM231 713q0 88 37 170l-198 196l176 176l196 -200q76 39 168 39t172 -41l201 204l176 -176l-207 -200q39 -76 39 -168q0 -95 -39 -168l205 -201
l-176 -176l-201 203q-73 -37 -170 -37q-93 0 -168 35l-198 -203l-174 176l200 197q-39 80 -39 174z" />
    <glyph glyph-name="percent.tab" horiz-adv-x="1843" 
d="M176 -82l1352 1681h239l-1349 -1681h-242zM231 1069q0 193 114 321t282 128q149 0 229 -79t80 -218q0 -191 -113.5 -317t-283.5 -126q-144 0 -226 78t-82 213zM555 948q55 0 94.5 41.5t56.5 100t17 124.5q0 136 -111 136q-80 0 -125 -81.5t-45 -193.5q0 -57 27.5 -92
t85.5 -35zM1296 -14q-145 0 -226 76.5t-81 211.5q0 193 113.5 321t281.5 128q149 0 229.5 -79t80.5 -216q0 -191 -114 -316.5t-284 -125.5zM1313 156q55 0 94.5 41.5t56.5 100t17 124.5q0 61 -26.5 98t-84.5 37q-80 0 -125 -81.5t-45 -192.5q0 -58 27.5 -92.5t85.5 -34.5z
" />
    <glyph glyph-name="perthousand.tab" horiz-adv-x="2457" 
d="M80 -82l1352 1681h239l-1352 -1681h-239zM154 1069q0 126 50 227.5t139.5 160t201.5 59.5q137 2 217.5 -79.5t81.5 -222.5q1 -188 -110 -311t-279 -123q-139 0 -220 75t-81 214zM471 950q52 0 90 42t54 100t16 122q0 60 -26.5 97t-76.5 37q-77 0 -119 -81.5t-42 -193.5
q0 -57 27 -90t77 -33zM1993 -14q-139 0 -219 75t-80 213q0 191 110.5 319.5t278.5 129.5q138 0 218 -80.5t81 -222.5q1 -187 -109.5 -310.5t-279.5 -123.5zM1192 -14q-139 0 -219 75t-80 213q0 192 110 320t279 129q137 0 217.5 -80.5t81.5 -222.5q1 -187 -109.5 -310.5
t-279.5 -123.5zM2009 158q53 0 91.5 41.5t54.5 99.5t16 123q0 58 -27 94.5t-78 36.5q-52 0 -89 -40.5t-53.5 -100.5t-16.5 -131q0 -57 26.5 -90t75.5 -33zM1208 158q78 0 119 79.5t41 184.5q0 59 -26 95t-76 36q-77 0 -119.5 -81t-42.5 -191q0 -57 27 -90t77 -33z" />
    <glyph glyph-name="idotaccent" horiz-adv-x="591" 
d="M285 1288l57 295h322l-58 -295h-321zM37 0l213 1098h319l-213 -1098h-319z" />
    <glyph glyph-name="A.sc" horiz-adv-x="1351" 
d="M768 1077q-12 -48 -86 -205l-180 -383h340l-54 373q-8 60 -12 113.5t-4 77.5v24h-4zM915 0l-43 281h-475l-139 -281h-303l692 1319h352l230 -1319h-314z" />
    <glyph glyph-name="AE.sc" horiz-adv-x="1957" 
d="M936 516l113 571h-64q-71 -114 -115 -180l-254 -391h320zM834 0l59 303h-414l-196 -303h-349l900 1319h1148l-47 -232h-573l-64 -317h553l-47 -225h-549l-63 -316h594l-45 -229h-907z" />
    <glyph glyph-name="B.sc" horiz-adv-x="1323" 
d="M678 0h-621l262 1319h504q208 0 323.5 -77t115.5 -226q0 -134 -74.5 -212t-218.5 -110v-6q116 -25 180.5 -96t64.5 -182q0 -199 -145 -304.5t-391 -105.5zM524 774h217q110 0 162.5 54.5t52.5 138.5q0 66 -44.5 103.5t-133.5 37.5h-188zM412 211h254q112 0 179.5 53.5
t67.5 155.5q0 78 -50.5 119t-147.5 41h-228z" />
    <glyph glyph-name="C.sc" horiz-adv-x="1388" 
d="M1352 860h-326q10 106 -38 179t-148 73q-78 0 -143 -39.5t-108 -104t-73 -149t-43.5 -173.5t-13.5 -179q0 -57 12 -103.5t37.5 -84.5t70 -59.5t105.5 -22.5q103 0 173.5 64.5t100.5 193.5h332q-38 -223 -205 -352.5t-413 -129.5q-256 0 -403.5 125t-147.5 373
q0 182 46.5 337t136.5 274t234 187t326 68q238 0 371.5 -130.5t116.5 -346.5z" />
    <glyph glyph-name="D.sc" horiz-adv-x="1394" 
d="M57 0l260 1319h459q256 0 411.5 -137t155.5 -389q0 -169 -49.5 -312.5t-144 -251t-242 -168.5t-332.5 -61h-518zM418 227h160q106 0 190.5 47t136 127.5t78.5 183.5t27 220q0 146 -79 217.5t-216 71.5h-127z" />
    <glyph glyph-name="Dcroat.sc" horiz-adv-x="1394" 
d="M575 0h-518l111 559h-127l43 203h123l110 557h459q256 0 411.5 -137t155.5 -389q0 -169 -49.5 -312.5t-144 -251t-242 -168.5t-332.5 -61zM418 227h160q106 0 190.5 47t136 127.5t78.5 183.5t27 220q0 146 -79 217.5t-216 71.5h-127l-66 -332h264l-41 -203h-262z" />
    <glyph glyph-name="E.sc" horiz-adv-x="1181" 
d="M57 0l262 1319h887l-47 -229h-569l-64 -320h547l-45 -225h-547l-63 -318h594l-45 -227h-910z" />
    <glyph glyph-name="Eng.sc" horiz-adv-x="1409" 
d="M653 -309h-127l49 223h80q93 0 140 22.5t71 75.5l-274 690q-22 55 -39.5 107t-24.5 77l-6 25h-4l-178 -911h-283l262 1319h328l250 -686q20 -56 34.5 -108.5t19.5 -77.5l5 -25h7l174 897h282l-209 -1057l-30 -162q-44 -231 -161 -320t-366 -89z" />
    <glyph glyph-name="Eth.sc" horiz-adv-x="1394" 
d="M575 0h-518l111 559h-127l43 203h123l110 557h459q256 0 411.5 -137t155.5 -389q0 -169 -49.5 -312.5t-144 -251t-242 -168.5t-332.5 -61zM418 227h160q106 0 190.5 47t136 127.5t78.5 183.5t27 220q0 146 -79 217.5t-216 71.5h-127l-66 -332h264l-41 -203h-262z" />
    <glyph glyph-name="F.sc" horiz-adv-x="1112" 
d="M471 498l-98 -498h-316l262 1319h857l-50 -232h-536l-74 -362h516l-45 -227h-516z" />
    <glyph glyph-name="G.sc" horiz-adv-x="1427" 
d="M1366 909h-315q3 101 -51 159t-148 58q-82 0 -150.5 -41.5t-114 -108t-77.5 -152t-46.5 -172.5t-14.5 -171q0 -295 241 -295q125 -1 206 83.5t114 209.5l8 31h-283l41 203h584l-141 -713h-250l35 182h-7q-46 -93 -148 -152t-249 -59q-154 0 -263.5 64.5t-162.5 175.5
t-53 256q0 185 52.5 344.5t148 276t237 183t311.5 66.5q133 0 232 -33.5t156.5 -93.5t84 -135.5t23.5 -165.5z" />
    <glyph glyph-name="H.sc" horiz-adv-x="1431" 
d="M479 541l-106 -541h-316l260 1319h316l-107 -545h492l106 545h318l-260 -1319h-318l107 541h-492z" />
    <glyph glyph-name="I.sc" horiz-adv-x="622" 
d="M57 0l260 1319h316l-260 -1319h-316z" />
    <glyph glyph-name="IJ.sc" horiz-adv-x="1343" 
d="M61 0l261 1319h315l-260 -1319h-316zM647 -6h-98l49 244h57q61 0 101 12t64 41t36 62t23 91l176 875h311l-182 -909q-47 -234 -167 -325t-370 -91z" />
    <glyph glyph-name="J.sc" horiz-adv-x="845" 
d="M152 -6h-154l51 244h111q60 0 99.5 12t63.5 40.5t36.5 62.5t23.5 91l174 875h311l-180 -909q-47 -235 -166.5 -325.5t-369.5 -90.5z" />
    <glyph glyph-name="K.sc" horiz-adv-x="1331" 
d="M449 395l-78 -395h-314l262 1319h312l-113 -574l551 574h356l-579 -578l348 -741h-328l-258 555z" />
    <glyph glyph-name="L.sc" horiz-adv-x="1095" 
d="M57 0l262 1319h316l-215 -1081h549l-47 -238h-865z" />
    <glyph glyph-name="M.sc" horiz-adv-x="1740" 
d="M57 0l260 1319h435l79 -655l19 -222h4q41 109 94 213l336 664h469l-262 -1319h-299l201 1016h-7q-59 -137 -139 -291l-373 -725h-229l-84 725q-8 68 -12.5 140t-4.5 111l-1 38h-6l-201 -1014h-279z" />
    <glyph glyph-name="N.sc" horiz-adv-x="1409" 
d="M57 0l262 1319h328l250 -686q20 -56 34.5 -108.5t19.5 -77.5l5 -25h7l174 897h282l-260 -1319h-299l-268 702q-21 55 -38 109t-24 81l-6 26h-6l-178 -918h-283z" />
    <glyph glyph-name="O.sc" horiz-adv-x="1462" 
d="M127 512q0 75 10 151t34 158.5t60.5 155.5t94 140t129.5 115t171 76.5t216 28.5t215.5 -32t176 -96.5t121.5 -171.5t44 -246q0 -74 -10 -149t-33.5 -156.5t-60 -154.5t-93.5 -139.5t-129 -114t-171.5 -76t-215.5 -28.5q-93 0 -173.5 17.5t-152.5 58t-123 102t-80.5 153.5
t-29.5 208zM1061 844q0 125 -56.5 199.5t-173.5 74.5q-79 0 -143.5 -43t-105 -111t-68 -156t-38.5 -173t-11 -168q0 -57 12 -104t37.5 -86.5t72.5 -61.5t111 -22q75 0 138 42t103.5 109.5t69 154.5t40.5 174t12 171z" />
    <glyph glyph-name="OE.sc" horiz-adv-x="2035" 
d="M700 193q115 0 201 88t119 245l41 201q16 75 8 145t-32 125t-75.5 88t-123.5 33q-83 0 -149 -44t-106.5 -112t-67.5 -157.5t-37.5 -172.5t-10.5 -165q0 -57 12 -104t37.5 -86.5t72.5 -61.5t111 -22zM932 125q-57 -70 -135 -107.5t-197 -37.5q-68 0 -131.5 14.5t-127 52.5
t-110.5 95.5t-76 151t-28 212.5q1 170 47 320t131 263.5t214.5 179.5t287.5 66q250 0 338 -157h6l25 141h884l-47 -229h-567l-64 -320h545l-45 -225h-545l-63 -318h594l-47 -227h-906l23 125h-6z" />
    <glyph glyph-name="Oslash.sc" horiz-adv-x="1462" 
d="M838 1118q-69 0 -128.5 -29.5t-101 -80t-74 -115t-51 -138.5t-28 -146t-9.5 -142v-23l586 582q-63 92 -194 92zM688 193q81 0 148 42t110.5 108.5t74 153t43.5 173t13 170.5v32l-590 -583q59 -96 201 -96zM1397 803q0 -75 -10 -150.5t-34 -159t-61 -157t-95.5 -141
t-132.5 -116t-176 -77.5t-222 -29q-233 0 -375 119l-137 -135h-199l244 242q-74 126 -74 305q0 76 10 152t34 159.5t61 157.5t95.5 141.5t132.5 116t176 77.5t222 29q222 0 369 -120l149 149h201l-258 -256q80 -125 80 -307z" />
    <glyph glyph-name="P.sc" horiz-adv-x="1236" 
d="M649 438h-190l-86 -438h-316l262 1319h451q216 0 345.5 -95.5t129.5 -279.5q0 -124 -45.5 -222t-126.5 -159t-188.5 -93t-235.5 -32zM504 666h170q122 0 192 69.5t70 196.5q0 84 -52.5 126t-144.5 42h-149z" />
    <glyph glyph-name="Q.sc" horiz-adv-x="1462" 
d="M668 -23q-88 0 -166 17.5t-147.5 58t-119.5 101.5t-79 153t-29 207q0 75 10 151t34 158t61 155.5t94.5 140t129 114t171 76t215.5 28.5q119 0 218.5 -33t176 -98t119.5 -170.5t43 -242.5q0 -244 -89 -421t-241 -270v-10q88 -22 137.5 -62.5t89.5 -123.5l-268 -144
q-64 118 -124.5 169t-155.5 51q-17 0 -35 -2.5t-45 -2.5zM700 190q92 0 164.5 60t114.5 157.5t63 208.5t21 226q0 122 -57 199t-172 77q-79 0 -144 -43t-105.5 -110.5t-68.5 -155.5t-39.5 -173.5t-11.5 -168.5q0 -45 7 -84t24.5 -75t44 -62t67 -41t92.5 -15z" />
    <glyph glyph-name="R.sc" horiz-adv-x="1323" 
d="M510 705h192q115 0 183.5 60.5t68.5 176.5q0 166 -215 166h-151zM469 496l-98 -496h-314l260 1319h457q152 0 268 -43q106 -40 169 -121.5t63 -206.5q0 -147 -80 -254t-240 -157v-5l226 -532h-328l-199 496h-184z" />
    <glyph glyph-name="S.sc" horiz-adv-x="1245" 
d="M66 383h321q0 -92 49.5 -140t159.5 -48q100 0 162.5 44.5t62.5 125.5q0 60 -31.5 96t-107.5 57l-145 41q-177 50 -249.5 136.5t-72.5 219.5q0 191 134.5 306.5t369.5 115.5q242 0 372 -105t119 -276h-317q3 75 -44 117.5t-134 42.5q-86 0 -139.5 -41t-53.5 -114
q0 -59 35 -90t113 -54l157 -45q180 -52 247 -131.5t67 -212.5q0 -210 -153 -333.5t-408 -123.5q-256 0 -391 113.5t-123 298.5z" />
    <glyph glyph-name="T.sc" horiz-adv-x="1212" 
d="M879 1079l-213 -1079h-320l213 1079h-383l49 240h1082l-47 -240h-381z" />
    <glyph glyph-name="Tbar.sc" horiz-adv-x="1212" 
d="M784 598l-118 -598h-320l119 598h-297l39 203h297l55 278h-383l49 240h1082l-47 -240h-381l-56 -278h297l-41 -203h-295z" />
    <glyph glyph-name="Thorn.sc" horiz-adv-x="1216" 
d="M629 475h12q115 3 176.5 55.5t61.5 153.5q0 176 -213 176h-123l-76 -385h162zM625 262h-201l-51 -262h-316l262 1319h316l-49 -252h131q103 0 186 -21t147.5 -64t100 -115.5t35.5 -168.5q0 -115 -41.5 -200.5t-118 -136t-176.5 -75t-225 -24.5z" />
    <glyph glyph-name="U.sc" horiz-adv-x="1368" 
d="M143 504l162 815h320l-162 -799q-31 -168 20 -235q52 -70 172 -70q119 0 187 68q31 33 48.5 80.5t31.5 119.5l163 836h316l-176 -891q-44 -231 -191.5 -344t-402.5 -113q-280 0 -409 143t-79 390z" />
    <glyph glyph-name="V.sc" horiz-adv-x="1296" 
d="M383 0l-186 1319h311l92 -811q6 -57 10 -110.5t5 -77.5l1 -25h5q27 84 86 205l405 819h315l-684 -1319h-360z" />
    <glyph glyph-name="W.sc" horiz-adv-x="1857" 
d="M616 0h-317l-92 1319h307l33 -696q3 -73 2 -126t-3 -83l-3 -29h6q25 90 82 217l317 717h281l57 -701q5 -63 6.5 -121t0.5 -85l-1 -27h6q21 92 74 217l299 717h299l-577 -1319h-312l-47 739q-4 64 -5 119.5t0 79.5l1 23h-6q-21 -85 -82 -224z" />
    <glyph glyph-name="X.sc" horiz-adv-x="1316" 
d="M-45 0l573 698l-274 621h330l166 -414h4l309 414h342l-528 -641l309 -678h-336l-193 471h-4l-356 -471h-342z" />
    <glyph glyph-name="Y.sc" horiz-adv-x="1230" 
d="M356 0l115 575l-291 744h316l178 -512h4l356 512h324l-582 -774l-108 -545h-312z" />
    <glyph glyph-name="Z.sc" horiz-adv-x="1193" 
d="M236 1087l47 232h977l-39 -205l-801 -881h635l-47 -233h-1014l41 207l799 880h-598z" />
    <glyph glyph-name="ampersand.sc" horiz-adv-x="1343" 
d="M571 1008q0 -82 76 -181q89 41 136.5 90t47.5 121q0 51 -31 85t-83 34q-66 0 -106 -44.5t-40 -104.5zM498 580l-11 -7q-151 -72 -151 -208q0 -76 50 -120t144 -44q103 0 197 73zM1196 0h-55q-103 0 -162.5 21t-112.5 75q-164 -123 -395 -123q-197 0 -312.5 90t-115.5 261
q0 77 25.5 141t75.5 113t108 85.5t137 71.5q-84 117 -84 238q0 86 34.5 156t93.5 114t134.5 68t159.5 24q160 2 258.5 -75.5t97.5 -208.5q0 -66 -26.5 -123.5t-76.5 -102.5t-106 -79t-129 -66l156 -209q71 107 141 236h269q-8 -14 -45.5 -77t-48 -81t-40.5 -67t-46 -74
t-39.5 -60t-44.5 -63q39 -39 80 -52.5t112 -13.5z" />
    <glyph glyph-name="uni0237.sc" horiz-adv-x="845" 
d="M152 -6h-154l51 244h111q60 0 99.5 12t63.5 40.5t36.5 62.5t23.5 91l174 875h311l-180 -909q-47 -235 -166.5 -325.5t-369.5 -90.5z" />
    <glyph glyph-name="exclam.sc" horiz-adv-x="659" 
d="M207 422l123 897h354l-256 -897h-221zM408 0h-338l53 283h338z" />
    <glyph glyph-name="exclamdown.sc" horiz-adv-x="659" 
d="M549 897l-123 -897h-354l256 897h221zM348 1319h338l-53 -283h-338z" />
    <glyph glyph-name="germandbls.sc" horiz-adv-x="2490" 
d="M66 383h321q0 -92 49.5 -140t159.5 -48q100 0 162.5 44.5t62.5 125.5q0 60 -31.5 96t-107.5 57l-145 41q-177 50 -249.5 136.5t-72.5 219.5q0 191 134.5 306.5t369.5 115.5q242 0 372 -105t119 -276h-317q3 75 -44 117.5t-134 42.5q-86 0 -139.5 -41t-53.5 -114
q0 -59 35 -90t113 -54l157 -45q180 -52 247 -131.5t67 -212.5q0 -210 -153 -333.5t-408 -123.5q-256 0 -391 113.5t-123 298.5zM1311 383h321q0 -92 49.5 -140t159.5 -48q100 0 162.5 44.5t62.5 125.5q0 60 -31.5 96t-107.5 57l-145 41q-177 50 -249.5 136.5t-72.5 219.5
q0 191 134.5 306.5t369.5 115.5q243 0 373 -105t119 -276h-318q3 75 -44 117.5t-134 42.5q-86 0 -139.5 -41t-53.5 -114q0 -59 35 -90t113 -54l158 -45q93 -27 154.5 -60t96 -76.5t48.5 -92.5t14 -115q0 -210 -153 -333.5t-408 -123.5q-256 0 -391 113.5t-123 298.5z" />
    <glyph glyph-name="question.sc" horiz-adv-x="1187" 
d="M723 418h-270l14 67q15 77 45.5 124.5t95.5 92.5l135 93q58 39 86.5 81t28.5 107q0 62 -44 100.5t-116 38.5q-193 0 -202 -223h-291q2 89 35.5 167.5t96 140.5t162.5 98t224 36q209 0 326.5 -96.5t117.5 -249.5q0 -117 -56 -199.5t-169 -154.5l-135 -86
q-43 -28 -57.5 -50t-22.5 -63zM338 0l53 283h338l-53 -283h-338z" />
    <glyph glyph-name="questiondown.sc" horiz-adv-x="1159" 
d="M512 901h270l-14 -67q-15 -77 -45.5 -125t-95.5 -93l-135 -92q-58 -39 -86.5 -81t-28.5 -107q0 -62 44 -100.5t116 -38.5q193 0 202 223h291q-2 -89 -35.5 -168t-96 -141t-162.5 -98t-224 -36q-209 0 -326.5 97t-117.5 250q0 117 56 199.5t169 154.5l135 86
q43 28 57.5 50t22.5 63zM897 1319l-53 -283h-338l53 283h338z" />
    <glyph glyph-name="quotedblleft.sc" horiz-adv-x="995" 
d="M1038 1319l-176 -535h-317l291 535h202zM621 1319l-175 -535h-317l291 535h201z" />
    <glyph glyph-name="space.tab" horiz-adv-x="614" 
 />
    <glyph glyph-name="quoteleft.sc" horiz-adv-x="581" 
d="M625 1319l-174 -535h-326l299 535h201z" />
    <glyph glyph-name="quoteright.sc" horiz-adv-x="581" 
d="M158 784l176 535h325l-297 -535h-204z" />
    <glyph glyph-name="Lslash.sc" horiz-adv-x="1095" 
d="M59 0l91 455l-148 -45l45 221l146 43l126 645h316l-109 -543l398 119l-43 -221l-398 -119l-63 -317h549l-47 -238h-863z" />
    <glyph glyph-name="AEacute.sc" horiz-adv-x="1957" 
d="M1165 1475l168 356h320l-246 -356h-242zM936 516l113 571h-64q-71 -114 -115 -180l-254 -391h320zM834 0l59 303h-414l-196 -303h-349l900 1319h1148l-47 -232h-573l-64 -317h553l-47 -225h-549l-63 -316h594l-45 -229h-907z" />
    <glyph glyph-name="Aacute.sc" horiz-adv-x="1351" 
d="M725 1475l168 356h319l-245 -356h-242zM768 1077q-12 -48 -86 -205l-180 -383h340l-54 373q-8 60 -12 113.5t-4 77.5v24h-4zM915 0l-43 281h-475l-139 -281h-303l692 1319h352l230 -1319h-314z" />
    <glyph glyph-name="Abreve.sc" horiz-adv-x="1351" 
d="M768 1077q-12 -48 -86 -205l-180 -383h340l-54 373q-8 60 -12 113.5t-4 77.5v24h-4zM915 0l-43 281h-475l-139 -281h-303l692 1319h352l230 -1319h-314zM866 1470q-156 0 -237 94.5t-47 266.5h200q-13 -72 15 -111t86 -39q59 0 100.5 38.5t56.5 111.5h211
q-13 -94 -51 -166t-92 -113.5t-115 -61.5t-127 -20z" />
    <glyph glyph-name="Acircumflex.sc" horiz-adv-x="1351" 
d="M1040 1831l148 -356h-211l-98 159l-150 -159h-221l280 356h252zM768 1077q-12 -48 -86 -205l-180 -383h340l-54 373q-8 60 -12 113.5t-4 77.5v24h-4zM915 0l-43 281h-475l-139 -281h-303l692 1319h352l230 -1319h-314z" />
    <glyph glyph-name="Adieresis.sc" horiz-adv-x="1351" 
d="M930 1520l55 280h272l-55 -280h-272zM510 1520l55 280h275l-56 -280h-274zM768 1077q-12 -48 -86 -205l-180 -383h340l-54 373q-8 60 -12 113.5t-4 77.5v24h-4zM915 0l-43 281h-475l-139 -281h-303l692 1319h352l230 -1319h-314z" />
    <glyph glyph-name="Agrave.sc" horiz-adv-x="1351" 
d="M768 1077q-12 -48 -86 -205l-180 -383h340l-54 373q-8 60 -12 113.5t-4 77.5v24h-4zM915 0l-43 281h-475l-139 -281h-303l692 1319h352l230 -1319h-314zM903 1831l74 -356h-236l-149 356h311z" />
    <glyph glyph-name="Amacron.sc" horiz-adv-x="1351" 
d="M768 1077q-12 -48 -86 -205l-180 -383h340l-54 373q-8 60 -12 113.5t-4 77.5v24h-4zM915 0l-43 281h-475l-139 -281h-303l692 1319h352l230 -1319h-314zM514 1520l41 213h686l-39 -213h-688z" />
    <glyph glyph-name="Aogonek.sc" horiz-adv-x="1351" 
d="M768 1077q-12 -48 -86 -205l-180 -383h340l-54 373q-8 60 -12 113.5t-4 77.5v24h-4zM1188 -209l-35 -182h-59q-138 0 -198 37t-60 118q0 74 54.5 138t153.5 98h-129l-43 281h-475l-139 -281h-303l692 1319h352l230 -1319q-133 -80 -133 -154q0 -55 92 -55z" />
    <glyph glyph-name="Aring.sc" horiz-adv-x="1351" 
d="M881 1450q-113 2 -185.5 60.5t-72.5 164.5q0 122 78.5 200.5t199.5 78.5q124 0 193 -63.5t69 -164.5q0 -125 -79 -200.5t-203 -75.5zM903 1825q-55 0 -87 -39.5t-32 -104.5q0 -47 26.5 -75.5t72.5 -28.5q53 0 85.5 38t32.5 101q0 49 -25 79t-73 30zM768 1077
q-12 -48 -86 -205l-180 -383h340l-54 373q-8 60 -12 113.5t-4 77.5v24h-4zM915 0l-43 281h-475l-139 -281h-303l692 1319h352l230 -1319h-314z" />
    <glyph glyph-name="uni01FA.sc" horiz-adv-x="1351" 
d="M881 1450q-113 2 -185.5 60.5t-72.5 164.5q0 122 78.5 200.5t199.5 78.5q124 0 193 -63.5t69 -164.5q0 -125 -79 -200.5t-203 -75.5zM903 1825q-55 0 -87 -39.5t-32 -104.5q0 -47 26.5 -75.5t72.5 -28.5q53 0 85.5 38t32.5 101q0 49 -25 79t-73 30zM768 1077
q-12 -48 -86 -205l-180 -383h340l-54 373q-8 60 -12 113.5t-4 77.5v24h-4zM915 0l-43 281h-475l-139 -281h-303l692 1319h352l230 -1319h-314zM817 2056l168 273h315l-245 -273h-238z" />
    <glyph glyph-name="Atilde.sc" horiz-adv-x="1351" 
d="M768 1077q-12 -48 -86 -205l-180 -383h340l-54 373q-8 60 -12 113.5t-4 77.5v24h-4zM915 0l-43 281h-475l-139 -281h-303l692 1319h352l230 -1319h-314zM469 1475q11 140 89.5 237.5t207.5 97.5q41 0 79.5 -16t63 -36t55 -36t56.5 -16q72 0 113 106h155
q-15 -144 -90.5 -240.5t-204.5 -96.5q-41 0 -80.5 16.5t-66 35.5t-58 35.5t-57.5 16.5q-72 0 -108 -104h-154z" />
    <glyph glyph-name="Cacute.sc" horiz-adv-x="1388" 
d="M780 1475l168 356h320l-246 -356h-242zM1352 860h-326q10 106 -38 179t-148 73q-78 0 -143 -39.5t-108 -104t-73 -149t-43.5 -173.5t-13.5 -179q0 -57 12 -103.5t37.5 -84.5t70 -59.5t105.5 -22.5q103 0 173.5 64.5t100.5 193.5h332q-38 -223 -205 -352.5t-413 -129.5
q-256 0 -403.5 125t-147.5 373q0 182 46.5 337t136.5 274t234 187t326 68q238 0 371.5 -130.5t116.5 -346.5z" />
    <glyph glyph-name="Ccaron.sc" horiz-adv-x="1388" 
d="M754 1475l-148 356h211l94 -158l156 158h219l-280 -356h-252zM1352 860h-326q10 106 -38 179t-148 73q-78 0 -143 -39.5t-108 -104t-73 -149t-43.5 -173.5t-13.5 -179q0 -57 12 -103.5t37.5 -84.5t70 -59.5t105.5 -22.5q103 0 173.5 64.5t100.5 193.5h332
q-38 -223 -205 -352.5t-413 -129.5q-256 0 -403.5 125t-147.5 373q0 182 46.5 337t136.5 274t234 187t326 68q238 0 371.5 -130.5t116.5 -346.5z" />
    <glyph glyph-name="Ccedilla.sc" horiz-adv-x="1388" 
d="M563 -461q-55 0 -101 15.5t-77 53t-27 91.5h158q6 -41 59 -41q36 0 56 20t20 50q0 27 -15 43t-42 16q-38 0 -62 -27h-126l114 226q-189 33 -294 155t-105 330q0 182 46.5 337t136.5 274t234 187t326 68q238 0 371.5 -130.5t116.5 -346.5h-326q10 106 -38 179t-148 73
q-78 0 -143 -39.5t-108 -104t-73 -149t-43.5 -173.5t-13.5 -179q0 -57 12 -103.5t37.5 -84.5t70 -59.5t105.5 -22.5q103 0 173.5 64.5t100.5 193.5h332q-38 -223 -205 -352.5t-413 -129.5h-43l-56 -108h5q42 31 102 31q63 0 103 -39.5t40 -102.5q0 -98 -67.5 -156.5
t-192.5 -58.5z" />
    <glyph glyph-name="Ccircumflex.sc" horiz-adv-x="1388" 
d="M1096 1831l147 -356h-211l-98 159l-150 -159h-221l281 356h252zM1352 860h-326q10 106 -38 179t-148 73q-78 0 -143 -39.5t-108 -104t-73 -149t-43.5 -173.5t-13.5 -179q0 -57 12 -103.5t37.5 -84.5t70 -59.5t105.5 -22.5q103 0 173.5 64.5t100.5 193.5h332
q-38 -223 -205 -352.5t-413 -129.5q-256 0 -403.5 125t-147.5 373q0 182 46.5 337t136.5 274t234 187t326 68q238 0 371.5 -130.5t116.5 -346.5z" />
    <glyph glyph-name="Cdotaccent.sc" horiz-adv-x="1388" 
d="M1352 860h-326q10 106 -38 179t-148 73q-78 0 -143 -39.5t-108 -104t-73 -149t-43.5 -173.5t-13.5 -179q0 -57 12 -103.5t37.5 -84.5t70 -59.5t105.5 -22.5q103 0 173.5 64.5t100.5 193.5h332q-38 -223 -205 -352.5t-413 -129.5q-256 0 -403.5 125t-147.5 373
q0 182 46.5 337t136.5 274t234 187t326 68q238 0 371.5 -130.5t116.5 -346.5zM772 1520l55 280h277l-55 -280h-277z" />
    <glyph glyph-name="Dcaron.sc" horiz-adv-x="1394" 
d="M57 0l260 1319h459q256 0 411.5 -137t155.5 -389q0 -169 -49.5 -312.5t-144 -251t-242 -168.5t-332.5 -61h-518zM418 227h160q106 0 190.5 47t136 127.5t78.5 183.5t27 220q0 146 -79 217.5t-216 71.5h-127zM680 1475l-148 356h211l95 -158l155 158h219l-280 -356h-252z
" />
    <glyph glyph-name="Eacute.sc" horiz-adv-x="1181" 
d="M668 1475l168 356h319l-246 -356h-241zM57 0l262 1319h887l-47 -229h-569l-64 -320h547l-45 -225h-547l-63 -318h594l-45 -227h-910z" />
    <glyph glyph-name="Ecaron.sc" horiz-adv-x="1181" 
d="M643 1475l-147 356h211l94 -158l155 158h220l-281 -356h-252zM57 0l262 1319h887l-47 -229h-569l-64 -320h547l-45 -225h-547l-63 -318h594l-45 -227h-910z" />
    <glyph glyph-name="Ecircumflex.sc" horiz-adv-x="1181" 
d="M983 1831l147 -356h-210l-99 159l-149 -159h-221l280 356h252zM57 0l262 1319h887l-47 -229h-569l-64 -320h547l-45 -225h-547l-63 -318h594l-45 -227h-910z" />
    <glyph glyph-name="Edieresis.sc" horiz-adv-x="1181" 
d="M872 1520l56 280h272l-55 -280h-273zM453 1520l55 280h274l-55 -280h-274zM57 0l262 1319h887l-47 -229h-569l-64 -320h547l-45 -225h-547l-63 -318h594l-45 -227h-910z" />
    <glyph glyph-name="Edotaccent.sc" horiz-adv-x="1181" 
d="M662 1520l55 280h276l-55 -280h-276zM57 0l262 1319h887l-47 -229h-569l-64 -320h547l-45 -225h-547l-63 -318h594l-45 -227h-910z" />
    <glyph glyph-name="Egrave.sc" horiz-adv-x="1181" 
d="M846 1831l74 -356h-236l-149 356h311zM57 0l262 1319h887l-47 -229h-569l-64 -320h547l-45 -225h-547l-63 -318h594l-45 -227h-910z" />
    <glyph glyph-name="Emacron.sc" horiz-adv-x="1181" 
d="M455 1520l41 213h686l-39 -213h-688zM57 0l262 1319h887l-47 -229h-569l-64 -320h547l-45 -225h-547l-63 -318h594l-45 -227h-910z" />
    <glyph glyph-name="Eogonek.sc" horiz-adv-x="1181" 
d="M926 -209l-35 -182h-60q-138 0 -198 37t-60 118q0 74 55 137.5t154 98.5h-725l262 1319h887l-47 -229h-569l-64 -320h547l-45 -225h-547l-63 -318h594l-45 -227q-133 -80 -133 -154q0 -55 92 -55z" />
    <glyph glyph-name="Gbreve.sc" horiz-adv-x="1427" 
d="M1366 909h-315q3 101 -51 159t-148 58q-82 0 -150.5 -41.5t-114 -108t-77.5 -152t-46.5 -172.5t-14.5 -171q0 -295 241 -295q125 -1 206 83.5t114 209.5l8 31h-283l41 203h584l-141 -713h-250l35 182h-7q-46 -93 -148 -152t-249 -59q-154 0 -263.5 64.5t-162.5 175.5
t-53 256q0 185 52.5 344.5t148 276t237 183t311.5 66.5q133 0 232 -33.5t156.5 -93.5t84 -135.5t23.5 -165.5zM932 1470q-156 0 -237.5 94.5t-47.5 266.5h201q-13 -72 14.5 -111t85.5 -39q59 0 101 39t57 111h211q-13 -94 -51 -166t-92 -113.5t-115 -61.5t-127 -20z" />
    <glyph glyph-name="Gcircumflex.sc" horiz-adv-x="1427" 
d="M1108 1831l147 -356h-211l-98 159l-149 -159h-222l281 356h252zM1366 909h-315q3 101 -51 159t-148 58q-82 0 -150.5 -41.5t-114 -108t-77.5 -152t-46.5 -172.5t-14.5 -171q0 -295 241 -295q125 -1 206 83.5t114 209.5l8 31h-283l41 203h584l-141 -713h-250l35 182h-7
q-46 -93 -148 -152t-249 -59q-154 0 -263.5 64.5t-162.5 175.5t-53 256q0 185 52.5 344.5t148 276t237 183t311.5 66.5q133 0 232 -33.5t156.5 -93.5t84 -135.5t23.5 -165.5z" />
    <glyph glyph-name="Gcommaaccent.sc" horiz-adv-x="1427" 
d="M350 -451l113 320h309l-209 -320h-213zM1366 909h-315q3 101 -51 159t-148 58q-82 0 -150.5 -41.5t-114 -108t-77.5 -152t-46.5 -172.5t-14.5 -171q0 -295 241 -295q125 -1 206 83.5t114 209.5l8 31h-283l41 203h584l-141 -713h-250l35 182h-7q-46 -93 -148 -152
t-249 -59q-154 0 -263.5 64.5t-162.5 175.5t-53 256q0 185 52.5 344.5t148 276t237 183t311.5 66.5q133 0 232 -33.5t156.5 -93.5t84 -135.5t23.5 -165.5z" />
    <glyph glyph-name="Gdotaccent.sc" horiz-adv-x="1427" 
d="M1366 909h-315q3 101 -51 159t-148 58q-82 0 -150.5 -41.5t-114 -108t-77.5 -152t-46.5 -172.5t-14.5 -171q0 -295 241 -295q125 -1 206 83.5t114 209.5l8 31h-283l41 203h584l-141 -713h-250l35 182h-7q-46 -93 -148 -152t-249 -59q-154 0 -263.5 64.5t-162.5 175.5
t-53 256q0 185 52.5 344.5t148 276t237 183t311.5 66.5q133 0 232 -33.5t156.5 -93.5t84 -135.5t23.5 -165.5zM784 1520l56 280h276l-55 -280h-277z" />
    <glyph glyph-name="Hcircumflex.sc" horiz-adv-x="1431" 
d="M1100 1831l147 -356h-211l-98 159l-150 -159h-221l281 356h252zM479 541l-106 -541h-316l260 1319h316l-107 -545h492l106 545h318l-260 -1319h-318l107 541h-492z" />
    <glyph glyph-name="Iacute.sc" horiz-adv-x="622" 
d="M381 1475l168 356h319l-245 -356h-242zM57 0l260 1319h316l-260 -1319h-316z" />
    <glyph glyph-name="questiondown.uc" horiz-adv-x="1198" 
d="M559 1077h283l-23 -116q-21 -104 -54.5 -156t-129.5 -117l-133 -90q-78 -53 -116 -110t-38 -132q0 -79 52 -125.5t145 -46.5q116 0 185 73.5t73 219.5h305q-4 -119 -42.5 -216.5t-110 -169.5t-181.5 -112t-250 -40q-217 0 -353 105.5t-136 285.5q0 145 65.5 246
t196.5 188l147 98q53 35 71.5 65t31.5 89zM969 1567l-60 -312h-352l61 312h351z" />
    <glyph glyph-name="Icircumflex.sc" horiz-adv-x="622" 
d="M696 1831l148 -356h-211l-98 159l-150 -159h-221l280 356h252zM57 0l260 1319h316l-260 -1319h-316z" />
    <glyph glyph-name="Idieresis.sc" horiz-adv-x="622" 
d="M586 1520l55 280h272l-55 -280h-272zM166 1520l55 280h275l-56 -280h-274zM57 0l260 1319h316l-260 -1319h-316z" />
    <glyph glyph-name="Igrave.sc" horiz-adv-x="622" 
d="M57 0l260 1319h316l-260 -1319h-316zM559 1831l74 -356h-236l-149 356h311z" />
    <glyph glyph-name="Imacron.sc" horiz-adv-x="622" 
d="M57 0l260 1319h316l-260 -1319h-316zM170 1520l41 213h686l-39 -213h-688z" />
    <glyph glyph-name="Iogonek.sc" horiz-adv-x="622" 
d="M334 -203l-35 -182h-59q-137 0 -197.5 37.5t-60.5 118.5q0 70 50 131.5t142 97.5h-117l260 1319h316l-260 -1319q-69 -41 -100 -75.5t-31 -71.5q0 -56 92 -56z" />
    <glyph glyph-name="Itilde.sc" horiz-adv-x="622" 
d="M57 0l260 1319h316l-260 -1319h-316zM125 1475q11 140 89.5 237.5t207.5 97.5q41 0 79.5 -16t63 -36t55 -36t56.5 -16q71 0 112 106h156q-15 -144 -90.5 -240.5t-204.5 -96.5q-41 0 -80.5 16.5t-66 35.5t-58 35.5t-57.5 16.5q-72 0 -108 -104h-154z" />
    <glyph glyph-name="Jcircumflex.sc" horiz-adv-x="845" 
d="M930 1831l147 -356h-211l-98 159l-150 -159h-221l281 356h252zM152 -6h-154l51 244h111q60 0 99.5 12t63.5 40.5t36.5 62.5t23.5 91l174 875h311l-180 -909q-47 -235 -166.5 -325.5t-369.5 -90.5z" />
    <glyph glyph-name="Kcommaaccent.sc" horiz-adv-x="1331" 
d="M317 -451l113 320h309l-209 -320h-213zM449 395l-78 -395h-314l262 1319h312l-113 -574l551 574h356l-579 -578l348 -741h-328l-258 555z" />
    <glyph glyph-name="Lacute.sc" horiz-adv-x="1095" 
d="M57 0l262 1319h316l-215 -1081h549l-47 -238h-865zM395 1493l168 356h320l-246 -356h-242z" />
    <glyph glyph-name="Lcaron.sc" horiz-adv-x="1095" 
d="M57 0l262 1319h316l-215 -1081h549l-47 -238h-865zM721 936l86 383h252l-187 -383h-151z" />
    <glyph glyph-name="Lcommaaccent.sc" horiz-adv-x="1095" 
d="M57 0l262 1319h316l-215 -1081h549l-47 -238h-865zM211 -451l113 320h309l-209 -320h-213z" />
    <glyph glyph-name="Nacute.sc" horiz-adv-x="1409" 
d="M788 1475l168 356h320l-246 -356h-242zM57 0l262 1319h328l250 -686q20 -56 34.5 -108.5t19.5 -77.5l5 -25h7l174 897h282l-260 -1319h-299l-268 702q-21 55 -38 109t-24 81l-6 26h-6l-178 -918h-283z" />
    <glyph glyph-name="Ncaron.sc" horiz-adv-x="1409" 
d="M762 1475l-148 356h211l95 -158l155 158h219l-280 -356h-252zM57 0l262 1319h328l250 -686q20 -56 34.5 -108.5t19.5 -77.5l5 -25h7l174 897h282l-260 -1319h-299l-268 702q-21 55 -38 109t-24 81l-6 26h-6l-178 -918h-283z" />
    <glyph glyph-name="Ncommaaccent.sc" horiz-adv-x="1409" 
d="M346 -451l113 320h309l-209 -320h-213zM57 0l262 1319h328l250 -686q20 -56 34.5 -108.5t19.5 -77.5l5 -25h7l174 897h282l-260 -1319h-299l-268 702q-21 55 -38 109t-24 81l-6 26h-6l-178 -918h-283z" />
    <glyph glyph-name="Ntilde.sc" horiz-adv-x="1409" 
d="M57 0l262 1319h328l250 -686q20 -56 34.5 -108.5t19.5 -77.5l5 -25h7l174 897h282l-260 -1319h-299l-268 702q-21 55 -38 109t-24 81l-6 26h-6l-178 -918h-283zM532 1475q11 140 89.5 237.5t207.5 97.5q41 0 79.5 -16t63 -36t55 -36t56.5 -16q72 0 113 106h156
q-15 -144 -90.5 -240.5t-204.5 -96.5q-41 0 -80.5 16.5t-66 35.5t-58 35.5t-57.5 16.5q-73 0 -109 -104h-154z" />
    <glyph glyph-name="Oacute.sc" horiz-adv-x="1462" 
d="M127 512q0 75 10 151t34 158.5t60.5 155.5t94 140t129.5 115t171 76.5t216 28.5t215.5 -32t176 -96.5t121.5 -171.5t44 -246q0 -74 -10 -149t-33.5 -156.5t-60 -154.5t-93.5 -139.5t-129 -114t-171.5 -76t-215.5 -28.5q-93 0 -173.5 17.5t-152.5 58t-123 102t-80.5 153.5
t-29.5 208zM1061 844q0 125 -56.5 199.5t-173.5 74.5q-79 0 -143.5 -43t-105 -111t-68 -156t-38.5 -173t-11 -168q0 -57 12 -104t37.5 -86.5t72.5 -61.5t111 -22q75 0 138 42t103.5 109.5t69 154.5t40.5 174t12 171zM786 1475l168 356h320l-246 -356h-242z" />
    <glyph glyph-name="Obreve.sc" horiz-adv-x="1462" 
d="M127 512q0 75 10 151t34 158.5t60.5 155.5t94 140t129.5 115t171 76.5t216 28.5t215.5 -32t176 -96.5t121.5 -171.5t44 -246q0 -74 -10 -149t-33.5 -156.5t-60 -154.5t-93.5 -139.5t-129 -114t-171.5 -76t-215.5 -28.5q-93 0 -173.5 17.5t-152.5 58t-123 102t-80.5 153.5
t-29.5 208zM1061 844q0 125 -56.5 199.5t-173.5 74.5q-79 0 -143.5 -43t-105 -111t-68 -156t-38.5 -173t-11 -168q0 -57 12 -104t37.5 -86.5t72.5 -61.5t111 -22q75 0 138 42t103.5 109.5t69 154.5t40.5 174t12 171zM926 1470q-156 0 -237.5 94.5t-47.5 266.5h201
q-13 -72 14.5 -111t85.5 -39q59 0 101 39t57 111h211q-13 -94 -51 -166t-92 -113.5t-115 -61.5t-127 -20z" />
    <glyph glyph-name="Ocircumflex.sc" horiz-adv-x="1462" 
d="M1100 1831l147 -356h-211l-98 159l-150 -159h-221l281 356h252zM127 512q0 75 10 151t34 158.5t60.5 155.5t94 140t129.5 115t171 76.5t216 28.5t215.5 -32t176 -96.5t121.5 -171.5t44 -246q0 -74 -10 -149t-33.5 -156.5t-60 -154.5t-93.5 -139.5t-129 -114t-171.5 -76
t-215.5 -28.5q-93 0 -173.5 17.5t-152.5 58t-123 102t-80.5 153.5t-29.5 208zM1061 844q0 125 -56.5 199.5t-173.5 74.5q-79 0 -143.5 -43t-105 -111t-68 -156t-38.5 -173t-11 -168q0 -57 12 -104t37.5 -86.5t72.5 -61.5t111 -22q75 0 138 42t103.5 109.5t69 154.5t40.5 174
t12 171z" />
    <glyph glyph-name="Odieresis.sc" horiz-adv-x="1462" 
d="M989 1520l55 280h273l-55 -280h-273zM569 1520l56 280h274l-55 -280h-275zM127 512q0 75 10 151t34 158.5t60.5 155.5t94 140t129.5 115t171 76.5t216 28.5t215.5 -32t176 -96.5t121.5 -171.5t44 -246q0 -74 -10 -149t-33.5 -156.5t-60 -154.5t-93.5 -139.5t-129 -114
t-171.5 -76t-215.5 -28.5q-93 0 -173.5 17.5t-152.5 58t-123 102t-80.5 153.5t-29.5 208zM1061 844q0 125 -56.5 199.5t-173.5 74.5q-79 0 -143.5 -43t-105 -111t-68 -156t-38.5 -173t-11 -168q0 -57 12 -104t37.5 -86.5t72.5 -61.5t111 -22q75 0 138 42t103.5 109.5
t69 154.5t40.5 174t12 171z" />
    <glyph glyph-name="Ograve.sc" horiz-adv-x="1462" 
d="M127 512q0 75 10 151t34 158.5t60.5 155.5t94 140t129.5 115t171 76.5t216 28.5t215.5 -32t176 -96.5t121.5 -171.5t44 -246q0 -74 -10 -149t-33.5 -156.5t-60 -154.5t-93.5 -139.5t-129 -114t-171.5 -76t-215.5 -28.5q-93 0 -173.5 17.5t-152.5 58t-123 102t-80.5 153.5
t-29.5 208zM1061 844q0 125 -56.5 199.5t-173.5 74.5q-79 0 -143.5 -43t-105 -111t-68 -156t-38.5 -173t-11 -168q0 -57 12 -104t37.5 -86.5t72.5 -61.5t111 -22q75 0 138 42t103.5 109.5t69 154.5t40.5 174t12 171zM963 1831l73 -356h-235l-150 356h312z" />
    <glyph glyph-name="Ohungarumlaut.sc" horiz-adv-x="1462" 
d="M127 512q0 75 10 151t34 158.5t60.5 155.5t94 140t129.5 115t171 76.5t216 28.5t215.5 -32t176 -96.5t121.5 -171.5t44 -246q0 -74 -10 -149t-33.5 -156.5t-60 -154.5t-93.5 -139.5t-129 -114t-171.5 -76t-215.5 -28.5q-93 0 -173.5 17.5t-152.5 58t-123 102t-80.5 153.5
t-29.5 208zM1061 844q0 125 -56.5 199.5t-173.5 74.5q-79 0 -143.5 -43t-105 -111t-68 -156t-38.5 -173t-11 -168q0 -57 12 -104t37.5 -86.5t72.5 -61.5t111 -22q75 0 138 42t103.5 109.5t69 154.5t40.5 174t12 171zM946 1475l174 356h256l-243 -356h-187zM618 1475l148 356
h256l-217 -356h-187z" />
    <glyph glyph-name="Omacron.sc" horiz-adv-x="1462" 
d="M127 512q0 75 10 151t34 158.5t60.5 155.5t94 140t129.5 115t171 76.5t216 28.5t215.5 -32t176 -96.5t121.5 -171.5t44 -246q0 -74 -10 -149t-33.5 -156.5t-60 -154.5t-93.5 -139.5t-129 -114t-171.5 -76t-215.5 -28.5q-93 0 -173.5 17.5t-152.5 58t-123 102t-80.5 153.5
t-29.5 208zM1061 844q0 125 -56.5 199.5t-173.5 74.5q-79 0 -143.5 -43t-105 -111t-68 -156t-38.5 -173t-11 -168q0 -57 12 -104t37.5 -86.5t72.5 -61.5t111 -22q75 0 138 42t103.5 109.5t69 154.5t40.5 174t12 171zM571 1520l41 213h686l-38 -213h-689z" />
    <glyph glyph-name="Oslashacute.sc" horiz-adv-x="1462" 
d="M799 1475l168 356h319l-246 -356h-241zM838 1118q-69 0 -128.5 -29.5t-101 -80t-74 -115t-51 -138.5t-28 -146t-9.5 -142v-23l586 582q-63 92 -194 92zM688 193q81 0 148 42t110.5 108.5t74 153t43.5 173t13 170.5v32l-590 -583q59 -96 201 -96zM1397 803
q0 -75 -10 -150.5t-34 -159t-61 -157t-95.5 -141t-132.5 -116t-176 -77.5t-222 -29q-233 0 -375 119l-137 -135h-199l244 242q-74 126 -74 305q0 76 10 152t34 159.5t61 157.5t95.5 141.5t132.5 116t176 77.5t222 29q222 0 369 -120l149 149h201l-258 -256q80 -125 80 -307z
" />
    <glyph glyph-name="Otilde.sc" horiz-adv-x="1462" 
d="M127 512q0 75 10 151t34 158.5t60.5 155.5t94 140t129.5 115t171 76.5t216 28.5t215.5 -32t176 -96.5t121.5 -171.5t44 -246q0 -74 -10 -149t-33.5 -156.5t-60 -154.5t-93.5 -139.5t-129 -114t-171.5 -76t-215.5 -28.5q-93 0 -173.5 17.5t-152.5 58t-123 102t-80.5 153.5
t-29.5 208zM1061 844q0 125 -56.5 199.5t-173.5 74.5q-79 0 -143.5 -43t-105 -111t-68 -156t-38.5 -173t-11 -168q0 -57 12 -104t37.5 -86.5t72.5 -61.5t111 -22q75 0 138 42t103.5 109.5t69 154.5t40.5 174t12 171zM530 1475q11 140 89.5 237.5t207.5 97.5q41 0 79.5 -16
t63 -36t55 -36t56.5 -16q72 0 113 106h156q-15 -144 -90.5 -240.5t-204.5 -96.5q-41 0 -80.5 16.5t-66 35.5t-58 35.5t-57.5 16.5q-73 0 -109 -104h-154z" />
    <glyph glyph-name="Racute.sc" horiz-adv-x="1323" 
d="M688 1475l168 356h320l-246 -356h-242zM510 705h192q115 0 183.5 60.5t68.5 176.5q0 166 -215 166h-151zM469 496l-98 -496h-314l260 1319h457q152 0 268 -43q106 -40 169 -121.5t63 -206.5q0 -147 -80 -254t-240 -157v-5l226 -532h-328l-199 496h-184z" />
    <glyph glyph-name="Rcaron.sc" horiz-adv-x="1323" 
d="M662 1475l-148 356h211l94 -158l156 158h219l-281 -356h-251zM510 705h192q115 0 183.5 60.5t68.5 176.5q0 166 -215 166h-151zM469 496l-98 -496h-314l260 1319h457q152 0 268 -43q106 -40 169 -121.5t63 -206.5q0 -147 -80 -254t-240 -157v-5l226 -532h-328l-199 496
h-184z" />
    <glyph glyph-name="Rcommaaccent.sc" horiz-adv-x="1308" 
d="M324 -451l112 320h309l-208 -320h-213zM510 705h192q115 0 183.5 60.5t68.5 176.5q0 166 -215 166h-151zM469 496l-98 -496h-314l260 1319h457q152 0 268 -43q106 -40 169 -121.5t63 -206.5q0 -147 -80 -254t-240 -157v-5l226 -532h-328l-199 496h-184z" />
    <glyph glyph-name="Sacute.sc" horiz-adv-x="1245" 
d="M653 1475l168 356h320l-246 -356h-242zM66 383h321q0 -92 49.5 -140t159.5 -48q100 0 162.5 44.5t62.5 125.5q0 60 -31.5 96t-107.5 57l-145 41q-177 50 -249.5 136.5t-72.5 219.5q0 191 134.5 306.5t369.5 115.5q242 0 372 -105t119 -276h-317q3 75 -44 117.5t-134 42.5
q-86 0 -139.5 -41t-53.5 -114q0 -59 35 -90t113 -54l157 -45q180 -52 247 -131.5t67 -212.5q0 -210 -153 -333.5t-408 -123.5q-256 0 -391 113.5t-123 298.5z" />
    <glyph glyph-name="Scaron.sc" horiz-adv-x="1245" 
d="M629 1475l-148 356h211l94 -158l156 158h219l-280 -356h-252zM66 383h321q0 -92 49.5 -140t159.5 -48q100 0 162.5 44.5t62.5 125.5q0 60 -31.5 96t-107.5 57l-145 41q-177 50 -249.5 136.5t-72.5 219.5q0 191 134.5 306.5t369.5 115.5q242 0 372 -105t119 -276h-317
q3 75 -44 117.5t-134 42.5q-86 0 -139.5 -41t-53.5 -114q0 -59 35 -90t113 -54l157 -45q180 -52 247 -131.5t67 -212.5q0 -210 -153 -333.5t-408 -123.5q-256 0 -391 113.5t-123 298.5z" />
    <glyph glyph-name="Scedilla.sc" horiz-adv-x="1245" 
d="M438 -461q-55 0 -101 15.5t-77 53t-27 91.5h158q6 -41 60 -41q35 0 55 20t20 50q0 27 -15 43t-42 16q-37 0 -61 -27h-127l116 230q-169 36 -254.5 140t-76.5 253h321q0 -92 49.5 -140t159.5 -48q100 0 162.5 44.5t62.5 125.5q0 60 -31.5 96t-107.5 57l-145 41
q-177 50 -249.5 136.5t-72.5 219.5q0 191 134.5 306.5t369.5 115.5q242 0 372 -105t119 -276h-317q3 75 -44 117.5t-134 42.5q-86 0 -139.5 -41t-53.5 -114q0 -59 35 -90t113 -54l157 -45q180 -52 247 -131.5t67 -212.5q0 -210 -153 -333.5t-408 -123.5q-51 0 -76 2
l-55 -108h4q42 31 102 31q63 0 103 -39.5t40 -102.5q0 -98 -67.5 -156.5t-192.5 -58.5z" />
    <glyph glyph-name="Scircumflex.sc" horiz-adv-x="1245" 
d="M969 1831l147 -356h-211l-98 159l-150 -159h-221l281 356h252zM66 383h321q0 -92 49.5 -140t159.5 -48q100 0 162.5 44.5t62.5 125.5q0 60 -31.5 96t-107.5 57l-145 41q-177 50 -249.5 136.5t-72.5 219.5q0 191 134.5 306.5t369.5 115.5q242 0 372 -105t119 -276h-317
q3 75 -44 117.5t-134 42.5q-86 0 -139.5 -41t-53.5 -114q0 -59 35 -90t113 -54l157 -45q180 -52 247 -131.5t67 -212.5q0 -210 -153 -333.5t-408 -123.5q-256 0 -391 113.5t-123 298.5z" />
    <glyph glyph-name="Scommaaccent.sc" horiz-adv-x="1245" 
d="M223 -451l113 320h309l-209 -320h-213zM66 383h321q0 -92 49.5 -140t159.5 -48q100 0 162.5 44.5t62.5 125.5q0 60 -31.5 96t-107.5 57l-145 41q-177 50 -249.5 136.5t-72.5 219.5q0 191 134.5 306.5t369.5 115.5q242 0 372 -105t119 -276h-317q3 75 -44 117.5t-134 42.5
q-86 0 -139.5 -41t-53.5 -114q0 -59 35 -90t113 -54l157 -45q180 -52 247 -131.5t67 -212.5q0 -210 -153 -333.5t-408 -123.5q-256 0 -391 113.5t-123 298.5z" />
    <glyph glyph-name="Tcaron.sc" horiz-adv-x="1212" 
d="M879 1079l-213 -1079h-320l213 1079h-383l49 240h1082l-47 -240h-381zM647 1475l-147 356h211l94 -158l156 158h219l-281 -356h-252z" />
    <glyph glyph-name="Tcommaaccent.sc" horiz-adv-x="1212" 
d="M879 1079l-213 -1079h-320l213 1079h-383l49 240h1082l-47 -240h-381zM217 -451l113 320h309l-209 -320h-213z" />
    <glyph glyph-name="Uacute.sc" horiz-adv-x="1368" 
d="M762 1475l168 356h319l-245 -356h-242zM143 504l162 815h320l-162 -799q-31 -168 20 -235q52 -70 172 -70q119 0 187 68q31 33 48.5 80.5t31.5 119.5l163 836h316l-176 -891q-44 -231 -191.5 -344t-402.5 -113q-280 0 -409 143t-79 390z" />
    <glyph glyph-name="Ubreve.sc" horiz-adv-x="1368" 
d="M143 504l162 815h320l-162 -799q-31 -168 20 -235q52 -70 172 -70q119 0 187 68q31 33 48.5 80.5t31.5 119.5l163 836h316l-176 -891q-44 -231 -191.5 -344t-402.5 -113q-280 0 -409 143t-79 390zM901 1470q-156 0 -237.5 94.5t-47.5 266.5h201q-13 -72 15 -111t86 -39
q59 0 100.5 38.5t56.5 111.5h211q-13 -94 -51 -166t-92 -113.5t-115 -61.5t-127 -20z" />
    <glyph glyph-name="Ucircumflex.sc" horiz-adv-x="1368" 
d="M1075 1831l148 -356h-211l-99 159l-149 -159h-221l280 356h252zM143 504l162 815h320l-162 -799q-31 -168 20 -235q52 -70 172 -70q119 0 187 68q31 33 48.5 80.5t31.5 119.5l163 836h316l-176 -891q-44 -231 -191.5 -344t-402.5 -113q-280 0 -409 143t-79 390z" />
    <glyph glyph-name="Udieresis.sc" horiz-adv-x="1368" 
d="M965 1520l55 280h272l-55 -280h-272zM545 1520l55 280h274l-55 -280h-274zM143 504l162 815h320l-162 -799q-31 -168 20 -235q52 -70 172 -70q119 0 187 68q31 33 48.5 80.5t31.5 119.5l163 836h316l-176 -891q-44 -231 -191.5 -344t-402.5 -113q-280 0 -409 143t-79 390
z" />
    <glyph glyph-name="Ugrave.sc" horiz-adv-x="1368" 
d="M938 1831l74 -356h-236l-149 356h311zM143 504l162 815h320l-162 -799q-31 -168 20 -235q52 -70 172 -70q119 0 187 68q31 33 48.5 80.5t31.5 119.5l163 836h316l-176 -891q-44 -231 -191.5 -344t-402.5 -113q-280 0 -409 143t-79 390z" />
    <glyph glyph-name="Uhungarumlaut.sc" horiz-adv-x="1368" 
d="M922 1475l174 356h256l-244 -356h-186zM594 1475l147 356h256l-217 -356h-186zM143 504l162 815h320l-162 -799q-31 -168 20 -235q52 -70 172 -70q119 0 187 68q31 33 48.5 80.5t31.5 119.5l163 836h316l-176 -891q-44 -231 -191.5 -344t-402.5 -113q-280 0 -409 143
t-79 390z" />
    <glyph glyph-name="Umacron.sc" horiz-adv-x="1368" 
d="M549 1520l41 213h686l-39 -213h-688zM143 504l162 815h320l-162 -799q-31 -168 20 -235q52 -70 172 -70q119 0 187 68q31 33 48.5 80.5t31.5 119.5l163 836h316l-176 -891q-44 -231 -191.5 -344t-402.5 -113q-280 0 -409 143t-79 390z" />
    <glyph glyph-name="Uogonek.sc" horiz-adv-x="1368" 
d="M678 -385h-60q-139 0 -198.5 39t-59.5 129q0 56 38 104t110 82v11q-217 31 -312.5 168.5t-52.5 355.5l162 815h320l-162 -799q-31 -168 20 -235q52 -70 172 -70q119 0 187 68q31 33 48.5 80.5t31.5 119.5l163 836h316l-176 -891q-39 -205 -151 -309t-290 -135
q-163 -29 -163 -117q0 -70 92 -70z" />
    <glyph glyph-name="Uring.sc" horiz-adv-x="1368" 
d="M913 1450q-113 2 -185.5 60.5t-72.5 164.5q0 122 79 200.5t200 78.5q124 0 193 -63.5t69 -164.5q0 -125 -79.5 -200.5t-203.5 -75.5zM936 1825q-55 0 -87 -39.5t-32 -104.5q0 -47 26 -75.5t72 -28.5q53 0 86 38t33 101q0 49 -25 79t-73 30zM143 504l162 815h320
l-162 -799q-31 -168 20 -235q52 -70 172 -70q119 0 187 68q31 33 48.5 80.5t31.5 119.5l163 836h316l-176 -891q-44 -231 -191.5 -344t-402.5 -113q-280 0 -409 143t-79 390z" />
    <glyph glyph-name="Utilde.sc" horiz-adv-x="1368" 
d="M143 504l162 815h320l-162 -799q-31 -168 20 -235q52 -70 172 -70q119 0 187 68q31 33 48.5 80.5t31.5 119.5l163 836h316l-176 -891q-44 -231 -191.5 -344t-402.5 -113q-280 0 -409 143t-79 390zM506 1475q11 140 89.5 237.5t207.5 97.5q41 0 79.5 -16t63 -36t55 -36
t56.5 -16q71 0 112 106h156q-15 -144 -90.5 -240.5t-204.5 -96.5q-41 0 -80.5 16.5t-66 35.5t-58 35.5t-57.5 16.5q-73 0 -109 -104h-153z" />
    <glyph glyph-name="Wacute.sc" horiz-adv-x="1857" 
d="M616 0h-317l-92 1319h307l33 -696q3 -73 2 -126t-3 -83l-3 -29h6q25 90 82 217l317 717h281l57 -701q5 -63 6.5 -121t0.5 -85l-1 -27h6q21 92 74 217l299 717h299l-577 -1319h-312l-47 739q-4 64 -5 119.5t0 79.5l1 23h-6q-21 -85 -82 -224zM993 1475l168 356h320
l-246 -356h-242z" />
    <glyph glyph-name="Wcircumflex.sc" horiz-adv-x="1857" 
d="M1307 1831l147 -356h-211l-98 159l-150 -159h-221l281 356h252zM616 0h-317l-92 1319h307l33 -696q3 -73 2 -126t-3 -83l-3 -29h6q25 90 82 217l317 717h281l57 -701q5 -63 6.5 -121t0.5 -85l-1 -27h6q21 92 74 217l299 717h299l-577 -1319h-312l-47 739q-4 64 -5 119.5
t0 79.5l1 23h-6q-21 -85 -82 -224z" />
    <glyph glyph-name="Wdieresis.sc" horiz-adv-x="1857" 
d="M1198 1520l55 280h273l-56 -280h-272zM778 1520l56 280h274l-55 -280h-275zM616 0h-317l-92 1319h307l33 -696q3 -73 2 -126t-3 -83l-3 -29h6q25 90 82 217l317 717h281l57 -701q5 -63 6.5 -121t0.5 -85l-1 -27h6q21 92 74 217l299 717h299l-577 -1319h-312l-47 739
q-4 64 -5 119.5t0 79.5l1 23h-6q-21 -85 -82 -224z" />
    <glyph glyph-name="Wgrave.sc" horiz-adv-x="1857" 
d="M616 0h-317l-92 1319h307l33 -696q3 -73 2 -126t-3 -83l-3 -29h6q25 90 82 217l317 717h281l57 -701q5 -63 6.5 -121t0.5 -85l-1 -27h6q21 92 74 217l299 717h299l-577 -1319h-312l-47 739q-4 64 -5 119.5t0 79.5l1 23h-6q-21 -85 -82 -224zM1171 1831l74 -356h-235
l-150 356h311z" />
    <glyph glyph-name="Yacute.sc" horiz-adv-x="1230" 
d="M682 1475l168 356h319l-245 -356h-242zM356 0l115 575l-291 744h316l178 -512h4l356 512h324l-582 -774l-108 -545h-312z" />
    <glyph glyph-name="Ycircumflex.sc" horiz-adv-x="1230" 
d="M997 1831l148 -356h-211l-98 159l-150 -159h-221l280 356h252zM356 0l115 575l-291 744h316l178 -512h4l356 512h324l-582 -774l-108 -545h-312z" />
    <glyph glyph-name="Ydieresis.sc" horiz-adv-x="1230" 
d="M887 1520l55 280h272l-55 -280h-272zM467 1520l55 280h275l-56 -280h-274zM356 0l115 575l-291 744h316l178 -512h4l356 512h324l-582 -774l-108 -545h-312z" />
    <glyph glyph-name="Ygrave.sc" horiz-adv-x="1230" 
d="M356 0l115 575l-291 744h316l178 -512h4l356 512h324l-582 -774l-108 -545h-312zM860 1831l74 -356h-236l-149 356h311z" />
    <glyph glyph-name="Zacute.sc" horiz-adv-x="1193" 
d="M662 1475l167 356h320l-246 -356h-241zM236 1087l47 232h977l-39 -205l-801 -881h635l-47 -233h-1014l41 207l799 880h-598z" />
    <glyph glyph-name="Zcaron.sc" horiz-adv-x="1193" 
d="M637 1475l-148 356h211l95 -158l155 158h219l-280 -356h-252zM236 1087l47 232h977l-39 -205l-801 -881h635l-47 -233h-1014l41 207l799 880h-598z" />
    <glyph glyph-name="Zdotaccent.sc" horiz-adv-x="1193" 
d="M236 1087l47 232h977l-39 -205l-801 -881h635l-47 -233h-1014l41 207l799 880h-598zM655 1520l56 280h276l-55 -280h-277z" />
    <glyph glyph-name="Ldot.sc" horiz-adv-x="1112" 
d="M758 612l55 271h268l-57 -271h-266zM57 0l262 1319h316l-215 -1081h549l-47 -238h-865z" />
    <glyph glyph-name="napostrophe.sc" horiz-adv-x="1409" 
d="M57 0l262 1319h328l250 -686q20 -56 34.5 -108.5t19.5 -77.5l5 -25h7l174 897h282l-260 -1319h-299l-268 702q-21 55 -38 109t-24 81l-6 26h-6l-178 -918h-283z" />
    <glyph glyph-name="Hbar.sc" horiz-adv-x="1431" 
d="M1018 774l37 195h-492l-37 -195h492zM479 541l-106 -541h-316l191 969h-127l35 174h127l34 176h316l-35 -176h492l34 176h318l-35 -176h131l-37 -174h-129l-190 -969h-318l107 541h-492z" />
    <glyph glyph-name="Idotaccent.sc" horiz-adv-x="622" 
d="M57 0l260 1319h316l-260 -1319h-316zM377 1520l55 280h277l-56 -280h-276z" />
    <glyph glyph-name="Ebreve.sc" horiz-adv-x="1181" 
d="M57 0l262 1319h887l-47 -229h-569l-64 -320h547l-45 -225h-547l-63 -318h594l-45 -227h-910zM772 1470q-156 0 -237.5 94.5t-47.5 266.5h201q-13 -72 14.5 -111t85.5 -39q59 0 101 39t57 111h211q-13 -94 -51 -166t-92 -113.5t-115 -61.5t-127 -20z" />
    <glyph glyph-name="yen.tab" 
d="M354 0l60 303h-365l31 156h362l33 166h-366l28 155h340l-272 738h325l166 -527h4l363 527h342l-561 -738h338l-29 -155h-365l-32 -166h368l-30 -156h-369l-59 -303h-312z" />
    <glyph glyph-name="eight.den" horiz-adv-x="872" 
d="M487 895q147 0 230.5 -58.5t83.5 -160.5q0 -166 -189 -223v-7q150 -49 150 -186q0 -124 -100 -201t-291 -77q-348 0 -348 235q0 97 58.5 158t156.5 86v6q-107 47 -107 162q0 119 97.5 192.5t258.5 73.5zM479 743q-63 0 -96 -38.5t-33 -90.5q0 -48 28 -72t77 -24
q56 0 92.5 35t36.5 96q0 43 -29.5 68.5t-75.5 25.5zM383 129q65 0 106 39t41 106q0 51 -34.5 79t-87.5 28q-75 0 -112.5 -41.5t-37.5 -103.5q0 -54 33.5 -80.5t91.5 -26.5z" />
    <glyph glyph-name="five.den" horiz-adv-x="868" 
d="M530 315q0 113 -114 113q-78 0 -144 -66h-192l147 521h588l-37 -181h-409l-60 -200h6q84 78 209 78q117 0 178.5 -64t61.5 -170q0 -170 -112.5 -267t-303.5 -97q-163 0 -247 67.5t-72 204.5h223q0 -51 31 -80t88 -29q70 0 114.5 48t44.5 122z" />
    <glyph glyph-name="four.den" horiz-adv-x="901" 
d="M248 346h241l80 375h-4q-36 -72 -108 -150zM774 186h-115l-38 -186h-211l39 186h-451l31 154l506 543h272l-111 -525h115z" />
    <glyph glyph-name="nine.den" horiz-adv-x="874" 
d="M444 741q-68 0 -107.5 -51.5t-39.5 -120.5q3 -114 111 -114q71 0 111 49.5t40 120.5q0 52 -28 84t-87 32zM322 -18q-139 2 -216 60.5t-77 174.5h211q12 -86 106 -86q155 0 197 272h-4q-33 -47 -89 -73.5t-128 -26.5q-112 0 -183 71.5t-71 180.5q0 154 105 247t282 93
q91 0 157 -26t103.5 -72.5t55 -105t17.5 -130.5q0 -123 -29.5 -227.5t-86 -184t-146.5 -124t-204 -43.5z" />
    <glyph glyph-name="one.den" horiz-adv-x="602" 
d="M119 0l121 573h-191l33 160h31q85 0 141 33q55 38 72 117h209l-187 -883h-229z" />
    <glyph glyph-name="seven.den" horiz-adv-x="798" 
d="M29 0l473 705h-414l39 178h684l-29 -127l-510 -756h-243z" />
    <glyph glyph-name="six.den" horiz-adv-x="888" 
d="M782 340q2 -158 -103.5 -259t-285.5 -101q-166 0 -253 89t-87 246q0 118 30 221.5t87.5 184t149 127.5t206.5 47q139 0 215.5 -65t73.5 -168h-213q-5 38 -30.5 60.5t-71.5 22.5q-148 0 -201 -268h6q37 46 96 73.5t121 27.5q122 0 190 -64.5t70 -173.5zM399 133
q67 0 106.5 51t39.5 121q0 60 -28.5 91.5t-82.5 31.5q-67 0 -107 -50t-40 -122q0 -123 112 -123z" />
    <glyph glyph-name="three.den" horiz-adv-x="862" 
d="M406 377h-111l31 137h96q63 0 104 36.5t41 92.5q0 43 -30 66.5t-78 23.5q-113 0 -133 -112h-226q13 117 110 195.5t267 78.5q147 0 231.5 -58.5t84.5 -160.5q0 -90 -53.5 -145.5t-141.5 -79.5v-5q147 -44 147 -182q0 -134 -107 -208t-280 -74q-168 0 -259 71.5t-79 206.5
h222q-1 -55 31.5 -84t93.5 -29q68 0 107.5 36.5t39.5 92.5q0 45 -25.5 73t-82.5 28z" />
    <glyph glyph-name="two.den" horiz-adv-x="856" 
d="M319 594h-225q15 143 116 222t273 79q135 0 217 -59t82 -174q0 -69 -33 -131t-78.5 -105t-117.5 -94l-215 -158v-4h371l-33 -170h-721l25 123l401 313q109 85 130 106q48 48 48 103q0 41 -27.5 65.5t-74.5 24.5q-123 0 -138 -141z" />
    <glyph glyph-name="zero.den" horiz-adv-x="952" 
d="M51 322q0 83 17.5 163t55.5 154.5t91.5 130.5t132.5 89.5t172 33.5q164 0 254.5 -86.5t89.5 -257.5q-1 -114 -30.5 -214.5t-86 -180t-148 -126t-206.5 -46.5q-166 0 -254 87t-88 253zM406 147q50 0 92 43.5t66.5 110.5t38 140t13.5 139q0 76 -26 111.5t-80 35.5
q-65 0 -114.5 -70.5t-72 -167.5t-22.5 -196q0 -146 105 -146z" />
    <glyph glyph-name="zero.num" horiz-adv-x="952" 
d="M199 1006q0 83 17.5 163t55.5 154.5t91.5 130.5t132 89.5t170.5 33.5q164 0 255.5 -86.5t90.5 -257.5q-1 -114 -30.5 -214.5t-86 -180t-148 -126t-206.5 -46.5q-167 0 -254.5 87t-87.5 253zM553 831q50 0 92 43.5t67 110.5t38.5 140t13.5 139q0 147 -107 147
q-65 0 -114 -70.5t-71.5 -167.5t-22.5 -196q0 -146 104 -146z" />
    <glyph glyph-name="one.num" horiz-adv-x="602" 
d="M266 684l121 573h-192l34 160h31q85 0 141 33q56 39 70 117h211l-186 -883h-230z" />
    <glyph glyph-name="two.num" horiz-adv-x="847" 
d="M459 1278h-226q14 144 112.5 222.5t270.5 78.5q135 0 220.5 -62t85.5 -178q0 -52 -17 -97t-53 -86t-70 -69.5t-90 -70.5l-215 -158v-4h371l-33 -170h-721l25 123l401 313q109 85 130 106q48 48 48 103q0 41 -28 65.5t-74 24.5q-122 0 -137 -141z" />
    <glyph glyph-name="three.num" horiz-adv-x="862" 
d="M553 1061h-111l29 137h98q63 0 103.5 36.5t40.5 92.5q0 43 -30 66.5t-77 23.5q-115 0 -135 -112h-223q13 117 109.5 195.5t265.5 78.5q148 0 232.5 -58t84.5 -161q0 -90 -53.5 -145.5t-141.5 -79.5v-5q148 -44 148 -182q0 -134 -108 -208t-281 -74q-167 0 -257.5 71.5
t-78.5 206.5h221q-1 -55 31.5 -84t93.5 -29q68 0 106.5 37t38.5 93q0 44 -25 72t-81 28z" />
    <glyph glyph-name="four.num" horiz-adv-x="907" 
d="M401 1030h242l80 375h-4q-37 -72 -109 -150zM928 870h-115l-39 -186h-209l39 186h-452l30 154l508 543h271l-111 -525h115z" />
    <glyph glyph-name="five.num" horiz-adv-x="868" 
d="M668 999q0 113 -115 113q-78 0 -143 -65h-193l148 520h587l-37 -181h-411l-58 -200h5q84 78 211 78q116 0 176.5 -63.5t60.5 -170.5q0 -170 -112.5 -267t-301.5 -97q-164 0 -247.5 67t-71.5 205h223q-2 -50 29.5 -79.5t87.5 -29.5q72 0 117 48t45 122z" />
    <glyph glyph-name="six.num" horiz-adv-x="888" 
d="M930 1024q2 -159 -104.5 -259.5t-290.5 -100.5q-168 0 -251 87t-83 242q0 120 30 225t87.5 186t148.5 128t205 47q141 0 217.5 -65t73.5 -168h-215q-5 39 -30.5 61.5t-70.5 22.5q-148 0 -201 -269h7q37 46 96 73.5t121 27.5q122 0 190 -64.5t70 -173.5zM547 817
q66 0 105.5 51t39.5 121q0 123 -110 123q-67 0 -107.5 -50t-40.5 -122q0 -123 113 -123z" />
    <glyph glyph-name="seven.num" horiz-adv-x="798" 
d="M164 684l475 705h-414l39 178h682l-26 -127l-512 -756h-244z" />
    <glyph glyph-name="eight.num" horiz-adv-x="868" 
d="M635 1579q147 0 230 -58.5t83 -160.5q0 -166 -188 -223v-7q147 -48 147 -186q0 -124 -99 -201t-290 -77q-348 0 -348 235q0 96 58 157.5t155 86.5v6q-107 49 -107 162q0 119 99 192.5t260 73.5zM627 1427q-64 0 -96.5 -38t-32.5 -91q0 -48 27.5 -72t76.5 -24
q56 0 91.5 35t35.5 96q0 43 -29 68.5t-73 25.5zM530 813q65 0 105.5 39t40.5 106q0 51 -34.5 79t-88.5 28q-74 0 -112 -41.5t-38 -103.5q0 -53 34.5 -80t92.5 -27z" />
    <glyph glyph-name="nine.num" horiz-adv-x="874" 
d="M592 1425q-68 0 -108 -51.5t-40 -120.5q0 -55 28 -84.5t81 -29.5q73 0 113.5 49.5t40.5 120.5q0 51 -28.5 83.5t-86.5 32.5zM469 666q-139 2 -216.5 61t-76.5 174h211q12 -86 107 -86q154 0 196 272h-6q-70 -100 -215 -100q-112 0 -183 71.5t-71 180.5q-2 154 104 247
t283 93q90 0 156.5 -26t104 -72.5t55.5 -105t18 -130.5q0 -98 -18.5 -185t-56.5 -159.5t-93 -125t-131.5 -81.5t-167.5 -28z" />
    <glyph glyph-name="minus.den" horiz-adv-x="843" 
d="M82 346l31 160h614l-35 -160h-610z" />
    <glyph glyph-name="plus.den" horiz-adv-x="843" 
d="M475 346l-49 -235h-188l49 235h-234l33 160h233l50 233h190l-49 -233h235l-32 -160h-238z" />
    <glyph glyph-name="parenleft.tab" horiz-adv-x="614" 
d="M512 -266h-221q-148 330 -148 684q0 332 137.5 641.5t360.5 554.5h244q-157 -199 -261 -379.5t-167 -389.5t-64 -423q-1 -205 30.5 -369t88.5 -319z" />
    <glyph glyph-name="parenright.tab" horiz-adv-x="614" 
d="M174 1614h221q148 -330 148 -684q0 -332 -137.5 -641.5t-360.5 -554.5h-244q157 199 261 379.5t167 389.5t64 423q1 205 -30.5 369t-88.5 319z" />
    <glyph glyph-name="bracketleft.tab" horiz-adv-x="614" 
d="M6 -266l367 1880h487l-39 -197h-239l-291 -1487h239l-36 -196h-488z" />
    <glyph glyph-name="bracketright.tab" horiz-adv-x="614" 
d="M680 1614l-367 -1880h-487l39 196h239l291 1487h-239l37 197h487z" />
    <glyph glyph-name="braceleft.tab" horiz-adv-x="614" 
d="M100 571h-47l45 224h47q70 0 99.5 30t40.5 107l49 332q30 223 155 303t379 55l-34 -188q-78 4 -127.5 -6.5t-78.5 -39.5t-42 -67t-21 -102l-43 -293q-13 -107 -54 -162.5t-140 -69.5v-8q158 -44 94 -276l-66 -260q-37 -123 -2 -175t181 -61l-37 -188q-126 4 -209 28
t-134 75t-57.5 131.5t21.5 197.5l67 270q18 71 -5.5 107t-80.5 36z" />
    <glyph glyph-name="braceright.tab" horiz-adv-x="614" 
d="M590 782h45l-43 -223h-47q-70 0 -99 -29.5t-40 -107.5l-50 -332q-30 -223 -155 -303t-381 -55l37 188q77 -4 126.5 6t78.5 39.5t42 67.5t21 102l39 277q13 110 56.5 172t141.5 75v9q-158 44 -94 276l66 260q38 123 2.5 175t-182.5 61l39 188q101 -3 173.5 -19t125 -48
t76 -82t26 -121.5t-24.5 -165.5l-65 -266q-18 -72 5 -108t81 -36z" />
    <glyph glyph-name="eight.sub" horiz-adv-x="872" 
d="M465 772q147 0 230 -58.5t83 -160.5q0 -166 -188 -223v-6q149 -49 149 -187q0 -124 -100 -201t-291 -77q-348 0 -348 235q0 97 58.5 158t156.5 86v6q-106 47 -106 162q0 119 97.5 192.5t258.5 73.5zM457 621q-63 0 -96 -38.5t-33 -90.5q0 -48 27.5 -72.5t76.5 -24.5
q56 0 92.5 35t36.5 96q0 43 -29.5 69t-74.5 26zM360 6q65 0 106.5 39.5t41.5 106.5q0 51 -35 78.5t-88 27.5q-75 0 -112 -41.5t-37 -103.5q0 -54 33 -80.5t91 -26.5z" />
    <glyph glyph-name="eight.sup" horiz-adv-x="868" 
d="M655 1683q147 0 230.5 -59.5t83.5 -161.5q0 -166 -189 -223v-4q148 -49 148 -186q0 -126 -99 -203.5t-290 -77.5q-178 0 -263.5 62t-85.5 176q0 95 58.5 156.5t154.5 84.5v6q-106 49 -106 162q0 119 98.5 193.5t259.5 74.5zM647 1530q-64 0 -96.5 -37t-32.5 -90
q0 -48 28 -73t77 -25q56 0 91.5 35t35.5 96q0 44 -29 69t-74 25zM551 915q64 0 104.5 39.5t40.5 108.5q0 51 -34 77.5t-89 26.5q-74 0 -111.5 -40.5t-37.5 -102.5q0 -55 34.5 -82t92.5 -27z" />
    <glyph glyph-name="five.sub" horiz-adv-x="868" 
d="M508 193q0 112 -115 112q-78 0 -143 -65h-193l148 520h588l-37 -180h-410l-59 -201h6q84 78 209 78q116 0 177.5 -64t61.5 -170q0 -170 -112 -267t-303 -97q-163 0 -247.5 67.5t-72.5 204.5h223q0 -50 30.5 -79t88.5 -29q70 0 115 48t45 122z" />
    <glyph glyph-name="five.sup" horiz-adv-x="868" 
d="M690 1102q0 112 -115 115q-74 0 -143 -66h-192l147 518h588l-37 -178h-412l-57 -201h6q88 78 209 78q117 0 178.5 -63.5t61.5 -171.5q0 -170 -112.5 -267.5t-303.5 -97.5q-163 0 -247.5 67.5t-72.5 206.5h224q0 -52 30 -80t88 -28q70 0 115 47t45 121z" />
    <glyph glyph-name="four.sub" horiz-adv-x="901" 
d="M225 223h242l80 375h-4q-37 -71 -109 -149zM752 63h-115l-39 -186h-211l39 186h-451l31 154l506 543h272l-110 -524h114z" />
    <glyph glyph-name="four.sup" horiz-adv-x="907" 
d="M422 1133h242l79 374h-4q-36 -71 -108 -147zM948 973h-114l-39 -187h-209l39 187h-453l31 155l508 541h270l-111 -524h115z" />
    <glyph glyph-name="minus.sub" horiz-adv-x="843" 
d="M59 223l31 160h615l-35 -160h-611z" />
    <glyph glyph-name="minus.sup" horiz-adv-x="843" 
d="M240 1133l30 161h613l-33 -161h-610z" />
    <glyph glyph-name="nine.sub" horiz-adv-x="874" 
d="M422 618q-68 0 -108 -51.5t-40 -120.5q3 -114 111 -114q71 0 111.5 50t40.5 120q0 52 -28 84t-87 32zM299 -141q-139 2 -216 60.5t-77 174.5h211q6 -42 34 -64t73 -22q154 0 196 273h-4q-33 -47 -89 -74t-128 -27q-112 0 -183 71.5t-71 180.5q0 154 105 247t282 93
q91 0 157.5 -26t104 -72.5t55 -105t17.5 -130.5q0 -123 -29.5 -227.5t-86 -184t-147 -124t-204.5 -43.5z" />
    <glyph glyph-name="nine.sup" horiz-adv-x="874" 
d="M612 1528q-68 0 -107.5 -51t-39.5 -119q0 -56 28 -86.5t80 -30.5q72 0 113 50.5t41 119.5q0 51 -28.5 84t-86.5 33zM489 768q-138 2 -215.5 62t-76.5 174h211q13 -86 106 -86q155 0 197 274h-6q-72 -102 -216 -102q-111 0 -182 71.5t-71 179.5q-1 155 104.5 248.5
t282.5 93.5q90 0 156 -25.5t104 -72.5t55.5 -105t17.5 -130q0 -256 -121.5 -419.5t-345.5 -162.5z" />
    <glyph glyph-name="one.sub" horiz-adv-x="602" 
d="M96 -123l121 574h-190l32 159h31q85 0 141 33q55 38 72 117h209l-186 -883h-230z" />
    <glyph glyph-name="one.sup" horiz-adv-x="602" 
d="M287 786l121 574h-193l35 162h31q91 0 141 32q56 39 70 115h210l-186 -883h-229z" />
    <glyph glyph-name="plus.sub" horiz-adv-x="843" 
d="M453 223l-50 -235h-188l49 235h-233l32 160h234l49 233h191l-50 -233h236l-33 -160h-237z" />
    <glyph glyph-name="plus.sup" horiz-adv-x="843" 
d="M633 1135l-49 -238h-191l51 238h-235l35 157h233l49 234h189l-49 -234h235l-31 -157h-237z" />
    <glyph glyph-name="seven.sub" horiz-adv-x="798" 
d="M6 -123l473 705h-413l38 178h684l-28 -127l-510 -756h-244z" />
    <glyph glyph-name="seven.sup" horiz-adv-x="798" 
d="M184 786l475 707h-413l39 176h682l-27 -125l-512 -758h-244z" />
    <glyph glyph-name="six.sub" horiz-adv-x="888" 
d="M760 217q2 -158 -103.5 -259t-285.5 -101q-166 0 -253 89.5t-87 246.5q0 94 18.5 179t57.5 158t94 127t133 84.5t170 30.5q139 0 215.5 -65t73.5 -168h-213q-5 38 -31 61t-72 23q-148 0 -201 -269h7q37 46 96 73.5t121 27.5q122 0 190 -64.5t70 -173.5zM377 10
q67 0 106 51t39 121q0 123 -110 123q-67 0 -107.5 -50t-40.5 -122q0 -123 113 -123z" />
    <glyph glyph-name="six.sup" horiz-adv-x="888" 
d="M950 1126q2 -157 -104.5 -257.5t-290.5 -100.5q-168 0 -251 87t-83 243q0 120 30 224.5t87.5 185t148.5 127t205 46.5q141 0 217.5 -64t73.5 -167h-215q-10 82 -100 82q-148 0 -201 -268h6q37 46 96.5 74t120.5 28q123 0 190.5 -64.5t69.5 -175.5zM567 920q66 0 106 51
t40 121q0 122 -111 122q-67 0 -107 -49.5t-40 -122.5q0 -122 112 -122z" />
    <glyph glyph-name="three.sub" horiz-adv-x="862" 
d="M383 254h-111l31 137h96q63 0 104.5 36.5t41.5 92.5q0 43 -30.5 66.5t-78.5 23.5q-113 0 -133 -112h-225q13 117 110 195.5t267 78.5q147 0 231 -58.5t84 -160.5q0 -90 -53.5 -145.5t-141.5 -79.5v-4q148 -44 148 -183q0 -134 -107 -208t-280 -74q-168 0 -259 71.5
t-79 206.5h221q-1 -55 31.5 -83.5t93.5 -28.5q69 0 108.5 36.5t39.5 92.5q0 44 -26 72t-83 28z" />
    <glyph glyph-name="three.sup" horiz-adv-x="862" 
d="M573 1163h-110l29 140h98q63 0 103 35.5t40 91.5q0 43 -29.5 67.5t-76.5 24.5q-114 0 -135 -115h-224q13 117 109.5 196.5t265.5 79.5q148 0 233 -59t85 -160q0 -92 -53.5 -147.5t-141.5 -77.5v-4q147 -44 147 -182q0 -136 -108 -210.5t-281 -74.5q-167 0 -257.5 72
t-78.5 207h222q-1 -54 32 -83.5t93 -29.5q68 0 106.5 36.5t38.5 94.5q0 44 -25.5 71t-81.5 27z" />
    <glyph glyph-name="two.sub" horiz-adv-x="856" 
d="M297 471h-225q15 143 116 222t273 79q135 0 217 -59t82 -174q0 -52 -17 -99t-51 -87.5t-71.5 -73t-90.5 -70.5l-215 -158v-4h371l-33 -170h-721l25 123l401 313q12 9 34.5 26.5l31.5 24.5t26.5 21t24 20.5l18.5 18.5t16.5 19t11.5 17.5t9.5 19.5t4.5 19.5t2 22.5
q0 41 -28 65.5t-75 24.5q-122 0 -137 -141z" />
    <glyph glyph-name="two.sup" horiz-adv-x="847" 
d="M479 1380h-225q14 145 115 224t274 79q135 0 217 -59.5t82 -175.5q0 -69 -33 -131t-78.5 -105t-117.5 -94l-215 -157v-5h370l-32 -170h-721l24 125l402 312q110 86 134 111q44 46 44 100q0 40 -28.5 65t-74.5 25q-122 0 -137 -144z" />
    <glyph glyph-name="zero.sub" horiz-adv-x="952" 
d="M29 199q0 83 17.5 163t55.5 154.5t91.5 130.5t132.5 89.5t172 33.5q164 0 254.5 -86.5t89.5 -257.5q-1 -114 -30.5 -214.5t-86 -180t-148 -126t-206.5 -46.5q-166 0 -254 87t-88 253zM383 25q50 0 92 43.5t67 110t38.5 139.5t13.5 139q0 76 -26.5 111.5t-80.5 35.5
q-65 0 -114 -70.5t-71.5 -167.5t-22.5 -196q0 -145 104 -145z" />
    <glyph glyph-name="zero.sup" horiz-adv-x="952" 
d="M219 1108q0 83 17.5 163t55.5 154.5t91.5 130.5t132 89.5t170.5 33.5q164 0 255.5 -86t90.5 -256q-1 -114 -30.5 -215t-86 -181t-148 -126.5t-206.5 -46.5q-167 0 -254.5 87.5t-87.5 252.5zM573 934q50 0 92 43.5t67 110t38.5 139.5t13.5 139q0 147 -106 147
q-65 0 -114.5 -70.5t-72 -167.5t-22.5 -196q0 -145 104 -145z" />
    <glyph glyph-name="Q.old" horiz-adv-x="1646" 
d="M1202 -188l-158 198q-119 -43 -266 -43q-136 0 -249.5 37t-202 112t-138.5 199.5t-51 288.5q0 203 58 382t163 313t263 212t348 78q135 0 250 -41t201.5 -119.5t135.5 -203t48 -281.5q0 -247 -88.5 -462t-253.5 -349l135 -172zM485 571q0 -74 15.5 -135.5t49.5 -115
t97 -83.5t150 -30q50 0 86 8l-117 150l197 153l131 -168q161 197 161 633q0 76 -16 139t-49.5 115t-92.5 81.5t-139 29.5q-102 0 -185 -52t-135 -134t-88 -187t-50.5 -206t-14.5 -198z" />
    <glyph glyph-name="Q.scold" horiz-adv-x="1468" 
d="M1047 -135l-123 149q-112 -41 -240 -41q-96 0 -178 18.5t-153 59.5t-121 103t-78.5 153t-28.5 205q0 74 9.5 149t33 157.5t59.5 156t93.5 141t129.5 116t172.5 77t219.5 28.5q115 0 212.5 -31.5t175.5 -95.5t122.5 -171.5t44.5 -247.5q0 -200 -75.5 -379t-209.5 -291
l102 -129zM455 469q0 -128 58.5 -205.5t186.5 -77.5q30 0 76 11l-112 137l172 131l110 -137q63 94 94 234t31 284q0 124 -60 199t-177 75q-82 0 -148.5 -41.5t-108.5 -108t-70.5 -154t-40 -174t-11.5 -173.5z" />
    <glyph glyph-name="Euro.tab" horiz-adv-x="1212" 
d="M1159 440q-39 -216 -176.5 -344.5t-364.5 -128.5q-217 0 -327 143t-96 402h-160l31 158h145q8 76 25 166h-140l31 157h145q27 98 63 177.5t88 149t116 117t149 74.5t186 27q201 0 309.5 -137.5t80.5 -341.5h-258q6 120 -31 180.5t-131 60.5q-170 0 -266 -307h311
l-33 -157h-319q-28 -161 -29 -166h319l-32 -158h-306q-12 -159 31.5 -232t141.5 -73q86 0 145 62.5t88 170.5h264z" />
    <glyph glyph-name="dollar.tab" horiz-adv-x="1212" 
d="M625 942l69 365q-91 -8 -148 -59t-57 -138q0 -63 33.5 -103t102.5 -65zM618 213h11q100 12 164.5 71.5t64.5 149.5q0 68 -37.5 112t-124.5 70zM532 -233h-133l43 219q-208 25 -317 141.5t-96 318.5h295q-4 -101 37 -155t124 -72l84 434l-67 21q-314 91 -314 389
q0 216 155 342.5t394 124.5l33 168l135 4l-35 -182q184 -28 285.5 -134t89.5 -290h-284q9 160 -134 200l-75 -393l79 -24q167 -51 246.5 -146.5t79.5 -243.5q0 -227 -157 -366t-427 -143z" />
    <glyph glyph-name="dieresis.uc" horiz-adv-x="745" 
d="M596 1696l55 280h273l-56 -280h-272zM164 1696l53 280h275l-56 -280h-272z" />
    <glyph glyph-name="zero.tab" 
d="M102 485q0 85 10 178t34 196.5t59 199.5t89.5 184t122 153t159.5 103.5t198 38.5q224 0 341.5 -133t117.5 -381q0 -89 -10 -183.5t-34 -198.5t-59 -199.5t-89.5 -182.5t-122 -151t-159.5 -102t-198 -38q-227 0 -343 133t-116 383zM582 219q75 0 138 69.5t101.5 170.5
t65.5 219t38 211t11 151q0 246 -176 246q-64 0 -119.5 -47.5t-93 -124t-67 -168t-46 -185.5t-25 -169.5t-8.5 -126.5q0 -246 181 -246z" />
    <glyph glyph-name="one.tab" 
d="M1038 0h-936l48 246h337l156 794h-356l41 209h73q155 0 242 62q93 65 123 209h270l-248 -1274h295z" />
    <glyph glyph-name="nine.tab" 
d="M938 1085q0 96 -52.5 157t-144.5 61q-64 0 -116 -29.5t-83.5 -77t-48 -104t-16.5 -115.5q0 -93 49.5 -150t141.5 -57q87 0 149.5 45t91.5 115t29 155zM94 362h277q3 -77 46 -120t124 -43q132 0 225 129t143 377h-6q-122 -154 -332 -154q-176 0 -284 114.5t-107 311.5
q1 160 78.5 289t209 200.5t288.5 71.5q120 1 213 -38t150 -108.5t85.5 -159.5t28.5 -198q0 -96 -10.5 -194.5t-35 -204t-61.5 -201t-94 -182t-127 -149t-166 -99.5t-207 -37q-210 0 -324 112.5t-114 282.5z" />
    <glyph glyph-name="eight.tab" 
d="M795 1540q120 0 221.5 -43.5t166 -131.5t64.5 -206q-1 -139 -80.5 -244t-208.5 -145v-8q94 -43 146 -120.5t51 -188.5q0 -115 -47 -208t-127.5 -152.5t-185.5 -91.5t-224 -32q-228 0 -366.5 105t-138.5 301q0 153 97 266t253 150v6q-74 44 -117.5 116.5t-44.5 165.5
q-2 143 70 249t194 159t277 53zM778 1323q-111 0 -174 -77t-63 -187q0 -87 51.5 -136t128.5 -49q111 0 176.5 80t63.5 185q0 85 -52 134.5t-131 49.5zM584 180q124 0 198 77.5t74 199.5q0 97 -62 149.5t-155 52.5q-122 0 -196 -77.5t-74 -198.5q0 -97 61 -150t154 -53z" />
    <glyph glyph-name="seven.tab" 
d="M88 0l840 1270h-715l53 248h1055l-41 -193l-870 -1325h-322z" />
    <glyph glyph-name="six.tab" 
d="M1233 1153h-279q-3 74 -45.5 114t-117.5 40q-125 0 -217 -122.5t-142 -365.5h6q67 82 144.5 122t181.5 40q172 0 282 -113t109 -299q-1 -136 -45.5 -249t-122.5 -189t-184.5 -118.5t-229.5 -43.5q-229 -1 -350 135.5t-121 374.5q0 90 11.5 187t37.5 201.5t64 200.5
t95.5 182.5t127.5 150.5t164 101.5t201 37.5q202 0 316 -109.5t114 -277.5zM598 211q83 1 146 52.5t93.5 127t30.5 160.5q0 96 -53.5 153.5t-146.5 57.5q-82 0 -144.5 -49t-93.5 -123.5t-31 -159.5q0 -99 52.5 -159t146.5 -60z" />
    <glyph glyph-name="five.tab" 
d="M63 420h287q1 -103 55.5 -156t155.5 -53q129 0 204 95t77 239q1 101 -50.5 157t-140.5 56q-158 0 -245 -113h-248l200 873h859l-50 -256h-604l-86 -385h4q131 110 297 110q174 0 277 -109t102 -305q-1 -180 -81 -318.5t-219 -212t-314 -73.5q-125 0 -223 36t-156 98
t-84 143.5t-17 173.5z" />
    <glyph glyph-name="space_uni0326.alt" horiz-adv-x="745" 
d="M713 1602l-119 -338h-315l225 338h209z" />
    <glyph glyph-name="four.tab" 
d="M360 578h377l121 620h-6q-37 -66 -121 -170zM1149 344h-170l-68 -344h-290l65 344h-643l41 219l782 955h340l-180 -932h168z" />
    <glyph glyph-name="three.tab" 
d="M637 651h-100l45 234h106q116 0 181 63t65 164q0 89 -53 141t-148 52q-100 0 -164 -60.5t-73 -171.5h-281q17 219 167.5 343t379.5 124q216 0 338.5 -108t122.5 -273q0 -138 -76 -241.5t-225 -147.5v-4q211 -83 211 -313q0 -149 -77 -260.5t-201.5 -167.5t-276.5 -56
q-136 0 -239.5 37t-164 101.5t-86.5 148t-16 180.5h286q0 -109 57 -166t169 -57q129 0 197.5 73t68.5 177q0 89 -56.5 138.5t-156.5 49.5z" />
    <glyph glyph-name="uni021A.sc" horiz-adv-x="1212" 
d="M879 1079l-213 -1079h-320l213 1079h-383l49 240h1082l-47 -240h-381zM217 -451l113 320h309l-209 -320h-213z" />
    <glyph glyph-name="two.tab" 
d="M201 1018q12 257 159.5 389.5t405.5 132.5q201 0 323.5 -109.5t122.5 -285.5q0 -72 -19 -137.5t-46 -115t-80 -109t-95.5 -99t-117.5 -104.5l-379 -328v-2h631l-47 -250h-1065l35 188l592 523q16 14 57.5 50.5t54.5 48.5t45 42t42.5 43t32.5 39t29.5 43t18 41t14 47
t3.5 49q0 83 -48.5 130.5t-134.5 47.5q-103 0 -169.5 -65.5t-73.5 -208.5h-291z" />
    </font>
</defs>
</svg>
