<?xml version="1.0" standalone="no"?>
<!DOCTYPE svg PUBLIC "-//W3C//DTD SVG 1.1//EN" "http://www.w3.org/Graphics/SVG/1.1/DTD/svg11.dtd" >
<svg xmlns="http://www.w3.org/2000/svg" xmlns:xlink="http://www.w3.org/1999/xlink" version="1.1">
<metadata>
Created by FontForge 20201107 at Tue Feb 18 06:32:52 2025
 By 
(c)2012 Kai Bernau and Susana Carvalho with Christian Schwartz under exclusive license to Schwartzco Inc./Commercial Type. All rights reserved.
</metadata>
<defs>
<font id="AtlasGrotesk-LightItalic" horiz-adv-x="1228" >
  <font-face 
    font-family="Atlas Grotesk Light"
    font-weight="300"
    font-style="italic"
    font-stretch="normal"
    units-per-em="2048"
    panose-1="0 0 0 0 0 0 0 0 0 0"
    ascent="1663"
    descent="-385"
    x-height="1073"
    cap-height="1567"
    bbox="-487 -416 2505 2400"
    underline-thickness="102"
    underline-position="-204"
    slope="-11"
    unicode-range="U+0020-FB02"
  />
<missing-glyph horiz-adv-x="1024" 
 />
    <glyph glyph-name="f_f" unicode="ff" horiz-adv-x="1349" 
d="M467 963l-186 -963h-140l187 963h-205l22 110h205l51 268q26 130 116.5 199.5t221.5 69.5q48 0 111 -13l-23 -118q-45 10 -100 10q-80 0 -127 -41.5t-65 -134.5l-48 -240h519l55 281q26 129 116.5 197.5t221.5 68.5q64 0 108 -10l-22 -119q-42 10 -101 10
q-78 0 -125 -42.5t-65 -135.5l-49 -250h266l-22 -110h-265l-186 -963h-139l186 963h-518z" />
    <glyph glyph-name="fi" unicode="fi" horiz-adv-x="1206" 
d="M1032 1339l31 162h149l-30 -162h-150zM778 0l207 1073h139l-206 -1073h-140zM467 963l-186 -963h-140l187 963h-205l22 110h203l55 281q26 129 116.5 197.5t221.5 68.5q62 0 111 -10l-23 -119q-45 10 -100 10q-80 0 -127 -42t-65 -136l-50 -250h267l-21 -110h-266z" />
    <glyph glyph-name="fl" unicode="fl" horiz-adv-x="1210" 
d="M778 0l314 1614h139l-313 -1614h-140zM467 963l-186 -963h-140l187 963h-205l22 110h203l55 281q26 129 116.5 197.5t221.5 68.5q62 0 111 -10l-23 -119q-45 10 -100 10q-80 0 -127 -42t-65 -136l-50 -250h267l-21 -110h-266z" />
    <glyph glyph-name=".notdef" horiz-adv-x="1024" 
 />
    <glyph glyph-name=".null" horiz-adv-x="0" 
 />
    <glyph glyph-name="nonmarkingreturn" horiz-adv-x="682" 
 />
    <glyph glyph-name="space" unicode=" " horiz-adv-x="528" 
 />
    <glyph glyph-name="exclam" unicode="!" horiz-adv-x="536" 
d="M195 430l217 1184h149l-252 -1184h-114zM268 0h-190l37 193h190z" />
    <glyph glyph-name="quotedbl" unicode="&#x22;" horiz-adv-x="653" 
d="M539 1147l51 420h162l-115 -420h-98zM240 1147l49 420h162l-113 -420h-98z" />
    <glyph glyph-name="numbersign" unicode="#" horiz-adv-x="1316" 
d="M526 741h297l111 320h-297zM227 203l144 428h-221l22 110h236l108 320h-223l20 115h242l133 391h117l-133 -391h297l133 391h119l-134 -391h232l-21 -115h-249l-107 -320h234l-23 -110h-250l-141 -428h-119l143 428h-297l-143 -428h-119z" />
    <glyph glyph-name="dollar" unicode="$" horiz-adv-x="1236" 
d="M625 864l108 561q-146 -2 -246 -83.5t-100 -219.5q0 -99 56 -160t171 -94zM584 90h6q77 3 145.5 25.5t124 62.5t88.5 104.5t33 145.5q0 97 -52 158.5t-175 97.5l-52 14zM1124 442q0 -144 -75.5 -251t-201.5 -161.5t-284 -54.5h-2l-41 -213h-108l43 222q-187 26 -292 142
t-95 310h139q-9 -302 270 -340l121 633l-33 10q-166 50 -241.5 139.5t-75.5 223.5t67.5 234t182 151t258.5 51l35 180h110l-37 -188q170 -29 260 -142t78 -282h-135q9 259 -225 309l-113 -579l78 -23q170 -50 243.5 -140t73.5 -231z" />
    <glyph glyph-name="percent" unicode="%" horiz-adv-x="1705" 
d="M117 -82l1431 1681h152l-1434 -1681h-149zM197 1051q0 86 23.5 166.5t69.5 149t123.5 110t176.5 41.5q136 0 210 -75.5t74 -197.5q0 -85 -23.5 -165.5t-69 -148.5t-123.5 -109.5t-177 -41.5q-135 0 -209.5 74t-74.5 197zM492 883q54 0 98.5 24.5t72.5 62.5t47 87t27 95.5
t8 90.5q0 77 -40 124.5t-125 47.5q-53 0 -97 -23.5t-73 -61t-49 -85.5t-28.5 -96t-8.5 -94q0 -77 41 -124.5t127 -47.5zM1206 -12q-134 0 -209 74t-75 196q0 68 14.5 133.5t46 126t77 106t112 72.5t145.5 27q135 0 208.5 -74t73.5 -196q0 -85 -23.5 -165.5t-69 -148.5
t-123.5 -109.5t-177 -41.5zM1217 90q54 0 99 24.5t73.5 62.5t48 87t27.5 96t8 91q0 77 -40 124.5t-126 47.5q-54 0 -98.5 -23.5t-73 -61t-48 -86t-28 -96.5t-8.5 -94q0 -78 40 -125t126 -47z" />
    <glyph glyph-name="ampersand" unicode="&#x26;" horiz-adv-x="1374" 
d="M526 1225q0 -135 103 -307q152 81 209 125q137 105 137 245q0 91 -53.5 150t-145.5 59q-116 0 -183 -76t-67 -196zM561 766l-12 -6q-88 -46 -144.5 -82.5t-103 -84t-67.5 -103.5t-21 -128q0 -129 77.5 -205.5t215.5 -76.5q218 0 358 153q-15 24 -94 162zM1262 -6h-33
q-99 0 -168 35t-129 110q-177 -172 -438 -172q-195 0 -307.5 109t-112.5 278q0 55 10 102.5t27 86t47 75t62 65.5t81 61t94.5 58t110.5 60q-41 74 -59 111.5t-36 105t-18 138.5q0 177 109 282t280 105q150 0 239 -85t89 -225q0 -69 -26 -130.5t-56 -101.5t-97 -89
t-103.5 -70.5t-120.5 -67.5q-17 -9 -25 -14l190 -338q66 -115 76 -133q90 152 142 408h131q-72 -324 -203 -514q59 -78 112 -102t154 -27z" />
    <glyph glyph-name="quotesingle" unicode="'" horiz-adv-x="352" 
d="M240 1147l49 420h162l-113 -420h-98z" />
    <glyph glyph-name="parenleft" unicode="(" horiz-adv-x="612" 
d="M393 -266h-114q-35 110 -55 183t-39 197t-19 251q0 607 469 1249h119q-218 -319 -333 -630t-118 -650q-1 -120 14 -238.5t30.5 -183t45.5 -178.5z" />
    <glyph glyph-name="parenright" unicode=")" horiz-adv-x="612" 
d="M283 1614h112q37 -113 56.5 -183.5t39 -195.5t19.5 -252q0 -607 -469 -1249h-119q218 319 333 630t118 650q1 121 -13.5 236.5t-30.5 185.5t-46 178z" />
    <glyph glyph-name="asterisk" unicode="*" horiz-adv-x="888" 
d="M571 1161h-4l-221 -301l-108 96l270 248v4l-297 74l74 133l262 -139l4 4l29 334h147l-104 -332l4 -2l309 143l27 -141l-324 -76l-2 -4l174 -244l-127 -86z" />
    <glyph glyph-name="plus" unicode="+" horiz-adv-x="1259" 
d="M719 672l-78 -404h-127l78 404h-391l22 121h393l78 401h127l-78 -401h394l-23 -121h-395z" />
    <glyph glyph-name="comma" unicode="," horiz-adv-x="423" 
d="M-76 -240l174 463h183l-250 -463h-107z" />
    <glyph glyph-name="hyphen" unicode="-" horiz-adv-x="800" 
d="M143 621l25 127h573l-24 -127h-574z" />
    <glyph glyph-name="period" unicode="." horiz-adv-x="450" 
d="M47 0l37 195h190l-36 -195h-191z" />
    <glyph glyph-name="slash" unicode="/" horiz-adv-x="1128" 
d="M-139 -266l1276 1880h143l-1272 -1880h-147z" />
    <glyph glyph-name="zero" unicode="0" horiz-adv-x="1351" 
d="M170 494q0 82 10.5 173.5t35 194t60 198.5t90 184t120.5 153t156 104t192 39q146 0 246 -70t145 -188.5t43 -277.5q-1 -84 -12 -175t-35.5 -193t-60 -196t-90 -180.5t-121 -150.5t-157 -102t-194.5 -38q-142 0 -239.5 68.5t-143 184.5t-45.5 272zM610 86q75 0 141.5 33.5
t117.5 90.5t93.5 133t71.5 160t49 172.5t29.5 169.5t9.5 152q0 65 -8 123t-29 115t-53.5 97.5t-85 65.5t-119.5 25q-105 0 -194 -67.5t-146 -171t-97.5 -230.5t-57.5 -242.5t-17 -211.5q0 -83 13.5 -152t45 -130.5t91.5 -96.5t145 -35z" />
    <glyph glyph-name="one" unicode="1" horiz-adv-x="847" 
d="M315 0l228 1165h-307l20 109h80q137 0 203 55q37 31 55 70t39 127h119l-295 -1526h-142z" />
    <glyph glyph-name="two" unicode="2" horiz-adv-x="1218" 
d="M387 1069h-139q24 228 164 349.5t342 121.5q184 0 298.5 -103.5t112.5 -267.5q0 -75 -20.5 -144.5t-51.5 -124t-84.5 -114t-101.5 -102.5t-121 -102l-559 -453v-2h785l-23 -127h-973l23 123l666 549q64 53 105 91t85.5 88t69.5 94.5t41.5 100t15.5 115.5q-1 120 -74 190
t-196 70q-68 0 -126.5 -19t-108.5 -59.5t-84 -110t-46 -163.5z" />
    <glyph glyph-name="three" unicode="3" horiz-adv-x="1245" 
d="M655 709h-71l24 129h70q168 2 265 91t97 242q0 116 -78 183t-200 67q-142 0 -239 -84t-115 -256h-142q7 137 74.5 242t178 161t247.5 56q186 0 300 -98.5t114 -261.5q0 -89 -27 -161t-74.5 -120t-103 -79.5t-121.5 -49.5v-4q96 -26 163.5 -111t67.5 -215
q0 -207 -150.5 -340t-375.5 -133q-228 0 -352 123.5t-105 329.5h140q-4 -161 79 -245.5t246 -84.5q174 0 276.5 100t102.5 246q0 128 -79 200.5t-212 72.5z" />
    <glyph glyph-name="four" unicode="4" horiz-adv-x="1220" 
d="M223 502h559l166 827h-4q-45 -68 -127 -160zM1108 383h-209l-74 -383h-137l74 383h-713l21 115l903 1020h147l-196 -1014h206z" />
    <glyph glyph-name="five" unicode="5" horiz-adv-x="1234" 
d="M961 569q0 142 -74 219.5t-211 77.5q-199 0 -326 -147h-125l207 799h756l-27 -125h-635l-133 -531h4q46 50 132.5 87.5t185.5 37.5q175 0 284.5 -107.5t110.5 -287.5q0 -174 -64.5 -314t-195 -224.5t-307.5 -84.5q-205 0 -322 120t-102 319h139q-6 -154 73.5 -237
t223.5 -83q172 0 289 131t117 350z" />
    <glyph glyph-name="six" unicode="6" horiz-adv-x="1277" 
d="M1231 1202h-135q-3 105 -66.5 165t-171.5 60q-104 0 -193.5 -57t-154 -154.5t-109.5 -215.5t-71 -252h8q68 109 170 166t225 57q189 0 301.5 -113t112.5 -295q0 -259 -153.5 -425.5t-391.5 -166.5q-114 0 -200.5 38.5t-137.5 107t-76.5 155.5t-25.5 191q0 92 12 191
t39 204.5t66 203t97 185.5t128 152.5t162.5 102.5t197.5 38q173 0 270.5 -89.5t96.5 -248.5zM612 88q89 0 163.5 39t122.5 103.5t74.5 145t26.5 165.5q0 138 -76.5 222.5t-224.5 84.5q-118 0 -209.5 -64t-137.5 -161t-46 -207q0 -149 82 -238.5t225 -89.5z" />
    <glyph glyph-name="seven" unicode="7" horiz-adv-x="1079" 
d="M98 0l881 1389h-762l27 129h930l-19 -97l-901 -1421h-156z" />
    <glyph glyph-name="eight" unicode="8" 
d="M768 1540q113 0 207.5 -42t153.5 -127.5t59 -199.5q-1 -151 -94 -261.5t-238 -141.5v-4q98 -29 167 -113t69 -209q0 -141 -74.5 -250.5t-196.5 -166.5t-270 -58q-129 -1 -231 41.5t-165 132.5t-63 215q0 164 106 280.5t277 154.5v4q-90 36 -144.5 115t-54.5 184
q0 99 40 183.5t107.5 141.5t157 89t187.5 32zM762 1425q-156 0 -249 -93.5t-93 -235.5q0 -125 80.5 -193.5t195.5 -68.5q154 0 250 91.5t98 237.5q1 67 -24 119t-66.5 82t-90.5 45.5t-101 15.5zM559 80q174 0 281.5 101.5t107.5 256.5q0 58 -18.5 106.5t-49 80.5t-71.5 54
t-85.5 32t-90.5 10q-175 0 -285 -102.5t-110 -258.5q0 -74 28 -130t75 -87.5t102 -47t116 -15.5z" />
    <glyph glyph-name="nine" unicode="9" horiz-adv-x="1282" 
d="M764 1421q-88 0 -161.5 -36t-121 -96t-74 -135.5t-26.5 -156.5q0 -144 73.5 -227.5t223.5 -83.5q88 0 162 35t121.5 93t73.5 131.5t26 152.5q0 147 -80.5 235t-216.5 88zM526 -31q-177 0 -286 92t-103 254h137q0 -115 72.5 -174t190.5 -59q183 0 316 177.5t198 533.5h-7
q-66 -112 -169.5 -171t-221.5 -59q-192 0 -303.5 112.5t-111.5 301.5q0 243 151 402t387 159q89 0 162 -26t123 -72t84 -110.5t49.5 -139.5t15.5 -160q0 -86 -10.5 -179.5t-34.5 -198t-60 -201t-91.5 -185t-124 -154t-162 -104.5t-201.5 -39z" />
    <glyph glyph-name="colon" unicode=":" horiz-adv-x="505" 
d="M223 831l37 197h193l-39 -197h-191zM254 0h-193l37 197h193z" />
    <glyph glyph-name="semicolon" unicode=";" horiz-adv-x="495" 
d="M209 831l39 197h192l-37 -197h-194zM31 -240h-105l172 463h185z" />
    <glyph glyph-name="less" unicode="&#x3c;" horiz-adv-x="1224" 
d="M969 174l-834 455l21 104l1009 451l-26 -146l-832 -366l688 -367z" />
    <glyph glyph-name="equal" unicode="=" horiz-adv-x="1294" 
d="M240 848l22 125h920l-25 -125h-917zM1090 496h-920l25 125h919z" />
    <glyph glyph-name="greater" unicode="&#x3e;" horiz-adv-x="1224" 
d="M317 1171l834 -454l-18 -103l-1010 -448l24 145l834 365l-688 366z" />
    <glyph glyph-name="question" unicode="?" horiz-adv-x="1095" 
d="M600 420h-131l27 147q22 108 55 155.5t137 115.5l115 73q101 66 151 139t50 193q0 125 -77 197.5t-210 72.5q-167 0 -260 -104t-105 -289h-139q6 109 41 201t97 162t157.5 109.5t216.5 39.5q196 0 308 -107.5t112 -267.5q0 -54 -9 -102t-23 -85t-37.5 -72.5t-45 -59.5
t-53.5 -51t-54.5 -43t-56.5 -39l-100 -66q-83 -56 -105.5 -86t-37.5 -108zM371 0l37 193h188l-37 -193h-188z" />
    <glyph glyph-name="at" unicode="@" horiz-adv-x="2115" 
d="M1511 123q-231 0 -249 196h-7q-51 -100 -133.5 -153t-185.5 -53q-145 0 -227 95t-84 247q-1 83 16.5 166t55.5 160t91 136t129 94.5t164 35.5q99 0 164 -51t88 -136h6l29 154h129l-108 -547q-50 -240 137 -240q64 0 123.5 33.5t108.5 96t78.5 165t29.5 228.5
q0 142 -50.5 263t-142.5 209t-228.5 137.5t-301.5 49.5q-178 0 -339.5 -72.5t-279.5 -196t-188 -296t-70 -363.5q0 -344 202.5 -547.5t541.5 -203.5q161 0 307 50t248 128l59 -82q-257 -203 -631 -203q-194 0 -355.5 62t-272.5 173.5t-172.5 271t-61.5 351.5q0 211 77.5 401
t211 329t323 220.5t404.5 81.5q252 0 444 -94.5t296 -265t104 -391.5q-1 -135 -31.5 -246t-79.5 -182.5t-113 -120t-128 -69.5t-128 -21zM965 225q108 0 191.5 88.5t113.5 227.5l16 75q7 43 8.5 86.5t-12.5 85.5t-37.5 74.5t-66 52t-97.5 19.5q-76 0 -138.5 -43t-101 -112
t-59 -151t-20.5 -165q0 -108 49.5 -173t153.5 -65z" />
    <glyph glyph-name="A" unicode="A" horiz-adv-x="1452" 
d="M897 1427q-87 -174 -104 -206l-324 -590h559l-98 592l-29 204h-4zM1135 0l-88 512h-641l-279 -512h-147l858 1567h168l272 -1567h-143z" />
    <glyph glyph-name="B" unicode="B" horiz-adv-x="1431" 
d="M705 0h-578l303 1567h510q196 0 309 -92.5t113 -249.5q0 -169 -84.5 -261.5t-237.5 -127.5v-5q125 -28 195 -117t70 -225q0 -121 -45 -215t-125.5 -153.5t-189.5 -90t-240 -30.5zM442 895h394q181 0 281 74t100 248q0 109 -75.5 169t-217.5 60h-373zM293 121h399
q465 0 465 381q0 131 -87 200.5t-245 69.5h-405z" />
    <glyph glyph-name="C" unicode="C" horiz-adv-x="1533" 
d="M1501 1116h-141q-12 174 -115.5 265.5t-275.5 91.5q-132 0 -243 -55t-185 -144.5t-126 -205.5t-75 -236t-23 -238q0 -234 111.5 -371t343.5 -137q193 0 320 100.5t165 268.5h142q-44 -218 -212.5 -352t-420.5 -134q-285 0 -439.5 164t-154.5 469q0 146 33 287.5
t101 268.5t163 223.5t227.5 153t286.5 56.5q144 0 257 -51.5t184.5 -160.5t76.5 -263z" />
    <glyph glyph-name="D" unicode="D" horiz-adv-x="1570" 
d="M127 0l303 1567h422q146 0 262.5 -35.5t204 -107.5t135 -189.5t47.5 -273.5q0 -144 -29 -278t-96 -259.5t-165 -218.5t-247 -149t-331 -56h-506zM293 125h366q117 0 215.5 30.5t168.5 82t125.5 122t89.5 146t56.5 159.5t31 157.5t8.5 144.5q0 126 -36.5 219t-104.5 148
t-157.5 81.5t-203.5 26.5h-303z" />
    <glyph glyph-name="E" unicode="E" horiz-adv-x="1361" 
d="M127 0l303 1567h973l-25 -129h-829l-113 -578h760l-27 -125h-757l-117 -606h842l-27 -129h-983z" />
    <glyph glyph-name="F" unicode="F" horiz-adv-x="1232" 
d="M401 682l-131 -682h-143l303 1567h897l-24 -129h-754l-123 -631h686l-25 -125h-686z" />
    <glyph glyph-name="G" unicode="G" horiz-adv-x="1617" 
d="M1509 1151h-139q-1 153 -102 237.5t-275 84.5q-120 0 -222 -41t-174.5 -112t-128 -160.5t-88.5 -191.5t-49 -199.5t-16 -190.5q0 -108 25.5 -196t78 -155t139.5 -104t202 -37q202 0 352 134t193 353l14 72h-469l27 129h610l-150 -774h-129l49 260h-4
q-74 -134 -208 -213.5t-302 -79.5q-279 0 -426 166t-147 449q0 98 15 197.5t48 199t81 189t117.5 167.5t153.5 134.5t193.5 89t233.5 32.5q223 0 360.5 -120.5t136.5 -319.5z" />
    <glyph glyph-name="H" unicode="H" horiz-adv-x="1591" 
d="M410 735l-142 -735h-143l303 1567h143l-137 -705h852l137 705h144l-303 -1567h-144l142 735h-852z" />
    <glyph glyph-name="I" unicode="I" horiz-adv-x="598" 
d="M129 0l303 1567h143l-303 -1567h-143z" />
    <glyph glyph-name="J" unicode="J" horiz-adv-x="849" 
d="M59 -2h-110l22 123h88q90 0 154.5 13t110.5 38t77.5 70t51 101.5t34.5 139.5l211 1084h144l-219 -1135q-17 -86 -42 -150t-68.5 -119.5t-104 -90.5t-148 -54.5t-201.5 -19.5z" />
    <glyph glyph-name="K" unicode="K" horiz-adv-x="1439" 
d="M373 526l-103 -526h-143l303 1567h143l-165 -854l938 854h188l-735 -666l491 -901h-162l-438 809z" />
    <glyph glyph-name="L" unicode="L" horiz-adv-x="1218" 
d="M127 0l303 1567h143l-278 -1438h790l-24 -129h-934z" />
    <glyph glyph-name="M" unicode="M" horiz-adv-x="1935" 
d="M127 0l303 1567h188l244 -1207q7 -36 14.5 -82.5t11.5 -75.5l3 -28h4q53 106 100 186l711 1207h205l-303 -1567h-146l267 1366h-7q-57 -111 -114 -207l-684 -1159h-125l-232 1155l-35 211h-4l-266 -1366h-135z" />
    <glyph glyph-name="N" unicode="N" horiz-adv-x="1595" 
d="M127 0l303 1567h164l516 -1225l55 -147h4l267 1372h135l-303 -1567h-160l-526 1249l-50 131h-4l-266 -1380h-135z" />
    <glyph glyph-name="O" unicode="O" horiz-adv-x="1634" 
d="M170 586q0 149 34.5 294.5t104 273t164.5 225t224.5 154t275.5 56.5q282 0 436 -166.5t154 -453.5q0 -139 -31.5 -279.5t-98 -270t-159 -230t-224.5 -160.5t-284 -60q-283 0 -439.5 167t-156.5 450zM1415 973q0 106 -25 193.5t-77 157.5t-141.5 109.5t-208.5 39.5
q-107 0 -201 -40.5t-163.5 -109.5t-124.5 -158t-89 -189.5t-51.5 -201t-16.5 -194.5q1 -82 16.5 -154t50.5 -135.5t87 -109t129.5 -71.5t173.5 -26q125 0 233 58.5t181.5 152t126 212t76.5 237.5t24 229z" />
    <glyph glyph-name="P" unicode="P" horiz-adv-x="1298" 
d="M723 621h-334l-121 -621h-141l305 1567h387q234 0 364 -105.5t130 -300.5q0 -249 -152.5 -394.5t-437.5 -145.5zM412 739h313q77 0 143 14.5t121.5 46.5t94.5 79.5t61 117t22 156.5q0 293 -366 293h-250z" />
    <glyph glyph-name="Q" unicode="Q" horiz-adv-x="1634" 
d="M764 -27q-284 0 -439 165.5t-155 447.5q0 149 34.5 294.5t104 273t164.5 225t224.5 154t275.5 56.5q282 0 436 -166.5t154 -453.5q0 -271 -113.5 -511t-298.5 -358v-10q121 -7 200 -53.5t140 -140.5l-117 -84q-72 104 -145.5 145t-190.5 41q-36 0 -117 -12.5t-157 -12.5z
M776 84q107 0 201 41t162.5 111.5t122.5 160t86.5 190t49.5 198.5t17 188q0 106 -25 193.5t-77 157.5t-141.5 109.5t-208.5 39.5q-107 0 -201 -40.5t-163.5 -109.5t-124.5 -158t-89 -189.5t-51.5 -201t-16.5 -194.5q1 -104 26.5 -190.5t78 -156.5t143 -109.5t211.5 -39.5z
" />
    <glyph glyph-name="R" unicode="R" horiz-adv-x="1437" 
d="M422 788h422q171 0 272 104t101 279q0 136 -85.5 204.5t-240.5 68.5h-342zM399 668l-131 -668h-141l303 1567h455q229 0 346 -92q129 -99 129 -299q0 -186 -99 -316t-282 -172v-6l254 -682h-154l-245 668h-435z" />
    <glyph glyph-name="S" unicode="S" horiz-adv-x="1396" 
d="M133 446h143q-6 -183 97 -269.5t301 -86.5q65 0 125.5 12.5t114.5 39t93.5 65.5t63 96.5t23.5 126.5q0 99 -53 165t-175 103l-215 66q-165 51 -246 140.5t-81 232.5q0 104 40.5 190t111.5 143t166.5 88t205.5 31q140 0 249.5 -51.5t172 -155t53.5 -241.5h-143
q8 158 -82 245t-262 87q-154 0 -261.5 -87t-107.5 -231q0 -98 52.5 -160t162.5 -94l233 -70q172 -51 249 -146t77 -239q0 -112 -44 -203t-121 -151t-180.5 -92.5t-223.5 -32.5q-121 0 -219.5 27t-173.5 83t-114 150t-32 219z" />
    <glyph glyph-name="T" unicode="T" horiz-adv-x="1314" 
d="M907 1442l-278 -1442h-144l279 1442h-543l25 125h1229l-25 -125h-543z" />
    <glyph glyph-name="U" unicode="U" horiz-adv-x="1529" 
d="M211 578l190 989h144l-178 -916q-18 -92 -26 -157.5t-1 -139.5t37 -123q82 -143 321 -143q233 0 363 139q21 22 38.5 46.5t31.5 56.5t23 54t19 63t14 58t13.5 65.5t11.5 60.5l183 936h141l-207 -1067q-104 -531 -635 -531q-87 0 -160 14t-136 44t-106 78t-70.5 115.5
t-29 156.5t18.5 201z" />
    <glyph glyph-name="V" unicode="V" horiz-adv-x="1417" 
d="M520 0l-254 1567h148l190 -1211q9 -60 14 -113t6 -77l1 -23h4q30 80 98 201l682 1223h147l-876 -1567h-160z" />
    <glyph glyph-name="W" unicode="W" horiz-adv-x="2091" 
d="M549 0h-152l-131 1567h140l92 -1184q4 -56 5.5 -107t0.5 -74v-24h4q25 80 78 193l563 1196h170l92 -1182q4 -54 5.5 -106t1.5 -77l-1 -26h4q35 89 84 195l563 1196h144l-746 -1567h-155l-92 1157q-6 76 -9.5 139t-3.5 88v25h-4q-26 -79 -100 -235z" />
    <glyph glyph-name="X" unicode="X" horiz-adv-x="1449" 
d="M18 0l680 821l-340 746h156l285 -637h4l530 637h160l-629 -754l381 -813h-162l-317 702h-4l-582 -702h-162z" />
    <glyph glyph-name="Y" unicode="Y" horiz-adv-x="1284" 
d="M469 0l135 696l-373 871h156l307 -746h4l609 746h157l-723 -885l-131 -682h-141z" />
    <glyph glyph-name="Z" unicode="Z" horiz-adv-x="1306" 
d="M315 1444l25 123h1063l-21 -109l-1181 -1333h936l-23 -125h-1118l20 109l1180 1335h-881z" />
    <glyph glyph-name="bracketleft" unicode="[" horiz-adv-x="686" 
d="M66 -270l366 1888h410l-21 -107h-278l-326 -1675h277l-21 -106h-407z" />
    <glyph glyph-name="backslash" unicode="\" horiz-adv-x="1069" 
d="M799 -266l-549 1880h125l553 -1880h-129z" />
    <glyph glyph-name="bracketright" unicode="]" horiz-adv-x="708" 
d="M684 1618l-367 -1888h-407l20 106h277l325 1675h-278l22 107h408z" />
    <glyph glyph-name="asciicircum" unicode="^" horiz-adv-x="784" 
d="M666 1614l208 -578h-126l-164 441h-2l-340 -441h-138l443 578h119z" />
    <glyph glyph-name="underscore" unicode="_" horiz-adv-x="813" 
d="M-147 -387l20 108h805l-21 -108h-804z" />
    <glyph glyph-name="grave" unicode="`" horiz-adv-x="614" 
d="M252 1614l141 -324h-108l-189 324h156z" />
    <glyph glyph-name="a" unicode="a" horiz-adv-x="1107" 
d="M399 98q119 0 228 104.5t143 276.5l10 49q-240 0 -362 -28q-100 -22 -156.5 -79.5t-56.5 -141.5q0 -87 50.5 -134t143.5 -47zM346 788h-139q14 139 121 225.5t284 86.5q86 0 152.5 -22t105.5 -60.5t62.5 -91t24 -113.5t-10.5 -127l-86 -444q-13 -76 5.5 -109.5
t72.5 -30.5l-20 -112h-17q-191 0 -168 207h-4q-68 -105 -153 -159t-211 -54q-134 0 -220 77t-86 211q0 265 340 334q119 25 404 25l10 67q13 59 6.5 111.5t-28.5 92t-70.5 62.5t-120.5 23q-104 0 -172.5 -49.5t-81.5 -149.5z" />
    <glyph glyph-name="b" unicode="b" horiz-adv-x="1212" 
d="M94 0l314 1614h139l-141 -725h4q64 99 156 155t204 56q166 0 258 -106t92 -289q0 -101 -19 -201.5t-61 -197t-102 -170t-150 -118.5t-198 -45q-125 0 -208.5 60t-113.5 160h-6l-37 -193h-131zM584 88q86 0 156 44t113.5 111t73 151t41 159t11.5 141q0 141 -63 216
t-185 75q-94 0 -177.5 -57t-135.5 -141t-70 -177l-29 -147q-9 -46 -9 -90t8.5 -86.5t30 -78t52.5 -62.5t78 -42.5t105 -15.5z" />
    <glyph glyph-name="c" unicode="c" horiz-adv-x="1062" 
d="M1012 774h-135q-1 105 -61.5 159t-164.5 54t-186.5 -56.5t-129.5 -146t-71 -188.5t-24 -197q0 -141 66.5 -226.5t205.5 -86.5q71 0 128.5 24.5t92 63.5t54 78.5t26.5 77.5h137q-32 -163 -155.5 -260t-290.5 -97q-194 0 -301 112t-107 308q0 101 22 200.5t69 191
t113 161.5t161 112t207 42q152 0 248 -82.5t96 -243.5z" />
    <glyph glyph-name="d" unicode="d" horiz-adv-x="1206" 
d="M647 985q-85 0 -156 -40t-116.5 -104t-77.5 -146.5t-45.5 -164.5t-13.5 -161q0 -125 61.5 -202t183.5 -77q77 0 144.5 31.5t114.5 83.5t78 115t44 131l31 157q9 55 10 109t-16 102.5t-46 85.5t-79.5 58.5t-116.5 21.5zM1229 1614l-314 -1614h-131l35 184h-6
q-56 -93 -146.5 -152t-207.5 -59q-159 0 -261 103.5t-102 292.5q0 107 21.5 211t66 198.5t107.5 166t153 113.5t195 42q123 0 200.5 -54.5t104.5 -150.5h4l139 719h142z" />
    <glyph glyph-name="e" unicode="e" horiz-adv-x="1093" 
d="M862 614l2 13q13 74 5.5 140t-30.5 116t-75 79t-127 29t-138.5 -31t-108.5 -85t-76 -119t-50 -142h598zM922 268q-35 -130 -146 -212.5t-289 -82.5q-186 0 -289.5 112.5t-103.5 301.5q0 104 21.5 205t66.5 193t109.5 162t157.5 111.5t202 41.5q139 0 225.5 -68.5
t114.5 -187t2 -277.5l-12 -63h-737q-8 -55 -8 -117q0 -88 26 -153.5t88 -106.5t156 -41q216 0 280 182h136z" />
    <glyph glyph-name="f" unicode="f" horiz-adv-x="692" 
d="M467 963l-186 -963h-140l187 963h-205l22 110h205l53 275q26 134 113 203t221 69q65 0 113 -16l-23 -115q-60 12 -98 12q-80 0 -127 -44.5t-67 -145.5l-46 -238h265l-21 -110h-266z" />
    <glyph glyph-name="g" unicode="g" horiz-adv-x="1210" 
d="M866 463l29 153q17 65 9 131t-33 119t-82.5 86t-139.5 33q-87 0 -158 -39.5t-117 -102t-77.5 -144t-45 -161t-13.5 -157.5q0 -125 58.5 -197.5t184.5 -72.5q79 0 147.5 32t115.5 84t78 112.5t44 123.5zM49 -109h131q2 -85 59.5 -137.5t184.5 -52.5q141 0 233 83.5
t129 274.5l27 136h-6q-137 -197 -356 -197q-161 0 -259 100t-98 285q0 105 21.5 207.5t67 194.5t109 162t154.5 111.5t197 41.5q121 0 199 -55t108 -158h4l37 186h129l-196 -1010q-47 -242 -172 -356.5t-340 -114.5q-172 0 -269 81.5t-94 217.5z" />
    <glyph glyph-name="h" unicode="h" horiz-adv-x="1189" 
d="M770 0l123 643q16 82 16 143q0 193 -188 193q-146 0 -242.5 -113t-132.5 -297l-110 -569h-140l314 1614h139l-141 -723h4q53 93 145 151t205 58q180 0 247.5 -114t28.5 -308l-129 -678h-139z" />
    <glyph glyph-name="i" unicode="i" horiz-adv-x="526" 
d="M350 1339l31 162h151l-30 -162h-152zM96 0l207 1073h139l-206 -1073h-140z" />
    <glyph glyph-name="j" unicode="j" horiz-adv-x="526" 
d="M348 1339l31 162h151l-30 -162h-152zM-111 -403q-72 0 -112 20l22 113q38 -15 92 -15q78 0 121 41.5t62 134.5l229 1182h139l-233 -1204q-51 -272 -320 -272z" />
    <glyph glyph-name="k" unicode="k" horiz-adv-x="1095" 
d="M303 344l-67 -344h-140l314 1614h139l-211 -1088l582 547h174l-451 -416l303 -657h-155l-254 563z" />
    <glyph glyph-name="l" unicode="l" horiz-adv-x="526" 
d="M94 0l314 1614h139l-314 -1614h-139z" />
    <glyph glyph-name="m" unicode="m" horiz-adv-x="1843" 
d="M1423 0l125 643q17 83 17 143q0 193 -187 193q-142 0 -237 -109.5t-129 -281.5l-113 -588h-139l123 643q18 88 18 143q0 193 -186 193q-143 0 -238 -113t-131 -297l-110 -569h-140l207 1073h131l-39 -196h4q60 104 150 163.5t205 59.5q123 0 192.5 -65.5t83.5 -178.5h4
q68 116 165 180t218 64q91 0 154.5 -31.5t94.5 -88t39.5 -133.5t-11.5 -169l-131 -678h-140z" />
    <glyph glyph-name="n" unicode="n" horiz-adv-x="1189" 
d="M768 0l125 643q16 78 16 143q0 91 -43 142t-145 51q-146 0 -242.5 -113t-132.5 -297l-110 -569h-140l207 1073h131l-39 -196h4q60 103 152.5 163t210.5 60q180 0 247.5 -114t28.5 -308l-129 -678h-141z" />
    <glyph glyph-name="o" unicode="o" horiz-adv-x="1134" 
d="M492 -27q-189 0 -293.5 112t-104.5 298q0 102 21 202.5t65.5 194t108.5 164.5t156.5 113.5t201.5 42.5q189 0 293 -111.5t104 -296.5q0 -103 -20.5 -204t-65.5 -194.5t-108.5 -164.5t-156 -113.5t-201.5 -42.5zM903 698q0 132 -63 212.5t-201 80.5q-84 0 -154 -40.5
t-115 -104.5t-76 -146.5t-44.5 -164t-13.5 -160.5q0 -132 63 -211.5t201 -79.5q87 0 158 42t115.5 107t74.5 148.5t42.5 162.5t12.5 154z" />
    <glyph glyph-name="p" unicode="p" horiz-adv-x="1212" 
d="M592 88q81 0 148.5 41.5t111 106.5t73.5 147.5t43 161t13 149.5q0 137 -63 214t-189 77q-140 0 -244 -111t-133 -253l-30 -150q-9 -45 -9.5 -89t8 -87.5t29.5 -80.5t52.5 -65.5t80 -44.5t109.5 -16zM20 -385l283 1458h133l-37 -190h4q62 100 156.5 158.5t206.5 58.5
q168 0 262 -106t94 -289q0 -103 -20 -204.5t-63.5 -197t-105 -169t-151.5 -117.5t-196 -44q-119 0 -202.5 61t-109.5 154h-2l-112 -573h-140z" />
    <glyph glyph-name="q" unicode="q" horiz-adv-x="1212" 
d="M1122 1073l-282 -1458h-142l109 555h-4q-56 -86 -144 -141.5t-208 -55.5q-153 0 -254 104t-101 294q0 107 21.5 211t66 198t107.5 165t153 113t195 42q123 0 204 -56t105 -149h6l35 178h133zM483 88q62 0 118 21t99 56t77 82t55.5 98.5t31.5 105.5l33 161q9 55 10 108.5
t-16 101.5t-46 84t-79.5 57.5t-116.5 21.5q-86 0 -157 -40t-117 -103.5t-78 -146t-45.5 -164t-13.5 -160.5q0 -126 62.5 -204.5t182.5 -78.5z" />
    <glyph glyph-name="r" unicode="r" horiz-adv-x="768" 
d="M96 0l207 1073h131l-43 -217h6q55 110 148.5 174t220.5 64h14l-26 -144h-21q-81 0 -149 -31t-114.5 -85t-77.5 -120t-46 -143l-110 -571h-140z" />
    <glyph glyph-name="s" unicode="s" horiz-adv-x="1015" 
d="M920 809h-134q2 81 -54.5 131.5t-168.5 50.5q-95 0 -166.5 -50.5t-70.5 -145.5q0 -68 36 -105t119 -61l117 -33q152 -41 212 -107t60 -176q0 -158 -116 -249t-295 -91q-64 0 -120 11t-106.5 36.5t-86 63.5t-54.5 95.5t-16 129.5h133q-6 -104 58.5 -164.5t197.5 -60.5
q72 0 130 19.5t98 69t40 122.5q0 65 -37.5 107t-138.5 71l-117 33q-125 35 -188.5 97.5t-63.5 178.5q0 148 110 233t273 85q74 0 137.5 -17.5t113 -52t76 -91.5t22.5 -130z" />
    <glyph glyph-name="t" unicode="t" horiz-adv-x="727" 
d="M426 1395h129l-63 -322h266l-23 -110h-264l-131 -676q-20 -103 7.5 -145t117.5 -42q23 0 51.5 3t45.5 7l18 3l-23 -115q-60 -16 -123 -16q-139 0 -202 72t-33 222l133 687h-195l21 106h41q70 0 106 16t59 63t42 148z" />
    <glyph glyph-name="u" unicode="u" horiz-adv-x="1177" 
d="M430 1073l-123 -643q-20 -98 -20 -160q0 -178 186 -178q144 0 240 121t135 319l104 541h142l-209 -1073h-131l41 201h-7q-134 -228 -344 -228q-184 0 -252.5 114t-31.5 308l131 678h139z" />
    <glyph glyph-name="v" unicode="v" horiz-adv-x="989" 
d="M311 0l-159 1073h137l106 -743l19 -164h4q41 86 80 162l391 745h141l-569 -1073h-150z" />
    <glyph glyph-name="w" unicode="w" horiz-adv-x="1593" 
d="M264 0l-106 1073h135l65 -784l9 -123h4q32 70 59 125l387 782h144l81 -784l11 -125h4q30 80 53 127l377 782h137l-526 -1073h-148l-80 754l-12 155h-2q-37 -83 -72 -155l-370 -754h-150z" />
    <glyph glyph-name="x" unicode="x" horiz-adv-x="980" 
d="M-66 0l476 565l-242 508h149l191 -414h4l342 414h160l-441 -520l271 -553h-150l-215 459h-4l-377 -459h-164z" />
    <glyph glyph-name="y" unicode="y" horiz-adv-x="989" 
d="M317 10l-163 1063h137l106 -719l21 -172h6q39 78 78 154l379 737h143l-621 -1169q-94 -178 -176 -245t-215 -67q-30 0 -60 5t-45.5 10t-21.5 8l25 115q63 -21 102 -21q88 1 142.5 46.5t109.5 152.5z" />
    <glyph glyph-name="z" unicode="z" horiz-adv-x="1021" 
d="M217 956l23 117h782l-23 -123l-800 -831h655l-20 -119h-826l23 123l798 833h-612z" />
    <glyph glyph-name="braceleft" unicode="{" horiz-adv-x="690" 
d="M131 629h-43l25 123h45q92 0 134.5 34t59.5 123l90 459q28 147 124 207t288 47l-20 -102q-74 4 -122 -5.5t-78.5 -37t-45.5 -64.5t-27 -98l-82 -416q-9 -45 -19 -74.5t-30 -59.5t-54.5 -48.5t-84.5 -26.5v-6q45 -10 71 -34.5t33.5 -60.5t6 -70t-10.5 -77l-76 -376
q-26 -134 10 -179.5t181 -58.5l-21 -102q-190 8 -262.5 80t-40.5 231l82 424q19 90 -12 129t-121 39z" />
    <glyph glyph-name="bar" unicode="|" horiz-adv-x="573" 
d="M72 -266l366 1880h121l-366 -1880h-121z" />
    <glyph glyph-name="braceright" unicode="}" horiz-adv-x="706" 
d="M618 727h46l-25 -123h-45q-92 0 -135 -34.5t-62 -123.5l-90 -466q-28 -147 -123.5 -207t-287.5 -47l20 102q74 -4 122 5.5t78 37t45 65t27 99.5l78 401q9 45 20.5 78.5t32.5 68t56.5 56t83.5 27.5v6q-44 10 -70 34.5t-33.5 60.5t-6 69.5t10.5 76.5l74 371q11 56 12 92
t-8 63t-34 43t-62.5 25t-97.5 15l20 100q190 -8 261.5 -80.5t41.5 -234.5l-82 -412q-19 -91 12.5 -129.5t120.5 -38.5z" />
    <glyph glyph-name="asciitilde" unicode="~" horiz-adv-x="782" 
d="M47 621q21 115 84 183t166 68q36 0 70 -14.5t60 -35t51 -40.5t51 -34.5t51 -14.5q90 0 122 141h107q-20 -118 -85.5 -184.5t-160.5 -66.5q-43 0 -86 21.5t-71 47t-62 47t-63 21.5q-95 0 -127 -139h-107z" />
    <glyph glyph-name="uni00A0" unicode="&#xa0;" horiz-adv-x="419" 
 />
    <glyph glyph-name="exclamdown" unicode="&#xa1;" horiz-adv-x="540" 
d="M403 926l-217 -1184h-149l252 1184h114zM330 1356h190l-37 -193h-190z" />
    <glyph glyph-name="cent" unicode="&#xa2;" horiz-adv-x="1062" 
d="M950 330q-32 -163 -154.5 -260t-283.5 -97l-41 -211h-117l43 222q-145 29 -223 135.5t-78 273.5q0 120 33 237.5t95 218.5t163.5 168.5t226.5 80.5l39 202h117l-39 -204q127 -16 204 -97t77 -225h-135q-1 90 -45 142.5t-123 66.5l-174 -897q65 4 118 30t85 64t50 75.5
t25 74.5h137zM420 98l172 885q-89 -16 -159.5 -77.5t-111 -147t-61 -177.5t-20.5 -182q0 -114 44 -193.5t136 -107.5z" />
    <glyph glyph-name="sterling" unicode="&#xa3;" horiz-adv-x="1243" 
d="M1053 127l-23 -127h-964l22 123l119 84q49 36 81 63.5t61 60.5t44 65.5t24 73.5t6.5 89.5t-13.5 110.5h-252l22 112h207l-27 129q-36 184 12 327.5t169.5 222.5t294.5 79q213 0 317 -121t68 -321h-134q12 68 1 127t-38.5 103t-85.5 69.5t-141 25.5t-147.5 -25.5
t-103.5 -70.5t-62 -105.5t-23.5 -131t11.5 -146.5l28 -162h461l-22 -112h-418q17 -122 -4.5 -212.5t-73 -153.5t-145.5 -128l-66 -45v-4h795z" />
    <glyph glyph-name="currency" unicode="&#xa4;" horiz-adv-x="1294" 
d="M285 709q0 117 63 209l-145 147l88 88l145 -147q94 65 209 65q119 0 211 -67l148 149l86 -86l-150 -149q68 -90 68 -209q0 -114 -66 -209l148 -148l-86 -88l-150 150q-87 -66 -209 -66q-118 0 -209 66l-145 -148l-88 88l147 146q-65 94 -65 209zM645 444q109 0 181.5 76
t72.5 189q0 114 -72.5 190t-181.5 76q-108 0 -181 -76t-73 -190q0 -112 73.5 -188.5t180.5 -76.5z" />
    <glyph glyph-name="yen" unicode="&#xa5;" horiz-adv-x="1232" 
d="M426 0l72 375h-422l24 110h420l39 199h-426l23 113h387l-310 721h152l268 -656h4l529 656h162l-590 -721h379l-23 -113h-418l-39 -199h424l-22 -110h-424l-72 -375h-137z" />
    <glyph glyph-name="brokenbar" unicode="&#xa6;" horiz-adv-x="573" 
d="M559 1614l-160 -819h-120l159 819h121zM193 -266h-121l178 913h119z" />
    <glyph glyph-name="section" unicode="&#xa7;" horiz-adv-x="1093" 
d="M475 928q-89 -11 -151 -66t-62 -139q0 -62 27.5 -102.5t93.5 -81.5l217 -133q47 -27 66 -46q91 11 151 66.5t60 140.5q0 58 -26 101t-93 84l-215 131q-24 14 -68 45zM133 705q0 115 69.5 193.5t192.5 109.5v4q-55 78 -55 178q0 151 108.5 244.5t276.5 93.5
q155 0 248 -93.5t82 -234.5h-131q5 99 -47 158t-168 59q-102 0 -170 -59.5t-68 -157.5q0 -66 28.5 -108.5t94.5 -83.5l217 -134q108 -67 153.5 -133.5t45.5 -154.5q0 -114 -67 -192t-195 -113v-5q55 -71 55 -167q0 -146 -109.5 -245.5t-294.5 -99.5q-167 0 -264.5 93
t-91.5 258h131q-3 -113 54.5 -176.5t189.5 -63.5q110 0 181 61.5t71 155.5q0 66 -28 107.5t-93 81.5l-209 127q-110 68 -158.5 133.5t-48.5 163.5z" />
    <glyph glyph-name="dieresis" unicode="&#xa8;" horiz-adv-x="741" 
d="M641 1331l33 172h160l-35 -172h-158zM254 1331l35 172h157l-32 -172h-160z" />
    <glyph glyph-name="copyright" unicode="&#xa9;" horiz-adv-x="1855" 
d="M152 778q3 170 67.5 320.5t173 258.5t260 171t322.5 63q228 0 411 -107t284 -293t97 -413q-3 -170 -67.5 -320t-173 -258t-260 -170.5t-322.5 -62.5q-228 0 -411 106.5t-284 292t-97 412.5zM944 57q148 0 279.5 55.5t226 151.5t150.5 229.5t59 284.5q4 151 -47 285
t-141.5 230t-220 152t-277.5 56t-279 -56t-225 -152t-150 -230t-59 -285q-4 -151 46.5 -284.5t141 -229.5t219.5 -151.5t277 -55.5zM1303 971h-109q0 77 -46 116t-128 39t-146.5 -42t-101 -109.5t-54.5 -142.5t-18 -152q0 -108 50 -171t159 -63q55 0 99.5 18t71.5 47
t43 58.5t22 59.5h115q-26 -129 -122.5 -204t-234.5 -75q-154 0 -239.5 88t-85.5 240q0 79 18 156.5t55.5 147.5t90.5 124t128 85.5t162 31.5q126 0 200.5 -65t70.5 -187z" />
    <glyph glyph-name="ordfeminine" unicode="&#xaa;" horiz-adv-x="919" 
d="M432 739q94 0 180.5 78t112.5 219l6 35q-216 0 -323 -41q-121 -48 -121 -158q0 -133 145 -133zM399 1282h-127q18 116 107 187t229 71q171 0 239.5 -90t39.5 -242l-70 -358q-11 -58 2.5 -82t59.5 -23l-21 -104h-18q-88 -1 -124.5 38.5t-27.5 125.5h-2
q-111 -170 -293 -170q-114 0 -178.5 60.5t-64.5 160.5q0 192 219 264q122 43 383 43l8 51q20 106 -19 166t-145 60q-80 0 -133.5 -42t-63.5 -116z" />
    <glyph glyph-name="guillemotleft" unicode="&#xab;" horiz-adv-x="1038" 
d="M834 950h147l-317 -424l145 -409h-133l-152 424zM440 950h146l-314 -424l144 -409h-133l-152 424z" />
    <glyph glyph-name="logicalnot" unicode="&#xac;" horiz-adv-x="1259" 
d="M176 670l23 125h917l-102 -527h-127l78 402h-789z" />
    <glyph glyph-name="registered" unicode="&#xae;" horiz-adv-x="1024" 
d="M180 1141q6 189 138.5 318.5t322.5 129.5q194 0 313 -128t113 -320q-8 -190 -141 -318.5t-324 -128.5q-193 0 -311.5 128t-110.5 319zM606 766q155 0 263 107t114 268q6 162 -92.5 269.5t-253.5 107.5t-261.5 -108t-111.5 -269q-8 -161 89.5 -268t252.5 -107zM559 1182
h90q37 0 61.5 21t24.5 59q0 59 -73 59h-76zM545 1114l-37 -188h-82l90 460h156q65 0 105.5 -31.5t39.5 -90.5q0 -105 -112 -138l67 -200h-90l-59 188h-78z" />
    <glyph glyph-name="macron" unicode="&#xaf;" horiz-adv-x="675" 
d="M209 1339l22 117h555l-22 -117h-555z" />
    <glyph glyph-name="degree" unicode="&#xb0;" horiz-adv-x="925" 
d="M264 1217q0 141 94 236t236 95q144 0 238 -94.5t94 -236.5t-94 -236t-238 -94q-142 0 -236 94.5t-94 235.5zM594 979q97 0 158 67t61 171t-61 171.5t-158 67.5q-96 0 -156.5 -67.5t-60.5 -171.5t60.5 -171t156.5 -67z" />
    <glyph glyph-name="plusminus" unicode="&#xb1;" horiz-adv-x="1286" 
d="M745 698l-77 -401h-127l77 401h-393l23 121h393l78 402h129l-78 -402h393l-22 -121h-396zM90 0l23 121h915l-22 -121h-916z" />
    <glyph glyph-name="twosuperior" unicode="&#xb2;" horiz-adv-x="792" 
d="M391 1389h-119q12 140 102.5 216t227.5 76q119 0 190.5 -57t71.5 -162q0 -102 -61 -181.5t-187 -174.5l-282 -213v-2h448l-18 -103h-629l15 86l389 306q55 43 81.5 66t59.5 59t46 71.5t13 77.5q-2 60 -40 95.5t-107 35.5q-80 0 -135 -45.5t-66 -150.5z" />
    <glyph glyph-name="threesuperior" unicode="&#xb3;" horiz-adv-x="811" 
d="M549 1188h-94l18 98h90q88 0 141.5 45.5t53.5 122.5q0 61 -45 97t-115 36q-78 0 -131.5 -43t-63.5 -129h-120q8 118 96 192t225 74q124 0 199.5 -58.5t75.5 -162.5q0 -87 -55 -145t-140 -82v-4q62 -16 101.5 -64.5t39.5 -122.5q0 -122 -96.5 -197t-241.5 -75t-224.5 69.5
t-72.5 196.5h117q3 -81 50 -125.5t139 -44.5q97 0 153 51t56 127q0 65 -40.5 104.5t-115.5 39.5z" />
    <glyph glyph-name="acute" unicode="&#xb4;" horiz-adv-x="741" 
d="M403 1290l175 324h157l-221 -324h-111z" />
    <glyph glyph-name="paragraph" unicode="&#xb6;" horiz-adv-x="1056" 
d="M926 1567h131l-303 -1567h-131zM489 854q-142 5 -228.5 89.5t-86.5 221.5q0 175 122 288.5t318 113.5h144l-303 -1567h-129z" />
    <glyph glyph-name="periodcentered" unicode="&#xb7;" horiz-adv-x="559" 
d="M172 520l37 195h190l-37 -195h-190z" />
    <glyph glyph-name="cedilla" unicode="&#xb8;" horiz-adv-x="1028" 
d="M387 37h88l-104 -164h4q27 18 76 18q52 0 82 -31.5t30 -90.5q0 -77 -51.5 -131t-146.5 -54q-66 0 -108.5 32.5t-39.5 96.5h102q3 -49 58 -49q36 0 59 25t23 67q0 30 -16 47t-44 17q-29 0 -59 -23h-100z" />
    <glyph glyph-name="onesuperior" unicode="&#xb9;" horiz-adv-x="555" 
d="M299 788l127 633h-180l16 90h31q87 0 133 37q45 37 66 121h104l-176 -881h-121z" />
    <glyph glyph-name="ordmasculine" unicode="&#xba;" horiz-adv-x="876" 
d="M479 629q-159 0 -245.5 92t-86.5 240q0 104 28.5 204.5t82.5 185.5t143.5 137t200.5 52q162 0 247 -91.5t85 -242.5q0 -82 -17 -163t-54 -156t-89 -132t-128.5 -91.5t-166.5 -34.5zM803 1212q0 100 -49 164t-158 64q-55 0 -102 -22t-80.5 -60t-59 -86t-41 -103
t-23 -108.5t-7.5 -104.5q0 -101 48 -163t156 -62q58 0 107 23t82.5 62.5t59 88t39.5 104t21 106t7 97.5z" />
    <glyph glyph-name="guillemotright" unicode="&#xbb;" horiz-adv-x="1038" 
d="M221 117h-147l319 428l-145 405h135l152 -422zM614 117h-145l315 428l-143 405h133l154 -422z" />
    <glyph glyph-name="onequarter" unicode="&#xbc;" horiz-adv-x="1615" 
d="M279 686l127 631h-181l17 92h30q92 0 134 37q44 36 65 121h104l-176 -881h-120zM27 -82l1429 1690h139l-1427 -1690h-141zM969 307h315l92 455h-4q-26 -53 -94 -125zM1501 213h-123l-43 -213h-116l43 213h-441l17 90l538 578h135l-114 -570h123z" />
    <glyph glyph-name="onehalf" unicode="&#xbd;" horiz-adv-x="1755" 
d="M27 -82l1429 1690h139l-1427 -1690h-141zM279 686l127 631h-181l17 92h30q92 0 134 37q44 36 65 121h104l-176 -881h-120zM1198 600h-119q10 140 101.5 216.5t228.5 76.5q118 0 190 -57.5t72 -161.5q0 -54 -17 -101.5t-52.5 -91.5t-77 -81t-103.5 -83l-282 -213v-2h450
l-18 -102h-629l14 86l387 305q55 42 83 66t60.5 59.5t46 71.5t13.5 78q-2 60 -40 95.5t-107 35.5q-80 0 -135 -46t-66 -151z" />
    <glyph glyph-name="threequarters" unicode="&#xbe;" horiz-adv-x="1792" 
d="M528 1085h-94l19 97h90q88 0 141 46t53 122q0 61 -45 97t-114 36q-79 0 -132 -42t-63 -128h-121q8 118 96.5 192t225.5 74q123 0 198.5 -59t75.5 -162q0 -87 -55 -145.5t-139 -82.5v-4q62 -16 101.5 -64t39.5 -124q0 -121 -96.5 -195.5t-241.5 -74.5t-224.5 69t-72.5 197
h117q6 -172 188 -172q96 0 152.5 51.5t56.5 128.5q0 65 -40.5 104t-115.5 39zM236 -82l1429 1690h139l-1427 -1690h-141zM1147 307h315l92 455h-4q-26 -53 -94 -125zM1679 213h-123l-43 -213h-116l43 213h-441l17 90l538 578h136l-115 -570h123z" />
    <glyph glyph-name="questiondown" unicode="&#xbf;" horiz-adv-x="1095" 
d="M539 936h131l-27 -148q-22 -108 -55 -155t-137 -115l-115 -74q-67 -44 -107 -83t-67 -102.5t-27 -145.5q0 -125 77 -198t210 -73q167 0 259.5 104t104.5 290h140q-6 -109 -41 -201t-97 -162t-157.5 -109.5t-216.5 -39.5q-196 0 -308 107.5t-112 266.5q0 74 17.5 138.5
t42 107.5t66 85.5t72.5 66t80 55.5l101 65q83 55 105.5 86t37.5 109zM768 1356l-37 -193h-188l37 193h188z" />
    <glyph glyph-name="Agrave" unicode="&#xc0;" horiz-adv-x="1452" 
d="M897 1427q-87 -174 -104 -206l-324 -590h559l-98 592l-29 204h-4zM1135 0l-88 512h-641l-279 -512h-147l858 1567h168l272 -1567h-143zM901 1966l111 -272h-113l-147 272h149z" />
    <glyph glyph-name="Aacute" unicode="&#xc1;" horiz-adv-x="1452" 
d="M897 1427q-87 -174 -104 -206l-324 -590h559l-98 592l-29 204h-4zM1135 0l-88 512h-641l-279 -512h-147l858 1567h168l272 -1567h-143zM881 1694l186 272h164l-236 -272h-114z" />
    <glyph glyph-name="Acircumflex" unicode="&#xc2;" horiz-adv-x="1452" 
d="M897 1427q-87 -174 -104 -206l-324 -590h559l-98 592l-29 204h-4zM1135 0l-88 512h-641l-279 -512h-147l858 1567h168l272 -1567h-143zM1051 1966l170 -272h-117l-131 176h-2l-195 -176h-129l260 272h144z" />
    <glyph glyph-name="Atilde" unicode="&#xc3;" horiz-adv-x="1452" 
d="M897 1427q-87 -174 -104 -206l-324 -590h559l-98 592l-29 204h-4zM1135 0l-88 512h-641l-279 -512h-147l858 1567h168l272 -1567h-143zM612 1696q6 50 21 93.5t41.5 80t69.5 57.5t98 21q37 0 72 -14t61 -34t50 -40t48.5 -34t46.5 -14q47 0 72.5 36t38.5 106h108
q-10 -107 -66.5 -180.5t-160.5 -73.5q-46 0 -89 21t-70.5 46.5t-61 46.5t-60.5 21q-84 0 -110 -139h-109z" />
    <glyph glyph-name="Adieresis" unicode="&#xc4;" horiz-adv-x="1452" 
d="M897 1427q-87 -174 -104 -206l-324 -590h559l-98 592l-29 204h-4zM1135 0l-88 512h-641l-279 -512h-147l858 1567h168l272 -1567h-143zM1085 1679l33 172h158l-35 -172h-156zM651 1679l33 172h158l-33 -172h-158z" />
    <glyph glyph-name="Aring" unicode="&#xc5;" horiz-adv-x="1452" 
d="M897 1427q-87 -174 -104 -206l-324 -590h559l-98 592l-29 204h-4zM1135 0l-88 512h-641l-279 -512h-147l858 1567h168l272 -1567h-143zM954 1667q-91 0 -143.5 53t-52.5 138q0 98 60.5 159.5t158.5 61.5q95 0 149 -53t54 -140q0 -99 -62.5 -159t-163.5 -60zM975 2001
q-53 0 -85 -39.5t-32 -101.5q0 -52 27.5 -83.5t77.5 -31.5q52 0 85 38t33 101q0 50 -27.5 83.5t-78.5 33.5z" />
    <glyph glyph-name="AE" unicode="&#xc6;" horiz-adv-x="2093" 
d="M979 631l156 807h-164q-13 -24 -35 -63.5t-36.5 -65.5t-22.5 -39l-394 -639h496zM858 0l98 512h-546l-318 -514l-153 2l966 1567h1229l-25 -129h-831l-111 -578h758l-24 -125h-758l-117 -606h840l-25 -129h-983z" />
    <glyph glyph-name="Ccedilla" unicode="&#xc7;" horiz-adv-x="1533" 
d="M659 -416q-66 0 -108 32.5t-39 96.5h102q3 -49 58 -49q36 0 59 25t23 67q0 30 -16 47t-44 17q-29 0 -59 -23h-100l110 180q-228 34 -350.5 194.5t-122.5 430.5q0 146 33 287.5t101 268.5t163 223.5t227.5 153t286.5 56.5q144 0 257 -51.5t184.5 -160.5t76.5 -263h-141
q-12 174 -115.5 265.5t-275.5 91.5q-132 0 -243 -55t-185 -144.5t-126 -205.5t-75 -236t-23 -238q0 -234 111.5 -371t343.5 -137q193 0 320 100.5t165 268.5h142q-44 -218 -212.5 -352t-420.5 -134h-39l-61 -96h4q27 18 75 18q52 0 82.5 -31.5t30.5 -90.5
q0 -76 -51.5 -130.5t-147.5 -54.5z" />
    <glyph glyph-name="Egrave" unicode="&#xc8;" horiz-adv-x="1361" 
d="M899 1966l111 -272h-113l-147 272h149zM127 0l303 1567h973l-25 -129h-829l-113 -578h760l-27 -125h-757l-117 -606h842l-27 -129h-983z" />
    <glyph glyph-name="Eacute" unicode="&#xc9;" horiz-adv-x="1361" 
d="M877 1694l186 272h164l-236 -272h-114zM127 0l303 1567h973l-25 -129h-829l-113 -578h760l-27 -125h-757l-117 -606h842l-27 -129h-983z" />
    <glyph glyph-name="Ecircumflex" unicode="&#xca;" horiz-adv-x="1361" 
d="M1059 1966l170 -272h-117l-131 176h-2l-195 -176h-129l260 272h144zM127 0l303 1567h973l-25 -129h-829l-113 -578h760l-27 -125h-757l-117 -606h842l-27 -129h-983z" />
    <glyph glyph-name="Edieresis" unicode="&#xcb;" horiz-adv-x="1361" 
d="M127 0l303 1567h973l-25 -129h-829l-113 -578h760l-27 -125h-757l-117 -606h842l-27 -129h-983zM1081 1679l33 172h158l-35 -172h-156zM647 1679l33 172h158l-33 -172h-158z" />
    <glyph glyph-name="Igrave" unicode="&#xcc;" horiz-adv-x="598" 
d="M129 0l303 1567h143l-303 -1567h-143zM481 1966l111 -272h-113l-147 272h149z" />
    <glyph glyph-name="Iacute" unicode="&#xcd;" horiz-adv-x="598" 
d="M129 0l303 1567h143l-303 -1567h-143zM461 1694l186 272h164l-236 -272h-114z" />
    <glyph glyph-name="Icircumflex" unicode="&#xce;" horiz-adv-x="598" 
d="M129 0l303 1567h143l-303 -1567h-143zM641 1966l170 -272h-117l-131 176h-2l-194 -176h-129l260 272h143z" />
    <glyph glyph-name="Idieresis" unicode="&#xcf;" horiz-adv-x="598" 
d="M129 0l303 1567h143l-303 -1567h-143zM666 1679l32 172h158l-35 -172h-155zM231 1679l33 172h158l-33 -172h-158z" />
    <glyph glyph-name="Eth" unicode="&#xd0;" horiz-adv-x="1587" 
d="M649 0h-506l144 737h-178l24 123h176l137 707h422q146 0 263 -35.5t204.5 -107.5t135 -189.5t47.5 -273.5q0 -144 -29.5 -278t-96 -259.5t-165 -218.5t-247.5 -149t-331 -56zM309 125h367q117 0 215.5 30.5t168.5 82t125 122t89 146t56.5 159.5t31 157.5t8.5 144.5
q0 126 -36.5 219t-104.5 148t-157.5 81.5t-203.5 26.5h-303l-112 -582h465l-23 -123h-467z" />
    <glyph glyph-name="Ntilde" unicode="&#xd1;" horiz-adv-x="1595" 
d="M688 1696q6 50 21 93.5t41.5 80t69.5 57.5t98 21q37 0 72 -14t61 -34t50 -40t48.5 -34t46.5 -14q47 0 72.5 36t38.5 106h108q-10 -107 -66.5 -180.5t-160.5 -73.5q-46 0 -89 21t-70.5 46.5t-61 46.5t-60.5 21q-84 0 -110 -139h-109zM127 0l303 1567h164l516 -1225
l55 -147h4l267 1372h135l-303 -1567h-160l-526 1249l-50 131h-4l-266 -1380h-135z" />
    <glyph glyph-name="Ograve" unicode="&#xd2;" horiz-adv-x="1634" 
d="M989 1966l111 -272h-113l-147 272h149zM170 586q0 149 34.5 294.5t104 273t164.5 225t224.5 154t275.5 56.5q282 0 436 -166.5t154 -453.5q0 -139 -31.5 -279.5t-98 -270t-159 -230t-224.5 -160.5t-284 -60q-283 0 -439.5 167t-156.5 450zM1415 973q0 106 -25 193.5
t-77 157.5t-141.5 109.5t-208.5 39.5q-107 0 -201 -40.5t-163.5 -109.5t-124.5 -158t-89 -189.5t-51.5 -201t-16.5 -194.5q1 -82 16.5 -154t50.5 -135.5t87 -109t129.5 -71.5t173.5 -26q125 0 233 58.5t181.5 152t126 212t76.5 237.5t24 229z" />
    <glyph glyph-name="Oacute" unicode="&#xd3;" horiz-adv-x="1634" 
d="M969 1694l186 272h164l-236 -272h-114zM170 586q0 149 34.5 294.5t104 273t164.5 225t224.5 154t275.5 56.5q282 0 436 -166.5t154 -453.5q0 -139 -31.5 -279.5t-98 -270t-159 -230t-224.5 -160.5t-284 -60q-283 0 -439.5 167t-156.5 450zM1415 973q0 106 -25 193.5
t-77 157.5t-141.5 109.5t-208.5 39.5q-107 0 -201 -40.5t-163.5 -109.5t-124.5 -158t-89 -189.5t-51.5 -201t-16.5 -194.5q1 -82 16.5 -154t50.5 -135.5t87 -109t129.5 -71.5t173.5 -26q125 0 233 58.5t181.5 152t126 212t76.5 237.5t24 229z" />
    <glyph glyph-name="Ocircumflex" unicode="&#xd4;" horiz-adv-x="1634" 
d="M1151 1966l170 -272h-117l-131 176h-2l-194 -176h-129l260 272h143zM170 586q0 149 34.5 294.5t104 273t164.5 225t224.5 154t275.5 56.5q282 0 436 -166.5t154 -453.5q0 -139 -31.5 -279.5t-98 -270t-159 -230t-224.5 -160.5t-284 -60q-283 0 -439.5 167t-156.5 450z
M1415 973q0 106 -25 193.5t-77 157.5t-141.5 109.5t-208.5 39.5q-107 0 -201 -40.5t-163.5 -109.5t-124.5 -158t-89 -189.5t-51.5 -201t-16.5 -194.5q1 -82 16.5 -154t50.5 -135.5t87 -109t129.5 -71.5t173.5 -26q125 0 233 58.5t181.5 152t126 212t76.5 237.5t24 229z" />
    <glyph glyph-name="Otilde" unicode="&#xd5;" horiz-adv-x="1634" 
d="M692 1696q6 50 21 93.5t41.5 80t69.5 57.5t98 21q37 0 72 -14t61 -34t50 -40t48.5 -34t46.5 -14q47 0 72.5 36t38.5 106h108q-10 -107 -66.5 -180.5t-160.5 -73.5q-46 0 -89 21t-70.5 46.5t-61 46.5t-60.5 21q-84 0 -110 -139h-109zM170 586q0 149 34.5 294.5t104 273
t164.5 225t224.5 154t275.5 56.5q282 0 436 -166.5t154 -453.5q0 -139 -31.5 -279.5t-98 -270t-159 -230t-224.5 -160.5t-284 -60q-283 0 -439.5 167t-156.5 450zM1415 973q0 106 -25 193.5t-77 157.5t-141.5 109.5t-208.5 39.5q-107 0 -201 -40.5t-163.5 -109.5
t-124.5 -158t-89 -189.5t-51.5 -201t-16.5 -194.5q1 -82 16.5 -154t50.5 -135.5t87 -109t129.5 -71.5t173.5 -26q125 0 233 58.5t181.5 152t126 212t76.5 237.5t24 229z" />
    <glyph glyph-name="Odieresis" unicode="&#xd6;" horiz-adv-x="1634" 
d="M1171 1679l33 172h158l-35 -172h-156zM737 1679l33 172h158l-33 -172h-158zM170 586q0 149 34.5 294.5t104 273t164.5 225t224.5 154t275.5 56.5q282 0 436 -166.5t154 -453.5q0 -139 -31.5 -279.5t-98 -270t-159 -230t-224.5 -160.5t-284 -60q-283 0 -439.5 167
t-156.5 450zM1415 973q0 106 -25 193.5t-77 157.5t-141.5 109.5t-208.5 39.5q-107 0 -201 -40.5t-163.5 -109.5t-124.5 -158t-89 -189.5t-51.5 -201t-16.5 -194.5q1 -82 16.5 -154t50.5 -135.5t87 -109t129.5 -71.5t173.5 -26q125 0 233 58.5t181.5 152t126 212t76.5 237.5
t24 229z" />
    <glyph glyph-name="multiply" unicode="&#xd7;" horiz-adv-x="1288" 
d="M276 293l-73 94l397 342l-270 344l96 82l268 -346l402 348l78 -94l-406 -344l276 -350l-98 -84l-268 352z" />
    <glyph glyph-name="Oslash" unicode="&#xd8;" horiz-adv-x="1634" 
d="M963 1473q-107 0 -201 -40.5t-163.5 -109.5t-124.5 -158t-89 -189.5t-51.5 -201t-16.5 -194.5q0 -158 48 -269l923 1053q-115 109 -325 109zM774 84q125 0 233 58.5t181.5 152t126 212t76.5 237.5t24 229q0 186 -59 301l-930 -1061q113 -129 348 -129zM1563 969
q0 -139 -31.5 -279.5t-98 -270t-159 -230t-224.5 -160.5t-284 -60q-264 0 -422 152l-149 -172h-148l225 258q-102 150 -102 379q0 149 34.5 294.5t104 273t164.5 225t224.5 154t275.5 56.5q244 0 397 -131l141 162h148l-213 -244q117 -160 117 -407z" />
    <glyph glyph-name="Ugrave" unicode="&#xd9;" horiz-adv-x="1529" 
d="M928 1966l110 -272h-112l-148 272h150zM211 578l190 989h144l-178 -916q-18 -92 -26 -157.5t-1 -139.5t37 -123q82 -143 321 -143q233 0 363 139q21 22 38.5 46.5t31.5 56.5t23 54t19 63t14 58t13.5 65.5t11.5 60.5l183 936h141l-207 -1067q-104 -531 -635 -531
q-87 0 -160 14t-136 44t-106 78t-70.5 115.5t-29 156.5t18.5 201z" />
    <glyph glyph-name="Uacute" unicode="&#xda;" horiz-adv-x="1529" 
d="M907 1694l187 272h163l-235 -272h-115zM211 578l190 989h144l-178 -916q-18 -92 -26 -157.5t-1 -139.5t37 -123q82 -143 321 -143q233 0 363 139q21 22 38.5 46.5t31.5 56.5t23 54t19 63t14 58t13.5 65.5t11.5 60.5l183 936h141l-207 -1067q-104 -531 -635 -531
q-87 0 -160 14t-136 44t-106 78t-70.5 115.5t-29 156.5t18.5 201z" />
    <glyph glyph-name="Ucircumflex" unicode="&#xdb;" horiz-adv-x="1529" 
d="M1090 1966l170 -272h-117l-131 176h-2l-195 -176h-129l260 272h144zM211 578l190 989h144l-178 -916q-18 -92 -26 -157.5t-1 -139.5t37 -123q82 -143 321 -143q233 0 363 139q21 22 38.5 46.5t31.5 56.5t23 54t19 63t14 58t13.5 65.5t11.5 60.5l183 936h141l-207 -1067
q-104 -531 -635 -531q-87 0 -160 14t-136 44t-106 78t-70.5 115.5t-29 156.5t18.5 201z" />
    <glyph glyph-name="Udieresis" unicode="&#xdc;" horiz-adv-x="1529" 
d="M211 578l190 989h144l-178 -916q-18 -92 -26 -157.5t-1 -139.5t37 -123q82 -143 321 -143q233 0 363 139q21 22 38.5 46.5t31.5 56.5t23 54t19 63t14 58t13.5 65.5t11.5 60.5l183 936h141l-207 -1067q-104 -531 -635 -531q-87 0 -160 14t-136 44t-106 78t-70.5 115.5
t-29 156.5t18.5 201zM1110 1679l33 172h157l-34 -172h-156zM676 1679l33 172h157l-32 -172h-158z" />
    <glyph glyph-name="Yacute" unicode="&#xdd;" horiz-adv-x="1284" 
d="M469 0l135 696l-373 871h156l307 -746h4l609 746h157l-723 -885l-131 -682h-141zM803 1694l186 272h164l-235 -272h-115z" />
    <glyph glyph-name="Thorn" unicode="&#xde;" horiz-adv-x="1253" 
d="M662 477h10q87 2 157 24t124.5 66t84 117t29.5 170q0 266 -336 266h-244l-125 -643h300zM655 356h-315l-70 -356h-143l303 1567h143l-63 -326h229q223 0 346 -99t123 -280q0 -232 -143 -369t-410 -137z" />
    <glyph glyph-name="germandbls" unicode="&#xdf;" horiz-adv-x="1210" 
d="M88 0l231 1198q20 106 62.5 185t101.5 126.5t129 71t150 23.5q158 0 258 -93t100 -258q0 -146 -75.5 -250t-213.5 -147v-4q110 -30 178 -117t68 -229q0 -231 -154 -368.5t-405 -137.5h-102l22 121h70q192 0 309 99.5t117 279.5q0 130 -77.5 210.5t-219.5 80.5h-31l23 120
h28q146 0 233 97t87 239q0 115 -61.5 177.5t-167.5 62.5q-111 0 -187.5 -75t-105.5 -222l-228 -1190h-139z" />
    <glyph glyph-name="agrave" unicode="&#xe0;" horiz-adv-x="1107" 
d="M399 98q119 0 228 104.5t143 276.5l10 49q-240 0 -362 -28q-100 -22 -156.5 -79.5t-56.5 -141.5q0 -87 50.5 -134t143.5 -47zM346 788h-139q14 139 121 225.5t284 86.5q86 0 152.5 -22t105.5 -60.5t62.5 -91t24 -113.5t-10.5 -127l-86 -444q-13 -76 5.5 -109.5
t72.5 -30.5l-20 -112h-17q-191 0 -168 207h-4q-68 -105 -153 -159t-211 -54q-134 0 -220 77t-86 211q0 265 340 334q119 25 404 25l10 67q13 59 6.5 111.5t-28.5 92t-70.5 62.5t-120.5 23q-104 0 -172.5 -49.5t-81.5 -149.5zM573 1614l142 -324h-109l-188 324h155z" />
    <glyph glyph-name="aacute" unicode="&#xe1;" horiz-adv-x="1107" 
d="M399 98q119 0 228 104.5t143 276.5l10 49q-240 0 -362 -28q-100 -22 -156.5 -79.5t-56.5 -141.5q0 -87 50.5 -134t143.5 -47zM346 788h-139q14 139 121 225.5t284 86.5q86 0 152.5 -22t105.5 -60.5t62.5 -91t24 -113.5t-10.5 -127l-86 -444q-13 -76 5.5 -109.5
t72.5 -30.5l-20 -112h-17q-191 0 -168 207h-4q-68 -105 -153 -159t-211 -54q-134 0 -220 77t-86 211q0 265 340 334q119 25 404 25l10 67q13 59 6.5 111.5t-28.5 92t-70.5 62.5t-120.5 23q-104 0 -172.5 -49.5t-81.5 -149.5zM598 1290l174 324h158l-221 -324h-111z" />
    <glyph glyph-name="acircumflex" unicode="&#xe2;" horiz-adv-x="1107" 
d="M399 98q119 0 228 104.5t143 276.5l10 49q-240 0 -362 -28q-100 -22 -156.5 -79.5t-56.5 -141.5q0 -87 50.5 -134t143.5 -47zM346 788h-139q14 139 121 225.5t284 86.5q86 0 152.5 -22t105.5 -60.5t62.5 -91t24 -113.5t-10.5 -127l-86 -444q-13 -76 5.5 -109.5
t72.5 -30.5l-20 -112h-17q-191 0 -168 207h-4q-68 -105 -153 -159t-211 -54q-134 0 -220 77t-86 211q0 265 340 334q119 25 404 25l10 67q13 59 6.5 111.5t-28.5 92t-70.5 62.5t-120.5 23q-104 0 -172.5 -49.5t-81.5 -149.5zM786 1614l138 -324h-119l-103 226l-178 -226
h-129l252 324h139z" />
    <glyph glyph-name="atilde" unicode="&#xe3;" horiz-adv-x="1107" 
d="M399 98q119 0 228 104.5t143 276.5l10 49q-240 0 -362 -28q-100 -22 -156.5 -79.5t-56.5 -141.5q0 -87 50.5 -134t143.5 -47zM346 788h-139q14 139 121 225.5t284 86.5q86 0 152.5 -22t105.5 -60.5t62.5 -91t24 -113.5t-10.5 -127l-86 -444q-13 -76 5.5 -109.5
t72.5 -30.5l-20 -112h-17q-191 0 -168 207h-4q-68 -105 -153 -159t-211 -54q-134 0 -220 77t-86 211q0 265 340 334q119 25 404 25l10 67q13 59 6.5 111.5t-28.5 92t-70.5 62.5t-120.5 23q-104 0 -172.5 -49.5t-81.5 -149.5zM328 1286q8 112 60 183t159 71q43 0 86.5 -21.5
t72.5 -47t63 -47t62 -21.5q88 0 101 141h106q-4 -53 -17.5 -96.5t-38.5 -80t-66.5 -57t-96.5 -20.5q-43 0 -87 21.5t-73 47t-63 47t-61 21.5q-87 0 -103 -141h-104z" />
    <glyph glyph-name="adieresis" unicode="&#xe4;" horiz-adv-x="1107" 
d="M399 98q119 0 228 104.5t143 276.5l10 49q-240 0 -362 -28q-100 -22 -156.5 -79.5t-56.5 -141.5q0 -87 50.5 -134t143.5 -47zM346 788h-139q14 139 121 225.5t284 86.5q86 0 152.5 -22t105.5 -60.5t62.5 -91t24 -113.5t-10.5 -127l-86 -444q-13 -76 5.5 -109.5
t72.5 -30.5l-20 -112h-17q-191 0 -168 207h-4q-68 -105 -153 -159t-211 -54q-134 0 -220 77t-86 211q0 265 340 334q119 25 404 25l10 67q13 59 6.5 111.5t-28.5 92t-70.5 62.5t-120.5 23q-104 0 -172.5 -49.5t-81.5 -149.5zM780 1331l33 172h160l-35 -172h-158zM393 1331
l35 172h158l-33 -172h-160z" />
    <glyph glyph-name="aring" unicode="&#xe5;" horiz-adv-x="1107" 
d="M399 98q119 0 228 104.5t143 276.5l10 49q-240 0 -362 -28q-100 -22 -156.5 -79.5t-56.5 -141.5q0 -87 50.5 -134t143.5 -47zM346 788h-139q14 139 121 225.5t284 86.5q86 0 152.5 -22t105.5 -60.5t62.5 -91t24 -113.5t-10.5 -127l-86 -444q-13 -76 5.5 -109.5
t72.5 -30.5l-20 -112h-17q-191 0 -168 207h-4q-68 -105 -153 -159t-211 -54q-134 0 -220 77t-86 211q0 265 340 334q119 25 404 25l10 67q13 59 6.5 111.5t-28.5 92t-70.5 62.5t-120.5 23q-104 0 -172.5 -49.5t-81.5 -149.5zM686 1294q-91 1 -144 54.5t-53 138.5
q0 97 61 159t159 62q93 0 146.5 -53.5t53.5 -138.5q0 -101 -61.5 -161.5t-161.5 -60.5zM707 1630q-55 0 -87 -39t-32 -102q0 -52 27.5 -83.5t78.5 -31.5q52 0 84.5 37.5t32.5 101.5q0 50 -27 83t-77 34z" />
    <glyph glyph-name="ae" unicode="&#xe6;" horiz-adv-x="1748" 
d="M1520 621l2 12q12 71 4.5 135.5t-30.5 114t-74 79t-126 29.5t-137.5 -33t-105.5 -90t-72 -117.5t-47 -129.5h586zM401 96q127 0 229.5 102t139.5 281l10 49q-240 0 -364 -28q-98 -21 -154.5 -78.5t-56.5 -142.5q0 -86 50.5 -134.5t145.5 -48.5zM1575 268
q-33 -130 -144 -212.5t-288 -82.5q-154 0 -243 68.5t-112 187.5h-6q-85 -118 -184.5 -181.5t-239.5 -63.5q-135 0 -217 76t-82 208q0 266 340 338q55 12 137 18t122 6.5t145 0.5l12 82q41 274 -215 274q-104 0 -173.5 -49.5t-82.5 -149.5h-139q14 139 121 225.5t284 86.5
q260 0 318 -209h6q157 209 375 209q78 0 140 -21t102.5 -59t67 -87t36.5 -107.5t9 -118t-13 -121.5l-15 -74h-725q-27 -212 32.5 -320t215.5 -108q215 0 283 184h133z" />
    <glyph glyph-name="ccedilla" unicode="&#xe7;" horiz-adv-x="1062" 
d="M410 -416q-66 0 -108.5 32.5t-39.5 96.5h103q3 -49 57 -49q36 0 59 25t23 67q0 30 -16 47t-44 17q-29 0 -59 -23h-100l114 187q-147 28 -225 135t-78 274q0 101 22 200.5t69 191t113 161.5t161 112t207 42q152 0 248 -82.5t96 -243.5h-135q-1 105 -61.5 159t-164.5 54
t-186.5 -56.5t-129.5 -146t-71 -188.5t-24 -197q0 -141 66.5 -226.5t205.5 -86.5q71 0 128.5 24.5t92 63.5t54 78.5t26.5 77.5h137q-32 -163 -155.5 -260t-290.5 -97h-25l-63 -100h4q27 18 76 18q52 0 82 -31.5t30 -90.5q0 -77 -51.5 -131t-146.5 -54z" />
    <glyph glyph-name="egrave" unicode="&#xe8;" horiz-adv-x="1093" 
d="M862 614l2 13q13 74 5.5 140t-30.5 116t-75 79t-127 29t-138.5 -31t-108.5 -85t-76 -119t-50 -142h598zM922 268q-35 -130 -146 -212.5t-289 -82.5q-186 0 -289.5 112.5t-103.5 301.5q0 104 21.5 205t66.5 193t109.5 162t157.5 111.5t202 41.5q139 0 225.5 -68.5
t114.5 -187t2 -277.5l-12 -63h-737q-8 -55 -8 -117q0 -88 26 -153.5t88 -106.5t156 -41q216 0 280 182h136zM610 1614l142 -324h-109l-188 324h155z" />
    <glyph glyph-name="eacute" unicode="&#xe9;" horiz-adv-x="1093" 
d="M633 1290l174 324h158l-222 -324h-110zM862 614l2 13q13 74 5.5 140t-30.5 116t-75 79t-127 29t-138.5 -31t-108.5 -85t-76 -119t-50 -142h598zM922 268q-35 -130 -146 -212.5t-289 -82.5q-186 0 -289.5 112.5t-103.5 301.5q0 104 21.5 205t66.5 193t109.5 162
t157.5 111.5t202 41.5q139 0 225.5 -68.5t114.5 -187t2 -277.5l-12 -63h-737q-8 -55 -8 -117q0 -88 26 -153.5t88 -106.5t156 -41q216 0 280 182h136z" />
    <glyph glyph-name="ecircumflex" unicode="&#xea;" horiz-adv-x="1093" 
d="M823 1614l138 -324h-119l-103 226l-178 -226h-129l252 324h139zM862 614l2 13q13 74 5.5 140t-30.5 116t-75 79t-127 29t-138.5 -31t-108.5 -85t-76 -119t-50 -142h598zM922 268q-35 -130 -146 -212.5t-289 -82.5q-186 0 -289.5 112.5t-103.5 301.5q0 104 21.5 205
t66.5 193t109.5 162t157.5 111.5t202 41.5q139 0 225.5 -68.5t114.5 -187t2 -277.5l-12 -63h-737q-8 -55 -8 -117q0 -88 26 -153.5t88 -106.5t156 -41q216 0 280 182h136z" />
    <glyph glyph-name="edieresis" unicode="&#xeb;" horiz-adv-x="1093" 
d="M817 1331l33 172h160l-35 -172h-158zM430 1331l35 172h158l-33 -172h-160zM862 614l2 13q13 74 5.5 140t-30.5 116t-75 79t-127 29t-138.5 -31t-108.5 -85t-76 -119t-50 -142h598zM922 268q-35 -130 -146 -212.5t-289 -82.5q-186 0 -289.5 112.5t-103.5 301.5
q0 104 21.5 205t66.5 193t109.5 162t157.5 111.5t202 41.5q139 0 225.5 -68.5t114.5 -187t2 -277.5l-12 -63h-737q-8 -55 -8 -117q0 -88 26 -153.5t88 -106.5t156 -41q216 0 280 182h136z" />
    <glyph glyph-name="igrave" unicode="&#xec;" horiz-adv-x="526" 
d="M96 0l207 1073h139l-206 -1073h-140zM326 1614l141 -324h-109l-188 324h156z" />
    <glyph glyph-name="iacute" unicode="&#xed;" horiz-adv-x="526" 
d="M352 1290l174 324h158l-221 -324h-111zM96 0l207 1073h139l-206 -1073h-140z" />
    <glyph glyph-name="icircumflex" unicode="&#xee;" horiz-adv-x="526" 
d="M543 1614l110 -324h-110l-84 226l-160 -226h-125l227 324h142zM96 0l207 1073h139l-206 -1073h-140z" />
    <glyph glyph-name="idieresis" unicode="&#xef;" horiz-adv-x="526" 
d="M514 1331l35 172h151l-34 -172h-152zM178 1331l35 172h149l-34 -172h-150zM96 0l207 1073h139l-206 -1073h-140z" />
    <glyph glyph-name="eth" unicode="&#xf0;" horiz-adv-x="1138" 
d="M487 -27q-189 0 -291 111.5t-102 298.5q0 103 20.5 203t65.5 193.5t108.5 164.5t156 113.5t202.5 42.5q155 0 234 -92h4q-43 166 -160 311l-305 -111l-27 88l264 97q-92 95 -217 182l133 43q121 -78 213 -178l244 88l31 -86l-211 -78q199 -259 199 -610
q0 -222 -65 -397.5t-194 -279.5t-303 -104zM903 698q0 140 -64.5 216.5t-197.5 76.5q-85 0 -155 -40.5t-115.5 -104t-76.5 -146t-44.5 -164t-13.5 -159.5q0 -139 65.5 -216t192.5 -77q88 0 159.5 41t116.5 105.5t76 148t44 163.5t13 156z" />
    <glyph glyph-name="ntilde" unicode="&#xf1;" horiz-adv-x="1189" 
d="M768 0l125 643q16 78 16 143q0 91 -43 142t-145 51q-146 0 -242.5 -113t-132.5 -297l-110 -569h-140l207 1073h131l-39 -196h4q60 103 152.5 163t210.5 60q180 0 247.5 -114t28.5 -308l-129 -678h-141zM418 1286q8 112 60 183t159 71q43 0 87 -21.5t73 -47t63 -47
t62 -21.5q87 0 100 141h106q-4 -53 -17.5 -96.5t-38.5 -80t-66.5 -57t-96.5 -20.5q-43 0 -87 21.5t-73 47t-63 47t-61 21.5q-87 0 -103 -141h-104z" />
    <glyph glyph-name="ograve" unicode="&#xf2;" horiz-adv-x="1134" 
d="M492 -27q-189 0 -293.5 112t-104.5 298q0 102 21 202.5t65.5 194t108.5 164.5t156.5 113.5t201.5 42.5q189 0 293 -111.5t104 -296.5q0 -103 -20.5 -204t-65.5 -194.5t-108.5 -164.5t-156 -113.5t-201.5 -42.5zM903 698q0 132 -63 212.5t-201 80.5q-84 0 -154 -40.5
t-115 -104.5t-76 -146.5t-44.5 -164t-13.5 -160.5q0 -132 63 -211.5t201 -79.5q87 0 158 42t115.5 107t74.5 148.5t42.5 162.5t12.5 154zM623 1614l141 -324h-109l-188 324h156z" />
    <glyph glyph-name="oacute" unicode="&#xf3;" horiz-adv-x="1134" 
d="M645 1290l174 324h158l-221 -324h-111zM492 -27q-189 0 -293.5 112t-104.5 298q0 102 21 202.5t65.5 194t108.5 164.5t156.5 113.5t201.5 42.5q189 0 293 -111.5t104 -296.5q0 -103 -20.5 -204t-65.5 -194.5t-108.5 -164.5t-156 -113.5t-201.5 -42.5zM903 698
q0 132 -63 212.5t-201 80.5q-84 0 -154 -40.5t-115 -104.5t-76 -146.5t-44.5 -164t-13.5 -160.5q0 -132 63 -211.5t201 -79.5q87 0 158 42t115.5 107t74.5 148.5t42.5 162.5t12.5 154z" />
    <glyph glyph-name="ocircumflex" unicode="&#xf4;" horiz-adv-x="1134" 
d="M836 1614l137 -324h-119l-102 226l-179 -226h-129l252 324h140zM492 -27q-189 0 -293.5 112t-104.5 298q0 102 21 202.5t65.5 194t108.5 164.5t156.5 113.5t201.5 42.5q189 0 293 -111.5t104 -296.5q0 -103 -20.5 -204t-65.5 -194.5t-108.5 -164.5t-156 -113.5
t-201.5 -42.5zM903 698q0 132 -63 212.5t-201 80.5q-84 0 -154 -40.5t-115 -104.5t-76 -146.5t-44.5 -164t-13.5 -160.5q0 -132 63 -211.5t201 -79.5q87 0 158 42t115.5 107t74.5 148.5t42.5 162.5t12.5 154z" />
    <glyph glyph-name="otilde" unicode="&#xf5;" horiz-adv-x="1134" 
d="M492 -27q-189 0 -293.5 112t-104.5 298q0 102 21 202.5t65.5 194t108.5 164.5t156.5 113.5t201.5 42.5q189 0 293 -111.5t104 -296.5q0 -103 -20.5 -204t-65.5 -194.5t-108.5 -164.5t-156 -113.5t-201.5 -42.5zM903 698q0 132 -63 212.5t-201 80.5q-84 0 -154 -40.5
t-115 -104.5t-76 -146.5t-44.5 -164t-13.5 -160.5q0 -132 63 -211.5t201 -79.5q87 0 158 42t115.5 107t74.5 148.5t42.5 162.5t12.5 154zM377 1286q8 112 60 183t159 71q43 0 86.5 -21.5t73 -47t63.5 -47t62 -21.5q87 0 100 141h106q-4 -53 -17.5 -96.5t-38.5 -80t-66.5 -57
t-96.5 -20.5q-43 0 -87 21.5t-73 47t-63 47t-61 21.5q-87 0 -103 -141h-104z" />
    <glyph glyph-name="odieresis" unicode="&#xf6;" horiz-adv-x="1134" 
d="M829 1331l33 172h160l-35 -172h-158zM442 1331l35 172h158l-33 -172h-160zM492 -27q-189 0 -293.5 112t-104.5 298q0 102 21 202.5t65.5 194t108.5 164.5t156.5 113.5t201.5 42.5q189 0 293 -111.5t104 -296.5q0 -103 -20.5 -204t-65.5 -194.5t-108.5 -164.5t-156 -113.5
t-201.5 -42.5zM903 698q0 132 -63 212.5t-201 80.5q-84 0 -154 -40.5t-115 -104.5t-76 -146.5t-44.5 -164t-13.5 -160.5q0 -132 63 -211.5t201 -79.5q87 0 158 42t115.5 107t74.5 148.5t42.5 162.5t12.5 154z" />
    <glyph glyph-name="divide" unicode="&#xf7;" horiz-adv-x="1263" 
d="M647 1026l31 160h158l-33 -160h-156zM201 670l22 125h918l-23 -125h-917zM657 279h-155l33 161h155z" />
    <glyph glyph-name="oslash" unicode="&#xf8;" horiz-adv-x="1134" 
d="M639 991q-84 0 -154 -40.5t-115 -104.5t-76 -146.5t-44.5 -164t-13.5 -160.5q0 -59 10 -117l604 647q-64 86 -211 86zM500 84q87 0 158 42t115.5 107t74.5 148.5t42.5 162.5t12.5 154q0 54 -10 109l-604 -645q63 -78 211 -78zM1044 692q0 -103 -20.5 -204t-65.5 -194.5
t-108.5 -164.5t-156 -113.5t-201.5 -42.5q-179 0 -285 103l-111 -119h-131l182 197q-53 95 -53 229q0 102 21 202.5t65.5 194t108.5 164.5t156.5 113.5t201.5 42.5q182 0 287 -105l108 115h136l-185 -197q51 -89 51 -221z" />
    <glyph glyph-name="ugrave" unicode="&#xf9;" horiz-adv-x="1177" 
d="M430 1073l-123 -643q-20 -98 -20 -160q0 -178 186 -178q144 0 240 121t135 319l104 541h142l-209 -1073h-131l41 201h-7q-134 -228 -344 -228q-184 0 -252.5 114t-31.5 308l131 678h139zM641 1614l141 -324h-108l-189 324h156z" />
    <glyph glyph-name="uacute" unicode="&#xfa;" horiz-adv-x="1177" 
d="M662 1290l174 324h157l-221 -324h-110zM430 1073l-123 -643q-20 -98 -20 -160q0 -178 186 -178q144 0 240 121t135 319l104 541h142l-209 -1073h-131l41 201h-7q-134 -228 -344 -228q-184 0 -252.5 114t-31.5 308l131 678h139z" />
    <glyph glyph-name="ucircumflex" unicode="&#xfb;" horiz-adv-x="1177" 
d="M852 1614l137 -324h-119l-102 226l-178 -226h-129l252 324h139zM430 1073l-123 -643q-20 -98 -20 -160q0 -178 186 -178q144 0 240 121t135 319l104 541h142l-209 -1073h-131l41 201h-7q-134 -228 -344 -228q-184 0 -252.5 114t-31.5 308l131 678h139z" />
    <glyph glyph-name="udieresis" unicode="&#xfc;" horiz-adv-x="1177" 
d="M846 1331l33 172h159l-34 -172h-158zM459 1331l35 172h157l-33 -172h-159zM430 1073l-123 -643q-20 -98 -20 -160q0 -178 186 -178q144 0 240 121t135 319l104 541h142l-209 -1073h-131l41 201h-7q-134 -228 -344 -228q-184 0 -252.5 114t-31.5 308l131 678h139z" />
    <glyph glyph-name="yacute" unicode="&#xfd;" horiz-adv-x="989" 
d="M317 10l-163 1063h137l106 -719l21 -172h6q39 78 78 154l379 737h143l-621 -1169q-94 -178 -176 -245t-215 -67q-30 0 -60 5t-45.5 10t-21.5 8l25 115q63 -21 102 -21q88 1 142.5 46.5t109.5 152.5zM578 1290l174 324h157l-221 -324h-110z" />
    <glyph glyph-name="thorn" unicode="&#xfe;" horiz-adv-x="1212" 
d="M594 88q81 0 148 40.5t110 104.5t73 145t43 158.5t13 149.5q0 138 -62 218.5t-186 80.5q-95 0 -179 -57t-135.5 -141t-68.5 -177l-26 -139q-8 -54 -9 -107.5t18 -103.5t49.5 -88t85.5 -61t126 -23zM20 -385l390 1999h139l-141 -725h4q62 99 154 155t204 56
q165 0 258.5 -110.5t93.5 -293.5q0 -102 -19 -201.5t-61 -194.5t-102.5 -167t-151 -116t-198.5 -44q-121 0 -202 59t-112 154h-4l-112 -571h-140z" />
    <glyph glyph-name="ydieresis" unicode="&#xff;" horiz-adv-x="989" 
d="M317 10l-163 1063h137l106 -719l21 -172h6q39 78 78 154l379 737h143l-621 -1169q-94 -178 -176 -245t-215 -67q-30 0 -60 5t-45.5 10t-21.5 8l25 115q63 -21 102 -21q88 1 142.5 46.5t109.5 152.5zM760 1331l33 172h159l-34 -172h-158zM373 1331l35 172h157l-33 -172
h-159z" />
    <glyph glyph-name="Amacron" unicode="&#x100;" horiz-adv-x="1452" 
d="M897 1427q-87 -174 -104 -206l-324 -590h559l-98 592l-29 204h-4zM1135 0l-88 512h-641l-279 -512h-147l858 1567h168l272 -1567h-143zM684 1759l23 117h557l-25 -117h-555z" />
    <glyph glyph-name="amacron" unicode="&#x101;" horiz-adv-x="1107" 
d="M399 98q119 0 228 104.5t143 276.5l10 49q-240 0 -362 -28q-100 -22 -156.5 -79.5t-56.5 -141.5q0 -87 50.5 -134t143.5 -47zM346 788h-139q14 139 121 225.5t284 86.5q86 0 152.5 -22t105.5 -60.5t62.5 -91t24 -113.5t-10.5 -127l-86 -444q-13 -76 5.5 -109.5
t72.5 -30.5l-20 -112h-17q-191 0 -168 207h-4q-68 -105 -153 -159t-211 -54q-134 0 -220 77t-86 211q0 265 340 334q119 25 404 25l10 67q13 59 6.5 111.5t-28.5 92t-70.5 62.5t-120.5 23q-104 0 -172.5 -49.5t-81.5 -149.5zM391 1339l23 117h555l-23 -117h-555z" />
    <glyph glyph-name="Abreve" unicode="&#x102;" horiz-adv-x="1452" 
d="M897 1427q-87 -174 -104 -206l-324 -590h559l-98 592l-29 204h-4zM1135 0l-88 512h-641l-279 -512h-147l858 1567h168l272 -1567h-143zM715 1972h108q-7 -82 31 -124t111 -42q157 0 213 166h110q-34 -136 -123.5 -204t-206.5 -68q-121 0 -190 67.5t-53 204.5z" />
    <glyph glyph-name="abreve" unicode="&#x103;" horiz-adv-x="1107" 
d="M399 98q119 0 228 104.5t143 276.5l10 49q-240 0 -362 -28q-100 -22 -156.5 -79.5t-56.5 -141.5q0 -87 50.5 -134t143.5 -47zM346 788h-139q14 139 121 225.5t284 86.5q86 0 152.5 -22t105.5 -60.5t62.5 -91t24 -113.5t-10.5 -127l-86 -444q-13 -76 5.5 -109.5
t72.5 -30.5l-20 -112h-17q-191 0 -168 207h-4q-68 -105 -153 -159t-211 -54q-134 0 -220 77t-86 211q0 265 340 334q119 25 404 25l10 67q13 59 6.5 111.5t-28.5 92t-70.5 62.5t-120.5 23q-104 0 -172.5 -49.5t-81.5 -149.5zM672 1290q-132 0 -201.5 76.5t-40.5 232.5h109
q-19 -100 19 -151t118 -51q175 0 221 202h111q-28 -154 -120.5 -231.5t-215.5 -77.5z" />
    <glyph glyph-name="Aogonek" unicode="&#x104;" horiz-adv-x="1452" 
d="M1202 -385h-31q-103 0 -161 38.5t-58 115.5q0 66 51 123.5t132 101.5l-88 518h-641l-279 -512h-147l858 1567h168l272 -1567q-191 -96 -191 -199q0 -84 136 -84zM897 1427q-87 -174 -104 -206l-324 -590h559l-98 592l-29 204h-4z" />
    <glyph glyph-name="aogonek" unicode="&#x105;" horiz-adv-x="1107" 
d="M811 0v6q-50 23 -68 70t-10 121h-4q-68 -105 -153 -159t-211 -54q-134 0 -220 77t-86 211q0 265 340 334q119 25 404 25l10 67q13 59 6.5 111.5t-28.5 92t-70.5 62.5t-120.5 23q-104 0 -172.5 -49.5t-81.5 -149.5h-139q14 139 121 225.5t284 86.5q86 0 152 -22t105.5 -61
t62.5 -91.5t24 -113t-10 -126.5l-86 -444q-14 -78 4.5 -110.5t73.5 -29.5l-16 -102q-91 -48 -138 -95t-47 -104q0 -84 133 -84l-20 -102h-31q-102 0 -160.5 39.5t-58.5 120.5q0 40 18 75.5t50.5 63t66 47.5t76.5 39zM399 98q119 0 228 104.5t143 276.5l10 49
q-240 0 -362 -28q-100 -22 -156.5 -79.5t-56.5 -141.5q0 -88 50 -134.5t144 -46.5z" />
    <glyph glyph-name="Cacute" unicode="&#x106;" horiz-adv-x="1533" 
d="M1501 1116h-141q-12 174 -115.5 265.5t-275.5 91.5q-132 0 -243 -55t-185 -144.5t-126 -205.5t-75 -236t-23 -238q0 -234 111.5 -371t343.5 -137q193 0 320 100.5t165 268.5h142q-44 -218 -212.5 -352t-420.5 -134q-285 0 -439.5 164t-154.5 469q0 146 33 287.5
t101 268.5t163 223.5t227.5 153t286.5 56.5q144 0 257 -51.5t184.5 -160.5t76.5 -263zM958 1694l187 272h164l-236 -272h-115z" />
    <glyph glyph-name="cacute" unicode="&#x107;" horiz-adv-x="1062" 
d="M647 1290l174 324h158l-221 -324h-111zM1012 774h-135q-1 105 -61.5 159t-164.5 54t-186.5 -56.5t-129.5 -146t-71 -188.5t-24 -197q0 -141 66.5 -226.5t205.5 -86.5q71 0 128.5 24.5t92 63.5t54 78.5t26.5 77.5h137q-32 -163 -155.5 -260t-290.5 -97q-194 0 -301 112
t-107 308q0 101 22 200.5t69 191t113 161.5t161 112t207 42q152 0 248 -82.5t96 -243.5z" />
    <glyph glyph-name="Ccircumflex" unicode="&#x108;" horiz-adv-x="1533" 
d="M1139 1966l170 -272h-117l-131 176h-2l-195 -176h-129l260 272h144zM1501 1116h-141q-12 174 -115.5 265.5t-275.5 91.5q-132 0 -243 -55t-185 -144.5t-126 -205.5t-75 -236t-23 -238q0 -234 111.5 -371t343.5 -137q193 0 320 100.5t165 268.5h142q-44 -218 -212.5 -352
t-420.5 -134q-285 0 -439.5 164t-154.5 469q0 146 33 287.5t101 268.5t163 223.5t227.5 153t286.5 56.5q144 0 257 -51.5t184.5 -160.5t76.5 -263z" />
    <glyph glyph-name="ccircumflex" unicode="&#x109;" horiz-adv-x="1062" 
d="M838 1614l137 -324h-119l-102 226l-179 -226h-129l252 324h140zM1012 774h-135q-1 105 -61.5 159t-164.5 54t-186.5 -56.5t-129.5 -146t-71 -188.5t-24 -197q0 -141 66.5 -226.5t205.5 -86.5q71 0 128.5 24.5t92 63.5t54 78.5t26.5 77.5h137q-32 -163 -155.5 -260
t-290.5 -97q-194 0 -301 112t-107 308q0 101 22 200.5t69 191t113 161.5t161 112t207 42q152 0 248 -82.5t96 -243.5z" />
    <glyph glyph-name="Cdotaccent" unicode="&#x10a;" horiz-adv-x="1533" 
d="M1501 1116h-141q-12 174 -115.5 265.5t-275.5 91.5q-132 0 -243 -55t-185 -144.5t-126 -205.5t-75 -236t-23 -238q0 -234 111.5 -371t343.5 -137q193 0 320 100.5t165 268.5h142q-44 -218 -212.5 -352t-420.5 -134q-285 0 -439.5 164t-154.5 469q0 146 33 287.5
t101 268.5t163 223.5t227.5 153t286.5 56.5q144 0 257 -51.5t184.5 -160.5t76.5 -263zM965 1718l30 162h152l-31 -162h-151z" />
    <glyph glyph-name="cdotaccent" unicode="&#x10b;" horiz-adv-x="1062" 
d="M1012 774h-135q-1 105 -61.5 159t-164.5 54t-186.5 -56.5t-129.5 -146t-71 -188.5t-24 -197q0 -141 66.5 -226.5t205.5 -86.5q71 0 128.5 24.5t92 63.5t54 78.5t26.5 77.5h137q-32 -163 -155.5 -260t-290.5 -97q-194 0 -301 112t-107 308q0 101 22 200.5t69 191
t113 161.5t161 112t207 42q152 0 248 -82.5t96 -243.5zM645 1339l31 162h151l-30 -162h-152z" />
    <glyph glyph-name="Ccaron" unicode="&#x10c;" horiz-adv-x="1533" 
d="M952 1694l-174 272h123l131 -176h2l195 176h135l-268 -272h-144zM1501 1116h-141q-12 174 -115.5 265.5t-275.5 91.5q-132 0 -243 -55t-185 -144.5t-126 -205.5t-75 -236t-23 -238q0 -234 111.5 -371t343.5 -137q193 0 320 100.5t165 268.5h142q-44 -218 -212.5 -352
t-420.5 -134q-285 0 -439.5 164t-154.5 469q0 146 33 287.5t101 268.5t163 223.5t227.5 153t286.5 56.5q144 0 257 -51.5t184.5 -160.5t76.5 -263z" />
    <glyph glyph-name="ccaron" unicode="&#x10d;" horiz-adv-x="1062" 
d="M643 1290l-137 324h119l102 -225l178 225h129l-252 -324h-139zM1012 774h-135q-1 105 -61.5 159t-164.5 54t-186.5 -56.5t-129.5 -146t-71 -188.5t-24 -197q0 -141 66.5 -226.5t205.5 -86.5q71 0 128.5 24.5t92 63.5t54 78.5t26.5 77.5h137q-32 -163 -155.5 -260
t-290.5 -97q-194 0 -301 112t-107 308q0 101 22 200.5t69 191t113 161.5t161 112t207 42q152 0 248 -82.5t96 -243.5z" />
    <glyph glyph-name="Dcaron" unicode="&#x10e;" horiz-adv-x="1570" 
d="M823 1694l-174 272h123l131 -176h2l195 176h135l-268 -272h-144zM127 0l303 1567h422q146 0 262.5 -35.5t204 -107.5t135 -189.5t47.5 -273.5q0 -144 -29 -278t-96 -259.5t-165 -218.5t-247 -149t-331 -56h-506zM293 125h366q117 0 215.5 30.5t168.5 82t125.5 122
t89.5 146t56.5 159.5t31 157.5t8.5 144.5q0 126 -36.5 219t-104.5 148t-157.5 81.5t-203.5 26.5h-303z" />
    <glyph glyph-name="dcaron" unicode="&#x10f;" horiz-adv-x="1206" 
d="M1305 1278l94 336h133l-137 -336h-90zM647 985q-85 0 -156 -40t-116.5 -104t-77.5 -146.5t-45.5 -164.5t-13.5 -161q0 -125 61.5 -202t183.5 -77q77 0 144.5 31.5t114.5 83.5t78 115t44 131l31 157q9 55 10 109t-16 102.5t-46 85.5t-79.5 58.5t-116.5 21.5zM1229 1614
l-314 -1614h-131l35 184h-6q-56 -93 -146.5 -152t-207.5 -59q-159 0 -261 103.5t-102 292.5q0 107 21.5 211t66 198.5t107.5 166t153 113.5t195 42q123 0 200.5 -54.5t104.5 -150.5h4l139 719h142z" />
    <glyph glyph-name="Dcroat" unicode="&#x110;" horiz-adv-x="1587" 
d="M649 0h-506l144 737h-178l24 123h176l137 707h422q146 0 263 -35.5t204.5 -107.5t135 -189.5t47.5 -273.5q0 -144 -29.5 -278t-96 -259.5t-165 -218.5t-247.5 -149t-331 -56zM309 125h367q117 0 215.5 30.5t168.5 82t125 122t89 146t56.5 159.5t31 157.5t8.5 144.5
q0 126 -36.5 219t-104.5 148t-157.5 81.5t-203.5 26.5h-303l-112 -582h465l-23 -123h-467z" />
    <glyph glyph-name="dcroat" unicode="&#x111;" horiz-adv-x="1206" 
d="M647 985q-85 0 -156 -40t-116.5 -104t-77.5 -146.5t-45.5 -164.5t-13.5 -161q0 -125 61.5 -202t183.5 -77q77 0 144.5 31.5t114.5 83.5t78 115t44 131l31 157q9 55 10 109t-16 102.5t-46 85.5t-79.5 58.5t-116.5 21.5zM813 184q-56 -93 -146.5 -152t-207.5 -59
q-159 0 -261 103.5t-102 292.5q0 107 21.5 211t66 198.5t107.5 166t153 113.5t195 42q123 0 200.5 -54.5t104.5 -150.5h4l78 397h-344l20 105h342l43 217h142l-43 -217h131l-21 -105h-129l-252 -1292h-131l35 184h-6z" />
    <glyph glyph-name="Emacron" unicode="&#x112;" horiz-adv-x="1361" 
d="M127 0l303 1567h973l-25 -129h-829l-113 -578h760l-27 -125h-757l-117 -606h842l-27 -129h-983zM680 1759l22 117h558l-25 -117h-555z" />
    <glyph glyph-name="emacron" unicode="&#x113;" horiz-adv-x="1093" 
d="M862 614l2 13q13 74 5.5 140t-30.5 116t-75 79t-127 29t-138.5 -31t-108.5 -85t-76 -119t-50 -142h598zM922 268q-35 -130 -146 -212.5t-289 -82.5q-186 0 -289.5 112.5t-103.5 301.5q0 104 21.5 205t66.5 193t109.5 162t157.5 111.5t202 41.5q139 0 225.5 -68.5
t114.5 -187t2 -277.5l-12 -63h-737q-8 -55 -8 -117q0 -88 26 -153.5t88 -106.5t156 -41q216 0 280 182h136zM428 1339l23 117h555l-23 -117h-555z" />
    <glyph glyph-name="Ebreve" unicode="&#x114;" horiz-adv-x="1361" 
d="M127 0l303 1567h973l-25 -129h-829l-113 -578h760l-27 -125h-757l-117 -606h842l-27 -129h-983zM709 1985h108q-7 -82 30.5 -124t110.5 -42q157 0 213 166h111q-34 -136 -123.5 -204.5t-206.5 -68.5q-121 0 -190 68t-53 205z" />
    <glyph glyph-name="ebreve" unicode="&#x115;" horiz-adv-x="1093" 
d="M862 614l2 13q13 74 5.5 140t-30.5 116t-75 79t-127 29t-138.5 -31t-108.5 -85t-76 -119t-50 -142h598zM922 268q-35 -130 -146 -212.5t-289 -82.5q-186 0 -289.5 112.5t-103.5 301.5q0 104 21.5 205t66.5 193t109.5 162t157.5 111.5t202 41.5q139 0 225.5 -68.5
t114.5 -187t2 -277.5l-12 -63h-737q-8 -55 -8 -117q0 -88 26 -153.5t88 -106.5t156 -41q216 0 280 182h136zM711 1290q-132 0 -201.5 76.5t-40.5 232.5h109q-19 -100 19 -151t118 -51q175 0 221 202h111q-28 -154 -120.5 -231.5t-215.5 -77.5z" />
    <glyph glyph-name="Edotaccent" unicode="&#x116;" horiz-adv-x="1361" 
d="M874 1718l31 162h152l-31 -162h-152zM127 0l303 1567h973l-25 -129h-829l-113 -578h760l-27 -125h-757l-117 -606h842l-27 -129h-983z" />
    <glyph glyph-name="edotaccent" unicode="&#x117;" horiz-adv-x="1093" 
d="M862 614l2 13q13 74 5.5 140t-30.5 116t-75 79t-127 29t-138.5 -31t-108.5 -85t-76 -119t-50 -142h598zM922 268q-35 -130 -146 -212.5t-289 -82.5q-186 0 -289.5 112.5t-103.5 301.5q0 104 21.5 205t66.5 193t109.5 162t157.5 111.5t202 41.5q139 0 225.5 -68.5
t114.5 -187t2 -277.5l-12 -63h-737q-8 -55 -8 -117q0 -88 26 -153.5t88 -106.5t156 -41q216 0 280 182h136zM631 1339l31 162h151l-31 -162h-151z" />
    <glyph glyph-name="Eogonek" unicode="&#x118;" horiz-adv-x="1361" 
d="M1059 -283l-21 -102h-28q-103 0 -162.5 39t-59.5 119q0 69 55 127t142 100h-858l303 1567h973l-25 -129h-829l-113 -578h760l-27 -125h-757l-117 -606h842l-27 -129q-85 -46 -134.5 -94t-49.5 -105q0 -84 133 -84z" />
    <glyph glyph-name="eogonek" unicode="&#x119;" horiz-adv-x="1093" 
d="M862 614l2 13q13 75 6 141t-29.5 115.5t-74.5 78.5t-129 29q-75 0 -138.5 -31t-108.5 -85t-76 -119t-50 -142h598zM649 -283l-18 -102h-31q-102 0 -160.5 39t-58.5 119q0 118 164 204v3q-40 -7 -64 -7q-174 0 -280.5 110t-106.5 304q0 104 21.5 205t67 193t110 162
t157 111.5t201.5 41.5q211 0 296.5 -144.5t45.5 -388.5l-12 -63h-737q-8 -55 -8 -117q0 -88 26 -153.5t88 -106.5t156 -41q216 0 280 182h136q-23 -83 -74.5 -146t-145.5 -110q-84 -41 -136 -96.5t-52 -110.5q0 -88 135 -88z" />
    <glyph glyph-name="Ecaron" unicode="&#x11a;" horiz-adv-x="1361" 
d="M877 1694l-175 272h123l131 -176h2l195 176h135l-268 -272h-143zM127 0l303 1567h973l-25 -129h-829l-113 -578h760l-27 -125h-757l-117 -606h842l-27 -129h-983z" />
    <glyph glyph-name="ecaron" unicode="&#x11b;" horiz-adv-x="1093" 
d="M631 1290l-137 324h118l103 -225l178 225h129l-252 -324h-139zM862 614l2 13q13 74 5.5 140t-30.5 116t-75 79t-127 29t-138.5 -31t-108.5 -85t-76 -119t-50 -142h598zM922 268q-35 -130 -146 -212.5t-289 -82.5q-186 0 -289.5 112.5t-103.5 301.5q0 104 21.5 205
t66.5 193t109.5 162t157.5 111.5t202 41.5q139 0 225.5 -68.5t114.5 -187t2 -277.5l-12 -63h-737q-8 -55 -8 -117q0 -88 26 -153.5t88 -106.5t156 -41q216 0 280 182h136z" />
    <glyph glyph-name="Gcircumflex" unicode="&#x11c;" horiz-adv-x="1617" 
d="M1147 1966l170 -272h-117l-131 176h-2l-195 -176h-129l261 272h143zM1509 1151h-139q-1 153 -102 237.5t-275 84.5q-120 0 -222 -41t-174.5 -112t-128 -160.5t-88.5 -191.5t-49 -199.5t-16 -190.5q0 -108 25.5 -196t78 -155t139.5 -104t202 -37q202 0 352 134t193 353
l14 72h-469l27 129h610l-150 -774h-129l49 260h-4q-74 -134 -208 -213.5t-302 -79.5q-279 0 -426 166t-147 449q0 98 15 197.5t48 199t81 189t117.5 167.5t153.5 134.5t193.5 89t233.5 32.5q223 0 360.5 -120.5t136.5 -319.5z" />
    <glyph glyph-name="gcircumflex" unicode="&#x11d;" horiz-adv-x="1210" 
d="M836 1614l137 -324h-119l-102 226l-179 -226h-129l252 324h140zM866 463l29 153q17 65 9 131t-33 119t-82.5 86t-139.5 33q-87 0 -158 -39.5t-117 -102t-77.5 -144t-45 -161t-13.5 -157.5q0 -125 58.5 -197.5t184.5 -72.5q79 0 147.5 32t115.5 84t78 112.5t44 123.5z
M49 -109h131q2 -85 59.5 -137.5t184.5 -52.5q141 0 233 83.5t129 274.5l27 136h-6q-137 -197 -356 -197q-161 0 -259 100t-98 285q0 105 21.5 207.5t67 194.5t109 162t154.5 111.5t197 41.5q121 0 199 -55t108 -158h4l37 186h129l-196 -1010q-47 -242 -172 -356.5
t-340 -114.5q-172 0 -269 81.5t-94 217.5z" />
    <glyph glyph-name="Gbreve" unicode="&#x11e;" horiz-adv-x="1617" 
d="M797 1985h108q-7 -82 31 -124t111 -42q157 0 213 166h110q-34 -136 -123.5 -204.5t-206.5 -68.5q-121 0 -190 68t-53 205zM1509 1151h-139q-1 153 -102 237.5t-275 84.5q-120 0 -222 -41t-174.5 -112t-128 -160.5t-88.5 -191.5t-49 -199.5t-16 -190.5q0 -108 25.5 -196
t78 -155t139.5 -104t202 -37q202 0 352 134t193 353l14 72h-469l27 129h610l-150 -774h-129l49 260h-4q-74 -134 -208 -213.5t-302 -79.5q-279 0 -426 166t-147 449q0 98 15 197.5t48 199t81 189t117.5 167.5t153.5 134.5t193.5 89t233.5 32.5q223 0 360.5 -120.5
t136.5 -319.5z" />
    <glyph glyph-name="gbreve" unicode="&#x11f;" horiz-adv-x="1210" 
d="M866 463l29 153q17 65 9 131t-33 119t-82.5 86t-139.5 33q-87 0 -158 -39.5t-117 -102t-77.5 -144t-45 -161t-13.5 -157.5q0 -125 58.5 -197.5t184.5 -72.5q79 0 147.5 32t115.5 84t78 112.5t44 123.5zM49 -109h131q2 -85 59.5 -137.5t184.5 -52.5q141 0 233 83.5
t129 274.5l27 136h-6q-137 -197 -356 -197q-161 0 -259 100t-98 285q0 105 21.5 207.5t67 194.5t109 162t154.5 111.5t197 41.5q121 0 199 -55t108 -158h4l37 186h129l-196 -1010q-47 -242 -172 -356.5t-340 -114.5q-172 0 -269 81.5t-94 217.5zM723 1290
q-132 0 -201.5 76.5t-40.5 232.5h109q-19 -100 19 -151t118 -51q175 0 221 202h111q-28 -154 -120.5 -231.5t-215.5 -77.5z" />
    <glyph glyph-name="Gdotaccent" unicode="&#x120;" horiz-adv-x="1617" 
d="M963 1718l30 162h152l-31 -162h-151zM1509 1151h-139q-1 153 -102 237.5t-275 84.5q-120 0 -222 -41t-174.5 -112t-128 -160.5t-88.5 -191.5t-49 -199.5t-16 -190.5q0 -108 25.5 -196t78 -155t139.5 -104t202 -37q202 0 352 134t193 353l14 72h-469l27 129h610l-150 -774
h-129l49 260h-4q-74 -134 -208 -213.5t-302 -79.5q-279 0 -426 166t-147 449q0 98 15 197.5t48 199t81 189t117.5 167.5t153.5 134.5t193.5 89t233.5 32.5q223 0 360.5 -120.5t136.5 -319.5z" />
    <glyph glyph-name="gdotaccent" unicode="&#x121;" horiz-adv-x="1210" 
d="M866 463l29 153q17 65 9 131t-33 119t-82.5 86t-139.5 33q-87 0 -158 -39.5t-117 -102t-77.5 -144t-45 -161t-13.5 -157.5q0 -125 58.5 -197.5t184.5 -72.5q79 0 147.5 32t115.5 84t78 112.5t44 123.5zM49 -109h131q2 -85 59.5 -137.5t184.5 -52.5q141 0 233 83.5
t129 274.5l27 136h-6q-137 -197 -356 -197q-161 0 -259 100t-98 285q0 105 21.5 207.5t67 194.5t109 162t154.5 111.5t197 41.5q121 0 199 -55t108 -158h4l37 186h129l-196 -1010q-47 -242 -172 -356.5t-340 -114.5q-172 0 -269 81.5t-94 217.5zM643 1339l31 162h151
l-30 -162h-152z" />
    <glyph glyph-name="Gcommaaccent" unicode="&#x122;" horiz-adv-x="1617" 
d="M518 -406l111 277h145l-162 -277h-94zM1509 1151h-139q-1 153 -102 237.5t-275 84.5q-120 0 -222 -41t-174.5 -112t-128 -160.5t-88.5 -191.5t-49 -199.5t-16 -190.5q0 -108 25.5 -196t78 -155t139.5 -104t202 -37q202 0 352 134t193 353l14 72h-469l27 129h610
l-150 -774h-129l49 260h-4q-74 -134 -208 -213.5t-302 -79.5q-279 0 -426 166t-147 449q0 98 15 197.5t48 199t81 189t117.5 167.5t153.5 134.5t193.5 89t233.5 32.5q223 0 360.5 -120.5t136.5 -319.5z" />
    <glyph glyph-name="gcommaaccent" unicode="&#x123;" horiz-adv-x="1210" 
d="M889 1583l-109 -270h-151l166 270h94zM866 463l29 153q17 65 9 131t-33 119t-82.5 86t-139.5 33q-87 0 -158 -39.5t-117 -102t-77.5 -144t-45 -161t-13.5 -157.5q0 -125 58.5 -197.5t184.5 -72.5q79 0 147.5 32t115.5 84t78 112.5t44 123.5zM49 -109h131
q2 -85 59.5 -137.5t184.5 -52.5q141 0 233 83.5t129 274.5l27 136h-6q-137 -197 -356 -197q-161 0 -259 100t-98 285q0 105 21.5 207.5t67 194.5t109 162t154.5 111.5t197 41.5q121 0 199 -55t108 -158h4l37 186h129l-196 -1010q-47 -242 -172 -356.5t-340 -114.5
q-172 0 -269 81.5t-94 217.5z" />
    <glyph glyph-name="Hcircumflex" unicode="&#x124;" horiz-adv-x="1591" 
d="M414 735l-142 -735h-143l303 1567h143l-137 -705h852l137 705h144l-303 -1567h-144l142 735h-852zM1130 1966l170 -272h-116l-131 176h-2l-195 -176h-129l260 272h143z" />
    <glyph glyph-name="hcircumflex" unicode="&#x125;" horiz-adv-x="1189" 
d="M770 0l123 643q16 82 16 143q0 193 -188 193q-146 0 -242.5 -113t-132.5 -297l-110 -569h-140l314 1614h139l-141 -723h4q53 93 145 151t205 58q180 0 247.5 -114t28.5 -308l-129 -678h-139zM958 1966l170 -272h-116l-131 176h-2l-195 -176h-129l260 272h143z" />
    <glyph glyph-name="Hbar" unicode="&#x126;" horiz-adv-x="1591" 
d="M438 862h852l62 320h-852zM414 735l-142 -735h-143l229 1182h-192l18 106h195l53 279h143l-53 -279h852l53 279h144l-53 -279h180l-19 -106h-182l-229 -1182h-144l142 735h-852z" />
    <glyph glyph-name="hbar" unicode="&#x127;" horiz-adv-x="1189" 
d="M346 569l-110 -569h-140l252 1292h-131l19 105h131l43 217h139l-43 -217h344l-21 -105h-344l-77 -401h4q53 93 145 151t205 58q180 0 247.5 -114t28.5 -308l-129 -678h-139l123 643q16 82 16 143q0 193 -188 193q-146 0 -242.5 -113t-132.5 -297z" />
    <glyph glyph-name="Itilde" unicode="&#x128;" horiz-adv-x="598" 
d="M129 0l303 1567h143l-303 -1567h-143zM190 1696q6 50 21 93.5t41.5 80t69.5 57.5t98 21q37 0 72 -14t61 -34t50 -40t48.5 -34t46.5 -14q47 0 72.5 36t38.5 106h109q-10 -107 -67 -180.5t-161 -73.5q-46 0 -89 21t-70.5 46.5t-60.5 46.5t-60 21q-85 0 -111 -139h-109z" />
    <glyph glyph-name="itilde" unicode="&#x129;" horiz-adv-x="526" 
d="M119 1286q13 112 64 183t145 71q38 0 75 -21.5t61 -47t53.5 -47t53.5 -21.5q81 0 97 141h92q-6 -53 -19.5 -96.5t-37 -80t-61 -57t-85.5 -20.5q-38 0 -76 21.5t-63 47t-55 47t-54 21.5q-76 0 -98 -141h-92zM96 0l207 1073h139l-206 -1073h-140z" />
    <glyph glyph-name="Imacron" unicode="&#x12a;" horiz-adv-x="598" 
d="M129 0l303 1567h143l-303 -1567h-143zM264 1759l23 117h557l-25 -117h-555z" />
    <glyph glyph-name="imacron" unicode="&#x12b;" horiz-adv-x="526" 
d="M193 1339l24 117h461l-25 -117h-460zM96 0l207 1073h139l-206 -1073h-140z" />
    <glyph glyph-name="Ibreve" unicode="&#x12c;" horiz-adv-x="598" 
d="M129 0l303 1567h143l-303 -1567h-143zM303 1985h109q-7 -82 30.5 -124t110.5 -42q157 0 213 166h111q-34 -136 -123.5 -204.5t-206.5 -68.5q-121 0 -190.5 68t-53.5 205z" />
    <glyph glyph-name="ibreve" unicode="&#x12d;" horiz-adv-x="526" 
d="M422 1290q-76 0 -127.5 31.5t-74.5 100t5 177.5h97q-24 -100 7.5 -152t102.5 -52q155 0 211 204h98q-35 -156 -119.5 -232.5t-199.5 -76.5zM96 0l207 1073h139l-206 -1073h-140z" />
    <glyph glyph-name="Iogonek" unicode="&#x12e;" horiz-adv-x="598" 
d="M201 -385h-31q-102 0 -160.5 39t-58.5 119q0 65 48.5 121.5t127.5 95.5l305 1577h143l-303 -1567q-184 -100 -184 -199q0 -84 133 -84z" />
    <glyph glyph-name="iogonek" unicode="&#x12f;" horiz-adv-x="526" 
d="M350 1339l31 162h151l-30 -162h-152zM160 -385h-31q-103 0 -161 39t-58 119q0 68 50 125.5t136 97.5l209 1077h139l-206 -1069q-90 -49 -141.5 -98.5t-51.5 -106.5q0 -82 133 -82z" />
    <glyph glyph-name="Idotaccent" unicode="&#x130;" horiz-adv-x="598" 
d="M129 0l303 1567h143l-303 -1567h-143zM459 1718l30 162h152l-31 -162h-151z" />
    <glyph glyph-name="dotlessi" unicode="&#x131;" horiz-adv-x="526" 
d="M96 0l207 1073h139l-206 -1073h-140z" />
    <glyph glyph-name="IJ" unicode="&#x132;" horiz-adv-x="1374" 
d="M129 0l303 1567h143l-303 -1567h-143zM584 -2h-56l23 123h33q90 0 154.5 13t110.5 38t77.5 70t51 101.5t34.5 139.5l211 1084h143l-219 -1135q-17 -86 -42 -150t-68 -119.5t-103.5 -90.5t-148 -54.5t-201.5 -19.5z" />
    <glyph glyph-name="ij" unicode="&#x133;" horiz-adv-x="1058" 
d="M350 1339l31 162h151l-30 -162h-152zM96 0l207 1073h139l-206 -1073h-140zM881 1339l30 162h152l-31 -162h-151zM422 -403q-73 0 -113 20l23 113q38 -15 92 -15q78 0 120.5 41.5t61.5 134.5l230 1182h139l-234 -1204q-51 -272 -319 -272z" />
    <glyph glyph-name="Jcircumflex" unicode="&#x134;" horiz-adv-x="849" 
d="M903 1966l170 -272h-117l-131 176h-2l-194 -176h-129l260 272h143zM55 -2h-110l22 123h88q90 0 154.5 13t110.5 38t77.5 70t51 101.5t34.5 139.5l211 1084h144l-220 -1135q-17 -86 -42 -150t-68 -119.5t-103.5 -90.5t-148 -54.5t-201.5 -19.5z" />
    <glyph glyph-name="jcircumflex" unicode="&#x135;" horiz-adv-x="526" 
d="M543 1614l110 -324h-110l-84 226l-160 -226h-125l227 324h142zM-223 -383l22 113q38 -15 92 -15q78 0 121 41.5t62 134.5l229 1182h139l-233 -1204q-51 -272 -320 -272q-72 0 -112 20z" />
    <glyph glyph-name="Kcommaaccent" unicode="&#x136;" horiz-adv-x="1439" 
d="M467 -406l111 277h145l-162 -277h-94zM373 526l-103 -526h-143l303 1567h143l-165 -854l938 854h188l-735 -666l491 -901h-162l-438 809z" />
    <glyph glyph-name="kcommaaccent" unicode="&#x137;" horiz-adv-x="1095" 
d="M291 -406l110 277h146l-162 -277h-94zM303 344l-67 -344h-140l314 1614h139l-211 -1088l582 547h174l-451 -416l303 -657h-155l-254 563z" />
    <glyph glyph-name="kgreenlandic" unicode="&#x138;" horiz-adv-x="1095" 
d="M301 344l-65 -344h-140l207 1073h139l-106 -547l584 547h174l-451 -416l303 -657h-155l-254 563z" />
    <glyph glyph-name="Lacute" unicode="&#x139;" horiz-adv-x="1218" 
d="M467 1694l186 272h164l-235 -272h-115zM127 0l303 1567h143l-278 -1438h790l-24 -129h-934z" />
    <glyph glyph-name="lacute" unicode="&#x13a;" horiz-adv-x="526" 
d="M426 1694l186 272h164l-235 -272h-115zM94 0l314 1614h139l-314 -1614h-139z" />
    <glyph glyph-name="Lcommaaccent" unicode="&#x13b;" horiz-adv-x="1218" 
d="M393 -406l111 277h145l-162 -277h-94zM127 0l303 1567h143l-278 -1438h790l-24 -129h-934z" />
    <glyph glyph-name="lcommaaccent" unicode="&#x13c;" horiz-adv-x="526" 
d="M-39 -406l111 277h145l-162 -277h-94zM94 0l314 1614h139l-314 -1614h-139z" />
    <glyph glyph-name="Lcaron" unicode="&#x13d;" horiz-adv-x="1218" 
d="M762 1214l129 400h158l-175 -400h-112zM127 0l303 1567h143l-278 -1438h790l-24 -129h-934z" />
    <glyph glyph-name="lcaron" unicode="&#x13e;" horiz-adv-x="526" 
d="M623 1278l94 336h133l-137 -336h-90zM94 0l314 1614h139l-314 -1614h-139z" />
    <glyph glyph-name="Ldot" unicode="&#x13f;" horiz-adv-x="1218" 
d="M127 0l303 1567h143l-278 -1438h790l-24 -129h-934zM856 700l35 183h178l-35 -183h-178z" />
    <glyph glyph-name="ldot" unicode="&#x140;" horiz-adv-x="577" 
d="M94 0l314 1614h139l-314 -1614h-139zM516 733l29 156h153l-30 -156h-152z" />
    <glyph glyph-name="Lslash" unicode="&#x141;" horiz-adv-x="1220" 
d="M129 0l115 592l-178 -68l24 133l180 68l162 842h143l-151 -783l549 207l-27 -133l-549 -207l-100 -522h790l-24 -129h-934z" />
    <glyph glyph-name="lslash" unicode="&#x142;" horiz-adv-x="563" 
d="M250 0h-139l133 684l-199 -131l27 143l200 131l152 787h139l-131 -680l201 133l-27 -143l-203 -133z" />
    <glyph glyph-name="Nacute" unicode="&#x143;" horiz-adv-x="1595" 
d="M958 1694l187 272h164l-236 -272h-115zM127 0l303 1567h164l516 -1225l55 -147h4l267 1372h135l-303 -1567h-160l-526 1249l-50 131h-4l-266 -1380h-135z" />
    <glyph glyph-name="nacute" unicode="&#x144;" horiz-adv-x="1189" 
d="M686 1290l174 324h158l-221 -324h-111zM768 0l125 643q16 78 16 143q0 91 -43 142t-145 51q-146 0 -242.5 -113t-132.5 -297l-110 -569h-140l207 1073h131l-39 -196h4q60 103 152.5 163t210.5 60q180 0 247.5 -114t28.5 -308l-129 -678h-141z" />
    <glyph glyph-name="Ncommaaccent" unicode="&#x145;" horiz-adv-x="1595" 
d="M494 -406l110 277h146l-162 -277h-94zM127 0l303 1567h164l516 -1225l55 -147h4l267 1372h135l-303 -1567h-160l-526 1249l-50 131h-4l-266 -1380h-135z" />
    <glyph glyph-name="ncommaaccent" unicode="&#x146;" horiz-adv-x="1189" 
d="M295 -406l111 277h145l-162 -277h-94zM768 0l125 643q16 78 16 143q0 91 -43 142t-145 51q-146 0 -242.5 -113t-132.5 -297l-110 -569h-140l207 1073h131l-39 -196h4q60 103 152.5 163t210.5 60q180 0 247.5 -114t28.5 -308l-129 -678h-141z" />
    <glyph glyph-name="Ncaron" unicode="&#x147;" horiz-adv-x="1595" 
d="M958 1694l-174 272h123l131 -176h2l195 176h135l-268 -272h-144zM127 0l303 1567h164l516 -1225l55 -147h4l267 1372h135l-303 -1567h-160l-526 1249l-50 131h-4l-266 -1380h-135z" />
    <glyph glyph-name="ncaron" unicode="&#x148;" horiz-adv-x="1189" 
d="M674 1290l-137 324h118l103 -225l178 225h129l-252 -324h-139zM768 0l125 643q16 78 16 143q0 91 -43 142t-145 51q-146 0 -242.5 -113t-132.5 -297l-110 -569h-140l207 1073h131l-39 -196h4q60 103 152.5 163t210.5 60q180 0 247.5 -114t28.5 -308l-129 -678h-141z" />
    <glyph glyph-name="napostrophe" unicode="&#x149;" horiz-adv-x="1189" 
d="M264 1364l111 276h145l-162 -276h-94zM768 0l125 643q16 78 16 143q0 91 -43 142t-145 51q-146 0 -242.5 -113t-132.5 -297l-110 -569h-140l207 1073h131l-39 -196h4q60 103 152.5 163t210.5 60q180 0 247.5 -114t28.5 -308l-129 -678h-141z" />
    <glyph glyph-name="Eng" unicode="&#x14a;" horiz-adv-x="1595" 
d="M723 -387h-66l25 125h53q174 0 260.5 54t124.5 173l-538 1284l-50 131h-4l-266 -1380h-135l303 1567h164l516 -1225l55 -147h4l267 1372h135l-260 -1346l-17 -88l-12 -59l-4 -21q-17 -89 -42.5 -154.5t-67.5 -121.5t-101.5 -90.5t-145.5 -54t-198 -19.5z" />
    <glyph glyph-name="eng" unicode="&#x14b;" horiz-adv-x="1189" 
d="M565 -401q-74 0 -114 20l22 113q45 -15 92 -15q78 0 121 42t62 135l20 106l12 68l47 239l66 336q16 78 16 143q0 91 -43 142t-145 51q-146 0 -242.5 -113t-132.5 -297l-110 -569h-140l207 1073h131l-39 -196h4q60 103 152.5 163t210.5 60q180 0 247.5 -114t28.5 -308
l-129 -678l-24 -129q-54 -272 -320 -272z" />
    <glyph glyph-name="Omacron" unicode="&#x14c;" horiz-adv-x="1634" 
d="M770 1759l23 117h557l-25 -117h-555zM170 586q0 149 34.5 294.5t104 273t164.5 225t224.5 154t275.5 56.5q282 0 436 -166.5t154 -453.5q0 -139 -31.5 -279.5t-98 -270t-159 -230t-224.5 -160.5t-284 -60q-283 0 -439.5 167t-156.5 450zM1415 973q0 106 -25 193.5
t-77 157.5t-141.5 109.5t-208.5 39.5q-107 0 -201 -40.5t-163.5 -109.5t-124.5 -158t-89 -189.5t-51.5 -201t-16.5 -194.5q1 -82 16.5 -154t50.5 -135.5t87 -109t129.5 -71.5t173.5 -26q125 0 233 58.5t181.5 152t126 212t76.5 237.5t24 229z" />
    <glyph glyph-name="omacron" unicode="&#x14d;" horiz-adv-x="1134" 
d="M440 1339l23 117h555l-23 -117h-555zM492 -27q-189 0 -293.5 112t-104.5 298q0 102 21 202.5t65.5 194t108.5 164.5t156.5 113.5t201.5 42.5q189 0 293 -111.5t104 -296.5q0 -103 -20.5 -204t-65.5 -194.5t-108.5 -164.5t-156 -113.5t-201.5 -42.5zM903 698
q0 132 -63 212.5t-201 80.5q-84 0 -154 -40.5t-115 -104.5t-76 -146.5t-44.5 -164t-13.5 -160.5q0 -132 63 -211.5t201 -79.5q87 0 158 42t115.5 107t74.5 148.5t42.5 162.5t12.5 154z" />
    <glyph glyph-name="Obreve" unicode="&#x14e;" horiz-adv-x="1634" 
d="M811 1985h109q-7 -82 30.5 -124t110.5 -42q157 0 213 166h110q-34 -136 -123 -204.5t-206 -68.5q-121 0 -190.5 68t-53.5 205zM170 586q0 149 34.5 294.5t104 273t164.5 225t224.5 154t275.5 56.5q282 0 436 -166.5t154 -453.5q0 -139 -31.5 -279.5t-98 -270t-159 -230
t-224.5 -160.5t-284 -60q-283 0 -439.5 167t-156.5 450zM1415 973q0 106 -25 193.5t-77 157.5t-141.5 109.5t-208.5 39.5q-107 0 -201 -40.5t-163.5 -109.5t-124.5 -158t-89 -189.5t-51.5 -201t-16.5 -194.5q1 -82 16.5 -154t50.5 -135.5t87 -109t129.5 -71.5t173.5 -26
q125 0 233 58.5t181.5 152t126 212t76.5 237.5t24 229z" />
    <glyph glyph-name="obreve" unicode="&#x14f;" horiz-adv-x="1134" 
d="M492 -27q-189 0 -293.5 112t-104.5 298q0 102 21 202.5t65.5 194t108.5 164.5t156.5 113.5t201.5 42.5q189 0 293 -111.5t104 -296.5q0 -103 -20.5 -204t-65.5 -194.5t-108.5 -164.5t-156 -113.5t-201.5 -42.5zM903 698q0 132 -63 212.5t-201 80.5q-84 0 -154 -40.5
t-115 -104.5t-76 -146.5t-44.5 -164t-13.5 -160.5q0 -132 63 -211.5t201 -79.5q87 0 158 42t115.5 107t74.5 148.5t42.5 162.5t12.5 154zM723 1290q-132 0 -201.5 76.5t-40.5 232.5h109q-19 -100 19 -151t118 -51q175 0 221 202h111q-28 -154 -120.5 -231.5t-215.5 -77.5z
" />
    <glyph glyph-name="Ohungarumlaut" unicode="&#x150;" horiz-adv-x="1634" 
d="M1108 1720l129 273h156l-187 -273h-98zM844 1720l135 273h156l-195 -273h-96zM170 586q0 149 34.5 294.5t104 273t164.5 225t224.5 154t275.5 56.5q282 0 436 -166.5t154 -453.5q0 -139 -31.5 -279.5t-98 -270t-159 -230t-224.5 -160.5t-284 -60q-283 0 -439.5 167
t-156.5 450zM1415 973q0 106 -25 193.5t-77 157.5t-141.5 109.5t-208.5 39.5q-107 0 -201 -40.5t-163.5 -109.5t-124.5 -158t-89 -189.5t-51.5 -201t-16.5 -194.5q1 -82 16.5 -154t50.5 -135.5t87 -109t129.5 -71.5t173.5 -26q125 0 233 58.5t181.5 152t126 212t76.5 237.5
t24 229z" />
    <glyph glyph-name="ohungarumlaut" unicode="&#x151;" horiz-adv-x="1134" 
d="M764 1290l188 324h148l-236 -324h-100zM496 1290l190 324h145l-235 -324h-100zM492 -27q-189 0 -293.5 112t-104.5 298q0 102 21 202.5t65.5 194t108.5 164.5t156.5 113.5t201.5 42.5q189 0 293 -111.5t104 -296.5q0 -103 -20.5 -204t-65.5 -194.5t-108.5 -164.5
t-156 -113.5t-201.5 -42.5zM903 698q0 132 -63 212.5t-201 80.5q-84 0 -154 -40.5t-115 -104.5t-76 -146.5t-44.5 -164t-13.5 -160.5q0 -132 63 -211.5t201 -79.5q87 0 158 42t115.5 107t74.5 148.5t42.5 162.5t12.5 154z" />
    <glyph glyph-name="OE" unicode="&#x152;" horiz-adv-x="2463" 
d="M774 84q210 0 371.5 160t214.5 432l41 211q15 91 11.5 176.5t-36.5 160t-86 130t-137.5 87.5t-189.5 32q-107 0 -201 -40.5t-163.5 -109.5t-124.5 -158t-89 -189.5t-51.5 -201t-16.5 -194.5q1 -82 16 -154t49.5 -135.5t86.5 -108.5t130 -71.5t175 -26.5zM1274 256
q-77 -130 -207 -208.5t-303 -78.5q-284 0 -439 167.5t-155 449.5q0 150 35 295.5t104 273t164 224.5t224 153.5t274 56.5q94 0 171 -18t128.5 -46t92.5 -69.5t64.5 -82t42.5 -89.5h7l57 283h971l-25 -129h-829l-113 -578h760l-25 -125h-760l-116 -606h841l-24 -129h-983
l49 256h-6z" />
    <glyph glyph-name="oe" unicode="&#x153;" horiz-adv-x="1869" 
d="M1640 614l2 13q13 74 5.5 140t-30 116t-74 79t-126.5 29q-74 0 -137.5 -31t-108.5 -85.5t-77 -119.5t-52 -141h598zM901 698q0 132 -63 212.5t-199 80.5q-84 0 -154 -40.5t-115.5 -104.5t-77.5 -146.5t-45.5 -164.5t-13.5 -160q0 -132 63.5 -211.5t201.5 -79.5
q87 0 158 42t115.5 107t74.5 148.5t42.5 162.5t12.5 154zM1700 268q-34 -130 -145.5 -212.5t-288.5 -82.5q-146 0 -236 67.5t-123 190.5q-139 -258 -418 -258q-188 0 -292.5 112t-104.5 298q0 102 21 202.5t66 194t108.5 164.5t156.5 113.5t203 42.5q294 0 354 -269
q68 124 177 196.5t254 72.5q140 0 226 -68.5t112 -187t-1 -277.5l-10 -63h-739q-8 -55 -8 -117q0 -88 26.5 -154t89 -107.5t156.5 -41.5q215 0 279 184h137z" />
    <glyph glyph-name="Racute" unicode="&#x154;" horiz-adv-x="1437" 
d="M813 1694l186 272h164l-235 -272h-115zM422 788h422q171 0 272 104t101 279q0 136 -85.5 204.5t-240.5 68.5h-342zM399 668l-131 -668h-141l303 1567h455q229 0 346 -92q129 -99 129 -299q0 -186 -99 -316t-282 -172v-6l254 -682h-154l-245 668h-435z" />
    <glyph glyph-name="racute" unicode="&#x155;" horiz-adv-x="768" 
d="M518 1290l174 324h158l-221 -324h-111zM96 0l207 1073h131l-43 -217h6q55 110 148.5 174t220.5 64h14l-26 -144h-21q-81 0 -149 -31t-114.5 -85t-77.5 -120t-46 -143l-110 -571h-140z" />
    <glyph glyph-name="Rcommaaccent" unicode="&#x156;" horiz-adv-x="1437" 
d="M461 -406l110 277h146l-162 -277h-94zM422 788h422q171 0 272 104t101 279q0 136 -85.5 204.5t-240.5 68.5h-342zM399 668l-131 -668h-141l303 1567h455q229 0 346 -92q129 -99 129 -299q0 -186 -99 -316t-282 -172v-6l254 -682h-154l-245 668h-435z" />
    <glyph glyph-name="rcommaaccent" unicode="&#x157;" horiz-adv-x="768" 
d="M-43 -406l111 277h145l-162 -277h-94zM96 0l207 1073h131l-43 -217h6q55 110 148.5 174t220.5 64h14l-26 -144h-21q-81 0 -149 -31t-114.5 -85t-77.5 -120t-46 -143l-110 -571h-140z" />
    <glyph glyph-name="Rcaron" unicode="&#x158;" horiz-adv-x="1437" 
d="M799 1694l-174 272h123l131 -176h2l194 176h135l-268 -272h-143zM422 788h422q171 0 272 104t101 279q0 136 -85.5 204.5t-240.5 68.5h-342zM399 668l-131 -668h-141l303 1567h455q229 0 346 -92q129 -99 129 -299q0 -186 -99 -316t-282 -172v-6l254 -682h-154l-245 668
h-435z" />
    <glyph glyph-name="rcaron" unicode="&#x159;" horiz-adv-x="768" 
d="M516 1290l-137 324h119l102 -225l178 225h129l-252 -324h-139zM96 0l207 1073h131l-43 -217h6q55 110 148.5 174t220.5 64h14l-26 -144h-21q-81 0 -149 -31t-114.5 -85t-77.5 -120t-46 -143l-110 -571h-140z" />
    <glyph glyph-name="Sacute" unicode="&#x15a;" horiz-adv-x="1396" 
d="M133 446h143q-6 -183 97 -269.5t301 -86.5q65 0 125.5 12.5t114.5 39t93.5 65.5t63 96.5t23.5 126.5q0 99 -53 165t-175 103l-215 66q-165 51 -246 140.5t-81 232.5q0 104 40.5 190t111.5 143t166.5 88t205.5 31q140 0 249.5 -51.5t172 -155t53.5 -241.5h-143
q8 158 -82 245t-262 87q-154 0 -261.5 -87t-107.5 -231q0 -98 52.5 -160t162.5 -94l233 -70q172 -51 249 -146t77 -239q0 -112 -44 -203t-121 -151t-180.5 -92.5t-223.5 -32.5q-121 0 -219.5 27t-173.5 83t-114 150t-32 219zM840 1694l186 272h164l-236 -272h-114z" />
    <glyph glyph-name="sacute" unicode="&#x15b;" horiz-adv-x="1015" 
d="M553 1290l174 324h158l-221 -324h-111zM920 809h-134q2 81 -54.5 131.5t-168.5 50.5q-95 0 -166.5 -50.5t-70.5 -145.5q0 -68 36 -105t119 -61l117 -33q152 -41 212 -107t60 -176q0 -158 -116 -249t-295 -91q-64 0 -120 11t-106.5 36.5t-86 63.5t-54.5 95.5t-16 129.5
h133q-6 -104 58.5 -164.5t197.5 -60.5q72 0 130 19.5t98 69t40 122.5q0 65 -37.5 107t-138.5 71l-117 33q-125 35 -188.5 97.5t-63.5 178.5q0 148 110 233t273 85q74 0 137.5 -17.5t113 -52t76 -91.5t22.5 -130z" />
    <glyph glyph-name="Scircumflex" unicode="&#x15c;" horiz-adv-x="1396" 
d="M1012 1966l170 -272h-117l-131 176h-2l-195 -176h-129l260 272h144zM133 446h143q-6 -183 97 -269.5t301 -86.5q65 0 125.5 12.5t114.5 39t93.5 65.5t63 96.5t23.5 126.5q0 99 -53 165t-175 103l-215 66q-165 51 -246 140.5t-81 232.5q0 104 40.5 190t111.5 143t166.5 88
t205.5 31q140 0 249.5 -51.5t172 -155t53.5 -241.5h-143q8 158 -82 245t-262 87q-154 0 -261.5 -87t-107.5 -231q0 -98 52.5 -160t162.5 -94l233 -70q172 -51 249 -146t77 -239q0 -112 -44 -203t-121 -151t-180.5 -92.5t-223.5 -32.5q-121 0 -219.5 27t-173.5 83t-114 150
t-32 219z" />
    <glyph glyph-name="scircumflex" unicode="&#x15d;" horiz-adv-x="1015" 
d="M766 1614l137 -324h-119l-102 226l-178 -226h-129l252 324h139zM920 809h-134q2 81 -54.5 131.5t-168.5 50.5q-95 0 -166.5 -50.5t-70.5 -145.5q0 -68 36 -105t119 -61l117 -33q152 -41 212 -107t60 -176q0 -158 -116 -249t-295 -91q-64 0 -120 11t-106.5 36.5t-86 63.5
t-54.5 95.5t-16 129.5h133q-6 -104 58.5 -164.5t197.5 -60.5q72 0 130 19.5t98 69t40 122.5q0 65 -37.5 107t-138.5 71l-117 33q-125 35 -188.5 97.5t-63.5 178.5q0 148 110 233t273 85q74 0 137.5 -17.5t113 -52t76 -91.5t22.5 -130z" />
    <glyph glyph-name="Scedilla" unicode="&#x15e;" horiz-adv-x="1396" 
d="M551 -416q-66 0 -108.5 32.5t-39.5 96.5h103q3 -49 57 -49q36 0 59 25t23 67q0 31 -15.5 47.5t-43.5 16.5q-30 0 -60 -23h-100l111 180q-196 28 -305.5 143.5t-98.5 325.5h143q-6 -183 97 -269.5t301 -86.5q65 0 125.5 12.5t114.5 39t93.5 65.5t63 96.5t23.5 126.5
q0 99 -53 165t-175 103l-215 66q-165 51 -246 140.5t-81 232.5q0 104 40.5 190t111.5 143t166.5 88t205.5 31q140 0 249.5 -51.5t172 -155t53.5 -241.5h-143q8 158 -82 245t-262 87q-154 0 -261.5 -87t-107.5 -231q0 -98 52.5 -160t162.5 -94l233 -70q172 -51 249 -146
t77 -239q0 -112 -44 -203t-121 -151t-180.5 -92.5t-223.5 -32.5q-38 0 -54 2l-61 -96h4q27 18 76 18q52 0 82.5 -31.5t30.5 -90.5q0 -76 -51.5 -130.5t-147.5 -54.5z" />
    <glyph glyph-name="scedilla" unicode="&#x15f;" horiz-adv-x="1015" 
d="M369 -416q-66 0 -108.5 32.5t-39.5 96.5h103q3 -49 57 -49q36 0 59 25t23 67q0 30 -16 47t-44 17q-29 0 -59 -23h-100l112 185q-132 22 -209.5 102t-70.5 225h133q-6 -104 58.5 -164.5t197.5 -60.5q72 0 130 19.5t98 69t40 122.5q0 65 -37.5 107t-138.5 71l-117 33
q-125 35 -188.5 97.5t-63.5 178.5q0 148 110 233t273 85q74 0 137.5 -17.5t113 -52t76 -91.5t22.5 -130h-134q2 81 -54.5 131.5t-168.5 50.5q-95 0 -166.5 -50.5t-70.5 -145.5q0 -68 36 -105t119 -61l117 -33q152 -41 212 -107t60 -176q0 -158 -116 -249t-295 -91h-21
l-63 -100h4q27 18 76 18q52 0 82 -31.5t30 -90.5q0 -77 -51.5 -131t-146.5 -54z" />
    <glyph glyph-name="Scaron" unicode="&#x160;" horiz-adv-x="1396" 
d="M829 1694l-174 272h123l131 -176h2l195 176h135l-268 -272h-144zM133 446h143q-6 -183 97 -269.5t301 -86.5q65 0 125.5 12.5t114.5 39t93.5 65.5t63 96.5t23.5 126.5q0 99 -53 165t-175 103l-215 66q-165 51 -246 140.5t-81 232.5q0 104 40.5 190t111.5 143t166.5 88
t205.5 31q140 0 249.5 -51.5t172 -155t53.5 -241.5h-143q8 158 -82 245t-262 87q-154 0 -261.5 -87t-107.5 -231q0 -98 52.5 -160t162.5 -94l233 -70q172 -51 249 -146t77 -239q0 -112 -44 -203t-121 -151t-180.5 -92.5t-223.5 -32.5q-121 0 -219.5 27t-173.5 83t-114 150
t-32 219z" />
    <glyph glyph-name="scaron" unicode="&#x161;" horiz-adv-x="1015" 
d="M563 1290l-137 324h119l102 -225l178 225h129l-252 -324h-139zM920 809h-134q2 81 -54.5 131.5t-168.5 50.5q-95 0 -166.5 -50.5t-70.5 -145.5q0 -68 36 -105t119 -61l117 -33q152 -41 212 -107t60 -176q0 -158 -116 -249t-295 -91q-64 0 -120 11t-106.5 36.5t-86 63.5
t-54.5 95.5t-16 129.5h133q-6 -104 58.5 -164.5t197.5 -60.5q72 0 130 19.5t98 69t40 122.5q0 65 -37.5 107t-138.5 71l-117 33q-125 35 -188.5 97.5t-63.5 178.5q0 148 110 233t273 85q74 0 137.5 -17.5t113 -52t76 -91.5t22.5 -130z" />
    <glyph glyph-name="Tcommaaccent" unicode="&#x162;" horiz-adv-x="1314" 
d="M354 -406l111 277h145l-161 -277h-95zM907 1442l-278 -1442h-144l279 1442h-543l25 125h1229l-25 -125h-543z" />
    <glyph glyph-name="tcommaaccent" unicode="&#x163;" horiz-adv-x="727" 
d="M147 -406l111 277h145l-161 -277h-95zM426 1395h129l-63 -322h266l-23 -110h-264l-131 -676q-20 -103 7.5 -145t117.5 -42q23 0 51.5 3t45.5 7l18 3l-23 -115q-60 -16 -123 -16q-139 0 -202 72t-33 222l133 687h-195l21 106h41q70 0 106 16t59 63t42 148z" />
    <glyph glyph-name="Tcaron" unicode="&#x164;" horiz-adv-x="1314" 
d="M819 1694l-174 272h123l131 -176h2l195 176h135l-268 -272h-144zM907 1442l-278 -1442h-144l279 1442h-543l25 125h1229l-25 -125h-543z" />
    <glyph glyph-name="tcaron" unicode="&#x165;" horiz-adv-x="727" 
d="M715 1278l94 336h133l-137 -336h-90zM426 1395h129l-63 -322h266l-23 -110h-264l-131 -676q-20 -103 7.5 -145t117.5 -42q23 0 51.5 3t45.5 7l18 3l-23 -115q-60 -16 -123 -16q-139 0 -202 72t-33 222l133 687h-195l21 106h41q70 0 106 16t59 63t42 148z" />
    <glyph glyph-name="Tbar" unicode="&#x166;" horiz-adv-x="1314" 
d="M803 903l-174 -903h-144l174 903h-411l20 109h412l84 430h-543l25 125h1229l-25 -125h-543l-84 -430h406l-21 -109h-405z" />
    <glyph glyph-name="tbar" unicode="&#x167;" horiz-adv-x="727" 
d="M557 -2q-60 -16 -123 -16q-139 0 -202 72t-33 222l49 256h-201l21 113h202l62 318h-195l21 106h41q70 0 106 16t59 63t42 148l20 99h129l-63 -322h266l-23 -110h-264l-61 -318h268l-21 -113h-270l-47 -245q-20 -103 7.5 -145t117.5 -42q23 0 51.5 3t45.5 7l18 3z" />
    <glyph glyph-name="Utilde" unicode="&#x168;" horiz-adv-x="1529" 
d="M211 578l190 989h144l-178 -916q-18 -92 -26 -157.5t-1 -139.5t37 -123q82 -143 321 -143q233 0 363 139q21 22 38.5 46.5t31.5 56.5t23 54t19 63t14 58t13.5 65.5t11.5 60.5l183 936h141l-207 -1067q-104 -531 -635 -531q-87 0 -160 14t-136 44t-106 78t-70.5 115.5
t-29 156.5t18.5 201zM639 1696q6 50 21 93t41.5 80t69 58t97.5 21q46 0 89 -21t70.5 -47t60 -47t59.5 -21q47 0 72 35.5t38 106.5h109q-10 -107 -66.5 -180.5t-160.5 -73.5q-46 0 -89 21t-70.5 46.5t-61 46.5t-60.5 21q-84 0 -110 -139h-109z" />
    <glyph glyph-name="utilde" unicode="&#x169;" horiz-adv-x="1177" 
d="M430 1073l-123 -643q-20 -98 -20 -160q0 -178 186 -178q144 0 240 121t135 319l104 541h142l-209 -1073h-131l41 201h-7q-134 -228 -344 -228q-184 0 -252.5 114t-31.5 308l131 678h139zM393 1286q8 112 60 183t159 71q43 0 86.5 -21.5t73 -47t63.5 -47t62 -21.5
q87 0 100 141h107q-4 -53 -17.5 -96.5t-38.5 -80t-66.5 -57t-96.5 -20.5q-43 0 -87 21.5t-73.5 47t-63.5 47t-61 21.5q-86 0 -102 -141h-105z" />
    <glyph glyph-name="Umacron" unicode="&#x16a;" horiz-adv-x="1529" 
d="M211 578l190 989h144l-178 -916q-18 -92 -26 -157.5t-1 -139.5t37 -123q82 -143 321 -143q233 0 363 139q21 22 38.5 46.5t31.5 56.5t23 54t19 63t14 58t13.5 65.5t11.5 60.5l183 936h141l-207 -1067q-104 -531 -635 -531q-87 0 -160 14t-136 44t-106 78t-70.5 115.5
t-29 156.5t18.5 201zM711 1759l22 117h557l-24 -117h-555z" />
    <glyph glyph-name="umacron" unicode="&#x16b;" horiz-adv-x="1177" 
d="M430 1073l-123 -643q-20 -98 -20 -160q0 -178 186 -178q144 0 240 121t135 319l104 541h142l-209 -1073h-131l41 201h-7q-134 -228 -344 -228q-184 0 -252.5 114t-31.5 308l131 678h139zM457 1339l22 117h555l-22 -117h-555z" />
    <glyph glyph-name="Ubreve" unicode="&#x16c;" horiz-adv-x="1529" 
d="M211 578l190 989h144l-178 -916q-18 -92 -26 -157.5t-1 -139.5t37 -123q82 -143 321 -143q233 0 363 139q21 22 38.5 46.5t31.5 56.5t23 54t19 63t14 58t13.5 65.5t11.5 60.5l183 936h141l-207 -1067q-104 -531 -635 -531q-87 0 -160 14t-136 44t-106 78t-70.5 115.5
t-29 156.5t18.5 201zM752 1985h108q-7 -82 30.5 -124t110.5 -42q157 0 213 166h111q-34 -136 -123.5 -204.5t-206.5 -68.5q-121 0 -190 68t-53 205z" />
    <glyph glyph-name="ubreve" unicode="&#x16d;" horiz-adv-x="1177" 
d="M430 1073l-123 -643q-20 -98 -20 -160q0 -178 186 -178q144 0 240 121t135 319l104 541h142l-209 -1073h-131l41 201h-7q-134 -228 -344 -228q-184 0 -252.5 114t-31.5 308l131 678h139zM739 1290q-132 0 -201 76.5t-40 232.5h108q-19 -100 19 -151t118 -51
q86 0 142.5 51t79.5 151h110q-28 -154 -120.5 -231.5t-215.5 -77.5z" />
    <glyph glyph-name="Uring" unicode="&#x16e;" horiz-adv-x="1529" 
d="M211 578l190 989h144l-178 -916q-18 -92 -26 -157.5t-1 -139.5t37 -123q82 -143 321 -143q233 0 363 139q21 22 38.5 46.5t31.5 56.5t23 54t19 63t14 58t13.5 65.5t11.5 60.5l183 936h141l-207 -1067q-104 -531 -635 -531q-87 0 -160 14t-136 44t-106 78t-70.5 115.5
t-29 156.5t18.5 201zM997 1667q-91 0 -143.5 53t-52.5 138q0 98 60.5 159.5t158.5 61.5q95 0 149 -53t54 -140q0 -99 -62.5 -159t-163.5 -60zM1018 2001q-53 0 -85 -39.5t-32 -101.5q0 -52 27.5 -83.5t77.5 -31.5q52 0 85 38t33 101q0 50 -27.5 83.5t-78.5 33.5z" />
    <glyph glyph-name="uring" unicode="&#x16f;" horiz-adv-x="1177" 
d="M752 1294q-91 1 -144 54.5t-53 138.5q0 97 60.5 159t158.5 62q93 0 147 -53.5t54 -138.5q0 -101 -61.5 -161.5t-161.5 -60.5zM772 1630q-55 0 -87 -39t-32 -102q0 -52 28 -83.5t79 -31.5q52 0 84.5 37.5t32.5 101.5q0 50 -27.5 83t-77.5 34zM430 1073l-123 -643
q-20 -98 -20 -160q0 -178 186 -178q144 0 240 121t135 319l104 541h142l-209 -1073h-131l41 201h-7q-134 -228 -344 -228q-184 0 -252.5 114t-31.5 308l131 678h139z" />
    <glyph glyph-name="Uhungarumlaut" unicode="&#x170;" horiz-adv-x="1529" 
d="M1049 1720l129 273h155l-186 -273h-98zM784 1720l136 273h155l-194 -273h-97zM211 578l190 989h144l-178 -916q-18 -92 -26 -157.5t-1 -139.5t37 -123q82 -143 321 -143q233 0 363 139q21 22 38.5 46.5t31.5 56.5t23 54t19 63t14 58t13.5 65.5t11.5 60.5l183 936h141
l-207 -1067q-104 -531 -635 -531q-87 0 -160 14t-136 44t-106 78t-70.5 115.5t-29 156.5t18.5 201z" />
    <glyph glyph-name="uhungarumlaut" unicode="&#x171;" horiz-adv-x="1177" 
d="M430 1073l-123 -643q-20 -98 -20 -160q0 -178 186 -178q144 0 240 121t135 319l104 541h142l-209 -1073h-131l41 201h-7q-134 -228 -344 -228q-184 0 -252.5 114t-31.5 308l131 678h139zM782 1290l189 324h147l-235 -324h-101zM514 1290l191 324h145l-236 -324h-100z" />
    <glyph glyph-name="Uogonek" unicode="&#x172;" horiz-adv-x="1529" 
d="M645 -29q-74 2 -137.5 16.5t-121.5 45t-98 77t-67 113t-28.5 154t18.5 198.5l190 992h144l-178 -916q-18 -92 -26 -157.5t-1.5 -139.5t35.5 -123q82 -143 321 -143q232 0 365 139q21 22 38 46.5t30.5 56.5t22.5 54t19 62.5t14 58.5t13 65.5t12 60.5l183 936h143
l-207 -1067q-22 -107 -58.5 -190t-79.5 -136.5t-102 -93t-115 -60.5t-128 -38q-92 -23 -153.5 -72.5t-61.5 -108.5q0 -47 34 -65.5t99 -18.5l-21 -102h-28q-103 0 -162 38t-59 118q0 57 40 107.5t111 88.5v4z" />
    <glyph glyph-name="uogonek" unicode="&#x173;" horiz-adv-x="1177" 
d="M807 -385h-29q-103 0 -162 37.5t-59 116.5q0 66 53 126.5t144 108.5l41 197h-7q-134 -228 -344 -228q-184 0 -252.5 114t-31.5 308l131 678h139l-123 -643q-20 -98 -20 -160q0 -178 186 -178q144 0 240 121t135 319l104 541h142l-209 -1069q-191 -106 -191 -203
q0 -47 34 -65.5t99 -18.5z" />
    <glyph glyph-name="Wcircumflex" unicode="&#x174;" horiz-adv-x="2091" 
d="M1372 1966l170 -272h-117l-131 176h-2l-194 -176h-129l260 272h143zM549 0h-152l-131 1567h140l92 -1184q4 -56 5.5 -107t0.5 -74v-24h4q25 80 78 193l563 1196h170l92 -1182q4 -54 5.5 -106t1.5 -77l-1 -26h4q35 89 84 195l563 1196h144l-746 -1567h-155l-92 1157
q-6 76 -9.5 139t-3.5 88v25h-4q-26 -79 -100 -235z" />
    <glyph glyph-name="wcircumflex" unicode="&#x175;" horiz-adv-x="1593" 
d="M1053 1614l137 -324h-119l-102 226l-178 -226h-129l251 324h140zM264 0l-106 1073h135l65 -784l9 -123h4q32 70 59 125l387 782h144l81 -784l11 -125h4q30 80 53 127l377 782h137l-526 -1073h-148l-80 754l-12 155h-2q-37 -83 -72 -155l-370 -754h-150z" />
    <glyph glyph-name="Ycircumflex" unicode="&#x176;" horiz-adv-x="1284" 
d="M469 0l135 696l-373 871h156l307 -746h4l609 746h157l-723 -885l-131 -682h-141zM977 1966l170 -272h-117l-131 176h-2l-195 -176h-129l261 272h143z" />
    <glyph glyph-name="ycircumflex" unicode="&#x177;" horiz-adv-x="989" 
d="M317 10l-163 1063h137l106 -719l21 -172h6q39 78 78 154l379 737h143l-621 -1169q-94 -178 -176 -245t-215 -67q-30 0 -60 5t-45.5 10t-21.5 8l25 115q63 -21 102 -21q88 1 142.5 46.5t109.5 152.5zM768 1614l137 -324h-119l-102 226l-178 -226h-129l252 324h139z" />
    <glyph glyph-name="Ydieresis" unicode="&#x178;" horiz-adv-x="1284" 
d="M469 0l135 696l-373 871h156l307 -746h4l609 746h157l-723 -885l-131 -682h-141zM1006 1679l32 172h158l-35 -172h-155zM571 1679l33 172h158l-33 -172h-158z" />
    <glyph glyph-name="Zacute" unicode="&#x179;" horiz-adv-x="1306" 
d="M809 1694l186 272h164l-235 -272h-115zM315 1444l25 123h1063l-21 -109l-1181 -1333h936l-23 -125h-1118l20 109l1180 1335h-881z" />
    <glyph glyph-name="zacute" unicode="&#x17a;" horiz-adv-x="1021" 
d="M600 1290l174 324h158l-221 -324h-111zM217 956l23 117h782l-23 -123l-800 -831h655l-20 -119h-826l23 123l798 833h-612z" />
    <glyph glyph-name="Zdotaccent" unicode="&#x17b;" horiz-adv-x="1306" 
d="M315 1444l25 123h1063l-21 -109l-1181 -1333h936l-23 -125h-1118l20 109l1180 1335h-881zM807 1718l31 162h151l-31 -162h-151z" />
    <glyph glyph-name="zdotaccent" unicode="&#x17c;" horiz-adv-x="1021" 
d="M217 956l23 117h782l-23 -123l-800 -831h655l-20 -119h-826l23 123l798 833h-612zM596 1339l31 162h151l-30 -162h-152z" />
    <glyph glyph-name="Zcaron" unicode="&#x17d;" horiz-adv-x="1306" 
d="M809 1694l-174 272h123l131 -176h2l194 176h136l-269 -272h-143zM315 1444l25 123h1063l-21 -109l-1181 -1333h936l-23 -125h-1118l20 109l1180 1335h-881z" />
    <glyph glyph-name="zcaron" unicode="&#x17e;" horiz-adv-x="1021" 
d="M596 1290l-137 324h119l102 -225l178 225h129l-252 -324h-139zM217 956l23 117h782l-23 -123l-800 -831h655l-20 -119h-826l23 123l798 833h-612z" />
    <glyph glyph-name="florin" unicode="&#x192;" horiz-adv-x="774" 
d="M455 766l-299 -1153h-140l301 1153h-219l21 111h227l115 442q38 150 132.5 217.5t225.5 67.5q59 0 113 -15l-27 -116q-46 12 -96 12q-167 0 -219 -193l-107 -415h267l-21 -111h-274z" />
    <glyph glyph-name="Aringacute" unicode="&#x1fa;" horiz-adv-x="1452" 
d="M897 1427q-87 -174 -104 -206l-324 -590h559l-98 592l-29 204h-4zM1135 0l-88 512h-641l-279 -512h-147l858 1567h168l272 -1567h-143zM954 2128l187 272h164l-236 -272h-115zM963 1659q-91 0 -144 52.5t-53 137.5q0 99 60.5 160.5t158.5 61.5q95 0 149 -53t54 -140
q0 -99 -62.5 -159t-162.5 -60zM983 1993q-53 0 -85 -40t-32 -102q0 -52 27.5 -83t77.5 -31q52 0 85.5 38t33.5 101q0 50 -27.5 83.5t-79.5 33.5z" />
    <glyph glyph-name="aringacute" unicode="&#x1fb;" horiz-adv-x="1107" 
d="M399 98q119 0 228 104.5t143 276.5l10 49q-240 0 -362 -28q-100 -22 -156.5 -79.5t-56.5 -141.5q0 -87 50.5 -134t143.5 -47zM346 788h-139q14 139 121 225.5t284 86.5q86 0 152.5 -22t105.5 -60.5t62.5 -91t24 -113.5t-10.5 -127l-86 -444q-13 -76 5.5 -109.5
t72.5 -30.5l-20 -112h-17q-191 0 -168 207h-4q-68 -105 -153 -159t-211 -54q-134 0 -220 77t-86 211q0 265 340 334q119 25 404 25l10 67q13 59 6.5 111.5t-28.5 92t-70.5 62.5t-120.5 23q-104 0 -172.5 -49.5t-81.5 -149.5zM680 1210q-91 1 -144 54.5t-53 138.5
q0 97 60.5 159t158.5 62q93 0 147 -53.5t54 -138.5q0 -101 -61.5 -161.5t-161.5 -60.5zM700 1546q-55 0 -86.5 -39t-31.5 -102q0 -52 27.5 -83.5t78.5 -31.5q52 0 84.5 38t32.5 102q0 50 -27 82.5t-78 33.5zM678 1706l186 272h164l-235 -272h-115z" />
    <glyph glyph-name="AEacute" unicode="&#x1fc;" horiz-adv-x="2093" 
d="M1210 1694l187 272h164l-236 -272h-115zM979 631l156 807h-164q-13 -24 -35 -63.5t-36.5 -65.5t-22.5 -39l-394 -639h496zM858 0l98 512h-546l-318 -514l-153 2l966 1567h1229l-25 -129h-831l-111 -578h758l-24 -125h-758l-117 -606h840l-25 -129h-983z" />
    <glyph glyph-name="aeacute" unicode="&#x1fd;" horiz-adv-x="1748" 
d="M940 1290l174 324h158l-221 -324h-111zM1520 621l2 12q12 71 4.5 135.5t-30.5 114t-74 79t-126 29.5t-137.5 -33t-105.5 -90t-72 -117.5t-47 -129.5h586zM401 96q127 0 229.5 102t139.5 281l10 49q-240 0 -364 -28q-98 -21 -154.5 -78.5t-56.5 -142.5q0 -86 50.5 -134.5
t145.5 -48.5zM1575 268q-33 -130 -144 -212.5t-288 -82.5q-154 0 -243 68.5t-112 187.5h-6q-85 -118 -184.5 -181.5t-239.5 -63.5q-135 0 -217 76t-82 208q0 266 340 338q55 12 137 18t122 6.5t145 0.5l12 82q41 274 -215 274q-104 0 -173.5 -49.5t-82.5 -149.5h-139
q14 139 121 225.5t284 86.5q260 0 318 -209h6q157 209 375 209q78 0 140 -21t102.5 -59t67 -87t36.5 -107.5t9 -118t-13 -121.5l-15 -74h-725q-27 -212 32.5 -320t215.5 -108q215 0 283 184h133z" />
    <glyph glyph-name="Oslashacute" unicode="&#x1fe;" horiz-adv-x="1634" 
d="M963 1473q-107 0 -201 -40.5t-163.5 -109.5t-124.5 -158t-89 -189.5t-51.5 -201t-16.5 -194.5q0 -158 48 -269l923 1053q-115 109 -325 109zM774 84q125 0 233 58.5t181.5 152t126 212t76.5 237.5t24 229q0 186 -59 301l-930 -1061q113 -129 348 -129zM1563 969
q0 -139 -31.5 -279.5t-98 -270t-159 -230t-224.5 -160.5t-284 -60q-264 0 -422 152l-149 -172h-148l225 258q-102 150 -102 379q0 149 34.5 294.5t104 273t164.5 225t224.5 154t275.5 56.5q244 0 397 -131l141 162h148l-213 -244q117 -160 117 -407zM952 1694l187 272h164
l-236 -272h-115z" />
    <glyph glyph-name="oslashacute" unicode="&#x1ff;" horiz-adv-x="1134" 
d="M639 991q-84 0 -154 -40.5t-115 -104.5t-76 -146.5t-44.5 -164t-13.5 -160.5q0 -59 10 -117l604 647q-64 86 -211 86zM500 84q87 0 158 42t115.5 107t74.5 148.5t42.5 162.5t12.5 154q0 54 -10 109l-604 -645q63 -78 211 -78zM1044 692q0 -103 -20.5 -204t-65.5 -194.5
t-108.5 -164.5t-156 -113.5t-201.5 -42.5q-179 0 -285 103l-111 -119h-131l182 197q-53 95 -53 229q0 102 21 202.5t65.5 194t108.5 164.5t156.5 113.5t201.5 42.5q182 0 287 -105l108 115h136l-185 -197q51 -89 51 -221zM641 1290l174 324h158l-221 -324h-111z" />
    <glyph glyph-name="Scommaaccent" unicode="&#x218;" horiz-adv-x="1396" 
d="M446 -406l111 277h145l-161 -277h-95zM133 446h143q-6 -183 97 -269.5t301 -86.5q65 0 125.5 12.5t114.5 39t93.5 65.5t63 96.5t23.5 126.5q0 99 -53 165t-175 103l-215 66q-165 51 -246 140.5t-81 232.5q0 104 40.5 190t111.5 143t166.5 88t205.5 31q140 0 249.5 -51.5
t172 -155t53.5 -241.5h-143q8 158 -82 245t-262 87q-154 0 -261.5 -87t-107.5 -231q0 -98 52.5 -160t162.5 -94l233 -70q172 -51 249 -146t77 -239q0 -112 -44 -203t-121 -151t-180.5 -92.5t-223.5 -32.5q-121 0 -219.5 27t-173.5 83t-114 150t-32 219z" />
    <glyph glyph-name="scommaaccent" unicode="&#x219;" horiz-adv-x="1015" 
d="M242 -406l110 277h146l-162 -277h-94zM920 809h-134q2 81 -54.5 131.5t-168.5 50.5q-95 0 -166.5 -50.5t-70.5 -145.5q0 -68 36 -105t119 -61l117 -33q152 -41 212 -107t60 -176q0 -158 -116 -249t-295 -91q-64 0 -120 11t-106.5 36.5t-86 63.5t-54.5 95.5t-16 129.5h133
q-6 -104 58.5 -164.5t197.5 -60.5q72 0 130 19.5t98 69t40 122.5q0 65 -37.5 107t-138.5 71l-117 33q-125 35 -188.5 97.5t-63.5 178.5q0 148 110 233t273 85q74 0 137.5 -17.5t113 -52t76 -91.5t22.5 -130z" />
    <glyph glyph-name="uni021A" unicode="&#x21a;" horiz-adv-x="1314" 
d="M354 -406l111 277h145l-161 -277h-95zM907 1442l-278 -1442h-144l279 1442h-543l25 125h1229l-25 -125h-543z" />
    <glyph glyph-name="uni021B" unicode="&#x21b;" horiz-adv-x="727" 
d="M147 -406l111 277h145l-161 -277h-95zM426 1395h129l-63 -322h266l-23 -110h-264l-131 -676q-20 -103 7.5 -145t117.5 -42q23 0 51.5 3t45.5 7l18 3l-23 -115q-60 -16 -123 -16q-139 0 -202 72t-33 222l133 687h-195l21 106h41q70 0 106 16t59 63t42 148z" />
    <glyph glyph-name="uni0237" unicode="&#x237;" horiz-adv-x="526" 
d="M-223 -383l22 113q38 -15 92 -15q78 0 121 41.5t62 134.5l229 1182h139l-233 -1204q-51 -272 -320 -272q-72 0 -112 20z" />
    <glyph glyph-name="circumflex" unicode="&#x2c6;" horiz-adv-x="741" 
d="M649 1614l137 -324h-118l-103 226l-178 -226h-129l252 324h139z" />
    <glyph glyph-name="caron" unicode="&#x2c7;" horiz-adv-x="708" 
d="M432 1290l-137 324h119l102 -225l178 225h129l-252 -324h-139z" />
    <glyph glyph-name="breve" unicode="&#x2d8;" horiz-adv-x="743" 
d="M528 1290q-132 0 -201 76.5t-40 232.5h108q-19 -100 19 -151t118 -51q86 0 142.5 51t79.5 151h110q-28 -154 -120.5 -231.5t-215.5 -77.5z" />
    <glyph glyph-name="dotaccent" unicode="&#x2d9;" horiz-adv-x="577" 
d="M375 1339l31 162h151l-31 -162h-151z" />
    <glyph glyph-name="ring" unicode="&#x2da;" horiz-adv-x="749" 
d="M459 1294q-91 1 -144 54.5t-53 138.5q0 97 60.5 159t158.5 62q93 0 147 -53.5t54 -138.5q0 -101 -61.5 -161.5t-161.5 -60.5zM479 1630q-55 0 -87 -39t-32 -102q0 -52 28 -83.5t79 -31.5q52 0 84.5 37.5t32.5 101.5q0 50 -27.5 83t-77.5 34z" />
    <glyph glyph-name="ogonek" unicode="&#x2db;" horiz-adv-x="755" 
d="M324 8l108 -8q-85 -46 -134.5 -94t-49.5 -105q0 -84 133 -84l-21 -102h-28q-103 0 -162 39t-59 119q0 73 59.5 133t153.5 102z" />
    <glyph glyph-name="tilde" unicode="&#x2dc;" horiz-adv-x="743" 
d="M178 1286q8 112 60 183t159 71q43 0 87 -21.5t73 -47t63 -47t62 -21.5q87 0 100 141h107q-4 -53 -17.5 -96.5t-38.5 -80t-66.5 -57t-96.5 -20.5q-43 0 -87 21.5t-73.5 47t-63.5 47t-61 21.5q-86 0 -102 -141h-105z" />
    <glyph glyph-name="hungarumlaut" unicode="&#x2dd;" horiz-adv-x="694" 
d="M489 1290l189 324h147l-235 -324h-101zM221 1290l191 324h145l-235 -324h-101z" />
    <glyph glyph-name="Wgrave" unicode="&#x1e80;" horiz-adv-x="2091" 
d="M1210 1966l111 -272h-113l-147 272h149zM549 0h-152l-131 1567h140l92 -1184q4 -56 5.5 -107t0.5 -74v-24h4q25 80 78 193l563 1196h170l92 -1182q4 -54 5.5 -106t1.5 -77l-1 -26h4q35 89 84 195l563 1196h144l-746 -1567h-155l-92 1157q-6 76 -9.5 139t-3.5 88v25h-4
q-26 -79 -100 -235z" />
    <glyph glyph-name="wgrave" unicode="&#x1e81;" horiz-adv-x="1593" 
d="M264 0l-106 1073h135l65 -784l9 -123h4q32 70 59 125l387 782h144l81 -784l11 -125h4q30 80 53 127l377 782h137l-526 -1073h-148l-80 754l-12 155h-2q-37 -83 -72 -155l-370 -754h-150zM821 1614l142 -324h-109l-188 324h155z" />
    <glyph glyph-name="Wacute" unicode="&#x1e82;" horiz-adv-x="2091" 
d="M1190 1694l186 272h164l-235 -272h-115zM549 0h-152l-131 1567h140l92 -1184q4 -56 5.5 -107t0.5 -74v-24h4q25 80 78 193l563 1196h170l92 -1182q4 -54 5.5 -106t1.5 -77l-1 -26h4q35 89 84 195l563 1196h144l-746 -1567h-155l-92 1157q-6 76 -9.5 139t-3.5 88v25h-4
q-26 -79 -100 -235z" />
    <glyph glyph-name="wacute" unicode="&#x1e83;" horiz-adv-x="1593" 
d="M874 1290l175 324h157l-221 -324h-111zM264 0l-106 1073h135l65 -784l9 -123h4q32 70 59 125l387 782h144l81 -784l11 -125h4q30 80 53 127l377 782h137l-526 -1073h-148l-80 754l-12 155h-2q-37 -83 -72 -155l-370 -754h-150z" />
    <glyph glyph-name="Wdieresis" unicode="&#x1e84;" horiz-adv-x="2091" 
d="M1395 1679l32 172h158l-35 -172h-155zM961 1679l32 172h158l-33 -172h-157zM549 0h-152l-131 1567h140l92 -1184q4 -56 5.5 -107t0.5 -74v-24h4q25 80 78 193l563 1196h170l92 -1182q4 -54 5.5 -106t1.5 -77l-1 -26h4q35 89 84 195l563 1196h144l-746 -1567h-155
l-92 1157q-6 76 -9.5 139t-3.5 88v25h-4q-26 -79 -100 -235z" />
    <glyph glyph-name="wdieresis" unicode="&#x1e85;" horiz-adv-x="1593" 
d="M1055 1331l32 172h160l-35 -172h-157zM668 1331l34 172h158l-33 -172h-159zM264 0l-106 1073h135l65 -784l9 -123h4q32 70 59 125l387 782h144l81 -784l11 -125h4q30 80 53 127l377 782h137l-526 -1073h-148l-80 754l-12 155h-2q-37 -83 -72 -155l-370 -754h-150z" />
    <glyph glyph-name="Ygrave" unicode="&#x1ef2;" horiz-adv-x="1284" 
d="M469 0l135 696l-373 871h156l307 -746h4l609 746h157l-723 -885l-131 -682h-141zM823 1966l111 -272h-113l-147 272h149z" />
    <glyph glyph-name="ygrave" unicode="&#x1ef3;" horiz-adv-x="989" 
d="M317 10l-163 1063h137l106 -719l21 -172h6q39 78 78 154l379 737h143l-621 -1169q-94 -178 -176 -245t-215 -67q-30 0 -60 5t-45.5 10t-21.5 8l25 115q63 -21 102 -21q88 1 142.5 46.5t109.5 152.5zM555 1614l141 -324h-108l-189 324h156z" />
    <glyph glyph-name="uni2009" unicode="&#x2009;" horiz-adv-x="79" 
 />
    <glyph glyph-name="endash" unicode="&#x2013;" horiz-adv-x="1073" 
d="M143 627l23 114h848l-23 -114h-848z" />
    <glyph glyph-name="emdash" unicode="&#x2014;" horiz-adv-x="1794" 
d="M143 627l23 114h1569l-25 -114h-1567z" />
    <glyph glyph-name="quoteleft" unicode="&#x2018;" horiz-adv-x="421" 
d="M539 1567l-164 -420h-168l229 420h103z" />
    <glyph glyph-name="quoteright" unicode="&#x2019;" horiz-adv-x="421" 
d="M219 1147l164 420h166l-227 -420h-103z" />
    <glyph glyph-name="quotesinglbase" unicode="&#x201a;" horiz-adv-x="421" 
d="M-43 -229l164 419h166l-228 -419h-102z" />
    <glyph glyph-name="quotedblleft" unicode="&#x201c;" horiz-adv-x="727" 
d="M844 1567l-164 -420h-168l229 420h103zM539 1567l-164 -420h-168l229 420h103z" />
    <glyph glyph-name="quotedblright" unicode="&#x201d;" horiz-adv-x="735" 
d="M522 1147l166 420h166l-229 -420h-103zM219 1147l164 420h166l-227 -420h-103z" />
    <glyph glyph-name="quotedblbase" unicode="&#x201e;" horiz-adv-x="727" 
d="M262 -229l164 419h166l-227 -419h-103zM-43 -229l164 419h166l-228 -419h-102z" />
    <glyph glyph-name="dagger" unicode="&#x2020;" horiz-adv-x="632" 
d="M514 1251l-127 -657h-115l127 657h-192l18 107h195l41 209h114l-40 -209h194l-20 -107h-195z" />
    <glyph glyph-name="daggerdbl" unicode="&#x2021;" horiz-adv-x="622" 
d="M428 809l-41 -215h-115l41 215h-192l20 106h193l65 336h-192l18 107h195l41 209h114l-40 -209h194l-20 -107h-195l-65 -336h196l-20 -106h-197z" />
    <glyph glyph-name="bullet" unicode="&#x2022;" horiz-adv-x="788" 
d="M412 426q-88 0 -143.5 56.5t-55.5 148.5q0 88 58.5 146.5t142.5 58.5q90 0 146 -57.5t56 -147.5q0 -91 -58 -148t-146 -57z" />
    <glyph glyph-name="ellipsis" unicode="&#x2026;" horiz-adv-x="1353" 
d="M950 0l37 195h191l-37 -195h-191zM500 0l37 195h190l-37 -195h-190zM47 0l37 195h190l-36 -195h-191z" />
    <glyph glyph-name="perthousand" unicode="&#x2030;" horiz-adv-x="2508" 
d="M115 -82l1431 1681h150l-1432 -1681h-149zM197 1051q0 86 23.5 166.5t69.5 149t123.5 110t176.5 41.5q136 0 210 -75.5t74 -197.5q0 -85 -23.5 -165.5t-69 -148.5t-123.5 -109.5t-177 -41.5q-135 0 -209.5 74t-74.5 197zM492 883q54 0 98.5 24.5t72.5 62.5t47 87t27 95.5
t8 90.5q0 77 -40 124.5t-125 47.5q-54 0 -98.5 -23.5t-73 -61t-48 -85.5t-28 -96t-8.5 -94q0 -77 41 -124.5t127 -47.5zM2007 -12q-135 0 -210 73.5t-75 196.5q0 86 23.5 166.5t70 148.5t124 109t176.5 41q136 0 210 -74t74 -196q0 -85 -23.5 -165.5t-69 -148.5
t-123.5 -109.5t-177 -41.5zM1206 -12q-134 0 -208 73.5t-74 196.5q0 68 14 133.5t45.5 126t76.5 106t111.5 72.5t145.5 27q135 0 208.5 -74t73.5 -196q0 -85 -23.5 -165.5t-69 -148.5t-123.5 -109.5t-177 -41.5zM2017 90q67 0 118.5 36t79.5 93t42 116.5t14 115.5
q0 77 -40 124.5t-126 47.5q-54 0 -98.5 -23.5t-73 -61t-48 -86t-28 -96.5t-8.5 -94q0 -77 41 -124.5t127 -47.5zM1217 90q54 0 99 24.5t73.5 62.5t48 87t27.5 96t8 91q0 77 -40 124.5t-126 47.5q-54 0 -98.5 -23.5t-73 -61t-48 -86t-28 -96.5t-8.5 -94q0 -78 40 -125
t126 -47z" />
    <glyph glyph-name="uni2032" unicode="&#x2032;" horiz-adv-x="409" 
d="M211 1147l96 420h170l-160 -420h-106z" />
    <glyph glyph-name="uni2033" unicode="&#x2033;" horiz-adv-x="714" 
d="M516 1147l98 420h170l-159 -420h-109zM211 1147l96 420h170l-160 -420h-106z" />
    <glyph glyph-name="guilsinglleft" unicode="&#x2039;" horiz-adv-x="645" 
d="M440 950h146l-314 -424l144 -409h-133l-152 424z" />
    <glyph glyph-name="guilsinglright" unicode="&#x203a;" horiz-adv-x="645" 
d="M219 117h-145l315 428l-141 405h133l151 -422z" />
    <glyph glyph-name="fraction" unicode="&#x2044;" horiz-adv-x="497" 
d="M-487 -82l1429 1690h139l-1427 -1690h-141z" />
    <glyph glyph-name="Euro" unicode="&#x20ac;" horiz-adv-x="1259" 
d="M1143 418q-55 -206 -196.5 -327.5t-340.5 -121.5q-216 0 -327.5 150.5t-100.5 419.5h-174l23 116h161q2 17 17 99q3 18 10 50.5t10 45.5h-164l25 115h172q86 274 242.5 424.5t380.5 150.5q87 0 162 -31t128 -87.5t77 -142.5t9 -189h-137q18 149 -49.5 241t-206.5 92
q-318 0 -465 -458h510l-24 -115h-518q-3 -14 -10.5 -46t-10.5 -50q-12 -66 -16 -99h522l-23 -116h-510q-9 -213 65.5 -333t240.5 -120q136 0 239.5 93.5t141.5 238.5h137z" />
    <glyph glyph-name="trademark" unicode="&#x2122;" horiz-adv-x="1363" 
d="M475 1483l14 84h199l-16 -84h-197zM369 940h-101l105 543h-197l17 84h296zM877 1452l-99 -512h-90l121 627h145l58 -393q2 -15 3.5 -30.5t2 -26t0.5 -19.5v-13v-4h6q8 38 39 93l209 393h149l-121 -627h-94l99 512h-7q-22 -57 -59 -127l-207 -385h-78l-61 389
q-4 32 -6.5 63t-2.5 46l-1 14h-6z" />
    <glyph glyph-name="onethird" unicode="&#x2153;" horiz-adv-x="1744" 
d="M1327 399h-92l18 99h88q89 0 143 45.5t54 122.5q0 61 -45 97t-115 36q-78 0 -131 -42.5t-63 -129.5h-121q8 118 96 192t225 74q124 0 199.5 -58.5t75.5 -162.5q0 -87 -55 -145.5t-140 -82.5v-4q62 -16 102 -64t40 -122q0 -122 -96.5 -197t-241.5 -75t-224.5 69.5
t-72.5 196.5h116q2 -81 49.5 -125.5t139.5 -44.5q96 0 152.5 51t56.5 127q0 65 -41 104t-117 39zM279 686l127 631h-181l17 92h30q92 0 134 37q44 36 65 121h104l-176 -881h-120zM6 -82l1430 1690h139l-1428 -1690h-141z" />
    <glyph glyph-name="twothirds" unicode="&#x2154;" horiz-adv-x="1935" 
d="M1518 399h-93l19 99h88q89 0 143 45.5t54 122.5q0 61 -45 97t-115 36q-78 0 -131.5 -43t-63.5 -129h-121q8 118 96.5 192t225.5 74q124 0 199 -58.5t75 -162.5q0 -87 -55 -145.5t-139 -82.5v-4q62 -16 101.5 -64t39.5 -122q0 -122 -96.5 -197t-241.5 -75t-224.5 69.5
t-72.5 196.5h117q2 -81 49 -125.5t139 -44.5q96 0 152.5 51t56.5 127q0 65 -40.5 104t-116.5 39zM371 1286h-119q12 140 102.5 216.5t227.5 76.5q118 0 190 -57.5t72 -161.5q0 -55 -17 -102.5t-53 -91.5t-76 -79.5t-102 -82.5l-283 -216v-2h449l-19 -100h-628l14 86l389 303
q54 42 82 66.5t60 60t45.5 71t13.5 77.5q-2 61 -40.5 97t-107.5 36q-80 0 -134.5 -46t-65.5 -151zM229 -82l1430 1690h139l-1427 -1690h-142z" />
    <glyph glyph-name="oneeighth" unicode="&#x215b;" horiz-adv-x="1755" 
d="M1393 893q121 0 197 -57.5t77 -163.5q0 -85 -53.5 -146t-136.5 -82v-4q60 -16 99.5 -64.5t39.5 -121.5q0 -124 -97 -198t-249 -74q-139 0 -218 60t-79 171q0 93 59.5 156.5t159.5 85.5v4q-51 21 -83 67t-32 107q0 114 91 187t225 73zM1391 801q-89 0 -139 -49.5
t-50 -124.5q0 -64 43.5 -99.5t110.5 -35.5q86 0 136 47.5t50 126.5q0 64 -44 99.5t-107 35.5zM1278 74q100 0 156.5 51t56.5 133q0 71 -51.5 107t-128.5 36q-101 0 -157 -50.5t-56 -135.5q0 -69 52 -105t128 -36zM279 686l127 631h-181l17 92h30q92 0 134 37q44 36 65 121
h104l-176 -881h-120zM4 -82l1430 1690h139l-1428 -1690h-141z" />
    <glyph glyph-name="threeeighths" unicode="&#x215c;" horiz-adv-x="1943" 
d="M1581 903q121 0 197 -57.5t77 -163.5q0 -85 -53.5 -145.5t-136.5 -81.5v-4q59 -16 99 -65t40 -122q0 -124 -97 -198t-249 -74q-139 0 -218 60t-79 171q0 93 59.5 156.5t159.5 85.5v4q-51 21 -82.5 67t-31.5 107q0 114 90.5 187t224.5 73zM1579 811q-89 0 -138.5 -49.5
t-49.5 -124.5q0 -64 43 -99.5t110 -35.5q86 0 136.5 47.5t50.5 126.5q0 64 -44.5 99.5t-107.5 35.5zM1466 84q100 0 156.5 51t56.5 133q0 71 -52 107.5t-128 36.5q-101 0 -157 -51t-56 -136q0 -69 52 -105t128 -36zM233 -82l1430 1690h139l-1427 -1690h-142zM528 1085h-94
l19 97h90q88 0 141 46t53 122q0 61 -45 97t-114 36q-79 0 -132 -42t-63 -128h-121q8 118 96.5 192t225.5 74q123 0 198.5 -59t75.5 -162q0 -87 -55 -145.5t-139 -82.5v-4q62 -16 101.5 -64t39.5 -124q0 -121 -96.5 -195.5t-241.5 -74.5t-224.5 69t-72.5 197h117
q6 -172 188 -172q96 0 152.5 51.5t56.5 128.5q0 65 -40.5 104t-115.5 39z" />
    <glyph glyph-name="fiveeighths" unicode="&#x215d;" horiz-adv-x="1921" 
d="M1559 893q121 0 197 -57.5t77 -163.5q0 -85 -54 -146t-137 -82v-4q60 -16 100 -65t40 -121q0 -124 -97 -198t-249 -74q-139 0 -218 60t-79 171q0 93 59.5 156.5t159.5 85.5v4q-51 21 -83 67t-32 107q0 114 91 187t225 73zM1556 801q-89 0 -138.5 -49.5t-49.5 -124.5
q0 -64 43.5 -99.5t110.5 -35.5q86 0 136 47.5t50 126.5q0 64 -44.5 99.5t-107.5 35.5zM1444 74q100 0 156.5 51t56.5 133q0 71 -51.5 107t-128.5 36q-101 0 -157 -50.5t-56 -135.5q0 -69 52 -105t128 -36zM694 1006q-3 158 -157 161q-116 0 -183 -77h-106l129 477h491
l-20 -105h-391l-74 -270h4q76 72 193 72q110 0 174.5 -66.5t64.5 -175.5q3 -152 -97 -253t-265 -101q-138 0 -210.5 66.5t-66.5 185.5h121q-3 -73 42.5 -114.5t121.5 -41.5q105 0 168 71t61 171zM207 -82l1429 1690h140l-1428 -1690h-141z" />
    <glyph glyph-name="seveneighths" unicode="&#x215e;" horiz-adv-x="1775" 
d="M1413 893q121 0 197.5 -57.5t77.5 -163.5q0 -85 -54 -146t-137 -82v-4q60 -16 99.5 -64.5t39.5 -121.5q0 -124 -97 -198t-249 -74q-139 0 -218 60t-79 171q0 93 59.5 156.5t159.5 85.5v4q-51 21 -82.5 67t-31.5 107q0 114 90.5 187t224.5 73zM1411 801
q-89 0 -138.5 -49.5t-49.5 -124.5q0 -64 43 -99.5t110 -35.5q86 0 136.5 47.5t50.5 126.5q0 64 -44.5 99.5t-107.5 35.5zM1298 74q100 0 156.5 51t56.5 133q0 71 -51.5 107t-128.5 36q-101 0 -157 -50.5t-56 -135.5q0 -69 52 -105t128 -36zM170 686l514 776h-457l21 105h602
l-14 -78l-533 -803h-133zM20 -82l1430 1690h139l-1427 -1690h-142z" />
    <glyph glyph-name="minus" unicode="&#x2212;" horiz-adv-x="1259" 
d="M197 670l24 125h918l-23 -125h-919z" />
    <glyph glyph-name="approxequal" unicode="&#x2248;" horiz-adv-x="1071" 
d="M172 799q22 111 93.5 181.5t187.5 70.5q49 0 100 -22t87.5 -49t82 -49t84.5 -22q53 0 87.5 33.5t55.5 110.5h107q-19 -111 -91.5 -181.5t-177.5 -70.5q-53 0 -107 22t-90.5 48.5t-80.5 48.5t-80 22q-57 0 -94 -34t-57 -109h-107zM106 453q23 112 94 182t187 70
q49 0 100.5 -22t88 -49t82 -49t83.5 -22q53 0 88 33.5t58 112.5h104q-19 -115 -90 -184.5t-178 -69.5q-52 0 -105.5 22t-90 48.5t-80.5 48.5t-80 22q-58 0 -95 -33.5t-57 -109.5h-109z" />
    <glyph glyph-name="notequal" unicode="&#x2260;" horiz-adv-x="1294" 
d="M569 496l-178 -256h-133l178 256h-266l25 125h327l158 227h-440l22 125h506l176 254h133l-176 -254h281l-25 -125h-344l-158 -227h459l-24 -125h-521z" />
    <glyph glyph-name="lessequal" unicode="&#x2264;" horiz-adv-x="1255" 
d="M1030 270l-837 432l20 105l1004 426l-25 -146l-827 -342l692 -346zM979 0h-918l23 121h917z" />
    <glyph glyph-name="greaterequal" unicode="&#x2265;" horiz-adv-x="1255" 
d="M313 1225l840 -434l-20 -101l-1006 -428l25 146l829 342l-692 348zM995 0h-917l24 121h916z" />
    <glyph glyph-name="uni24C5" unicode="&#x24c5;" horiz-adv-x="1849" 
d="M152 778q0 170 61.5 320.5t167.5 258.5t256 171t321 63q228 0 413.5 -107t290.5 -293t105 -413t-105 -412.5t-290.5 -292t-413.5 -106.5q-171 0 -321 62.5t-256 170.5t-167.5 258t-61.5 320zM958 57q197 0 358.5 94.5t253 260t91.5 366.5t-91.5 367t-253 261t-358.5 95
q-148 0 -278 -56t-222 -152t-145 -230t-53 -285t53 -284.5t145 -229.5t222 -151.5t278 -55.5zM647 373l162 827h229q123 0 195.5 -63t71.5 -174q-4 -129 -89.5 -202t-226.5 -73h-172l-61 -315h-109zM831 776h168q94 0 144.5 50.5t52.5 129.5q3 73 -40.5 114.5t-127.5 41.5
h-127z" />
    <glyph glyph-name="quotedblright.sc" horiz-adv-x="735" 
d="M475 899l164 420h168l-229 -420h-103zM170 899l164 420h168l-230 -420h-102z" />
    <glyph glyph-name="Ibreve.sc" horiz-adv-x="563" 
d="M115 0l256 1319h139l-258 -1319h-137zM483 1475q-132 0 -201 76.5t-40 232.5h108q-20 -100 18.5 -151.5t118.5 -51.5q175 0 222 203h110q-28 -154 -120.5 -231.5t-215.5 -77.5z" />
    <glyph glyph-name="exclamdown.uc" horiz-adv-x="518" 
d="M420 1137l-217 -1184h-150l252 1184h115zM346 1567h191l-37 -193h-191z" />
    <glyph glyph-name="hyphen.uc" horiz-adv-x="800" 
d="M158 696l24 125h574l-25 -125h-573z" />
    <glyph glyph-name="endash.uc" horiz-adv-x="1073" 
d="M158 702l22 115h848l-24 -115h-846z" />
    <glyph glyph-name="emdash.uc" horiz-adv-x="1794" 
d="M158 702l22 115h1567l-23 -115h-1566z" />
    <glyph glyph-name="guilsinglleft.uc" horiz-adv-x="653" 
d="M463 1073h145l-313 -424l143 -409h-133l-151 424z" />
    <glyph glyph-name="guilsinglright.uc" horiz-adv-x="645" 
d="M231 240h-145l315 428l-141 405h133l152 -422z" />
    <glyph glyph-name="guillemotleft.uc" horiz-adv-x="1048" 
d="M856 1073h148l-318 -424l145 -409h-133l-151 424zM463 1073h145l-313 -424l143 -409h-133l-151 424z" />
    <glyph glyph-name="guillemotright.uc" horiz-adv-x="1038" 
d="M233 240h-147l320 428l-146 405h135l152 -422zM627 240h-146l316 428l-144 405h135l152 -422z" />
    <glyph glyph-name="parenleft.uc" horiz-adv-x="612" 
d="M403 -205h-112q-35 110 -55 183t-39 197t-19 251q0 612 469 1249h119q-219 -320 -334.5 -631t-118.5 -649q0 -120 16 -240t29.5 -179.5t44.5 -180.5z" />
    <glyph glyph-name="parenright.uc" horiz-adv-x="612" 
d="M295 1675h113q35 -108 55 -182.5t38.5 -198t18.5 -250.5q0 -612 -469 -1249h-119q219 320 334.5 631t116.5 649q1 174 -21.5 307t-66.5 293z" />
    <glyph glyph-name="space_uni0326" horiz-adv-x="747" 
d="M207 -406l110 277h146l-162 -277h-94z" />
    <glyph glyph-name="grave.uc" horiz-adv-x="743" 
d="M418 1966l110 -272h-112l-148 272h150z" />
    <glyph glyph-name="bracketleft.uc" horiz-adv-x="696" 
d="M86 -209l369 1888h407l-20 -106h-277l-325 -1675h276l-20 -107h-410z" />
    <glyph glyph-name="bracketright.uc" horiz-adv-x="724" 
d="M696 1679l-368 -1888h-408l21 107h276l326 1675h-277l21 106h409z" />
    <glyph glyph-name="braceleft.uc" horiz-adv-x="673" 
d="M129 690h-45l25 123h45q92 0 134.5 34.5t61.5 123.5l88 459q28 147 124.5 206.5t289.5 46.5l-21 -102q-74 4 -122 -5.5t-78 -37t-45 -64t-27 -98.5l-82 -415q-9 -44 -19 -74t-30.5 -60t-54.5 -48.5t-84 -26.5l-2 -7q45 -10 71 -34.5t33.5 -60.5t6 -69.5t-10.5 -76.5
l-74 -377q-26 -134 10 -179.5t181 -58.5l-21 -102q-190 8 -262.5 80t-42.5 231l84 424q19 90 -13 129t-120 39z" />
    <glyph glyph-name="braceright.uc" horiz-adv-x="706" 
d="M631 788h43l-25 -124h-45q-92 0 -134.5 -34.5t-59.5 -123.5l-91 -465q-28 -147 -124.5 -207t-288.5 -47l20 102q74 -4 122 5.5t78.5 37t45.5 64.5t27 98l77 402q9 45 20.5 79t33 68t57.5 55t84 27v8q-45 10 -71 34.5t-33.5 60.5t-6 70t10.5 77l73 368q11 56 12 92t-8 63
t-34 43t-62.5 25t-97.5 15l20 102q190 -8 263 -81t41 -236l-80 -412q-19 -90 12 -128t121 -38z" />
    <glyph glyph-name="slash.uc" horiz-adv-x="1128" 
d="M-113 -180l1248 1837h143l-1243 -1837h-148z" />
    <glyph glyph-name="backslash.uc" horiz-adv-x="1069" 
d="M803 -180l-537 1837h125l541 -1837h-129z" />
    <glyph glyph-name="bar.uc" horiz-adv-x="573" 
d="M88 -180l358 1837h119l-358 -1837h-119z" />
    <glyph glyph-name="acute.uc" horiz-adv-x="743" 
d="M236 1694l186 272h164l-236 -272h-114z" />
    <glyph glyph-name="at.uc" horiz-adv-x="2088" 
d="M1554 270q-231 0 -249 197h-7q-51 -100 -133.5 -153.5t-185.5 -53.5q-145 0 -227 95t-84 247q-1 83 16.5 166t55.5 160t91 136t129 94.5t164 35.5q100 0 164.5 -50.5t87.5 -135.5h6l29 153h129l-108 -547q-49 -239 137 -239q64 0 123.5 33t108.5 96t78.5 165t29.5 228
q0 142 -50.5 263t-142.5 209t-228.5 137.5t-301.5 49.5q-178 0 -339.5 -72.5t-279.5 -195.5t-188 -295.5t-70 -363.5q0 -344 202.5 -548t541.5 -204q161 0 307 50t248 128l59 -82q-256 -202 -631 -202q-194 0 -355.5 62t-272.5 173.5t-172.5 271t-61.5 351.5q0 211 77.5 401
t211 329t323 220.5t404.5 81.5q252 0 444 -94.5t296 -265.5t104 -392q-1 -135 -31.5 -246t-79.5 -182.5t-113 -120t-128 -69.5t-128 -21zM1008 373q109 0 192 88t113 227l16 76q7 43 8.5 86.5t-12.5 85t-37.5 74t-66 52t-97.5 19.5q-76 0 -138.5 -43t-101 -112t-59 -151
t-20.5 -165q0 -108 49.5 -172.5t153.5 -64.5z" />
    <glyph glyph-name="f.short" horiz-adv-x="692" 
d="M467 963l-186 -963h-140l187 963h-205l22 110h205l53 275q26 134 113 203t221 69q65 0 113 -16l-23 -115q-60 12 -98 12q-80 0 -127 -44.5t-67 -145.5l-46 -238h265l-21 -110h-266z" />
    <glyph glyph-name="f_f.short" horiz-adv-x="1349" 
d="M467 963l-186 -963h-140l187 963h-205l22 110h205l51 268q26 130 116.5 199.5t221.5 69.5q48 0 111 -13l-23 -118q-45 10 -100 10q-80 0 -127 -41.5t-65 -134.5l-48 -240h519l55 281q26 129 116.5 197.5t221.5 68.5q64 0 108 -10l-22 -119q-42 10 -101 10
q-78 0 -125 -42.5t-65 -135.5l-49 -250h266l-22 -110h-265l-186 -963h-139l186 963h-518z" />
    <glyph glyph-name="macron.uc" horiz-adv-x="747" 
d="M223 1759l23 117h557l-25 -117h-555z" />
    <glyph glyph-name="circumflex.uc" horiz-adv-x="747" 
d="M526 1966l170 -272h-116l-131 176h-3l-194 -176h-129l260 272h143z" />
    <glyph glyph-name="caron.uc" horiz-adv-x="747" 
d="M313 1694l-174 272h123l131 -176h2l195 176h135l-268 -272h-144z" />
    <glyph glyph-name="breve.uc" horiz-adv-x="747" 
d="M262 1985h109q-7 -82 30.5 -124t110.5 -42q157 0 213 166h111q-34 -136 -123.5 -204.5t-206.5 -68.5q-121 0 -190.5 68t-53.5 205z" />
    <glyph glyph-name="caron.alt" horiz-adv-x="747" 
d="M375 1278l94 336h133l-137 -336h-90z" />
    <glyph glyph-name="dotaccent.uc" horiz-adv-x="747" 
d="M420 1718l31 162h151l-31 -162h-151z" />
    <glyph glyph-name="ring.uc" horiz-adv-x="747" 
d="M510 1667q-91 0 -144 53t-53 138q0 98 60.5 159.5t158.5 61.5q95 0 149 -53t54 -140q0 -99 -62.5 -159t-162.5 -60zM530 2001q-53 0 -84.5 -39.5t-31.5 -101.5q0 -52 27 -83.5t77 -31.5q52 0 85.5 38t33.5 101q0 50 -27.5 83.5t-79.5 33.5z" />
    <glyph glyph-name="sterling.tab" 
d="M1026 127l-22 -127h-965l22 123l119 84q59 42 96 74.5t66.5 72.5t41.5 84t12.5 101t-13.5 131h-242l21 112h198l-26 129q-36 184 11.5 327.5t167.5 222.5t292 79q140 0 235.5 -60.5t132 -160t13.5 -221.5h-133q13 68 3 127t-37.5 103t-85 69.5t-140.5 25.5
q-103 0 -176 -39.5t-108 -105.5t-46.5 -153t8.5 -181l29 -162h448l-22 -112h-408q24 -180 -29 -289.5t-192 -204.5l-66 -45v-4h795z" />
    <glyph glyph-name="tilde.uc" horiz-adv-x="747" 
d="M156 1696q6 50 21 93t41.5 80t69 58t97.5 21q46 0 89 -21t70.5 -47t60 -47t59.5 -21q47 0 72 35.5t38 106.5h109q-5 -50 -20 -93.5t-41.5 -80.5t-69.5 -58.5t-97 -21.5q-46 0 -89 21t-70.5 46.5t-60.5 46.5t-60 21q-85 0 -111 -139h-108z" />
    <glyph glyph-name="cent.tab" horiz-adv-x="1132" 
d="M961 330q-30 -163 -152.5 -260t-284.5 -97l-41 -211h-116l43 222q-146 29 -225 136t-79 273q0 120 33 237.5t95.5 218.5t164.5 168.5t228 80.5l39 202h116l-39 -204q126 -16 202.5 -97t76.5 -225h-133q-1 89 -46 142t-122 67l-174 -897q64 4 116.5 30t84.5 64t50.5 75.5
t26.5 74.5h136zM432 98l172 885q-89 -16 -159.5 -77.5t-111 -147t-61 -177.5t-20.5 -182q0 -114 44 -193.5t136 -107.5z" />
    <glyph glyph-name="plus.tab" 
d="M686 672l-78 -404h-127l78 404h-391l22 121h394l78 401h126l-77 -401h393l-23 -121h-395z" />
    <glyph glyph-name="minus.tab" 
d="M166 670l24 125h918l-23 -125h-919z" />
    <glyph glyph-name="multiply.tab" 
d="M223 293l-73 94l397 342l-271 344l97 82l268 -346l401 348l78 -94l-405 -344l276 -350l-98 -84l-268 352z" />
    <glyph glyph-name="divide.tab" 
d="M612 1026l31 160h158l-33 -160h-156zM166 670l22 125h918l-23 -125h-917zM623 279h-156l31 161h157z" />
    <glyph glyph-name="equal.tab" 
d="M203 848l24 125h918l-23 -125h-919zM1053 496h-918l25 125h917z" />
    <glyph glyph-name="less.tab" 
d="M969 174l-834 455l23 104l1007 451l-24 -146l-834 -366l690 -367z" />
    <glyph glyph-name="greater.tab" 
d="M268 1171l834 -454l-21 -103l-1009 -448l24 145l834 365l-688 366z" />
    <glyph glyph-name="florin.tab" 
d="M649 766l-299 -1153h-137l299 1153h-219l22 111h226l114 442q39 149 134 217t225 68q60 0 114 -15l-26 -116q-46 12 -96 12q-171 0 -220 -193l-108 -415h268l-20 -111h-277z" />
    <glyph glyph-name="plusminus.tab" 
d="M692 698l-78 -401h-129l78 401h-391l23 121h391l78 402h129l-78 -402h393l-23 -121h-393zM37 0l20 121h916l-23 -121h-913z" />
    <glyph glyph-name="notequal.tab" 
d="M541 496l-179 -256h-133l179 256h-267l25 125h328l157 227h-442l24 125h506l176 254h132l-177 -254h283l-25 -125h-344l-157 -227h456l-22 -125h-520z" />
    <glyph glyph-name="approxequal.tab" 
d="M219 799q22 111 93.5 181.5t187.5 70.5q49 0 100 -22t87.5 -49t82 -49t84.5 -22q53 0 87.5 33.5t55.5 110.5h107q-19 -112 -91 -182t-177 -70q-52 0 -106 22t-91 48.5t-81.5 48.5t-80.5 22q-57 0 -94 -34t-57 -109h-107zM154 453q23 113 93.5 182.5t186.5 69.5
q49 0 100.5 -22t88 -49t82 -49t83.5 -22q53 0 88 33.5t58 112.5h106q-21 -115 -92 -184.5t-178 -69.5q-52 0 -105.5 22t-90 48.5t-80.5 48.5t-80 22q-57 0 -94.5 -33.5t-57.5 -109.5h-108z" />
    <glyph glyph-name="lessequal.tab" 
d="M1012 270l-840 432l23 105l1003 426l-24 -146l-828 -342l692 -346zM958 0h-915l23 121h917z" />
    <glyph glyph-name="greaterequal.tab" 
d="M281 1225l837 -434l-18 -101l-1006 -428l25 146l829 342l-694 348zM961 0h-916l23 121h917z" />
    <glyph glyph-name="period.tab" horiz-adv-x="614" 
d="M143 0l37 195h191l-37 -195h-191z" />
    <glyph glyph-name="comma.tab" horiz-adv-x="614" 
d="M31 -240l172 463h184l-252 -463h-104z" />
    <glyph glyph-name="colon.tab" horiz-adv-x="614" 
d="M240 831l36 197h193l-37 -197h-192zM270 0h-192l37 197h192z" />
    <glyph glyph-name="semicolon.tab" horiz-adv-x="614" 
d="M244 831l39 197h192l-37 -197h-194zM66 -240h-103l172 463h182z" />
    <glyph glyph-name="hungarumlaut.uc" horiz-adv-x="720" 
d="M502 1720l129 273h155l-186 -273h-98zM238 1720l135 273h155l-194 -273h-96z" />
    <glyph glyph-name="currency.tab" 
d="M252 709q0 117 63 209l-145 147l88 88l145 -147q94 65 209 65q119 0 211 -67l148 149l86 -86l-150 -149q68 -90 68 -209q0 -114 -66 -209l148 -148l-86 -88l-150 150q-87 -66 -209 -66q-118 0 -209 66l-145 -148l-88 88l147 146q-65 94 -65 209zM612 444q109 0 181.5 76
t72.5 189q0 114 -72.5 190t-181.5 76q-108 0 -181 -76t-73 -190q0 -112 73.5 -188.5t180.5 -76.5z" />
    <glyph glyph-name="percent.tab" horiz-adv-x="1843" 
d="M152 -82l1429 1681h152l-1432 -1681h-149zM229 1047q0 85 25 167t72.5 151t126 111t176.5 42q134 0 207 -74t73 -193q0 -86 -25 -167.5t-72 -150.5t-125.5 -111t-176.5 -42q-134 0 -207.5 73t-73.5 194zM522 883q67 0 119.5 36.5t80.5 93t42 115.5t14 115
q0 77 -39.5 124.5t-124.5 47.5q-66 0 -118 -35t-81.5 -90.5t-44 -115.5t-14.5 -119q0 -78 40 -125t126 -47zM1237 -12q-135 0 -209 72.5t-74 193.5q0 85 25 167t73 150t126.5 110t175.5 42q135 0 208.5 -73t73.5 -193q0 -85 -25 -166t-72 -150t-125.5 -111t-176.5 -42z
M1249 90q54 0 98.5 24.5t73 62.5t48 87t28 96t8.5 91q0 77 -39.5 124.5t-124.5 47.5q-67 0 -119 -35t-81 -91t-43.5 -116t-14.5 -119q0 -78 40 -125t126 -47z" />
    <glyph glyph-name="perthousand.tab" horiz-adv-x="2457" 
d="M78 -82l1431 1681h150l-1432 -1681h-149zM213 1051q0 84 23 163.5t67 148t118.5 110.5t168.5 43q121 1 188.5 -72t69.5 -199q2 -82 -21 -162.5t-67.5 -149t-120 -111t-168.5 -42.5q-122 0 -190 72.5t-68 198.5zM483 883q62 0 110.5 36.5t75 94t39.5 116.5t13 115
q0 76 -36.5 123t-106.5 47q-62 0 -110 -35.5t-74.5 -92t-40 -117t-13.5 -119.5q0 -77 36.5 -122.5t106.5 -45.5zM1880 -12q-122 0 -190 72t-68 198q0 84 23 163.5t67 147.5t119 110.5t170 43.5q121 0 188 -72.5t70 -199.5q1 -65 -13 -130t-44.5 -125t-74 -106.5t-107.5 -74
t-140 -27.5zM1133 -12q-124 0 -192.5 72t-68.5 198q0 84 23 163.5t67.5 147.5t119.5 110.5t169 43.5q121 0 188.5 -73t69.5 -199q1 -65 -13 -130t-44 -125t-73.5 -106.5t-107 -74t-138.5 -27.5zM1894 90q62 0 110 36.5t74 93.5t39 117t13 116q0 75 -36 122.5t-107 47.5
q-62 0 -110 -35.5t-74.5 -92.5t-40 -117.5t-13.5 -119.5q0 -78 37 -123t108 -45zM1145 90q62 0 110 36.5t74.5 93.5t39.5 117t13 116q0 75 -36.5 122.5t-108.5 47.5q-50 0 -91 -24t-67.5 -62t-44.5 -87t-25.5 -97.5t-7.5 -94.5q0 -78 36.5 -123t107.5 -45z" />
    <glyph glyph-name="idotaccent" horiz-adv-x="526" 
d="M350 1339l31 162h151l-30 -162h-152zM96 0l207 1073h139l-206 -1073h-140z" />
    <glyph glyph-name="A.sc" horiz-adv-x="1243" 
d="M754 1184q-79 -159 -90 -178l-261 -480h463l-84 480q-8 45 -14 89.5t-8 66.5l-2 22h-4zM954 0l-69 412h-543l-223 -412h-144l723 1319h162l238 -1319h-144z" />
    <glyph glyph-name="AE.sc" horiz-adv-x="1845" 
d="M864 526l131 670h-112q-42 -72 -78 -129l-344 -541h403zM762 0l80 412h-455l-262 -414l-145 2l843 1319h1024l-22 -123h-690l-91 -465h631l-24 -121h-631l-94 -487h698l-22 -123h-840z" />
    <glyph glyph-name="B.sc" horiz-adv-x="1267" 
d="M621 0h-506l256 1319h444q166 0 262.5 -77t96.5 -214q0 -141 -71 -218.5t-202 -107.5v-4q107 -23 166 -98t59 -190q0 -200 -138 -305t-367 -105zM399 754h322q313 0 313 264q0 89 -61.5 137.5t-177.5 48.5h-308zM274 115h332q177 0 278 73t101 230q0 109 -72.5 168
t-201.5 59h-332z" />
    <glyph glyph-name="C.sc" horiz-adv-x="1331" 
d="M1272 930h-137q6 143 -75 218t-220 77q-94 0 -176 -32.5t-141.5 -89t-105.5 -130t-74 -157.5t-42 -167.5t-14 -163.5q0 -85 21.5 -155.5t65 -125.5t116.5 -85.5t169 -30.5q155 0 261 83.5t137 221.5h137q-37 -183 -181.5 -301.5t-359.5 -118.5q-237 0 -372.5 136.5
t-135.5 379.5q0 130 30 254.5t90.5 232t143.5 189t196 128t241 46.5q198 0 317 -111.5t109 -297.5z" />
    <glyph glyph-name="D.sc" horiz-adv-x="1386" 
d="M115 0l256 1319h372q118 0 216 -30t172 -89.5t115.5 -157t41.5 -225.5t-25.5 -244.5t-83 -222t-142.5 -182.5t-211 -122.5t-281 -45.5h-430zM272 119h301q113 0 205 34t152.5 92.5t104 129t66.5 152.5t33.5 153t10.5 139q0 196 -111.5 288.5t-308.5 92.5h-238z" />
    <glyph glyph-name="Dcroat.sc" horiz-adv-x="1386" 
d="M545 0h-430l118 612h-149l22 117h150l115 590h372q118 0 216 -30t172 -89.5t115.5 -157t41.5 -225.5t-25.5 -244.5t-83 -222t-142.5 -182.5t-211 -122.5t-281 -45.5zM272 119h301q113 0 205 34t152.5 92.5t104 129t66.5 152.5t33.5 153t10.5 139q0 196 -111.5 288.5
t-308.5 92.5h-238l-94 -471h383l-22 -117h-383z" />
    <glyph glyph-name="E.sc" horiz-adv-x="1198" 
d="M115 0l256 1319h829l-24 -121h-691l-90 -469h631l-22 -119h-633l-95 -489h701l-25 -121h-837z" />
    <glyph glyph-name="Eng.sc" horiz-adv-x="1404" 
d="M627 -324h-66l23 121h53q142 0 213 42.5t104 137.5l-438 1033q-13 30 -23.5 61t-14.5 47l-5 15h-6l-223 -1133h-129l256 1319h157l420 -991q15 -36 26.5 -69.5t15.5 -49.5l5 -16h4l224 1126h129l-236 -1204l-16 -84q-18 -91 -48 -153t-83.5 -109.5t-137.5 -70t-204 -22.5
z" />
    <glyph glyph-name="Eth.sc" horiz-adv-x="1386" 
d="M545 0h-430l118 612h-149l22 117h150l115 590h372q118 0 216 -30t172 -89.5t115.5 -157t41.5 -225.5t-25.5 -244.5t-83 -222t-142.5 -182.5t-211 -122.5t-281 -45.5zM272 119h301q113 0 205 34t152.5 92.5t104 129t66.5 152.5t33.5 153t10.5 139q0 196 -111.5 288.5
t-308.5 92.5h-238l-94 -471h383l-22 -117h-383z" />
    <glyph glyph-name="F.sc" horiz-adv-x="1091" 
d="M362 567l-110 -567h-137l256 1319h768l-23 -123h-631l-98 -510h574l-23 -119h-576z" />
    <glyph glyph-name="G.sc" horiz-adv-x="1404" 
d="M1290 963h-135q-3 121 -88 192.5t-225 71.5q-98 0 -182 -34.5t-143 -94t-104.5 -134t-72 -159t-40 -165t-13.5 -155.5q0 -86 21 -157t63.5 -126t114.5 -85.5t167 -30.5q90 0 168.5 32.5t135 89t95 127.5t56.5 152l12 56h-393l23 114h524l-129 -657h-121l43 215h-6
q-65 -112 -174.5 -176t-251.5 -64q-239 0 -365.5 139.5t-126.5 377.5q0 80 12.5 162.5t40.5 165.5t68 158.5t99 141.5t130 114t164.5 75.5t198.5 27.5q202 0 319 -106t115 -268z" />
    <glyph glyph-name="H.sc" horiz-adv-x="1404" 
d="M371 612l-119 -612h-137l256 1319h137l-115 -590h703l114 590h140l-258 -1319h-140l121 612h-702z" />
    <glyph glyph-name="I.sc" horiz-adv-x="563" 
d="M115 0l256 1319h139l-258 -1319h-137z" />
    <glyph glyph-name="IJ.sc" horiz-adv-x="1224" 
d="M115 0l256 1319h139l-258 -1319h-137zM514 -2h-51l22 121h29q92 0 152.5 15t99.5 52.5t60.5 88t37.5 133.5l180 911h138l-187 -950q-14 -75 -36 -131t-59 -103t-89 -76t-126 -45t-171 -16z" />
    <glyph glyph-name="J.sc" horiz-adv-x="804" 
d="M96 -2h-96l23 121h73q121 0 191 30.5t103.5 89.5t55.5 169l179 911h137l-184 -950q-19 -95 -50 -160t-86 -114.5t-140.5 -73t-205.5 -23.5z" />
    <glyph glyph-name="K.sc" horiz-adv-x="1259" 
d="M336 426l-84 -426h-137l256 1319h139l-139 -713l774 713h178l-614 -563l415 -756h-151l-371 670z" />
    <glyph glyph-name="L.sc" horiz-adv-x="1077" 
d="M115 0l256 1319h139l-234 -1196h662l-25 -123h-798z" />
    <glyph glyph-name="M.sc" horiz-adv-x="1691" 
d="M115 0l256 1319h188l191 -967l24 -168h4q45 94 88 166l572 969h200l-258 -1319h-135l223 1135h-6q-49 -101 -100 -187l-559 -948h-123l-180 944l-29 191h-4l-225 -1135h-127z" />
    <glyph glyph-name="N.sc" horiz-adv-x="1404" 
d="M115 0l256 1319h157l420 -991q15 -36 26.5 -69.5t15.5 -49.5l5 -16h4l224 1126h129l-258 -1319h-152l-426 1010q-14 33 -24.5 63.5t-14.5 44.5l-4 15h-6l-221 -1133h-131z" />
    <glyph glyph-name="O.sc" horiz-adv-x="1431" 
d="M152 479q0 126 26.5 247.5t82.5 232.5t134.5 195t190.5 133.5t243 49.5q239 0 372.5 -135t133.5 -368q0 -125 -26 -246.5t-81.5 -233t-134 -195.5t-191 -134t-245.5 -50q-238 0 -371.5 135.5t-133.5 368.5zM1192 834q0 175 -93 283t-280 108q-107 0 -196.5 -48
t-148.5 -125.5t-100.5 -177.5t-60 -200.5t-18.5 -198.5q0 -82 21 -151t64.5 -123t117 -84.5t170.5 -30.5q106 0 195.5 49t149 127t101 178t60 200t18.5 194z" />
    <glyph glyph-name="OE.sc" horiz-adv-x="2119" 
d="M668 86q174 0 306 131t173 346l37 180q41 211 -62 346.5t-301 135.5q-107 0 -197 -48t-149.5 -125.5t-101 -177t-60 -200t-18.5 -197.5q0 -83 21 -152t64 -123.5t116.5 -85t171.5 -30.5zM1071 203q-143 -228 -420 -228q-235 0 -367 134t-132 370q0 125 26.5 247t82.5 233
t134 195t190 133.5t242 49.5q318 0 418 -245h4l45 227h828l-23 -121h-690l-90 -469h631l-23 -119h-633l-94 -489h698l-22 -121h-840l41 203h-6z" />
    <glyph glyph-name="Oslash.sc" horiz-adv-x="1431" 
d="M823 1227q-108 0 -198 -48t-150 -125.5t-102 -177.5t-61 -202.5t-19 -202.5q0 -107 33 -186l764 848q-94 94 -267 94zM666 86q89 0 167 34t134.5 92.5t100.5 133t71 159t41 168t14 161.5q0 126 -45 215l-768 -852q96 -111 285 -111zM1335 834q0 -125 -26 -246.5
t-81.5 -233t-134 -195.5t-191 -134t-245.5 -50q-229 0 -362 127l-131 -145h-133l200 221q-79 122 -79 301q0 126 26.5 247.5t82.5 232.5t134.5 195t190.5 133.5t243 49.5q216 0 347 -110l122 137h136l-191 -211q92 -131 92 -319z" />
    <glyph glyph-name="P.sc" horiz-adv-x="1142" 
d="M629 510h-277l-100 -510h-137l256 1319h344q197 0 306 -89.5t109 -256.5q0 -216 -129.5 -339.5t-371.5 -123.5zM375 629h260q165 0 261.5 82t96.5 254q0 239 -297 239h-209z" />
    <glyph glyph-name="Q.sc" horiz-adv-x="1431" 
d="M657 -25q-239 0 -372 135t-133 369q0 126 26.5 248t82.5 232.5t134.5 194.5t190.5 133.5t243 49.5q242 0 374 -136.5t132 -366.5q0 -245 -93 -446.5t-249 -301.5v-8q103 -7 168 -46t117 -120l-115 -80q-62 92 -123.5 128t-158.5 36q-31 0 -97.5 -10.5t-126.5 -10.5z
M670 86q90 0 167.5 34t133 92t99 132.5t70 159t39.5 167t13 160.5q0 176 -93 285t-280 109q-107 0 -196.5 -48t-149 -125t-101 -176.5t-60 -200.5t-17.5 -198q0 -83 21 -152t64.5 -123.5t117.5 -85t172 -30.5z" />
    <glyph glyph-name="R.sc" horiz-adv-x="1251" 
d="M383 670h342q141 0 223 83t82 228q0 111 -68.5 167t-195.5 56h-281zM358 555l-106 -555h-137l256 1319h395q185 0 289 -74q116 -83 116 -260q0 -156 -85 -267t-244 -147v-4l219 -567h-141l-215 555h-347z" />
    <glyph glyph-name="S.sc" horiz-adv-x="1216" 
d="M106 379h138q-4 -148 79.5 -220.5t245.5 -72.5q91 0 167 27.5t127.5 92t51.5 156.5q0 85 -42.5 138.5t-143.5 81.5l-178 49q-146 40 -211.5 119t-67.5 198q-1 180 127 284.5t326 104.5q92 0 169 -24.5t133 -71t85 -119.5t23 -164h-134q5 126 -71 197.5t-221 71.5
q-126 0 -212.5 -70t-86.5 -186q0 -84 43.5 -134t146.5 -79l178 -49q150 -42 214.5 -120t64.5 -202q0 -190 -138 -301t-358 -111q-207 0 -336 104.5t-119 299.5z" />
    <glyph glyph-name="T.sc" horiz-adv-x="1124" 
d="M762 1198l-234 -1198h-139l234 1198h-445l23 121h1032l-23 -121h-448z" />
    <glyph glyph-name="Tbar.sc" horiz-adv-x="1124" 
d="M674 743l-146 -743h-139l146 743h-338l20 103h338l68 352h-445l23 121h1032l-23 -121h-448l-68 -352h340l-20 -103h-340z" />
    <glyph glyph-name="Thorn.sc" horiz-adv-x="1126" 
d="M586 410h12q149 3 237 78.5t89 228.5q0 219 -281 219h-209l-102 -526h254zM584 297h-275l-57 -297h-137l256 1319h139l-53 -268h198q191 0 298.5 -84.5t107.5 -241.5q0 -200 -125 -314t-352 -114z" />
    <glyph glyph-name="U.sc" horiz-adv-x="1335" 
d="M182 492l160 827h139l-149 -770q-15 -79 -21.5 -130.5t-1 -113t30.5 -100.5q69 -115 264 -115q190 0 297 113q36 38 62.5 98.5t36.5 102.5t26 122l156 793h137l-176 -897q-88 -449 -547 -449q-91 0 -163.5 18t-131 56.5t-91 99t-42.5 146.5t14 199z" />
    <glyph glyph-name="V.sc" horiz-adv-x="1183" 
d="M408 0l-218 1319h142l155 -993q8 -52 12.5 -98.5t5.5 -66.5l1 -20h2q27 68 86 174l553 1004h145l-729 -1319h-155z" />
    <glyph glyph-name="W.sc" horiz-adv-x="1767" 
d="M459 0h-148l-112 1319h135l78 -959q4 -50 5 -96t0 -67l-1 -21h4q22 72 69 172l459 971h158l78 -957q2 -32 3.5 -63t2 -52.5t0.5 -38.5v-26v-8h4q27 76 72 174l456 971h140l-623 -1319h-154l-77 940q-5 64 -8 117.5t-3 75.5v22h-6q-23 -76 -86 -209z" />
    <glyph glyph-name="X.sc" horiz-adv-x="1230" 
d="M2 0l576 690l-287 629h149l236 -522h4l432 522h156l-533 -635l322 -684h-154l-264 578h-2l-481 -578h-154z" />
    <glyph glyph-name="Y.sc" horiz-adv-x="1128" 
d="M383 0l115 588l-312 731h146l254 -617h4l495 617h150l-600 -741l-115 -578h-137z" />
    <glyph glyph-name="Z.sc" horiz-adv-x="1173" 
d="M283 1200l24 119h912l-19 -100l-983 -1098h780l-22 -121h-952l18 104l981 1096h-739z" />
    <glyph glyph-name="ampersand.sc" horiz-adv-x="1224" 
d="M475 1020q0 -64 23 -119.5t69 -132.5q55 26 89.5 44.5t76.5 47.5t66 57t40.5 67.5t16.5 84.5q0 72 -46.5 119t-127.5 47q-96 0 -151.5 -59.5t-55.5 -155.5zM504 629l-10 -6q-56 -27 -94 -48.5t-76 -50.5t-60.5 -59.5t-36.5 -71t-14 -88.5q0 -105 63.5 -165t188.5 -60
q168 0 289 127q-38 57 -56 90zM1114 -2h-35q-90 0 -151 29t-113 90q-154 -144 -362 -144q-182 0 -277.5 87t-95.5 237q0 56 14 104.5t42.5 88t60 71t78.5 61t84.5 50t91.5 45.5q-35 60 -51 91.5t-33 87.5t-17 112q0 151 96.5 239t247.5 88q131 0 210 -72.5t79 -191.5
q0 -59 -22.5 -111.5t-56 -91t-86 -76.5t-96.5 -62t-104 -52l162 -279q11 -19 31 -52t23 -38q82 135 141 332h125q-73 -262 -199 -430q51 -65 97.5 -83.5t136.5 -18.5z" />
    <glyph glyph-name="uni0237.sc" horiz-adv-x="804" 
d="M96 -2h-96l23 121h73q121 0 191 30.5t103.5 89.5t55.5 169l179 911h137l-184 -950q-19 -95 -50 -160t-86 -114.5t-140.5 -73t-205.5 -23.5z" />
    <glyph glyph-name="exclam.sc" horiz-adv-x="497" 
d="M178 354l174 965h150l-215 -965h-109zM262 0h-186l30 186h187z" />
    <glyph glyph-name="exclamdown.sc" horiz-adv-x="497" 
d="M401 965l-174 -965h-149l215 965h108zM317 1319h187l-31 -186h-186z" />
    <glyph glyph-name="germandbls.sc" horiz-adv-x="2433" 
d="M106 379h138q-4 -148 79.5 -220.5t245.5 -72.5q91 0 167 27.5t127.5 92t51.5 156.5q0 85 -42.5 138.5t-143.5 81.5l-178 49q-146 40 -211.5 119t-67.5 198q-1 180 127 284.5t326 104.5q92 0 169 -24.5t133 -71t85 -119.5t23 -164h-134q5 126 -71 197.5t-221 71.5
q-126 0 -212.5 -70t-86.5 -186q0 -84 43.5 -134t146.5 -79l178 -49q150 -42 214.5 -120t64.5 -202q0 -190 -138 -301t-358 -111q-207 0 -336 104.5t-119 299.5zM1323 379h137q-4 -148 80 -220.5t246 -72.5q91 0 167 27.5t127.5 92t51.5 156.5q0 85 -42.5 138.5t-143.5 81.5
l-179 49q-146 40 -211 119t-67 198q-1 180 127 284.5t326 104.5q124 0 218 -42t146.5 -129t44.5 -208h-133q5 126 -71.5 197.5t-221.5 71.5q-126 0 -212.5 -70t-86.5 -186q0 -84 44 -134t147 -79l178 -49q149 -42 213.5 -120t64.5 -202q0 -190 -138 -301t-357 -111
q-207 0 -336 104.5t-119 299.5z" />
    <glyph glyph-name="question.sc" horiz-adv-x="1124" 
d="M578 348h-127l20 109q7 34 18.5 61t22.5 44t35.5 37.5t39 30.5t50.5 34l129 86q76 50 114 108t38 139q0 101 -71.5 166.5t-189.5 65.5q-138 0 -213.5 -80t-81.5 -231h-129q0 185 112 304t314 119q100 0 178.5 -29.5t124 -77.5t68.5 -103.5t23 -114.5q0 -127 -54.5 -209
t-162.5 -152l-113 -73q-39 -25 -49.5 -32.5t-31.5 -24.5t-26.5 -30t-13 -34.5t-12.5 -52.5zM358 0l31 186h186l-32 -186h-185z" />
    <glyph glyph-name="questiondown.sc" horiz-adv-x="1087" 
d="M578 971h127l-21 -109q-7 -34 -18.5 -61t-22.5 -44t-35.5 -37.5t-39 -30.5t-50.5 -34l-129 -86q-76 -50 -113.5 -108t-37.5 -139q0 -102 71 -167t189 -65q138 0 213.5 80t81.5 231h129q0 -185 -112 -304.5t-314 -119.5q-100 0 -178.5 29.5t-124 77.5t-68.5 104t-23 115
q0 127 54.5 209t162.5 152l113 73q39 25 49.5 32.5t31.5 24.5t26.5 30t13 34.5t12.5 52.5zM797 1319l-31 -186h-186l32 186h185z" />
    <glyph glyph-name="quotedblleft.sc" horiz-adv-x="727" 
d="M795 1319l-164 -420h-166l227 420h103zM489 1319l-163 -420h-166l229 420h100z" />
    <glyph glyph-name="space.tab" horiz-adv-x="614" 
 />
    <glyph glyph-name="quoteleft.sc" horiz-adv-x="421" 
d="M489 1319l-163 -420h-166l229 420h100z" />
    <glyph glyph-name="quoteright.sc" horiz-adv-x="421" 
d="M170 899l164 420h168l-230 -420h-102z" />
    <glyph glyph-name="Lslash.sc" horiz-adv-x="1077" 
d="M115 0l96 494l-150 -56l23 127l152 56l135 698h139l-127 -643l463 168l-25 -127l-463 -170l-82 -424h662l-25 -123h-798z" />
    <glyph glyph-name="AEacute.sc" horiz-adv-x="1845" 
d="M1081 1503l174 324h158l-221 -324h-111zM864 526l131 670h-112q-42 -72 -78 -129l-344 -541h403zM762 0l80 412h-455l-262 -414l-145 2l843 1319h1024l-22 -123h-690l-91 -465h631l-24 -121h-631l-94 -487h698l-22 -123h-840z" />
    <glyph glyph-name="Aacute.sc" horiz-adv-x="1243" 
d="M748 1475l174 323h157l-221 -323h-110zM754 1184q-79 -159 -90 -178l-261 -480h463l-84 480q-8 45 -14 89.5t-8 66.5l-2 22h-4zM954 0l-69 412h-543l-223 -412h-144l723 1319h162l238 -1319h-144z" />
    <glyph glyph-name="Abreve.sc" horiz-adv-x="1243" 
d="M754 1184q-79 -159 -90 -178l-261 -480h463l-84 480q-8 45 -14 89.5t-8 66.5l-2 22h-4zM954 0l-69 412h-543l-223 -412h-144l723 1319h162l238 -1319h-144zM825 1475q-132 0 -201 76.5t-40 232.5h108q-20 -100 18.5 -151.5t118.5 -51.5q175 0 222 203h110
q-28 -154 -120.5 -231.5t-215.5 -77.5z" />
    <glyph glyph-name="Acircumflex.sc" horiz-adv-x="1243" 
d="M938 1798l137 -323h-119l-102 225l-178 -225h-129l252 323h139zM754 1184q-79 -159 -90 -178l-261 -480h463l-84 480q-8 45 -14 89.5t-8 66.5l-2 22h-4zM954 0l-69 412h-543l-223 -412h-144l723 1319h162l238 -1319h-144z" />
    <glyph glyph-name="Adieresis.sc" horiz-adv-x="1243" 
d="M932 1516l33 172h159l-34 -172h-158zM545 1516l35 172h157l-32 -172h-160zM754 1184q-79 -159 -90 -178l-261 -480h463l-84 480q-8 45 -14 89.5t-8 66.5l-2 22h-4zM954 0l-69 412h-543l-223 -412h-144l723 1319h162l238 -1319h-144z" />
    <glyph glyph-name="Agrave.sc" horiz-adv-x="1243" 
d="M754 1184q-79 -159 -90 -178l-261 -480h463l-84 480q-8 45 -14 89.5t-8 66.5l-2 22h-4zM954 0l-69 412h-543l-223 -412h-144l723 1319h162l238 -1319h-144zM731 1798l141 -323h-108l-189 323h156z" />
    <glyph glyph-name="Amacron.sc" horiz-adv-x="1243" 
d="M754 1184q-79 -159 -90 -178l-261 -480h463l-84 480q-8 45 -14 89.5t-8 66.5l-2 22h-4zM954 0l-69 412h-543l-223 -412h-144l723 1319h162l238 -1319h-144zM543 1524l22 116h555l-22 -116h-555z" />
    <glyph glyph-name="Aogonek.sc" horiz-adv-x="1243" 
d="M754 1184q-79 -159 -90 -178l-261 -480h463l-84 480q-8 45 -14 89.5t-8 66.5l-2 22h-4zM1047 -283l-21 -102h-29q-103 0 -162 39t-59 119q0 69 55 127t142 100h-19l-69 412h-543l-223 -412h-144l723 1319h162l238 -1319q-185 -100 -185 -199q0 -84 134 -84z" />
    <glyph glyph-name="Aring.sc" horiz-adv-x="1243" 
d="M838 1479q-91 1 -144 54t-53 138q0 97 60.5 159t158.5 62q93 0 147 -53.5t54 -138.5q0 -101 -61.5 -161t-161.5 -60zM858 1815q-55 0 -87 -39.5t-32 -102.5q0 -52 28 -83t79 -31q52 0 84.5 37.5t32.5 101.5q0 50 -27.5 83t-77.5 34zM754 1184q-79 -159 -90 -178
l-261 -480h463l-84 480q-8 45 -14 89.5t-8 66.5l-2 22h-4zM954 0l-69 412h-543l-223 -412h-144l723 1319h162l238 -1319h-144z" />
    <glyph glyph-name="uni01FA.sc" horiz-adv-x="1243" 
d="M838 1479q-91 1 -144 54t-53 138q0 97 60.5 159t158.5 62q93 0 147 -53.5t54 -138.5q0 -101 -61.5 -161t-161.5 -60zM858 1815q-55 0 -87 -39.5t-32 -102.5q0 -52 28 -83t79 -31q52 0 84.5 37.5t32.5 101.5q0 50 -27.5 83t-77.5 34zM754 1184q-79 -159 -90 -178
l-261 -480h463l-84 480q-8 45 -14 89.5t-8 66.5l-2 22h-4zM954 0l-69 412h-543l-223 -412h-144l723 1319h162l238 -1319h-144zM854 2015l186 273h164l-235 -273h-115z" />
    <glyph glyph-name="Atilde.sc" horiz-adv-x="1243" 
d="M754 1184q-79 -159 -90 -178l-261 -480h463l-84 480q-8 45 -14 89.5t-8 66.5l-2 22h-4zM954 0l-69 412h-543l-223 -412h-144l723 1319h162l238 -1319h-144zM479 1470q8 112 60 183t159 71q43 0 86.5 -21.5t73 -47t63.5 -47t62 -21.5q87 0 100 142h107q-4 -53 -17.5 -96.5
t-38.5 -80t-66.5 -57t-96.5 -20.5q-43 0 -87 21.5t-73.5 47t-63.5 47t-61 21.5q-86 0 -102 -142h-105z" />
    <glyph glyph-name="Cacute.sc" horiz-adv-x="1331" 
d="M815 1475l174 323h158l-221 -323h-111zM1272 930h-137q6 143 -75 218t-220 77q-94 0 -176 -32.5t-141.5 -89t-105.5 -130t-74 -157.5t-42 -167.5t-14 -163.5q0 -85 21.5 -155.5t65 -125.5t116.5 -85.5t169 -30.5q155 0 261 83.5t137 221.5h137q-37 -183 -181.5 -301.5
t-359.5 -118.5q-237 0 -372.5 136.5t-135.5 379.5q0 130 30 254.5t90.5 232t143.5 189t196 128t241 46.5q198 0 317 -111.5t109 -297.5z" />
    <glyph glyph-name="Ccaron.sc" horiz-adv-x="1331" 
d="M813 1475l-137 323h119l102 -225l178 225h129l-252 -323h-139zM1272 930h-137q6 143 -75 218t-220 77q-94 0 -176 -32.5t-141.5 -89t-105.5 -130t-74 -157.5t-42 -167.5t-14 -163.5q0 -85 21.5 -155.5t65 -125.5t116.5 -85.5t169 -30.5q155 0 261 83.5t137 221.5h137
q-37 -183 -181.5 -301.5t-359.5 -118.5q-237 0 -372.5 136.5t-135.5 379.5q0 130 30 254.5t90.5 232t143.5 189t196 128t241 46.5q198 0 317 -111.5t109 -297.5z" />
    <glyph glyph-name="Ccedilla.sc" horiz-adv-x="1331" 
d="M561 -416q-66 0 -108 32.5t-39 96.5h102q3 -49 57 -49q36 0 59 25t23 67q0 31 -15.5 47.5t-43.5 16.5q-29 0 -59 -23h-101l113 185q-191 28 -297.5 160t-106.5 347q0 130 30 254.5t90.5 232t143.5 189t196 128t241 46.5q198 0 317 -111.5t109 -297.5h-137q6 143 -75 218
t-220 77q-94 0 -176 -32.5t-141.5 -89t-105.5 -130t-74 -157.5t-42 -167.5t-14 -163.5q0 -85 21.5 -155.5t65 -125.5t116.5 -85.5t169 -30.5q155 0 261 83.5t137 221.5h137q-37 -183 -181.5 -301.5t-359.5 -118.5h-22l-64 -100h4q27 18 76 18q52 0 82.5 -31.5t30.5 -90.5
q0 -76 -51.5 -130.5t-147.5 -54.5z" />
    <glyph glyph-name="Ccircumflex.sc" horiz-adv-x="1331" 
d="M1006 1798l137 -323h-119l-102 225l-179 -225h-129l252 323h140zM1272 930h-137q6 143 -75 218t-220 77q-94 0 -176 -32.5t-141.5 -89t-105.5 -130t-74 -157.5t-42 -167.5t-14 -163.5q0 -85 21.5 -155.5t65 -125.5t116.5 -85.5t169 -30.5q155 0 261 83.5t137 221.5h137
q-37 -183 -181.5 -301.5t-359.5 -118.5q-237 0 -372.5 136.5t-135.5 379.5q0 130 30 254.5t90.5 232t143.5 189t196 128t241 46.5q198 0 317 -111.5t109 -297.5z" />
    <glyph glyph-name="Cdotaccent.sc" horiz-adv-x="1331" 
d="M1272 930h-137q6 143 -75 218t-220 77q-94 0 -176 -32.5t-141.5 -89t-105.5 -130t-74 -157.5t-42 -167.5t-14 -163.5q0 -85 21.5 -155.5t65 -125.5t116.5 -85.5t169 -30.5q155 0 261 83.5t137 221.5h137q-37 -183 -181.5 -301.5t-359.5 -118.5q-237 0 -372.5 136.5
t-135.5 379.5q0 130 30 254.5t90.5 232t143.5 189t196 128t241 46.5q198 0 317 -111.5t109 -297.5zM813 1524l31 162h151l-30 -162h-152z" />
    <glyph glyph-name="Dcaron.sc" horiz-adv-x="1386" 
d="M115 0l256 1319h372q118 0 216 -30t172 -89.5t115.5 -157t41.5 -225.5t-25.5 -244.5t-83 -222t-142.5 -182.5t-211 -122.5t-281 -45.5h-430zM272 119h301q113 0 205 34t152.5 92.5t104 129t66.5 152.5t33.5 153t10.5 139q0 196 -111.5 288.5t-308.5 92.5h-238zM731 1475
l-137 323h119l102 -225l178 225h129l-252 -323h-139z" />
    <glyph glyph-name="Eacute.sc" horiz-adv-x="1198" 
d="M752 1475l174 323h157l-221 -323h-110zM115 0l256 1319h829l-24 -121h-691l-90 -469h631l-22 -119h-633l-95 -489h701l-25 -121h-837z" />
    <glyph glyph-name="Ecaron.sc" horiz-adv-x="1198" 
d="M750 1475l-138 323h119l103 -225l178 225h129l-252 -323h-139zM115 0l256 1319h829l-24 -121h-691l-90 -469h631l-22 -119h-633l-95 -489h701l-25 -121h-837z" />
    <glyph glyph-name="Ecircumflex.sc" horiz-adv-x="1198" 
d="M942 1798l137 -323h-118l-103 225l-178 -225h-129l252 323h139zM115 0l256 1319h829l-24 -121h-691l-90 -469h631l-22 -119h-633l-95 -489h701l-25 -121h-837z" />
    <glyph glyph-name="Edieresis.sc" horiz-adv-x="1198" 
d="M936 1516l33 172h159l-34 -172h-158zM549 1516l35 172h157l-32 -172h-160zM115 0l256 1319h829l-24 -121h-691l-90 -469h631l-22 -119h-633l-95 -489h701l-25 -121h-837z" />
    <glyph glyph-name="Edotaccent.sc" horiz-adv-x="1198" 
d="M750 1524l30 162h152l-31 -162h-151zM115 0l256 1319h829l-24 -121h-691l-90 -469h631l-22 -119h-633l-95 -489h701l-25 -121h-837z" />
    <glyph glyph-name="Egrave.sc" horiz-adv-x="1198" 
d="M735 1798l142 -323h-109l-188 323h155zM115 0l256 1319h829l-24 -121h-691l-90 -469h631l-22 -119h-633l-95 -489h701l-25 -121h-837z" />
    <glyph glyph-name="Emacron.sc" horiz-adv-x="1198" 
d="M547 1524l22 116h555l-22 -116h-555zM115 0l256 1319h829l-24 -121h-691l-90 -469h631l-22 -119h-633l-95 -489h701l-25 -121h-837z" />
    <glyph glyph-name="Eogonek.sc" horiz-adv-x="1198" 
d="M883 -385h-29q-103 0 -162 39t-59 119q0 69 54.5 127t141.5 100h-714l256 1319h829l-24 -121h-691l-90 -469h631l-22 -119h-633l-95 -489h701l-25 -121q-182 -98 -182 -199q0 -84 133 -84z" />
    <glyph glyph-name="Gbreve.sc" horiz-adv-x="1404" 
d="M1290 963h-135q-3 121 -88 192.5t-225 71.5q-98 0 -182 -34.5t-143 -94t-104.5 -134t-72 -159t-40 -165t-13.5 -155.5q0 -86 21 -157t63.5 -126t114.5 -85.5t167 -30.5q90 0 168.5 32.5t135 89t95 127.5t56.5 152l12 56h-393l23 114h524l-129 -657h-121l43 215h-6
q-65 -112 -174.5 -176t-251.5 -64q-239 0 -365.5 139.5t-126.5 377.5q0 80 12.5 162.5t40.5 165.5t68 158.5t99 141.5t130 114t164.5 75.5t198.5 27.5q202 0 319 -106t115 -268zM905 1475q-132 0 -201 76.5t-40 232.5h108q-20 -100 18.5 -151.5t118.5 -51.5q174 0 221 203
h111q-28 -154 -120.5 -231.5t-215.5 -77.5z" />
    <glyph glyph-name="Gcircumflex.sc" horiz-adv-x="1404" 
d="M1018 1798l137 -323h-119l-102 225l-178 -225h-129l252 323h139zM1290 963h-135q-3 121 -88 192.5t-225 71.5q-98 0 -182 -34.5t-143 -94t-104.5 -134t-72 -159t-40 -165t-13.5 -155.5q0 -86 21 -157t63.5 -126t114.5 -85.5t167 -30.5q90 0 168.5 32.5t135 89t95 127.5
t56.5 152l12 56h-393l23 114h524l-129 -657h-121l43 215h-6q-65 -112 -174.5 -176t-251.5 -64q-239 0 -365.5 139.5t-126.5 377.5q0 80 12.5 162.5t40.5 165.5t68 158.5t99 141.5t130 114t164.5 75.5t198.5 27.5q202 0 319 -106t115 -268z" />
    <glyph glyph-name="Gcommaaccent.sc" horiz-adv-x="1404" 
d="M401 -406l111 277h145l-161 -277h-95zM1290 963h-135q-3 121 -88 192.5t-225 71.5q-98 0 -182 -34.5t-143 -94t-104.5 -134t-72 -159t-40 -165t-13.5 -155.5q0 -86 21 -157t63.5 -126t114.5 -85.5t167 -30.5q90 0 168.5 32.5t135 89t95 127.5t56.5 152l12 56h-393l23 114
h524l-129 -657h-121l43 215h-6q-65 -112 -174.5 -176t-251.5 -64q-239 0 -365.5 139.5t-126.5 377.5q0 80 12.5 162.5t40.5 165.5t68 158.5t99 141.5t130 114t164.5 75.5t198.5 27.5q202 0 319 -106t115 -268z" />
    <glyph glyph-name="Gdotaccent.sc" horiz-adv-x="1404" 
d="M1290 963h-135q-3 121 -88 192.5t-225 71.5q-98 0 -182 -34.5t-143 -94t-104.5 -134t-72 -159t-40 -165t-13.5 -155.5q0 -86 21 -157t63.5 -126t114.5 -85.5t167 -30.5q90 0 168.5 32.5t135 89t95 127.5t56.5 152l12 56h-393l23 114h524l-129 -657h-121l43 215h-6
q-65 -112 -174.5 -176t-251.5 -64q-239 0 -365.5 139.5t-126.5 377.5q0 80 12.5 162.5t40.5 165.5t68 158.5t99 141.5t130 114t164.5 75.5t198.5 27.5q202 0 319 -106t115 -268zM825 1524l31 162h152l-31 -162h-152z" />
    <glyph glyph-name="Hcircumflex.sc" horiz-adv-x="1404" 
d="M1018 1798l137 -323h-119l-102 225l-178 -225h-129l252 323h139zM371 612l-119 -612h-137l256 1319h137l-115 -590h703l114 590h140l-258 -1319h-140l121 612h-702z" />
    <glyph glyph-name="Iacute.sc" horiz-adv-x="563" 
d="M408 1475l174 323h157l-221 -323h-110zM115 0l256 1319h139l-258 -1319h-137z" />
    <glyph glyph-name="questiondown.uc" horiz-adv-x="1095" 
d="M594 1147h131l-27 -148q-22 -108 -55 -155t-137 -115l-115 -74q-67 -44 -107 -83t-67 -102.5t-27 -145.5q0 -125 77 -198t210 -73q167 0 260 104t105 289h139q-6 -109 -41 -201t-97 -162t-157.5 -109.5t-216.5 -39.5q-196 0 -308 107.5t-112 267.5q0 74 18 138.5
t42 107.5t66 85.5t73 65.5t80 56l100 65q83 55 105.5 86t37.5 109zM823 1567l-37 -193h-188l37 193h188z" />
    <glyph glyph-name="Icircumflex.sc" horiz-adv-x="563" 
d="M598 1798l137 -323h-119l-102 225l-178 -225h-129l252 323h139zM115 0l256 1319h139l-258 -1319h-137z" />
    <glyph glyph-name="Idieresis.sc" horiz-adv-x="563" 
d="M590 1516l33 172h159l-34 -172h-158zM203 1516l35 172h157l-33 -172h-159zM115 0l256 1319h139l-258 -1319h-137z" />
    <glyph glyph-name="Igrave.sc" horiz-adv-x="563" 
d="M115 0l256 1319h139l-258 -1319h-137zM391 1798l141 -323h-108l-188 323h155z" />
    <glyph glyph-name="Imacron.sc" horiz-adv-x="563" 
d="M115 0l256 1319h139l-258 -1319h-137zM201 1524l22 116h555l-22 -116h-555z" />
    <glyph glyph-name="Iogonek.sc" horiz-adv-x="563" 
d="M180 -385h-28q-103 0 -162.5 39t-59.5 119q0 66 51 122.5t132 98.5l258 1325h139l-258 -1319q-85 -46 -134.5 -94t-49.5 -105q0 -84 133 -84z" />
    <glyph glyph-name="Itilde.sc" horiz-adv-x="563" 
d="M115 0l256 1319h139l-258 -1319h-137zM139 1470q8 112 60 183t159 71q43 0 86.5 -21.5t73 -47t63.5 -47t62 -21.5q87 0 100 142h107q-4 -53 -17.5 -96.5t-38.5 -80t-66.5 -57t-96.5 -20.5q-43 0 -87 21.5t-73.5 47t-63.5 47t-61 21.5q-86 0 -102 -142h-105z" />
    <glyph glyph-name="Jcircumflex.sc" horiz-adv-x="804" 
d="M852 1798l137 -323h-119l-102 225l-178 -225h-129l252 323h139zM96 -2h-96l23 121h73q121 0 191 30.5t103.5 89.5t55.5 169l179 911h137l-184 -950q-19 -95 -50 -160t-86 -114.5t-140.5 -73t-205.5 -23.5z" />
    <glyph glyph-name="Kcommaaccent.sc" horiz-adv-x="1259" 
d="M397 -406l111 277h145l-161 -277h-95zM336 426l-84 -426h-137l256 1319h139l-139 -713l774 713h178l-614 -563l415 -756h-151l-371 670z" />
    <glyph glyph-name="Lacute.sc" horiz-adv-x="1077" 
d="M115 0l256 1319h139l-234 -1196h662l-25 -123h-798zM432 1526l174 323h158l-221 -323h-111z" />
    <glyph glyph-name="Lcaron.sc" horiz-adv-x="1077" 
d="M115 0l256 1319h139l-234 -1196h662l-25 -123h-798zM657 983l95 336h133l-137 -336h-91z" />
    <glyph glyph-name="Lcommaaccent.sc" horiz-adv-x="1077" 
d="M115 0l256 1319h139l-234 -1196h662l-25 -123h-798zM328 -406l110 277h146l-162 -277h-94z" />
    <glyph glyph-name="Nacute.sc" horiz-adv-x="1404" 
d="M829 1475l175 323h157l-221 -323h-111zM115 0l256 1319h157l420 -991q15 -36 26.5 -69.5t15.5 -49.5l5 -16h4l224 1126h129l-258 -1319h-152l-426 1010q-14 33 -24.5 63.5t-14.5 44.5l-4 15h-6l-221 -1133h-131z" />
    <glyph glyph-name="Ncaron.sc" horiz-adv-x="1404" 
d="M825 1475l-137 323h119l102 -225l178 225h130l-252 -323h-140zM115 0l256 1319h157l420 -991q15 -36 26.5 -69.5t15.5 -49.5l5 -16h4l224 1126h129l-258 -1319h-152l-426 1010q-14 33 -24.5 63.5t-14.5 44.5l-4 15h-6l-221 -1133h-131z" />
    <glyph glyph-name="Ncommaaccent.sc" horiz-adv-x="1404" 
d="M401 -406l111 277h145l-161 -277h-95zM115 0l256 1319h157l420 -991q15 -36 26.5 -69.5t15.5 -49.5l5 -16h4l224 1126h129l-258 -1319h-152l-426 1010q-14 33 -24.5 63.5t-14.5 44.5l-4 15h-6l-221 -1133h-131z" />
    <glyph glyph-name="Ntilde.sc" horiz-adv-x="1404" 
d="M115 0l256 1319h157l420 -991q15 -36 26.5 -69.5t15.5 -49.5l5 -16h4l224 1126h129l-258 -1319h-152l-426 1010q-14 33 -24.5 63.5t-14.5 44.5l-4 15h-6l-221 -1133h-131zM559 1470q8 112 60 183t159 71q43 0 86.5 -21.5t73 -47t63.5 -47t62 -21.5q87 0 100 142h107
q-4 -53 -17.5 -96.5t-38.5 -80t-66.5 -57t-96.5 -20.5q-43 0 -87 21.5t-73.5 47t-63.5 47t-61 21.5q-86 0 -102 -142h-105z" />
    <glyph glyph-name="Oacute.sc" horiz-adv-x="1431" 
d="M152 479q0 126 26.5 247.5t82.5 232.5t134.5 195t190.5 133.5t243 49.5q239 0 372.5 -135t133.5 -368q0 -125 -26 -246.5t-81.5 -233t-134 -195.5t-191 -134t-245.5 -50q-238 0 -371.5 135.5t-133.5 368.5zM1192 834q0 175 -93 283t-280 108q-107 0 -196.5 -48
t-148.5 -125.5t-100.5 -177.5t-60 -200.5t-18.5 -198.5q0 -82 21 -151t64.5 -123t117 -84.5t170.5 -30.5q106 0 195.5 49t149 127t101 178t60 200t18.5 194zM840 1475l174 323h157l-221 -323h-110z" />
    <glyph glyph-name="Obreve.sc" horiz-adv-x="1431" 
d="M152 479q0 126 26.5 247.5t82.5 232.5t134.5 195t190.5 133.5t243 49.5q239 0 372.5 -135t133.5 -368q0 -125 -26 -246.5t-81.5 -233t-134 -195.5t-191 -134t-245.5 -50q-238 0 -371.5 135.5t-133.5 368.5zM1192 834q0 175 -93 283t-280 108q-107 0 -196.5 -48
t-148.5 -125.5t-100.5 -177.5t-60 -200.5t-18.5 -198.5q0 -82 21 -151t64.5 -123t117 -84.5t170.5 -30.5q106 0 195.5 49t149 127t101 178t60 200t18.5 194zM918 1475q-132 0 -201.5 76.5t-40.5 232.5h108q-19 -100 19.5 -151.5t118.5 -51.5q174 0 221 203h110
q-28 -154 -120 -231.5t-215 -77.5z" />
    <glyph glyph-name="Ocircumflex.sc" horiz-adv-x="1431" 
d="M1030 1798l137 -323h-118l-103 225l-178 -225h-129l252 323h139zM152 479q0 126 26.5 247.5t82.5 232.5t134.5 195t190.5 133.5t243 49.5q239 0 372.5 -135t133.5 -368q0 -125 -26 -246.5t-81.5 -233t-134 -195.5t-191 -134t-245.5 -50q-238 0 -371.5 135.5t-133.5 368.5
zM1192 834q0 175 -93 283t-280 108q-107 0 -196.5 -48t-148.5 -125.5t-100.5 -177.5t-60 -200.5t-18.5 -198.5q0 -82 21 -151t64.5 -123t117 -84.5t170.5 -30.5q106 0 195.5 49t149 127t101 178t60 200t18.5 194z" />
    <glyph glyph-name="Odieresis.sc" horiz-adv-x="1431" 
d="M1024 1516l33 172h160l-35 -172h-158zM637 1516l35 172h157l-32 -172h-160zM152 479q0 126 26.5 247.5t82.5 232.5t134.5 195t190.5 133.5t243 49.5q239 0 372.5 -135t133.5 -368q0 -125 -26 -246.5t-81.5 -233t-134 -195.5t-191 -134t-245.5 -50q-238 0 -371.5 135.5
t-133.5 368.5zM1192 834q0 175 -93 283t-280 108q-107 0 -196.5 -48t-148.5 -125.5t-100.5 -177.5t-60 -200.5t-18.5 -198.5q0 -82 21 -151t64.5 -123t117 -84.5t170.5 -30.5q106 0 195.5 49t149 127t101 178t60 200t18.5 194z" />
    <glyph glyph-name="Ograve.sc" horiz-adv-x="1431" 
d="M152 479q0 126 26.5 247.5t82.5 232.5t134.5 195t190.5 133.5t243 49.5q239 0 372.5 -135t133.5 -368q0 -125 -26 -246.5t-81.5 -233t-134 -195.5t-191 -134t-245.5 -50q-238 0 -371.5 135.5t-133.5 368.5zM1192 834q0 175 -93 283t-280 108q-107 0 -196.5 -48
t-148.5 -125.5t-100.5 -177.5t-60 -200.5t-18.5 -198.5q0 -82 21 -151t64.5 -123t117 -84.5t170.5 -30.5q106 0 195.5 49t149 127t101 178t60 200t18.5 194zM823 1798l142 -323h-109l-188 323h155z" />
    <glyph glyph-name="Ohungarumlaut.sc" horiz-adv-x="1431" 
d="M152 479q0 126 26.5 247.5t82.5 232.5t134.5 195t190.5 133.5t243 49.5q239 0 372.5 -135t133.5 -368q0 -125 -26 -246.5t-81.5 -233t-134 -195.5t-191 -134t-245.5 -50q-238 0 -371.5 135.5t-133.5 368.5zM1192 834q0 175 -93 283t-280 108q-107 0 -196.5 -48
t-148.5 -125.5t-100.5 -177.5t-60 -200.5t-18.5 -198.5q0 -82 21 -151t64.5 -123t117 -84.5t170.5 -30.5q106 0 195.5 49t149 127t101 178t60 200t18.5 194zM958 1475l189 323h147l-235 -323h-101zM690 1475l191 323h145l-235 -323h-101z" />
    <glyph glyph-name="Omacron.sc" horiz-adv-x="1431" 
d="M152 479q0 126 26.5 247.5t82.5 232.5t134.5 195t190.5 133.5t243 49.5q239 0 372.5 -135t133.5 -368q0 -125 -26 -246.5t-81.5 -233t-134 -195.5t-191 -134t-245.5 -50q-238 0 -371.5 135.5t-133.5 368.5zM1192 834q0 175 -93 283t-280 108q-107 0 -196.5 -48
t-148.5 -125.5t-100.5 -177.5t-60 -200.5t-18.5 -198.5q0 -82 21 -151t64.5 -123t117 -84.5t170.5 -30.5q106 0 195.5 49t149 127t101 178t60 200t18.5 194zM635 1524l22 116h555l-22 -116h-555z" />
    <glyph glyph-name="Oslashacute.sc" horiz-adv-x="1431" 
d="M817 1475l174 323h158l-221 -323h-111zM823 1227q-108 0 -198 -48t-150 -125.5t-102 -177.5t-61 -202.5t-19 -202.5q0 -107 33 -186l764 848q-94 94 -267 94zM666 86q89 0 167 34t134.5 92.5t100.5 133t71 159t41 168t14 161.5q0 126 -45 215l-768 -852q96 -111 285 -111
zM1335 834q0 -125 -26 -246.5t-81.5 -233t-134 -195.5t-191 -134t-245.5 -50q-229 0 -362 127l-131 -145h-133l200 221q-79 122 -79 301q0 126 26.5 247.5t82.5 232.5t134.5 195t190.5 133.5t243 49.5q216 0 347 -110l122 137h136l-191 -211q92 -131 92 -319z" />
    <glyph glyph-name="Otilde.sc" horiz-adv-x="1431" 
d="M152 479q0 126 26.5 247.5t82.5 232.5t134.5 195t190.5 133.5t243 49.5q239 0 372.5 -135t133.5 -368q0 -125 -26 -246.5t-81.5 -233t-134 -195.5t-191 -134t-245.5 -50q-238 0 -371.5 135.5t-133.5 368.5zM1192 834q0 175 -93 283t-280 108q-107 0 -196.5 -48
t-148.5 -125.5t-100.5 -177.5t-60 -200.5t-18.5 -198.5q0 -82 21 -151t64.5 -123t117 -84.5t170.5 -30.5q106 0 195.5 49t149 127t101 178t60 200t18.5 194zM571 1470q8 112 60.5 183t159.5 71q43 0 86.5 -21.5t72.5 -47t63 -47t62 -21.5q88 0 101 142h106
q-4 -53 -17.5 -96.5t-38.5 -80t-66.5 -57t-96.5 -20.5q-43 0 -87 21.5t-73.5 47t-63.5 47t-61 21.5q-86 0 -102 -142h-105z" />
    <glyph glyph-name="Racute.sc" horiz-adv-x="1251" 
d="M698 1475l174 323h158l-221 -323h-111zM383 670h342q141 0 223 83t82 228q0 111 -68.5 167t-195.5 56h-281zM358 555l-106 -555h-137l256 1319h395q185 0 289 -74q116 -83 116 -260q0 -156 -85 -267t-244 -147v-4l219 -567h-141l-215 555h-347z" />
    <glyph glyph-name="Rcaron.sc" horiz-adv-x="1251" 
d="M696 1475l-137 323h119l102 -225l178 225h129l-251 -323h-140zM383 670h342q141 0 223 83t82 228q0 111 -68.5 167t-195.5 56h-281zM358 555l-106 -555h-137l256 1319h395q185 0 289 -74q116 -83 116 -260q0 -156 -85 -267t-244 -147v-4l219 -567h-141l-215 555h-347z
" />
    <glyph glyph-name="Rcommaaccent.sc" horiz-adv-x="1251" 
d="M377 -406l110 277h146l-162 -277h-94zM383 670h342q141 0 223 83t82 228q0 111 -68.5 167t-195.5 56h-281zM358 555l-106 -555h-137l256 1319h395q185 0 289 -74q116 -83 116 -260q0 -156 -85 -267t-244 -147v-4l219 -567h-141l-215 555h-347z" />
    <glyph glyph-name="Sacute.sc" horiz-adv-x="1216" 
d="M717 1475l174 323h158l-222 -323h-110zM106 379h138q-4 -148 79.5 -220.5t245.5 -72.5q91 0 167 27.5t127.5 92t51.5 156.5q0 85 -42.5 138.5t-143.5 81.5l-178 49q-146 40 -211.5 119t-67.5 198q-1 180 127 284.5t326 104.5q92 0 169 -24.5t133 -71t85 -119.5t23 -164
h-134q5 126 -71 197.5t-221 71.5q-126 0 -212.5 -70t-86.5 -186q0 -84 43.5 -134t146.5 -79l178 -49q150 -42 214.5 -120t64.5 -202q0 -190 -138 -301t-358 -111q-207 0 -336 104.5t-119 299.5z" />
    <glyph glyph-name="Scaron.sc" horiz-adv-x="1216" 
d="M713 1475l-138 323h119l103 -225l178 225h129l-252 -323h-139zM106 379h138q-4 -148 79.5 -220.5t245.5 -72.5q91 0 167 27.5t127.5 92t51.5 156.5q0 85 -42.5 138.5t-143.5 81.5l-178 49q-146 40 -211.5 119t-67.5 198q-1 180 127 284.5t326 104.5q92 0 169 -24.5
t133 -71t85 -119.5t23 -164h-134q5 126 -71 197.5t-221 71.5q-126 0 -212.5 -70t-86.5 -186q0 -84 43.5 -134t146.5 -79l178 -49q150 -42 214.5 -120t64.5 -202q0 -190 -138 -301t-358 -111q-207 0 -336 104.5t-119 299.5z" />
    <glyph glyph-name="Scedilla.sc" horiz-adv-x="1216" 
d="M469 -416q-66 0 -108 32.5t-39 96.5h102q3 -49 57 -49q36 0 59 25t23 67q0 31 -15.5 47.5t-43.5 16.5q-30 0 -60 -23h-100l115 187q-167 25 -264.5 125t-88.5 270h138q-4 -148 79.5 -220.5t245.5 -72.5q91 0 167 27.5t127.5 92t51.5 156.5q0 85 -42.5 138.5t-143.5 81.5
l-178 49q-146 40 -211.5 119t-67.5 198q-1 180 127 284.5t326 104.5q92 0 169 -24.5t133 -71t85 -119.5t23 -164h-134q5 126 -71 197.5t-221 71.5q-126 0 -212.5 -70t-86.5 -186q0 -84 43.5 -134t146.5 -79l178 -49q150 -42 214.5 -120t64.5 -202q0 -190 -138 -301
t-358 -111h-20l-66 -102h4q27 18 76 18q52 0 82.5 -31.5t30.5 -90.5q0 -76 -51.5 -130.5t-147.5 -54.5z" />
    <glyph glyph-name="Scircumflex.sc" horiz-adv-x="1216" 
d="M907 1798l137 -323h-118l-103 225l-178 -225h-129l252 323h139zM106 379h138q-4 -148 79.5 -220.5t245.5 -72.5q91 0 167 27.5t127.5 92t51.5 156.5q0 85 -42.5 138.5t-143.5 81.5l-178 49q-146 40 -211.5 119t-67.5 198q-1 180 127 284.5t326 104.5q92 0 169 -24.5
t133 -71t85 -119.5t23 -164h-134q5 126 -71 197.5t-221 71.5q-126 0 -212.5 -70t-86.5 -186q0 -84 43.5 -134t146.5 -79l178 -49q150 -42 214.5 -120t64.5 -202q0 -190 -138 -301t-358 -111q-207 0 -336 104.5t-119 299.5z" />
    <glyph glyph-name="Scommaaccent.sc" horiz-adv-x="1216" 
d="M328 -406l110 277h146l-162 -277h-94zM106 379h138q-4 -148 79.5 -220.5t245.5 -72.5q91 0 167 27.5t127.5 92t51.5 156.5q0 85 -42.5 138.5t-143.5 81.5l-178 49q-146 40 -211.5 119t-67.5 198q-1 180 127 284.5t326 104.5q92 0 169 -24.5t133 -71t85 -119.5t23 -164
h-134q5 126 -71 197.5t-221 71.5q-126 0 -212.5 -70t-86.5 -186q0 -84 43.5 -134t146.5 -79l178 -49q150 -42 214.5 -120t64.5 -202q0 -190 -138 -301t-358 -111q-207 0 -336 104.5t-119 299.5z" />
    <glyph glyph-name="Tcaron.sc" horiz-adv-x="1124" 
d="M762 1198l-234 -1198h-139l234 1198h-445l23 121h1032l-23 -121h-448zM682 1475l-137 323h119l102 -225l178 225h129l-252 -323h-139z" />
    <glyph glyph-name="Tcommaaccent.sc" horiz-adv-x="1124" 
d="M762 1198l-234 -1198h-139l234 1198h-445l23 121h1032l-23 -121h-448zM258 -406l111 277h145l-162 -277h-94z" />
    <glyph glyph-name="Uacute.sc" horiz-adv-x="1335" 
d="M788 1475l175 323h157l-221 -323h-111zM182 492l160 827h139l-149 -770q-15 -79 -21.5 -130.5t-1 -113t30.5 -100.5q69 -115 264 -115q190 0 297 113q36 38 62.5 98.5t36.5 102.5t26 122l156 793h137l-176 -897q-88 -449 -547 -449q-91 0 -163.5 18t-131 56.5t-91 99
t-42.5 146.5t14 199z" />
    <glyph glyph-name="Ubreve.sc" horiz-adv-x="1335" 
d="M182 492l160 827h139l-149 -770q-15 -79 -21.5 -130.5t-1 -113t30.5 -100.5q69 -115 264 -115q190 0 297 113q36 38 62.5 98.5t36.5 102.5t26 122l156 793h137l-176 -897q-88 -449 -547 -449q-91 0 -163.5 18t-131 56.5t-91 99t-42.5 146.5t14 199zM866 1475
q-132 0 -201 76.5t-40 232.5h108q-20 -100 18.5 -151.5t118.5 -51.5q175 0 222 203h110q-28 -154 -120.5 -231.5t-215.5 -77.5z" />
    <glyph glyph-name="Ucircumflex.sc" horiz-adv-x="1335" 
d="M979 1798l137 -323h-119l-102 225l-178 -225h-129l252 323h139zM182 492l160 827h139l-149 -770q-15 -79 -21.5 -130.5t-1 -113t30.5 -100.5q69 -115 264 -115q190 0 297 113q36 38 62.5 98.5t36.5 102.5t26 122l156 793h137l-176 -897q-88 -449 -547 -449
q-91 0 -163.5 18t-131 56.5t-91 99t-42.5 146.5t14 199z" />
    <glyph glyph-name="Udieresis.sc" horiz-adv-x="1335" 
d="M971 1516l33 172h159l-35 -172h-157zM584 1516l34 172h158l-33 -172h-159zM182 492l160 827h139l-149 -770q-15 -79 -21.5 -130.5t-1 -113t30.5 -100.5q69 -115 264 -115q190 0 297 113q36 38 62.5 98.5t36.5 102.5t26 122l156 793h137l-176 -897q-88 -449 -547 -449
q-91 0 -163.5 18t-131 56.5t-91 99t-42.5 146.5t14 199z" />
    <glyph glyph-name="Ugrave.sc" horiz-adv-x="1335" 
d="M772 1798l141 -323h-108l-189 323h156zM182 492l160 827h139l-149 -770q-15 -79 -21.5 -130.5t-1 -113t30.5 -100.5q69 -115 264 -115q190 0 297 113q36 38 62.5 98.5t36.5 102.5t26 122l156 793h137l-176 -897q-88 -449 -547 -449q-91 0 -163.5 18t-131 56.5t-91 99
t-42.5 146.5t14 199z" />
    <glyph glyph-name="Uhungarumlaut.sc" horiz-adv-x="1335" 
d="M907 1475l189 323h147l-235 -323h-101zM639 1475l190 323h146l-236 -323h-100zM182 492l160 827h139l-149 -770q-15 -79 -21.5 -130.5t-1 -113t30.5 -100.5q69 -115 264 -115q190 0 297 113q36 38 62.5 98.5t36.5 102.5t26 122l156 793h137l-176 -897q-88 -449 -547 -449
q-91 0 -163.5 18t-131 56.5t-91 99t-42.5 146.5t14 199z" />
    <glyph glyph-name="Umacron.sc" horiz-adv-x="1335" 
d="M584 1524l22 116h555l-22 -116h-555zM182 492l160 827h139l-149 -770q-15 -79 -21.5 -130.5t-1 -113t30.5 -100.5q69 -115 264 -115q190 0 297 113q36 38 62.5 98.5t36.5 102.5t26 122l156 793h137l-176 -897q-88 -449 -547 -449q-91 0 -163.5 18t-131 56.5t-91 99
t-42.5 146.5t14 199z" />
    <glyph glyph-name="Uogonek.sc" horiz-adv-x="1335" 
d="M614 -385h-28q-103 0 -162 39t-59 119q0 113 153 198v6q-97 10 -168 43t-119.5 95.5t-60 155t11.5 221.5l160 827h139l-149 -770q-15 -79 -21.5 -130.5t-1 -113t30.5 -100.5q69 -115 264 -115q190 0 297 113q36 38 62.5 98.5t36.5 102.5t26 122l156 793h137l-176 -897
q-73 -377 -404 -436q-67 -12 -115.5 -32.5t-73 -45.5t-35.5 -48.5t-11 -47.5q0 -53 33 -74t98 -21z" />
    <glyph glyph-name="Uring.sc" horiz-adv-x="1335" 
d="M879 1479q-91 1 -144 54t-53 138q0 97 60.5 159t158.5 62q93 0 147 -53.5t54 -138.5q0 -101 -61.5 -161t-161.5 -60zM899 1815q-55 0 -87 -39.5t-32 -102.5q0 -52 28 -83t79 -31q52 0 84.5 37.5t32.5 101.5q0 50 -27.5 83t-77.5 34zM182 492l160 827h139l-149 -770
q-15 -79 -21.5 -130.5t-1 -113t30.5 -100.5q69 -115 264 -115q190 0 297 113q36 38 62.5 98.5t36.5 102.5t26 122l156 793h137l-176 -897q-88 -449 -547 -449q-91 0 -163.5 18t-131 56.5t-91 99t-42.5 146.5t14 199z" />
    <glyph glyph-name="Utilde.sc" horiz-adv-x="1335" 
d="M182 492l160 827h139l-149 -770q-15 -79 -21.5 -130.5t-1 -113t30.5 -100.5q69 -115 264 -115q190 0 297 113q36 38 62.5 98.5t36.5 102.5t26 122l156 793h137l-176 -897q-88 -449 -547 -449q-91 0 -163.5 18t-131 56.5t-91 99t-42.5 146.5t14 199zM520 1470
q8 112 60 183t159 71q43 0 87 -21.5t73 -47t63 -47t62 -21.5q87 0 100 142h107q-4 -53 -17.5 -96.5t-38.5 -80t-66.5 -57t-96.5 -20.5q-43 0 -87 21.5t-73.5 47t-63.5 47t-61 21.5q-86 0 -102 -142h-105z" />
    <glyph glyph-name="Wacute.sc" horiz-adv-x="1767" 
d="M459 0h-148l-112 1319h135l78 -959q4 -50 5 -96t0 -67l-1 -21h4q22 72 69 172l459 971h158l78 -957q2 -32 3.5 -63t2 -52.5t0.5 -38.5v-26v-8h4q27 76 72 174l456 971h140l-623 -1319h-154l-77 940q-5 64 -8 117.5t-3 75.5v22h-6q-23 -76 -86 -209zM1004 1503l174 324
h157l-221 -324h-110z" />
    <glyph glyph-name="Wcircumflex.sc" horiz-adv-x="1767" 
d="M1184 1798l137 -323h-119l-102 225l-178 -225h-129l251 323h140zM459 0h-148l-112 1319h135l78 -959q4 -50 5 -96t0 -67l-1 -21h4q22 72 69 172l459 971h158l78 -957q2 -32 3.5 -63t2 -52.5t0.5 -38.5v-26v-8h4q27 76 72 174l456 971h140l-623 -1319h-154l-77 940
q-5 64 -8 117.5t-3 75.5v22h-6q-23 -76 -86 -209z" />
    <glyph glyph-name="Wdieresis.sc" horiz-adv-x="1767" 
d="M1178 1516l32 172h160l-35 -172h-157zM791 1516l34 172h158l-33 -172h-159zM459 0h-148l-112 1319h135l78 -959q4 -50 5 -96t0 -67l-1 -21h4q22 72 69 172l459 971h158l78 -957q2 -32 3.5 -63t2 -52.5t0.5 -38.5v-26v-8h4q27 76 72 174l456 971h140l-623 -1319h-154
l-77 940q-5 64 -8 117.5t-3 75.5v22h-6q-23 -76 -86 -209z" />
    <glyph glyph-name="Wgrave.sc" horiz-adv-x="1767" 
d="M459 0h-148l-112 1319h135l78 -959q4 -50 5 -96t0 -67l-1 -21h4q22 72 69 172l459 971h158l78 -957q2 -32 3.5 -63t2 -52.5t0.5 -38.5v-26v-8h4q27 76 72 174l456 971h140l-623 -1319h-154l-77 940q-5 64 -8 117.5t-3 75.5v22h-6q-23 -76 -86 -209zM967 1798l141 -323
h-109l-188 323h156z" />
    <glyph glyph-name="Yacute.sc" horiz-adv-x="1128" 
d="M678 1475l174 323h158l-222 -323h-110zM383 0l115 588l-312 731h146l254 -617h4l495 617h150l-600 -741l-115 -578h-137z" />
    <glyph glyph-name="Ycircumflex.sc" horiz-adv-x="1128" 
d="M868 1798l138 -323h-119l-103 225l-178 -225h-129l252 323h139zM383 0l115 588l-312 731h146l254 -617h4l495 617h150l-600 -741l-115 -578h-137z" />
    <glyph glyph-name="Ydieresis.sc" horiz-adv-x="1128" 
d="M862 1516l33 172h160l-35 -172h-158zM475 1516l35 172h158l-33 -172h-160zM383 0l115 588l-312 731h146l254 -617h4l495 617h150l-600 -741l-115 -578h-137z" />
    <glyph glyph-name="Ygrave.sc" horiz-adv-x="1128" 
d="M383 0l115 588l-312 731h146l254 -617h4l495 617h150l-600 -741l-115 -578h-137zM662 1798l141 -323h-109l-188 323h156z" />
    <glyph glyph-name="Zacute.sc" horiz-adv-x="1173" 
d="M715 1475l174 323h158l-222 -323h-110zM283 1200l24 119h912l-19 -100l-983 -1098h780l-22 -121h-952l18 104l981 1096h-739z" />
    <glyph glyph-name="Zcaron.sc" horiz-adv-x="1173" 
d="M713 1475l-138 323h119l103 -225l178 225h129l-252 -323h-139zM283 1200l24 119h912l-19 -100l-983 -1098h780l-22 -121h-952l18 104l981 1096h-739z" />
    <glyph glyph-name="Zdotaccent.sc" horiz-adv-x="1173" 
d="M283 1200l24 119h912l-19 -100l-983 -1098h780l-22 -121h-952l18 104l981 1096h-739zM713 1524l30 162h152l-31 -162h-151z" />
    <glyph glyph-name="Ldot.sc" horiz-adv-x="1077" 
d="M754 590l32 172h168l-32 -172h-168zM115 0l256 1319h139l-234 -1196h662l-25 -123h-798z" />
    <glyph glyph-name="napostrophe.sc" horiz-adv-x="1404" 
d="M115 0l256 1319h157l420 -991q15 -36 26.5 -69.5t15.5 -49.5l5 -16h4l224 1126h129l-258 -1319h-152l-426 1010l-43 123h-6l-221 -1133h-131z" />
    <glyph glyph-name="Hbar.sc" horiz-adv-x="1404" 
d="M1096 729l51 262h-703l-51 -262h703zM371 612l-119 -612h-137l192 991h-160l21 101h158l45 227h137l-45 -227h702l45 227h140l-45 -227h155l-18 -101h-156l-194 -991h-140l121 612h-702z" />
    <glyph glyph-name="Idotaccent.sc" horiz-adv-x="563" 
d="M115 0l256 1319h139l-258 -1319h-137zM403 1552l31 162h152l-31 -162h-152z" />
    <glyph glyph-name="Ebreve.sc" horiz-adv-x="1198" 
d="M115 0l256 1319h829l-24 -121h-691l-90 -469h631l-22 -119h-633l-95 -489h701l-25 -121h-837zM827 1503q-132 0 -201 76.5t-40 232.5h108q-19 -100 19 -151t118 -51q86 0 142.5 51t79.5 151h110q-28 -154 -120.5 -231.5t-215.5 -77.5z" />
    <glyph glyph-name="yen.tab" 
d="M408 0l71 375h-407l22 110h408l39 199h-412l21 113h374l-309 721h152l268 -656h6l526 656h162l-588 -721h367l-21 -113h-409l-39 -199h414l-23 -110h-414l-71 -375h-137z" />
    <glyph glyph-name="eight.den" horiz-adv-x="833" 
d="M471 893q121 0 197 -57.5t77 -163.5q0 -85 -53.5 -146t-136.5 -82v-4q60 -16 99.5 -64.5t39.5 -121.5q0 -124 -97 -198t-249 -74q-139 0 -218 60t-79 171q0 93 59.5 156.5t159.5 85.5v4q-51 21 -82.5 67t-31.5 107q0 114 90.5 187t224.5 73zM469 801q-89 0 -138.5 -49.5
t-49.5 -124.5q0 -64 43 -99.5t110 -35.5q86 0 136.5 47.5t50.5 126.5q0 64 -44.5 99.5t-107.5 35.5zM356 74q100 0 156.5 51t56.5 133q0 71 -51.5 107t-128.5 36q-101 0 -157 -50.5t-56 -135.5q0 -69 52 -105t128 -36z" />
    <glyph glyph-name="five.den" horiz-adv-x="804" 
d="M561 322q-2 76 -41.5 117.5t-116.5 41.5q-117 0 -182 -78h-106l129 478h491l-22 -103h-389l-74 -272h4q76 72 192 72q110 0 175 -66t65 -174q3 -153 -97 -254.5t-265 -101.5q-137 0 -210 67.5t-67 186.5h121q-3 -75 42.5 -116.5t121.5 -41.5q103 0 166 72t63 172z" />
    <glyph glyph-name="four.den" horiz-adv-x="811" 
d="M166 307h315l92 455h-4q-26 -53 -94 -125zM698 213h-123l-43 -213h-116l43 213h-441l17 90l538 578h136l-115 -570h123z" />
    <glyph glyph-name="nine.den" horiz-adv-x="837" 
d="M442 799q-96 0 -154.5 -69t-58.5 -157q2 -75 43.5 -120t118.5 -45q98 0 156.5 66t58.5 155q-2 75 -45 122.5t-119 47.5zM319 -18q-118 0 -187.5 55.5t-72.5 161.5h117q7 -60 45 -91.5t103 -31.5q207 0 276 360h-4q-38 -57 -100 -90t-134 -33q-113 0 -183 66t-70 178
q-2 143 95.5 239.5t244.5 96.5q148 0 215 -86.5t69 -231.5q1 -69 -11 -144t-42.5 -157t-76 -146t-119.5 -105.5t-165 -40.5z" />
    <glyph glyph-name="one.den" horiz-adv-x="555" 
d="M145 0l127 633h-180l17 90h30q84 0 133 37q45 37 66 121h104l-176 -881h-121z" />
    <glyph glyph-name="seven.den" horiz-adv-x="718" 
d="M35 0l516 776h-457l21 105h602l-15 -76l-534 -805h-133z" />
    <glyph glyph-name="six.den" horiz-adv-x="825" 
d="M766 682h-121q-8 55 -45 86t-102 31q-106 0 -177 -94t-100 -250h4q36 52 99.5 82t134.5 30q119 0 189.5 -67.5t70.5 -177.5q0 -146 -98 -243t-246 -97q-150 0 -221.5 86t-71.5 229q0 59 9 121.5t28 131t53 128.5t79 109t111 77.5t144 28.5q124 0 191 -59t69 -152zM375 76
q99 0 158 68t59 159q0 77 -44.5 123.5t-123.5 46.5q-97 0 -156 -64.5t-59 -160.5q0 -76 44 -124t122 -48z" />
    <glyph glyph-name="three.den" horiz-adv-x="811" 
d="M393 399h-92l18 99h89q89 0 142.5 45.5t53.5 122.5q0 61 -45 97t-115 36q-78 0 -131 -42.5t-63 -129.5h-121q8 118 96.5 192t225.5 74q124 0 199 -58.5t75 -162.5q0 -87 -55 -145.5t-140 -82.5v-4q62 -16 102 -64t40 -122q0 -122 -96.5 -197t-241.5 -75t-224.5 69.5
t-72.5 196.5h117q2 -81 49 -125.5t139 -44.5q96 0 152.5 51t56.5 127q0 65 -41 104t-117 39z" />
    <glyph glyph-name="two.den" horiz-adv-x="792" 
d="M238 600h-119q10 140 101.5 216.5t228.5 76.5q118 0 190 -57.5t72 -161.5q0 -54 -17 -101.5t-52.5 -91.5t-77 -81t-103.5 -83l-283 -213v-2h451l-19 -102h-628l14 86l387 305q55 42 83 66t60.5 59.5t46 71.5t13.5 78q-2 60 -40.5 95.5t-107.5 35.5q-80 0 -134.5 -46
t-65.5 -151z" />
    <glyph glyph-name="zero.den" horiz-adv-x="888" 
d="M80 297q0 71 12.5 146.5t44 157.5t77 145.5t119.5 105t165 41.5q143 0 215.5 -87t70.5 -235q-1 -61 -10.5 -125t-29.5 -131t-54 -126t-78 -106t-107.5 -74t-137.5 -27q-142 0 -214.5 83t-72.5 232zM371 78q58 0 106.5 34.5t80.5 88t54.5 121t32.5 133t10 123.5
q0 219 -163 219q-72 0 -129 -53t-89 -133.5t-48.5 -163t-16.5 -154.5q0 -40 6.5 -74.5t23 -68t50.5 -53t82 -19.5z" />
    <glyph glyph-name="zero.num" horiz-adv-x="888" 
d="M213 983q0 70 12.5 145.5t44 157.5t77 146t119.5 105.5t165 41.5q143 0 216 -87t71 -237q-1 -74 -14.5 -150.5t-45 -156t-78 -141t-119 -100.5t-161.5 -39q-140 0 -213.5 83t-73.5 232zM504 762q71 0 128.5 51.5t89.5 130.5t49 162t17 158q0 42 -7 77.5t-24 68.5t-50 52
t-80 19q-72 0 -130 -53t-90 -133.5t-48.5 -163t-16.5 -154.5q0 -40 6.5 -74.5t23 -68t50.5 -53t82 -19.5z" />
    <glyph glyph-name="one.num" horiz-adv-x="555" 
d="M279 686l127 631h-181l17 92h30q92 0 134 37q44 36 65 121h104l-176 -881h-120z" />
    <glyph glyph-name="two.num" horiz-adv-x="792" 
d="M371 1286h-119q12 140 102.5 216.5t227.5 76.5q118 0 190 -57.5t72 -161.5q0 -55 -17 -102.5t-53 -91.5t-76 -79.5t-102 -82.5l-283 -216v-2h449l-19 -100h-628l14 86l389 303q54 42 82 66.5t60 60t45.5 71t13.5 77.5q-2 61 -40.5 97t-107.5 36q-80 0 -134.5 -46
t-65.5 -151z" />
    <glyph glyph-name="three.num" horiz-adv-x="811" 
d="M528 1085h-94l19 97h90q88 0 141 46t53 122q0 61 -45 97t-114 36q-79 0 -132 -42t-63 -128h-121q8 118 96.5 192t225.5 74q123 0 198.5 -59t75.5 -162q0 -87 -55 -145.5t-139 -82.5v-4q62 -16 101.5 -64t39.5 -124q0 -121 -96.5 -195.5t-241.5 -74.5t-224.5 69t-72.5 197
h117q6 -172 188 -172q96 0 152.5 51.5t56.5 128.5q0 65 -40.5 104t-115.5 39z" />
    <glyph glyph-name="four.num" horiz-adv-x="811" 
d="M299 993h315l93 453h-2q-29 -53 -97 -125zM831 897h-122l-43 -211h-117l43 211h-440l16 92l539 578h135l-115 -572h123z" />
    <glyph glyph-name="five.num" horiz-adv-x="804" 
d="M694 1006q-3 158 -157 161q-116 0 -183 -77h-106l129 477h491l-20 -105h-391l-74 -270h4q76 72 193 72q110 0 174.5 -66.5t64.5 -175.5q3 -152 -97 -253t-265 -101q-138 0 -210.5 66.5t-66.5 185.5h121q-3 -73 42.5 -114.5t121.5 -41.5q105 0 168 71t61 171z" />
    <glyph glyph-name="six.num" horiz-adv-x="825" 
d="M899 1368h-121q-6 54 -43.5 85.5t-103.5 31.5q-106 0 -177 -94t-100 -250h4q37 51 100.5 81.5t133.5 30.5q119 0 189.5 -68t70.5 -179q0 -145 -98 -241.5t-246 -96.5q-151 0 -222 85.5t-71 229.5q0 59 9 121.5t28 131t53 128.5t79.5 109t111.5 77.5t145 28.5
q122 0 189 -59.5t69 -151.5zM508 762q99 0 158 68t59 159q0 78 -44 123t-124 45q-98 0 -156.5 -63.5t-58.5 -159.5q0 -76 44 -124t122 -48z" />
    <glyph glyph-name="seven.num" horiz-adv-x="718" 
d="M170 686l514 776h-457l21 105h602l-14 -78l-533 -803h-133z" />
    <glyph glyph-name="eight.num" horiz-adv-x="833" 
d="M604 1579q121 0 197.5 -58.5t77.5 -164.5q0 -83 -54 -144t-137 -82v-4q60 -19 99.5 -66.5t39.5 -119.5q0 -125 -97 -198.5t-249 -73.5q-139 0 -218 60t-79 171q0 92 60 156t159 86v4q-50 19 -81 65t-31 107q0 115 89.5 188.5t223.5 73.5zM602 1487q-89 0 -138.5 -50
t-49.5 -124q0 -65 43 -100t110 -35q86 0 136.5 47.5t50.5 126.5q0 64 -44.5 99.5t-107.5 35.5zM492 758q98 0 154 51.5t56 132.5q0 71 -52 108t-128 37q-101 0 -157 -51t-56 -135q0 -71 52.5 -107t130.5 -36z" />
    <glyph glyph-name="nine.num" horiz-adv-x="837" 
d="M578 1483q-98 0 -157 -68.5t-59 -157.5q2 -74 43.5 -118.5t118.5 -44.5q98 0 156.5 65.5t58.5 155.5q-2 74 -44.5 121t-116.5 47zM455 668q-120 0 -189.5 54.5t-72.5 160.5h116q15 -121 148 -121q207 0 276 360h-4q-39 -58 -100.5 -91.5t-132.5 -33.5q-113 0 -183.5 67
t-70.5 179q-2 143 95.5 239.5t244.5 96.5q148 0 215 -87t69 -232q1 -56 -8 -118t-27 -130t-51 -128.5t-76.5 -109.5t-108 -77.5t-140.5 -28.5z" />
    <glyph glyph-name="minus.den" horiz-adv-x="811" 
d="M92 375l21 100h581l-18 -100h-584z" />
    <glyph glyph-name="plus.den" horiz-adv-x="806" 
d="M434 375l-47 -230h-113l48 230h-234l16 98h240l47 229h113l-47 -229h237l-20 -98h-240z" />
    <glyph glyph-name="parenleft.tab" horiz-adv-x="614" 
d="M414 -266h-113q-35 110 -55 183t-39 197t-19 251q0 610 467 1249h119q-218 -319 -332.5 -630t-117.5 -650q-1 -113 12 -222.5t29.5 -182t40.5 -166.5q6 -19 8 -29z" />
    <glyph glyph-name="parenright.tab" horiz-adv-x="614" 
d="M223 1614h113q35 -110 55 -183t39 -197t19 -251q0 -612 -469 -1249h-119q219 320 334 631t116 649q1 174 -21.5 307t-66.5 293z" />
    <glyph glyph-name="bracketleft.tab" horiz-adv-x="614" 
d="M68 -270l368 1888h408l-21 -107h-276l-326 -1675h277l-21 -106h-409z" />
    <glyph glyph-name="bracketright.tab" horiz-adv-x="614" 
d="M565 1618l-366 -1888h-408l21 106h276l326 1675h-279l23 107h407z" />
    <glyph glyph-name="braceleft.tab" horiz-adv-x="614" 
d="M133 629h-45l25 123h45q92 0 134.5 34t59.5 123l90 459q30 148 125 207.5t287 46.5l-18 -102q-74 4 -122.5 -5.5t-79 -37t-46 -64.5t-27.5 -98l-80 -416q-9 -44 -19 -74t-30.5 -60t-54.5 -48.5t-84 -26.5l-2 -6q45 -10 71 -34.5t33.5 -60.5t6 -70t-10.5 -77l-74 -376
q-26 -134 10 -179.5t181 -58.5l-23 -102q-190 8 -262.5 80t-40.5 231l84 424q19 90 -13 129t-120 39z" />
    <glyph glyph-name="braceright.tab" horiz-adv-x="614" 
d="M508 727h45l-27 -123h-43q-94 0 -136.5 -34.5t-59.5 -123.5l-90 -466q-28 -147 -125 -207t-289 -47l20 102q98 -5 153 16.5t79 64t41 126.5l80 401q7 35 14.5 62.5t22.5 58t34.5 51.5t50.5 37t70 21v6q-45 10 -71 34.5t-33.5 60.5t-6 69.5t10.5 76.5l74 371
q26 134 -10 179.5t-181 58.5l21 100q191 -8 264 -80.5t41 -234.5l-82 -412q-19 -91 12.5 -129.5t120.5 -38.5z" />
    <glyph glyph-name="eight.sub" horiz-adv-x="833" 
d="M449 770q121 0 197 -57.5t77 -163.5q0 -85 -54 -145.5t-137 -81.5v-5q60 -16 100 -65t40 -121q0 -124 -97 -198t-249 -74q-139 0 -218 60t-79 171q0 93 59.5 156.5t159.5 85.5v4q-51 21 -83 67t-32 107q0 114 91 187t225 73zM446 678q-89 0 -138.5 -49.5t-49.5 -124.5
q0 -64 43.5 -99.5t110.5 -35.5q86 0 136 47.5t50 126.5q0 64 -44.5 99.5t-107.5 35.5zM334 -49q100 0 156.5 51t56.5 133q0 71 -52 107.5t-128 36.5q-101 0 -157 -51t-56 -136q0 -69 52 -105t128 -36z" />
    <glyph glyph-name="eight.sup" horiz-adv-x="833" 
d="M625 1681q121 0 197 -57.5t77 -163.5q0 -85 -53.5 -145.5t-136.5 -81.5v-4q59 -16 99 -65t40 -122q0 -124 -97 -198t-249 -74q-139 0 -218 60t-79 171q0 93 59.5 156.5t159.5 85.5v4q-51 21 -82 67t-31 107q0 114 90 187t224 73zM623 1589q-89 0 -139 -49.5t-50 -124.5
q0 -64 43.5 -99.5t110.5 -35.5q86 0 136 47.5t50 126.5q0 64 -44 99.5t-107 35.5zM512 862q99 0 155 51.5t56 133.5q0 71 -51.5 107t-128.5 36q-101 0 -157 -50.5t-56 -135.5q0 -70 52 -106t130 -36z" />
    <glyph glyph-name="five.sub" horiz-adv-x="804" 
d="M539 199q-2 76 -41.5 117.5t-116.5 41.5q-118 0 -182 -77h-107l129 477h492l-23 -103h-389l-74 -272h4q76 72 193 72q110 0 175 -66t65 -174q3 -153 -97.5 -254.5t-265.5 -101.5q-137 0 -209.5 67.5t-66.5 186.5h120q-3 -75 42.5 -116.5t121.5 -41.5q103 0 166.5 72
t63.5 172z" />
    <glyph glyph-name="five.sup" horiz-adv-x="804" 
d="M715 1110q-2 76 -41.5 118t-116.5 42q-117 0 -182 -78h-107l129 477h492l-21 -102h-391l-74 -273h5q76 72 192 72q110 0 175 -66t65 -174q3 -153 -97.5 -254.5t-265.5 -101.5q-137 0 -209.5 67.5t-66.5 186.5h121q-3 -75 42 -116.5t121 -41.5q105 0 168.5 72t61.5 172z
" />
    <glyph glyph-name="four.sub" horiz-adv-x="811" 
d="M143 184h316l92 455h-4q-26 -53 -94 -125zM676 90h-123l-43 -213h-117l43 213h-440l16 90l539 578h135l-115 -570h123z" />
    <glyph glyph-name="four.sup" horiz-adv-x="811" 
d="M319 1096h316l92 454h-2q-28 -53 -96 -125zM852 1001h-123l-43 -213h-117l43 213h-440l16 91l539 577h135l-114 -569h122z" />
    <glyph glyph-name="minus.sub" horiz-adv-x="811" 
d="M70 252l20 100h582l-19 -100h-583z" />
    <glyph glyph-name="minus.sup" horiz-adv-x="811" 
d="M248 1161l20 101h584l-21 -101h-583z" />
    <glyph glyph-name="nine.sub" horiz-adv-x="837" 
d="M420 676q-96 0 -154.5 -68.5t-58.5 -156.5q2 -75 43.5 -120.5t118.5 -45.5q98 0 156.5 66t58.5 155q-2 75 -45 122.5t-119 47.5zM297 -141q-118 0 -187.5 55.5t-72.5 161.5h117q8 -60 45.5 -91.5t101.5 -31.5q208 0 277 360h-5q-39 -57 -100.5 -90t-132.5 -33
q-114 0 -184 66.5t-70 177.5q-2 143 95.5 239.5t244.5 96.5q148 0 215.5 -86t69.5 -231q1 -69 -11 -144t-42.5 -157t-76 -146.5t-119.5 -106t-165 -40.5z" />
    <glyph glyph-name="nine.sup" horiz-adv-x="837" 
d="M598 1587q-97 0 -156 -68.5t-59 -156.5q2 -75 43.5 -120.5t118.5 -45.5q98 0 156.5 66t58.5 155q-2 74 -45 122t-117 48zM475 770q-120 0 -189.5 55.5t-72.5 161.5h117q8 -60 45.5 -91.5t101.5 -31.5q208 0 277 361h-4q-38 -57 -100 -90t-134 -33q-114 0 -184 66.5
t-70 177.5q-2 143 95.5 239t244.5 96q148 0 215.5 -86t69.5 -231q1 -56 -8 -118t-27.5 -130.5t-51.5 -129.5t-76.5 -110t-108 -77.5t-140.5 -28.5z" />
    <glyph glyph-name="one.sub" horiz-adv-x="555" 
d="M123 -123l127 633h-180l16 90h31q84 0 133 37q44 36 65 121h105l-176 -881h-121z" />
    <glyph glyph-name="one.sup" horiz-adv-x="555" 
d="M299 788l127 633h-180l16 90h31q87 0 133 37q45 37 66 121h104l-176 -881h-121z" />
    <glyph glyph-name="plus.sub" horiz-adv-x="806" 
d="M412 252l-47 -229h-113l47 229h-233l16 98h240l47 230h112l-47 -230h238l-21 -98h-239z" />
    <glyph glyph-name="plus.sup" horiz-adv-x="806" 
d="M592 1163l-49 -231h-111l47 231h-235l18 97h238l47 229h112l-47 -229h238l-19 -97h-239z" />
    <glyph glyph-name="seven.sub" horiz-adv-x="718" 
d="M12 -123l516 776h-456l20 105h602l-14 -76l-535 -805h-133z" />
    <glyph glyph-name="seven.sup" horiz-adv-x="718" 
d="M190 788l515 777h-457l20 104h602l-14 -76l-532 -805h-134z" />
    <glyph glyph-name="six.sub" horiz-adv-x="825" 
d="M743 559h-120q-8 54 -45.5 85.5t-102.5 31.5q-106 0 -176.5 -94t-99.5 -250h4q37 52 99.5 82t133.5 30q119 0 189.5 -67.5t70.5 -177.5q0 -146 -98 -243t-246 -97q-150 0 -221.5 86t-71.5 229q0 59 9 121.5t28 131t53 128.5t79 109t111 77.5t144 28.5q124 0 191 -59
t69 -152zM352 -47q99 0 158 68t59 159q0 77 -44.5 123.5t-123.5 46.5q-97 0 -156 -64.5t-59 -160.5q0 -76 44 -124t122 -48z" />
    <glyph glyph-name="six.sup" horiz-adv-x="825" 
d="M920 1470h-121q-6 54 -44 85.5t-104 31.5q-106 0 -176.5 -94t-99.5 -250h4q37 52 99.5 82.5t133.5 30.5q119 0 189.5 -68t70.5 -178q0 -146 -98 -243t-246 -97q-150 0 -221 86t-71 229q0 59 9 121.5t28 131t53 128.5t79.5 109t111.5 77.5t145 28.5q123 0 189.5 -59
t68.5 -152zM528 864q99 0 158 68.5t59 159.5q0 78 -43.5 124t-123.5 46q-97 0 -156.5 -65t-59.5 -161q0 -76 44 -124t122 -48z" />
    <glyph glyph-name="three.sub" horiz-adv-x="811" 
d="M371 276h-92l18 99h88q89 0 143 45.5t54 122.5q0 61 -45 97t-115 36q-78 0 -131.5 -43t-63.5 -129h-121q8 118 96.5 192t225.5 74q124 0 199 -58.5t75 -162.5q0 -87 -54.5 -145t-139.5 -82v-5q62 -16 101.5 -64t39.5 -122q0 -122 -96.5 -197t-241.5 -75t-224.5 69.5
t-72.5 196.5h117q2 -81 49 -125.5t139 -44.5q96 0 152.5 51t56.5 127q0 65 -40.5 104t-116.5 39z" />
    <glyph glyph-name="three.sup" horiz-adv-x="811" 
d="M549 1188h-94l18 98h90q88 0 141.5 45.5t53.5 122.5q0 61 -45 97t-115 36q-78 0 -131.5 -43t-63.5 -129h-120q8 118 96 192t225 74q124 0 199.5 -58.5t75.5 -162.5q0 -87 -55 -145t-140 -82v-4q62 -16 101.5 -64.5t39.5 -122.5q0 -122 -96.5 -197t-241.5 -75t-224.5 69.5
t-72.5 196.5h117q3 -81 50 -125.5t139 -44.5q97 0 153 51t56 127q0 65 -40.5 104.5t-115.5 39.5z" />
    <glyph glyph-name="two.sub" horiz-adv-x="792" 
d="M215 477h-119q10 140 101.5 216.5t228.5 76.5q118 0 190 -57.5t72 -161.5q0 -102 -61.5 -182t-188.5 -174l-282 -213v-2h450l-18 -103h-629l14 86l387 305q55 42 83 66t60.5 59.5t46 71.5t13.5 78q-2 60 -40 95.5t-107 35.5q-80 0 -135 -46t-66 -151z" />
    <glyph glyph-name="two.sup" horiz-adv-x="792" 
d="M391 1389h-119q12 140 102.5 216t227.5 76q119 0 190.5 -57t71.5 -162q0 -102 -61 -181.5t-187 -174.5l-282 -213v-2h448l-18 -103h-629l15 86l389 306q55 43 81.5 66t59.5 59t46 71.5t13 77.5q-2 60 -40 95.5t-107 35.5q-80 0 -135 -45.5t-66 -150.5z" />
    <glyph glyph-name="zero.sub" horiz-adv-x="888" 
d="M57 174q0 71 12.5 146.5t44 157.5t77 145.5t119.5 105t165 41.5q143 0 216 -86.5t71 -234.5q-1 -74 -14.5 -151t-45 -157t-78 -141.5t-119 -101t-161.5 -39.5q-142 0 -214.5 83t-72.5 232zM348 -45q71 0 128.5 51t90 130t49.5 161.5t17 157.5q0 43 -7.5 79t-24.5 69
t-50.5 52t-81.5 19q-72 0 -129 -53t-89 -133.5t-48.5 -163t-16.5 -154.5q0 -40 6.5 -74.5t23 -68t50.5 -53t82 -19.5z" />
    <glyph glyph-name="zero.sup" horiz-adv-x="888" 
d="M233 1085q0 71 12.5 146.5t44 157.5t77 145.5t119.5 105t165 41.5q143 0 216 -86.5t71 -234.5q-1 -74 -14.5 -151t-45 -157t-78 -141.5t-119 -101t-161.5 -39.5q-140 0 -213.5 83t-73.5 232zM524 866q71 0 128.5 51t90 130t49.5 161.5t17 157.5q0 43 -7.5 79t-24 69
t-50 52t-80.5 19q-72 0 -130 -53t-90 -133.5t-48.5 -163t-16.5 -154.5q0 -40 6.5 -74.5t23 -68t50.5 -53t82 -19.5z" />
    <glyph glyph-name="Q.old" horiz-adv-x="1634" 
d="M1178 -211l-129 238q-132 -58 -283 -58q-283 0 -439.5 167.5t-156.5 453.5q0 148 34.5 292.5t104 272t165 224.5t226 153.5t277.5 56.5q277 0 431.5 -172t154.5 -456q0 -168 -44 -330.5t-136 -307t-220 -233.5l125 -235zM317 586q1 -106 26 -193.5t78 -158.5
t144.5 -110.5t214.5 -39.5q115 0 213 45l-127 238l115 69l125 -235q101 81 173 214.5t104 274t32 279.5q0 83 -15.5 156t-49.5 137.5t-84.5 111t-126 73t-168.5 26.5q-109 0 -205 -40.5t-166 -109.5t-125.5 -157.5t-89.5 -188.5t-51.5 -199t-16.5 -192z" />
    </font>
</defs>
</svg>
