<?xml version="1.0" standalone="no"?>
<!DOCTYPE svg PUBLIC "-//W3C//DTD SVG 1.1//EN" "http://www.w3.org/Graphics/SVG/1.1/DTD/svg11.dtd" >
<svg xmlns="http://www.w3.org/2000/svg" xmlns:xlink="http://www.w3.org/1999/xlink" version="1.1">
<metadata>
Created by FontForge 20201107 at Tue Feb 18 06:32:50 2025
 By 
(c)2012 Kai Bernau and Susana Carvalho with Christian Schwartz under exclusive license to Schwartzco Inc./Commercial Type. All rights reserved.
</metadata>
<defs>
<font id="AtlasGrotesk-BlackItalic" horiz-adv-x="1228" >
  <font-face 
    font-family="Atlas Grotesk Black"
    font-weight="900"
    font-style="italic"
    font-stretch="normal"
    units-per-em="2048"
    panose-1="0 0 0 0 0 0 0 0 0 0"
    ascent="1663"
    descent="-385"
    x-height="1108"
    cap-height="1567"
    bbox="-496 -475 2562 2474"
    underline-thickness="102"
    underline-position="-204"
    slope="-11"
    unicode-range="U+0020-FB02"
  />
<missing-glyph horiz-adv-x="1024" 
 />
    <glyph glyph-name="f_f" unicode="ff" horiz-adv-x="1476" 
d="M791 0l161 836h-336l-161 -836h-383l161 836h-131l54 272h129l12 59q24 125 67.5 209t109 130.5t142 65.5t181.5 19q50 0 92 -3.5t59 -7.5l17 -3l-52 -262h-53q-82 0 -123.5 -32t-54.5 -105l-14 -70h338l18 96q24 125 67.5 209t109 130.5t142 65.5t181.5 19q50 0 96 -4.5
t67 -9.5l21 -4l-51 -262q-29 4 -70 4q-82 0 -123 -32t-55 -106l-20 -106h188l-53 -272h-189l-161 -836h-383z" />
    <glyph glyph-name="fi" unicode="fi" horiz-adv-x="1368" 
d="M1014 1268l67 346h394l-68 -346h-393zM768 0l215 1108h393l-215 -1108h-393zM616 836l-161 -836h-383l161 836h-131l54 272h131l18 96q24 125 67.5 209.5t107 130.5t138 65t175.5 19q50 0 93 -4.5t61 -9.5l18 -4l-52 -262q-16 4 -57 4q-73 0 -113 -32.5t-53 -105.5
l-20 -106h188l-53 -272h-189z" />
    <glyph glyph-name="fl" unicode="fl" horiz-adv-x="1368" 
d="M768 0l313 1614h394l-314 -1614h-393zM616 836l-161 -836h-383l161 836h-131l54 272h131l18 96q24 125 67.5 209.5t107 130.5t138 65t175.5 19q50 0 93 -4.5t61 -9.5l18 -4l-52 -262q-16 4 -57 4q-73 0 -113 -32.5t-53 -105.5l-20 -106h188l-53 -272h-189z" />
    <glyph glyph-name=".notdef" horiz-adv-x="1024" 
 />
    <glyph glyph-name=".null" horiz-adv-x="0" 
 />
    <glyph glyph-name="nonmarkingreturn" horiz-adv-x="682" 
 />
    <glyph glyph-name="space" unicode=" " horiz-adv-x="411" 
 />
    <glyph glyph-name="exclam" unicode="!" horiz-adv-x="716" 
d="M203 504l141 1108h455l-316 -1108h-280zM455 0h-414l68 348h413z" />
    <glyph glyph-name="quotedbl" unicode="&#x22;" horiz-adv-x="1103" 
d="M750 987l69 580h348l-182 -580h-235zM289 987l69 580h349l-183 -580h-235z" />
    <glyph glyph-name="numbersign" unicode="#" horiz-adv-x="1392" 
d="M608 764h226l98 291h-225zM178 203l117 346h-213l41 215h246l96 291h-225l41 215h256l100 297h240l-99 -297h223l101 297h241l-100 -297h221l-41 -215h-252l-96 -291h230l-41 -215h-263l-116 -346h-242l117 346h-225l-117 -346h-240z" />
    <glyph glyph-name="dollar" unicode="$" horiz-adv-x="1368" 
d="M700 965l56 290q-81 -8 -132 -50t-51 -111q0 -58 26.5 -84t100.5 -45zM707 256l2 2q86 11 139 57t53 113q0 49 -29.5 79.5t-105.5 53.5zM610 -238h-143l41 215q-242 22 -366.5 136.5t-106.5 322.5h395q-5 -70 25 -114t108 -60l66 332l-84 20q-202 48 -288.5 143.5
t-86.5 250.5q0 162 84 281t227.5 179t327.5 60l33 168h143l-35 -176q98 -11 176 -41t137 -81t87.5 -129t21.5 -179h-379q12 121 -96 155l-59 -313l88 -21q215 -52 300 -152.5t85 -266.5q0 -148 -80.5 -265t-231.5 -185t-348 -71z" />
    <glyph glyph-name="percent" unicode="%" horiz-adv-x="1851" 
d="M188 -82l1313 1681h266l-1310 -1681h-269zM219 1079q0 103 35.5 188t94 139t130 83t146.5 29q144 0 233.5 -79.5t89.5 -224.5q0 -101 -35.5 -185.5t-93.5 -137.5t-129.5 -82t-146.5 -29q-143 0 -233.5 78.5t-90.5 220.5zM557 975q60 0 100.5 69t40.5 170q0 109 -88 109
q-58 0 -99 -68t-46 -172q0 -108 92 -108zM1315 -14q-143 0 -233.5 78.5t-90.5 220.5q0 103 35.5 188t94 138.5t130 82.5t146.5 29q144 0 233.5 -79t89.5 -224q0 -101 -35.5 -185.5t-93.5 -137.5t-129.5 -82t-146.5 -29zM1329 180q58 0 98 65.5t43 162.5q3 57 -19.5 88.5
t-68.5 31.5q-59 0 -100 -67.5t-45 -171.5q-2 -50 22.5 -79.5t69.5 -29.5z" />
    <glyph glyph-name="ampersand" unicode="&#x26;" horiz-adv-x="1615" 
d="M723 1196q0 -80 80 -184q93 50 142.5 102.5t49.5 130.5q-1 56 -35 90.5t-86 34.5q-68 0 -109.5 -52.5t-41.5 -121.5zM600 694l-10 -6q-131 -105 -131 -233q0 -93 49.5 -146t144.5 -53q107 0 207 78zM1417 0h-65q-138 0 -204.5 23.5t-131.5 99.5q-204 -154 -438 -154
q-230 0 -367.5 111t-136.5 303q1 94 30.5 173t85 140t123 107.5t156.5 87.5q-88 120 -88 283q0 104 41 188.5t111 138t160 82t190 29.5q194 2 314.5 -91.5t119.5 -254.5q0 -64 -22.5 -122.5t-56.5 -103t-86 -87.5t-98 -72.5t-106 -61.5l150 -207q39 60 170 265h329
q-9 -15 -47 -75.5t-50.5 -79.5t-44.5 -69t-49.5 -75.5t-44 -64.5t-49.5 -70t-46 -60q41 -50 81.5 -66t125.5 -18z" />
    <glyph glyph-name="quotesingle" unicode="'" horiz-adv-x="643" 
d="M289 987l69 580h349l-183 -580h-235z" />
    <glyph glyph-name="parenleft" unicode="(" horiz-adv-x="747" 
d="M557 -266h-268q-187 327 -187 692q0 178 45.5 353.5t125 326t171 275t199.5 233.5h299q-118 -145 -205.5 -281.5t-157.5 -288t-106.5 -314t-36.5 -331.5q0 -366 121 -665z" />
    <glyph glyph-name="parenright" unicode=")" horiz-adv-x="747" 
d="M254 1614h268q187 -327 187 -692q0 -178 -45.5 -353.5t-125 -326t-171 -275t-199.5 -233.5h-299q244 301 375 594.5t131 619.5q0 367 -121 666z" />
    <glyph glyph-name="asterisk" unicode="*" horiz-adv-x="913" 
d="M580 1092h-9l-157 -234l-193 160l240 172v8l-256 45l135 252l199 -149l4 4l-4 264h266l-109 -277l4 -6l254 123l33 -262l-270 -10v-8l170 -195l-240 -135z" />
    <glyph glyph-name="plus" unicode="+" horiz-adv-x="1269" 
d="M797 594l-78 -406h-311l77 406h-372l53 278h375l77 402h312l-78 -402h377l-53 -278h-379z" />
    <glyph glyph-name="comma" unicode="," horiz-adv-x="641" 
d="M-41 -240l184 607h385l-311 -607h-258z" />
    <glyph glyph-name="hyphen" unicode="-" horiz-adv-x="870" 
d="M98 475l58 297h669l-57 -297h-670z" />
    <glyph glyph-name="period" unicode="." horiz-adv-x="641" 
d="M27 0l69 367h391l-69 -367h-391z" />
    <glyph glyph-name="slash" unicode="/" horiz-adv-x="1148" 
d="M-199 -266l1260 1880h301l-1262 -1880h-299z" />
    <glyph glyph-name="zero" unicode="0" horiz-adv-x="1443" 
d="M102 539q0 93 12 187t40 193t69.5 188t103.5 168t139 136.5t180 91t222 33.5q120 0 220 -35t176.5 -104t119 -182t41.5 -259q0 -98 -12.5 -194t-40 -194t-67.5 -184.5t-101 -162.5t-136 -130.5t-175.5 -86t-216.5 -31.5q-127 0 -231.5 35t-181.5 104t-119 177.5
t-42 249.5zM686 264q74 0 136 74t100 188.5t58.5 243.5t20.5 248q0 229 -159 229q-69 0 -130.5 -69.5t-101.5 -178t-63 -238t-23 -253.5q0 -244 162 -244z" />
    <glyph glyph-name="one" unicode="1" horiz-adv-x="890" 
d="M215 0l193 999h-289l49 250h25q150 0 235 60t123 209h352l-295 -1518h-393z" />
    <glyph glyph-name="two" unicode="2" horiz-adv-x="1308" 
d="M584 991h-391q41 259 205.5 404t441.5 145q88 0 163 -15t137.5 -46.5t106.5 -79t67 -115t21 -151.5q-2 -68 -25.5 -133t-58.5 -119.5t-93.5 -116t-116 -110.5t-140.5 -115l-287 -224v-4h576l-60 -311h-1161l41 215l633 518q75 62 114.5 97.5t86.5 87.5t67.5 99t20.5 97
q0 65 -34.5 101.5t-96.5 35.5q-176 -4 -217 -260z" />
    <glyph glyph-name="three" unicode="3" horiz-adv-x="1329" 
d="M684 639h-164l51 260h125q95 0 155 57t60 146q0 68 -44.5 106.5t-104.5 38.5q-165 0 -193 -180h-383q13 94 55.5 176.5t114.5 150t184.5 107t250.5 39.5q82 0 154.5 -12.5t138.5 -42.5t113 -74.5t75 -112.5t28 -153q0 -140 -82 -236.5t-212 -128.5v-6
q114 -34 173.5 -114.5t59.5 -200.5q0 -118 -48 -212t-133 -154.5t-199 -92t-249 -31.5q-127 0 -232.5 30.5t-183 89t-117 151t-30.5 209.5h399q-6 -84 41.5 -131.5t137.5 -47.5q101 0 159 59.5t58 155.5q0 68 -37 111t-121 43z" />
    <glyph glyph-name="four" unicode="4" horiz-adv-x="1380" 
d="M453 612h346l114 592h-4q-51 -90 -121 -176zM1292 319h-174l-61 -319h-387l61 319h-706l51 269l796 930h480l-176 -902h174z" />
    <glyph glyph-name="five" unicode="5" horiz-adv-x="1316" 
d="M850 543q0 78 -40.5 125t-117.5 51q-71 3 -124 -18.5t-103 -77.5h-326l248 895h942l-61 -312h-645l-93 -329h5q55 58 139 94.5t186 36.5q183 0 287 -113.5t104 -310.5q0 -140 -54.5 -257t-147 -194.5t-215.5 -120.5t-261 -43q-126 0 -228 30.5t-173.5 88.5t-102.5 149.5
t-12 206.5h377q-9 -81 32.5 -127.5t127.5 -46.5q115 0 185.5 77.5t70.5 195.5z" />
    <glyph glyph-name="six" unicode="6" horiz-adv-x="1353" 
d="M1356 1141h-369q-7 61 -38.5 90t-88.5 29q-97 0 -181.5 -107t-139.5 -338h8q58 90 152 141.5t210 51.5q179 0 277 -115.5t100 -300.5q2 -180 -82 -323t-230 -221.5t-325 -78.5q-140 0 -245.5 41t-170.5 117t-97 179t-32 233q0 203 60.5 387t164.5 319.5t253.5 215.5
t318.5 79q216 -2 329 -96.5t126 -302.5zM668 262q66 0 118 44.5t77.5 110.5t25.5 138q0 74 -42 121t-112 47q-98 0 -159.5 -87.5t-61.5 -205.5q0 -75 40 -121.5t114 -46.5z" />
    <glyph glyph-name="seven" unicode="7" horiz-adv-x="1159" 
d="M47 0l752 1206h-633l61 312h1090l-43 -218l-815 -1300h-412z" />
    <glyph glyph-name="eight" unicode="8" horiz-adv-x="1353" 
d="M803 1540q81 0 155 -13.5t141 -43.5t116.5 -74.5t78.5 -111t29 -148.5q0 -65 -16 -119t-41.5 -91.5t-64 -69t-77.5 -51.5t-88 -38v-8q107 -41 169.5 -120t62.5 -197q0 -212 -176 -350t-459 -138q-265 0 -420.5 112.5t-155.5 301.5q0 164 98.5 269.5t256.5 148.5v8
q-185 91 -185 274q0 133 74.5 238t206 163t295.5 58zM791 1270q-91 0 -145 -66t-54 -155q0 -72 43.5 -110t116.5 -38q80 0 139 57t59 156q0 75 -43.5 115.5t-115.5 40.5zM641 229q104 0 168.5 70t64.5 164q0 88 -51.5 132t-140.5 44q-94 0 -159.5 -62t-65.5 -171
q0 -84 50 -130.5t134 -46.5z" />
    <glyph glyph-name="nine" unicode="9" horiz-adv-x="1353" 
d="M784 1239q-73 0 -127 -43.5t-78 -105.5t-24 -132q3 -70 49 -113.5t119 -43.5q107 0 167 81.5t60 194.5q-3 71 -46.5 116.5t-119.5 45.5zM1343 987q0 -237 -57.5 -429.5t-161.5 -322t-250 -198.5t-321 -68q-112 1 -202.5 26t-156 74.5t-96.5 128.5t-20 181h368
q-1 -66 32 -93.5t95 -27.5q128 0 211.5 101.5t126.5 334.5h-8q-113 -174 -358 -174q-181 0 -280 108t-101 290q-1 135 48.5 251.5t135.5 197.5t204.5 127t252.5 46q140 0 244.5 -40.5t168 -115t94.5 -174t31 -223.5z" />
    <glyph glyph-name="colon" unicode=":" horiz-adv-x="641" 
d="M168 713l72 366h383l-72 -366h-383zM414 0h-383l69 367h383z" />
    <glyph glyph-name="semicolon" unicode=";" horiz-adv-x="690" 
d="M236 713l71 366h383l-72 -366h-382zM227 -240h-258l185 607h385z" />
    <glyph glyph-name="less" unicode="&#x3c;" horiz-adv-x="1269" 
d="M1055 74l-928 528l35 168l1130 530l-65 -344l-645 -286l530 -297z" />
    <glyph glyph-name="equal" unicode="=" horiz-adv-x="1269" 
d="M201 809l55 278h983l-55 -278h-983zM1098 362h-983l53 279h983z" />
    <glyph glyph-name="greater" unicode="&#x3e;" horiz-adv-x="1269" 
d="M285 1296l925 -520l-32 -172l-1129 -530l66 340l645 291l-533 294z" />
    <glyph glyph-name="question" unicode="?" horiz-adv-x="1236" 
d="M788 504h-344l23 108q23 111 53 166.5t115 110.5l151 98q77 50 109.5 98.5t32.5 112.5q0 61 -43 96t-123 35q-95 0 -156.5 -62t-58.5 -186h-373q2 114 39.5 211t110 172.5t191.5 118.5t273 43q148 0 264.5 -43.5t188.5 -135t72 -218.5q0 -135 -58.5 -232.5t-195.5 -187.5
l-176 -117q-40 -27 -57.5 -61.5t-28.5 -87.5zM309 0l68 348h414l-68 -348h-414z" />
    <glyph glyph-name="at" unicode="@" horiz-adv-x="2066" 
d="M1481 106q-129 0 -205 53.5t-88 153.5h-6q-50 -94 -125.5 -146t-192.5 -52q-148 0 -232.5 102.5t-84.5 274.5q0 107 33.5 207t93 177.5t147 124t187.5 46.5q92 0 150 -40t81 -100h4l23 107h319l-125 -572q-37 -172 86 -172q46 0 92.5 29t87 83.5t67 146t28.5 204.5
q4 290 -183 468.5t-495 178.5q-171 0 -329.5 -69.5t-276 -188t-189 -285t-74.5 -350.5q-3 -170 48 -309t145 -231t224.5 -141.5t285.5 -49.5q158 0 297.5 47.5t241.5 124.5l81 -94q-265 -213 -643 -213q-186 0 -342.5 62.5t-266.5 174t-170 273t-56 352.5q3 179 57.5 340.5
t150.5 286.5t223.5 217t282.5 140.5t322 48.5q245 0 436 -96.5t296.5 -272t101.5 -399.5q-2 -134 -31.5 -242.5t-77 -182t-112.5 -123.5t-136.5 -72t-150.5 -22zM985 326q62 0 114 59t70 158l19 92q18 89 -13 147t-92 58q-51 0 -92.5 -34t-66 -87t-37.5 -112t-13 -115
q0 -166 111 -166z" />
    <glyph glyph-name="A" unicode="A" horiz-adv-x="1554" 
d="M870 1231q-17 -68 -102 -250l-184 -401h354l-47 389q-9 73 -13 138.5t-4 94.5v29h-4zM1020 0l-41 291h-535l-141 -291h-395l809 1567h448l260 -1567h-405z" />
    <glyph glyph-name="B" unicode="B" horiz-adv-x="1484" 
d="M772 0h-745l303 1567h598q119 0 213.5 -21.5t166 -65.5t110 -117.5t38.5 -172.5q0 -148 -86 -239.5t-242 -129.5v-8q124 -29 198.5 -110.5t74.5 -204.5q0 -243 -167.5 -370.5t-461.5 -127.5zM612 926h228q63 0 109 19t70 50.5t35 65.5t11 72q0 72 -48.5 114.5
t-146.5 42.5h-186zM489 287h273q116 0 187 56.5t71 158.5q0 83 -53.5 125.5t-155.5 42.5h-248z" />
    <glyph glyph-name="C" unicode="C" horiz-adv-x="1560" 
d="M1569 1001h-428q11 139 -34.5 215.5t-164.5 73.5q-79 -2 -144.5 -47.5t-109 -118t-73.5 -168t-43 -195.5t-13 -202q0 -61 12 -111.5t38.5 -93t73 -66.5t110.5 -24q228 0 288 291h414q-36 -277 -227.5 -432.5t-485.5 -155.5q-152 0 -271 36t-207.5 111.5t-135.5 200
t-47 293.5q0 156 34 300t104 267.5t168 215.5t234 144.5t295 53.5q140 1 250.5 -31t194.5 -100t128 -184t40 -273z" />
    <glyph glyph-name="D" unicode="D" horiz-adv-x="1554" 
d="M27 0l303 1567h522q317 0 503.5 -168.5t186.5 -472.5q0 -197 -60 -365t-173 -293.5t-286 -196.5t-388 -71h-608zM492 301h151q219 0 343 170t124 494q0 305 -301 305h-129z" />
    <glyph glyph-name="E" unicode="E" horiz-adv-x="1275" 
d="M27 0l303 1567h1022l-60 -303h-614l-66 -338h594l-57 -295h-592l-65 -332h641l-58 -299h-1048z" />
    <glyph glyph-name="F" unicode="F" horiz-adv-x="1204" 
d="M545 571l-111 -571h-407l303 1567h993l-59 -303h-586l-76 -394h563l-57 -299h-563z" />
    <glyph glyph-name="G" unicode="G" horiz-adv-x="1605" 
d="M1577 1061h-424q9 116 -43 176.5t-154 60.5q-81 0 -148.5 -46.5t-112 -121t-76.5 -171.5t-46.5 -194t-17.5 -192q-2 -65 9.5 -119.5t37.5 -100t73.5 -71t112.5 -26.5q129 -1 208.5 77.5t103.5 211.5l6 35h-289l53 280h695l-166 -860h-316l39 205h-6q-47 -102 -156 -170
t-268 -68q-266 0 -417.5 160.5t-151.5 470.5q0 158 36 305t108 272t172 218t237 145t295 51q134 -1 242.5 -30.5t192.5 -90t129 -164t42 -243.5z" />
    <glyph glyph-name="H" unicode="H" horiz-adv-x="1585" 
d="M555 623l-121 -623h-407l303 1567h407l-123 -635h519l122 635h410l-303 -1567h-410l121 623h-518z" />
    <glyph glyph-name="I" unicode="I" horiz-adv-x="655" 
d="M27 0l303 1567h407l-303 -1567h-407z" />
    <glyph glyph-name="J" unicode="J" horiz-adv-x="915" 
d="M162 -6h-187l64 323h106q44 0 78 5t58.5 13t43.5 25t31 32.5t22 44.5t16 52t14 64l200 1014h402l-207 -1061q-30 -153 -79.5 -252t-129.5 -157t-181.5 -80.5t-250.5 -22.5z" />
    <glyph glyph-name="K" unicode="K" horiz-adv-x="1499" 
d="M522 451l-88 -451h-407l303 1567h407l-121 -619l580 619h459l-676 -686l387 -881h-432l-262 606z" />
    <glyph glyph-name="L" unicode="L" horiz-adv-x="1230" 
d="M27 0l303 1567h407l-243 -1256h608l-60 -311h-1015z" />
    <glyph glyph-name="M" unicode="M" horiz-adv-x="1957" 
d="M27 0l303 1567h567l80 -686q7 -59 11.5 -125t5.5 -102l1 -36h6q42 121 105 248l344 701h588l-303 -1567h-379l227 1169h-6q-70 -169 -174 -376l-397 -793h-275l-88 793q-10 90 -15 183.5t-5 141.5v49h-7l-227 -1167h-362z" />
    <glyph glyph-name="N" unicode="N" horiz-adv-x="1550" 
d="M27 0l303 1567h418l251 -699q27 -71 45.5 -139.5t23.5 -101.5l5 -33h6l189 973h362l-303 -1567h-377l-276 721q-28 70 -49 141.5t-28 107.5l-7 36h-6l-195 -1006h-362z" />
    <glyph glyph-name="O" unicode="O" horiz-adv-x="1648" 
d="M123 608q-1 156 34.5 301.5t107 268.5t171 215t236 144t293.5 52q105 0 200 -22.5t179.5 -73t146 -125.5t97 -185.5t34.5 -246.5q-1 -157 -35.5 -301t-104.5 -265.5t-168.5 -211.5t-234.5 -140.5t-295 -50.5q-107 0 -199 18.5t-178.5 64.5t-147.5 117t-98 183.5
t-38 257.5zM1190 995q0 64 -13 117t-39.5 95.5t-73.5 66.5t-110 24q-84 0 -153.5 -49t-114 -126.5t-75 -177t-43.5 -196.5t-13 -190q0 -61 12 -111t38.5 -93.5t76 -68t119.5 -24.5q95 0 172 70.5t123 181.5t70 236t24 245z" />
    <glyph glyph-name="P" unicode="P" horiz-adv-x="1370" 
d="M731 504h-201l-96 -504h-407l303 1567h549q254 0 400 -114.5t146 -338.5q0 -152 -52 -269.5t-145.5 -191.5t-219 -111.5t-277.5 -37.5zM590 801h172q132 0 200 78t68 221q0 178 -190 178h-158z" />
    <glyph glyph-name="Q" unicode="Q" horiz-adv-x="1648" 
d="M766 -25q-106 0 -197 19t-175 65.5t-142.5 117.5t-93.5 181t-35 250q0 152 33.5 294t102.5 267t167.5 218.5t237 147.5t301.5 54q105 0 199.5 -22.5t179 -73t146 -125.5t97 -185.5t35.5 -246.5q0 -297 -105.5 -495t-285.5 -304v-12q100 -26 161 -80t111 -158l-373 -194
q-76 156 -150 219t-194 63h-20zM803 256q95 0 171.5 67t122 176.5t69.5 237t24 258.5q0 64 -13 117t-39.5 95.5t-73.5 66.5t-110 24q-84 0 -153.5 -49t-114 -126.5t-75 -177t-43.5 -196.5t-13 -190q0 -61 12 -112t39 -95.5t77.5 -70t119.5 -25.5z" />
    <glyph glyph-name="R" unicode="R" horiz-adv-x="1456" 
d="M596 842h176q129 0 203 66t74 198q0 98 -53.5 142t-182.5 44h-129zM543 559l-109 -559h-407l303 1567h526q189 0 311 -41q134 -44 211.5 -145t77.5 -265q0 -369 -352 -489v-4l260 -623h-422l-223 559h-176z" />
    <glyph glyph-name="S" unicode="S" horiz-adv-x="1386" 
d="M31 453h428q-5 -91 44 -141t167 -50q104 0 169.5 50t65.5 130q0 107 -162 146l-196 49q-201 51 -290 152.5t-89 259.5q0 128 50.5 232t137.5 170.5t201.5 102t245.5 35.5q102 0 187.5 -14t160 -47t124.5 -83.5t76.5 -128.5t20.5 -177h-411q4 76 -43.5 115.5t-131.5 39.5
q-92 0 -147 -45t-55 -121q0 -30 12.5 -52.5t38.5 -38t53 -25t68 -19.5l205 -51q190 -47 277 -151.5t87 -249.5q0 -257 -186.5 -415.5t-483.5 -158.5q-202 0 -342.5 50.5t-216 161t-65.5 274.5z" />
    <glyph glyph-name="T" unicode="T" horiz-adv-x="1339" 
d="M1016 1249l-242 -1249h-407l241 1249h-411l61 318h1231l-62 -318h-411z" />
    <glyph glyph-name="U" unicode="U" horiz-adv-x="1523" 
d="M131 608l186 959h408l-193 -979q-30 -151 29 -226q57 -71 193 -71q121 0 186 74q54 62 80 196l194 1006h402l-199 -1022q-57 -288 -229 -433t-453 -145q-142 0 -254 30.5t-187 86t-120.5 135t-54 177.5t11.5 212z" />
    <glyph glyph-name="V" unicode="V" horiz-adv-x="1495" 
d="M432 0l-209 1567h406l96 -922q6 -64 8.5 -126.5t2.5 -92.5l-1 -31h4q20 93 86 228l453 944h403l-786 -1567h-463z" />
    <glyph glyph-name="W" unicode="W" horiz-adv-x="2115" 
d="M725 0h-397l-101 1567h410l29 -760q2 -87 0 -150.5t-6 -98.5l-3 -36h5q32 110 98 260l344 785h344l61 -766q3 -46 5.5 -91.5t3 -78t0.5 -58v-38.5v-13h4q25 113 84 260l315 785h373l-676 -1567h-385l-49 829q-4 76 -5.5 140.5t-0.5 90.5v27h-4q-24 -88 -87 -235z" />
    <glyph glyph-name="X" unicode="X" horiz-adv-x="1513" 
d="M-76 0l656 819l-318 748h438l172 -461h2l338 461h439l-611 -758l353 -809h-451l-197 518h-2l-383 -518h-436z" />
    <glyph glyph-name="Y" unicode="Y" horiz-adv-x="1445" 
d="M424 0l131 680l-328 887h422l178 -559h4l373 559h424l-674 -936l-123 -631h-407z" />
    <glyph glyph-name="Z" unicode="Z" horiz-adv-x="1325" 
d="M242 1255l59 312h1151l-53 -277l-889 -977h704l-59 -313h-1194l53 276l891 979h-663z" />
    <glyph glyph-name="bracketleft" unicode="[" horiz-adv-x="811" 
d="M29 -266l366 1880h580l-45 -230h-264l-277 -1421h264l-45 -229h-579z" />
    <glyph glyph-name="backslash" unicode="\" horiz-adv-x="1148" 
d="M778 -266l-545 1880h283l545 -1880h-283z" />
    <glyph glyph-name="bracketright" unicode="]" horiz-adv-x="811" 
d="M846 1614l-367 -1880h-577l43 229h264l276 1421h-264l45 230h580z" />
    <glyph glyph-name="asciicircum" unicode="^" horiz-adv-x="968" 
d="M823 1614l195 -613h-234l-131 334h-2l-250 -334h-251l428 613h245z" />
    <glyph glyph-name="underscore" unicode="_" horiz-adv-x="790" 
d="M-123 -389l45 235h780l-45 -235h-780z" />
    <glyph glyph-name="grave" unicode="`" horiz-adv-x="741" 
d="M680 1614l37 -369h-291l-117 369h371z" />
    <glyph glyph-name="a" unicode="a" horiz-adv-x="1220" 
d="M532 225q145 0 181 230l6 30q-129 -3 -182 -16q-119 -30 -119 -129q0 -55 31.5 -85t82.5 -30zM514 766h-373q19 178 156.5 272.5t380.5 94.5q113 0 199.5 -23.5t140 -66t84.5 -102.5t34 -133.5t-12 -158.5l-57 -295q-10 -51 8.5 -68.5t69.5 -19.5l-53 -266h-134
q-46 0 -78 4t-67 15.5t-60 37t-40 64.5h-6q-80 -75 -148.5 -103t-183.5 -28q-146 0 -243 79.5t-97 231.5q0 117 59.5 204t186.5 128q33 11 72 19t69 12t82.5 7t77 3.5t89 2t85.5 1.5l10 59q13 73 -16 111.5t-95 38.5q-124 0 -141 -121z" />
    <glyph glyph-name="b" unicode="b" horiz-adv-x="1335" 
d="M12 0l314 1614h393l-133 -678h6q120 192 338 192q169 0 265.5 -118.5t96.5 -327.5q0 -101 -19 -199t-63 -191t-107 -163.5t-159 -113t-213 -42.5q-100 0 -183.5 43.5t-123.5 137.5h-4l-31 -154h-377zM643 229q76 0 133.5 64.5t85 161.5t27.5 207q0 202 -148 202
q-76 0 -137 -59.5t-82 -167.5l-26 -141q-24 -122 14.5 -194.5t132.5 -72.5z" />
    <glyph glyph-name="c" unicode="c" horiz-adv-x="1282" 
d="M1245 678h-399q14 196 -135 199q-59 1 -106.5 -40.5t-75.5 -108t-43 -144t-15 -154.5q0 -96 40.5 -146.5t117.5 -50.5q79 0 131 53.5t69 149.5h381q-11 -117 -63.5 -208t-135 -146.5t-184.5 -84t-217 -28.5q-89 0 -167 15t-148.5 51t-120 90.5t-79 137.5t-29.5 188
q0 150 43.5 275.5t125.5 216.5t206 141.5t278 50.5q249 0 392.5 -121.5t133.5 -335.5z" />
    <glyph glyph-name="d" unicode="d" horiz-adv-x="1349" 
d="M719 866q-74 0 -131 -62t-85 -160t-28 -212q0 -203 143 -203q77 0 140 60t84 170l26 141q26 126 -13.5 196t-135.5 70zM1456 1614l-313 -1614h-379l31 158h-4q-130 -187 -336 -187q-182 0 -283.5 127t-101.5 334q0 99 22 197t68.5 188t111.5 159t157 110.5t198 41.5
q212 0 305 -165h4l127 651h393z" />
    <glyph glyph-name="e" unicode="e" horiz-adv-x="1261" 
d="M825 672l2 16q29 209 -122 209q-77 0 -132.5 -59.5t-83.5 -165.5h336zM1161 340q-33 -185 -179.5 -278t-377.5 -93q-245 0 -393 124.5t-148 357.5q0 141 46 265t129 217.5t208.5 147.5t276.5 54q117 0 208 -30t148.5 -84t92.5 -128.5t39 -164t-13 -189.5l-14 -74h-721
v-31q0 -203 153 -203q60 0 102.5 28.5t51.5 80.5h391z" />
    <glyph glyph-name="f" unicode="f" horiz-adv-x="757" 
d="M616 836l-161 -836h-383l161 836h-131l54 272h131l18 96q24 125 67.5 209t109 130.5t142 65.5t181.5 19q50 0 96 -4.5t67 -9.5l21 -4l-51 -262q-29 4 -70 4q-82 0 -123 -32t-55 -106l-20 -106h188l-53 -272h-189z" />
    <glyph glyph-name="g" unicode="g" horiz-adv-x="1337" 
d="M850 498l20 110q23 113 -13 185.5t-128 72.5q-82 0 -140.5 -59.5t-83.5 -144.5t-24 -181q2 -92 44 -142t120 -50q74 0 130 58t75 151zM6 -41h371q-1 -60 42 -89.5t107 -29.5q104 0 159 55t77 158l31 152h-5q-116 -160 -315 -160q-184 0 -289.5 106.5t-105.5 315.5
q0 172 67 322t195.5 244.5t290.5 94.5q123 0 201.5 -51.5t111.5 -134.5h4l33 166h381l-197 -1010q-52 -264 -213 -385t-438 -121q-146 0 -249 29t-158.5 81.5t-79 115t-21.5 141.5z" />
    <glyph glyph-name="h" unicode="h" horiz-adv-x="1323" 
d="M735 0l123 633q12 67 12 92q0 63 -28.5 94t-93.5 31q-90 0 -149.5 -72t-84.5 -207l-108 -571h-396l314 1614h393l-135 -694h4q59 101 154 154.5t218 53.5q182 0 262 -117.5t37 -340.5l-129 -670h-393z" />
    <glyph glyph-name="i" unicode="i" horiz-adv-x="610" 
d="M256 1268l68 346h393l-68 -346h-393zM10 0l215 1108h393l-215 -1108h-393z" />
    <glyph glyph-name="j" unicode="j" horiz-adv-x="622" 
d="M268 1268l68 346h393l-67 -346h-394zM-76 -430q-58 0 -104 7t-63 13l-17 7l49 260q33 -11 78 -11q125 0 151 140l220 1122h393l-223 -1143q-22 -113 -68.5 -192.5t-112.5 -122.5t-139.5 -61.5t-163.5 -18.5z" />
    <glyph glyph-name="k" unicode="k" horiz-adv-x="1245" 
d="M449 274l-54 -274h-385l314 1614h385l-177 -912l388 406h419l-471 -475l271 -633h-398l-176 399z" />
    <glyph glyph-name="l" unicode="l" horiz-adv-x="610" 
d="M10 0l314 1614h393l-314 -1614h-393z" />
    <glyph glyph-name="m" unicode="m" horiz-adv-x="2017" 
d="M1417 0l119 614q14 75 14 111q0 125 -116 125q-76 0 -135.5 -71t-84.5 -208l-106 -571h-393l119 614q14 75 14 111q0 64 -27.5 94.5t-89.5 30.5q-79 0 -136 -72t-83 -207l-106 -571h-396l215 1108h379l-39 -199h4q144 219 379 219q261 0 277 -239h4q153 239 418 239
q184 0 260 -117t32 -341l-129 -670h-393z" />
    <glyph glyph-name="n" unicode="n" horiz-adv-x="1335" 
d="M735 0l119 614q14 75 14 113q0 63 -28 93t-92 30q-90 0 -150.5 -74t-85.5 -209l-106 -567h-396l215 1108h379l-39 -199h4q65 106 164.5 162.5t224.5 56.5q182 0 261.5 -116.5t37.5 -339.5l-129 -672h-393z" />
    <glyph glyph-name="o" unicode="o" horiz-adv-x="1298" 
d="M600 -31q-112 0 -206 28t-168.5 84t-117 151t-42.5 219q0 140 44.5 264t126 217.5t205.5 148t275 54.5q112 0 209 -31t170.5 -90t116 -152t42.5 -209q0 -314 -180.5 -499t-474.5 -185zM852 684q0 36 -7 67.5t-22.5 60t-44.5 45.5t-69 17q-51 0 -93 -30t-68.5 -76.5
t-45 -106.5t-26 -117t-7.5 -110q0 -203 147 -203q53 0 95.5 31.5t68 79.5t42.5 111t23.5 120t6.5 111z" />
    <glyph glyph-name="p" unicode="p" horiz-adv-x="1335" 
d="M643 229q76 0 133.5 64.5t85 161.5t27.5 207q0 202 -148 202q-76 0 -137 -59.5t-82 -167.5l-26 -141q-24 -122 14.5 -194.5t132.5 -72.5zM-63 -385l288 1493h379l-35 -180h4q53 87 149.5 143.5t215.5 56.5q164 0 259 -119t95 -327q0 -101 -19.5 -199t-63.5 -191
t-107.5 -163.5t-159.5 -113t-211 -42.5q-102 0 -183 45.5t-112 116.5h-6l-100 -520h-393z" />
    <glyph glyph-name="q" unicode="q" horiz-adv-x="1345" 
d="M1358 1108l-291 -1493h-393l100 516h-4q-52 -70 -123.5 -115t-181.5 -45q-189 0 -292 126.5t-103 334.5q0 99 21.5 196.5t66.5 188t109.5 159.5t157.5 110.5t202 41.5q216 0 317 -176h4l31 156h379zM618 229q77 0 140 60t84 170l26 141q26 126 -13.5 196t-135.5 70
q-74 0 -131 -62t-85 -160t-28 -212q0 -203 143 -203z" />
    <glyph glyph-name="r" unicode="r" horiz-adv-x="897" 
d="M10 0l215 1108h371l-51 -256h4q153 272 420 272h16l-70 -364h-22q-72 0 -122.5 -6.5t-100 -26.5t-83 -55.5t-61 -94.5t-43.5 -143l-84 -434h-389z" />
    <glyph glyph-name="s" unicode="s" horiz-adv-x="1110" 
d="M1063 782h-340q4 56 -34 82.5t-95 26.5t-90 -26.5t-33 -63.5q0 -38 35.5 -59t99.5 -33l142 -31q146 -32 207 -100.5t61 -198.5t-68.5 -224.5t-184 -141t-263.5 -46.5q-77 0 -143 9t-131.5 34t-111 64t-73 103.5t-25.5 148.5h355q-1 -61 36 -88t103 -27t107.5 24t41.5 74
q0 64 -98 84l-131 27q-163 34 -236 108.5t-73 210.5q0 95 39 171t106.5 124.5t155.5 74.5t188 26q224 0 343.5 -91t109.5 -262z" />
    <glyph glyph-name="t" unicode="t" horiz-adv-x="845" 
d="M422 1413h319l-59 -305h229l-53 -272h-225l-80 -414q-17 -90 3.5 -121t102.5 -31q22 0 43 3t31 5l10 3l-53 -279q-94 -16 -180 -16q-428 0 -346 422l84 428h-142l54 272h39q64 0 100.5 16.5t62.5 64.5t44 142z" />
    <glyph glyph-name="u" unicode="u" horiz-adv-x="1310" 
d="M606 1108l-121 -621q-10 -62 -10 -92q0 -75 32 -105t91 -30q75 0 132 68.5t83 197.5l113 582h393l-215 -1108h-379l37 190h-4q-63 -98 -156.5 -153t-208.5 -55q-193 0 -274.5 113.5t-38.5 330.5l133 682h393z" />
    <glyph glyph-name="v" unicode="v" horiz-adv-x="1212" 
d="M315 0l-186 1108h383l51 -461q8 -71 11.5 -147t3.5 -116v-40h4q50 146 116 283l230 481h389l-598 -1108h-404z" />
    <glyph glyph-name="w" unicode="w" horiz-adv-x="1755" 
d="M240 0l-123 1108h350l35 -428q6 -75 7 -158.5t-1 -129.5l-2 -46h4q45 166 106 301l209 461h310l41 -449q5 -60 7.5 -138.5t2.5 -126.5v-48h6q39 166 92 291l201 471h336l-494 -1108h-366l-29 303q-8 83 -13 188.5t-5 169.5l-1 64h-4q-91 -229 -159 -385l-148 -340h-362z
" />
    <glyph glyph-name="x" unicode="x" horiz-adv-x="1212" 
d="M-88 0l483 598l-239 510h395l119 -301h2l202 301h408l-440 -545l262 -563h-404l-135 344h-2l-241 -344h-410z" />
    <glyph glyph-name="y" unicode="y" horiz-adv-x="1202" 
d="M326 -8l-197 1116h395l54 -522q5 -60 6 -125.5t0 -100.5l-2 -36h4q37 121 86 227l246 557h389l-609 -1161q-98 -188 -222.5 -271.5t-338.5 -83.5q-26 0 -50.5 1.5t-43.5 3.5t-35.5 4.5t-28 4.5t-19.5 4t-11 3.5t-2 1.5l53 276q40 -10 117 -10q86 0 134 22.5t71 78.5z" />
    <glyph glyph-name="z" unicode="z" horiz-adv-x="1122" 
d="M158 825l55 283h954l-47 -238l-606 -583h500l-56 -287h-978l45 240l608 585h-475z" />
    <glyph glyph-name="braceleft" unicode="{" horiz-adv-x="894" 
d="M174 547h-65l51 262h65q66 0 89 27t38 104l54 279q49 251 205 341.5t438 61.5l-43 -221q-153 7 -218 -44.5t-88 -174.5l-45 -242q-21 -113 -69.5 -172t-147.5 -76v-8q162 -43 111 -289l-41 -205q-26 -125 22 -182t205 -61l-43 -221q-80 3 -144.5 12t-121.5 26t-97.5 43
t-72 63t-45 85.5t-16.5 110t14 137.5l41 213q12 67 -6 99t-70 32z" />
    <glyph glyph-name="bar" unicode="|" horiz-adv-x="579" 
d="M20 -266l367 1880h256l-367 -1880h-256z" />
    <glyph glyph-name="braceright" unicode="}" horiz-adv-x="894" 
d="M786 809h66l-51 -262h-66q-66 0 -89 -27t-38 -104l-53 -279q-49 -251 -205 -341.5t-438 -61.5l43 221q79 -4 133 7.5t88.5 41t53 69.5t30.5 101l45 242q21 113 69.5 172t147.5 76v8q-161 42 -110 289l41 204q26 125 -22.5 182.5t-205.5 61.5l43 221q80 -3 144.5 -12
t121.5 -26t97.5 -43t72.5 -63t45.5 -85.5t16.5 -110t-14 -137.5l-41 -213q-12 -67 5.5 -99t69.5 -32z" />
    <glyph glyph-name="asciitilde" unicode="~" horiz-adv-x="1067" 
d="M80 479q19 171 102.5 279t231.5 108q52 0 108.5 -24t104.5 -48t80 -24q35 0 63 22t33 74h241q-11 -194 -87.5 -290.5t-227.5 -96.5q-52 0 -113.5 24t-114 48t-83.5 24q-40 0 -69.5 -26.5t-26.5 -69.5h-242z" />
    <glyph glyph-name="uni00A0" unicode="&#xa0;" horiz-adv-x="411" 
 />
    <glyph glyph-name="exclamdown" unicode="&#xa1;" horiz-adv-x="716" 
d="M578 883l-142 -1108h-454l315 1108h281zM326 1386h413l-67 -348h-414z" />
    <glyph glyph-name="cent" unicode="&#xa2;" horiz-adv-x="1282" 
d="M526 229l131 668q-53 -18 -94 -67.5t-64.5 -116t-35.5 -137.5t-12 -140q0 -160 75 -207zM846 436h364q-8 -93 -43.5 -170t-90.5 -130.5t-127.5 -91t-154 -56t-171.5 -19.5l-41 -207h-146l43 218q-89 13 -161.5 45.5t-130 88t-89.5 141.5t-32 196q0 199 73 351t218 240.5
t345 92.5l33 165h146l-35 -176q194 -30 301 -146t98 -300h-383q9 163 -63 205l-131 -674q70 14 116.5 72t61.5 155z" />
    <glyph glyph-name="sterling" unicode="&#xa3;" horiz-adv-x="1327" 
d="M1165 309l-59 -309h-1110l41 215l57 33q49 29 82 51.5t68 55t55 66.5t32.5 81t10.5 102h-244l43 225h170l-10 78q-44 303 92.5 468t462.5 165q267 0 387.5 -123.5t93.5 -333.5h-379q10 92 -26.5 145.5t-108.5 53.5q-93 0 -135 -78t-22 -239l16 -136h385l-43 -225h-326
q-7 -85 -55.5 -150.5t-150.5 -134.5l-9 -6v-4h682z" />
    <glyph glyph-name="currency" unicode="&#xa4;" horiz-adv-x="1292" 
d="M258 713q0 79 29 155l-219 215l208 209l216 -221q72 29 151 29q75 0 156 -31l217 223l209 -209l-224 -219q29 -73 29 -151q0 -79 -29 -152l226 -219l-209 -209l-219 223q-73 -28 -156 -28q-78 0 -151 26l-216 -221l-208 209l219 213q-29 76 -29 158zM643 547
q71 0 114.5 46.5t43.5 119.5q0 74 -43.5 121t-114.5 47q-70 0 -113 -47t-43 -121q0 -73 43 -119.5t113 -46.5z" />
    <glyph glyph-name="yen" unicode="&#xa5;" horiz-adv-x="1370" 
d="M395 0l51 266h-395l31 164h397l29 154h-399l30 164h396l-297 770h405l150 -439h4l307 439h424l-600 -770h395l-31 -164h-397l-29 -154h400l-31 -164h-401l-52 -266h-387z" />
    <glyph glyph-name="brokenbar" unicode="&#xa6;" horiz-adv-x="608" 
d="M631 1614l-162 -832h-256l162 832h256zM264 -266h-256l162 829h256z" />
    <glyph glyph-name="section" unicode="&#xa7;" horiz-adv-x="1341" 
d="M573 852q-43 -5 -76.5 -35.5t-33.5 -77.5q0 -34 22.5 -58.5t69.5 -47.5l195 -94l51 -25q47 4 76.5 35.5t29.5 77.5q0 37 -27 65.5t-98 61.5l-174 82zM117 643q-1 120 67 200t191 122v4q-29 34 -45.5 58t-30.5 66.5t-14 92.5q0 188 138.5 295.5t375.5 107.5
q244 0 367 -99.5t102 -258.5h-350q7 53 -26 84t-95 31q-63 0 -98 -25.5t-35 -71.5q0 -39 28.5 -62t106.5 -61l260 -125q99 -47 148 -112.5t50 -161.5q3 -245 -251 -340v-4q73 -68 77 -195q0 -112 -42.5 -195.5t-117.5 -131.5t-168 -71t-204 -23q-237 0 -358 93.5t-109 264.5
h338q-6 -53 33 -84t108 -31q58 0 103 24t45 77q0 35 -21.5 57.5t-66.5 44.5l-281 137q-111 54 -167.5 120.5t-57.5 172.5z" />
    <glyph glyph-name="dieresis" unicode="&#xa8;" horiz-adv-x="741" 
d="M578 1292l63 322h322l-64 -322h-321zM145 1292l64 322h321l-63 -322h-322z" />
    <glyph glyph-name="copyright" unicode="&#xa9;" horiz-adv-x="1804" 
d="M143 778q0 227 104.5 413t289.5 293t413 107t413.5 -107t290.5 -293t105 -413t-105 -412.5t-290.5 -292t-413.5 -106.5t-413 106.5t-289.5 292t-104.5 412.5zM950 84q190 0 345.5 91t243 250t87.5 353t-87.5 353.5t-243 251.5t-345.5 92t-345 -92t-242 -251.5t-87 -353.5
t87 -353t242 -250t345 -91zM1364 883h-277q11 151 -100 151q-61 0 -105 -54.5t-62.5 -129.5t-18.5 -156q0 -73 31 -112t90 -39t99 41t54 114h262q-10 -119 -73 -201t-158 -118.5t-215 -36.5q-56 0 -107 11t-100 37t-85 65.5t-57.5 101t-21.5 137.5q0 154 55.5 274.5
t165 191.5t258.5 71q181 0 277.5 -92t87.5 -256z" />
    <glyph glyph-name="ordfeminine" unicode="&#xaa;" horiz-adv-x="1062" 
d="M586 840q42 0 84 39t51 118l4 33q-110 0 -166 -29q-53 -26 -53 -90q0 -71 80 -71zM588 1247h-328q14 133 124 213t302 80q225 0 319 -101t60 -270l-43 -225q-7 -40 4 -53.5t41 -13.5l-45 -222h-78q-42 0 -62.5 0.5t-49 3.5t-42 9t-31 17.5t-28.5 28.5t-22 42h-7
q-38 -51 -102.5 -81t-146.5 -30q-118 0 -192.5 64t-74.5 182q0 192 183 254q27 10 57 16.5t51.5 10t62.5 6t58.5 3t73.5 2t76 1.5l6 33q10 56 -6.5 82t-61.5 26q-88 0 -98 -78z" />
    <glyph glyph-name="guillemotleft" unicode="&#xab;" horiz-adv-x="1091" 
d="M831 950h269l-271 -422l111 -411h-268l-129 418zM377 950h270l-270 -422l112 -411h-272l-129 418z" />
    <glyph glyph-name="logicalnot" unicode="&#xac;" horiz-adv-x="1265" 
d="M88 594l53 278h1063l-133 -684h-299l78 406h-762z" />
    <glyph glyph-name="registered" unicode="&#xae;" horiz-adv-x="1030" 
d="M201 1141q9 190 142 319t323 129q191 0 310.5 -129t110.5 -319q-11 -190 -144.5 -318.5t-324.5 -128.5q-125 0 -223 59t-149.5 161t-44.5 227zM623 772q152 0 258.5 105.5t115.5 263.5q8 159 -87.5 264.5t-247.5 105.5t-257.5 -105.5t-113.5 -264.5q-9 -158 85.5 -263.5
t246.5 -105.5zM596 1184h47q77 0 86 65q3 28 -17 44t-53 16h-49zM586 1098l-19 -172h-123l52 460h213q66 0 107 -38.5t34 -102.5q-4 -47 -34 -80t-68 -47l73 -192h-133l-59 172h-43z" />
    <glyph glyph-name="macron" unicode="&#xaf;" horiz-adv-x="741" 
d="M152 1292l47 246h741l-47 -246h-741z" />
    <glyph glyph-name="degree" unicode="&#xb0;" horiz-adv-x="804" 
d="M184 1217q3 151 105 251.5t254 100.5q153 0 250 -100t94 -252q-4 -157 -106 -254t-257 -97q-152 0 -248.5 100t-91.5 251zM528 1051q71 0 116 46.5t48 119.5q2 74 -40 120.5t-113 46.5q-70 0 -114 -46.5t-46 -120.5q-3 -73 38 -119.5t111 -46.5z" />
    <glyph glyph-name="plusminus" unicode="&#xb1;" horiz-adv-x="1269" 
d="M813 778l-63 -323h-299l63 323h-383l55 279h381l62 319h299l-62 -319h383l-55 -279h-381zM-18 0l53 279h1063l-54 -279h-1062z" />
    <glyph glyph-name="twosuperior" unicode="&#xb2;" horiz-adv-x="874" 
d="M528 1378h-270q19 147 123 226t291 79q143 0 229 -60.5t86 -178.5q0 -69 -31.5 -130t-74.5 -102.5t-109 -87.5l-197 -139v-4h343l-37 -195h-758l29 138l413 319q109 85 130 107q32 34 32 75q0 35 -24.5 55.5t-63.5 20.5q-98 0 -111 -123z" />
    <glyph glyph-name="threesuperior" unicode="&#xb3;" horiz-adv-x="884" 
d="M594 1155h-119l33 152h96q58 0 94.5 33t36.5 81q0 36 -25 56t-63 20q-89 0 -110 -92h-269q17 117 118 197.5t282 80.5q157 0 246.5 -59.5t89.5 -157.5q0 -177 -197 -225v-4q151 -46 151 -182q0 -140 -110.5 -213.5t-294.5 -73.5q-178 0 -274 72t-84 211h262
q-1 -45 27 -69t75 -24q59 0 91 32.5t32 82.5q0 82 -88 82z" />
    <glyph glyph-name="acute" unicode="&#xb4;" horiz-adv-x="741" 
d="M307 1245l170 369h381l-250 -369h-301z" />
    <glyph glyph-name="paragraph" unicode="&#xb6;" horiz-adv-x="1239" 
d="M1100 1567h219l-303 -1567h-219zM557 737q-169 5 -268 102t-99 261q0 113 41 203.5t112 147t164.5 86.5t201.5 30h229l-303 -1567h-219z" />
    <glyph glyph-name="periodcentered" unicode="&#xb7;" horiz-adv-x="624" 
d="M121 563l72 367h391l-72 -367h-391z" />
    <glyph glyph-name="cedilla" unicode="&#xb8;" horiz-adv-x="1075" 
d="M287 51h119l-82 -188h4q56 41 118 41q68 0 112 -41t44 -105q0 -107 -75 -170t-218 -63q-60 0 -111 16t-86 57t-28 101h180q3 -41 60 -41q37 0 56 19.5t19 48.5q0 53 -57 53q-38 0 -61 -29h-131z" />
    <glyph glyph-name="onesuperior" unicode="&#xb9;" horiz-adv-x="626" 
d="M295 786l117 549h-197l39 187h35q88 0 139 30q59 34 74 117h252l-187 -883h-272z" />
    <glyph glyph-name="ordmasculine" unicode="&#xba;" horiz-adv-x="1120" 
d="M629 635q-91 1 -168 23t-138.5 66t-96.5 117.5t-36 170.5q0 224 142 375.5t385 150.5q121 -2 217.5 -43.5t158 -128t64.5 -207.5q1 -244 -144 -385.5t-384 -138.5zM815 1171q-2 55 -26 93.5t-78 38.5q-46 1 -80.5 -29t-53 -77.5t-27.5 -96.5t-9 -96q2 -64 26 -102.5
t80 -37.5q48 -1 83 30t52 81t25 99t8 97z" />
    <glyph glyph-name="guillemotright" unicode="&#xbb;" horiz-adv-x="1091" 
d="M266 117h-270l272 422l-112 411h270l125 -415zM739 117h-270l270 422l-110 411h270l127 -415z" />
    <glyph glyph-name="onequarter" unicode="&#xbc;" horiz-adv-x="1845" 
d="M274 684l117 549h-196l38 186h35q87 0 140 31q58 33 73 117h252l-186 -883h-273zM94 -82l1422 1681h249l-1421 -1681h-250zM1198 360h215l74 342h-6q-42 -73 -103 -141zM1724 176h-110l-37 -176h-248l37 176h-457l37 178l494 529h323l-106 -508h110z" />
    <glyph glyph-name="onehalf" unicode="&#xbd;" horiz-adv-x="1921" 
d="M274 684l117 549h-196l38 186h35q87 0 140 31q58 33 73 117h252l-186 -883h-273zM59 -82l1422 1681h250l-1422 -1681h-250zM1399 592h-271q19 147 123 226t291 79q143 0 229.5 -61t86.5 -179q0 -99 -56.5 -173t-159.5 -146l-196 -139v-4h342l-37 -195h-758l29 137
l414 320q109 84 130 108q31 34 31 74q0 35 -24.5 55.5t-63.5 20.5q-97 0 -110 -123z" />
    <glyph glyph-name="threequarters" unicode="&#xbe;" horiz-adv-x="2060" 
d="M573 1053h-118l32 151h97q57 0 94 33.5t37 81.5q0 36 -25 56t-63 20q-90 0 -111 -92h-268q17 117 117.5 197.5t281.5 80.5q157 0 246.5 -59.5t89.5 -157.5q0 -177 -197 -225v-4q152 -46 152 -183q0 -140 -111 -213t-295 -73q-178 0 -274 71.5t-84 210.5h262
q-1 -44 27.5 -68t75.5 -24q59 0 91 32.5t32 82.5q0 82 -89 82zM324 -82l1421 1681h250l-1422 -1681h-249zM1413 360h215l74 342h-6q-42 -73 -103 -141zM1939 176h-110l-37 -176h-248l37 176h-457l37 178l494 529h323l-106 -508h110z" />
    <glyph glyph-name="questiondown" unicode="&#xbf;" horiz-adv-x="1236" 
d="M508 883h344l-23 -109q-23 -111 -52.5 -166t-114.5 -110l-152 -99q-76 -49 -108.5 -97.5t-32.5 -113.5q0 -61 43 -96t123 -35q95 0 156.5 62t58.5 186h372q-2 -114 -39.5 -211t-110 -172.5t-191.5 -118.5t-273 -43q-147 0 -264 44t-188.5 135.5t-71.5 218.5
q0 135 58.5 232.5t195.5 187.5l176 116q40 27 57.5 61.5t28.5 88.5zM987 1386l-67 -348h-414l67 348h414z" />
    <glyph glyph-name="Agrave" unicode="&#xc0;" horiz-adv-x="1554" 
d="M870 1231q-17 -68 -102 -250l-184 -401h354l-47 389q-9 73 -13 138.5t-4 94.5v29h-4zM1020 0l-41 291h-535l-141 -291h-395l809 1567h448l260 -1567h-405zM1034 1966l78 -272h-283l-161 272h366z" />
    <glyph glyph-name="Aacute" unicode="&#xc1;" horiz-adv-x="1554" 
d="M870 1231q-17 -68 -102 -250l-184 -401h354l-47 389q-9 73 -13 138.5t-4 94.5v29h-4zM1020 0l-41 291h-535l-141 -291h-395l809 1567h448l260 -1567h-405zM797 1694l166 272h374l-250 -272h-290z" />
    <glyph glyph-name="Acircumflex" unicode="&#xc2;" horiz-adv-x="1554" 
d="M870 1231q-17 -68 -102 -250l-184 -401h354l-47 389q-9 73 -13 138.5t-4 94.5v29h-4zM1020 0l-41 291h-535l-141 -291h-395l809 1567h448l260 -1567h-405zM1174 1966l165 -272h-256l-104 92h-2l-133 -92h-260l272 272h318z" />
    <glyph glyph-name="Atilde" unicode="&#xc3;" horiz-adv-x="1554" 
d="M870 1231q-17 -68 -102 -250l-184 -401h354l-47 389q-9 73 -13 138.5t-4 94.5v29h-4zM1020 0l-41 291h-535l-141 -291h-395l809 1567h448l260 -1567h-405zM563 1671q6 81 44 156.5t111 128.5t163 53q52 0 96.5 -23t85 -46t82.5 -23q39 0 63.5 18t40.5 74h168
q-11 -147 -91.5 -242.5t-199.5 -95.5q-52 0 -98 14.5t-72.5 31.5t-58.5 31.5t-59 14.5q-68 0 -111 -92h-164z" />
    <glyph glyph-name="Adieresis" unicode="&#xc4;" horiz-adv-x="1554" 
d="M870 1231q-17 -68 -102 -250l-184 -401h354l-47 389q-9 73 -13 138.5t-4 94.5v29h-4zM1020 0l-41 291h-535l-141 -291h-395l809 1567h448l260 -1567h-405zM1018 1702l63 321h322l-64 -321h-321zM586 1702l63 321h322l-64 -321h-321z" />
    <glyph glyph-name="Aring" unicode="&#xc5;" horiz-adv-x="1554" 
d="M870 1231q-17 -68 -102 -250l-184 -401h354l-47 389q-9 73 -13 138.5t-4 94.5v29h-4zM1020 0l-41 291h-535l-141 -291h-395l809 1567h448l260 -1567h-405zM989 1618q-120 0 -202 60.5t-82 176.5q0 133 86.5 217.5t218.5 84.5q135 0 209.5 -66.5t74.5 -173.5
q0 -132 -86.5 -215.5t-218.5 -83.5zM1012 2009q-58 0 -90.5 -39.5t-32.5 -105.5q0 -47 26 -75t74 -28q51 0 85 40.5t34 103.5q0 47 -23.5 75.5t-72.5 28.5z" />
    <glyph glyph-name="AE" unicode="&#xc6;" horiz-adv-x="2217" 
d="M1083 621l123 643h-80q-86 -145 -145 -240l-256 -403h358zM963 0l63 324h-487l-205 -324h-451l1047 1567h1364l-60 -303h-620l-66 -338h600l-57 -295h-600l-64 -332h644l-58 -299h-1050z" />
    <glyph glyph-name="Ccedilla" unicode="&#xc7;" horiz-adv-x="1560" 
d="M629 -475q-60 0 -111.5 16t-86.5 57t-28 101h181q3 -41 59 -41q37 0 56.5 19.5t19.5 48.5q0 53 -57 53q-39 0 -62 -29h-131l109 236q-457 93 -457 622q0 156 34 300t104 267.5t168 215.5t234 144.5t295 53.5q140 1 250.5 -31t194.5 -100t128 -184t40 -273h-428
q11 139 -34.5 215.5t-164.5 73.5q-79 -2 -144.5 -47.5t-109 -118t-73.5 -168t-43 -195.5t-13 -202q0 -61 12 -111.5t38.5 -93t73 -66.5t110.5 -24q228 0 288 291h414q-36 -277 -227.5 -432.5t-485.5 -155.5q-30 0 -92 4l-47 -108h4q56 41 119 41q68 0 112 -41t44 -105
q0 -107 -75 -170t-218 -63z" />
    <glyph glyph-name="Egrave" unicode="&#xc8;" horiz-adv-x="1275" 
d="M27 0l303 1567h1022l-60 -303h-614l-66 -338h594l-57 -295h-592l-65 -332h641l-58 -299h-1048zM938 1966l78 -272h-283l-162 272h367z" />
    <glyph glyph-name="Eacute" unicode="&#xc9;" horiz-adv-x="1275" 
d="M27 0l303 1567h1022l-60 -303h-614l-66 -338h594l-57 -295h-592l-65 -332h641l-58 -299h-1048zM700 1694l166 272h375l-250 -272h-291z" />
    <glyph glyph-name="Ecircumflex" unicode="&#xca;" horiz-adv-x="1275" 
d="M27 0l303 1567h1022l-60 -303h-614l-66 -338h594l-57 -295h-592l-65 -332h641l-58 -299h-1048zM1077 1966l166 -272h-256l-104 92h-2l-133 -92h-261l273 272h317z" />
    <glyph glyph-name="Edieresis" unicode="&#xcb;" horiz-adv-x="1275" 
d="M27 0l303 1567h1022l-60 -303h-614l-66 -338h594l-57 -295h-592l-65 -332h641l-58 -299h-1048zM922 1702l63 321h322l-64 -321h-321zM489 1702l64 321h321l-63 -321h-322z" />
    <glyph glyph-name="Igrave" unicode="&#xcc;" horiz-adv-x="655" 
d="M27 0l303 1567h407l-303 -1567h-407zM631 1966l78 -272h-283l-162 272h367z" />
    <glyph glyph-name="Iacute" unicode="&#xcd;" horiz-adv-x="655" 
d="M27 0l303 1567h407l-303 -1567h-407zM393 1694l166 272h375l-250 -272h-291z" />
    <glyph glyph-name="Icircumflex" unicode="&#xce;" horiz-adv-x="655" 
d="M27 0l303 1567h407l-303 -1567h-407zM770 1966l166 -272h-256l-105 92h-2l-133 -92h-260l273 272h317z" />
    <glyph glyph-name="Idieresis" unicode="&#xcf;" horiz-adv-x="655" 
d="M27 0l303 1567h407l-303 -1567h-407zM614 1702l64 321h321l-63 -321h-322zM182 1702l64 321h321l-63 -321h-322z" />
    <glyph glyph-name="Eth" unicode="&#xd0;" horiz-adv-x="1554" 
d="M635 0h-608l127 651h-142l51 264h140l127 652h522q317 0 503.5 -168.5t186.5 -472.5q0 -197 -60 -365t-173 -293.5t-286 -196.5t-388 -71zM492 301h151q219 0 343 170t124 494q0 305 -301 305h-129l-70 -355h277l-51 -264h-277z" />
    <glyph glyph-name="Ntilde" unicode="&#xd1;" horiz-adv-x="1550" 
d="M27 0l303 1567h418l251 -699q27 -71 45.5 -139.5t23.5 -101.5l5 -33h6l189 973h362l-303 -1567h-377l-276 721q-28 70 -49 141.5t-28 107.5l-7 36h-6l-195 -1006h-362zM606 1671q6 81 44 156.5t111 128.5t163 53q52 0 96.5 -23t85 -46t82.5 -23q39 0 63.5 18t40.5 74h168
q-11 -147 -91.5 -242.5t-199.5 -95.5q-52 0 -98 14.5t-72.5 31.5t-58.5 31.5t-59 14.5q-68 0 -111 -92h-164z" />
    <glyph glyph-name="Ograve" unicode="&#xd2;" horiz-adv-x="1648" 
d="M123 608q-1 156 34.5 301.5t107 268.5t171 215t236 144t293.5 52q105 0 200 -22.5t179.5 -73t146 -125.5t97 -185.5t34.5 -246.5q-1 -157 -35.5 -301t-104.5 -265.5t-168.5 -211.5t-234.5 -140.5t-295 -50.5q-107 0 -199 18.5t-178.5 64.5t-147.5 117t-98 183.5
t-38 257.5zM1190 995q0 64 -13 117t-39.5 95.5t-73.5 66.5t-110 24q-84 0 -153.5 -49t-114 -126.5t-75 -177t-43.5 -196.5t-13 -190q0 -61 12 -111t38.5 -93.5t76 -68t119.5 -24.5q95 0 172 70.5t123 181.5t70 236t24 245zM1112 1966l78 -272h-283l-162 272h367z" />
    <glyph glyph-name="Oacute" unicode="&#xd3;" horiz-adv-x="1648" 
d="M123 608q-1 156 34.5 301.5t107 268.5t171 215t236 144t293.5 52q105 0 200 -22.5t179.5 -73t146 -125.5t97 -185.5t34.5 -246.5q-1 -157 -35.5 -301t-104.5 -265.5t-168.5 -211.5t-234.5 -140.5t-295 -50.5q-107 0 -199 18.5t-178.5 64.5t-147.5 117t-98 183.5
t-38 257.5zM1190 995q0 64 -13 117t-39.5 95.5t-73.5 66.5t-110 24q-84 0 -153.5 -49t-114 -126.5t-75 -177t-43.5 -196.5t-13 -190q0 -61 12 -111t38.5 -93.5t76 -68t119.5 -24.5q95 0 172 70.5t123 181.5t70 236t24 245zM872 1694l166 272h375l-250 -272h-291z" />
    <glyph glyph-name="Ocircumflex" unicode="&#xd4;" horiz-adv-x="1648" 
d="M123 608q-1 156 34.5 301.5t107 268.5t171 215t236 144t293.5 52q105 0 200 -22.5t179.5 -73t146 -125.5t97 -185.5t34.5 -246.5q-1 -157 -35.5 -301t-104.5 -265.5t-168.5 -211.5t-234.5 -140.5t-295 -50.5q-107 0 -199 18.5t-178.5 64.5t-147.5 117t-98 183.5
t-38 257.5zM1190 995q0 64 -13 117t-39.5 95.5t-73.5 66.5t-110 24q-84 0 -153.5 -49t-114 -126.5t-75 -177t-43.5 -196.5t-13 -190q0 -61 12 -111t38.5 -93.5t76 -68t119.5 -24.5q95 0 172 70.5t123 181.5t70 236t24 245zM1249 1966l166 -272h-256l-104 92h-2l-133 -92
h-261l273 272h317z" />
    <glyph glyph-name="Otilde" unicode="&#xd5;" horiz-adv-x="1648" 
d="M123 608q-1 156 34.5 301.5t107 268.5t171 215t236 144t293.5 52q105 0 200 -22.5t179.5 -73t146 -125.5t97 -185.5t34.5 -246.5q-1 -157 -35.5 -301t-104.5 -265.5t-168.5 -211.5t-234.5 -140.5t-295 -50.5q-107 0 -199 18.5t-178.5 64.5t-147.5 117t-98 183.5
t-38 257.5zM1190 995q0 64 -13 117t-39.5 95.5t-73.5 66.5t-110 24q-84 0 -153.5 -49t-114 -126.5t-75 -177t-43.5 -196.5t-13 -190q0 -61 12 -111t38.5 -93.5t76 -68t119.5 -24.5q95 0 172 70.5t123 181.5t70 236t24 245zM641 1671q5 60 28.5 119t62.5 108.5t98.5 80
t127.5 30.5q41 0 79 -14.5t61.5 -31.5t57 -31.5t67.5 -14.5q39 0 63.5 18t40.5 74h168q-11 -147 -91.5 -242.5t-199.5 -95.5q-52 0 -98 14.5t-73 31.5t-59 31.5t-59 14.5q-67 0 -110 -92h-164z" />
    <glyph glyph-name="Odieresis" unicode="&#xd6;" horiz-adv-x="1648" 
d="M123 608q-1 156 34.5 301.5t107 268.5t171 215t236 144t293.5 52q105 0 200 -22.5t179.5 -73t146 -125.5t97 -185.5t34.5 -246.5q-1 -157 -35.5 -301t-104.5 -265.5t-168.5 -211.5t-234.5 -140.5t-295 -50.5q-107 0 -199 18.5t-178.5 64.5t-147.5 117t-98 183.5
t-38 257.5zM1190 995q0 64 -13 117t-39.5 95.5t-73.5 66.5t-110 24q-84 0 -153.5 -49t-114 -126.5t-75 -177t-43.5 -196.5t-13 -190q0 -61 12 -111t38.5 -93.5t76 -68t119.5 -24.5q95 0 172 70.5t123 181.5t70 236t24 245zM1096 1702l63 321h322l-64 -321h-321zM664 1702
l63 321h322l-64 -321h-321z" />
    <glyph glyph-name="multiply" unicode="&#xd7;" horiz-adv-x="1300" 
d="M285 168l-189 240l375 319l-276 346l254 213l270 -344l364 320l191 -244l-369 -313l271 -345l-256 -215l-265 347z" />
    <glyph glyph-name="Oslash" unicode="&#xd8;" horiz-adv-x="1648" 
d="M952 1303q-88 0 -161 -53t-119.5 -135t-78.5 -184t-45.5 -196t-12.5 -176l628 633q-60 111 -211 111zM801 258q81 0 150 50.5t115.5 130.5t79.5 179t48 195.5t14 181.5l-628 -630q66 -107 221 -107zM1622 936q-1 -157 -35.5 -301t-104.5 -265.5t-168.5 -211.5
t-234.5 -140.5t-295 -50.5q-292 0 -462 139l-156 -157h-238l285 284q-90 148 -90 375q-1 156 34.5 301.5t107 268.5t171 215t236 144t293.5 52q275 0 450 -145l178 180h240l-307 -307q96 -154 96 -381z" />
    <glyph glyph-name="Ugrave" unicode="&#xd9;" horiz-adv-x="1523" 
d="M131 608l186 959h408l-193 -979q-30 -151 29 -226q57 -71 193 -71q121 0 186 74q54 62 80 196l194 1006h402l-199 -1022q-57 -288 -229 -433t-453 -145q-142 0 -254 30.5t-187 86t-120.5 135t-54 177.5t11.5 212zM1067 1966l78 -272h-283l-162 272h367z" />
    <glyph glyph-name="Uacute" unicode="&#xda;" horiz-adv-x="1523" 
d="M131 608l186 959h408l-193 -979q-30 -151 29 -226q57 -71 193 -71q121 0 186 74q54 62 80 196l194 1006h402l-199 -1022q-57 -288 -229 -433t-453 -145q-142 0 -254 30.5t-187 86t-120.5 135t-54 177.5t11.5 212zM829 1694l166 272h375l-250 -272h-291z" />
    <glyph glyph-name="Ucircumflex" unicode="&#xdb;" horiz-adv-x="1523" 
d="M131 608l186 959h408l-193 -979q-30 -151 29 -226q57 -71 193 -71q121 0 186 74q54 62 80 196l194 1006h402l-199 -1022q-57 -288 -229 -433t-453 -145q-142 0 -254 30.5t-187 86t-120.5 135t-54 177.5t11.5 212zM1204 1966l166 -272h-256l-104 92h-2l-134 -92h-260
l273 272h317z" />
    <glyph glyph-name="Udieresis" unicode="&#xdc;" horiz-adv-x="1523" 
d="M131 608l186 959h408l-193 -979q-30 -151 29 -226q57 -71 193 -71q121 0 186 74q54 62 80 196l194 1006h402l-199 -1022q-57 -288 -229 -433t-453 -145q-142 0 -254 30.5t-187 86t-120.5 135t-54 177.5t11.5 212zM1051 1702l63 321h322l-64 -321h-321zM618 1702l64 321
h322l-64 -321h-322z" />
    <glyph glyph-name="Yacute" unicode="&#xdd;" horiz-adv-x="1445" 
d="M424 0l131 680l-328 887h422l178 -559h4l373 559h424l-674 -936l-123 -631h-407zM797 1694l166 272h374l-250 -272h-290z" />
    <glyph glyph-name="Thorn" unicode="&#xde;" horiz-adv-x="1370" 
d="M725 598h12q107 3 171.5 55.5t68.5 151.5q3 103 -60 152t-176 49h-112l-80 -408h176zM758 317h-262l-62 -317h-407l303 1567h407l-55 -289h139q125 0 225 -26t176 -80.5t115 -146.5t35 -216q-5 -134 -53.5 -231t-133 -153t-190 -82t-237.5 -26z" />
    <glyph glyph-name="germandbls" unicode="&#xdf;" horiz-adv-x="1347" 
d="M10 0l221 1174q19 98 63 177.5t116 142.5t180 97.5t244 34.5q99 0 183 -22t152 -68t106.5 -124t37.5 -181q-2 -139 -77.5 -244t-215.5 -139v-8q118 -26 185 -115.5t67 -224.5q0 -131 -50.5 -230t-139.5 -156.5t-200 -85.5t-243 -28h-119l53 279h58q108 0 174.5 63
t66.5 186q0 88 -47.5 137.5t-126.5 49.5h-18l55 276h27q97 0 148 58.5t51 171.5q0 65 -35.5 111t-102.5 46q-72 0 -123 -50t-69 -148l-228 -1180h-393z" />
    <glyph glyph-name="agrave" unicode="&#xe0;" horiz-adv-x="1220" 
d="M532 225q145 0 181 230l6 30q-129 -3 -182 -16q-119 -30 -119 -129q0 -55 31.5 -85t82.5 -30zM514 766h-373q19 178 156.5 272.5t380.5 94.5q113 0 199.5 -23.5t140 -66t84.5 -102.5t34 -133.5t-12 -158.5l-57 -295q-10 -51 8.5 -68.5t69.5 -19.5l-53 -266h-134
q-46 0 -78 4t-67 15.5t-60 37t-40 64.5h-6q-80 -75 -148.5 -103t-183.5 -28q-146 0 -243 79.5t-97 231.5q0 117 59.5 204t186.5 128q33 11 72 19t69 12t82.5 7t77 3.5t89 2t85.5 1.5l10 59q13 73 -16 111.5t-95 38.5q-124 0 -141 -121zM844 1614l37 -369h-291l-117 369h371z
" />
    <glyph glyph-name="aacute" unicode="&#xe1;" horiz-adv-x="1220" 
d="M532 225q145 0 181 230l6 30q-129 -3 -182 -16q-119 -30 -119 -129q0 -55 31.5 -85t82.5 -30zM514 766h-373q19 178 156.5 272.5t380.5 94.5q113 0 199.5 -23.5t140 -66t84.5 -102.5t34 -133.5t-12 -158.5l-57 -295q-10 -51 8.5 -68.5t69.5 -19.5l-53 -266h-134
q-46 0 -78 4t-67 15.5t-60 37t-40 64.5h-6q-80 -75 -148.5 -103t-183.5 -28q-146 0 -243 79.5t-97 231.5q0 117 59.5 204t186.5 128q33 11 72 19t69 12t82.5 7t77 3.5t89 2t85.5 1.5l10 59q13 73 -16 111.5t-95 38.5q-124 0 -141 -121zM555 1245l170 369h381l-250 -369h-301
z" />
    <glyph glyph-name="acircumflex" unicode="&#xe2;" horiz-adv-x="1220" 
d="M532 225q145 0 181 230l6 30q-129 -3 -182 -16q-119 -30 -119 -129q0 -55 31.5 -85t82.5 -30zM514 766h-373q19 178 156.5 272.5t380.5 94.5q113 0 199.5 -23.5t140 -66t84.5 -102.5t34 -133.5t-12 -158.5l-57 -295q-10 -51 8.5 -68.5t69.5 -19.5l-53 -266h-134
q-46 0 -78 4t-67 15.5t-60 37t-40 64.5h-6q-80 -75 -148.5 -103t-183.5 -28q-146 0 -243 79.5t-97 231.5q0 117 59.5 204t186.5 128q33 11 72 19t69 12t82.5 7t77 3.5t89 2t85.5 1.5l10 59q13 73 -16 111.5t-95 38.5q-124 0 -141 -121zM938 1614l154 -369h-238l-104 131
l-144 -131h-250l297 369h285z" />
    <glyph glyph-name="atilde" unicode="&#xe3;" horiz-adv-x="1220" 
d="M532 225q145 0 181 230l6 30q-129 -3 -182 -16q-119 -30 -119 -129q0 -55 31.5 -85t82.5 -30zM514 766h-373q19 178 156.5 272.5t380.5 94.5q113 0 199.5 -23.5t140 -66t84.5 -102.5t34 -133.5t-12 -158.5l-57 -295q-10 -51 8.5 -68.5t69.5 -19.5l-53 -266h-134
q-46 0 -78 4t-67 15.5t-60 37t-40 64.5h-6q-80 -75 -148.5 -103t-183.5 -28q-146 0 -243 79.5t-97 231.5q0 117 59.5 204t186.5 128q33 11 72 19t69 12t82.5 7t77 3.5t89 2t85.5 1.5l10 59q13 73 -16 111.5t-95 38.5q-124 0 -141 -121zM330 1245q10 148 98.5 258.5
t224.5 110.5q41 0 78 -14.5t59.5 -31.5t51.5 -31.5t57 -14.5q74 0 123 92h168q-9 -97 -48 -179t-111 -136t-163 -54q-41 0 -80 14.5t-63.5 31.5t-55.5 31.5t-59 14.5q-73 0 -116 -92h-164z" />
    <glyph glyph-name="adieresis" unicode="&#xe4;" horiz-adv-x="1220" 
d="M532 225q145 0 181 230l6 30q-129 -3 -182 -16q-119 -30 -119 -129q0 -55 31.5 -85t82.5 -30zM514 766h-373q19 178 156.5 272.5t380.5 94.5q113 0 199.5 -23.5t140 -66t84.5 -102.5t34 -133.5t-12 -158.5l-57 -295q-10 -51 8.5 -68.5t69.5 -19.5l-53 -266h-134
q-46 0 -78 4t-67 15.5t-60 37t-40 64.5h-6q-80 -75 -148.5 -103t-183.5 -28q-146 0 -243 79.5t-97 231.5q0 117 59.5 204t186.5 128q33 11 72 19t69 12t82.5 7t77 3.5t89 2t85.5 1.5l10 59q13 73 -16 111.5t-95 38.5q-124 0 -141 -121zM788 1292l64 322h322l-64 -322h-322z
M356 1292l64 322h321l-63 -322h-322z" />
    <glyph glyph-name="aring" unicode="&#xe5;" horiz-adv-x="1220" 
d="M532 225q145 0 181 230l6 30q-129 -3 -182 -16q-119 -30 -119 -129q0 -55 31.5 -85t82.5 -30zM514 766h-373q19 178 156.5 272.5t380.5 94.5q113 0 199.5 -23.5t140 -66t84.5 -102.5t34 -133.5t-12 -158.5l-57 -295q-10 -51 8.5 -68.5t69.5 -19.5l-53 -266h-134
q-46 0 -78 4t-67 15.5t-60 37t-40 64.5h-6q-80 -75 -148.5 -103t-183.5 -28q-146 0 -243 79.5t-97 231.5q0 117 59.5 204t186.5 128q33 11 72 19t69 12t82.5 7t77 3.5t89 2t85.5 1.5l10 59q13 73 -16 111.5t-95 38.5q-124 0 -141 -121zM758 1208q-120 0 -202.5 61t-82.5 177
q0 132 86.5 216.5t218.5 84.5q135 0 210 -66.5t75 -173.5q0 -132 -86.5 -215.5t-218.5 -83.5zM780 1599q-58 0 -90.5 -39.5t-32.5 -105.5q0 -47 26 -74.5t75 -27.5q51 0 85 40t34 103q0 47 -24 75.5t-73 28.5z" />
    <glyph glyph-name="ae" unicode="&#xe6;" horiz-adv-x="1898" 
d="M1470 672l3 16q29 209 -121 209q-73 0 -128 -59.5t-85 -165.5h331zM532 225q145 0 181 230l6 30q-129 -3 -182 -16q-119 -30 -119 -129q0 -55 31.5 -85t82.5 -30zM1798 340q-63 -354 -536 -354q-171 0 -270.5 45.5t-160.5 140.5h-4q-36 -41 -70.5 -69.5t-85.5 -56.5
t-120.5 -42t-157.5 -14q-161 0 -259.5 78.5t-98.5 232.5q0 117 59.5 204t186.5 128q33 11 72 19t69 12t82.5 7t77 3.5t89 2t85.5 1.5l10 59q13 73 -16 111.5t-95 38.5q-124 0 -141 -121h-373q19 178 157 272.5t382 94.5q235 0 328 -144h2q133 146 358 146q116 0 207 -30
t147 -84t90 -128.5t37 -164t-14 -189.5l-14 -74h-713v-31q0 -108 37.5 -155.5t116.5 -47.5q59 0 101.5 28.5t51.5 80.5h383z" />
    <glyph glyph-name="ccedilla" unicode="&#xe7;" horiz-adv-x="1282" 
d="M467 -475q-60 0 -111 16t-86 57t-28 101h180q3 -41 59 -41q37 0 56.5 19.5t19.5 48.5q0 53 -57 53q-39 0 -62 -29h-131l111 240q-105 26 -181 79.5t-123.5 151t-47.5 230.5q0 150 43.5 275.5t125.5 216.5t206 141.5t278 50.5q249 0 392.5 -121.5t133.5 -335.5h-399
q14 196 -135 199q-59 1 -106.5 -40.5t-75.5 -108t-43 -144t-15 -154.5q0 -96 40.5 -146.5t117.5 -50.5q79 0 131 53.5t69 149.5h381q-11 -117 -63.5 -208t-135 -146.5t-184.5 -84t-217 -28.5q-28 0 -82 4l-47 -110h4q56 41 119 41q68 0 112 -41t44 -105q0 -107 -75 -170
t-218 -63z" />
    <glyph glyph-name="egrave" unicode="&#xe8;" horiz-adv-x="1261" 
d="M825 672l2 16q29 209 -122 209q-77 0 -132.5 -59.5t-83.5 -165.5h336zM1161 340q-33 -185 -179.5 -278t-377.5 -93q-245 0 -393 124.5t-148 357.5q0 141 46 265t129 217.5t208.5 147.5t276.5 54q117 0 208 -30t148.5 -84t92.5 -128.5t39 -164t-13 -189.5l-14 -74h-721
v-31q0 -203 153 -203q60 0 102.5 28.5t51.5 80.5h391zM893 1614l37 -369h-291l-117 369h371z" />
    <glyph glyph-name="eacute" unicode="&#xe9;" horiz-adv-x="1261" 
d="M825 672l2 16q29 209 -122 209q-77 0 -132.5 -59.5t-83.5 -165.5h336zM1161 340q-33 -185 -179.5 -278t-377.5 -93q-245 0 -393 124.5t-148 357.5q0 141 46 265t129 217.5t208.5 147.5t276.5 54q117 0 208 -30t148.5 -84t92.5 -128.5t39 -164t-13 -189.5l-14 -74h-721
v-31q0 -203 153 -203q60 0 102.5 28.5t51.5 80.5h391zM604 1245l170 369h381l-250 -369h-301z" />
    <glyph glyph-name="ecircumflex" unicode="&#xea;" horiz-adv-x="1261" 
d="M825 672l2 16q29 209 -122 209q-77 0 -132.5 -59.5t-83.5 -165.5h336zM1161 340q-33 -185 -179.5 -278t-377.5 -93q-245 0 -393 124.5t-148 357.5q0 141 46 265t129 217.5t208.5 147.5t276.5 54q117 0 208 -30t148.5 -84t92.5 -128.5t39 -164t-13 -189.5l-14 -74h-721
v-31q0 -203 153 -203q60 0 102.5 28.5t51.5 80.5h391zM989 1614l154 -369h-238l-104 131l-144 -131h-249l297 369h284z" />
    <glyph glyph-name="edieresis" unicode="&#xeb;" horiz-adv-x="1261" 
d="M825 672l2 16q29 209 -122 209q-77 0 -132.5 -59.5t-83.5 -165.5h336zM1161 340q-33 -185 -179.5 -278t-377.5 -93q-245 0 -393 124.5t-148 357.5q0 141 46 265t129 217.5t208.5 147.5t276.5 54q117 0 208 -30t148.5 -84t92.5 -128.5t39 -164t-13 -189.5l-14 -74h-721
v-31q0 -203 153 -203q60 0 102.5 28.5t51.5 80.5h391zM840 1292l63 322h322l-64 -322h-321zM408 1292l63 322h322l-64 -322h-321z" />
    <glyph glyph-name="igrave" unicode="&#xec;" horiz-adv-x="610" 
d="M10 0l215 1108h393l-215 -1108h-393zM567 1614l37 -369h-291l-116 369h370z" />
    <glyph glyph-name="iacute" unicode="&#xed;" horiz-adv-x="610" 
d="M10 0l215 1108h393l-215 -1108h-393zM279 1245l170 369h380l-249 -369h-301z" />
    <glyph glyph-name="icircumflex" unicode="&#xee;" horiz-adv-x="610" 
d="M664 1614l131 -369h-238l-82 131l-123 -131h-250l277 369h285zM10 0l215 1108h393l-215 -1108h-393z" />
    <glyph glyph-name="idieresis" unicode="&#xef;" horiz-adv-x="610" 
d="M502 1292l61 322h268l-61 -322h-268zM147 1292l62 322h266l-61 -322h-267zM10 0l215 1108h393l-215 -1108h-393z" />
    <glyph glyph-name="eth" unicode="&#xf0;" horiz-adv-x="1298" 
d="M598 -29q-88 0 -165.5 17t-145.5 54.5t-116.5 93t-76.5 137.5t-28 184q0 125 39.5 243.5t110 212.5t180 151.5t239.5 57.5q151 0 227 -96h4q-45 132 -170 244l-311 -117l-41 137l219 82q-93 64 -219 119l307 141q135 -50 252 -131l219 82l43 -137l-137 -51
q240 -243 240 -584q0 -223 -49 -387.5t-140 -262t-210.5 -144t-270.5 -46.5zM852 684q0 50 -11 91.5t-44.5 74.5t-85.5 33q-51 0 -93 -30.5t-69 -78.5t-45.5 -109.5t-26.5 -119.5t-8 -111q0 -203 147 -203q53 0 95.5 31.5t68 79.5t42.5 111t23.5 120t6.5 111z" />
    <glyph glyph-name="ntilde" unicode="&#xf1;" horiz-adv-x="1335" 
d="M735 0l119 614q14 75 14 113q0 63 -28 93t-92 30q-90 0 -150.5 -74t-85.5 -209l-106 -567h-396l215 1108h379l-39 -199h4q65 106 164.5 162.5t224.5 56.5q182 0 261.5 -116.5t37.5 -339.5l-129 -672h-393zM412 1245q10 148 98.5 258.5t224.5 110.5q41 0 78 -14.5
t59.5 -31.5t51.5 -31.5t57 -14.5q74 0 123 92h168q-9 -97 -48 -179t-111 -136t-163 -54q-41 0 -80 14.5t-63.5 31.5t-55.5 31.5t-59 14.5q-74 0 -117 -92h-163z" />
    <glyph glyph-name="ograve" unicode="&#xf2;" horiz-adv-x="1298" 
d="M600 -31q-112 0 -206 28t-168.5 84t-117 151t-42.5 219q0 140 44.5 264t126 217.5t205.5 148t275 54.5q112 0 209 -31t170.5 -90t116 -152t42.5 -209q0 -314 -180.5 -499t-474.5 -185zM852 684q0 36 -7 67.5t-22.5 60t-44.5 45.5t-69 17q-51 0 -93 -30t-68.5 -76.5
t-45 -106.5t-26 -117t-7.5 -110q0 -203 147 -203q53 0 95.5 31.5t68 79.5t42.5 111t23.5 120t6.5 111zM885 1614l37 -369h-291l-117 369h371z" />
    <glyph glyph-name="oacute" unicode="&#xf3;" horiz-adv-x="1298" 
d="M600 -31q-112 0 -206 28t-168.5 84t-117 151t-42.5 219q0 140 44.5 264t126 217.5t205.5 148t275 54.5q112 0 209 -31t170.5 -90t116 -152t42.5 -209q0 -314 -180.5 -499t-474.5 -185zM852 684q0 36 -7 67.5t-22.5 60t-44.5 45.5t-69 17q-51 0 -93 -30t-68.5 -76.5
t-45 -106.5t-26 -117t-7.5 -110q0 -203 147 -203q53 0 95.5 31.5t68 79.5t42.5 111t23.5 120t6.5 111zM596 1245l170 369h381l-250 -369h-301z" />
    <glyph glyph-name="ocircumflex" unicode="&#xf4;" horiz-adv-x="1298" 
d="M600 -31q-112 0 -206 28t-168.5 84t-117 151t-42.5 219q0 140 44.5 264t126 217.5t205.5 148t275 54.5q112 0 209 -31t170.5 -90t116 -152t42.5 -209q0 -314 -180.5 -499t-474.5 -185zM852 684q0 36 -7 67.5t-22.5 60t-44.5 45.5t-69 17q-51 0 -93 -30t-68.5 -76.5
t-45 -106.5t-26 -117t-7.5 -110q0 -203 147 -203q53 0 95.5 31.5t68 79.5t42.5 111t23.5 120t6.5 111zM979 1614l154 -369h-238l-104 131l-144 -131h-250l297 369h285z" />
    <glyph glyph-name="otilde" unicode="&#xf5;" horiz-adv-x="1298" 
d="M600 -31q-112 0 -206 28t-168.5 84t-117 151t-42.5 219q0 140 44.5 264t126 217.5t205.5 148t275 54.5q112 0 209 -31t170.5 -90t116 -152t42.5 -209q0 -314 -180.5 -499t-474.5 -185zM852 684q0 36 -7 67.5t-22.5 60t-44.5 45.5t-69 17q-51 0 -93 -30t-68.5 -76.5
t-45 -106.5t-26 -117t-7.5 -110q0 -203 147 -203q53 0 95.5 31.5t68 79.5t42.5 111t23.5 120t6.5 111zM371 1245q10 148 98.5 258.5t224.5 110.5q41 0 78 -14.5t59.5 -31.5t51.5 -31.5t57 -14.5q74 0 123 92h168q-9 -97 -48 -179t-111 -136t-163 -54q-41 0 -80 14.5
t-63.5 31.5t-55.5 31.5t-59 14.5q-73 0 -116 -92h-164z" />
    <glyph glyph-name="odieresis" unicode="&#xf6;" horiz-adv-x="1298" 
d="M600 -31q-112 0 -206 28t-168.5 84t-117 151t-42.5 219q0 140 44.5 264t126 217.5t205.5 148t275 54.5q112 0 209 -31t170.5 -90t116 -152t42.5 -209q0 -314 -180.5 -499t-474.5 -185zM852 684q0 36 -7 67.5t-22.5 60t-44.5 45.5t-69 17q-51 0 -93 -30t-68.5 -76.5
t-45 -106.5t-26 -117t-7.5 -110q0 -203 147 -203q53 0 95.5 31.5t68 79.5t42.5 111t23.5 120t6.5 111zM829 1292l64 322h321l-63 -322h-322zM397 1292l64 322h321l-63 -322h-322z" />
    <glyph glyph-name="divide" unicode="&#xf7;" horiz-adv-x="1269" 
d="M545 999l67 347h369l-68 -347h-368zM160 594l53 278h983l-53 -278h-983zM741 115h-368l67 346h369z" />
    <glyph glyph-name="oslash" unicode="&#xf8;" horiz-adv-x="1298" 
d="M453 446l378 377q-43 64 -120 64q-65 0 -116 -44t-80.5 -113t-44.5 -141.5t-17 -142.5zM614 221q52 0 95 28.5t71 72.5t47.5 102.5t28.5 114t12 110.5l-374 -373q45 -55 120 -55zM1255 653q0 -314 -180.5 -499t-474.5 -185q-195 0 -332 82l-143 -141h-211l242 242
q-90 117 -90 299q0 140 44.5 264t126 217.5t205.5 148t275 54.5q196 0 338 -91l151 152h211l-254 -252q92 -119 92 -291z" />
    <glyph glyph-name="ugrave" unicode="&#xf9;" horiz-adv-x="1310" 
d="M606 1108l-121 -621q-10 -62 -10 -92q0 -75 32 -105t91 -30q75 0 132 68.5t83 197.5l113 582h393l-215 -1108h-379l37 190h-4q-63 -98 -156.5 -153t-208.5 -55q-193 0 -274.5 113.5t-38.5 330.5l133 682h393zM913 1614l37 -369h-291l-116 369h370z" />
    <glyph glyph-name="uacute" unicode="&#xfa;" horiz-adv-x="1310" 
d="M606 1108l-121 -621q-10 -62 -10 -92q0 -75 32 -105t91 -30q75 0 132 68.5t83 197.5l113 582h393l-215 -1108h-379l37 190h-4q-63 -98 -156.5 -153t-208.5 -55q-193 0 -274.5 113.5t-38.5 330.5l133 682h393zM625 1245l170 369h381l-250 -369h-301z" />
    <glyph glyph-name="ucircumflex" unicode="&#xfb;" horiz-adv-x="1310" 
d="M606 1108l-121 -621q-10 -62 -10 -92q0 -75 32 -105t91 -30q75 0 132 68.5t83 197.5l113 582h393l-215 -1108h-379l37 190h-4q-63 -98 -156.5 -153t-208.5 -55q-193 0 -274.5 113.5t-38.5 330.5l133 682h393zM1008 1614l153 -369h-237l-105 131l-143 -131h-250l297 369
h285z" />
    <glyph glyph-name="udieresis" unicode="&#xfc;" horiz-adv-x="1310" 
d="M606 1108l-121 -621q-10 -62 -10 -92q0 -75 32 -105t91 -30q75 0 132 68.5t83 197.5l113 582h393l-215 -1108h-379l37 190h-4q-63 -98 -156.5 -153t-208.5 -55q-193 0 -274.5 113.5t-38.5 330.5l133 682h393zM858 1292l64 322h321l-63 -322h-322zM426 1292l63 322h322
l-63 -322h-322z" />
    <glyph glyph-name="yacute" unicode="&#xfd;" horiz-adv-x="1202" 
d="M326 -8l-197 1116h395l54 -522q5 -60 6 -125.5t0 -100.5l-2 -36h4q37 121 86 227l246 557h389l-609 -1161q-98 -188 -222.5 -271.5t-338.5 -83.5q-26 0 -50.5 1.5t-43.5 3.5t-35.5 4.5t-28 4.5t-19.5 4t-11 3.5t-2 1.5l53 276q40 -10 117 -10q86 0 134 22.5t71 78.5z
M586 1245l170 369h381l-250 -369h-301z" />
    <glyph glyph-name="thorn" unicode="&#xfe;" horiz-adv-x="1335" 
d="M643 229q76 0 133.5 64.5t85 161.5t27.5 207q0 202 -148 202q-76 0 -137 -59.5t-82 -167.5l-26 -141q-24 -122 14.5 -194.5t132.5 -72.5zM-63 -385l387 1999h393l-131 -678h6q120 192 338 192q169 0 265.5 -118.5t96.5 -327.5q0 -101 -19.5 -199t-63.5 -191
t-107.5 -163.5t-159.5 -113t-211 -42.5q-102 0 -183 45.5t-112 116.5h-6l-100 -520h-393z" />
    <glyph glyph-name="ydieresis" unicode="&#xff;" horiz-adv-x="1202" 
d="M326 -8l-197 1116h395l54 -522q5 -60 6 -125.5t0 -100.5l-2 -36h4q37 121 86 227l246 557h389l-609 -1161q-98 -188 -222.5 -271.5t-338.5 -83.5q-26 0 -50.5 1.5t-43.5 3.5t-35.5 4.5t-28 4.5t-19.5 4t-11 3.5t-2 1.5l53 276q40 -10 117 -10q86 0 134 22.5t71 78.5z
M819 1292l64 322h321l-63 -322h-322zM387 1292l64 322h321l-63 -322h-322z" />
    <glyph glyph-name="Amacron" unicode="&#x100;" horiz-adv-x="1554" 
d="M870 1231q-17 -68 -102 -250l-184 -401h354l-47 389q-9 73 -13 138.5t-4 94.5v29h-4zM1020 0l-41 291h-535l-141 -291h-395l809 1567h448l260 -1567h-405zM594 1702l47 246h741l-47 -246h-741z" />
    <glyph glyph-name="amacron" unicode="&#x101;" horiz-adv-x="1220" 
d="M532 225q145 0 181 230l6 30q-129 -3 -182 -16q-119 -30 -119 -129q0 -55 31.5 -85t82.5 -30zM514 766h-373q19 178 156.5 272.5t380.5 94.5q113 0 199.5 -23.5t140 -66t84.5 -102.5t34 -133.5t-12 -158.5l-57 -295q-10 -51 8.5 -68.5t69.5 -19.5l-53 -266h-134
q-46 0 -78 4t-67 15.5t-60 37t-40 64.5h-6q-80 -75 -148.5 -103t-183.5 -28q-146 0 -243 79.5t-97 231.5q0 117 59.5 204t186.5 128q33 11 72 19t69 12t82.5 7t77 3.5t89 2t85.5 1.5l10 59q13 73 -16 111.5t-95 38.5q-124 0 -141 -121zM362 1292l48 246h741l-47 -246h-742z
" />
    <glyph glyph-name="Abreve" unicode="&#x102;" horiz-adv-x="1554" 
d="M870 1231q-17 -68 -102 -250l-184 -401h354l-47 389q-9 73 -13 138.5t-4 94.5v29h-4zM1020 0l-41 291h-535l-141 -291h-395l809 1567h448l260 -1567h-405zM662 1993h225q-5 -53 23 -86t77 -33q53 0 89 32.5t50 86.5h240q-28 -178 -137.5 -259t-270.5 -81
q-148 0 -236.5 91.5t-59.5 248.5z" />
    <glyph glyph-name="abreve" unicode="&#x103;" horiz-adv-x="1220" 
d="M532 225q145 0 181 230l6 30q-129 -3 -182 -16q-119 -30 -119 -129q0 -55 31.5 -85t82.5 -30zM514 766h-373q19 178 156.5 272.5t380.5 94.5q113 0 199.5 -23.5t140 -66t84.5 -102.5t34 -133.5t-12 -158.5l-57 -295q-10 -51 8.5 -68.5t69.5 -19.5l-53 -266h-134
q-46 0 -78 4t-67 15.5t-60 37t-40 64.5h-6q-80 -75 -148.5 -103t-183.5 -28q-146 0 -243 79.5t-97 231.5q0 117 59.5 204t186.5 128q33 11 72 19t69 12t82.5 7t77 3.5t89 2t85.5 1.5l10 59q13 73 -16 111.5t-95 38.5q-124 0 -141 -121zM737 1235q-165 0 -251 101t-50 278
h238q-12 -61 11.5 -94t72.5 -33q51 0 86 32.5t47 94.5h250q-10 -100 -50.5 -176t-99 -119t-122.5 -63.5t-132 -20.5z" />
    <glyph glyph-name="Aogonek" unicode="&#x104;" horiz-adv-x="1554" 
d="M1346 -385h-64q-152 0 -215 37t-63 117q0 72 40.5 125.5t135.5 105.5h-160l-41 291h-535l-141 -291h-395l809 1567h448l256 -1553q-114 -65 -114 -133q0 -23 20 -38t59 -15zM870 1231q-17 -68 -102 -250l-184 -401h354l-47 389q-9 73 -13 138.5t-4 94.5v29h-4z" />
    <glyph glyph-name="aogonek" unicode="&#x105;" horiz-adv-x="1220" 
d="M891 -6v6q-47 8 -75 17.5t-56.5 35t-46.5 68.5h-6q-80 -75 -148.5 -103t-183.5 -28q-146 0 -243 79.5t-97 231.5q0 117 59.5 204t186.5 128q33 11 72 19t69 12t82.5 7t77 3.5t89 2t85.5 1.5l10 59q24 150 -111 150q-124 0 -141 -121h-373q19 178 157 272.5t382 94.5
q275 0 381.5 -131.5t60.5 -366.5l-55 -281q-10 -51 8.5 -68.5t69.5 -19.5l-53 -258q-115 -66 -115 -133q0 -47 80 -47l-41 -213h-72q-154 0 -212 36.5t-58 121.5q0 75 57.5 132.5t159.5 88.5zM532 225q44 0 75.5 17t51.5 51.5t31.5 70t22.5 89.5l6 32q-129 -3 -182 -16
q-119 -30 -119 -129q0 -55 31.5 -85t82.5 -30z" />
    <glyph glyph-name="Cacute" unicode="&#x106;" horiz-adv-x="1560" 
d="M1569 1001h-428q11 139 -34.5 215.5t-164.5 73.5q-79 -2 -144.5 -47.5t-109 -118t-73.5 -168t-43 -195.5t-13 -202q0 -61 12 -111.5t38.5 -93t73 -66.5t110.5 -24q228 0 288 291h414q-36 -277 -227.5 -432.5t-485.5 -155.5q-152 0 -271 36t-207.5 111.5t-135.5 200
t-47 293.5q0 156 34 300t104 267.5t168 215.5t234 144.5t295 53.5q140 1 250.5 -31t194.5 -100t128 -184t40 -273zM856 1694l166 272h375l-250 -272h-291z" />
    <glyph glyph-name="cacute" unicode="&#x107;" horiz-adv-x="1282" 
d="M1245 678h-399q14 196 -135 199q-59 1 -106.5 -40.5t-75.5 -108t-43 -144t-15 -154.5q0 -96 40.5 -146.5t117.5 -50.5q79 0 131 53.5t69 149.5h381q-11 -117 -63.5 -208t-135 -146.5t-184.5 -84t-217 -28.5q-89 0 -167 15t-148.5 51t-120 90.5t-79 137.5t-29.5 188
q0 150 43.5 275.5t125.5 216.5t206 141.5t278 50.5q249 0 392.5 -121.5t133.5 -335.5zM608 1245l170 369h381l-250 -369h-301z" />
    <glyph glyph-name="Ccircumflex" unicode="&#x108;" horiz-adv-x="1560" 
d="M1569 1001h-428q11 139 -34.5 215.5t-164.5 73.5q-79 -2 -144.5 -47.5t-109 -118t-73.5 -168t-43 -195.5t-13 -202q0 -61 12 -111.5t38.5 -93t73 -66.5t110.5 -24q228 0 288 291h414q-36 -277 -227.5 -432.5t-485.5 -155.5q-152 0 -271 36t-207.5 111.5t-135.5 200
t-47 293.5q0 156 34 300t104 267.5t168 215.5t234 144.5t295 53.5q140 1 250.5 -31t194.5 -100t128 -184t40 -273zM1212 1966l166 -272h-256l-104 92h-2l-133 -92h-260l272 272h317z" />
    <glyph glyph-name="ccircumflex" unicode="&#x109;" horiz-adv-x="1282" 
d="M1245 678h-399q14 196 -135 199q-59 1 -106.5 -40.5t-75.5 -108t-43 -144t-15 -154.5q0 -96 40.5 -146.5t117.5 -50.5q79 0 131 53.5t69 149.5h381q-11 -117 -63.5 -208t-135 -146.5t-184.5 -84t-217 -28.5q-89 0 -167 15t-148.5 51t-120 90.5t-79 137.5t-29.5 188
q0 150 43.5 275.5t125.5 216.5t206 141.5t278 50.5q249 0 392.5 -121.5t133.5 -335.5zM993 1614l154 -369h-238l-104 131l-143 -131h-250l297 369h284z" />
    <glyph glyph-name="Cdotaccent" unicode="&#x10a;" horiz-adv-x="1560" 
d="M1569 1001h-428q11 139 -34.5 215.5t-164.5 73.5q-79 -2 -144.5 -47.5t-109 -118t-73.5 -168t-43 -195.5t-13 -202q0 -61 12 -111.5t38.5 -93t73 -66.5t110.5 -24q228 0 288 291h414q-36 -277 -227.5 -432.5t-485.5 -155.5q-152 0 -271 36t-207.5 111.5t-135.5 200
t-47 293.5q0 156 34 300t104 267.5t168 215.5t234 144.5t295 53.5q140 1 250.5 -31t194.5 -100t128 -184t40 -273zM862 1702l64 321h321l-63 -321h-322z" />
    <glyph glyph-name="cdotaccent" unicode="&#x10b;" horiz-adv-x="1282" 
d="M1245 678h-399q14 196 -135 199q-59 1 -106.5 -40.5t-75.5 -108t-43 -144t-15 -154.5q0 -96 40.5 -146.5t117.5 -50.5q79 0 131 53.5t69 149.5h381q-11 -117 -63.5 -208t-135 -146.5t-184.5 -84t-217 -28.5q-89 0 -167 15t-148.5 51t-120 90.5t-79 137.5t-29.5 188
q0 150 43.5 275.5t125.5 216.5t206 141.5t278 50.5q249 0 392.5 -121.5t133.5 -335.5zM627 1292l63 322h322l-64 -322h-321z" />
    <glyph glyph-name="Ccaron" unicode="&#x10c;" horiz-adv-x="1560" 
d="M1569 1001h-428q11 139 -34.5 215.5t-164.5 73.5q-79 -2 -144.5 -47.5t-109 -118t-73.5 -168t-43 -195.5t-13 -202q0 -61 12 -111.5t38.5 -93t73 -66.5t110.5 -24q228 0 288 291h414q-36 -277 -227.5 -432.5t-485.5 -155.5q-152 0 -271 36t-207.5 111.5t-135.5 200
t-47 293.5q0 156 34 300t104 267.5t168 215.5t234 144.5t295 53.5q140 1 250.5 -31t194.5 -100t128 -184t40 -273zM817 1694l-166 272h252l105 -92h2l135 92h262l-272 -272h-318z" />
    <glyph glyph-name="ccaron" unicode="&#x10d;" horiz-adv-x="1282" 
d="M1245 678h-399q14 196 -135 199q-59 1 -106.5 -40.5t-75.5 -108t-43 -144t-15 -154.5q0 -96 40.5 -146.5t117.5 -50.5q79 0 131 53.5t69 149.5h381q-11 -117 -63.5 -208t-135 -146.5t-184.5 -84t-217 -28.5q-89 0 -167 15t-148.5 51t-120 90.5t-79 137.5t-29.5 188
q0 150 43.5 275.5t125.5 216.5t206 141.5t278 50.5q249 0 392.5 -121.5t133.5 -335.5zM631 1245l-154 369h238l98 -131l152 131h247l-297 -369h-284z" />
    <glyph glyph-name="Dcaron" unicode="&#x10e;" horiz-adv-x="1554" 
d="M27 0l303 1567h522q317 0 503.5 -168.5t186.5 -472.5q0 -197 -60 -365t-173 -293.5t-286 -196.5t-388 -71h-608zM492 301h151q219 0 343 170t124 494q0 305 -301 305h-129zM735 1694l-166 272h252l105 -92h2l135 92h262l-272 -272h-318z" />
    <glyph glyph-name="dcaron" unicode="&#x10f;" horiz-adv-x="1349" 
d="M719 866q-74 0 -131 -62t-85 -160t-28 -212q0 -203 143 -203q77 0 140 60t84 170l26 141q26 126 -13.5 196t-135.5 70zM1456 1614l-313 -1614h-379l31 158h-4q-130 -187 -336 -187q-182 0 -283.5 127t-101.5 334q0 99 22 197t68.5 188t111.5 159t157 110.5t198 41.5
q212 0 305 -165h4l127 651h393zM1505 1204l80 410h295l-201 -410h-174z" />
    <glyph glyph-name="Dcroat" unicode="&#x110;" horiz-adv-x="1554" 
d="M635 0h-608l127 651h-142l51 264h140l127 652h522q317 0 503.5 -168.5t186.5 -472.5q0 -197 -60 -365t-173 -293.5t-286 -196.5t-388 -71zM492 301h151q219 0 343 170t124 494q0 305 -301 305h-129l-70 -355h277l-51 -264h-277z" />
    <glyph glyph-name="dcroat" unicode="&#x111;" horiz-adv-x="1349" 
d="M719 866q-74 0 -131 -62t-85 -160t-28 -212q0 -203 143 -203q77 0 140 60t84 170l26 141q26 126 -13.5 196t-135.5 70zM791 158q-130 -187 -336 -187q-182 0 -283.5 127t-101.5 334q0 99 22 197t68.5 188t111.5 159t157 110.5t198 41.5q212 0 305 -165h4l51 262h-295
l43 223h295l33 166h393l-33 -166h158l-43 -223h-158l-237 -1225h-379l31 158h-4z" />
    <glyph glyph-name="Emacron" unicode="&#x112;" horiz-adv-x="1275" 
d="M27 0l303 1567h1022l-60 -303h-614l-66 -338h594l-57 -295h-592l-65 -332h641l-58 -299h-1048zM498 1702l47 246h741l-47 -246h-741z" />
    <glyph glyph-name="emacron" unicode="&#x113;" horiz-adv-x="1261" 
d="M825 672l2 16q29 209 -122 209q-77 0 -132.5 -59.5t-83.5 -165.5h336zM1161 340q-33 -185 -179.5 -278t-377.5 -93q-245 0 -393 124.5t-148 357.5q0 141 46 265t129 217.5t208.5 147.5t276.5 54q117 0 208 -30t148.5 -84t92.5 -128.5t39 -164t-13 -189.5l-14 -74h-721
v-31q0 -203 153 -203q60 0 102.5 28.5t51.5 80.5h391zM414 1292l47 246h741l-47 -246h-741z" />
    <glyph glyph-name="Ebreve" unicode="&#x114;" horiz-adv-x="1275" 
d="M27 0l303 1567h1022l-60 -303h-614l-66 -338h594l-57 -295h-592l-65 -332h641l-58 -299h-1048zM565 1993h226q-5 -53 23 -86t77 -33q53 0 89 32.5t50 86.5h240q-28 -178 -137.5 -259t-270.5 -81q-148 0 -237 91.5t-60 248.5z" />
    <glyph glyph-name="ebreve" unicode="&#x115;" horiz-adv-x="1261" 
d="M825 672l2 16q29 209 -122 209q-77 0 -132.5 -59.5t-83.5 -165.5h336zM1161 340q-33 -185 -179.5 -278t-377.5 -93q-245 0 -393 124.5t-148 357.5q0 141 46 265t129 217.5t208.5 147.5t276.5 54q117 0 208 -30t148.5 -84t92.5 -128.5t39 -164t-13 -189.5l-14 -74h-721
v-31q0 -203 153 -203q60 0 102.5 28.5t51.5 80.5h391zM788 1235q-165 0 -251 101t-50 278h238q-12 -61 11.5 -94t72.5 -33q51 0 86 32.5t47 94.5h250q-10 -100 -50.5 -176t-99 -119t-122.5 -63.5t-132 -20.5z" />
    <glyph glyph-name="Edotaccent" unicode="&#x116;" horiz-adv-x="1275" 
d="M27 0l303 1567h1022l-60 -303h-614l-66 -338h594l-57 -295h-592l-65 -332h641l-58 -299h-1048zM705 1702l63 321h322l-64 -321h-321z" />
    <glyph glyph-name="edotaccent" unicode="&#x117;" horiz-adv-x="1261" 
d="M825 672l2 16q29 209 -122 209q-77 0 -132.5 -59.5t-83.5 -165.5h336zM1161 340q-33 -185 -179.5 -278t-377.5 -93q-245 0 -393 124.5t-148 357.5q0 141 46 265t129 217.5t208.5 147.5t276.5 54q117 0 208 -30t148.5 -84t92.5 -128.5t39 -164t-13 -189.5l-14 -74h-721
v-31q0 -203 153 -203q60 0 102.5 28.5t51.5 80.5h391zM623 1292l63 322h322l-64 -322h-321z" />
    <glyph glyph-name="Eogonek" unicode="&#x118;" horiz-adv-x="1275" 
d="M1040 -176l-39 -209h-71q-150 0 -207 35.5t-57 118.5q0 70 51 132t151 99h-841l303 1567h1022l-60 -303h-614l-66 -338h594l-57 -295h-592l-65 -332h641l-58 -299q-112 -66 -112 -131q0 -45 77 -45z" />
    <glyph glyph-name="eogonek" unicode="&#x119;" horiz-adv-x="1261" 
d="M825 672l2 16q29 209 -120 209q-73 0 -128 -59.5t-85 -165.5h331zM844 -172l-41 -213h-72q-154 0 -212 36.5t-58 121.5q0 67 41 113t127 81v4q-13 -2 -25 -2q-245 0 -393 124.5t-148 357.5q0 141 46 265t129 217.5t208.5 147.5t276.5 54q117 0 208 -30t148.5 -84
t92.5 -128.5t39 -164t-13 -189.5l-14 -74h-721v-31q0 -203 153 -203q60 0 102.5 28.5t51.5 80.5h391q-19 -103 -75 -181t-168 -132q-89 -42 -121.5 -77.5t-32.5 -70.5q0 -23 20 -37t60 -14z" />
    <glyph glyph-name="Ecaron" unicode="&#x11a;" horiz-adv-x="1275" 
d="M27 0l303 1567h1022l-60 -303h-614l-66 -338h594l-57 -295h-592l-65 -332h641l-58 -299h-1048zM700 1694l-165 272h251l105 -92h2l135 92h262l-272 -272h-318z" />
    <glyph glyph-name="ecaron" unicode="&#x11b;" horiz-adv-x="1261" 
d="M825 672l2 16q29 209 -122 209q-77 0 -132.5 -59.5t-83.5 -165.5h336zM1161 340q-33 -185 -179.5 -278t-377.5 -93q-245 0 -393 124.5t-148 357.5q0 141 46 265t129 217.5t208.5 147.5t276.5 54q117 0 208 -30t148.5 -84t92.5 -128.5t39 -164t-13 -189.5l-14 -74h-721
v-31q0 -203 153 -203q60 0 102.5 28.5t51.5 80.5h391zM627 1245l-154 369h238l98 -131l152 131h247l-297 -369h-284z" />
    <glyph glyph-name="Gcircumflex" unicode="&#x11c;" horiz-adv-x="1605" 
d="M1577 1061h-424q9 116 -43 176.5t-154 60.5q-81 0 -148.5 -46.5t-112 -121t-76.5 -171.5t-46.5 -194t-17.5 -192q-2 -65 9.5 -119.5t37.5 -100t73.5 -71t112.5 -26.5q129 -1 208.5 77.5t103.5 211.5l6 35h-289l53 280h695l-166 -860h-316l39 205h-6q-47 -102 -156 -170
t-268 -68q-266 0 -417.5 160.5t-151.5 470.5q0 158 36 305t108 272t172 218t237 145t295 51q134 -1 242.5 -30.5t192.5 -90t129 -164t42 -243.5zM1239 1966l166 -272h-256l-105 92h-2l-133 -92h-260l273 272h317z" />
    <glyph glyph-name="gcircumflex" unicode="&#x11d;" horiz-adv-x="1337" 
d="M850 498l20 110q23 113 -13 185.5t-128 72.5q-82 0 -140.5 -59.5t-83.5 -144.5t-24 -181q2 -92 44 -142t120 -50q74 0 130 58t75 151zM6 -41h371q-1 -60 42 -89.5t107 -29.5q104 0 159 55t77 158l31 152h-5q-116 -160 -315 -160q-184 0 -289.5 106.5t-105.5 315.5
q0 172 67 322t195.5 244.5t290.5 94.5q123 0 201.5 -51.5t111.5 -134.5h4l33 166h381l-197 -1010q-52 -264 -213 -385t-438 -121q-146 0 -249 29t-158.5 81.5t-79 115t-21.5 141.5zM1022 1614l154 -369h-238l-104 131l-144 -131h-250l297 369h285z" />
    <glyph glyph-name="Gbreve" unicode="&#x11e;" horiz-adv-x="1605" 
d="M1577 1061h-424q9 116 -43 176.5t-154 60.5q-81 0 -148.5 -46.5t-112 -121t-76.5 -171.5t-46.5 -194t-17.5 -192q-2 -65 9.5 -119.5t37.5 -100t73.5 -71t112.5 -26.5q129 -1 208.5 77.5t103.5 211.5l6 35h-289l53 280h695l-166 -860h-316l39 205h-6q-47 -102 -156 -170
t-268 -68q-266 0 -417.5 160.5t-151.5 470.5q0 158 36 305t108 272t172 218t237 145t295 51q134 -1 242.5 -30.5t192.5 -90t129 -164t42 -243.5zM727 1993h225q-5 -53 23.5 -86t77.5 -33q53 0 89 32.5t50 86.5h240q-28 -178 -137.5 -259t-270.5 -81q-148 0 -237 91.5
t-60 248.5z" />
    <glyph glyph-name="gbreve" unicode="&#x11f;" horiz-adv-x="1337" 
d="M850 498l20 110q23 113 -13 185.5t-128 72.5q-82 0 -140.5 -59.5t-83.5 -144.5t-24 -181q2 -92 44 -142t120 -50q74 0 130 58t75 151zM6 -41h371q-1 -60 42 -89.5t107 -29.5q104 0 159 55t77 158l31 152h-5q-116 -160 -315 -160q-184 0 -289.5 106.5t-105.5 315.5
q0 172 67 322t195.5 244.5t290.5 94.5q123 0 201.5 -51.5t111.5 -134.5h4l33 166h381l-197 -1010q-52 -264 -213 -385t-438 -121q-146 0 -249 29t-158.5 81.5t-79 115t-21.5 141.5zM821 1235q-165 0 -251 101t-50 278h238q-12 -61 11.5 -94t72.5 -33q51 0 86 32.5t47 94.5
h250q-10 -100 -50.5 -176t-99 -119t-122.5 -63.5t-132 -20.5z" />
    <glyph glyph-name="Gdotaccent" unicode="&#x120;" horiz-adv-x="1605" 
d="M1577 1061h-424q9 116 -43 176.5t-154 60.5q-81 0 -148.5 -46.5t-112 -121t-76.5 -171.5t-46.5 -194t-17.5 -192q-2 -65 9.5 -119.5t37.5 -100t73.5 -71t112.5 -26.5q129 -1 208.5 77.5t103.5 211.5l6 35h-289l53 280h695l-166 -860h-316l39 205h-6q-47 -102 -156 -170
t-268 -68q-266 0 -417.5 160.5t-151.5 470.5q0 158 36 305t108 272t172 218t237 145t295 51q134 -1 242.5 -30.5t192.5 -90t129 -164t42 -243.5zM868 1702l64 321h321l-63 -321h-322z" />
    <glyph glyph-name="gdotaccent" unicode="&#x121;" horiz-adv-x="1337" 
d="M850 498l20 110q23 113 -13 185.5t-128 72.5q-82 0 -140.5 -59.5t-83.5 -144.5t-24 -181q2 -92 44 -142t120 -50q74 0 130 58t75 151zM6 -41h371q-1 -60 42 -89.5t107 -29.5q104 0 159 55t77 158l31 152h-5q-116 -160 -315 -160q-184 0 -289.5 106.5t-105.5 315.5
q0 172 67 322t195.5 244.5t290.5 94.5q123 0 201.5 -51.5t111.5 -134.5h4l33 166h381l-197 -1010q-52 -264 -213 -385t-438 -121q-146 0 -249 29t-158.5 81.5t-79 115t-21.5 141.5zM655 1292l64 322h321l-63 -322h-322z" />
    <glyph glyph-name="Gcommaaccent" unicode="&#x122;" horiz-adv-x="1605" 
d="M1577 1061h-424q9 116 -43 176.5t-154 60.5q-81 0 -148.5 -46.5t-112 -121t-76.5 -171.5t-46.5 -194t-17.5 -192q-2 -65 9.5 -119.5t37.5 -100t73.5 -71t112.5 -26.5q129 -1 208.5 77.5t103.5 211.5l6 35h-289l53 280h695l-166 -860h-316l39 205h-6q-47 -102 -156 -170
t-268 -68q-266 0 -417.5 160.5t-151.5 470.5q0 158 36 305t108 272t172 218t237 145t295 51q134 -1 242.5 -30.5t192.5 -90t129 -164t42 -243.5zM385 -467l119 340h370l-223 -340h-266z" />
    <glyph glyph-name="gcommaaccent" unicode="&#x123;" horiz-adv-x="1337" 
d="M850 498l20 110q23 113 -13 185.5t-128 72.5q-82 0 -140.5 -59.5t-83.5 -144.5t-24 -181q2 -92 44 -142t120 -50q74 0 130 58t75 151zM6 -41h371q-1 -60 42 -89.5t107 -29.5q104 0 159 55t77 158l31 152h-5q-116 -160 -315 -160q-184 0 -289.5 106.5t-105.5 315.5
q0 172 67 322t195.5 244.5t290.5 94.5q123 0 201.5 -51.5t111.5 -134.5h4l33 166h381l-197 -1010q-52 -264 -213 -385t-438 -121q-146 0 -249 29t-158.5 81.5t-79 115t-21.5 141.5zM1098 1614l-129 -369h-381l250 369h260z" />
    <glyph glyph-name="Hcircumflex" unicode="&#x124;" horiz-adv-x="1585" 
d="M555 623l-121 -623h-407l303 1567h407l-123 -635h519l122 635h410l-303 -1567h-410l121 623h-518zM1235 1966l166 -272h-256l-105 92h-2l-133 -92h-260l273 272h317z" />
    <glyph glyph-name="hcircumflex" unicode="&#x125;" horiz-adv-x="1323" 
d="M735 0l123 633q12 67 12 92q0 63 -28.5 94t-93.5 31q-90 0 -149.5 -72t-84.5 -207l-108 -571h-396l314 1614h393l-135 -694h4q59 101 154 154.5t218 53.5q182 0 262 -117.5t37 -340.5l-129 -670h-393zM1110 1966l166 -272h-256l-105 92h-2l-133 -92h-260l273 272h317z
" />
    <glyph glyph-name="Hbar" unicode="&#x126;" horiz-adv-x="1585" 
d="M614 932h519l41 215h-519zM555 623l-121 -623h-407l221 1147h-144l46 225h143l37 195h407l-37 -195h519l36 195h410l-37 -195h144l-46 -225h-143l-221 -1147h-410l121 623h-518z" />
    <glyph glyph-name="hbar" unicode="&#x127;" horiz-adv-x="1323" 
d="M514 571l-108 -571h-396l238 1225h-160l43 223h160l33 166h393l-33 -166h291l-43 -223h-291l-59 -305h4q59 101 154 154.5t218 53.5q182 0 262 -117.5t37 -340.5l-129 -670h-393l123 633q12 67 12 92q0 63 -28.5 94t-93.5 31q-90 0 -149.5 -72t-84.5 -207z" />
    <glyph glyph-name="Itilde" unicode="&#x128;" horiz-adv-x="655" 
d="M27 0l303 1567h407l-303 -1567h-407zM160 1671q5 60 28.5 119t62.5 108.5t98.5 80t127.5 30.5q52 0 96.5 -23t85 -46t82.5 -23q40 0 64.5 18t40.5 74h168q-11 -147 -91.5 -242.5t-199.5 -95.5q-52 0 -98 14.5t-73 31.5t-59 31.5t-59 14.5q-67 0 -110 -92h-164z" />
    <glyph glyph-name="itilde" unicode="&#x129;" horiz-adv-x="610" 
d="M94 1245q15 150 94 259.5t201 109.5q37 0 71.5 -14.5t55.5 -31.5t48 -31.5t52 -14.5q19 0 34 5t37.5 26.5t43.5 60.5h152q-13 -99 -48.5 -180t-99.5 -135t-145 -54q-49 0 -94 23t-82 46t-68 23q-61 0 -104 -92h-148zM10 0l215 1108h393l-215 -1108h-393z" />
    <glyph glyph-name="Imacron" unicode="&#x12a;" horiz-adv-x="655" 
d="M27 0l303 1567h407l-303 -1567h-407zM190 1702l48 246h741l-47 -246h-742z" />
    <glyph glyph-name="imacron" unicode="&#x12b;" horiz-adv-x="610" 
d="M162 1292l47 246h592l-45 -246h-594zM10 0l215 1108h393l-215 -1108h-393z" />
    <glyph glyph-name="Ibreve" unicode="&#x12c;" horiz-adv-x="655" 
d="M27 0l303 1567h407l-303 -1567h-407zM258 1993h225q-5 -53 23.5 -86t77.5 -33q53 0 89 32.5t50 86.5h240q-28 -178 -137.5 -259t-270.5 -81q-148 0 -237 91.5t-60 248.5z" />
    <glyph glyph-name="ibreve" unicode="&#x12d;" horiz-adv-x="610" 
d="M455 1235q-147 0 -222 101.5t-38 277.5h213q-12 -62 7.5 -94.5t63.5 -32.5q46 0 79.5 33t45.5 94h225q-13 -100 -51 -176t-91.5 -119t-111.5 -63.5t-120 -20.5zM10 0l215 1108h393l-215 -1108h-393z" />
    <glyph glyph-name="Iogonek" unicode="&#x12e;" horiz-adv-x="655" 
d="M358 -385h-71q-154 0 -212.5 36.5t-58.5 121.5q0 66 48 127.5t141 99.5h-178l303 1567h407l-301 -1555q-117 -71 -117 -137q0 -47 80 -47z" />
    <glyph glyph-name="iogonek" unicode="&#x12f;" horiz-adv-x="610" 
d="M256 1268l68 346h393l-68 -346h-393zM10 0l215 1108h393l-215 -1100q-114 -65 -114 -133q0 -47 80 -47l-41 -213h-72q-154 0 -212 36.5t-58 121.5q0 67 46.5 127t139.5 100h-162z" />
    <glyph glyph-name="Idotaccent" unicode="&#x130;" horiz-adv-x="655" 
d="M27 0l303 1567h407l-303 -1567h-407zM397 1702l64 321h321l-63 -321h-322z" />
    <glyph glyph-name="dotlessi" unicode="&#x131;" horiz-adv-x="610" 
d="M10 0l215 1108h393l-215 -1108h-393z" />
    <glyph glyph-name="IJ" unicode="&#x132;" horiz-adv-x="1509" 
d="M27 0l303 1567h407l-303 -1567h-407zM756 -6h-125l63 323h45q39 0 69.5 3t54.5 11.5t41.5 17.5t31 26.5t22.5 32t17.5 41.5t13.5 47.5t12 56.5l201 1014h402l-207 -1061q-30 -153 -79.5 -252t-129.5 -157t-181.5 -80.5t-250.5 -22.5z" />
    <glyph glyph-name="ij" unicode="&#x133;" horiz-adv-x="1232" 
d="M256 1268l68 346h393l-68 -346h-393zM10 0l215 1108h393l-215 -1108h-393zM879 1268l67 346h393l-67 -346h-393zM535 -430q-58 0 -104.5 7t-63.5 13l-17 7l49 260q33 -11 78 -11q126 0 152 140l219 1122h393l-223 -1143q-18 -91 -52.5 -160.5t-78.5 -113.5t-102 -71.5
t-118 -38.5t-132 -11z" />
    <glyph glyph-name="Jcircumflex" unicode="&#x134;" horiz-adv-x="915" 
d="M162 -6h-187l64 323h106q44 0 78 5t58.5 13t43.5 25t31 32.5t22 44.5t16 52t14 64l200 1014h402l-207 -1061q-30 -153 -79.5 -252t-129.5 -157t-181.5 -80.5t-250.5 -22.5zM1047 1966l165 -272h-256l-104 92h-2l-133 -92h-260l272 272h318z" />
    <glyph glyph-name="jcircumflex" unicode="&#x135;" horiz-adv-x="622" 
d="M676 1614l131 -369h-238l-82 131l-122 -131h-250l276 369h285zM-260 -403l49 260q33 -11 78 -11q125 0 151 140l220 1122h393l-223 -1143q-22 -113 -68.5 -192.5t-112.5 -122.5t-139.5 -61.5t-163.5 -18.5q-58 0 -104 7t-63 13z" />
    <glyph glyph-name="Kcommaaccent" unicode="&#x136;" horiz-adv-x="1499" 
d="M522 451l-88 -451h-407l303 1567h407l-121 -619l580 619h459l-676 -686l387 -881h-432l-262 606zM373 -467l119 340h370l-223 -340h-266z" />
    <glyph glyph-name="kcommaaccent" unicode="&#x137;" horiz-adv-x="1245" 
d="M449 274l-54 -274h-385l314 1614h385l-177 -912l388 406h419l-471 -475l271 -633h-398l-176 399zM244 -467l118 340h371l-223 -340h-266z" />
    <glyph glyph-name="kgreenlandic" unicode="&#x138;" horiz-adv-x="1269" 
d="M449 274l-54 -274h-385l215 1108h385l-80 -406l390 406h419l-471 -475l271 -633h-398l-176 399z" />
    <glyph glyph-name="Lacute" unicode="&#x139;" horiz-adv-x="1230" 
d="M27 0l303 1567h407l-243 -1256h608l-60 -311h-1015zM428 1694l166 272h375l-250 -272h-291z" />
    <glyph glyph-name="lacute" unicode="&#x13a;" horiz-adv-x="610" 
d="M10 0l314 1614h393l-314 -1614h-393zM371 1694l166 272h374l-249 -272h-291z" />
    <glyph glyph-name="Lcommaaccent" unicode="&#x13b;" horiz-adv-x="1230" 
d="M27 0l303 1567h407l-243 -1256h608l-60 -311h-1015zM219 -467l119 340h371l-224 -340h-266z" />
    <glyph glyph-name="lcommaaccent" unicode="&#x13c;" horiz-adv-x="610" 
d="M10 0l314 1614h393l-314 -1614h-393zM-109 -467l119 340h371l-223 -340h-267z" />
    <glyph glyph-name="Lcaron" unicode="&#x13d;" horiz-adv-x="1230" 
d="M797 1163l127 451h295l-248 -451h-174zM27 0l303 1567h407l-243 -1256h608l-60 -311h-1015z" />
    <glyph glyph-name="lcaron" unicode="&#x13e;" horiz-adv-x="610" 
d="M10 0l314 1614h393l-314 -1614h-393zM766 1204l80 410h295l-201 -410h-174z" />
    <glyph glyph-name="Ldot" unicode="&#x13f;" horiz-adv-x="1230" 
d="M27 0l303 1567h407l-243 -1256h608l-60 -311h-1015zM788 715l72 366h391l-71 -366h-392z" />
    <glyph glyph-name="ldot" unicode="&#x140;" horiz-adv-x="1095" 
d="M10 0l314 1614h393l-314 -1614h-393zM684 645l72 367h391l-72 -367h-391z" />
    <glyph glyph-name="Lslash" unicode="&#x141;" horiz-adv-x="1230" 
d="M27 0l102 524l-170 -49l55 285l170 49l146 758h407l-121 -629l443 131l-55 -285l-443 -131l-67 -342h608l-60 -311h-1015z" />
    <glyph glyph-name="lslash" unicode="&#x142;" horiz-adv-x="610" 
d="M403 0h-393l111 571l-158 -77l55 284l158 78l148 758h393l-105 -541l156 78l-55 -285l-156 -78z" />
    <glyph glyph-name="Nacute" unicode="&#x143;" horiz-adv-x="1550" 
d="M27 0l303 1567h418l251 -699q27 -71 45.5 -139.5t23.5 -101.5l5 -33h6l189 973h362l-303 -1567h-377l-276 721q-28 70 -49 141.5t-28 107.5l-7 36h-6l-195 -1006h-362zM840 1694l166 272h374l-250 -272h-290z" />
    <glyph glyph-name="nacute" unicode="&#x144;" horiz-adv-x="1335" 
d="M735 0l119 614q14 75 14 113q0 63 -28 93t-92 30q-90 0 -150.5 -74t-85.5 -209l-106 -567h-396l215 1108h379l-39 -199h4q65 106 164.5 162.5t224.5 56.5q182 0 261.5 -116.5t37.5 -339.5l-129 -672h-393zM637 1245l170 369h381l-250 -369h-301z" />
    <glyph glyph-name="Ncommaaccent" unicode="&#x145;" horiz-adv-x="1550" 
d="M27 0l303 1567h418l251 -699q27 -71 45.5 -139.5t23.5 -101.5l5 -33h6l189 973h362l-303 -1567h-377l-276 721q-28 70 -49 141.5t-28 107.5l-7 36h-6l-195 -1006h-362zM360 -467l119 340h371l-223 -340h-267z" />
    <glyph glyph-name="ncommaaccent" unicode="&#x146;" horiz-adv-x="1335" 
d="M735 0l119 614q14 75 14 113q0 63 -28 93t-92 30q-90 0 -150.5 -74t-85.5 -209l-106 -567h-396l215 1108h379l-39 -199h4q65 106 164.5 162.5t224.5 56.5q182 0 261.5 -116.5t37.5 -339.5l-129 -672h-393zM250 -467l119 340h370l-223 -340h-266z" />
    <glyph glyph-name="Ncaron" unicode="&#x147;" horiz-adv-x="1550" 
d="M27 0l303 1567h418l251 -699q27 -71 45.5 -139.5t23.5 -101.5l5 -33h6l189 973h362l-303 -1567h-377l-276 721q-28 70 -49 141.5t-28 107.5l-7 36h-6l-195 -1006h-362zM840 1694l-166 272h252l104 -92h2l135 92h263l-273 -272h-317z" />
    <glyph glyph-name="ncaron" unicode="&#x148;" horiz-adv-x="1335" 
d="M735 0l119 614q14 75 14 113q0 63 -28 93t-92 30q-90 0 -150.5 -74t-85.5 -209l-106 -567h-396l215 1108h379l-39 -199h4q65 106 164.5 162.5t224.5 56.5q182 0 261.5 -116.5t37.5 -339.5l-129 -672h-393zM659 1245l-153 369h237l99 -131l151 131h248l-297 -369h-285z
" />
    <glyph glyph-name="napostrophe" unicode="&#x149;" horiz-adv-x="1335" 
d="M735 0l119 614q14 75 14 113q0 63 -28 93t-92 30q-90 0 -150.5 -74t-85.5 -209l-106 -567h-396l215 1108h379l-39 -199h4q65 106 164.5 162.5t224.5 56.5q182 0 261.5 -116.5t37.5 -339.5l-129 -672h-393zM141 1233l119 340h371l-223 -340h-267z" />
    <glyph glyph-name="Eng" unicode="&#x14a;" horiz-adv-x="1550" 
d="M715 -362h-135l61 290h55q104 0 159 18.5t87 71.5l-268 703q-28 70 -49 141.5t-28 107.5l-7 36h-6l-195 -1006h-362l303 1567h418l251 -699q27 -71 45.5 -139.5t23.5 -101.5l5 -33h6l189 973h362l-231 -1200l-43 -217q-29 -153 -78.5 -252t-129.5 -157t-182 -80.5
t-251 -22.5z" />
    <glyph glyph-name="eng" unicode="&#x14b;" horiz-adv-x="1335" 
d="M639 -428q-58 0 -104 7t-63 13l-17 7l49 260q33 -11 78 -11q125 0 151 140l2 12l119 614q14 75 14 113q0 63 -28 93t-92 30q-90 0 -150.5 -74t-85.5 -209l-106 -567h-396l215 1108h379l-39 -199h4q65 106 164.5 162.5t224.5 56.5q182 0 261.5 -116.5t37.5 -339.5
l-67 -348h2l-70 -357q-18 -91 -52.5 -160.5t-78.5 -113.5t-102 -71.5t-118 -38.5t-132 -11z" />
    <glyph glyph-name="Omacron" unicode="&#x14c;" horiz-adv-x="1648" 
d="M123 608q-1 156 34.5 301.5t107 268.5t171 215t236 144t293.5 52q105 0 200 -22.5t179.5 -73t146 -125.5t97 -185.5t34.5 -246.5q-1 -157 -35.5 -301t-104.5 -265.5t-168.5 -211.5t-234.5 -140.5t-295 -50.5q-107 0 -199 18.5t-178.5 64.5t-147.5 117t-98 183.5
t-38 257.5zM1190 995q0 64 -13 117t-39.5 95.5t-73.5 66.5t-110 24q-84 0 -153.5 -49t-114 -126.5t-75 -177t-43.5 -196.5t-13 -190q0 -61 12 -111t38.5 -93.5t76 -68t119.5 -24.5q95 0 172 70.5t123 181.5t70 236t24 245zM670 1702l47 246h741l-47 -246h-741z" />
    <glyph glyph-name="omacron" unicode="&#x14d;" horiz-adv-x="1298" 
d="M600 -31q-112 0 -206 28t-168.5 84t-117 151t-42.5 219q0 140 44.5 264t126 217.5t205.5 148t275 54.5q112 0 209 -31t170.5 -90t116 -152t42.5 -209q0 -314 -180.5 -499t-474.5 -185zM852 684q0 36 -7 67.5t-22.5 60t-44.5 45.5t-69 17q-51 0 -93 -30t-68.5 -76.5
t-45 -106.5t-26 -117t-7.5 -110q0 -203 147 -203q53 0 95.5 31.5t68 79.5t42.5 111t23.5 120t6.5 111zM406 1292l47 246h741l-47 -246h-741z" />
    <glyph glyph-name="Obreve" unicode="&#x14e;" horiz-adv-x="1648" 
d="M123 608q-1 156 34.5 301.5t107 268.5t171 215t236 144t293.5 52q105 0 200 -22.5t179.5 -73t146 -125.5t97 -185.5t34.5 -246.5q-1 -157 -35.5 -301t-104.5 -265.5t-168.5 -211.5t-234.5 -140.5t-295 -50.5q-107 0 -199 18.5t-178.5 64.5t-147.5 117t-98 183.5
t-38 257.5zM1190 995q0 64 -13 117t-39.5 95.5t-73.5 66.5t-110 24q-84 0 -153.5 -49t-114 -126.5t-75 -177t-43.5 -196.5t-13 -190q0 -61 12 -111t38.5 -93.5t76 -68t119.5 -24.5q95 0 172 70.5t123 181.5t70 236t24 245zM737 1993h226q-5 -53 23 -86t77 -33q53 0 89 32.5
t50 86.5h240q-28 -178 -137.5 -259t-270.5 -81q-148 0 -237 91.5t-60 248.5z" />
    <glyph glyph-name="obreve" unicode="&#x14f;" horiz-adv-x="1298" 
d="M600 -31q-112 0 -206 28t-168.5 84t-117 151t-42.5 219q0 140 44.5 264t126 217.5t205.5 148t275 54.5q112 0 209 -31t170.5 -90t116 -152t42.5 -209q0 -314 -180.5 -499t-474.5 -185zM852 684q0 36 -7 67.5t-22.5 60t-44.5 45.5t-69 17q-51 0 -93 -30t-68.5 -76.5
t-45 -106.5t-26 -117t-7.5 -110q0 -203 147 -203q53 0 95.5 31.5t68 79.5t42.5 111t23.5 120t6.5 111zM780 1235q-165 0 -251 101t-50 278h238q-12 -61 11.5 -94t72.5 -33q51 0 86 32.5t47 94.5h250q-10 -100 -50.5 -176t-99 -119t-122.5 -63.5t-132 -20.5z" />
    <glyph glyph-name="Ohungarumlaut" unicode="&#x150;" horiz-adv-x="1648" 
d="M123 608q-1 156 34.5 301.5t107 268.5t171 215t236 144t293.5 52q105 0 200 -22.5t179.5 -73t146 -125.5t97 -185.5t34.5 -246.5q-1 -157 -35.5 -301t-104.5 -265.5t-168.5 -211.5t-234.5 -140.5t-295 -50.5q-107 0 -199 18.5t-178.5 64.5t-147.5 117t-98 183.5
t-38 257.5zM1190 995q0 64 -13 117t-39.5 95.5t-73.5 66.5t-110 24q-84 0 -153.5 -49t-114 -126.5t-75 -177t-43.5 -196.5t-13 -190q0 -61 12 -111t38.5 -93.5t76 -68t119.5 -24.5q95 0 172 70.5t123 181.5t70 236t24 245zM1094 1694l127 272h288l-194 -272h-221zM735 1694
l86 272h289l-154 -272h-221z" />
    <glyph glyph-name="ohungarumlaut" unicode="&#x151;" horiz-adv-x="1298" 
d="M600 -31q-112 0 -206 28t-168.5 84t-117 151t-42.5 219q0 140 44.5 264t126 217.5t205.5 148t275 54.5q112 0 209 -31t170.5 -90t116 -152t42.5 -209q0 -314 -180.5 -499t-474.5 -185zM852 684q0 36 -7 67.5t-22.5 60t-44.5 45.5t-69 17q-51 0 -93 -30t-68.5 -76.5
t-45 -106.5t-26 -117t-7.5 -110q0 -203 147 -203q53 0 95.5 31.5t68 79.5t42.5 111t23.5 120t6.5 111zM821 1245l174 369h295l-243 -369h-226zM467 1245l135 369h295l-203 -369h-227z" />
    <glyph glyph-name="OE" unicode="&#x152;" horiz-adv-x="2269" 
d="M805 262q118 0 213 102t127 271l47 250q12 62 14 118.5t-10 111.5t-39.5 94.5t-78 64t-120.5 24.5q-84 0 -153.5 -49t-114 -126.5t-75 -177t-43.5 -196.5t-13 -190q0 -61 12 -111t38.5 -93.5t76 -68t119.5 -24.5zM1038 133q-68 -78 -155 -122t-215 -44q-50 0 -98.5 7.5
t-103.5 27t-103.5 50.5t-93.5 81.5t-77 115.5t-50.5 157t-18.5 202q1 274 98.5 495t282.5 351.5t426 130.5q124 0 218 -43t142 -129h4l29 154h1022l-59 -303h-615l-65 -338h594l-58 -295h-592l-65 -332h641l-58 -299h-1048l24 133h-6z" />
    <glyph glyph-name="oe" unicode="&#x153;" horiz-adv-x="2019" 
d="M1583 672l2 16q29 209 -121 209q-73 0 -128 -59.5t-85 -165.5h332zM852 684q0 36 -7 67.5t-22.5 60t-44.5 45.5t-69 17q-51 0 -93 -30t-68.5 -76.5t-45 -106.5t-26 -117t-7.5 -110q0 -203 147 -203q53 0 95.5 31.5t68 79.5t42.5 111t23.5 120t6.5 111zM1919 340
q-33 -185 -179.5 -278t-377.5 -93q-278 0 -391 158q-151 -158 -396 -158q-106 0 -195.5 28t-161 84t-112 151t-40.5 219q0 140 44.5 264t126 217.5t205.5 148t275 54.5q263 0 366 -164q157 164 398 164q117 0 208 -30t148.5 -84t92.5 -128.5t39 -164t-13 -189.5l-14 -74
h-721v-31q0 -203 153 -203q60 0 102.5 28.5t51.5 80.5h391z" />
    <glyph glyph-name="Racute" unicode="&#x154;" horiz-adv-x="1456" 
d="M596 842h176q129 0 203 66t74 198q0 98 -53.5 142t-182.5 44h-129zM543 559l-109 -559h-407l303 1567h526q189 0 311 -41q134 -44 211.5 -145t77.5 -265q0 -369 -352 -489v-4l260 -623h-422l-223 559h-176zM754 1694l166 272h374l-250 -272h-290z" />
    <glyph glyph-name="racute" unicode="&#x155;" horiz-adv-x="897" 
d="M10 0l215 1108h371l-51 -256h4q153 272 420 272h16l-70 -364h-22q-72 0 -122.5 -6.5t-100 -26.5t-83 -55.5t-61 -94.5t-43.5 -143l-84 -434h-389zM461 1245l170 369h381l-250 -369h-301z" />
    <glyph glyph-name="Rcommaaccent" unicode="&#x156;" horiz-adv-x="1456" 
d="M596 842h176q129 0 203 66t74 198q0 98 -53.5 142t-182.5 44h-129zM543 559l-109 -559h-407l303 1567h526q189 0 311 -41q134 -44 211.5 -145t77.5 -265q0 -369 -352 -489v-4l260 -623h-422l-223 559h-176zM348 -467l119 340h371l-224 -340h-266z" />
    <glyph glyph-name="rcommaaccent" unicode="&#x157;" horiz-adv-x="897" 
d="M10 0l215 1108h371l-51 -256h4q153 272 420 272h16l-70 -364h-22q-72 0 -122.5 -6.5t-100 -26.5t-83 -55.5t-61 -94.5t-43.5 -143l-84 -434h-389zM-123 -467l119 340h371l-224 -340h-266z" />
    <glyph glyph-name="Rcaron" unicode="&#x158;" horiz-adv-x="1456" 
d="M596 842h176q129 0 203 66t74 198q0 98 -53.5 142t-182.5 44h-129zM543 559l-109 -559h-407l303 1567h526q189 0 311 -41q134 -44 211.5 -145t77.5 -265q0 -369 -352 -489v-4l260 -623h-422l-223 559h-176zM725 1694l-166 272h252l104 -92h3l135 92h262l-273 -272h-317z
" />
    <glyph glyph-name="rcaron" unicode="&#x159;" horiz-adv-x="897" 
d="M10 0l215 1108h371l-51 -256h4q153 272 420 272h16l-70 -364h-22q-72 0 -122.5 -6.5t-100 -26.5t-83 -55.5t-61 -94.5t-43.5 -143l-84 -434h-389zM483 1245l-153 369h237l99 -131l151 131h248l-297 -369h-285z" />
    <glyph glyph-name="Sacute" unicode="&#x15a;" horiz-adv-x="1386" 
d="M31 453h428q-5 -91 44 -141t167 -50q104 0 169.5 50t65.5 130q0 107 -162 146l-196 49q-201 51 -290 152.5t-89 259.5q0 128 50.5 232t137.5 170.5t201.5 102t245.5 35.5q102 0 187.5 -14t160 -47t124.5 -83.5t76.5 -128.5t20.5 -177h-411q4 76 -43.5 115.5t-131.5 39.5
q-92 0 -147 -45t-55 -121q0 -30 12.5 -52.5t38.5 -38t53 -25t68 -19.5l205 -51q190 -47 277 -151.5t87 -249.5q0 -257 -186.5 -415.5t-483.5 -158.5q-202 0 -342.5 50.5t-216 161t-65.5 274.5zM696 1694l166 272h375l-250 -272h-291z" />
    <glyph glyph-name="sacute" unicode="&#x15b;" horiz-adv-x="1110" 
d="M1063 782h-340q4 56 -34 82.5t-95 26.5t-90 -26.5t-33 -63.5q0 -38 35.5 -59t99.5 -33l142 -31q146 -32 207 -100.5t61 -198.5t-68.5 -224.5t-184 -141t-263.5 -46.5q-77 0 -143 9t-131.5 34t-111 64t-73 103.5t-25.5 148.5h355q-1 -61 36 -88t103 -27t107.5 24t41.5 74
q0 64 -98 84l-131 27q-163 34 -236 108.5t-73 210.5q0 95 39 171t106.5 124.5t155.5 74.5t188 26q224 0 343.5 -91t109.5 -262zM477 1245l170 369h381l-250 -369h-301z" />
    <glyph glyph-name="Scircumflex" unicode="&#x15c;" horiz-adv-x="1386" 
d="M31 453h428q-5 -91 44 -141t167 -50q104 0 169.5 50t65.5 130q0 107 -162 146l-196 49q-201 51 -290 152.5t-89 259.5q0 128 50.5 232t137.5 170.5t201.5 102t245.5 35.5q102 0 187.5 -14t160 -47t124.5 -83.5t76.5 -128.5t20.5 -177h-411q4 76 -43.5 115.5t-131.5 39.5
q-92 0 -147 -45t-55 -121q0 -30 12.5 -52.5t38.5 -38t53 -25t68 -19.5l205 -51q190 -47 277 -151.5t87 -249.5q0 -257 -186.5 -415.5t-483.5 -158.5q-202 0 -342.5 50.5t-216 161t-65.5 274.5zM1073 1966l166 -272h-256l-104 92h-2l-134 -92h-260l273 272h317z" />
    <glyph glyph-name="scircumflex" unicode="&#x15d;" horiz-adv-x="1110" 
d="M1063 782h-340q4 56 -34 82.5t-95 26.5t-90 -26.5t-33 -63.5q0 -38 35.5 -59t99.5 -33l142 -31q146 -32 207 -100.5t61 -198.5t-68.5 -224.5t-184 -141t-263.5 -46.5q-77 0 -143 9t-131.5 34t-111 64t-73 103.5t-25.5 148.5h355q-1 -61 36 -88t103 -27t107.5 24t41.5 74
q0 64 -98 84l-131 27q-163 34 -236 108.5t-73 210.5q0 95 39 171t106.5 124.5t155.5 74.5t188 26q224 0 343.5 -91t109.5 -262zM860 1614l154 -369h-238l-104 131l-144 -131h-249l296 369h285z" />
    <glyph glyph-name="Scedilla" unicode="&#x15e;" horiz-adv-x="1386" 
d="M543 -475q-60 0 -111.5 16t-86.5 57t-28 101h181q3 -41 59 -41q37 0 56.5 19.5t19.5 48.5q0 53 -58 53q-38 0 -61 -29h-131l104 227q-229 30 -348.5 148.5t-107.5 327.5h428q-5 -91 44 -141t167 -50q104 0 169.5 50t65.5 130q0 107 -162 146l-196 49q-201 51 -290 152.5
t-89 259.5q0 128 50.5 232t137.5 170.5t201.5 102t245.5 35.5q102 0 187.5 -14t160 -47t124.5 -83.5t76.5 -128.5t20.5 -177h-411q4 76 -43.5 115.5t-131.5 39.5q-92 0 -147 -45t-55 -121q0 -30 12.5 -52.5t38.5 -38t53 -25t68 -19.5l205 -51q190 -47 277 -151.5t87 -249.5
q0 -257 -186.5 -415.5t-483.5 -158.5h-53l-45 -104h4q56 41 119 41q68 0 112 -41t44 -105q0 -107 -75 -170t-218 -63z" />
    <glyph glyph-name="scedilla" unicode="&#x15f;" horiz-adv-x="1110" 
d="M371 -475q-60 0 -111.5 16t-86.5 57t-28 101h181q3 -41 59 -41q37 0 56.5 19.5t19.5 48.5q0 53 -58 53q-38 0 -61 -29h-131l106 234q-306 60 -301 342h355q-1 -61 36 -88t103 -27t107.5 24t41.5 74q0 64 -98 84l-131 27q-163 34 -236 108.5t-73 210.5q0 95 39 171
t106.5 124.5t155.5 74.5t188 26q224 0 343.5 -91t109.5 -262h-340q4 56 -34 82.5t-95 26.5t-90 -26.5t-33 -63.5q0 -38 35.5 -59t99.5 -33l142 -31q146 -32 207 -100.5t61 -198.5t-68.5 -224.5t-184 -141t-263.5 -46.5q-45 0 -68 2l-47 -106h4q56 41 119 41q68 0 112 -41
t44 -105q0 -107 -75 -170t-218 -63z" />
    <glyph glyph-name="Scaron" unicode="&#x160;" horiz-adv-x="1386" 
d="M31 453h428q-5 -91 44 -141t167 -50q104 0 169.5 50t65.5 130q0 107 -162 146l-196 49q-201 51 -290 152.5t-89 259.5q0 128 50.5 232t137.5 170.5t201.5 102t245.5 35.5q102 0 187.5 -14t160 -47t124.5 -83.5t76.5 -128.5t20.5 -177h-411q4 76 -43.5 115.5t-131.5 39.5
q-92 0 -147 -45t-55 -121q0 -30 12.5 -52.5t38.5 -38t53 -25t68 -19.5l205 -51q190 -47 277 -151.5t87 -249.5q0 -257 -186.5 -415.5t-483.5 -158.5q-202 0 -342.5 50.5t-216 161t-65.5 274.5zM696 1694l-166 272h252l105 -92h2l135 92h262l-272 -272h-318z" />
    <glyph glyph-name="scaron" unicode="&#x161;" horiz-adv-x="1110" 
d="M1063 782h-340q4 56 -34 82.5t-95 26.5t-90 -26.5t-33 -63.5q0 -38 35.5 -59t99.5 -33l142 -31q146 -32 207 -100.5t61 -198.5t-68.5 -224.5t-184 -141t-263.5 -46.5q-77 0 -143 9t-131.5 34t-111 64t-73 103.5t-25.5 148.5h355q-1 -61 36 -88t103 -27t107.5 24t41.5 74
q0 64 -98 84l-131 27q-163 34 -236 108.5t-73 210.5q0 95 39 171t106.5 124.5t155.5 74.5t188 26q224 0 343.5 -91t109.5 -262zM498 1245l-154 369h238l98 -131l151 131h248l-297 -369h-284z" />
    <glyph glyph-name="Tcommaaccent" unicode="&#x162;" horiz-adv-x="1339" 
d="M1016 1249l-242 -1249h-407l241 1249h-411l61 318h1231l-62 -318h-411zM258 -467l119 340h371l-224 -340h-266z" />
    <glyph glyph-name="tcommaaccent" unicode="&#x163;" horiz-adv-x="845" 
d="M422 1413h319l-59 -305h229l-53 -272h-225l-80 -414q-17 -90 3.5 -121t102.5 -31q22 0 43 3t31 5l10 3l-53 -279q-94 -16 -180 -16q-428 0 -346 422l84 428h-142l54 272h39q64 0 100.5 16.5t62.5 64.5t44 142zM84 -467l119 340h370l-223 -340h-266z" />
    <glyph glyph-name="Tcaron" unicode="&#x164;" horiz-adv-x="1339" 
d="M1016 1249l-242 -1249h-407l241 1249h-411l61 318h1231l-62 -318h-411zM737 1694l-166 272h252l105 -92h2l135 92h262l-272 -272h-318z" />
    <glyph glyph-name="tcaron" unicode="&#x165;" horiz-adv-x="845" 
d="M422 1413h319l-59 -305h229l-53 -272h-225l-80 -414q-17 -90 3.5 -121t102.5 -31q22 0 43 3t31 5l10 3l-53 -279q-94 -16 -180 -16q-428 0 -346 422l84 428h-142l54 272h39q64 0 100.5 16.5t62.5 64.5t44 142zM829 1204l80 410h295l-200 -410h-175z" />
    <glyph glyph-name="Tbar" unicode="&#x166;" horiz-adv-x="1339" 
d="M909 702l-135 -702h-407l135 702h-334l47 240h334l59 307h-411l61 318h1231l-62 -318h-411l-60 -307h328l-47 -240h-328z" />
    <glyph glyph-name="tbar" unicode="&#x167;" horiz-adv-x="845" 
d="M690 2q-94 -16 -180 -16q-428 0 -346 422l8 41h-141l45 231h141l31 156h-142l54 272h39q64 0 100.5 16.5t62.5 64.5t44 142l16 82h319l-59 -305h229l-53 -272h-225l-31 -156h225l-45 -231h-223l-6 -27q-17 -90 3.5 -121t102.5 -31q22 0 43 3t31 5l10 3z" />
    <glyph glyph-name="Utilde" unicode="&#x168;" horiz-adv-x="1523" 
d="M131 608l186 959h408l-193 -979q-30 -151 29 -226q57 -71 193 -71q121 0 186 74q54 62 80 196l194 1006h402l-199 -1022q-57 -288 -229 -433t-453 -145q-142 0 -254 30.5t-187 86t-120.5 135t-54 177.5t11.5 212zM596 1671q5 60 28.5 119t62.5 108.5t98.5 80t127.5 30.5
q41 0 79 -14.5t61.5 -31.5t57 -31.5t67.5 -14.5q39 0 63.5 18t40.5 74h168q-11 -147 -91.5 -242.5t-199.5 -95.5q-52 0 -98 14.5t-73 31.5t-59 31.5t-59 14.5q-67 0 -110 -92h-164z" />
    <glyph glyph-name="utilde" unicode="&#x169;" horiz-adv-x="1310" 
d="M606 1108l-121 -621q-10 -62 -10 -92q0 -75 32 -105t91 -30q75 0 132 68.5t83 197.5l113 582h393l-215 -1108h-379l37 190h-4q-63 -98 -156.5 -153t-208.5 -55q-193 0 -274.5 113.5t-38.5 330.5l133 682h393zM399 1245q10 148 99 258.5t225 110.5q41 0 78 -14.5
t59.5 -31.5t51.5 -31.5t57 -14.5q74 0 123 92h168q-9 -97 -48 -179t-111 -136t-163 -54q-41 0 -80 14.5t-63.5 31.5t-55.5 31.5t-59 14.5q-74 0 -117 -92h-164z" />
    <glyph glyph-name="Umacron" unicode="&#x16a;" horiz-adv-x="1523" 
d="M131 608l186 959h408l-193 -979q-30 -151 29 -226q57 -71 193 -71q121 0 186 74q54 62 80 196l194 1006h402l-199 -1022q-57 -288 -229 -433t-453 -145q-142 0 -254 30.5t-187 86t-120.5 135t-54 177.5t11.5 212zM625 1702l47 246h741l-47 -246h-741z" />
    <glyph glyph-name="umacron" unicode="&#x16b;" horiz-adv-x="1310" 
d="M606 1108l-121 -621q-10 -62 -10 -92q0 -75 32 -105t91 -30q75 0 132 68.5t83 197.5l113 582h393l-215 -1108h-379l37 190h-4q-63 -98 -156.5 -153t-208.5 -55q-193 0 -274.5 113.5t-38.5 330.5l133 682h393zM432 1292l47 246h742l-47 -246h-742z" />
    <glyph glyph-name="Ubreve" unicode="&#x16c;" horiz-adv-x="1523" 
d="M131 608l186 959h408l-193 -979q-30 -151 29 -226q57 -71 193 -71q121 0 186 74q54 62 80 196l194 1006h402l-199 -1022q-57 -288 -229 -433t-453 -145q-142 0 -254 30.5t-187 86t-120.5 135t-54 177.5t11.5 212zM692 1993h226q-5 -53 23 -86t77 -33q53 0 89 32.5
t50 86.5h240q-28 -178 -137.5 -259t-270.5 -81q-148 0 -237 91.5t-60 248.5z" />
    <glyph glyph-name="ubreve" unicode="&#x16d;" horiz-adv-x="1310" 
d="M606 1108l-121 -621q-10 -62 -10 -92q0 -75 32 -105t91 -30q75 0 132 68.5t83 197.5l113 582h393l-215 -1108h-379l37 190h-4q-63 -98 -156.5 -153t-208.5 -55q-193 0 -274.5 113.5t-38.5 330.5l133 682h393zM807 1235q-165 0 -251 101t-50 278h237q-12 -61 11.5 -94
t72.5 -33q51 0 86.5 32.5t47.5 94.5h249q-10 -100 -50 -176t-98.5 -119t-122.5 -63.5t-132 -20.5z" />
    <glyph glyph-name="Uring" unicode="&#x16e;" horiz-adv-x="1523" 
d="M131 608l186 959h408l-193 -979q-30 -151 29 -226q57 -71 193 -71q121 0 186 74q54 62 80 196l194 1006h402l-199 -1022q-57 -288 -229 -433t-453 -145q-142 0 -254 30.5t-187 86t-120.5 135t-54 177.5t11.5 212zM1020 1618q-120 0 -202.5 60.5t-82.5 176.5
q0 133 86.5 217.5t218.5 84.5q135 0 210 -66.5t75 -173.5q0 -132 -86.5 -215.5t-218.5 -83.5zM1042 2009q-57 0 -89.5 -39.5t-32.5 -105.5q0 -47 26 -75t74 -28q51 0 85 40.5t34 103.5q0 47 -24 75.5t-73 28.5z" />
    <glyph glyph-name="uring" unicode="&#x16f;" horiz-adv-x="1310" 
d="M606 1108l-121 -621q-10 -62 -10 -92q0 -75 32 -105t91 -30q75 0 132 68.5t83 197.5l113 582h393l-215 -1108h-379l37 190h-4q-63 -98 -156.5 -153t-208.5 -55q-193 0 -274.5 113.5t-38.5 330.5l133 682h393zM827 1208q-120 0 -202 61t-82 177q0 132 86.5 216.5
t218.5 84.5q135 0 210 -66.5t75 -173.5q0 -132 -87 -215.5t-219 -83.5zM850 1599q-58 0 -90.5 -39.5t-32.5 -105.5q0 -47 26 -74.5t74 -27.5q51 0 85 40t34 103q0 47 -23.5 75.5t-72.5 28.5z" />
    <glyph glyph-name="Uhungarumlaut" unicode="&#x170;" horiz-adv-x="1523" 
d="M131 608l186 959h408l-193 -979q-30 -151 29 -226q57 -71 193 -71q121 0 186 74q54 62 80 196l194 1006h402l-199 -1022q-57 -288 -229 -433t-453 -145q-142 0 -254 30.5t-187 86t-120.5 135t-54 177.5t11.5 212zM1063 1694l127 272h289l-195 -272h-221zM705 1694l86 272
h288l-153 -272h-221z" />
    <glyph glyph-name="uhungarumlaut" unicode="&#x171;" horiz-adv-x="1310" 
d="M606 1108l-121 -621q-10 -62 -10 -92q0 -75 32 -105t91 -30q75 0 132 68.5t83 197.5l113 582h393l-215 -1108h-379l37 190h-4q-63 -98 -156.5 -153t-208.5 -55q-193 0 -274.5 113.5t-38.5 330.5l133 682h393zM848 1245l174 369h295l-244 -369h-225zM494 1245l135 369h295
l-203 -369h-227z" />
    <glyph glyph-name="Uogonek" unicode="&#x172;" horiz-adv-x="1523" 
d="M557 -14q-232 27 -353.5 191t-72.5 431l186 959h408l-193 -979q-29 -152 31 -228q57 -69 191 -69q107 0 166 53q71 63 100 217l194 1006h402l-199 -1022q-97 -487 -510 -555q-117 -20 -159.5 -44.5t-42.5 -66.5q0 -51 79 -51l-41 -213h-71q-155 0 -213 36.5t-58 121.5
q0 74 47 128.5t109 82.5v2z" />
    <glyph glyph-name="uogonek" unicode="&#x173;" horiz-adv-x="1310" 
d="M725 0l37 190h-4q-63 -98 -156.5 -153t-208.5 -55q-193 0 -274.5 113.5t-38.5 330.5l133 682h393l-121 -621q-10 -46 -10 -94q0 -74 33 -103.5t90 -29.5q75 0 132 68.5t83 197.5l113 582h393l-213 -1100q-115 -66 -115 -133q0 -47 80 -47l-41 -213h-72q-154 0 -212 36.5
t-58 121.5q0 67 46.5 127t139.5 100h-149z" />
    <glyph glyph-name="Wcircumflex" unicode="&#x174;" horiz-adv-x="2115" 
d="M725 0h-397l-101 1567h410l29 -760q2 -87 0 -150.5t-6 -98.5l-3 -36h5q32 110 98 260l344 785h344l61 -766q3 -46 5.5 -91.5t3 -78t0.5 -58v-38.5v-13h4q25 113 84 260l315 785h373l-676 -1567h-385l-49 829q-4 76 -5.5 140.5t-0.5 90.5v27h-4q-24 -88 -87 -235z
M1511 1966l166 -272h-256l-104 92h-2l-133 -92h-260l272 272h317z" />
    <glyph glyph-name="wcircumflex" unicode="&#x175;" horiz-adv-x="1755" 
d="M240 0l-123 1108h350l35 -428q6 -75 7 -158.5t-1 -129.5l-2 -46h4q45 166 106 301l209 461h310l41 -449q5 -60 7.5 -138.5t2.5 -126.5v-48h6q39 166 92 291l201 471h336l-494 -1108h-366l-29 303q-8 83 -13 188.5t-5 169.5l-1 64h-4q-91 -229 -159 -385l-148 -340h-362z
M1219 1614l153 -369h-237l-105 131l-143 -131h-250l297 369h285z" />
    <glyph glyph-name="Ycircumflex" unicode="&#x176;" horiz-adv-x="1445" 
d="M424 0l131 680l-328 887h422l178 -559h4l373 559h424l-674 -936l-123 -631h-407zM1174 1966l165 -272h-256l-104 92h-2l-133 -92h-260l272 272h318z" />
    <glyph glyph-name="ycircumflex" unicode="&#x177;" horiz-adv-x="1202" 
d="M326 -8l-197 1116h395l54 -522q5 -60 6 -125.5t0 -100.5l-2 -36h4q37 121 86 227l246 557h389l-609 -1161q-98 -188 -222.5 -271.5t-338.5 -83.5q-26 0 -50.5 1.5t-43.5 3.5t-35.5 4.5t-28 4.5t-19.5 4t-11 3.5t-2 1.5l53 276q40 -10 117 -10q86 0 134 22.5t71 78.5z
M969 1614l153 -369h-237l-105 131l-143 -131h-250l297 369h285z" />
    <glyph glyph-name="Ydieresis" unicode="&#x178;" horiz-adv-x="1445" 
d="M424 0l131 680l-328 887h422l178 -559h4l373 559h424l-674 -936l-123 -631h-407zM1018 1702l63 321h322l-64 -321h-321zM586 1702l63 321h322l-64 -321h-321z" />
    <glyph glyph-name="Zacute" unicode="&#x179;" horiz-adv-x="1325" 
d="M242 1255l59 312h1151l-53 -277l-889 -977h704l-59 -313h-1194l53 276l891 979h-663zM719 1694l166 272h375l-250 -272h-291z" />
    <glyph glyph-name="zacute" unicode="&#x17a;" horiz-adv-x="1122" 
d="M158 825l55 283h954l-47 -238l-606 -583h500l-56 -287h-978l45 240l608 585h-475zM539 1245l170 369h381l-250 -369h-301z" />
    <glyph glyph-name="Zdotaccent" unicode="&#x17b;" horiz-adv-x="1325" 
d="M242 1255l59 312h1151l-53 -277l-889 -977h704l-59 -313h-1194l53 276l891 979h-663zM723 1702l63 321h322l-64 -321h-321z" />
    <glyph glyph-name="zdotaccent" unicode="&#x17c;" horiz-adv-x="1122" 
d="M158 825l55 283h954l-47 -238l-606 -583h500l-56 -287h-978l45 240l608 585h-475zM555 1292l63 322h322l-63 -322h-322z" />
    <glyph glyph-name="Zcaron" unicode="&#x17d;" horiz-adv-x="1325" 
d="M242 1255l59 312h1151l-53 -277l-889 -977h704l-59 -313h-1194l53 276l891 979h-663zM719 1694l-166 272h252l104 -92h2l136 92h262l-273 -272h-317z" />
    <glyph glyph-name="zcaron" unicode="&#x17e;" horiz-adv-x="1122" 
d="M158 825l55 283h954l-47 -238l-606 -583h500l-56 -287h-978l45 240l608 585h-475zM561 1245l-153 369h237l98 -131l152 131h248l-297 -369h-285z" />
    <glyph glyph-name="florin" unicode="&#x192;" horiz-adv-x="1040" 
d="M707 692l-228 -1079h-377l220 1079h-236l49 273h244l31 155q25 121 64 211.5t86 146.5t108.5 90t123 47t136.5 13q42 0 84.5 -3t63.5 -6l22 -3l-23 -283q-27 6 -76 6q-38 0 -65 -7.5t-54.5 -29t-48 -67t-34.5 -115.5l-33 -155h215l-49 -273h-223z" />
    <glyph glyph-name="Aringacute" unicode="&#x1fa;" horiz-adv-x="1554" 
d="M870 1231q-17 -68 -102 -250l-184 -401h354l-47 389q-9 73 -13 138.5t-4 94.5v29h-4zM1020 0l-41 291h-535l-141 -291h-395l809 1567h448l260 -1567h-405zM989 1618q-120 0 -202 60.5t-82 176.5q0 133 86.5 217.5t218.5 84.5q135 0 209.5 -66.5t74.5 -173.5
q0 -132 -86.5 -215.5t-218.5 -83.5zM1012 2009q-58 0 -90.5 -39.5t-32.5 -105.5q0 -47 26 -75t74 -28q51 0 85 40.5t34 103.5q0 47 -23.5 75.5t-72.5 28.5zM899 2202l166 272h375l-250 -272h-291z" />
    <glyph glyph-name="aringacute" unicode="&#x1fb;" horiz-adv-x="1220" 
d="M532 225q145 0 181 230l6 30q-129 -3 -182 -16q-119 -30 -119 -129q0 -55 31.5 -85t82.5 -30zM514 766h-373q19 178 156.5 272.5t380.5 94.5q113 0 199.5 -23.5t140 -66t84.5 -102.5t34 -133.5t-12 -158.5l-57 -295q-10 -51 8.5 -68.5t69.5 -19.5l-53 -266h-134
q-46 0 -78 4t-67 15.5t-60 37t-40 64.5h-6q-80 -75 -148.5 -103t-183.5 -28q-146 0 -243 79.5t-97 231.5q0 117 59.5 204t186.5 128q33 11 72 19t69 12t82.5 7t77 3.5t89 2t85.5 1.5l10 59q13 73 -16 111.5t-95 38.5q-124 0 -141 -121zM750 1196q-120 0 -202.5 61t-82.5 177
q0 132 86.5 216.5t218.5 84.5q135 0 210 -66.5t75 -173.5q0 -132 -86.5 -215.5t-218.5 -83.5zM772 1587q-58 0 -90.5 -39.5t-32.5 -105.5q0 -47 26.5 -75t74.5 -28q51 0 84.5 40.5t33.5 103.5q0 47 -23.5 75.5t-72.5 28.5zM655 1794l166 272h375l-250 -272h-291z" />
    <glyph glyph-name="AEacute" unicode="&#x1fc;" horiz-adv-x="2217" 
d="M1083 621l123 643h-80q-86 -145 -145 -240l-256 -403h358zM963 0l63 324h-487l-205 -324h-451l1047 1567h1364l-60 -303h-620l-66 -338h600l-57 -295h-600l-64 -332h644l-58 -299h-1050zM1382 1694l166 272h375l-250 -272h-291z" />
    <glyph glyph-name="aeacute" unicode="&#x1fd;" horiz-adv-x="1898" 
d="M1470 672l3 16q29 209 -121 209q-73 0 -128 -59.5t-85 -165.5h331zM532 225q145 0 181 230l6 30q-129 -3 -182 -16q-119 -30 -119 -129q0 -55 31.5 -85t82.5 -30zM1798 340q-63 -354 -536 -354q-171 0 -270.5 45.5t-160.5 140.5h-4q-36 -41 -70.5 -69.5t-85.5 -56.5
t-120.5 -42t-157.5 -14q-161 0 -259.5 78.5t-98.5 232.5q0 117 59.5 204t186.5 128q33 11 72 19t69 12t82.5 7t77 3.5t89 2t85.5 1.5l10 59q13 73 -16 111.5t-95 38.5q-124 0 -141 -121h-373q19 178 157 272.5t382 94.5q235 0 328 -144h2q133 146 358 146q116 0 207 -30
t147 -84t90 -128.5t37 -164t-14 -189.5l-14 -74h-713v-31q0 -108 37.5 -155.5t116.5 -47.5q59 0 101.5 28.5t51.5 80.5h383zM932 1245l170 369h381l-250 -369h-301z" />
    <glyph glyph-name="Oslashacute" unicode="&#x1fe;" horiz-adv-x="1648" 
d="M952 1303q-88 0 -161 -53t-119.5 -135t-78.5 -184t-45.5 -196t-12.5 -176l628 633q-60 111 -211 111zM801 258q81 0 150 50.5t115.5 130.5t79.5 179t48 195.5t14 181.5l-628 -630q66 -107 221 -107zM1622 936q-1 -157 -35.5 -301t-104.5 -265.5t-168.5 -211.5
t-234.5 -140.5t-295 -50.5q-292 0 -462 139l-156 -157h-238l285 284q-90 148 -90 375q-1 156 34.5 301.5t107 268.5t171 215t236 144t293.5 52q275 0 450 -145l178 180h240l-307 -307q96 -154 96 -381zM881 1694l166 272h374l-250 -272h-290z" />
    <glyph glyph-name="oslashacute" unicode="&#x1ff;" horiz-adv-x="1298" 
d="M453 446l378 377q-43 64 -120 64q-65 0 -116 -44t-80.5 -113t-44.5 -141.5t-17 -142.5zM614 221q52 0 95 28.5t71 72.5t47.5 102.5t28.5 114t12 110.5l-374 -373q45 -55 120 -55zM1255 653q0 -314 -180.5 -499t-474.5 -185q-195 0 -332 82l-143 -141h-211l242 242
q-90 117 -90 299q0 140 44.5 264t126 217.5t205.5 148t275 54.5q196 0 338 -91l151 152h211l-254 -252q92 -119 92 -291zM590 1245l170 369h381l-250 -369h-301z" />
    <glyph glyph-name="Scommaaccent" unicode="&#x218;" horiz-adv-x="1386" 
d="M31 453h428q-5 -91 44 -141t167 -50q104 0 169.5 50t65.5 130q0 107 -162 146l-196 49q-201 51 -290 152.5t-89 259.5q0 128 50.5 232t137.5 170.5t201.5 102t245.5 35.5q102 0 187.5 -14t160 -47t124.5 -83.5t76.5 -128.5t20.5 -177h-411q4 76 -43.5 115.5t-131.5 39.5
q-92 0 -147 -45t-55 -121q0 -30 12.5 -52.5t38.5 -38t53 -25t68 -19.5l205 -51q190 -47 277 -151.5t87 -249.5q0 -257 -186.5 -415.5t-483.5 -158.5q-202 0 -342.5 50.5t-216 161t-65.5 274.5zM295 -467l119 340h370l-223 -340h-266z" />
    <glyph glyph-name="scommaaccent" unicode="&#x219;" horiz-adv-x="1110" 
d="M1063 782h-340q4 56 -34 82.5t-95 26.5t-90 -26.5t-33 -63.5q0 -38 35.5 -59t99.5 -33l142 -31q146 -32 207 -100.5t61 -198.5t-68.5 -224.5t-184 -141t-263.5 -46.5q-77 0 -143 9t-131.5 34t-111 64t-73 103.5t-25.5 148.5h355q-1 -61 36 -88t103 -27t107.5 24t41.5 74
q0 64 -98 84l-131 27q-163 34 -236 108.5t-73 210.5q0 95 39 171t106.5 124.5t155.5 74.5t188 26q224 0 343.5 -91t109.5 -262zM160 -467l119 340h370l-223 -340h-266z" />
    <glyph glyph-name="uni021A" unicode="&#x21a;" horiz-adv-x="1339" 
d="M1016 1249l-242 -1249h-407l241 1249h-411l61 318h1231l-62 -318h-411zM258 -467l119 340h371l-224 -340h-266z" />
    <glyph glyph-name="uni021B" unicode="&#x21b;" horiz-adv-x="845" 
d="M422 1413h319l-59 -305h229l-53 -272h-225l-80 -414q-17 -90 3.5 -121t102.5 -31q22 0 43 3t31 5l10 3l-53 -279q-94 -16 -180 -16q-428 0 -346 422l84 428h-142l54 272h39q64 0 100.5 16.5t62.5 64.5t44 142zM84 -467l119 340h370l-223 -340h-266z" />
    <glyph glyph-name="uni0237" unicode="&#x237;" horiz-adv-x="622" 
d="M-260 -403l49 260q33 -11 78 -11q125 0 151 140l220 1122h393l-223 -1143q-22 -113 -68.5 -192.5t-112.5 -122.5t-139.5 -61.5t-163.5 -18.5q-58 0 -104 7t-63 13z" />
    <glyph glyph-name="circumflex" unicode="&#x2c6;" horiz-adv-x="741" 
d="M729 1614l154 -369h-238l-104 131l-144 -131h-250l297 369h285z" />
    <glyph glyph-name="caron" unicode="&#x2c7;" horiz-adv-x="741" 
d="M373 1245l-154 369h238l98 -131l152 131h247l-297 -369h-284z" />
    <glyph glyph-name="breve" unicode="&#x2d8;" horiz-adv-x="741" 
d="M535 1235q-165 0 -251.5 101.5t-50.5 277.5h238q-12 -61 11.5 -94t72.5 -33q51 0 86 32.5t47 94.5h250q-10 -100 -50 -176t-98.5 -119t-122.5 -63.5t-132 -20.5z" />
    <glyph glyph-name="dotaccent" unicode="&#x2d9;" horiz-adv-x="741" 
d="M362 1292l64 322h322l-64 -322h-322z" />
    <glyph glyph-name="ring" unicode="&#x2da;" horiz-adv-x="741" 
d="M539 1208q-120 0 -202.5 61t-82.5 177q0 132 86.5 216.5t218.5 84.5q135 0 210 -66.5t75 -173.5q0 -132 -86.5 -215.5t-218.5 -83.5zM561 1599q-58 0 -90.5 -39.5t-32.5 -105.5q0 -47 26 -74.5t75 -27.5q51 0 84.5 40t33.5 103q0 47 -23.5 75.5t-72.5 28.5z" />
    <glyph glyph-name="ogonek" unicode="&#x2db;" horiz-adv-x="741" 
d="M276 27l150 -19q-115 -66 -115 -133q0 -47 80 -47l-41 -213h-71q-154 0 -212.5 36.5t-58.5 121.5q0 82 68.5 152t199.5 102z" />
    <glyph glyph-name="tilde" unicode="&#x2dc;" horiz-adv-x="741" 
d="M119 1245q10 148 98.5 258.5t224.5 110.5q41 0 78 -14.5t59.5 -31.5t51.5 -31.5t57 -14.5q74 0 123 92h168q-9 -97 -48 -179t-111 -136t-163 -54q-41 0 -80 14.5t-63.5 31.5t-55.5 31.5t-59 14.5q-73 0 -116 -92h-164z" />
    <glyph glyph-name="hungarumlaut" unicode="&#x2dd;" horiz-adv-x="876" 
d="M584 1245l174 369h295l-244 -369h-225zM229 1245l136 369h294l-202 -369h-228z" />
    <glyph glyph-name="Wgrave" unicode="&#x1e80;" horiz-adv-x="2115" 
d="M725 0h-397l-101 1567h410l29 -760q2 -87 0 -150.5t-6 -98.5l-3 -36h5q32 110 98 260l344 785h344l61 -766q3 -46 5.5 -91.5t3 -78t0.5 -58v-38.5v-13h4q25 113 84 260l315 785h373l-676 -1567h-385l-49 829q-4 76 -5.5 140.5t-0.5 90.5v27h-4q-24 -88 -87 -235z
M1372 1966l78 -272h-283l-161 272h366z" />
    <glyph glyph-name="wgrave" unicode="&#x1e81;" horiz-adv-x="1755" 
d="M240 0l-123 1108h350l35 -428q6 -75 7 -158.5t-1 -129.5l-2 -46h4q45 166 106 301l209 461h310l41 -449q5 -60 7.5 -138.5t2.5 -126.5v-48h6q39 166 92 291l201 471h336l-494 -1108h-366l-29 303q-8 83 -13 188.5t-5 169.5l-1 64h-4q-91 -229 -159 -385l-148 -340h-362z
M1122 1614l37 -369h-291l-116 369h370z" />
    <glyph glyph-name="Wacute" unicode="&#x1e82;" horiz-adv-x="2115" 
d="M725 0h-397l-101 1567h410l29 -760q2 -87 0 -150.5t-6 -98.5l-3 -36h5q32 110 98 260l344 785h344l61 -766q3 -46 5.5 -91.5t3 -78t0.5 -58v-38.5v-13h4q25 113 84 260l315 785h373l-676 -1567h-385l-49 829q-4 76 -5.5 140.5t-0.5 90.5v27h-4q-24 -88 -87 -235z
M1135 1694l165 272h375l-250 -272h-290z" />
    <glyph glyph-name="wacute" unicode="&#x1e83;" horiz-adv-x="1755" 
d="M240 0l-123 1108h350l35 -428q6 -75 7 -158.5t-1 -129.5l-2 -46h4q45 166 106 301l209 461h310l41 -449q5 -60 7.5 -138.5t2.5 -126.5v-48h6q39 166 92 291l201 471h336l-494 -1108h-366l-29 303q-8 83 -13 188.5t-5 169.5l-1 64h-4q-91 -229 -159 -385l-148 -340h-362z
M834 1245l170 369h380l-249 -369h-301z" />
    <glyph glyph-name="Wdieresis" unicode="&#x1e84;" horiz-adv-x="2115" 
d="M725 0h-397l-101 1567h410l29 -760q2 -87 0 -150.5t-6 -98.5l-3 -36h5q32 110 98 260l344 785h344l61 -766q3 -46 5.5 -91.5t3 -78t0.5 -58v-38.5v-13h4q25 113 84 260l315 785h373l-676 -1567h-385l-49 829q-4 76 -5.5 140.5t-0.5 90.5v27h-4q-24 -88 -87 -235z
M1356 1702l63 321h322l-64 -321h-321zM924 1702l63 321h322l-64 -321h-321z" />
    <glyph glyph-name="wdieresis" unicode="&#x1e85;" horiz-adv-x="1755" 
d="M240 0l-123 1108h350l35 -428q6 -75 7 -158.5t-1 -129.5l-2 -46h4q45 166 106 301l209 461h310l41 -449q5 -60 7.5 -138.5t2.5 -126.5v-48h6q39 166 92 291l201 471h336l-494 -1108h-366l-29 303q-8 83 -13 188.5t-5 169.5l-1 64h-4q-91 -229 -159 -385l-148 -340h-362z
M1067 1292l63 322h322l-63 -322h-322zM635 1292l63 322h322l-64 -322h-321z" />
    <glyph glyph-name="Ygrave" unicode="&#x1ef2;" horiz-adv-x="1445" 
d="M424 0l131 680l-328 887h422l178 -559h4l373 559h424l-674 -936l-123 -631h-407zM1034 1966l78 -272h-283l-161 272h366z" />
    <glyph glyph-name="ygrave" unicode="&#x1ef3;" horiz-adv-x="1202" 
d="M326 -8l-197 1116h395l54 -522q5 -60 6 -125.5t0 -100.5l-2 -36h4q37 121 86 227l246 557h389l-609 -1161q-98 -188 -222.5 -271.5t-338.5 -83.5q-26 0 -50.5 1.5t-43.5 3.5t-35.5 4.5t-28 4.5t-19.5 4t-11 3.5t-2 1.5l53 276q40 -10 117 -10q86 0 134 22.5t71 78.5z
M874 1614l37 -369h-290l-117 369h370z" />
    <glyph glyph-name="uni2009" unicode="&#x2009;" horiz-adv-x="0" 
 />
    <glyph glyph-name="endash" unicode="&#x2013;" horiz-adv-x="1034" 
d="M100 485l54 277h833l-53 -277h-834z" />
    <glyph glyph-name="emdash" unicode="&#x2014;" horiz-adv-x="1812" 
d="M102 492l52 264h1611l-51 -264h-1612z" />
    <glyph glyph-name="quoteleft" unicode="&#x2018;" horiz-adv-x="647" 
d="M739 1567l-186 -580h-381l326 580h241z" />
    <glyph glyph-name="quoteright" unicode="&#x2019;" horiz-adv-x="647" 
d="M203 987l188 580h379l-324 -580h-243z" />
    <glyph glyph-name="quotesinglbase" unicode="&#x201a;" horiz-adv-x="647" 
d="M-33 -231l189 579h379l-324 -579h-244z" />
    <glyph glyph-name="quotedblleft" unicode="&#x201c;" horiz-adv-x="1103" 
d="M1196 1567l-188 -580h-369l313 580h244zM733 1567l-186 -580h-371l316 580h241z" />
    <glyph glyph-name="quotedblright" unicode="&#x201d;" horiz-adv-x="1103" 
d="M676 987l186 580h371l-315 -580h-242zM213 987l188 580h369l-313 -580h-244z" />
    <glyph glyph-name="quotedblbase" unicode="&#x201e;" horiz-adv-x="1097" 
d="M430 -231l186 579h371l-315 -579h-242zM-33 -231l189 579h368l-313 -579h-244z" />
    <glyph glyph-name="dagger" unicode="&#x2020;" horiz-adv-x="679" 
d="M580 1100l-99 -506h-262l98 506h-167l49 258h168l41 209h262l-41 -209h170l-49 -258h-170z" />
    <glyph glyph-name="daggerdbl" unicode="&#x2021;" horiz-adv-x="679" 
d="M528 803l-41 -209h-262l41 209h-168l43 221h168l21 113h-168l43 221h168l41 209h262l-41 -209h170l-43 -221h-170l-21 -113h170l-43 -221h-170z" />
    <glyph glyph-name="bullet" unicode="&#x2022;" horiz-adv-x="702" 
d="M371 365q-115 0 -187.5 73t-72.5 193q0 115 76.5 190.5t185.5 75.5q117 0 189.5 -74.5t72.5 -191.5q0 -119 -76 -192.5t-188 -73.5z" />
    <glyph glyph-name="ellipsis" unicode="&#x2026;" horiz-adv-x="1921" 
d="M1307 0l69 367h391l-69 -367h-391zM666 0l69 367h391l-69 -367h-391zM27 0l69 367h391l-69 -367h-391z" />
    <glyph glyph-name="perthousand" unicode="&#x2030;" horiz-adv-x="2680" 
d="M209 -82l1313 1681h266l-1311 -1681h-268zM240 1079q0 103 35.5 188t93.5 139t129.5 83t146.5 29q144 0 234 -79.5t90 -224.5q0 -101 -35.5 -185.5t-94 -137.5t-130 -82t-146.5 -29q-143 0 -233 78.5t-90 220.5zM578 975q60 0 100.5 69t40.5 170q0 109 -88 109
q-59 0 -100.5 -68t-45.5 -172q0 -51 23.5 -79.5t69.5 -28.5zM2157 -14q-143 0 -233.5 78.5t-90.5 220.5q0 103 35.5 188t93.5 138.5t129.5 82.5t146.5 29q144 0 234 -79t90 -224q0 -101 -35.5 -185.5t-93.5 -137.5t-129.5 -82t-146.5 -29zM1335 -14q-143 0 -233 78.5
t-90 220.5q0 103 35.5 188t93.5 138.5t129.5 82.5t146.5 29q144 0 234 -79t90 -224q0 -101 -35.5 -185.5t-94 -137.5t-130 -82t-146.5 -29zM2171 180q60 0 100.5 69.5t40.5 170.5q0 108 -88 108q-59 0 -100 -67.5t-45 -171.5q0 -51 23 -80t69 -29zM1350 180q60 0 100.5 69.5
t40.5 170.5q0 108 -88 108q-59 0 -100.5 -67.5t-45.5 -171.5q0 -51 23.5 -80t69.5 -29z" />
    <glyph glyph-name="uni2032" unicode="&#x2032;" horiz-adv-x="595" 
d="M166 987l168 580h371l-297 -580h-242z" />
    <glyph glyph-name="uni2033" unicode="&#x2033;" horiz-adv-x="1056" 
d="M627 987l170 580h368l-295 -580h-243zM166 987l168 580h371l-297 -580h-242z" />
    <glyph glyph-name="guilsinglleft" unicode="&#x2039;" horiz-adv-x="638" 
d="M377 950h270l-270 -422l112 -411h-272l-129 418z" />
    <glyph glyph-name="guilsinglright" unicode="&#x203a;" horiz-adv-x="618" 
d="M266 117h-270l270 422l-110 411h270l127 -415z" />
    <glyph glyph-name="fraction" unicode="&#x2044;" horiz-adv-x="641" 
d="M-496 -82l1422 1681h250l-1422 -1681h-250z" />
    <glyph glyph-name="Euro" unicode="&#x20ac;" horiz-adv-x="1495" 
d="M1401 451q-33 -214 -198.5 -346t-420.5 -132q-274 0 -416 140.5t-151 398.5h-162l33 164h135q5 60 23 153h-133l32 164h144q41 118 101.5 213.5t145.5 172.5t201 118.5t254 40.5q121 -2 215 -30.5t161 -87t98.5 -153t23.5 -220.5h-385q9 40 4 79t-19 69.5t-47 50
t-79 20.5q-92 1 -163 -72.5t-116 -200.5h317l-32 -164h-330q-18 -88 -23 -153h328l-33 -164h-303q0 -128 44.5 -195t144.5 -67q175 0 217 201h389z" />
    <glyph glyph-name="trademark" unicode="&#x2122;" horiz-adv-x="1476" 
d="M539 1413l-93 -473h-170l93 473h-181l29 154h531l-29 -154h-180zM680 940l121 627h266l31 -297l6 -101h6q14 46 41 101l141 297h295l-121 -627h-168l86 444h-6q-24 -55 -63 -127l-166 -317h-156l-45 315q-5 32 -8 64t-4 49v16h-6l-86 -444h-164z" />
    <glyph glyph-name="onethird" unicode="&#x2153;" horiz-adv-x="1935" 
d="M274 684l117 549h-196l38 186h35q87 0 140 31q58 33 73 117h252l-186 -883h-273zM70 -82l1421 1681h250l-1422 -1681h-249zM1468 369h-118l32 151h97q57 0 94 33.5t37 81.5q0 36 -25 56t-63 20q-90 0 -111 -93h-268q17 117 117.5 198t281.5 81q157 0 246.5 -59.5
t89.5 -157.5q0 -177 -197 -225v-4q152 -46 152 -183q0 -140 -111 -213t-295 -73q-178 0 -274 71.5t-84 210.5h262q-1 -44 27.5 -68t75.5 -24q59 0 90.5 32.5t31.5 82.5q0 82 -88 82z" />
    <glyph glyph-name="twothirds" unicode="&#x2154;" horiz-adv-x="2166" 
d="M508 1276h-270q19 147 122.5 226t290.5 79q143 0 229.5 -61t86.5 -179q0 -100 -56 -173.5t-159 -145.5l-197 -139v-4h342l-37 -195h-758l29 137l414 320q109 85 130 107q32 34 32 75q0 35 -25 55.5t-64 20.5q-97 0 -110 -123zM322 -82l1421 1681h250l-1422 -1681h-249z
M1700 369h-119l33 151h96q57 0 94 33.5t37 81.5q0 36 -25 56t-63 20q-90 0 -111 -93h-268q17 117 118 198t282 81q157 0 246 -59.5t89 -157.5q0 -177 -196 -225v-4q151 -46 151 -183q0 -140 -110.5 -213t-294.5 -73q-178 0 -274.5 71.5t-84.5 210.5h263q-1 -44 27 -68
t75 -24q59 0 91 32.5t32 82.5q0 82 -88 82z" />
    <glyph glyph-name="oneeighth" unicode="&#x215b;" horiz-adv-x="1918" 
d="M274 684l117 549h-196l38 186h35q87 0 140 31q58 33 73 117h252l-186 -883h-273zM68 -82l1421 1681h250l-1422 -1681h-249zM1530 897q157 0 243.5 -59t86.5 -158q0 -93 -50 -143.5t-145 -79.5v-6q158 -50 158 -189q0 -125 -100 -202.5t-308 -77.5q-371 0 -371 237
q0 97 58.5 158t154.5 86v6q-106 50 -106 160q0 120 103 194t276 74zM1520 723q-58 0 -85.5 -33.5t-27.5 -79.5q0 -82 90 -82q45 0 77 30t32 85q0 37 -24 58.5t-62 21.5zM1427 147q50 0 86.5 35.5t36.5 100.5q0 43 -27 67.5t-71 24.5q-67 0 -99 -39t-32 -92q0 -97 106 -97z
" />
    <glyph glyph-name="threeeighths" unicode="&#x215c;" horiz-adv-x="2101" 
d="M573 1053h-118l32 151h97q57 0 94 33.5t37 81.5q0 36 -25 56t-63 20q-90 0 -111 -92h-268q17 117 117.5 197.5t281.5 80.5q157 0 246.5 -59.5t89.5 -157.5q0 -177 -197 -225v-4q152 -46 152 -183q0 -140 -111 -213t-295 -73q-178 0 -274 71.5t-84 210.5h262
q-1 -44 27.5 -68t75.5 -24q59 0 91 32.5t32 82.5q0 82 -89 82zM287 -82l1421 1681h250l-1421 -1681h-250zM1712 897q157 0 243.5 -59t86.5 -158q0 -93 -50 -143.5t-145 -79.5v-6q158 -50 158 -189q0 -125 -100 -202.5t-308 -77.5q-370 0 -370 237q0 97 58.5 158t154.5 86v6
q-107 50 -107 160q0 120 103 194t276 74zM1702 723q-58 0 -85.5 -33.5t-27.5 -79.5q0 -82 90 -82q45 0 77 30t32 85q0 37 -24 58.5t-62 21.5zM1610 147q50 0 86.5 35.5t36.5 100.5q0 43 -27.5 67.5t-71.5 24.5q-67 0 -99 -39t-32 -92q0 -97 107 -97z" />
    <glyph glyph-name="fiveeighths" unicode="&#x215d;" horiz-adv-x="2082" 
d="M670 995q0 47 -25.5 73t-75.5 26q-64 0 -131 -62h-225l152 535h630l-43 -207h-424l-51 -176h6q93 80 222 80q118 0 177.5 -62.5t59.5 -169.5q0 -177 -116 -271.5t-320 -94.5q-171 0 -260.5 67.5t-75.5 212.5h264q0 -94 103 -94q57 0 95 38t38 105zM260 -82l1421 1681h250
l-1421 -1681h-250zM1694 897q157 0 243 -59t86 -158q0 -93 -50 -143.5t-144 -79.5v-6q158 -50 158 -189q0 -125 -100 -202.5t-308 -77.5q-371 0 -371 237q0 97 58.5 158t154.5 86v6q-106 50 -106 160q0 120 103 194t276 74zM1683 723q-58 0 -85 -33.5t-27 -79.5
q0 -82 90 -82q45 0 76.5 30t31.5 85q0 37 -24 58.5t-62 21.5zM1591 147q50 0 86.5 35.5t36.5 100.5q0 43 -27 67.5t-71 24.5q-67 0 -99 -39t-32 -92q0 -97 106 -97z" />
    <glyph glyph-name="seveneighths" unicode="&#x215e;" horiz-adv-x="1951" 
d="M168 684l455 680h-400l45 203h717l-31 -144l-499 -739h-287zM61 -82l1422 1681h250l-1422 -1681h-250zM1563 897q157 0 243 -59t86 -158q0 -93 -50 -143.5t-144 -79.5v-6q157 -50 157 -189q0 -125 -99.5 -202.5t-307.5 -77.5q-371 0 -371 237q0 97 58.5 158t154.5 86v6
q-106 50 -106 160q0 120 103 194t276 74zM1552 723q-58 0 -85 -33.5t-27 -79.5q0 -82 90 -82q45 0 76.5 30t31.5 85q0 37 -24 58.5t-62 21.5zM1460 147q50 0 86.5 35.5t36.5 100.5q0 43 -27 67.5t-71 24.5q-67 0 -99 -39t-32 -92q0 -97 106 -97z" />
    <glyph glyph-name="minus" unicode="&#x2212;" horiz-adv-x="1269" 
d="M160 594l53 278h983l-53 -278h-983z" />
    <glyph glyph-name="approxequal" unicode="&#x2248;" horiz-adv-x="1296" 
d="M188 782q18 174 112.5 275.5t256.5 101.5q70 0 200 -40t175 -40q39 0 69 19.5t33 70.5h238q-41 -376 -350 -376q-70 0 -207.5 39.5t-182.5 39.5q-37 0 -65 -23t-37 -67h-242zM98 336q18 174 112.5 275.5t256.5 101.5q70 0 200 -40t175 -40q39 0 69 19.5t33 70.5h238
q-41 -377 -351 -377q-70 0 -207 40t-182 40q-37 0 -65 -23t-37 -67h-242z" />
    <glyph glyph-name="notequal" unicode="&#x2260;" horiz-adv-x="1269" 
d="M532 362l-124 -200h-203l125 200h-215l53 279h338l104 168h-409l55 278h528l136 216h202l-135 -216h252l-55 -278h-371l-104 -168h442l-53 -279h-566z" />
    <glyph glyph-name="lessequal" unicode="&#x2264;" horiz-adv-x="1296" 
d="M1118 340l-928 528l35 168l1131 531l-66 -344l-645 -287l531 -297zM1055 0h-1028l53 279h1028z" />
    <glyph glyph-name="greaterequal" unicode="&#x2265;" horiz-adv-x="1296" 
d="M348 1567l926 -520l-33 -173l-1128 -530l65 340l645 291l-532 295zM1077 0h-1026l53 279h1026z" />
    <glyph glyph-name="uni24C5" unicode="&#x24c5;" horiz-adv-x="1804" 
d="M143 778q0 227 104.5 413t289.5 293t413 107t413.5 -107t290.5 -293t105 -413t-105 -412.5t-290.5 -292t-413.5 -106.5t-413 106.5t-289.5 292t-104.5 412.5zM950 84q190 0 345.5 91t243 250t87.5 353t-87.5 353.5t-243 251.5t-345.5 92t-345 -92t-242 -251.5t-87 -353.5
t87 -353t242 -250t345 -91zM549 344l170 879h346q151 0 237.5 -68t86.5 -201q0 -176 -112.5 -267t-297.5 -91h-129l-49 -252h-252zM887 784h90q71 0 108 42t37 118q0 94 -102 94h-84z" />
    <glyph glyph-name="quotedblright.sc" horiz-adv-x="1103" 
d="M627 739l186 580h371l-316 -580h-241zM164 739l188 580h369l-313 -580h-244z" />
    <glyph glyph-name="Ibreve.sc" horiz-adv-x="659" 
d="M45 0l262 1319h387l-262 -1319h-387zM543 1470q-165 0 -251 101t-50 278h237q-12 -61 11.5 -94t72.5 -33q51 0 86 32.5t47 94.5h250q-10 -100 -50 -176t-98.5 -119t-122.5 -63.5t-132 -20.5z" />
    <glyph glyph-name="exclamdown.uc" horiz-adv-x="716" 
d="M614 1063l-141 -1108h-455l316 1108h280zM362 1567h414l-67 -348h-414z" />
    <glyph glyph-name="hyphen.uc" horiz-adv-x="870" 
d="M117 567l57 297h670l-58 -297h-669z" />
    <glyph glyph-name="endash.uc" horiz-adv-x="1034" 
d="M119 578l53 276h834l-54 -276h-833z" />
    <glyph glyph-name="emdash.uc" horiz-adv-x="1812" 
d="M121 584l51 264h1612l-51 -264h-1612z" />
    <glyph glyph-name="guilsinglleft.uc" horiz-adv-x="600" 
d="M379 1073h270l-270 -422l113 -411h-273l-129 417z" />
    <glyph glyph-name="guilsinglright.uc" horiz-adv-x="600" 
d="M301 240h-270l270 422l-111 411h271l127 -416z" />
    <glyph glyph-name="guillemotleft.uc" horiz-adv-x="1052" 
d="M831 1073h269l-271 -422l111 -411h-268l-129 417zM377 1073h270l-270 -422l112 -411h-272l-129 417z" />
    <glyph glyph-name="guillemotright.uc" horiz-adv-x="1073" 
d="M301 240h-270l272 422l-113 411h271l125 -416zM774 240h-270l270 422l-110 411h270l127 -416z" />
    <glyph glyph-name="parenleft.uc" horiz-adv-x="747" 
d="M557 -205h-268q-187 327 -187 692q0 178 45.5 353.5t125 326t171 275t199.5 233.5h299q-244 -301 -375 -594.5t-131 -619.5q0 -367 121 -666z" />
    <glyph glyph-name="parenright.uc" horiz-adv-x="747" 
d="M242 1675h268q186 -325 186 -692q0 -178 -45.5 -353.5t-124.5 -326t-170.5 -275t-199.5 -233.5h-299q243 300 374 594t131 621q0 368 -120 665z" />
    <glyph glyph-name="space_uni0326" horiz-adv-x="741" 
d="M-10 -467l119 340h370l-223 -340h-266z" />
    <glyph glyph-name="grave.uc" horiz-adv-x="741" 
d="M694 1966l78 -272h-283l-161 272h366z" />
    <glyph glyph-name="bracketleft.uc" horiz-adv-x="811" 
d="M29 -205l366 1880h580l-45 -229h-264l-277 -1421h264l-45 -230h-579z" />
    <glyph glyph-name="bracketright.uc" horiz-adv-x="811" 
d="M862 1675l-366 -1880h-578l43 230h264l277 1421h-264l45 229h579z" />
    <glyph glyph-name="braceleft.uc" horiz-adv-x="894" 
d="M174 608h-65l51 262h65q66 0 89 27t38 104l54 279q49 251 205 341.5t438 61.5l-43 -221q-153 7 -218 -44.5t-88 -174.5l-45 -242q-21 -113 -69.5 -171.5t-147.5 -75.5v-9q60 -16 90.5 -58t32 -100t-11.5 -130l-41 -205q-26 -125 22 -182.5t205 -61.5l-43 -221
q-80 3 -144.5 12t-121.5 26t-97.5 43t-72 63t-45 85.5t-16.5 110t14 137.5l41 213q12 67 -6 99t-70 32z" />
    <glyph glyph-name="braceright.uc" horiz-adv-x="894" 
d="M803 870h65l-51 -262h-65q-66 0 -89 -27t-38 -104l-54 -278q-49 -251 -205 -342t-438 -62l43 221q79 -4 133 8t88.5 41.5t53 69.5t30.5 101l46 241q21 113 69.5 172t147.5 76v8q-162 43 -111 289l41 205q26 125 -22 182t-205 61l43 222q93 -3 166 -15t135 -35.5
t101.5 -60t66 -89t27.5 -121t-13 -157.5l-41 -213q-12 -67 6 -99t70 -32z" />
    <glyph glyph-name="slash.uc" horiz-adv-x="1148" 
d="M-190 -205l1259 1880h301l-1261 -1880h-299z" />
    <glyph glyph-name="backslash.uc" horiz-adv-x="1148" 
d="M778 -205l-545 1880h283l545 -1880h-283z" />
    <glyph glyph-name="bar.uc" horiz-adv-x="579" 
d="M6 -205l367 1880h256l-367 -1880h-256z" />
    <glyph glyph-name="acute.uc" horiz-adv-x="741" 
d="M416 1694l166 272h374l-249 -272h-291z" />
    <glyph glyph-name="at.uc" horiz-adv-x="2066" 
d="M1536 254q-129 0 -205 53.5t-88 153.5h-6q-50 -95 -125 -147t-192 -52q-148 0 -233 102.5t-85 274.5q0 107 33.5 207t93 177.5t147 124t187.5 46.5q92 0 150.5 -39.5t80.5 -99.5h4l23 106h319l-124 -571q-37 -172 86 -172q46 0 92.5 29t86.5 83.5t66.5 146t28.5 204.5
q4 290 -183 468.5t-495 178.5q-171 0 -329.5 -69.5t-275.5 -188t-188.5 -285t-74.5 -350.5q-3 -170 48 -309t144.5 -231t224 -141.5t285.5 -49.5q158 0 297.5 47.5t241.5 124.5l82 -94q-265 -213 -643 -213q-186 0 -343 62.5t-266.5 174t-170 273t-56.5 352.5q2 149 41 287
t107 251t163.5 206t209 156t245 97.5t270.5 34.5q245 0 436 -96.5t296.5 -272t101.5 -399.5q-2 -134 -31.5 -242.5t-77 -182t-112.5 -123t-136.5 -71.5t-150.5 -22zM1040 473q62 0 114.5 59t70.5 158l18 92q18 89 -12.5 147t-91.5 58q-51 0 -92.5 -34t-66 -87t-37.5 -112
t-13 -115q0 -166 110 -166z" />
    <glyph glyph-name="f.short" horiz-adv-x="757" 
d="M616 836l-161 -836h-383l161 836h-131l54 272h131l18 96q24 125 67.5 209t109 130.5t142 65.5t181.5 19q50 0 96 -4.5t67 -9.5l21 -4l-51 -262q-29 4 -70 4q-82 0 -123 -32t-55 -106l-20 -106h188l-53 -272h-189z" />
    <glyph glyph-name="f_f.short" horiz-adv-x="1476" 
d="M791 0l161 836h-336l-161 -836h-383l161 836h-131l54 272h129l12 59q24 125 67.5 209t109 130.5t142 65.5t181.5 19q50 0 92 -3.5t59 -7.5l17 -3l-52 -262h-53q-82 0 -123.5 -32t-54.5 -105l-14 -70h338l18 96q24 125 67.5 209t109 130.5t142 65.5t181.5 19q50 0 96 -4.5
t67 -9.5l21 -4l-51 -262q-29 4 -70 4q-82 0 -123 -32t-55 -106l-20 -106h188l-53 -272h-189l-161 -836h-383z" />
    <glyph glyph-name="macron.uc" horiz-adv-x="741" 
d="M231 1702l48 246h741l-47 -246h-742z" />
    <glyph glyph-name="circumflex.uc" horiz-adv-x="741" 
d="M813 1966l166 -272h-256l-105 92h-2l-133 -92h-260l273 272h317z" />
    <glyph glyph-name="caron.uc" horiz-adv-x="741" 
d="M442 1694l-166 272h252l105 -92h2l135 92h262l-272 -272h-318z" />
    <glyph glyph-name="breve.uc" horiz-adv-x="741" 
d="M307 1993h225q-5 -53 23.5 -86t77.5 -33q53 0 89 32.5t50 86.5h240q-28 -178 -137.5 -259t-270.5 -81q-148 0 -237 91.5t-60 248.5z" />
    <glyph glyph-name="caron.alt" horiz-adv-x="741" 
d="M387 1204l80 410h295l-201 -410h-174z" />
    <glyph glyph-name="dotaccent.uc" horiz-adv-x="741" 
d="M442 1702l64 321h321l-63 -321h-322z" />
    <glyph glyph-name="ring.uc" horiz-adv-x="741" 
d="M588 1618q-120 0 -202.5 60.5t-82.5 176.5q0 133 86.5 217.5t218.5 84.5q135 0 210 -66.5t75 -173.5q0 -132 -86.5 -215.5t-218.5 -83.5zM610 2009q-58 0 -90.5 -39.5t-32.5 -105.5q0 -47 26.5 -75t74.5 -28q51 0 85 40.5t34 103.5q0 47 -24 75.5t-73 28.5z" />
    <glyph glyph-name="sterling.tab" horiz-adv-x="1204" 
d="M1112 309l-59 -309h-1069l41 215l57 33q132 75 195 153t59 203h-250l43 225h174l-12 78q-15 109 -9.5 204t42.5 174t98 135.5t157.5 88t221.5 31.5q511 0 448 -457h-354q14 93 -15.5 142t-101.5 49q-86 0 -120 -73t-13 -236l17 -136h393l-43 -225h-330q-7 -87 -53 -149
t-146 -127l-22 -15v-4h651z" />
    <glyph glyph-name="tilde.uc" horiz-adv-x="741" 
d="M197 1671q5 60 28.5 119t62.5 108.5t98.5 80t127.5 30.5q52 0 96.5 -23t85 -46t82.5 -23q40 0 64.5 18t40.5 74h168q-11 -147 -91.5 -242.5t-199.5 -95.5q-52 0 -98 14.5t-73 31.5t-59 31.5t-59 14.5q-68 0 -111 -92h-163z" />
    <glyph glyph-name="cent.tab" 
d="M526 229l131 668q-53 -18 -94 -67.5t-64.5 -116t-35.5 -137.5t-12 -140q0 -160 75 -207zM846 436h364q-8 -93 -43.5 -170t-90.5 -130.5t-127.5 -91t-154 -56t-171.5 -19.5l-41 -207h-146l43 218q-89 13 -161.5 45.5t-130 88t-89.5 141.5t-32 196q0 199 73 351t218 240.5
t345 92.5l33 165h146l-35 -176q194 -30 301 -146t98 -300h-383q9 163 -63 205l-131 -674q70 14 116.5 72t61.5 155z" />
    <glyph glyph-name="plus.tab" 
d="M778 594l-78 -406h-311l78 406h-373l53 278h375l78 402h311l-77 -402h376l-53 -278h-379z" />
    <glyph glyph-name="minus.tab" 
d="M135 594l53 278h983l-53 -278h-983z" />
    <glyph glyph-name="multiply.tab" 
d="M242 168l-189 240l375 319l-276 346l254 213l270 -344l364 320l191 -244l-369 -313l271 -345l-256 -215l-265 347z" />
    <glyph glyph-name="divide.tab" 
d="M514 999l68 347h368l-67 -347h-369zM129 594l53 278h983l-53 -278h-983zM711 115h-369l68 346h368z" />
    <glyph glyph-name="equal.tab" 
d="M170 809l55 278h983l-55 -278h-983zM1067 362h-983l53 279h983z" />
    <glyph glyph-name="less.tab" 
d="M1022 74l-928 528l35 168l1131 530l-66 -344l-645 -286l530 -297z" />
    <glyph glyph-name="greater.tab" 
d="M248 1296l926 -520l-33 -172l-1129 -530l66 340l645 291l-533 294z" />
    <glyph glyph-name="florin.tab" 
d="M815 692l-227 -1079h-377l219 1079h-235l49 273h243l31 155q25 121 64 211.5t86 146.5t108.5 90t123 47t136.5 13q42 0 84.5 -3t63.5 -6l22 -3l-22 -283q-27 6 -76 6q-38 0 -65 -7.5t-55 -29t-48.5 -67t-34.5 -115.5l-33 -155h215l-49 -273h-223z" />
    <glyph glyph-name="plusminus.tab" 
d="M807 778l-64 -323h-299l64 323h-383l55 279h381l62 319h299l-62 -319h383l-55 -279h-381zM-25 0l54 279h1063l-54 -279h-1063z" />
    <glyph glyph-name="notequal.tab" 
d="M506 362l-125 -200h-203l125 200h-215l53 279h338l105 168h-410l55 278h529l135 216h203l-135 -216h251l-55 -278h-371l-104 -168h442l-53 -279h-565z" />
    <glyph glyph-name="approxequal.tab" 
d="M154 782q18 174 112.5 275.5t255.5 101.5q70 0 200 -40t175 -40q39 0 69 19.5t33 70.5h238q-41 -376 -350 -376q-70 0 -207 39.5t-182 39.5q-37 0 -65.5 -23t-37.5 -67h-241zM63 336q18 174 112.5 275.5t256.5 101.5q70 0 200 -40t175 -40q39 0 69 19.5t33 70.5h238
q-41 -377 -350 -377q-70 0 -207 40t-182 40q-37 0 -65.5 -23t-37.5 -67h-242z" />
    <glyph glyph-name="lessequal.tab" 
d="M1094 340l-928 528l35 168l1130 531l-65 -344l-645 -287l530 -297zM1030 0h-1028l53 279h1028z" />
    <glyph glyph-name="greaterequal.tab" 
d="M299 1567l926 -520l-33 -173l-1129 -530l66 340l645 291l-532 295zM1028 0h-1026l53 279h1026z" />
    <glyph glyph-name="period.tab" horiz-adv-x="614" 
d="M61 0l70 367h391l-69 -367h-392z" />
    <glyph glyph-name="comma.tab" horiz-adv-x="614" 
d="M-31 -240l185 607h385l-312 -607h-258z" />
    <glyph glyph-name="colon.tab" horiz-adv-x="614" 
d="M145 713l72 366h383l-72 -366h-383zM391 0h-383l70 367h383z" />
    <glyph glyph-name="semicolon.tab" horiz-adv-x="614" 
d="M156 713l71 366h383l-71 -366h-383zM147 -240h-258l185 607h385z" />
    <glyph glyph-name="hungarumlaut.uc" horiz-adv-x="876" 
d="M700 1694l127 272h289l-194 -272h-222zM342 1694l86 272h289l-154 -272h-221z" />
    <glyph glyph-name="currency.tab" 
d="M225 713q0 79 29 155l-219 215l209 209l215 -221q73 29 151 29q75 0 156 -31l217 223l209 -209l-223 -219q28 -70 28 -151q0 -82 -28 -152l225 -219l-209 -209l-219 223q-73 -28 -156 -28q-78 0 -151 26l-215 -221l-209 209l219 213q-29 76 -29 158zM610 547
q71 0 114.5 46.5t43.5 119.5q0 74 -43.5 121t-114.5 47q-70 0 -112.5 -47t-42.5 -121q0 -73 42.5 -119.5t112.5 -46.5z" />
    <glyph glyph-name="percent.tab" horiz-adv-x="1843" 
d="M180 -82l1313 1681h266l-1310 -1681h-269zM223 1075q0 103 33.5 188.5t89 140.5t125.5 84.5t145 29.5q146 0 229 -80t83 -228q0 -102 -33.5 -185.5t-89.5 -135.5t-125.5 -80.5t-144.5 -28.5q-142 0 -227 76t-85 219zM555 971q60 0 98.5 66.5t38.5 166.5q0 123 -94 123
q-60 0 -99.5 -69.5t-39.5 -176.5q0 -51 25 -80.5t71 -29.5zM1305 -14q-142 0 -227 76t-85 219q0 103 33.5 188.5t89 140t125.5 84t145 29.5q146 0 229 -79.5t83 -227.5q0 -102 -33.5 -185.5t-89.5 -135.5t-125.5 -80.5t-144.5 -28.5zM1325 176q60 0 98.5 67t38.5 167
q0 122 -94 122q-60 0 -99.5 -69t-39.5 -176q0 -51 25 -81t71 -30z" />
    <glyph glyph-name="perthousand.tab" horiz-adv-x="2457" 
d="M78 -82l1313 1681h266l-1311 -1681h-268zM125 1071q0 103 34 189.5t90 141.5t126 85.5t145 30.5q142 0 228 -82.5t86 -229.5q0 -102 -34 -184.5t-90.5 -134.5t-126.5 -79.5t-145 -27.5q-143 0 -228 74.5t-85 216.5zM459 975q58 0 96.5 65t38.5 162q0 121 -92 121
q-59 0 -98 -68t-39 -172q0 -50 24.5 -79t69.5 -29zM2013 -14q-143 0 -228 74t-85 216q0 103 34 189.5t90 141.5t126 85.5t145 30.5q142 0 227.5 -82t85.5 -229q0 -102 -34 -184.5t-90 -134.5t-126 -79.5t-145 -27.5zM1198 -14q-143 0 -228 74t-85 216q0 103 34 189.5
t90 141.5t126 85.5t145 30.5q142 0 227.5 -82t85.5 -229q0 -102 -34 -184.5t-90 -134.5t-126 -79.5t-145 -27.5zM2034 180q58 0 96.5 65.5t38.5 162.5q0 120 -92 120q-59 0 -98.5 -67.5t-39.5 -171.5q0 -50 25 -79.5t70 -29.5zM1219 180q58 0 96.5 65.5t38.5 162.5
q0 120 -92 120q-59 0 -98.5 -67.5t-39.5 -171.5q0 -50 25 -79.5t70 -29.5z" />
    <glyph glyph-name="idotaccent" horiz-adv-x="610" 
d="M256 1268l68 346h393l-68 -346h-393zM10 0l215 1108h393l-215 -1108h-393z" />
    <glyph glyph-name="A.sc" horiz-adv-x="1380" 
d="M772 1044q-22 -88 -82 -213l-158 -356h297l-38 344q-7 63 -10.5 119t-2.5 81v25h-6zM899 0l-35 233h-448l-113 -233h-364l686 1319h430l223 -1319h-379z" />
    <glyph glyph-name="AE.sc" horiz-adv-x="2029" 
d="M987 518l107 533h-54q-71 -112 -131 -201l-217 -332h295zM885 0l53 268h-408l-176 -268h-436l930 1319h1220l-57 -268h-532l-54 -267h527l-56 -262h-524l-49 -258h557l-53 -264h-942z" />
    <glyph glyph-name="B.sc" horiz-adv-x="1359" 
d="M719 0h-674l262 1319h533q228 0 350.5 -75.5t122.5 -229.5q0 -135 -78 -212.5t-231 -109.5v-8q124 -26 193 -95t69 -183q0 -195 -145 -300.5t-402 -105.5zM586 780h182q51 0 87.5 16.5t53.5 43.5t24 53t7 53q0 58 -39 92.5t-121 34.5h-137zM477 246h223q92 0 146.5 45.5
t54.5 126.5q0 137 -166 137h-194z" />
    <glyph glyph-name="C.sc" horiz-adv-x="1425" 
d="M1403 834h-404q8 38 2 80t-19.5 77t-47 57.5t-80.5 22.5q-98 0 -170 -93t-105.5 -229.5t-33.5 -291.5q0 -219 164 -219q168 0 223 235h411q-38 -244 -209 -372t-438 -128q-130 0 -232.5 27.5t-180 85t-119 153t-41.5 224.5q0 151 28.5 281.5t89.5 240t150 187.5
t216 121.5t282 43.5q121 0 219 -31t168.5 -91.5t104 -158t22.5 -222.5z" />
    <glyph glyph-name="D.sc" horiz-adv-x="1419" 
d="M45 0l262 1319h496q265 0 422 -143.5t157 -399.5q0 -167 -51 -308t-147 -245.5t-244 -163.5t-332 -59h-563zM487 268h103q77 0 144 30t121 91.5t85 166.5t31 243q0 128 -68 192t-184 64h-78z" />
    <glyph glyph-name="Dcroat.sc" horiz-adv-x="1419" 
d="M608 0h-563l109 543h-117l47 231h115l108 545h496q265 0 422 -143.5t157 -399.5q0 -167 -51 -308t-147 -245.5t-244 -163.5t-332 -59zM487 268h103q77 0 144 30t121 91.5t85 166.5t31 243q0 128 -68 192t-184 64h-78l-55 -281h217l-49 -231h-213z" />
    <glyph glyph-name="E.sc" horiz-adv-x="1187" 
d="M45 0l262 1319h920l-58 -268h-528l-53 -267h520l-53 -262h-518l-52 -258h557l-53 -264h-944z" />
    <glyph glyph-name="Eng.sc" horiz-adv-x="1421" 
d="M668 -303h-136l60 258h76q75 0 115.5 17.5t62.5 60.5l-215 547q-24 62 -44 122.5t-28 90.5l-8 30h-6l-158 -823h-342l262 1319h391l189 -559q22 -64 38.5 -125t22.5 -90l6 -29h7l153 803h342l-194 -979l-39 -203q-26 -134 -68.5 -219.5t-112.5 -134.5t-157 -67.5
t-217 -18.5z" />
    <glyph glyph-name="Eth.sc" horiz-adv-x="1419" 
d="M608 0h-563l109 543h-117l47 231h115l108 545h496q265 0 422 -143.5t157 -399.5q0 -167 -51 -308t-147 -245.5t-244 -163.5t-332 -59zM487 268h103q77 0 144 30t121 91.5t85 166.5t31 243q0 128 -68 192t-184 64h-78l-55 -281h217l-49 -231h-213z" />
    <glyph glyph-name="F.sc" horiz-adv-x="1130" 
d="M526 471l-94 -471h-387l262 1319h895l-57 -268h-504l-61 -314h493l-53 -266h-494z" />
    <glyph glyph-name="G.sc" horiz-adv-x="1458" 
d="M1419 885h-389q4 96 -42.5 150.5t-125.5 54.5q-98 0 -175 -93.5t-116.5 -231t-42.5 -288.5q-3 -134 46.5 -195t146.5 -63q102 -1 165 69.5t93 180.5l8 31h-233l47 231h606l-145 -731h-304l33 168h-6q-37 -81 -136 -139t-237 -58q-233 0 -360 131.5t-127 354.5
q0 205 58.5 373t161 279t240.5 170.5t298 57.5q92 -1 170.5 -15t149.5 -47.5t120 -84t75 -128.5t21 -177z" />
    <glyph glyph-name="H.sc" horiz-adv-x="1460" 
d="M535 516l-103 -516h-387l262 1319h387l-104 -528h411l105 528h389l-262 -1319h-389l102 516h-411z" />
    <glyph glyph-name="I.sc" horiz-adv-x="659" 
d="M45 0l262 1319h387l-262 -1319h-387z" />
    <glyph glyph-name="IJ.sc" horiz-adv-x="1423" 
d="M51 0l262 1319h387l-262 -1319h-387zM723 -6h-119l62 289h67q35 0 61 4.5t45 17t31 25.5t21.5 39t15 47.5t13.5 60.5l170 842h380l-176 -885q-23 -107 -57.5 -183t-80.5 -126.5t-112 -79t-141.5 -40t-179.5 -11.5z" />
    <glyph glyph-name="J.sc" horiz-adv-x="872" 
d="M172 -6h-172l61 289h121q35 0 61 4.5t45 17t31 25.5t21.5 39t15 47.5t13.5 60.5l170 842h381l-177 -885q-28 -133 -73 -219.5t-117.5 -135t-161.5 -67t-219 -18.5z" />
    <glyph glyph-name="K.sc" horiz-adv-x="1376" 
d="M508 403l-80 -403h-383l262 1319h383l-98 -498l469 498h430l-582 -576l326 -743h-397l-217 520z" />
    <glyph glyph-name="L.sc" horiz-adv-x="1116" 
d="M45 0l262 1319h387l-207 -1043h504l-55 -276h-891z" />
    <glyph glyph-name="M.sc" horiz-adv-x="1796" 
d="M45 0l262 1319h524l58 -553q5 -51 8.5 -106.5t4.5 -85.5l1 -29h4q35 98 86 209l264 565h574l-262 -1319h-367l191 967h-7q-63 -144 -155 -332l-311 -635h-263l-63 635q-9 81 -12.5 163.5t-2.5 124.5l1 42h-7l-190 -965h-338z" />
    <glyph glyph-name="N.sc" horiz-adv-x="1421" 
d="M45 0l262 1319h391l189 -559q22 -64 38.5 -125t22.5 -90l6 -29h7l153 803h342l-262 -1319h-348l-215 580q-24 63 -43.5 126.5t-27.5 95.5l-7 32h-6l-160 -834h-342z" />
    <glyph glyph-name="O.sc" horiz-adv-x="1492" 
d="M125 539q0 64 8 131t30.5 147.5t57 152t92 140t131.5 118t180 79.5t232 30q93 0 175.5 -18t158.5 -61t130.5 -108t87 -164.5t32.5 -225.5q0 -62 -8 -127.5t-30 -144.5t-56.5 -150t-92 -139t-131 -117t-179.5 -79t-232 -30q-94 0 -174 15t-158 54.5t-132.5 102t-88 163
t-33.5 231.5zM1022 842q0 237 -174 237q-64 0 -117 -40.5t-87 -104.5t-57.5 -146t-33.5 -162.5t-10 -156.5q0 -238 178 -238q73 0 133 58.5t95 151t54 196.5t19 205z" />
    <glyph glyph-name="OE.sc" horiz-adv-x="2013" 
d="M727 231q83 0 152 72.5t100 206.5l43 217q8 52 9.5 97t-6 93.5t-26 83t-55.5 56.5t-90 22q-69 0 -124.5 -42t-88.5 -106.5t-55 -149t-30.5 -161.5t-8.5 -151q0 -238 180 -238zM889 104q-54 -61 -122.5 -91.5t-178.5 -30.5q-58 0 -114 11.5t-122 47.5t-114 93.5t-80 159
t-31 234.5q1 171 49 319t135 256t215 170t281 62q225 0 309 -125h4l19 109h913l-55 -268h-527l-53 -267h518l-53 -262h-516l-51 -258h555l-55 -264h-938l18 104h-6z" />
    <glyph glyph-name="Oslash.sc" horiz-adv-x="1492" 
d="M516 500l502 485q-48 94 -164 94q-83 0 -149 -55.5t-105 -144.5t-60 -185.5t-24 -193.5zM709 231q79 0 143.5 53t104 138.5t61.5 183t26 197.5l-499 -484q45 -88 164 -88zM1438 776q0 -63 -8.5 -129.5t-31 -147t-58.5 -153t-95.5 -142t-136 -120t-187 -81t-241.5 -30.5
q-233 0 -377 111l-131 -127h-215l246 240q-80 134 -80 327q0 66 8 134t31 149.5t58.5 154.5t95 143t135.5 120.5t186.5 81t241.5 30.5q225 0 374 -120l158 151h217l-274 -266q84 -133 84 -326z" />
    <glyph glyph-name="P.sc" horiz-adv-x="1300" 
d="M676 414h-164l-80 -414h-387l262 1319h502q228 0 367 -97.5t139 -285.5q0 -129 -49.5 -230t-137.5 -164t-202.5 -95.5t-249.5 -32.5zM565 680h142q107 0 168 64t61 178q0 68 -45.5 104.5t-118.5 36.5h-131z" />
    <glyph glyph-name="Q.sc" horiz-adv-x="1492" 
d="M973 -266q-61 127 -123 185t-158 58h-10q-60 0 -115.5 7.5t-112 26t-104.5 47.5t-90 74t-71.5 102.5t-46.5 136t-17 172.5q0 64 8.5 130.5t31 146t57.5 151t93 140t131.5 117.5t179.5 79t232 30q93 0 175.5 -18.5t158 -61.5t130 -107.5t86.5 -163.5t32 -224
q0 -233 -91 -400t-247 -258v-10q82 -29 125 -70t78 -124zM1024 840q0 106 -42 172.5t-132 66.5q-79 0 -141 -60t-96.5 -155t-52 -196.5t-17.5 -198.5q0 -49 8.5 -89.5t28.5 -76.5t57 -56t88 -20q94 0 164 94.5t102.5 231t32.5 287.5z" />
    <glyph glyph-name="R.sc" horiz-adv-x="1374" 
d="M571 711h136q107 0 173 53.5t66 161.5q0 74 -49 111.5t-160 37.5h-94zM524 469l-94 -469h-385l262 1319h473q163 0 269 -29q130 -37 209 -124.5t79 -231.5q0 -303 -311 -412v-4l227 -518h-403l-193 469h-133z" />
    <glyph glyph-name="S.sc" horiz-adv-x="1271" 
d="M51 381h400q2 -70 37 -109t126 -39q86 0 134.5 39t48.5 101q0 46 -26 75.5t-91 47.5l-139 34q-101 26 -169 62.5t-106 84.5t-53.5 100.5t-15.5 121.5q0 142 74 242.5t196.5 148t280.5 47.5q91 0 166.5 -11t142.5 -38t112 -69.5t69 -108t19 -149.5h-393q0 58 -37.5 86
t-101.5 28q-69 0 -110.5 -32.5t-41.5 -90.5q0 -49 32 -72.5t102 -43.5l157 -41q99 -27 164 -60t100 -77t48.5 -91.5t13.5 -113.5q0 -220 -161.5 -351t-426.5 -131q-275 0 -419 102t-132 308z" />
    <glyph glyph-name="T.sc" horiz-adv-x="1243" 
d="M928 1036l-207 -1036h-393l207 1036h-361l59 283h1106l-57 -283h-354z" />
    <glyph glyph-name="Tbar.sc" horiz-adv-x="1243" 
d="M827 539l-106 -539h-393l106 539h-276l47 239h278l52 258h-361l59 283h1106l-57 -283h-354l-51 -258h274l-47 -239h-277z" />
    <glyph glyph-name="Thorn.sc" horiz-adv-x="1271" 
d="M657 502h15q202 6 202 166q0 155 -192 155h-86l-64 -321h125zM653 252h-172l-49 -252h-387l262 1319h387l-51 -254h105q109 0 197 -21t157 -64.5t107 -118t38 -175.5q0 -97 -29 -171.5t-80.5 -124t-127 -80.5t-163 -44.5t-194.5 -13.5z" />
    <glyph glyph-name="U.sc" horiz-adv-x="1390" 
d="M129 502l164 817h393l-168 -821q-24 -125 27 -185q42 -51 133 -51q90 0 141 51q46 46 66 154l170 852h387l-176 -889q-46 -232 -200 -345.5t-421 -113.5q-120 0 -216.5 26.5t-159 74.5t-102 114.5t-46.5 146t8 169.5z" />
    <glyph glyph-name="V.sc" horiz-adv-x="1323" 
d="M365 0l-179 1319h379l74 -754q5 -53 8 -105t3 -78l1 -26h6q27 90 82 209l351 754h383l-668 -1319h-440z" />
    <glyph glyph-name="W.sc" horiz-adv-x="1882" 
d="M674 0h-383l-84 1319h377l18 -606q2 -64 -0.5 -124t-5.5 -88l-4 -28h6q29 94 82 219l266 627h328l51 -612q5 -60 6.5 -118.5t0.5 -86.5l-1 -29h6q21 96 68 219l242 627h364l-559 -1319h-375l-33 674q-4 63 -4.5 116.5t0.5 75.5l2 23h-6q-21 -74 -80 -219z" />
    <glyph glyph-name="X.sc" horiz-adv-x="1359" 
d="M-57 0l573 705l-272 614h403l141 -373h5l258 373h422l-529 -645l305 -674h-411l-166 430h-4l-306 -430h-419z" />
    <glyph glyph-name="Y.sc" horiz-adv-x="1257" 
d="M342 0l115 573l-289 746h385l152 -469h4l305 469h391l-574 -784l-108 -535h-381z" />
    <glyph glyph-name="Z.sc" horiz-adv-x="1208" 
d="M223 1047l56 272h1009l-49 -246l-737 -799h583l-55 -274h-1046l51 246l737 801h-549z" />
    <glyph glyph-name="ampersand.sc" horiz-adv-x="1402" 
d="M623 999q0 -73 67 -151q71 36 108.5 77.5t37.5 102.5q-1 43 -28.5 69.5t-66.5 26.5q-56 0 -87 -38.5t-31 -86.5zM508 561l-10 -6q-46 -30 -73.5 -74.5t-27.5 -95.5q0 -66 40.5 -100.5t109.5 -34.5q82 0 168 59zM1231 0h-64q-106 0 -161.5 19t-114.5 81
q-175 -127 -426 -127q-195 0 -310.5 89.5t-115.5 267.5q0 63 18 118t47.5 95.5t75 77.5t91.5 63.5t106 54.5q-76 102 -76 222q0 91 37.5 163.5t101 117t143 68.5t167.5 25q172 2 279 -76t106 -212q0 -66 -25 -121t-73.5 -98.5t-100.5 -75t-123 -64.5l125 -153q51 64 141 200
h324q-39 -54 -99.5 -142t-106 -152t-85.5 -115q35 -37 71.5 -50.5t98.5 -13.5z" />
    <glyph glyph-name="uni0237.sc" horiz-adv-x="872" 
d="M172 -6h-172l61 289h121q35 0 61 4.5t45 17t31 25.5t21.5 39t15 47.5t13.5 60.5l170 842h381l-177 -885q-28 -133 -73 -219.5t-117.5 -135t-161.5 -67t-219 -18.5z" />
    <glyph glyph-name="exclam.sc" horiz-adv-x="729" 
d="M217 428l102 891h439l-277 -891h-264zM461 0h-391l63 303h389z" />
    <glyph glyph-name="exclamdown.sc" horiz-adv-x="729" 
d="M610 891l-102 -891h-438l276 891h264zM367 1319h391l-64 -303h-389z" />
    <glyph glyph-name="germandbls.sc" horiz-adv-x="2543" 
d="M51 381h400q2 -70 37 -109t126 -39q86 0 134.5 39t48.5 101q0 46 -26 75.5t-91 47.5l-139 34q-101 26 -169 62.5t-106 84.5t-53.5 100.5t-15.5 121.5q0 142 74 242.5t196.5 148t280.5 47.5q91 0 166.5 -11t142.5 -38t112 -69.5t69 -108t19 -149.5h-393q0 58 -37.5 86
t-101.5 28q-69 0 -110.5 -32.5t-41.5 -90.5q0 -49 32 -72.5t102 -43.5l157 -41q99 -27 164 -60t100 -77t48.5 -91.5t13.5 -113.5q0 -220 -161.5 -351t-426.5 -131q-275 0 -419 102t-132 308zM1323 381h399q2 -70 37.5 -109t126.5 -39q85 0 133.5 39t48.5 101q0 47 -25.5 76
t-90.5 47l-140 34q-101 26 -169 62.5t-106 84.5t-53.5 100.5t-15.5 121.5q0 142 74 242.5t196.5 148t280.5 47.5q91 0 166.5 -11t143 -38t112.5 -69.5t69 -108t19 -149.5h-393q0 58 -37.5 86t-101.5 28q-69 0 -110.5 -32.5t-41.5 -90.5q0 -49 31.5 -72.5t101.5 -43.5
l158 -41q99 -27 164 -60t100 -77t48.5 -91.5t13.5 -113.5q0 -220 -161.5 -351t-426.5 -131q-275 0 -419 102t-132 308z" />
    <glyph glyph-name="question.sc" horiz-adv-x="1107" 
d="M719 428h-330l12 57q19 87 49.5 139t102.5 103l123 84q54 37 80 74.5t26 93.5q0 51 -33.5 78.5t-89.5 27.5q-75 0 -118.5 -45.5t-44.5 -134.5h-361q6 195 156.5 316.5t404.5 121.5q220 0 345.5 -94t125.5 -260q0 -106 -57 -190t-172 -156l-154 -96q-22 -14 -35 -31.5
t-17 -30.5t-9 -39zM270 0l64 303h389l-61 -303h-392z" />
    <glyph glyph-name="questiondown.sc" horiz-adv-x="1107" 
d="M461 891h330l-13 -57q-19 -87 -49 -139t-102 -103l-123 -84q-55 -37 -81 -74.5t-26 -93.5q0 -51 33.5 -79t89.5 -28q75 0 119 46t45 135h360q-6 -195 -156.5 -317t-404.5 -122q-220 0 -345.5 94.5t-125.5 260.5q0 106 57.5 190t172.5 156l153 96q32 20 43.5 41.5
t18.5 58.5zM909 1319l-63 -303h-389l61 303h391z" />
    <glyph glyph-name="quotedblleft.sc" horiz-adv-x="1103" 
d="M1147 1319l-189 -580h-368l313 580h244zM684 1319l-186 -580h-371l315 580h242z" />
    <glyph glyph-name="space.tab" horiz-adv-x="614" 
 />
    <glyph glyph-name="quoteleft.sc" horiz-adv-x="647" 
d="M690 1319l-186 -580h-381l326 580h241z" />
    <glyph glyph-name="quoteright.sc" horiz-adv-x="647" 
d="M154 739l188 580h379l-324 -580h-243z" />
    <glyph glyph-name="Lslash.sc" horiz-adv-x="1116" 
d="M45 0l86 436l-145 -41l51 250l145 41l125 633h387l-102 -520l373 104l-52 -250l-372 -104l-54 -273h504l-55 -276h-891z" />
    <glyph glyph-name="AEacute.sc" horiz-adv-x="2029" 
d="M987 518l107 533h-54q-71 -112 -131 -201l-217 -332h295zM885 0l53 268h-408l-176 -268h-436l930 1319h1220l-57 -268h-532l-54 -267h527l-56 -262h-524l-49 -258h557l-53 -264h-942zM1221 1481l170 368h381l-250 -368h-301z" />
    <glyph glyph-name="Aacute.sc" horiz-adv-x="1380" 
d="M772 1044q-22 -88 -82 -213l-158 -356h297l-38 344q-7 63 -10.5 119t-2.5 81v25h-6zM899 0l-35 233h-448l-113 -233h-364l686 1319h430l223 -1319h-379zM713 1481l170 368h381l-250 -368h-301z" />
    <glyph glyph-name="Abreve.sc" horiz-adv-x="1380" 
d="M772 1044q-22 -88 -82 -213l-158 -356h297l-38 344q-7 63 -10.5 119t-2.5 81v25h-6zM899 0l-35 233h-448l-113 -233h-364l686 1319h430l223 -1319h-379zM877 1470q-165 0 -251.5 101.5t-50.5 277.5h238q-12 -61 11.5 -94t72.5 -33q51 0 86 32.5t47 94.5h250
q-10 -100 -50 -176t-98.5 -119t-122.5 -63.5t-132 -20.5z" />
    <glyph glyph-name="Acircumflex.sc" horiz-adv-x="1380" 
d="M772 1044q-22 -88 -82 -213l-158 -356h297l-38 344q-7 63 -10.5 119t-2.5 81v25h-6zM899 0l-35 233h-448l-113 -233h-364l686 1319h430l223 -1319h-379zM1075 1849l154 -368h-238l-104 131l-144 -131h-249l297 368h284z" />
    <glyph glyph-name="Adieresis.sc" horiz-adv-x="1380" 
d="M772 1044q-22 -88 -82 -213l-158 -356h297l-38 344q-7 63 -10.5 119t-2.5 81v25h-6zM899 0l-35 233h-448l-113 -233h-364l686 1319h430l223 -1319h-379zM928 1528l63 321h322l-64 -321h-321zM496 1528l63 321h322l-64 -321h-321z" />
    <glyph glyph-name="Agrave.sc" horiz-adv-x="1380" 
d="M772 1044q-22 -88 -82 -213l-158 -356h297l-38 344q-7 63 -10.5 119t-2.5 81v25h-6zM899 0l-35 233h-448l-113 -233h-364l686 1319h430l223 -1319h-379zM983 1849l37 -368h-291l-117 368h371z" />
    <glyph glyph-name="Amacron.sc" horiz-adv-x="1380" 
d="M772 1044q-22 -88 -82 -213l-158 -356h297l-38 344q-7 63 -10.5 119t-2.5 81v25h-6zM899 0l-35 233h-448l-113 -233h-364l686 1319h430l223 -1319h-379zM502 1528l47 246h741l-47 -246h-741z" />
    <glyph glyph-name="Aogonek.sc" horiz-adv-x="1380" 
d="M772 1044q-22 -88 -82 -213l-158 -356h297l-38 344q-7 63 -10.5 119t-2.5 81v25h-6zM1243 -180l-41 -213h-72q-154 0 -212 36t-58 121q0 71 53 135t154 101h-168l-35 233h-448l-113 -233h-364l686 1319h430l223 -1319q-115 -66 -115 -133q0 -47 80 -47z" />
    <glyph glyph-name="Aring.sc" horiz-adv-x="1380" 
d="M772 1044q-22 -88 -82 -213l-158 -356h297l-38 344q-7 63 -10.5 119t-2.5 81v25h-6zM899 0l-35 233h-448l-113 -233h-364l686 1319h430l223 -1319h-379zM897 1444q-120 0 -202.5 60.5t-82.5 176.5q0 132 87 216.5t219 84.5q135 0 209.5 -66t74.5 -173
q0 -132 -86.5 -215.5t-218.5 -83.5zM920 1835q-58 0 -90.5 -39.5t-32.5 -105.5q0 -47 26 -75t74 -28q51 0 85 40.5t34 103.5q0 47 -23.5 75.5t-72.5 28.5z" />
    <glyph glyph-name="uni01FA.sc" horiz-adv-x="1380" 
d="M772 1044q-22 -88 -82 -213l-158 -356h297l-38 344q-7 63 -10.5 119t-2.5 81v25h-6zM899 0l-35 233h-448l-113 -233h-364l686 1319h430l223 -1319h-379zM897 1444q-120 0 -202.5 60.5t-82.5 176.5q0 132 87 216.5t219 84.5q135 0 209.5 -66t74.5 -173
q0 -132 -86.5 -215.5t-218.5 -83.5zM920 1835q-58 0 -90.5 -39.5t-32.5 -105.5q0 -47 26 -75t74 -28q51 0 85 40.5t34 103.5q0 47 -23.5 75.5t-72.5 28.5zM803 2073l166 272h374l-249 -272h-291z" />
    <glyph glyph-name="Atilde.sc" horiz-adv-x="1380" 
d="M772 1044q-22 -88 -82 -213l-158 -356h297l-38 344q-7 63 -10.5 119t-2.5 81v25h-6zM899 0l-35 233h-448l-113 -233h-364l686 1319h430l223 -1319h-379zM467 1481q10 148 99 258t225 110q52 0 95.5 -23t79.5 -46t70 -23q74 0 123 92h168q-9 -97 -48 -179t-110.5 -135.5
t-162.5 -53.5q-41 0 -80 14.5t-63.5 31.5t-55.5 31.5t-59 14.5q-74 0 -117 -92h-164z" />
    <glyph glyph-name="Cacute.sc" horiz-adv-x="1425" 
d="M1403 834h-404q8 38 2 80t-19.5 77t-47 57.5t-80.5 22.5q-98 0 -170 -93t-105.5 -229.5t-33.5 -291.5q0 -219 164 -219q168 0 223 235h411q-38 -244 -209 -372t-438 -128q-130 0 -232.5 27.5t-180 85t-119 153t-41.5 224.5q0 151 28.5 281.5t89.5 240t150 187.5
t216 121.5t282 43.5q121 0 219 -31t168.5 -91.5t104 -158t22.5 -222.5zM784 1481l170 368h381l-250 -368h-301z" />
    <glyph glyph-name="Ccaron.sc" horiz-adv-x="1425" 
d="M1403 834h-404q8 38 2 80t-19.5 77t-47 57.5t-80.5 22.5q-98 0 -170 -93t-105.5 -229.5t-33.5 -291.5q0 -219 164 -219q168 0 223 235h411q-38 -244 -209 -372t-438 -128q-130 0 -232.5 27.5t-180 85t-119 153t-41.5 224.5q0 151 28.5 281.5t89.5 240t150 187.5
t216 121.5t282 43.5q121 0 219 -31t168.5 -91.5t104 -158t22.5 -222.5zM756 1481l-154 368h238l98 -131l152 131h247l-297 -368h-284z" />
    <glyph glyph-name="Ccedilla.sc" horiz-adv-x="1425" 
d="M569 -475q-60 0 -111 16t-86 57t-28 101h180q3 -41 60 -41q37 0 56 19.5t19 48.5q0 53 -57 53q-38 0 -61 -29h-131l108 238q-395 74 -395 475q0 151 28.5 281.5t89.5 240t150 187.5t216 121.5t282 43.5q121 0 219 -31t168.5 -91.5t104 -158t22.5 -222.5h-404q8 38 2 80
t-19.5 77t-47 57.5t-80.5 22.5q-98 0 -170 -93t-105.5 -229.5t-33.5 -291.5q0 -219 164 -219q168 0 223 235h411q-38 -244 -209 -372t-438 -128q-43 0 -63 2l-49 -112h4q56 41 119 41q68 0 111.5 -41t43.5 -105q0 -107 -75 -170t-218 -63z" />
    <glyph glyph-name="Ccircumflex.sc" horiz-adv-x="1425" 
d="M1403 834h-404q8 38 2 80t-19.5 77t-47 57.5t-80.5 22.5q-98 0 -170 -93t-105.5 -229.5t-33.5 -291.5q0 -219 164 -219q168 0 223 235h411q-38 -244 -209 -372t-438 -128q-130 0 -232.5 27.5t-180 85t-119 153t-41.5 224.5q0 151 28.5 281.5t89.5 240t150 187.5
t216 121.5t282 43.5q121 0 219 -31t168.5 -91.5t104 -158t22.5 -222.5zM1147 1849l153 -368h-237l-105 131l-143 -131h-250l297 368h285z" />
    <glyph glyph-name="Cdotaccent.sc" horiz-adv-x="1425" 
d="M1403 834h-404q8 38 2 80t-19.5 77t-47 57.5t-80.5 22.5q-98 0 -170 -93t-105.5 -229.5t-33.5 -291.5q0 -219 164 -219q168 0 223 235h411q-38 -244 -209 -372t-438 -128q-130 0 -232.5 27.5t-180 85t-119 153t-41.5 224.5q0 151 28.5 281.5t89.5 240t150 187.5
t216 121.5t282 43.5q121 0 219 -31t168.5 -91.5t104 -158t22.5 -222.5zM780 1528l64 321h321l-63 -321h-322z" />
    <glyph glyph-name="Dcaron.sc" horiz-adv-x="1419" 
d="M45 0l262 1319h496q265 0 422 -143.5t157 -399.5q0 -167 -51 -308t-147 -245.5t-244 -163.5t-332 -59h-563zM487 268h103q77 0 144 30t121 91.5t85 166.5t31 243q0 128 -68 192t-184 64h-78zM666 1481l-154 368h238l98 -131l151 131h248l-297 -368h-284z" />
    <glyph glyph-name="Eacute.sc" horiz-adv-x="1187" 
d="M45 0l262 1319h920l-58 -268h-528l-53 -267h520l-53 -262h-518l-52 -258h557l-53 -264h-944zM645 1481l170 368h381l-250 -368h-301z" />
    <glyph glyph-name="Ecaron.sc" horiz-adv-x="1187" 
d="M45 0l262 1319h920l-58 -268h-528l-53 -267h520l-53 -262h-518l-52 -258h557l-53 -264h-944zM616 1481l-153 368h237l99 -131l151 131h248l-297 -368h-285z" />
    <glyph glyph-name="Ecircumflex.sc" horiz-adv-x="1187" 
d="M45 0l262 1319h920l-58 -268h-528l-53 -267h520l-53 -262h-518l-52 -258h557l-53 -264h-944zM1008 1849l153 -368h-237l-105 131l-143 -131h-250l297 368h285z" />
    <glyph glyph-name="Edieresis.sc" horiz-adv-x="1187" 
d="M45 0l262 1319h920l-58 -268h-528l-53 -267h520l-53 -262h-518l-52 -258h557l-53 -264h-944zM860 1528l64 321h321l-63 -321h-322zM428 1528l64 321h321l-63 -321h-322z" />
    <glyph glyph-name="Edotaccent.sc" horiz-adv-x="1187" 
d="M45 0l262 1319h920l-58 -268h-528l-53 -267h520l-53 -262h-518l-52 -258h557l-53 -264h-944zM643 1528l64 321h321l-63 -321h-322z" />
    <glyph glyph-name="Egrave.sc" horiz-adv-x="1187" 
d="M45 0l262 1319h920l-58 -268h-528l-53 -267h520l-53 -262h-518l-52 -258h557l-53 -264h-944zM915 1849l37 -368h-290l-117 368h370z" />
    <glyph glyph-name="Emacron.sc" horiz-adv-x="1187" 
d="M45 0l262 1319h920l-58 -268h-528l-53 -267h520l-53 -262h-518l-52 -258h557l-53 -264h-944zM434 1528l47 246h742l-47 -246h-742z" />
    <glyph glyph-name="Eogonek.sc" horiz-adv-x="1187" 
d="M954 -180l-41 -213h-71q-154 0 -212.5 36.5t-58.5 120.5q0 71 53 135t154 101h-733l262 1319h920l-58 -268h-528l-53 -267h520l-53 -262h-518l-52 -258h557l-53 -264q-115 -66 -115 -133q0 -47 80 -47z" />
    <glyph glyph-name="Gbreve.sc" horiz-adv-x="1458" 
d="M1419 885h-389q4 96 -42.5 150.5t-125.5 54.5q-98 0 -175 -93.5t-116.5 -231t-42.5 -288.5q-3 -134 46.5 -195t146.5 -63q102 -1 165 69.5t93 180.5l8 31h-233l47 231h606l-145 -731h-304l33 168h-6q-37 -81 -136 -139t-237 -58q-233 0 -360 131.5t-127 354.5
q0 205 58.5 373t161 279t240.5 170.5t298 57.5q92 -1 170.5 -15t149.5 -47.5t120 -84t75 -128.5t21 -177zM946 1470q-165 0 -251 101t-50 278h238q-12 -61 11.5 -94t72.5 -33q51 0 86 32.5t47 94.5h250q-10 -100 -50.5 -176t-99 -119t-122.5 -63.5t-132 -20.5z" />
    <glyph glyph-name="Gcircumflex.sc" horiz-adv-x="1458" 
d="M1419 885h-389q4 96 -42.5 150.5t-125.5 54.5q-98 0 -175 -93.5t-116.5 -231t-42.5 -288.5q-3 -134 46.5 -195t146.5 -63q102 -1 165 69.5t93 180.5l8 31h-233l47 231h606l-145 -731h-304l33 168h-6q-37 -81 -136 -139t-237 -58q-233 0 -360 131.5t-127 354.5
q0 205 58.5 373t161 279t240.5 170.5t298 57.5q92 -1 170.5 -15t149.5 -47.5t120 -84t75 -128.5t21 -177zM1147 1849l153 -368h-237l-105 131l-143 -131h-250l297 368h285z" />
    <glyph glyph-name="Gcommaaccent.sc" horiz-adv-x="1458" 
d="M1419 885h-389q4 96 -42.5 150.5t-125.5 54.5q-98 0 -175 -93.5t-116.5 -231t-42.5 -288.5q-3 -134 46.5 -195t146.5 -63q102 -1 165 69.5t93 180.5l8 31h-233l47 231h606l-145 -731h-304l33 168h-6q-37 -81 -136 -139t-237 -58q-233 0 -360 131.5t-127 354.5
q0 205 58.5 373t161 279t240.5 170.5t298 57.5q92 -1 170.5 -15t149.5 -47.5t120 -84t75 -128.5t21 -177zM338 -467l119 340h370l-223 -340h-266z" />
    <glyph glyph-name="Gdotaccent.sc" horiz-adv-x="1458" 
d="M1419 885h-389q4 96 -42.5 150.5t-125.5 54.5q-98 0 -175 -93.5t-116.5 -231t-42.5 -288.5q-3 -134 46.5 -195t146.5 -63q102 -1 165 69.5t93 180.5l8 31h-233l47 231h606l-145 -731h-304l33 168h-6q-37 -81 -136 -139t-237 -58q-233 0 -360 131.5t-127 354.5
q0 205 58.5 373t161 279t240.5 170.5t298 57.5q92 -1 170.5 -15t149.5 -47.5t120 -84t75 -128.5t21 -177zM780 1528l64 321h321l-63 -321h-322z" />
    <glyph glyph-name="Hcircumflex.sc" horiz-adv-x="1460" 
d="M535 516l-103 -516h-387l262 1319h387l-104 -528h411l105 528h389l-262 -1319h-389l102 516h-411zM1143 1849l153 -368h-237l-105 131l-143 -131h-250l297 368h285z" />
    <glyph glyph-name="Iacute.sc" horiz-adv-x="659" 
d="M45 0l262 1319h387l-262 -1319h-387zM379 1481l170 368h381l-250 -368h-301z" />
    <glyph glyph-name="questiondown.uc" horiz-adv-x="1236" 
d="M541 1063h344l-23 -109q-23 -111 -53 -166t-115 -110l-151 -98q-77 -50 -109.5 -98.5t-32.5 -112.5q0 -61 43 -96t123 -35q96 0 157 61.5t58 185.5h373q-1 -91 -24.5 -171t-72.5 -149t-119.5 -118.5t-172 -77.5t-225.5 -28q-148 0 -264.5 43.5t-188.5 135t-72 218.5
q0 135 58.5 232.5t195.5 187.5l176 116q40 27 57.5 61.5t28.5 88.5zM1020 1567l-68 -348h-413l67 348h414z" />
    <glyph glyph-name="Icircumflex.sc" horiz-adv-x="659" 
d="M45 0l262 1319h387l-262 -1319h-387zM741 1849l154 -368h-238l-104 131l-143 -131h-250l297 368h284z" />
    <glyph glyph-name="Idieresis.sc" horiz-adv-x="659" 
d="M45 0l262 1319h387l-262 -1319h-387zM594 1528l63 321h322l-64 -321h-321zM162 1528l63 321h322l-64 -321h-321z" />
    <glyph glyph-name="Igrave.sc" horiz-adv-x="659" 
d="M45 0l262 1319h387l-262 -1319h-387zM649 1849l37 -368h-291l-116 368h370z" />
    <glyph glyph-name="Imacron.sc" horiz-adv-x="659" 
d="M45 0l262 1319h387l-262 -1319h-387zM168 1528l47 246h741l-47 -246h-741z" />
    <glyph glyph-name="Iogonek.sc" horiz-adv-x="659" 
d="M397 -176l-41 -209h-69q-152 0 -210.5 36t-58.5 118q0 69 52.5 131.5t152.5 99.5h-178l262 1319h387l-262 -1319q-113 -65 -113 -131q0 -45 78 -45z" />
    <glyph glyph-name="Itilde.sc" horiz-adv-x="659" 
d="M45 0l262 1319h387l-262 -1319h-387zM133 1481q10 148 99 258t225 110q52 0 95.5 -23t79.5 -46t70 -23q74 0 123 92h168q-9 -97 -48 -179t-110.5 -135.5t-162.5 -53.5q-41 0 -80 14.5t-63.5 31.5t-55.5 31.5t-59 14.5q-74 0 -117 -92h-164z" />
    <glyph glyph-name="Jcircumflex.sc" horiz-adv-x="872" 
d="M172 -6h-172l61 289h121q35 0 61 4.5t45 17t31 25.5t21.5 39t15 47.5t13.5 60.5l170 842h381l-177 -885q-28 -133 -73 -219.5t-117.5 -135t-161.5 -67t-219 -18.5zM965 1849l153 -368h-237l-105 131l-143 -131h-250l297 368h285z" />
    <glyph glyph-name="Kcommaaccent.sc" horiz-adv-x="1376" 
d="M508 403l-80 -403h-383l262 1319h383l-98 -498l469 498h430l-582 -576l326 -743h-397l-217 520zM303 -467l119 340h371l-224 -340h-266z" />
    <glyph glyph-name="Lacute.sc" horiz-adv-x="1116" 
d="M45 0l262 1319h387l-207 -1043h504l-55 -276h-891zM385 1481l170 368h381l-250 -368h-301z" />
    <glyph glyph-name="Lcaron.sc" horiz-adv-x="1116" 
d="M45 0l262 1319h387l-207 -1043h504l-55 -276h-891zM764 909l80 410h295l-201 -410h-174z" />
    <glyph glyph-name="Lcommaaccent.sc" horiz-adv-x="1116" 
d="M45 0l262 1319h387l-207 -1043h504l-55 -276h-891zM174 -467l119 340h371l-224 -340h-266z" />
    <glyph glyph-name="Nacute.sc" horiz-adv-x="1421" 
d="M45 0l262 1319h391l189 -559q22 -64 38.5 -125t22.5 -90l6 -29h7l153 803h342l-262 -1319h-348l-215 580q-24 63 -43.5 126.5t-27.5 95.5l-7 32h-6l-160 -834h-342zM780 1481l170 368h381l-250 -368h-301z" />
    <glyph glyph-name="Ncaron.sc" horiz-adv-x="1421" 
d="M45 0l262 1319h391l189 -559q22 -64 38.5 -125t22.5 -90l6 -29h7l153 803h342l-262 -1319h-348l-215 580q-24 63 -43.5 126.5t-27.5 95.5l-7 32h-6l-160 -834h-342zM752 1481l-154 368h238l98 -131l151 131h248l-297 -368h-284z" />
    <glyph glyph-name="Ncommaaccent.sc" horiz-adv-x="1421" 
d="M45 0l262 1319h391l189 -559q22 -64 38.5 -125t22.5 -90l6 -29h7l153 803h342l-262 -1319h-348l-215 580q-24 63 -43.5 126.5t-27.5 95.5l-7 32h-6l-160 -834h-342zM334 -467l119 340h370l-223 -340h-266z" />
    <glyph glyph-name="Ntilde.sc" horiz-adv-x="1421" 
d="M45 0l262 1319h391l189 -559q22 -64 38.5 -125t22.5 -90l6 -29h7l153 803h342l-262 -1319h-348l-215 580q-24 63 -43.5 126.5t-27.5 95.5l-7 32h-6l-160 -834h-342zM535 1481q10 148 98.5 258t224.5 110q41 0 78 -14.5t59.5 -31.5t51.5 -31.5t57 -14.5q74 0 123 92h168
q-14 -151 -100.5 -259.5t-221.5 -108.5q-41 0 -80 14.5t-63.5 31.5t-55.5 31.5t-59 14.5q-74 0 -117 -92h-163z" />
    <glyph glyph-name="Oacute.sc" horiz-adv-x="1492" 
d="M125 539q0 64 8 131t30.5 147.5t57 152t92 140t131.5 118t180 79.5t232 30q93 0 175.5 -18t158.5 -61t130.5 -108t87 -164.5t32.5 -225.5q0 -62 -8 -127.5t-30 -144.5t-56.5 -150t-92 -139t-131 -117t-179.5 -79t-232 -30q-94 0 -174 15t-158 54.5t-132.5 102t-88 163
t-33.5 231.5zM1022 842q0 237 -174 237q-64 0 -117 -40.5t-87 -104.5t-57.5 -146t-33.5 -162.5t-10 -156.5q0 -238 178 -238q73 0 133 58.5t95 151t54 196.5t19 205zM774 1481l170 368h381l-250 -368h-301z" />
    <glyph glyph-name="Obreve.sc" horiz-adv-x="1492" 
d="M125 539q0 64 8 131t30.5 147.5t57 152t92 140t131.5 118t180 79.5t232 30q93 0 175.5 -18t158.5 -61t130.5 -108t87 -164.5t32.5 -225.5q0 -62 -8 -127.5t-30 -144.5t-56.5 -150t-92 -139t-131 -117t-179.5 -79t-232 -30q-94 0 -174 15t-158 54.5t-132.5 102t-88 163
t-33.5 231.5zM1022 842q0 237 -174 237q-64 0 -117 -40.5t-87 -104.5t-57.5 -146t-33.5 -162.5t-10 -156.5q0 -238 178 -238q73 0 133 58.5t95 151t54 196.5t19 205zM936 1470q-165 0 -251 101t-50 278h237q-12 -61 11.5 -94t72.5 -33q51 0 86.5 32.5t47.5 94.5h249
q-10 -100 -50 -176t-98.5 -119t-122.5 -63.5t-132 -20.5z" />
    <glyph glyph-name="Ocircumflex.sc" horiz-adv-x="1492" 
d="M125 539q0 64 8 131t30.5 147.5t57 152t92 140t131.5 118t180 79.5t232 30q93 0 175.5 -18t158.5 -61t130.5 -108t87 -164.5t32.5 -225.5q0 -62 -8 -127.5t-30 -144.5t-56.5 -150t-92 -139t-131 -117t-179.5 -79t-232 -30q-94 0 -174 15t-158 54.5t-132.5 102t-88 163
t-33.5 231.5zM1022 842q0 237 -174 237q-64 0 -117 -40.5t-87 -104.5t-57.5 -146t-33.5 -162.5t-10 -156.5q0 -238 178 -238q73 0 133 58.5t95 151t54 196.5t19 205zM1137 1849l153 -368h-237l-105 131l-143 -131h-250l297 368h285z" />
    <glyph glyph-name="Odieresis.sc" horiz-adv-x="1492" 
d="M125 539q0 64 8 131t30.5 147.5t57 152t92 140t131.5 118t180 79.5t232 30q93 0 175.5 -18t158.5 -61t130.5 -108t87 -164.5t32.5 -225.5q0 -62 -8 -127.5t-30 -144.5t-56.5 -150t-92 -139t-131 -117t-179.5 -79t-232 -30q-94 0 -174 15t-158 54.5t-132.5 102t-88 163
t-33.5 231.5zM1022 842q0 237 -174 237q-64 0 -117 -40.5t-87 -104.5t-57.5 -146t-33.5 -162.5t-10 -156.5q0 -238 178 -238q73 0 133 58.5t95 151t54 196.5t19 205zM987 1528l64 321h321l-63 -321h-322zM555 1528l63 321h322l-63 -321h-322z" />
    <glyph glyph-name="Ograve.sc" horiz-adv-x="1492" 
d="M125 539q0 64 8 131t30.5 147.5t57 152t92 140t131.5 118t180 79.5t232 30q93 0 175.5 -18t158.5 -61t130.5 -108t87 -164.5t32.5 -225.5q0 -62 -8 -127.5t-30 -144.5t-56.5 -150t-92 -139t-131 -117t-179.5 -79t-232 -30q-94 0 -174 15t-158 54.5t-132.5 102t-88 163
t-33.5 231.5zM1022 842q0 237 -174 237q-64 0 -117 -40.5t-87 -104.5t-57.5 -146t-33.5 -162.5t-10 -156.5q0 -238 178 -238q73 0 133 58.5t95 151t54 196.5t19 205zM1044 1849l37 -368h-290l-117 368h370z" />
    <glyph glyph-name="Ohungarumlaut.sc" horiz-adv-x="1492" 
d="M125 539q0 64 8 131t30.5 147.5t57 152t92 140t131.5 118t180 79.5t232 30q93 0 175.5 -18t158.5 -61t130.5 -108t87 -164.5t32.5 -225.5q0 -62 -8 -127.5t-30 -144.5t-56.5 -150t-92 -139t-131 -117t-179.5 -79t-232 -30q-94 0 -174 15t-158 54.5t-132.5 102t-88 163
t-33.5 231.5zM1022 842q0 237 -174 237q-64 0 -117 -40.5t-87 -104.5t-57.5 -146t-33.5 -162.5t-10 -156.5q0 -238 178 -238q73 0 133 58.5t95 151t54 196.5t19 205zM961 1481l174 368h295l-244 -368h-225zM606 1481l135 368h295l-202 -368h-228z" />
    <glyph glyph-name="Omacron.sc" horiz-adv-x="1492" 
d="M125 539q0 64 8 131t30.5 147.5t57 152t92 140t131.5 118t180 79.5t232 30q93 0 175.5 -18t158.5 -61t130.5 -108t87 -164.5t32.5 -225.5q0 -62 -8 -127.5t-30 -144.5t-56.5 -150t-92 -139t-131 -117t-179.5 -79t-232 -30q-94 0 -174 15t-158 54.5t-132.5 102t-88 163
t-33.5 231.5zM1022 842q0 237 -174 237q-64 0 -117 -40.5t-87 -104.5t-57.5 -146t-33.5 -162.5t-10 -156.5q0 -238 178 -238q73 0 133 58.5t95 151t54 196.5t19 205zM561 1528l47 246h742l-47 -246h-742z" />
    <glyph glyph-name="Oslashacute.sc" horiz-adv-x="1492" 
d="M516 500l502 485q-48 94 -164 94q-83 0 -149 -55.5t-105 -144.5t-60 -185.5t-24 -193.5zM709 231q79 0 143.5 53t104 138.5t61.5 183t26 197.5l-499 -484q45 -88 164 -88zM1438 776q0 -63 -8.5 -129.5t-31 -147t-58.5 -153t-95.5 -142t-136 -120t-187 -81t-241.5 -30.5
q-233 0 -377 111l-131 -127h-215l246 240q-80 134 -80 327q0 66 8 134t31 149.5t58.5 154.5t95 143t135.5 120.5t186.5 81t241.5 30.5q225 0 374 -120l158 151h217l-274 -266q84 -133 84 -326zM803 1481l170 368h381l-250 -368h-301z" />
    <glyph glyph-name="Otilde.sc" horiz-adv-x="1492" 
d="M125 539q0 64 8 131t30.5 147.5t57 152t92 140t131.5 118t180 79.5t232 30q93 0 175.5 -18t158.5 -61t130.5 -108t87 -164.5t32.5 -225.5q0 -62 -8 -127.5t-30 -144.5t-56.5 -150t-92 -139t-131 -117t-179.5 -79t-232 -30q-94 0 -174 15t-158 54.5t-132.5 102t-88 163
t-33.5 231.5zM1022 842q0 237 -174 237q-64 0 -117 -40.5t-87 -104.5t-57.5 -146t-33.5 -162.5t-10 -156.5q0 -238 178 -238q73 0 133 58.5t95 151t54 196.5t19 205zM528 1481q10 148 99 258t225 110q41 0 78 -14.5t59.5 -31.5t51.5 -31.5t57 -14.5q74 0 123 92h168
q-14 -151 -100.5 -259.5t-221.5 -108.5q-41 0 -80 14.5t-63.5 31.5t-55.5 31.5t-59 14.5q-74 0 -117 -92h-164z" />
    <glyph glyph-name="Racute.sc" horiz-adv-x="1374" 
d="M571 711h136q107 0 173 53.5t66 161.5q0 74 -49 111.5t-160 37.5h-94zM524 469l-94 -469h-385l262 1319h473q163 0 269 -29q130 -37 209 -124.5t79 -231.5q0 -303 -311 -412v-4l227 -518h-403l-193 469h-133zM700 1481l170 368h381l-250 -368h-301z" />
    <glyph glyph-name="Rcaron.sc" horiz-adv-x="1374" 
d="M571 711h136q107 0 173 53.5t66 161.5q0 74 -49 111.5t-160 37.5h-94zM524 469l-94 -469h-385l262 1319h473q163 0 269 -29q130 -37 209 -124.5t79 -231.5q0 -303 -311 -412v-4l227 -518h-403l-193 469h-133zM672 1481l-154 368h238l98 -131l152 131h247l-297 -368h-284z
" />
    <glyph glyph-name="Rcommaaccent.sc" horiz-adv-x="1353" 
d="M571 711h136q107 0 173 53.5t66 161.5q0 74 -49 111.5t-160 37.5h-94zM524 469l-94 -469h-385l262 1319h473q163 0 269 -29q130 -37 209 -124.5t79 -231.5q0 -303 -311 -412v-4l227 -518h-403l-193 469h-133zM313 -467l119 340h371l-223 -340h-267z" />
    <glyph glyph-name="Sacute.sc" horiz-adv-x="1271" 
d="M51 381h400q2 -70 37 -109t126 -39q86 0 134.5 39t48.5 101q0 46 -26 75.5t-91 47.5l-139 34q-101 26 -169 62.5t-106 84.5t-53.5 100.5t-15.5 121.5q0 142 74 242.5t196.5 148t280.5 47.5q91 0 166.5 -11t142.5 -38t112 -69.5t69 -108t19 -149.5h-393q0 58 -37.5 86
t-101.5 28q-69 0 -110.5 -32.5t-41.5 -90.5q0 -49 32 -72.5t102 -43.5l157 -41q99 -27 164 -60t100 -77t48.5 -91.5t13.5 -113.5q0 -220 -161.5 -351t-426.5 -131q-275 0 -419 102t-132 308zM635 1481l170 368h381l-250 -368h-301z" />
    <glyph glyph-name="Scaron.sc" horiz-adv-x="1271" 
d="M51 381h400q2 -70 37 -109t126 -39q86 0 134.5 39t48.5 101q0 46 -26 75.5t-91 47.5l-139 34q-101 26 -169 62.5t-106 84.5t-53.5 100.5t-15.5 121.5q0 142 74 242.5t196.5 148t280.5 47.5q91 0 166.5 -11t142.5 -38t112 -69.5t69 -108t19 -149.5h-393q0 58 -37.5 86
t-101.5 28q-69 0 -110.5 -32.5t-41.5 -90.5q0 -49 32 -72.5t102 -43.5l157 -41q99 -27 164 -60t100 -77t48.5 -91.5t13.5 -113.5q0 -220 -161.5 -351t-426.5 -131q-275 0 -419 102t-132 308zM606 1481l-153 368h237l98 -131l152 131h248l-297 -368h-285z" />
    <glyph glyph-name="Scedilla.sc" horiz-adv-x="1271" 
d="M420 -475q-60 0 -111 16t-86 57t-28 101h180q3 -41 59 -41q37 0 56.5 19.5t19.5 48.5q0 53 -57 53q-39 0 -62 -29h-131l111 244q-164 36 -246.5 133t-73.5 254h400q2 -70 37 -109t126 -39q86 0 134.5 39t48.5 101q0 46 -26 75.5t-91 47.5l-139 34q-101 26 -169 62.5
t-106 84.5t-53.5 100.5t-15.5 121.5q0 142 74 242.5t196.5 148t280.5 47.5q91 0 166.5 -11t142.5 -38t112 -69.5t69 -108t19 -149.5h-393q0 58 -37.5 86t-101.5 28q-69 0 -110.5 -32.5t-41.5 -90.5q0 -49 32 -72.5t102 -43.5l157 -41q99 -27 164 -60t100 -77t48.5 -91.5
t13.5 -113.5q0 -220 -161.5 -351t-426.5 -131q-64 0 -119 6l-49 -114h4q56 41 119 41q68 0 112 -41t44 -105q0 -107 -75 -170t-218 -63z" />
    <glyph glyph-name="Scircumflex.sc" horiz-adv-x="1271" 
d="M51 381h400q2 -70 37 -109t126 -39q86 0 134.5 39t48.5 101q0 46 -26 75.5t-91 47.5l-139 34q-101 26 -169 62.5t-106 84.5t-53.5 100.5t-15.5 121.5q0 142 74 242.5t196.5 148t280.5 47.5q91 0 166.5 -11t142.5 -38t112 -69.5t69 -108t19 -149.5h-393q0 58 -37.5 86
t-101.5 28q-69 0 -110.5 -32.5t-41.5 -90.5q0 -49 32 -72.5t102 -43.5l157 -41q99 -27 164 -60t100 -77t48.5 -91.5t13.5 -113.5q0 -220 -161.5 -351t-426.5 -131q-275 0 -419 102t-132 308zM997 1849l154 -368h-238l-104 131l-143 -131h-250l297 368h284z" />
    <glyph glyph-name="Scommaaccent.sc" horiz-adv-x="1271" 
d="M51 381h400q2 -70 37 -109t126 -39q86 0 134.5 39t48.5 101q0 46 -26 75.5t-91 47.5l-139 34q-101 26 -169 62.5t-106 84.5t-53.5 100.5t-15.5 121.5q0 142 74 242.5t196.5 148t280.5 47.5q91 0 166.5 -11t142.5 -38t112 -69.5t69 -108t19 -149.5h-393q0 58 -37.5 86
t-101.5 28q-69 0 -110.5 -32.5t-41.5 -90.5q0 -49 32 -72.5t102 -43.5l157 -41q99 -27 164 -60t100 -77t48.5 -91.5t13.5 -113.5q0 -220 -161.5 -351t-426.5 -131q-275 0 -419 102t-132 308zM188 -467l119 340h371l-223 -340h-267z" />
    <glyph glyph-name="Tcaron.sc" horiz-adv-x="1243" 
d="M928 1036l-207 -1036h-393l207 1036h-361l59 283h1106l-57 -283h-354zM637 1481l-154 368h238l98 -131l152 131h248l-297 -368h-285z" />
    <glyph glyph-name="Tcommaaccent.sc" horiz-adv-x="1243" 
d="M928 1036l-207 -1036h-393l207 1036h-361l59 283h1106l-57 -283h-354zM197 -467l118 340h371l-223 -340h-266z" />
    <glyph glyph-name="Uacute.sc" horiz-adv-x="1390" 
d="M129 502l164 817h393l-168 -821q-24 -125 27 -185q42 -51 133 -51q90 0 141 51q46 46 66 154l170 852h387l-176 -889q-46 -232 -200 -345.5t-421 -113.5q-120 0 -216.5 26.5t-159 74.5t-102 114.5t-46.5 146t8 169.5zM756 1481l170 368h381l-250 -368h-301z" />
    <glyph glyph-name="Ubreve.sc" horiz-adv-x="1390" 
d="M129 502l164 817h393l-168 -821q-24 -125 27 -185q42 -51 133 -51q90 0 141 51q46 46 66 154l170 852h387l-176 -889q-46 -232 -200 -345.5t-421 -113.5q-120 0 -216.5 26.5t-159 74.5t-102 114.5t-46.5 146t8 169.5zM918 1470q-165 0 -251.5 101.5t-50.5 277.5h238
q-12 -61 11.5 -94t72.5 -33q51 0 86 32.5t47 94.5h250q-10 -100 -50 -176t-98.5 -119t-122.5 -63.5t-132 -20.5z" />
    <glyph glyph-name="Ucircumflex.sc" horiz-adv-x="1390" 
d="M129 502l164 817h393l-168 -821q-24 -125 27 -185q42 -51 133 -51q90 0 141 51q46 46 66 154l170 852h387l-176 -889q-46 -232 -200 -345.5t-421 -113.5q-120 0 -216.5 26.5t-159 74.5t-102 114.5t-46.5 146t8 169.5zM1118 1849l154 -368h-238l-104 131l-144 -131h-249
l297 368h284z" />
    <glyph glyph-name="Udieresis.sc" horiz-adv-x="1390" 
d="M129 502l164 817h393l-168 -821q-24 -125 27 -185q42 -51 133 -51q90 0 141 51q46 46 66 154l170 852h387l-176 -889q-46 -232 -200 -345.5t-421 -113.5q-120 0 -216.5 26.5t-159 74.5t-102 114.5t-46.5 146t8 169.5zM969 1528l63 321h322l-64 -321h-321zM537 1528
l63 321h322l-64 -321h-321z" />
    <glyph glyph-name="Ugrave.sc" horiz-adv-x="1390" 
d="M129 502l164 817h393l-168 -821q-24 -125 27 -185q42 -51 133 -51q90 0 141 51q46 46 66 154l170 852h387l-176 -889q-46 -232 -200 -345.5t-421 -113.5q-120 0 -216.5 26.5t-159 74.5t-102 114.5t-46.5 146t8 169.5zM1026 1849l37 -368h-291l-117 368h371z" />
    <glyph glyph-name="Uhungarumlaut.sc" horiz-adv-x="1390" 
d="M129 502l164 817h393l-168 -821q-24 -125 27 -185q42 -51 133 -51q90 0 141 51q46 46 66 154l170 852h387l-176 -889q-46 -232 -200 -345.5t-421 -113.5q-120 0 -216.5 26.5t-159 74.5t-102 114.5t-46.5 146t8 169.5zM942 1481l174 368h295l-244 -368h-225zM588 1481
l135 368h295l-203 -368h-227z" />
    <glyph glyph-name="Umacron.sc" horiz-adv-x="1390" 
d="M129 502l164 817h393l-168 -821q-24 -125 27 -185q42 -51 133 -51q90 0 141 51q46 46 66 154l170 852h387l-176 -889q-46 -232 -200 -345.5t-421 -113.5q-120 0 -216.5 26.5t-159 74.5t-102 114.5t-46.5 146t8 169.5zM543 1528l47 246h741l-47 -246h-741z" />
    <glyph glyph-name="Uogonek.sc" horiz-adv-x="1390" 
d="M711 -385h-72q-152 0 -211 40t-59 126q0 119 145 190v9q-228 34 -327 176.5t-58 345.5l164 817h393l-168 -821q-24 -125 27 -185q42 -51 133 -51q90 0 141 51q46 46 66 154l170 852h387l-176 -889q-21 -105 -62 -184t-100 -130.5t-127.5 -82t-153.5 -45.5
q-151 -28 -151 -103q0 -57 80 -57z" />
    <glyph glyph-name="Uring.sc" horiz-adv-x="1390" 
d="M129 502l164 817h393l-168 -821q-24 -125 27 -185q42 -51 133 -51q90 0 141 51q46 46 66 154l170 852h387l-176 -889q-46 -232 -200 -345.5t-421 -113.5q-120 0 -216.5 26.5t-159 74.5t-102 114.5t-46.5 146t8 169.5zM938 1444q-120 0 -202.5 60.5t-82.5 176.5
q0 132 86.5 216.5t218.5 84.5q135 0 210 -66t75 -173q0 -132 -86.5 -215.5t-218.5 -83.5zM961 1835q-58 0 -90.5 -39.5t-32.5 -105.5q0 -47 26 -75t74 -28q51 0 85 40.5t34 103.5q0 47 -23.5 75.5t-72.5 28.5z" />
    <glyph glyph-name="Utilde.sc" horiz-adv-x="1390" 
d="M129 502l164 817h393l-168 -821q-24 -125 27 -185q42 -51 133 -51q90 0 141 51q46 46 66 154l170 852h387l-176 -889q-46 -232 -200 -345.5t-421 -113.5q-120 0 -216.5 26.5t-159 74.5t-102 114.5t-46.5 146t8 169.5zM510 1481q10 148 99 258t225 110q52 0 95.5 -23
t79.5 -46t70 -23q74 0 123 92h168q-9 -97 -48 -179t-110.5 -135.5t-162.5 -53.5q-41 0 -80 14.5t-63.5 31.5t-55.5 31.5t-59 14.5q-74 0 -117 -92h-164z" />
    <glyph glyph-name="Wacute.sc" horiz-adv-x="1882" 
d="M674 0h-383l-84 1319h377l18 -606q2 -64 -0.5 -124t-5.5 -88l-4 -28h6q29 94 82 219l266 627h328l51 -612q5 -60 6.5 -118.5t0.5 -86.5l-1 -29h6q21 96 68 219l242 627h364l-559 -1319h-375l-33 674q-4 63 -4.5 116.5t0.5 75.5l2 23h-6q-21 -74 -80 -219zM987 1481
l170 368h381l-250 -368h-301z" />
    <glyph glyph-name="Wcircumflex.sc" horiz-adv-x="1882" 
d="M674 0h-383l-84 1319h377l18 -606q2 -64 -0.5 -124t-5.5 -88l-4 -28h6q29 94 82 219l266 627h328l51 -612q5 -60 6.5 -118.5t0.5 -86.5l-1 -29h6q21 96 68 219l242 627h364l-559 -1319h-375l-33 674q-4 63 -4.5 116.5t0.5 75.5l2 23h-6q-21 -74 -80 -219zM1350 1849
l153 -368h-237l-105 131l-143 -131h-250l297 368h285z" />
    <glyph glyph-name="Wdieresis.sc" horiz-adv-x="1882" 
d="M674 0h-383l-84 1319h377l18 -606q2 -64 -0.5 -124t-5.5 -88l-4 -28h6q29 94 82 219l266 627h328l51 -612q5 -60 6.5 -118.5t0.5 -86.5l-1 -29h6q21 96 68 219l242 627h364l-559 -1319h-375l-33 674q-4 63 -4.5 116.5t0.5 75.5l2 23h-6q-21 -74 -80 -219zM1202 1528
l64 321h321l-63 -321h-322zM770 1528l64 321h321l-63 -321h-322z" />
    <glyph glyph-name="Wgrave.sc" horiz-adv-x="1882" 
d="M674 0h-383l-84 1319h377l18 -606q2 -64 -0.5 -124t-5.5 -88l-4 -28h6q29 94 82 219l266 627h328l51 -612q5 -60 6.5 -118.5t0.5 -86.5l-1 -29h6q21 96 68 219l242 627h364l-559 -1319h-375l-33 674q-4 63 -4.5 116.5t0.5 75.5l2 23h-6q-21 -74 -80 -219zM1257 1849
l37 -368h-290l-117 368h370z" />
    <glyph glyph-name="Yacute.sc" horiz-adv-x="1257" 
d="M342 0l115 573l-289 746h385l152 -469h4l305 469h391l-574 -784l-108 -535h-381zM678 1481l170 368h381l-250 -368h-301z" />
    <glyph glyph-name="Ycircumflex.sc" horiz-adv-x="1257" 
d="M342 0l115 573l-289 746h385l152 -469h4l305 469h391l-574 -784l-108 -535h-381zM1040 1849l154 -368h-238l-104 131l-143 -131h-250l297 368h284z" />
    <glyph glyph-name="Ydieresis.sc" horiz-adv-x="1257" 
d="M342 0l115 573l-289 746h385l152 -469h4l305 469h391l-574 -784l-108 -535h-381zM893 1528l63 321h322l-64 -321h-321zM461 1528l63 321h322l-64 -321h-321z" />
    <glyph glyph-name="Ygrave.sc" horiz-adv-x="1257" 
d="M342 0l115 573l-289 746h385l152 -469h4l305 469h391l-574 -784l-108 -535h-381zM948 1849l37 -368h-291l-116 368h370z" />
    <glyph glyph-name="Zacute.sc" horiz-adv-x="1208" 
d="M223 1047l56 272h1009l-49 -246l-737 -799h583l-55 -274h-1046l51 246l737 801h-549zM645 1481l170 368h381l-250 -368h-301z" />
    <glyph glyph-name="Zcaron.sc" horiz-adv-x="1208" 
d="M223 1047l56 272h1009l-49 -246l-737 -799h583l-55 -274h-1046l51 246l737 801h-549zM616 1481l-153 368h237l99 -131l151 131h248l-297 -368h-285z" />
    <glyph glyph-name="Zdotaccent.sc" horiz-adv-x="1208" 
d="M223 1047l56 272h1009l-49 -246l-737 -799h583l-55 -274h-1046l51 246l737 801h-549zM643 1528l64 321h321l-63 -321h-322z" />
    <glyph glyph-name="Ldot.sc" horiz-adv-x="1142" 
d="M782 625l64 299h297l-64 -299h-297zM45 0l262 1319h387l-207 -1043h504l-55 -276h-891z" />
    <glyph glyph-name="napostrophe.sc" horiz-adv-x="1421" 
d="M45 0l262 1319h391l189 -559q22 -64 38.5 -125t22.5 -90l6 -29h7l153 803h342l-262 -1319h-348l-215 580q-24 63 -43.5 126.5t-27.5 95.5l-7 32h-6l-160 -834h-342z" />
    <glyph glyph-name="Hbar.sc" horiz-adv-x="1460" 
d="M1001 791l35 174h-411l-35 -174h411zM535 516l-103 -516h-387l193 965h-117l41 196h114l31 158h387l-30 -158h411l31 158h389l-31 -158h119l-43 -196h-115l-192 -965h-389l102 516h-411z" />
    <glyph glyph-name="Idotaccent.sc" horiz-adv-x="659" 
d="M45 0l262 1319h387l-262 -1319h-387zM383 1528l63 321h322l-63 -321h-322z" />
    <glyph glyph-name="Ebreve.sc" horiz-adv-x="1187" 
d="M45 0l262 1319h920l-58 -268h-528l-53 -267h520l-53 -262h-518l-52 -258h557l-53 -264h-944zM766 1470q-165 0 -251 101t-50 278h237q-12 -61 11.5 -94t72.5 -33q51 0 86.5 32.5t47.5 94.5h249q-10 -100 -50 -176t-98.5 -119t-122.5 -63.5t-132 -20.5z" />
    <glyph glyph-name="yen.tab" 
d="M317 0l52 266h-344l30 164h346l29 154h-348l31 164h338l-271 770h393l136 -486h4l305 486h412l-572 -770h336l-31 -164h-346l-29 -154h349l-31 -164h-350l-51 -266h-388z" />
    <glyph glyph-name="eight.den" horiz-adv-x="888" 
d="M500 897q157 0 243 -59t86 -158q0 -93 -50 -143.5t-144 -79.5v-6q158 -50 158 -189q0 -125 -100 -202.5t-308 -77.5q-371 0 -371 237q0 97 58.5 158t154.5 86v6q-106 50 -106 160q0 120 103 194t276 74zM489 723q-58 0 -85 -33.5t-27 -79.5q0 -82 90 -82q45 0 76.5 30
t31.5 85q0 37 -24 58.5t-62 21.5zM397 147q50 0 86.5 35.5t36.5 100.5q0 43 -27 67.5t-71 24.5q-67 0 -99 -39t-32 -92q0 -97 106 -97z" />
    <glyph glyph-name="five.den" horiz-adv-x="897" 
d="M530 311q0 47 -25 73t-75 26q-64 0 -131 -62h-225l151 535h631l-43 -207h-424l-51 -176h6q93 80 221 80q118 0 178 -62.5t60 -169.5q0 -177 -116 -271.5t-320 -94.5q-171 0 -260.5 67.5t-75.5 212.5h264q0 -94 102 -94q57 0 95 38t38 105z" />
    <glyph glyph-name="four.den" horiz-adv-x="935" 
d="M289 360h215l74 342h-7q-41 -73 -102 -141zM815 176h-110l-37 -176h-248l37 176h-457l37 178l493 529h324l-106 -508h110z" />
    <glyph glyph-name="nine.den" horiz-adv-x="897" 
d="M457 723q-58 0 -90.5 -45.5t-32.5 -108.5q0 -98 90 -98q63 0 96 44t33 108q0 100 -96 100zM334 -18q-150 2 -230.5 63t-76.5 176h247q12 -74 93 -74q68 0 109.5 65.5t55.5 180.5h-6q-65 -92 -209 -92q-114 0 -186 73t-72 181q0 160 109.5 251t302.5 91q96 0 165.5 -26.5
t109 -74t57.5 -106.5t18 -131q0 -283 -128.5 -431t-358.5 -146z" />
    <glyph glyph-name="one.den" horiz-adv-x="626" 
d="M119 0l117 549h-197l39 186h35q86 0 139 31q59 34 74 117h252l-187 -883h-272z" />
    <glyph glyph-name="seven.den" horiz-adv-x="829" 
d="M29 0l454 680h-399l45 203h717l-31 -144l-500 -739h-286z" />
    <glyph glyph-name="six.den" horiz-adv-x="909" 
d="M815 348q2 -165 -105.5 -266.5t-303.5 -101.5q-171 0 -263 91t-92 255q0 270 132 419.5t358 149.5q141 0 221.5 -65t77.5 -171h-250q-10 68 -82 68q-66 0 -106.5 -62.5t-63.5 -181.5h6q38 46 95.5 72.5t117.5 26.5q123 0 189.5 -63t68.5 -171zM416 152q56 0 87.5 46.5
t31.5 110.5q0 103 -86 103q-59 0 -92 -47t-33 -109q0 -104 92 -104z" />
    <glyph glyph-name="three.den" horiz-adv-x="884" 
d="M418 369h-119l33 151h96q57 0 94 33.5t37 81.5q0 36 -25 56t-63 20q-90 0 -111 -93h-268q17 117 118 198t282 81q157 0 246 -59.5t89 -157.5q0 -177 -196 -225v-4q151 -46 151 -183q0 -140 -110.5 -213t-294.5 -73q-178 0 -274.5 71.5t-84.5 210.5h263q-1 -44 27 -68
t75 -24q59 0 91 32.5t32 82.5q0 82 -88 82z" />
    <glyph glyph-name="two.den" horiz-adv-x="886" 
d="M365 592h-271q19 147 123 226t291 79q143 0 229 -60.5t86 -179.5q0 -100 -56 -173.5t-159 -145.5l-196 -139v-4h342l-37 -195h-758l29 137l413 320q109 85 130 107q32 34 32 75q0 35 -24.5 55.5t-63.5 20.5q-97 0 -110 -123z" />
    <glyph glyph-name="zero.den" horiz-adv-x="980" 
d="M47 334q0 110 31.5 209.5t90.5 178t153.5 125t212.5 46.5q173 0 270.5 -85.5t97.5 -266.5q0 -121 -32 -223t-93 -177t-155.5 -117t-212.5 -42q-177 0 -270 89.5t-93 262.5zM426 172q42 0 78 41t58 103.5t34 132t12 131.5q0 71 -22 96.5t-62 25.5q-53 0 -95.5 -60.5
t-64.5 -153t-22 -193.5q0 -123 84 -123z" />
    <glyph glyph-name="zero.num" horiz-adv-x="980" 
d="M203 1018q0 110 31 209.5t90 178t153.5 125t212.5 46.5q173 0 271 -85.5t98 -266.5q0 -163 -55.5 -288t-168.5 -198t-270 -73q-177 0 -269.5 89.5t-92.5 262.5zM582 856q42 0 78 41t58 103.5t34 132t12 131.5q0 71 -22 96.5t-62 25.5q-53 0 -95.5 -60.5t-64.5 -153
t-22 -193.5q0 -123 84 -123z" />
    <glyph glyph-name="one.num" horiz-adv-x="626" 
d="M274 684l117 549h-196l38 186h35q87 0 140 31q58 33 73 117h252l-186 -883h-273z" />
    <glyph glyph-name="two.num" horiz-adv-x="874" 
d="M508 1276h-270q19 147 122.5 226t290.5 79q143 0 229.5 -61t86.5 -179q0 -100 -56 -173.5t-159 -145.5l-197 -139v-4h342l-37 -195h-758l29 137l414 320q109 85 130 107q32 34 32 75q0 35 -25 55.5t-64 20.5q-97 0 -110 -123z" />
    <glyph glyph-name="three.num" horiz-adv-x="884" 
d="M573 1053h-118l32 151h97q57 0 94 33.5t37 81.5q0 36 -25 56t-63 20q-90 0 -111 -92h-268q17 117 117.5 197.5t281.5 80.5q157 0 246.5 -59.5t89.5 -157.5q0 -177 -197 -225v-4q152 -46 152 -183q0 -140 -111 -213t-295 -73q-178 0 -274 71.5t-84 210.5h262
q-1 -44 27.5 -68t75.5 -24q59 0 91 32.5t32 82.5q0 82 -89 82z" />
    <glyph glyph-name="four.num" horiz-adv-x="946" 
d="M455 1044h215l73 342h-6q-41 -73 -102 -141zM981 860h-111l-36 -176h-248l37 176h-457l37 178l493 529h324l-107 -508h111z" />
    <glyph glyph-name="five.num" horiz-adv-x="897" 
d="M670 995q0 47 -25.5 73t-75.5 26q-64 0 -131 -62h-225l152 535h630l-43 -207h-424l-51 -176h6q93 80 222 80q118 0 177.5 -62.5t59.5 -169.5q0 -177 -116 -271.5t-320 -94.5q-171 0 -260.5 67.5t-75.5 212.5h264q0 -94 103 -94q57 0 95 38t38 105z" />
    <glyph glyph-name="six.num" horiz-adv-x="909" 
d="M971 1032q2 -165 -107.5 -266.5t-310.5 -101.5q-175 0 -260.5 87.5t-85.5 247.5q0 277 131.5 428.5t357.5 151.5q141 0 221.5 -65t77.5 -171h-250q-10 68 -81 68q-66 0 -106.5 -62.5t-63.5 -181.5h6q38 46 95.5 72.5t117.5 26.5q123 0 189.5 -63t68.5 -171zM571 836
q56 0 87.5 46.5t31.5 110.5q0 103 -86 103q-59 0 -92 -47t-33 -109q0 -104 92 -104z" />
    <glyph glyph-name="seven.num" horiz-adv-x="829" 
d="M168 684l455 680h-400l45 203h717l-31 -144l-499 -739h-287z" />
    <glyph glyph-name="eight.num" horiz-adv-x="882" 
d="M655 1581q157 0 243.5 -59t86.5 -158q0 -93 -50 -143.5t-144 -79.5v-6q157 -50 157 -189q0 -125 -99.5 -202.5t-307.5 -77.5q-371 0 -371 237q0 97 58.5 158t154.5 86v6q-107 50 -107 160q0 120 103 194t276 74zM645 1407q-58 0 -85.5 -33.5t-27.5 -79.5q0 -82 91 -82
q45 0 76.5 30t31.5 85q0 37 -24 58.5t-62 21.5zM553 831q50 0 86.5 35.5t36.5 100.5q0 43 -27 67.5t-71 24.5q-68 0 -100 -39t-32 -92q0 -97 107 -97z" />
    <glyph glyph-name="nine.num" horiz-adv-x="897" 
d="M612 1407q-58 0 -90.5 -45.5t-32.5 -108.5q0 -98 91 -98q63 0 96 44t33 108q0 100 -97 100zM489 666q-150 2 -230.5 63t-76.5 176h248q12 -74 92 -74q68 0 110 65.5t56 180.5h-6q-65 -92 -209 -92q-114 0 -186 73t-72 181q0 160 109.5 251t302.5 91q96 0 165.5 -26.5
t109 -74t57.5 -106.5t18 -131q0 -283 -129 -431t-359 -146z" />
    <glyph glyph-name="minus.den" horiz-adv-x="858" 
d="M86 336l37 182h625l-39 -182h-623z" />
    <glyph glyph-name="plus.den" horiz-adv-x="860" 
d="M500 336l-49 -240h-220l50 240h-234l39 182h233l50 236h219l-49 -236h235l-37 -182h-237z" />
    <glyph glyph-name="parenleft.tab" horiz-adv-x="614" 
d="M526 -266h-264q-151 313 -151 694q0 175 40 348.5t110.5 324t159.5 279.5t193 234h297q-251 -304 -381.5 -583t-130.5 -578q0 -382 127 -719z" />
    <glyph glyph-name="parenright.tab" horiz-adv-x="614" 
d="M162 1614h264q152 -315 152 -694q0 -231 -71.5 -459.5t-181.5 -406.5t-251 -320h-297q251 304 381.5 583t130.5 578q0 382 -127 719z" />
    <glyph glyph-name="bracketleft.tab" horiz-adv-x="614" 
d="M-18 -266l366 1880h514l-45 -230h-223l-279 -1421h224l-43 -229h-514z" />
    <glyph glyph-name="bracketright.tab" horiz-adv-x="614" 
d="M715 1614l-367 -1880h-514l45 229h223l279 1421h-223l43 230h514z" />
    <glyph glyph-name="braceleft.tab" horiz-adv-x="614" 
d="M84 547h-45l51 262h45q61 0 85 28.5t32 102.5l33 279q30 256 164.5 344t414.5 59l-43 -221q-79 4 -128.5 -7t-77 -41.5t-38.5 -68t-18 -102.5l-24 -242q-11 -114 -54.5 -172.5t-142.5 -75.5v-8q164 -43 90 -289l-61 -205q-23 -78 -25.5 -131t43 -81t150.5 -31l-43 -221
q-280 9 -378.5 116.5t-25.5 360.5l62 213q18 62 -1 96.5t-65 34.5z" />
    <glyph glyph-name="braceright.tab" horiz-adv-x="614" 
d="M614 809h45l-51 -262h-45q-61 0 -85 -28.5t-32 -102.5l-32 -279q-30 -256 -165 -344t-415 -59l43 221q79 -4 128.5 7t77 41.5t38.5 68t18 102.5l25 242q11 114 54 172.5t142 75.5v8q-164 43 -90 289l62 204q23 78 25.5 131t-43 81.5t-150.5 31.5l43 221
q280 -9 378 -116.5t25 -360.5l-61 -213q-18 -63 0.5 -97t64.5 -34z" />
    <glyph glyph-name="eight.sub" horiz-adv-x="888" 
d="M477 774q157 0 243.5 -59t86.5 -158q0 -93 -50 -143.5t-145 -79.5v-6q158 -50 158 -189q0 -125 -100 -202.5t-308 -77.5q-370 0 -370 237q0 97 58.5 158t154.5 86v6q-107 50 -107 160q0 120 103 194t276 74zM467 600q-58 0 -85.5 -33.5t-27.5 -79.5q0 -81 90 -81
q45 0 77 29.5t32 84.5q0 37 -24 58.5t-62 21.5zM375 25q50 0 86.5 35t36.5 100q0 43 -27.5 67.5t-71.5 24.5q-67 0 -99 -39t-32 -92q0 -96 107 -96z" />
    <glyph glyph-name="eight.sup" horiz-adv-x="882" 
d="M676 1683q157 0 243.5 -59t86.5 -158q0 -93 -50 -143.5t-145 -79.5v-6q158 -50 158 -188q0 -125 -100 -203t-308 -78q-371 0 -371 238q0 97 58.5 157.5t154.5 85.5v6q-106 50 -106 160q0 120 103 194t276 74zM666 1509q-58 0 -85.5 -33t-27.5 -79q0 -82 90 -82
q45 0 77 30t32 85q0 37 -24 58t-62 21zM573 934q50 0 86.5 35t36.5 100q0 43 -27 67.5t-71 24.5q-67 0 -99 -39t-32 -92q0 -96 106 -96z" />
    <glyph glyph-name="five.sub" horiz-adv-x="897" 
d="M508 188q0 47 -25 73t-75 26q-65 0 -132 -62h-225l152 535h631l-43 -207h-424l-52 -176h7q93 80 221 80q118 0 177.5 -62.5t59.5 -169.5q0 -177 -116 -271.5t-320 -94.5q-171 0 -260.5 67.5t-75.5 212.5h264q0 -94 103 -94q57 0 95 38.5t38 104.5z" />
    <glyph glyph-name="five.sup" horiz-adv-x="897" 
d="M694 1098q0 98 -100 98q-34 0 -63.5 -13t-67.5 -48h-225l151 534h631l-43 -207h-424l-51 -176h6q93 80 221 80q118 0 178 -62t60 -169q0 -177 -116.5 -272t-320.5 -95q-171 0 -260 68t-75 213h264q0 -95 102 -95q56 0 94.5 38.5t38.5 105.5z" />
    <glyph glyph-name="four.sub" horiz-adv-x="935" 
d="M266 238h215l74 342h-6q-42 -74 -103 -142zM793 53h-111l-37 -176h-248l37 176h-457l37 178l494 529h323l-106 -508h111z" />
    <glyph glyph-name="four.sup" horiz-adv-x="946" 
d="M475 1147h215l74 342h-6q-42 -73 -103 -141zM1001 963h-110l-37 -177h-248l37 177h-457l37 178l494 528h323l-106 -508h110z" />
    <glyph glyph-name="minus.sub" horiz-adv-x="858" 
d="M63 213l37 182h625l-39 -182h-623z" />
    <glyph glyph-name="minus.sup" horiz-adv-x="858" 
d="M246 1122l37 183h624l-39 -183h-622z" />
    <glyph glyph-name="nine.sub" horiz-adv-x="897" 
d="M434 600q-58 0 -90.5 -45.5t-32.5 -108.5q0 -98 90 -98q63 0 96 44t33 108q0 100 -96 100zM311 -141q-150 2 -230.5 63t-76.5 176h248q11 -73 92 -73q68 0 110 65t56 180h-6q-65 -92 -209 -92q-114 0 -186 73t-72 181q0 160 109.5 251t302.5 91q96 0 165.5 -26.5t109 -74
t57.5 -106.5t18 -131q0 -283 -129 -431t-359 -146z" />
    <glyph glyph-name="nine.sup" horiz-adv-x="897" 
d="M633 1509q-58 0 -90.5 -45t-32.5 -108q0 -99 90 -99q63 0 96 44t33 108q0 100 -96 100zM510 768q-150 2 -230.5 63.5t-76.5 176.5h248q12 -74 92 -74q68 0 110 65.5t56 180.5h-7q-66 -93 -208 -93q-114 0 -186 73t-72 181q0 160 109 251t302 91q96 0 165.5 -26t109 -74
t57.5 -106.5t18 -130.5q0 -283 -129 -431.5t-358 -146.5z" />
    <glyph glyph-name="one.sub" horiz-adv-x="626" 
d="M96 -123l117 549h-197l39 186h35q86 0 139 31q59 34 74 117h252l-186 -883h-273z" />
    <glyph glyph-name="one.sup" horiz-adv-x="626" 
d="M295 786l117 549h-197l39 187h35q88 0 139 30q59 34 74 117h252l-187 -883h-272z" />
    <glyph glyph-name="plus.sub" horiz-adv-x="860" 
d="M477 213l-49 -240h-219l49 240h-233l38 182h234l49 236h219l-49 -236h236l-37 -182h-238z" />
    <glyph glyph-name="plus.sup" horiz-adv-x="860" 
d="M659 1122l-49 -239h-219l49 239h-233l39 183h233l49 235h220l-50 -235h236l-37 -183h-238z" />
    <glyph glyph-name="seven.sub" horiz-adv-x="829" 
d="M6 -123l455 680h-400l45 203h717l-30 -144l-500 -739h-287z" />
    <glyph glyph-name="seven.sup" horiz-adv-x="829" 
d="M188 786l455 680h-399l45 203h717l-31 -143l-500 -740h-287z" />
    <glyph glyph-name="six.sub" horiz-adv-x="909" 
d="M793 225q2 -164 -106 -266t-304 -102q-170 0 -262 91t-92 255q0 270 131.5 419.5t357.5 149.5q141 0 221.5 -64.5t77.5 -170.5h-250q-10 67 -82 67q-66 0 -106.5 -62.5t-63.5 -181.5h7q38 46 95.5 72.5t117.5 26.5q123 0 189.5 -63t68.5 -171zM393 29q56 0 87.5 46.5
t31.5 110.5q0 103 -86 103q-59 0 -92 -47t-33 -109q0 -104 92 -104z" />
    <glyph glyph-name="six.sup" horiz-adv-x="909" 
d="M991 1135q2 -165 -107.5 -267t-310.5 -102q-175 0 -260.5 88t-85.5 248q0 277 131.5 428t358.5 151q141 0 221.5 -64.5t77.5 -170.5h-250q-10 67 -82 67q-66 0 -106.5 -62t-63.5 -181h6q38 46 95.5 72t117.5 26q124 0 190 -62.5t68 -170.5zM592 938q56 0 87.5 47
t31.5 111q0 102 -86 102q-59 0 -92 -47t-33 -109q0 -104 92 -104z" />
    <glyph glyph-name="three.sub" horiz-adv-x="884" 
d="M395 246h-119l33 151h97q57 0 94 33.5t37 81.5q0 36 -25 56t-63 20q-90 0 -111 -92h-268q17 117 117.5 197.5t281.5 80.5q157 0 246.5 -59.5t89.5 -157.5q0 -177 -197 -225v-4q152 -46 152 -183q0 -140 -111 -213t-295 -73q-178 0 -274 71.5t-84 210.5h262q-1 -44 27 -68
t75 -24q59 0 91 32.5t32 82.5q0 82 -88 82z" />
    <glyph glyph-name="three.sup" horiz-adv-x="884" 
d="M594 1155h-119l33 152h96q58 0 94.5 33t36.5 81q0 36 -25 56t-63 20q-89 0 -110 -92h-269q17 117 118 197.5t282 80.5q157 0 246.5 -59.5t89.5 -157.5q0 -177 -197 -225v-4q151 -46 151 -182q0 -140 -110.5 -213.5t-294.5 -73.5q-178 0 -274 72t-84 211h262
q-1 -45 27 -69t75 -24q59 0 91 32.5t32 82.5q0 82 -88 82z" />
    <glyph glyph-name="two.sub" horiz-adv-x="886" 
d="M342 469h-270q19 147 122.5 226t290.5 79q143 0 229.5 -60.5t86.5 -178.5q0 -69 -31.5 -130t-74.5 -102.5t-109 -87.5l-197 -139v-4h342l-37 -195h-757l28 137l414 320q109 85 130 107q32 34 32 75q0 35 -24.5 55.5t-63.5 20.5q-98 0 -111 -123z" />
    <glyph glyph-name="two.sup" horiz-adv-x="874" 
d="M528 1378h-270q19 147 123 226t291 79q143 0 229 -60.5t86 -178.5q0 -69 -31.5 -130t-74.5 -102.5t-109 -87.5l-197 -139v-4h343l-37 -195h-758l29 138l413 319q109 85 130 107q32 34 32 75q0 35 -24.5 55.5t-63.5 20.5q-98 0 -111 -123z" />
    <glyph glyph-name="zero.sub" horiz-adv-x="980" 
d="M25 211q0 110 31 209.5t90 178t153.5 125t212.5 46.5q173 0 271 -85.5t98 -266.5q0 -163 -55.5 -288t-168.5 -198t-270 -73q-177 0 -269.5 89.5t-92.5 262.5zM403 49q56 0 99.5 70t63.5 161.5t20 176.5q0 71 -22.5 97t-61.5 26q-53 0 -96 -61t-65 -153.5t-22 -193.5
q0 -123 84 -123z" />
    <glyph glyph-name="zero.sup" horiz-adv-x="980" 
d="M223 1120q0 110 31.5 209.5t90.5 178t153.5 125t212.5 46.5q173 0 270.5 -85.5t97.5 -266.5q0 -121 -32 -223t-93 -177t-155.5 -117t-212.5 -42q-177 0 -270 89.5t-93 262.5zM602 958q42 0 78 41t58 103.5t34 132t12 131.5q0 71 -22.5 97t-61.5 26q-53 0 -95.5 -61
t-64.5 -153.5t-22 -193.5q0 -123 84 -123z" />
    <glyph glyph-name="Q.old" horiz-adv-x="1648" 
d="M1208 -182l-164 188q-122 -39 -260 -39q-107 0 -199 18.5t-178.5 64.5t-147.5 117t-98 183.5t-38 257.5q-1 200 55 376.5t160 311.5t266 214t361 79q105 0 200 -22.5t179.5 -73t146 -125.5t97 -185.5t34.5 -246.5q-2 -244 -83.5 -450t-235.5 -336l127 -150zM555 559
q0 -61 12 -112.5t38.5 -96.5t76.5 -70.5t119 -25.5h28l-92 106l226 187l116 -135q111 182 111 583q0 64 -13 117t-39.5 95.5t-73.5 66.5t-110 24q-86 0 -156.5 -49t-114.5 -126t-74 -177.5t-42 -197t-12 -189.5z" />
    <glyph glyph-name="Q.scold" horiz-adv-x="1501" 
d="M1073 -119l-115 129q-112 -37 -251 -37q-97 0 -179.5 16.5t-159 57t-129.5 103.5t-84.5 162t-31.5 227q0 63 7.5 128.5t29 146t55 152t91 141t131.5 119.5t182 80.5t237 30.5q91 0 172 -17.5t157.5 -60t131.5 -107t88 -165.5t33 -229q0 -182 -71.5 -349t-195.5 -276
l91 -104zM528 473q0 -250 191 -250q17 0 45 4l-105 119l193 152l94 -107q45 89 67.5 211t22.5 244q0 109 -47 173t-139 64q-83 0 -148 -58t-101 -150.5t-54.5 -195.5t-18.5 -206z" />
    <glyph glyph-name="Euro.tab" horiz-adv-x="1204" 
d="M1159 451q-31 -220 -168 -352t-373 -132q-153 0 -256.5 71.5t-147.5 189t-38 270.5v14h-147l32 164h127q6 76 21 153h-119l33 164h119q145 545 612 545q139 0 238 -67t141 -178.5t24 -245.5h-301q2 103 -27 154.5t-104 51.5q-131 0 -215 -260h254l-33 -164h-262
q-15 -79 -24 -153h258l-33 -164h-240v-25q-6 -233 140 -233q129 0 178 197h311z" />
    <glyph glyph-name="dollar.tab" horiz-adv-x="1204" 
d="M621 965l57 297q-74 -6 -120 -49t-46 -115q0 -50 25.5 -80.5t83.5 -52.5zM621 254h6q84 10 134 60t50 120q0 51 -28.5 86.5t-100.5 57.5zM1174 512q0 -242 -159.5 -388.5t-439.5 -146.5h-8l-39 -208h-135l41 217q-222 25 -333.5 138t-98.5 318h356q-8 -147 129 -180
l68 352l-84 23q-168 45 -247 146t-79 259q0 152 76 263t206.5 167t297.5 56h4l33 172l135 4l-35 -184q411 -49 389 -422h-342q3 62 -20 99t-78 54l-61 -325l100 -29q324 -92 324 -385z" />
    <glyph glyph-name="dieresis.uc" horiz-adv-x="741" 
d="M657 1702l64 321h321l-63 -321h-322zM225 1702l64 321h321l-63 -321h-322z" />
    <glyph glyph-name="zero.tab" 
d="M94 489q0 87 10.5 181t34.5 197t59.5 198.5t90 182t121.5 150.5t158 102t196 38q232 0 354.5 -133t122.5 -385q0 -92 -10.5 -188.5t-34.5 -200.5t-60 -198t-90.5 -179t-121.5 -147.5t-158.5 -99t-196.5 -36.5q-236 0 -355.5 131t-119.5 387zM588 274q62 0 115 69.5
t85 168t54.5 211t31.5 194.5t9 123q0 191 -131 191q-64 0 -118 -67t-86 -163.5t-54.5 -208t-31.5 -195.5t-9 -132q0 -191 135 -191z" />
    <glyph glyph-name="one.tab" 
d="M1071 0h-1016l56 295h360l135 704h-370l49 250h73q157 0 248 56q100 62 131 213h334l-237 -1223h292z" />
    <glyph glyph-name="nine.tab" 
d="M885 1079q0 77 -40 127.5t-114 50.5q-105 0 -163 -87.5t-58 -202.5q0 -76 40 -123t114 -47q108 0 164.5 81.5t56.5 200.5zM78 373h334q9 -127 135 -127q222 0 309 432h-6q-64 -74 -137 -105.5t-174 -31.5q-174 0 -280 114.5t-105 317.5q1 125 49 231.5t129 179t189 113
t227 41.5q243 1 368 -139t125 -379q0 -93 -10 -189t-34.5 -200.5t-60.5 -199t-92.5 -180.5t-126.5 -148t-166 -99t-208 -37q-113 0 -202.5 32t-145.5 88t-85.5 128.5t-31.5 157.5z" />
    <glyph glyph-name="eight.tab" 
d="M799 1540q122 0 226 -42t172 -130t67 -207q-1 -138 -75.5 -239t-203.5 -146v-8q187 -103 184 -309q0 -118 -48 -212.5t-131 -154.5t-191 -91.5t-232 -31.5q-235 0 -377.5 105t-142.5 305q0 152 95.5 265.5t250.5 150.5v8q-148 106 -151 274q-4 220 150.5 341.5
t406.5 121.5zM780 1284q-93 0 -144.5 -69t-51.5 -164q0 -75 39 -115.5t98 -40.5q50 0 91 22t64.5 57.5t36 75.5t11.5 80q-1 72 -40.5 113t-103.5 41zM582 215q101 0 164 71.5t63 180.5q0 81 -47 127.5t-121 46.5q-102 0 -165.5 -71.5t-63.5 -178.5q0 -83 48.5 -129.5
t121.5 -46.5z" />
    <glyph glyph-name="seven.tab" 
d="M39 0l835 1225h-679l63 293h1090l-50 -232l-868 -1286h-391z" />
    <glyph glyph-name="six.tab" 
d="M1253 1135h-335q-9 127 -136 127q-215 0 -301 -424h6q70 78 136.5 112.5t164.5 34.5q166 0 275 -113t108 -301q-1 -187 -81.5 -325t-214 -207t-302.5 -70q-229 -2 -354 132.5t-125 387.5q0 87 11 181t37 197.5t63.5 199t95 182.5t127 151t164.5 102t203 38
q110 0 197.5 -32.5t143.5 -88.5t85.5 -128.5t31.5 -155.5zM610 258q68 1 120 47t76.5 112.5t24.5 139.5q0 78 -42 128t-117 50q-68 0 -120 -44.5t-76.5 -112t-24.5 -144.5q0 -78 41.5 -127t117.5 -49z" />
    <glyph glyph-name="five.tab" 
d="M39 434h344q6 -176 182 -176q105 0 166.5 75t63.5 199q1 87 -44.5 134t-115.5 47q-134 0 -219 -101h-293l199 906h909l-60 -306h-598l-73 -335h6q76 58 141.5 80t157.5 22q166 0 269 -106t102 -310q-1 -138 -51 -251t-135.5 -187.5t-200.5 -115t-248 -40.5
q-138 0 -242 39t-162.5 105t-83 147.5t-14.5 173.5z" />
    <glyph glyph-name="space_uni0326.alt" horiz-adv-x="741" 
d="M817 1614l-129 -369h-381l250 369h260z" />
    <glyph glyph-name="four.tab" 
d="M399 604h310l106 543h-6q-33 -65 -121 -176zM1163 330h-157l-64 -330h-354l63 330h-618l49 258l741 930h414l-176 -902h158z" />
    <glyph glyph-name="three.tab" 
d="M621 631h-107l51 268h125q100 0 155.5 57t55.5 138q0 74 -44.5 121t-129.5 47q-83 0 -135 -54t-55 -141h-332q15 226 169.5 349.5t393.5 123.5q115 0 207.5 -31.5t149.5 -85t87.5 -121t30.5 -143.5q0 -87 -26.5 -159t-95.5 -134t-177 -94v-6q205 -87 205 -303
q0 -117 -45.5 -212.5t-124 -156t-180 -93t-217.5 -32.5q-118 0 -212.5 26t-156 71t-100 106t-51 128.5t-3.5 141.5h344q0 -184 183 -184q115 0 171 65.5t56 151.5q0 77 -52 116.5t-140 39.5z" />
    <glyph glyph-name="uni021A.sc" horiz-adv-x="1243" 
d="M928 1036l-207 -1036h-393l207 1036h-361l59 283h1106l-57 -283h-354zM197 -467l118 340h371l-223 -340h-266z" />
    <glyph glyph-name="two.tab" 
d="M172 999q11 263 162 402t428 139q213 0 341 -116.5t128 -290.5q0 -50 -9 -96t-21.5 -83t-40.5 -79t-50.5 -71.5t-68 -74.5t-77 -74.5t-92.5 -83.5l-305 -272v-4h576l-56 -295h-1107l40 215l603 545q18 16 56.5 50t52 46.5t41 39t37.5 39.5t26.5 35.5t22 39.5t10.5 39.5
t5 46.5q0 67 -41 106t-108 39q-88 0 -143.5 -61.5t-55.5 -180.5h-354z" />
    </font>
</defs>
</svg>
